<svg width="100%" height="100%" viewBox="-161, -23, 1835, 3734"><g><g class="djs-visual" id="Flow_1vnhnwh" transform="translate(0 0)"><path d="m  330,590L330,660 " style="fill: none; stroke-width: 2px; stroke: black; stroke-linejoin: round; marker-end: url(&quot;#sequenceflow-end-white-black-ai17nokvne911e6h4fxokk1qh&quot;);"></path></g><g class="djs-visual" id="Flow_0mzl50f" transform="translate(0 0)"><path d="m  330,430L330,490 " style="fill: none; stroke-width: 2px; stroke: black; stroke-linejoin: round; marker-end: url(&quot;#sequenceflow-end-white-black-ai17nokvne911e6h4fxokk1qh&quot;);"></path></g><g class="djs-visual" id="Flow_0g1hr6b" transform="translate(0 0)"><path d="m  710,3150L710,3200 L900,3200 L900,1800 L-15,1800 " style="fill: none; stroke-width: 2px; stroke: black; stroke-linejoin: round; marker-end: url(&quot;#sequenceflow-end-white-black-ai17nokvne911e6h4fxokk1qh&quot;);"></path></g><g class="djs-visual" id="Flow_1v53g6k" transform="translate(0 0)"><path d="m  350,3500L350,3582 " style="fill: none; stroke-width: 2px; stroke: black; stroke-linejoin: round; marker-end: url(&quot;#sequenceflow-end-white-black-ai17nokvne911e6h4fxokk1qh&quot;);"></path></g><g class="djs-visual" id="Flow_05n3jfr" transform="translate(0 0)"><path d="m  350,3320L350,3400 " style="fill: none; stroke-width: 2px; stroke: black; stroke-linejoin: round; marker-end: url(&quot;#sequenceflow-end-white-black-ai17nokvne911e6h4fxokk1qh&quot;);"></path></g><g class="djs-visual" id="Flow_0nbzx4d" transform="translate(0 0)"><path d="m  350,3150L350,3220 " style="fill: none; stroke-width: 2px; stroke: black; stroke-linejoin: round; marker-end: url(&quot;#sequenceflow-end-white-black-ai17nokvne911e6h4fxokk1qh&quot;);"></path></g><g class="djs-visual" id="Flow_05jl60b" transform="translate(0 0)"><path d="m  710,2980L710,3050 " style="fill: none; stroke-width: 2px; stroke: black; stroke-linejoin: round; marker-end: url(&quot;#sequenceflow-end-white-black-ai17nokvne911e6h4fxokk1qh&quot;);"></path></g><g class="djs-visual" id="Flow_09tf67r" transform="translate(0 0)"><path d="m  350,2980L350,3050 " style="fill: none; stroke-width: 2px; stroke: black; stroke-linejoin: round; marker-end: url(&quot;#sequenceflow-end-white-black-ai17nokvne911e6h4fxokk1qh&quot;);"></path></g><g class="djs-visual" id="Flow_1rxz8p3" transform="translate(0 0)"><path d="m  710,2800L710,2880 " style="fill: none; stroke-width: 2px; stroke: black; stroke-linejoin: round; marker-end: url(&quot;#sequenceflow-end-white-black-ai17nokvne911e6h4fxokk1qh&quot;);"></path></g><g class="djs-visual" id="Flow_0szffyg" transform="translate(0 0)"><path d="m  350,2800L350,2880 " style="fill: none; stroke-width: 2px; stroke: black; stroke-linejoin: round; marker-end: url(&quot;#sequenceflow-end-white-black-ai17nokvne911e6h4fxokk1qh&quot;);"></path></g><g class="djs-visual" id="Flow_1tiq003" transform="translate(0 0)"><path d="m  375,2610L710,2610 L710,2700 " style="fill: none; stroke-width: 2px; stroke: black; stroke-linejoin: round; marker-end: url(&quot;#sequenceflow-end-white-black-ai17nokvne911e6h4fxokk1qh&quot;);"></path></g><g class="djs-visual" id="Flow_1rs67it" transform="translate(0 0)"><path d="m  350,2635L350,2700 " style="fill: none; stroke-width: 2px; stroke: black; stroke-linejoin: round; marker-end: url(&quot;#sequenceflow-end-white-black-ai17nokvne911e6h4fxokk1qh&quot;);"></path></g><g class="djs-visual" id="Flow_0ift5pd" transform="translate(0 0)"><path d="m  350,2500L350,2585 " style="fill: none; stroke-width: 2px; stroke: black; stroke-linejoin: round; marker-end: url(&quot;#sequenceflow-end-white-black-ai17nokvne911e6h4fxokk1qh&quot;);"></path></g><g class="djs-visual" id="Flow_1k0bk16" transform="translate(0 0)"><path d="m  -40,2500L-40,2592 " style="fill: none; stroke-width: 2px; stroke: black; stroke-linejoin: round; marker-end: url(&quot;#sequenceflow-end-white-black-ai17nokvne911e6h4fxokk1qh&quot;);"></path></g><g class="djs-visual" id="Flow_1h0st3q" transform="translate(0 0)"><path d="m  350,2340L350,2400 " style="fill: none; stroke-width: 2px; stroke: black; stroke-linejoin: round; marker-end: url(&quot;#sequenceflow-end-white-black-ai17nokvne911e6h4fxokk1qh&quot;);"></path></g><g class="djs-visual" id="Flow_0uapt8d" transform="translate(0 0)"><path d="m  -40,2340L-40,2400 " style="fill: none; stroke-width: 2px; stroke: black; stroke-linejoin: round; marker-end: url(&quot;#sequenceflow-end-white-black-ai17nokvne911e6h4fxokk1qh&quot;);"></path></g><g class="djs-visual" id="Flow_0kqyeln" transform="translate(0 0)"><path d="m  -15,2120L350,2120 L350,2240 " style="fill: none; stroke-width: 2px; stroke: black; stroke-linejoin: round; marker-end: url(&quot;#sequenceflow-end-white-black-ai17nokvne911e6h4fxokk1qh&quot;);"></path></g><g class="djs-visual" id="Flow_0kegjf2" transform="translate(0 0)"><path d="m  -40,2145L-40,2240 " style="fill: none; stroke-width: 2px; stroke: black; stroke-linejoin: round; marker-end: url(&quot;#sequenceflow-end-white-black-ai17nokvne911e6h4fxokk1qh&quot;);"></path></g><g class="djs-visual" id="Flow_0snhhd2" transform="translate(0 0)"><path d="m  -40,2020L-40,2095 " style="fill: none; stroke-width: 2px; stroke: black; stroke-linejoin: round; marker-end: url(&quot;#sequenceflow-end-white-black-ai17nokvne911e6h4fxokk1qh&quot;);"></path></g><g class="djs-visual" id="Flow_0346i6k" transform="translate(0 0)"><path d="m  -40,1825L-40,1920 " style="fill: none; stroke-width: 2px; stroke: black; stroke-linejoin: round; marker-end: url(&quot;#sequenceflow-end-white-black-ai17nokvne911e6h4fxokk1qh&quot;);"></path></g><g class="djs-visual" id="Flow_1aqhy2b" transform="translate(0 0)"><path d="m  -40,1545L-40,1610 " style="fill: none; stroke-width: 2px; stroke: black; stroke-linejoin: round; marker-end: url(&quot;#sequenceflow-end-white-black-ai17nokvne911e6h4fxokk1qh&quot;);"></path></g><g class="djs-visual" id="Flow_1eaemaa" transform="translate(0 0)"><path d="m  -40,1710L-40,1775 " style="fill: none; stroke-width: 2px; stroke: black; stroke-linejoin: round; marker-end: url(&quot;#sequenceflow-end-white-black-ai17nokvne911e6h4fxokk1qh&quot;);"></path></g><g class="djs-visual" id="Flow_1jhgvh3" transform="translate(0 0)"><path d="m  330,1470L330,1520 L-15,1520 " style="fill: none; stroke-width: 2px; stroke: black; stroke-linejoin: round; marker-end: url(&quot;#sequenceflow-end-white-black-ai17nokvne911e6h4fxokk1qh&quot;);"></path></g><g class="djs-visual" id="Flow_1i0yin2" transform="translate(0 0)"><path d="m  -40,430L-40,1495 " style="fill: none; stroke-width: 2px; stroke: black; stroke-linejoin: round; marker-end: url(&quot;#sequenceflow-end-white-black-ai17nokvne911e6h4fxokk1qh&quot;);"></path></g><g class="djs-visual" id="Flow_1nop228" transform="translate(0 0)"><path d="m  330,1310L330,1370 " style="fill: none; stroke-width: 2px; stroke: black; stroke-linejoin: round; marker-end: url(&quot;#sequenceflow-end-white-black-ai17nokvne911e6h4fxokk1qh&quot;);"></path></g><g class="djs-visual" id="Flow_0htfx78" transform="translate(0 0)"><path d="m  330,1145L330,1210 " style="fill: none; stroke-width: 2px; stroke: black; stroke-linejoin: round; marker-end: url(&quot;#sequenceflow-end-white-black-ai17nokvne911e6h4fxokk1qh&quot;);"></path></g><g class="djs-visual" id="Flow_0b41y7h" transform="translate(0 0)"><path d="m  540,1050L540,1120 L355,1120 " style="fill: none; stroke-width: 2px; stroke: black; stroke-linejoin: round; marker-end: url(&quot;#sequenceflow-end-white-black-ai17nokvne911e6h4fxokk1qh&quot;);"></path></g><g class="djs-visual" id="Flow_0pwj2li" transform="translate(0 0)"><path d="m  355,850L540,850 L540,950 " style="fill: none; stroke-width: 2px; stroke: black; stroke-linejoin: round; marker-end: url(&quot;#sequenceflow-end-white-black-ai17nokvne911e6h4fxokk1qh&quot;);"></path></g><g class="djs-visual" id="Flow_1eqvvdj" transform="translate(0 0)"><path d="m  330,875L330,1095 " style="fill: none; stroke-width: 2px; stroke: black; stroke-linejoin: round; marker-end: url(&quot;#sequenceflow-end-white-black-ai17nokvne911e6h4fxokk1qh&quot;);"></path></g><g class="djs-visual" id="Flow_1c7etxq" transform="translate(0 0)"><path d="m  330,760L330,825 " style="fill: none; stroke-width: 2px; stroke: black; stroke-linejoin: round; marker-end: url(&quot;#sequenceflow-end-white-black-ai17nokvne911e6h4fxokk1qh&quot;);"></path></g><g class="djs-visual" id="Flow_12od2ce" transform="translate(0 0)"><path d="m  330,260L330,330 " style="fill: none; stroke-width: 2px; stroke: black; stroke-linejoin: round; marker-end: url(&quot;#sequenceflow-end-white-black-ai17nokvne911e6h4fxokk1qh&quot;);"></path></g><g class="djs-visual" id="Flow_0ojqvpf" transform="translate(0 0)"><path d="m  -40,260L-40,330 " style="fill: none; stroke-width: 2px; stroke: black; stroke-linejoin: round; marker-end: url(&quot;#sequenceflow-end-white-black-ai17nokvne911e6h4fxokk1qh&quot;);"></path></g><g class="djs-visual" id="Flow_0bohhbd" transform="translate(0 0)"><path d="m  330,118L330,160 " style="fill: none; stroke-width: 2px; stroke: black; stroke-linejoin: round; marker-end: url(&quot;#sequenceflow-end-white-black-ai17nokvne911e6h4fxokk1qh&quot;);"></path></g><g class="djs-visual" id="Flow_1e2l9xm" transform="translate(0 0)"><path d="m  -40,118L-40,160 " style="fill: none; stroke-width: 2px; stroke: black; stroke-linejoin: round; marker-end: url(&quot;#sequenceflow-end-white-black-ai17nokvne911e6h4fxokk1qh&quot;);"></path></g><g class="djs-visual" id="StartEvent_1bm324f" transform="translate(-58 82)"><circle cx="18" cy="18" r="18" style="stroke: black; stroke-width: 2px; fill: white; fill-opacity: 0.95;"></circle></g><g class="djs-visual" id="StartEvent_1bm324f_label" transform="translate(-80 33)"><text lineHeight="1.2" class="djs-label" style="font-family: Arial, sans-serif; font-size: 11px; font-weight: normal; fill: black;"><tspan x="9.28076171875" y="9.899999999999999">Bank Initiates </tspan><tspan x="0" y="23.099999999999998">Liquidity Transfer </tspan><tspan x="21.59228515625" y="36.3">Request</tspan></text></g><g class="djs-visual" id="Activity_15mln6j" transform="translate(-105 160)"><rect x="0" y="0" width="130" height="100" rx="10" ry="10" style="stroke: black; stroke-width: 2px; fill: white; fill-opacity: 0.95;"></rect><text lineHeight="1.2" class="djs-label" style="font-family: Arial, sans-serif; font-size: 12px; font-weight: normal; fill: black;"><tspan x="19.96875" y="46.4">Capture Liquidity </tspan><tspan x="44.6572265625" y="60.8">transfer</tspan></text></g><g class="djs-visual" id="Event_083fop6" transform="translate(312 82)"><circle cx="18" cy="18" r="18" style="stroke: black; stroke-width: 2px; fill: white; fill-opacity: 0.95;"></circle></g><g class="djs-visual" id="Event_083fop6_label" transform="translate(287 34)"><text lineHeight="1.2" class="djs-label" style="font-family: Arial, sans-serif; font-size: 11px; font-weight: normal; fill: black;"><tspan x="9.28076171875" y="9.899999999999999">Bank Initiates </tspan><tspan x="0" y="23.099999999999998">Liquidity Transfer </tspan><tspan x="21.59228515625" y="36.3">Request</tspan></text></g><g class="djs-visual" id="Activity_0gtxazf" transform="translate(265 160)"><rect x="0" y="0" width="130" height="100" rx="10" ry="10" style="stroke: black; stroke-width: 2px; fill: white; fill-opacity: 0.95;"></rect><text lineHeight="1.2" class="djs-label" style="font-family: Arial, sans-serif; font-size: 12px; font-weight: normal; fill: black;"><tspan x="19.96875" y="46.4">Capture Liquidity </tspan><tspan x="44.6572265625" y="60.8">transfer</tspan></text></g><g class="djs-visual" id="Activity_0uakuka" transform="translate(-105 330)"><rect x="0" y="0" width="130" height="100" rx="10" ry="10" style="stroke: black; stroke-width: 2px; fill: white; fill-opacity: 0.95;"></rect><text lineHeight="1.2" class="djs-label" style="font-family: Arial, sans-serif; font-size: 12px; font-weight: normal; fill: black;"><tspan x="17.642578125" y="53.599999999999994">Authorise transfer</tspan></text></g><g class="djs-visual" id="Activity_1i13rpf" transform="translate(265 330)"><rect x="0" y="0" width="130" height="100" rx="10" ry="10" style="stroke: black; stroke-width: 2px; fill: white; fill-opacity: 0.95;"></rect><text lineHeight="1.2" class="djs-label" style="font-family: Arial, sans-serif; font-size: 12px; font-weight: normal; fill: black;"><tspan x="17.642578125" y="53.599999999999994">Authorise transfer</tspan></text></g><g class="djs-visual" id="Activity_15datmc" transform="translate(265 490)"><rect x="0" y="0" width="130" height="100" rx="10" ry="10" style="stroke: black; stroke-width: 2px; fill: white; fill-opacity: 0.95;"></rect><text lineHeight="1.2" class="djs-label" style="font-family: Arial, sans-serif; font-size: 12px; font-weight: normal; fill: black;"><tspan x="21.3134765625" y="46.4">Create Payment </tspan><tspan x="49.1611328125" y="60.8">Order</tspan></text></g><g class="djs-visual" id="Activity_1eghjmv" transform="translate(265 660)"><rect x="0" y="0" width="130" height="100" rx="10" ry="10" style="stroke: black; stroke-width: 2px; fill: white; fill-opacity: 0.95;"></rect><text lineHeight="1.2" class="djs-label" style="font-family: Arial, sans-serif; font-size: 12px; font-weight: normal; fill: black;"><tspan x="14.6796875" y="46.4">Check 'warehouse' </tspan><tspan x="29.984375" y="60.8">requirements</tspan></text></g><g class="djs-visual" id="Activity_0yy09i8" transform="translate(475 950)"><rect x="0" y="0" width="130" height="100" rx="10" ry="10" style="stroke: black; stroke-width: 2px; fill: white; fill-opacity: 0.95;"></rect><text lineHeight="1.2" class="djs-label" style="font-family: Arial, sans-serif; font-size: 12px; font-weight: normal; fill: black;"><tspan x="7.46484375" y="46.4">Manage warehousing</tspan><tspan x="48.15234375" y="60.8">queue</tspan></text></g><g class="djs-visual" id="Gateway_0rg7gg9" transform="translate(305 825)"><polygon points="25,0 50,25 25,50 0,25" style="stroke: black; stroke-width: 2px; fill: white; fill-opacity: 0.95;"></polygon><path d="m 16,15 7.42857142857143,9.714285714285715 -7.42857142857143,9.714285714285715 3.428571428571429,0 5.714285714285715,-7.464228571428572 5.714285714285715,7.464228571428572 3.428571428571429,0 -7.42857142857143,-9.714285714285715 7.42857142857143,-9.714285714285715 -3.428571428571429,0 -5.714285714285715,7.464228571428572 -5.714285714285715,-7.464228571428572 -3.428571428571429,0 z" style="fill: black; stroke-width: 1px; stroke: black;"></path></g><g class="djs-visual" id="Gateway_1hhbvez" transform="translate(305 1095)"><polygon points="25,0 50,25 25,50 0,25" style="stroke: black; stroke-width: 2px; fill: white; fill-opacity: 0.95;"></polygon><path d="m 16,15 7.42857142857143,9.714285714285715 -7.42857142857143,9.714285714285715 3.428571428571429,0 5.714285714285715,-7.464228571428572 5.714285714285715,7.464228571428572 3.428571428571429,0 -7.42857142857143,-9.714285714285715 7.42857142857143,-9.714285714285715 -3.428571428571429,0 -5.714285714285715,7.464228571428572 -5.714285714285715,-7.464228571428572 -3.428571428571429,0 z" style="fill: black; stroke-width: 1px; stroke: black;"></path></g><g class="djs-visual" id="Activity_0ph952g" transform="translate(265 1210)"><rect x="0" y="0" width="130" height="100" rx="10" ry="10" style="stroke: black; stroke-width: 2px; fill: white; fill-opacity: 0.95;"></rect><text lineHeight="1.2" class="djs-label" style="font-family: Arial, sans-serif; font-size: 12px; font-weight: normal; fill: black;"><tspan x="25.142578125" y="46.4">Send details to </tspan><tspan x="20.6484375" y="60.8">Payment system</tspan></text></g><g class="djs-visual" id="Activity_17b9jy4" transform="translate(265 1370)"><rect x="0" y="0" width="130" height="100" rx="10" ry="10" style="stroke: black; stroke-width: 2px; fill: white; fill-opacity: 0.95;"></rect><text lineHeight="1.2" class="djs-label" style="font-family: Arial, sans-serif; font-size: 12px; font-weight: normal; fill: black;"><tspan x="18.310546875" y="46.4">Receive payment </tspan><tspan x="47.65625" y="60.8">details</tspan></text></g><g class="djs-visual" id="Gateway_0en4vle" transform="translate(-65 1495)"><polygon points="25,0 50,25 25,50 0,25" style="stroke: black; stroke-width: 2px; fill: white; fill-opacity: 0.95;"></polygon><path d="m 16,15 7.42857142857143,9.714285714285715 -7.42857142857143,9.714285714285715 3.428571428571429,0 5.714285714285715,-7.464228571428572 5.714285714285715,7.464228571428572 3.428571428571429,0 -7.42857142857143,-9.714285714285715 7.42857142857143,-9.714285714285715 -3.428571428571429,0 -5.714285714285715,7.464228571428572 -5.714285714285715,-7.464228571428572 -3.428571428571429,0 z" style="fill: black; stroke-width: 1px; stroke: black;"></path></g><g class="djs-visual" id="Activity_0cxf5n8" transform="translate(-105 1610)"><rect x="0" y="0" width="130" height="100" rx="10" ry="10" style="stroke: black; stroke-width: 2px; fill: white; fill-opacity: 0.95;"></rect><text lineHeight="1.2" class="djs-label" style="font-family: Arial, sans-serif; font-size: 12px; font-weight: normal; fill: black;"><tspan x="15.8115234375" y="53.599999999999994">Create transaction</tspan></text></g><g class="djs-visual" id="Gateway_09jrf43" transform="translate(-65 1775)"><polygon points="25,0 50,25 25,50 0,25" style="stroke: black; stroke-width: 2px; fill: white; fill-opacity: 0.95;"></polygon><path d="m 16,15 7.42857142857143,9.714285714285715 -7.42857142857143,9.714285714285715 3.428571428571429,0 5.714285714285715,-7.464228571428572 5.714285714285715,7.464228571428572 3.428571428571429,0 -7.42857142857143,-9.714285714285715 7.42857142857143,-9.714285714285715 -3.428571428571429,0 -5.714285714285715,7.464228571428572 -5.714285714285715,-7.464228571428572 -3.428571428571429,0 z" style="fill: black; stroke-width: 1px; stroke: black;"></path></g><g class="djs-visual" id="Activity_0kbe4ee" transform="translate(-105 1920)"><rect x="0" y="0" width="130" height="100" rx="10" ry="10" style="stroke: black; stroke-width: 2px; fill: white; fill-opacity: 0.95;"></rect><text lineHeight="1.2" class="djs-label" style="font-family: Arial, sans-serif; font-size: 12px; font-weight: normal; fill: black;"><tspan x="13.640625" y="53.599999999999994">Perform validations</tspan></text></g><g class="djs-visual" id="Gateway_0zuqilq" transform="translate(-65 2095)"><polygon points="25,0 50,25 25,50 0,25" style="stroke: black; stroke-width: 2px; fill: white; fill-opacity: 0.95;"></polygon><path d="m 16,15 7.42857142857143,9.714285714285715 -7.42857142857143,9.714285714285715 3.428571428571429,0 5.714285714285715,-7.464228571428572 5.714285714285715,7.464228571428572 3.428571428571429,0 -7.42857142857143,-9.714285714285715 7.42857142857143,-9.714285714285715 -3.428571428571429,0 -5.714285714285715,7.464228571428572 -5.714285714285715,-7.464228571428572 -3.428571428571429,0 z" style="fill: black; stroke-width: 1px; stroke: black;"></path></g><g class="djs-visual" id="Activity_0p3d7ry" transform="translate(-105 2240)"><rect x="0" y="0" width="130" height="100" rx="10" ry="10" style="stroke: black; stroke-width: 2px; fill: white; fill-opacity: 0.95;"></rect><text lineHeight="1.2" class="djs-label" style="font-family: Arial, sans-serif; font-size: 12px; font-weight: normal; fill: black;"><tspan x="9.1318359375" y="46.4">Generate accounting </tspan><tspan x="46.984375" y="60.8">entries</tspan></text></g><g class="djs-visual" id="Activity_12mo6xv" transform="translate(285 2240)"><rect x="0" y="0" width="130" height="100" rx="10" ry="10" style="stroke: black; stroke-width: 2px; fill: white; fill-opacity: 0.95;"></rect><text lineHeight="1.2" class="djs-label" style="font-family: Arial, sans-serif; font-size: 12px; font-weight: normal; fill: black;"><tspan x="12.474609375" y="46.4">Place transaction in </tspan><tspan x="31.1455078125" y="60.8">repair queue</tspan></text></g><g class="djs-visual" id="Activity_170vzxk" transform="translate(-105 2400)"><rect x="0" y="0" width="130" height="100" rx="10" ry="10" style="stroke: black; stroke-width: 2px; fill: white; fill-opacity: 0.95;"></rect><text lineHeight="1.2" class="djs-label" style="font-family: Arial, sans-serif; font-size: 12px; font-weight: normal; fill: black;"><tspan x="13.46484375" y="46.4">Generate and send </tspan><tspan x="9.80859375" y="60.8">message to Clearing</tspan></text></g><g class="djs-visual" id="Activity_0e155br" transform="translate(285 2400)"><rect x="0" y="0" width="130" height="100" rx="10" ry="10" style="stroke: black; stroke-width: 2px; fill: white; fill-opacity: 0.95;"></rect><text lineHeight="1.2" class="djs-label" style="font-family: Arial, sans-serif; font-size: 12px; font-weight: normal; fill: black;"><tspan x="20.1416015625" y="53.599999999999994">Decide on action</tspan></text></g><g class="djs-visual" id="DataObjectReference_1tlpfgx" transform="translate(82 2425)"><path d="m 0,0 28.23529411764706,0 7.058823529411765,8.196721311475411 0,40.98360655737705 -35.294117647058826,0 0,-49.18032786885246 28.23529411764706,0 0,8.196721311475411 7.058823529411765,0" style="fill: white; stroke-width: 2px; stroke: black; fill-opacity: 0.95;"></path></g><g class="djs-visual" id="DataObjectReference_1tlpfgx_label" transform="translate(52 2482)"><text lineHeight="1.2" class="djs-label" style="font-family: Arial, sans-serif; font-size: 11px; font-weight: normal; fill: black;"><tspan x="0" y="9.899999999999999">camt.050; pacs.009</tspan></text></g><g class="djs-visual" id="Event_0f9jmr0" transform="translate(-58 2592)"><circle cx="18" cy="18" r="18" style="stroke: black; stroke-width: 4px; fill: white; fill-opacity: 0.95;"></circle></g><g class="djs-visual" id="Event_0f9jmr0_label" transform="translate(-82 2637)"><text lineHeight="1.2" class="djs-label" style="font-family: Arial, sans-serif; font-size: 11px; font-weight: normal; fill: black;"><tspan x="0" y="9.899999999999999">Awaiting response </tspan><tspan x="13.0546875" y="23.099999999999998">from clearing</tspan></text></g><g class="djs-visual" id="Gateway_11s7q8l" transform="translate(325 2585)"><polygon points="25,0 50,25 25,50 0,25" style="stroke: black; stroke-width: 2px; fill: white; fill-opacity: 0.95;"></polygon><path d="m 16,15 7.42857142857143,9.714285714285715 -7.42857142857143,9.714285714285715 3.428571428571429,0 5.714285714285715,-7.464228571428572 5.714285714285715,7.464228571428572 3.428571428571429,0 -7.42857142857143,-9.714285714285715 7.42857142857143,-9.714285714285715 -3.428571428571429,0 -5.714285714285715,7.464228571428572 -5.714285714285715,-7.464228571428572 -3.428571428571429,0 z" style="fill: black; stroke-width: 1px; stroke: black;"></path></g><g class="djs-visual" id="Activity_0id24xs" transform="translate(285 2700)"><rect x="0" y="0" width="130" height="100" rx="10" ry="10" style="stroke: black; stroke-width: 2px; fill: white; fill-opacity: 0.95;"></rect><text lineHeight="1.2" class="djs-label" style="font-family: Arial, sans-serif; font-size: 12px; font-weight: normal; fill: black;"><tspan x="16.8134765625" y="53.599999999999994">Reject transaction</tspan></text></g><g class="djs-visual" id="Activity_1lkkgse" transform="translate(285 2880)"><rect x="0" y="0" width="130" height="100" rx="10" ry="10" style="stroke: black; stroke-width: 2px; fill: white; fill-opacity: 0.95;"></rect><text lineHeight="1.2" class="djs-label" style="font-family: Arial, sans-serif; font-size: 12px; font-weight: normal; fill: black;"><tspan x="8.97265625" y="53.599999999999994">Authorise transaction</tspan></text></g><g class="djs-visual" id="Activity_12gj090" transform="translate(285 3050)"><rect x="0" y="0" width="130" height="100" rx="10" ry="10" style="stroke: black; stroke-width: 2px; fill: white; fill-opacity: 0.95;"></rect><text lineHeight="1.2" class="djs-label" style="font-family: Arial, sans-serif; font-size: 12px; font-weight: normal; fill: black;"><tspan x="14.47265625" y="53.599999999999994">Update transaction</tspan></text></g><g class="djs-visual" id="Activity_1us8ddc" transform="translate(285 3220)"><rect x="0" y="0" width="130" height="100" rx="10" ry="10" style="stroke: black; stroke-width: 2px; fill: white; fill-opacity: 0.95;"></rect><text lineHeight="1.2" class="djs-label" style="font-family: Arial, sans-serif; font-size: 12px; font-weight: normal; fill: black;"><tspan x="8.6328125" y="46.4">Send payment status </tspan><tspan x="17.6455078125" y="60.8">to Payment Order</tspan></text></g><g class="djs-visual" id="Activity_0xaldvb" transform="translate(285 3400)"><rect x="0" y="0" width="130" height="100" rx="10" ry="10" style="stroke: black; stroke-width: 2px; fill: white; fill-opacity: 0.95;"></rect><text lineHeight="1.2" class="djs-label" style="font-family: Arial, sans-serif; font-size: 12px; font-weight: normal; fill: black;"><tspan x="20.6396484375" y="46.4">Update payment </tspan><tspan x="48.9921875" y="60.8">status</tspan></text></g><g class="djs-visual" id="Activity_1vu9hzx" transform="translate(645 2700)"><rect x="0" y="0" width="130" height="100" rx="10" ry="10" style="stroke: black; stroke-width: 2px; fill: white; fill-opacity: 0.95;"></rect><text lineHeight="1.2" class="djs-label" style="font-family: Arial, sans-serif; font-size: 12px; font-weight: normal; fill: black;"><tspan x="16.1455078125" y="53.599999999999994">Repair transaction</tspan></text></g><g class="djs-visual" id="Activity_1sy1xap" transform="translate(645 2880)"><rect x="0" y="0" width="130" height="100" rx="10" ry="10" style="stroke: black; stroke-width: 2px; fill: white; fill-opacity: 0.95;"></rect><text lineHeight="1.2" class="djs-label" style="font-family: Arial, sans-serif; font-size: 12px; font-weight: normal; fill: black;"><tspan x="6.4677734375" y="53.599999999999994">Authorise amendment</tspan></text></g><g class="djs-visual" id="Activity_1imurul" transform="translate(645 3050)"><rect x="0" y="0" width="130" height="100" rx="10" ry="10" style="stroke: black; stroke-width: 2px; fill: white; fill-opacity: 0.95;"></rect><text lineHeight="1.2" class="djs-label" style="font-family: Arial, sans-serif; font-size: 12px; font-weight: normal; fill: black;"><tspan x="14.47265625" y="53.599999999999994">Update transaction</tspan></text></g><g class="djs-visual" id="Event_101xjlv" transform="translate(332 3582)"><circle cx="18" cy="18" r="18" style="stroke: black; stroke-width: 4px; fill: white; fill-opacity: 0.95;"></circle></g><g class="djs-visual" id="Event_101xjlv_label" transform="translate(308 3628)"><text lineHeight="1.2" class="djs-label" style="font-family: Arial, sans-serif; font-size: 11px; font-weight: normal; fill: black;"><tspan x="0" y="9.899999999999999">Liquidity Transfer </tspan><tspan x="0.963623046875" y="23.099999999999998">Request rejected</tspan></text></g><g class="djs-visual" id="TextAnnotation_16s959j" transform="translate(60 140)"><rect x="0" y="0" width="155" height="80" rx="0" ry="0" style="stroke: none; stroke-width: 2px; fill: none;"></rect><path d="m 0, 0 m 10,0 l -10,0 l 0,80 l 10,0" style="fill: none; stroke-width: 2px; stroke: black;"></path><text lineHeight="1.2" class="djs-label" style="font-family: Arial, sans-serif; font-size: 12px; font-weight: normal; fill: black;"><tspan x="5" y="15.799999999999999">- Amount</tspan><tspan x="5" y="30.199999999999996">- Currency</tspan><tspan x="5" y="44.599999999999994">- Debit account number</tspan><tspan x="5" y="58.99999999999999">- Credit account number</tspan><tspan x="5" y="73.39999999999999">- Processing date</tspan></text></g><g class="djs-visual" id="TextAnnotation_03bvrb8" transform="translate(432 135)"><rect x="0" y="0" width="165" height="89" rx="0" ry="0" style="stroke: none; stroke-width: 2px; fill: none;"></rect><path d="m 0, 0 m 10,0 l -10,0 l 0,89 l 10,0" style="fill: none; stroke-width: 2px; stroke: black;"></path><text lineHeight="1.2" class="djs-label" style="font-family: Arial, sans-serif; font-size: 12px; font-weight: normal; fill: black;"><tspan x="5" y="15.799999999999999">- Amount</tspan><tspan x="5" y="30.199999999999996">- Currency</tspan><tspan x="5" y="44.599999999999994">- Debit account number</tspan><tspan x="5" y="58.99999999999999">- Credit account number</tspan><tspan x="5" y="73.39999999999999">- Processing date</tspan></text></g><g class="djs-visual" id="TextAnnotation_0dkma4g" transform="translate(50 310)"><rect x="0" y="0" width="140" height="70" rx="0" ry="0" style="stroke: none; stroke-width: 2px; fill: none;"></rect><path d="m 0, 0 m 10,0 l -10,0 l 0,70 l 10,0" style="fill: none; stroke-width: 2px; stroke: black;"></path><text lineHeight="1.2" class="djs-label" style="font-family: Arial, sans-serif; font-size: 12px; font-weight: normal; fill: black;"><tspan x="5" y="15.799999999999999">Authorisation levels can</tspan><tspan x="5" y="30.199999999999996">be defined e.g.</tspan><tspan x="5" y="44.599999999999994">- per company</tspan><tspan x="5" y="58.99999999999999">- based on amount</tspan></text></g><g class="djs-visual" id="TextAnnotation_1xjtdht" transform="translate(420 650)"><rect x="0" y="0" width="130" height="40" rx="0" ry="0" style="stroke: none; stroke-width: 2px; fill: none;"></rect><path d="m 0, 0 m 10,0 l -10,0 l 0,40 l 10,0" style="fill: none; stroke-width: 2px; stroke: black;"></path><text lineHeight="1.2" class="djs-label" style="font-family: Arial, sans-serif; font-size: 12px; font-weight: normal; fill: black;"><tspan x="5" y="15.799999999999999">To be warehoused </tspan><tspan x="5" y="30.199999999999996">when future dated</tspan></text></g><g class="djs-visual" id="TextAnnotation_1oifnfi" transform="translate(640 940)"><rect x="0" y="0" width="180" height="70" rx="0" ry="0" style="stroke: none; stroke-width: 2px; fill: none;"></rect><path d="m 0, 0 m 10,0 l -10,0 l 0,70 l 10,0" style="fill: none; stroke-width: 2px; stroke: black;"></path><text lineHeight="1.2" class="djs-label" style="font-family: Arial, sans-serif; font-size: 12px; font-weight: normal; fill: black;"><tspan x="5" y="15.799999999999999">Payment could be cancelled </tspan><tspan x="5" y="30.199999999999996">Otherwise, they would be </tspan><tspan x="5" y="44.599999999999994">automatically released on </tspan><tspan x="5" y="58.99999999999999">execution date</tspan></text></g><g class="djs-visual" id="TextAnnotation_11vrqvv" transform="translate(70 1560)"><rect x="0" y="0" width="100" height="40" rx="0" ry="0" style="stroke: none; stroke-width: 2px; fill: none;"></rect><path d="m 0, 0 m 10,0 l -10,0 l 0,40 l 10,0" style="fill: none; stroke-width: 2px; stroke: black;"></path><text lineHeight="1.2" class="djs-label" style="font-family: Arial, sans-serif; font-size: 12px; font-weight: normal; fill: black;"><tspan x="5" y="15.799999999999999">POR transaction</tspan><tspan x="5" y="30.199999999999996">created</tspan></text></g><g class="djs-visual" id="TextAnnotation_1besits" transform="translate(58 1920)"><rect x="0" y="0" width="160" height="60" rx="0" ry="0" style="stroke: none; stroke-width: 2px; fill: none;"></rect><path d="m 0, 0 m 10,0 l -10,0 l 0,60 l 10,0" style="fill: none; stroke-width: 2px; stroke: black;"></path><text lineHeight="1.2" class="djs-label" style="font-family: Arial, sans-serif; font-size: 12px; font-weight: normal; fill: black;"><tspan x="5" y="15.799999999999999">- Product determination</tspan><tspan x="5" y="30.199999999999996">- Debit party determination</tspan><tspan x="5" y="44.599999999999994">- Credit party determination</tspan></text></g><g class="djs-visual" id="TextAnnotation_1iq4cqk" transform="translate(55 2240)"><rect x="0" y="0" width="190" height="70" rx="0" ry="0" style="stroke: none; stroke-width: 2px; fill: none;"></rect><path d="m 0, 0 m 10,0 l -10,0 l 0,70 l 10,0" style="fill: none; stroke-width: 2px; stroke: black;"></path><text lineHeight="1.2" class="djs-label" style="font-family: Arial, sans-serif; font-size: 12px; font-weight: normal; fill: black;"><tspan x="5" y="15.799999999999999">Dr Nostro account</tspan><tspan x="5" y="30.199999999999996">Cr Nostro account</tspan><tspan x="5" y="44.599999999999994">(Nostro account of Own/</tspan><tspan x="5" y="58.99999999999999">Indirect Participant/ Other bank)</tspan></text></g><g class="djs-visual" id="TextAnnotation_0ztmyhi" transform="translate(450 3050)"><rect x="0" y="0" width="100" height="40" rx="0" ry="0" style="stroke: none; stroke-width: 2px; fill: none;"></rect><path d="m 0, 0 m 10,0 l -10,0 l 0,40 l 10,0" style="fill: none; stroke-width: 2px; stroke: black;"></path><text lineHeight="1.2" class="djs-label" style="font-family: Arial, sans-serif; font-size: 12px; font-weight: normal; fill: black;"><tspan x="5" y="15.799999999999999">Update status </tspan><tspan x="5" y="30.199999999999996">as rejected</tspan></text></g><g class="djs-visual" id="TextAnnotation_10z8w4a" transform="translate(450 3400)"><rect x="0" y="0" width="100" height="41" rx="0" ry="0" style="stroke: none; stroke-width: 2px; fill: none;"></rect><path d="m 0, 0 m 10,0 l -10,0 l 0,41 l 10,0" style="fill: none; stroke-width: 2px; stroke: black;"></path><text lineHeight="1.2" class="djs-label" style="font-family: Arial, sans-serif; font-size: 12px; font-weight: normal; fill: black;"><tspan x="5" y="15.799999999999999">Update status </tspan><tspan x="5" y="30.199999999999996">as rejected</tspan></text></g><g class="djs-visual" id="TextAnnotation_07r03a2" transform="translate(40 40)"><rect x="0" y="0" width="170" height="40" rx="0" ry="0" style="stroke: none; stroke-width: 2px; fill: none;"></rect><path d="m 0, 0 m 10,0 l -10,0 l 0,40 l 10,0" style="fill: none; stroke-width: 2px; stroke: black;"></path><text lineHeight="1.2" class="djs-label" style="font-family: Arial, sans-serif; font-size: 12px; font-weight: normal; fill: black;"><tspan x="5" y="15.799999999999999">Liquidity Transfer Request</tspan><tspan x="5" y="30.199999999999996">initiated through Order Entry</tspan></text></g><g class="djs-visual" id="TextAnnotation_0ny78kh" transform="translate(400 40)"><rect x="0" y="0" width="205" height="40" rx="0" ry="0" style="stroke: none; stroke-width: 2px; fill: none;"></rect><path d="m 0, 0 m 10,0 l -10,0 l 0,40 l 10,0" style="fill: none; stroke-width: 2px; stroke: black;"></path><text lineHeight="1.2" class="djs-label" style="font-family: Arial, sans-serif; font-size: 12px; font-weight: normal; fill: black;"><tspan x="5" y="15.799999999999999">Liquidity Transfer Request</tspan><tspan x="5" y="30.199999999999996">initiated through Payment Order</tspan></text></g><g class="djs-visual" id="Flow_1eqvvdj_label" transform="translate(339 881)"><text lineHeight="1.2" class="djs-label" style="font-family: Arial, sans-serif; font-size: 11px; font-weight: normal; fill: black;"><tspan x="0" y="9.899999999999999">No warehousing </tspan><tspan x="19.5703125" y="23.099999999999998">required</tspan></text></g><g class="djs-visual" id="Flow_0pwj2li_label" transform="translate(550 881)"><text lineHeight="1.2" class="djs-label" style="font-family: Arial, sans-serif; font-size: 11px; font-weight: normal; fill: black;"><tspan x="0" y="9.899999999999999">Warehousing </tspan><tspan x="11.5234375" y="23.099999999999998">required</tspan></text></g><g class="djs-visual" id="Flow_0b41y7h_label" transform="translate(541 1069)"><text lineHeight="1.2" class="djs-label" style="font-family: Arial, sans-serif; font-size: 11px; font-weight: normal; fill: black;"><tspan x="0" y="9.899999999999999">Warehousing items </tspan><tspan x="23.683349609375" y="23.099999999999998">managed</tspan></text></g><g class="djs-visual" id="DataOutputAssociation_08o43fm" transform="translate(0 0)"><polyline points="25,2450 82,2450 " style="fill: none; stroke: black; stroke-width: 2px; stroke-dasharray: 0.5, 5; stroke-linecap: round; stroke-linejoin: round; marker-end: url(&quot;#association-end-white-black-ai17nokvne911e6h4fxokk1qh&quot;);"></polyline></g><g class="djs-visual" id="Flow_0kegjf2_label" transform="translate(-27 2156)"><text lineHeight="1.2" class="djs-label" style="font-family: Arial, sans-serif; font-size: 11px; font-weight: normal; fill: black;"><tspan x="0" y="9.899999999999999">Transaction correct</tspan></text></g><g class="djs-visual" id="Flow_0kqyeln_label" transform="translate(362 2156)"><text lineHeight="1.2" class="djs-label" style="font-family: Arial, sans-serif; font-size: 11px; font-weight: normal; fill: black;"><tspan x="0" y="9.899999999999999">Transaction </tspan><tspan x="6.4697265625" y="23.099999999999998">incorrect</tspan></text></g><g class="djs-visual" id="Flow_1rs67it_label" transform="translate(361 2640)"><text lineHeight="1.2" class="djs-label" style="font-family: Arial, sans-serif; font-size: 11px; font-weight: normal; fill: black;"><tspan x="0" y="9.899999999999999">Payment to be </tspan><tspan x="15.8984375" y="23.099999999999998">rejected</tspan></text></g><g class="djs-visual" id="Flow_1tiq003_label" transform="translate(725 2637)"><text lineHeight="1.2" class="djs-label" style="font-family: Arial, sans-serif; font-size: 11px; font-weight: normal; fill: black;"><tspan x="0" y="9.899999999999999">Payment to be </tspan><tspan x="15.2890625" y="23.099999999999998">repaired</tspan></text></g><g class="djs-visual" id="Association_0g3jr5n" transform="translate(0 0)"><polyline points="25,178 60,160 " style="fill: none; stroke: black; stroke-width: 2px; stroke-dasharray: 0.5, 5; stroke-linecap: round; stroke-linejoin: round;"></polyline></g><g class="djs-visual" id="Association_0dmi7ux" transform="translate(0 0)"><polyline points="395,173 432,152 " style="fill: none; stroke: black; stroke-width: 2px; stroke-dasharray: 0.5, 5; stroke-linecap: round; stroke-linejoin: round;"></polyline></g><g class="djs-visual" id="Association_0r6ja6t" transform="translate(0 0)"><polyline points="25,344 50,331 " style="fill: none; stroke: black; stroke-width: 2px; stroke-dasharray: 0.5, 5; stroke-linecap: round; stroke-linejoin: round;"></polyline></g><g class="djs-visual" id="Association_0h9p5w2" transform="translate(0 0)"><polyline points="395,673 420,658 " style="fill: none; stroke: black; stroke-width: 2px; stroke-dasharray: 0.5, 5; stroke-linecap: round; stroke-linejoin: round;"></polyline></g><g class="djs-visual" id="Association_0pgidxu" transform="translate(0 0)"><polyline points="605,967 640,949 " style="fill: none; stroke: black; stroke-width: 2px; stroke-dasharray: 0.5, 5; stroke-linecap: round; stroke-linejoin: round;"></polyline></g><g class="djs-visual" id="Association_03az66a" transform="translate(0 0)"><polyline points="22,1613 70,1577 " style="fill: none; stroke: black; stroke-width: 2px; stroke-dasharray: 0.5, 5; stroke-linecap: round; stroke-linejoin: round;"></polyline></g><g class="djs-visual" id="Association_1wv2qyv" transform="translate(0 0)"><polyline points="25,1938 58,1922 " style="fill: none; stroke: black; stroke-width: 2px; stroke-dasharray: 0.5, 5; stroke-linecap: round; stroke-linejoin: round;"></polyline></g><g class="djs-visual" id="Association_0guxcfl" transform="translate(0 0)"><polyline points="25,2256 55,2240 " style="fill: none; stroke: black; stroke-width: 2px; stroke-dasharray: 0.5, 5; stroke-linecap: round; stroke-linejoin: round;"></polyline></g><g class="djs-visual" id="Association_0v6046w" transform="translate(0 0)"><polyline points="415,3067 451,3050 " style="fill: none; stroke: black; stroke-width: 2px; stroke-dasharray: 0.5, 5; stroke-linecap: round; stroke-linejoin: round;"></polyline></g><g class="djs-visual" id="Association_1i9a02u" transform="translate(0 0)"><polyline points="415,3419 450,3401 " style="fill: none; stroke: black; stroke-width: 2px; stroke-dasharray: 0.5, 5; stroke-linecap: round; stroke-linejoin: round;"></polyline></g><g class="djs-visual" id="Association_11krfft" transform="translate(0 0)"><polyline points="-23,94 40,72 " style="fill: none; stroke: black; stroke-width: 2px; stroke-dasharray: 0.5, 5; stroke-linecap: round; stroke-linejoin: round;"></polyline></g><g class="djs-visual" id="Association_147pi7q" transform="translate(0 0)"><polyline points="347,94 400,74 " style="fill: none; stroke: black; stroke-width: 2px; stroke-dasharray: 0.5, 5; stroke-linecap: round; stroke-linejoin: round;"></polyline></g></g><g><rect class="viewport" x="-4369.818681318681" y="26.945054945054945" width="9532.967032967033" height="3626.3736263736264"></rect></g></svg>