<svg width="100%" height="100%" viewBox="-50, -129, 1835, 2380"><g><g class="djs-visual" id="Flow_01df88v" transform="translate(0 0)"><path d="m  1020,1100L1020,1670 L255,1670 " style="fill: none; stroke-width: 2px; stroke: black; stroke-linejoin: round; marker-end: url(&quot;#sequenceflow-end-white-black-5r14dyh522esr2dbf2eukdy8i&quot;);"></path></g><g class="djs-visual" id="Flow_04uqvn7" transform="translate(0 0)"><path d="m  255,890L1020,890 L1020,1000 " style="fill: none; stroke-width: 2px; stroke: black; stroke-linejoin: round; marker-end: url(&quot;#sequenceflow-end-white-black-5r14dyh522esr2dbf2eukdy8i&quot;);"></path></g><g class="djs-visual" id="Flow_05cw5nr" transform="translate(0 0)"><path d="m  230,2060L230,2122 " style="fill: none; stroke-width: 2px; stroke: black; stroke-linejoin: round; marker-end: url(&quot;#sequenceflow-end-white-black-5r14dyh522esr2dbf2eukdy8i&quot;);"></path></g><g class="djs-visual" id="Flow_0ytb3n8" transform="translate(0 0)"><path d="m  230,1860L230,1960 " style="fill: none; stroke-width: 2px; stroke: black; stroke-linejoin: round; marker-end: url(&quot;#sequenceflow-end-white-black-5r14dyh522esr2dbf2eukdy8i&quot;);"></path></g><g class="djs-visual" id="Flow_1hv53jm" transform="translate(0 0)"><path d="m  230,1695L230,1760 " style="fill: none; stroke-width: 2px; stroke: black; stroke-linejoin: round; marker-end: url(&quot;#sequenceflow-end-white-black-5r14dyh522esr2dbf2eukdy8i&quot;);"></path></g><g class="djs-visual" id="Flow_0a1wwxl" transform="translate(0 0)"><path d="m  570,1240L570,1540 L255,1540 " style="fill: none; stroke-width: 2px; stroke: black; stroke-linejoin: round; marker-end: url(&quot;#sequenceflow-end-white-black-5r14dyh522esr2dbf2eukdy8i&quot;);"></path></g><g class="djs-visual" id="Flow_1eppah7" transform="translate(0 0)"><path d="m  255,1030L570,1030 L570,1140 " style="fill: none; stroke-width: 2px; stroke: black; stroke-linejoin: round; marker-end: url(&quot;#sequenceflow-end-white-black-5r14dyh522esr2dbf2eukdy8i&quot;);"></path></g><g class="djs-visual" id="Flow_1ka58eg" transform="translate(0 0)"><path d="m  230,1565L230,1645 " style="fill: none; stroke-width: 2px; stroke: black; stroke-linejoin: round; marker-end: url(&quot;#sequenceflow-end-white-black-5r14dyh522esr2dbf2eukdy8i&quot;);"></path></g><g class="djs-visual" id="Flow_1fykc6c" transform="translate(0 0)"><path d="m  230,1430L230,1515 " style="fill: none; stroke-width: 2px; stroke: black; stroke-linejoin: round; marker-end: url(&quot;#sequenceflow-end-white-black-5r14dyh522esr2dbf2eukdy8i&quot;);"></path></g><g class="djs-visual" id="Flow_0070o5y" transform="translate(0 0)"><path d="m  230,1240L230,1330 " style="fill: none; stroke-width: 2px; stroke: black; stroke-linejoin: round; marker-end: url(&quot;#sequenceflow-end-white-black-5r14dyh522esr2dbf2eukdy8i&quot;);"></path></g><g class="djs-visual" id="Flow_12hihca" transform="translate(0 0)"><path d="m  230,1055L230,1140 " style="fill: none; stroke-width: 2px; stroke: black; stroke-linejoin: round; marker-end: url(&quot;#sequenceflow-end-white-black-5r14dyh522esr2dbf2eukdy8i&quot;);"></path></g><g class="djs-visual" id="Flow_0cagnu8" transform="translate(0 0)"><path d="m  230,915L230,1005 " style="fill: none; stroke-width: 2px; stroke: black; stroke-linejoin: round; marker-end: url(&quot;#sequenceflow-end-white-black-5r14dyh522esr2dbf2eukdy8i&quot;);"></path></g><g class="djs-visual" id="Flow_055xbrf" transform="translate(0 0)"><path d="m  230,780L230,865 " style="fill: none; stroke-width: 2px; stroke: black; stroke-linejoin: round; marker-end: url(&quot;#sequenceflow-end-white-black-5r14dyh522esr2dbf2eukdy8i&quot;);"></path></g><g class="djs-visual" id="Flow_1j5uhy6" transform="translate(0 0)"><path d="m  230,610L230,680 " style="fill: none; stroke-width: 2px; stroke: black; stroke-linejoin: round; marker-end: url(&quot;#sequenceflow-end-white-black-5r14dyh522esr2dbf2eukdy8i&quot;);"></path></g><g class="djs-visual" id="Flow_00zeazp" transform="translate(0 0)"><path d="m  230,370L230,510 " style="fill: none; stroke-width: 2px; stroke: black; stroke-linejoin: round; marker-end: url(&quot;#sequenceflow-end-white-black-5r14dyh522esr2dbf2eukdy8i&quot;);"></path></g><g class="djs-visual" id="Flow_0vfblrl" transform="translate(0 0)"><path d="m  230,180L230,270 " style="fill: none; stroke-width: 2px; stroke: black; stroke-linejoin: round; marker-end: url(&quot;#sequenceflow-end-white-black-5r14dyh522esr2dbf2eukdy8i&quot;);"></path></g><g class="djs-visual" id="Flow_04lc4yv" transform="translate(0 0)"><path d="m  230,-2L230,80 " style="fill: none; stroke-width: 2px; stroke: black; stroke-linejoin: round; marker-end: url(&quot;#sequenceflow-end-white-black-5r14dyh522esr2dbf2eukdy8i&quot;);"></path></g><g class="djs-visual" id="StartEvent_1bm324f" transform="translate(212 -38)"><circle cx="18" cy="18" r="18" style="stroke: black; stroke-width: 2px; fill: white; fill-opacity: 0.95;"></circle></g><g class="djs-visual" id="StartEvent_1bm324f_label" transform="translate(188 -73)"><text lineHeight="1.2" class="djs-label" style="font-family: Arial, sans-serif; font-size: 11px; font-weight: normal; fill: black;"><tspan x="0" y="9.899999999999999">DCI/ TCI request </tspan><tspan x="20.84423828125" y="23.099999999999998">received</tspan></text></g><g class="djs-visual" id="Activity_13u391s" transform="translate(165 80)"><rect x="0" y="0" width="130" height="100" rx="10" ry="10" style="stroke: black; stroke-width: 2px; fill: white; fill-opacity: 0.95;"></rect><text lineHeight="1.2" class="djs-label" style="font-family: Arial, sans-serif; font-size: 12px; font-weight: normal; fill: black;"><tspan x="12.47265625" y="46.4">Receive request for </tspan><tspan x="41.7734375" y="60.8">DCI/ TCI</tspan></text></g><g class="djs-visual" id="DataObjectReference_1bx8lfy" transform="translate(72 105)"><path d="m 0,0 28.23529411764706,0 7.058823529411765,8.196721311475411 0,40.98360655737705 -35.294117647058826,0 0,-49.18032786885246 28.23529411764706,0 0,8.196721311475411 7.058823529411765,0" style="fill: white; stroke-width: 2px; stroke: black; fill-opacity: 0.95;"></path></g><g class="djs-visual" id="DataObjectReference_1bx8lfy_label" transform="translate(45 164)"><text lineHeight="1.2" class="djs-label" style="font-family: Arial, sans-serif; font-size: 11px; font-weight: normal; fill: black;"><tspan x="0" y="9.899999999999999">DCI / TCI Request</tspan></text></g><g class="djs-visual" id="Activity_1ahztu5" transform="translate(165 270)"><rect x="0" y="0" width="130" height="100" rx="10" ry="10" style="stroke: black; stroke-width: 2px; fill: white; fill-opacity: 0.95;"></rect><text lineHeight="1.2" class="djs-label" style="font-family: Arial, sans-serif; font-size: 12px; font-weight: normal; fill: black;"><tspan x="5.2998046875" y="53.599999999999994">Authenticate customer</tspan></text></g><g class="djs-visual" id="Activity_0rni3o5" transform="translate(165 510)"><rect x="0" y="0" width="130" height="100" rx="10" ry="10" style="stroke: black; stroke-width: 2px; fill: white; fill-opacity: 0.95;"></rect><text lineHeight="1.2" class="djs-label" style="font-family: Arial, sans-serif; font-size: 12px; font-weight: normal; fill: black;"><tspan x="5.5859375" y="53.599999999999994">Capture DCI/ TCI deal</tspan></text></g><g class="djs-visual" id="Activity_1hs6bb1" transform="translate(165 680)"><rect x="0" y="0" width="130" height="100" rx="10" ry="10" style="stroke: black; stroke-width: 2px; fill: white; fill-opacity: 0.95;"></rect><text lineHeight="1.2" class="djs-label" style="font-family: Arial, sans-serif; font-size: 12px; font-weight: normal; fill: black;"><tspan x="15.2578125" y="46.4">Authorise DCI/ TCI </tspan><tspan x="53.4892578125" y="60.8">deal</tspan></text></g><g class="djs-visual" id="Gateway_1u5lm9y" transform="translate(205 865)"><polygon points="25,0 50,25 25,50 0,25" style="stroke: black; stroke-width: 2px; fill: white; fill-opacity: 0.95;"></polygon><path d="m 16,15 7.42857142857143,9.714285714285715 -7.42857142857143,9.714285714285715 3.428571428571429,0 5.714285714285715,-7.464228571428572 5.714285714285715,7.464228571428572 3.428571428571429,0 -7.42857142857143,-9.714285714285715 7.42857142857143,-9.714285714285715 -3.428571428571429,0 -5.714285714285715,7.464228571428572 -5.714285714285715,-7.464228571428572 -3.428571428571429,0 z" style="fill: black; stroke-width: 1px; stroke: black;"></path></g><g class="djs-visual" id="Gateway_0a6jhdt" transform="translate(205 1005)"><polygon points="25,0 50,25 25,50 0,25" style="stroke: black; stroke-width: 2px; fill: white; fill-opacity: 0.95;"></polygon><path d="m 23,10 0,12.5 -12.5,0 0,5 12.5,0 0,12.5 5,0 0,-12.5 12.5,0 0,-5 -12.5,0 0,-12.5 -5,0 z" style="fill: black; stroke-width: 1px; stroke: black;"></path></g><g class="djs-visual" id="Activity_150nne9" transform="translate(165 1140)"><rect x="0" y="0" width="130" height="100" rx="10" ry="10" style="stroke: black; stroke-width: 2px; fill: white; fill-opacity: 0.95;"></rect><text lineHeight="1.2" class="djs-label" style="font-family: Arial, sans-serif; font-size: 12px; font-weight: normal; fill: black;"><tspan x="13.98046875" y="53.599999999999994">Create MM deposit</tspan></text></g><g class="djs-visual" id="Activity_0qb4sxf" transform="translate(165 1330)"><rect x="0" y="0" width="130" height="100" rx="10" ry="10" style="stroke: black; stroke-width: 2px; fill: white; fill-opacity: 0.95;"></rect><text lineHeight="1.2" class="djs-label" style="font-family: Arial, sans-serif; font-size: 12px; font-weight: normal; fill: black;"><tspan x="9.1318359375" y="46.4">Generate accounting </tspan><tspan x="46.984375" y="60.8">entries</tspan></text></g><g class="djs-visual" id="Gateway_1gnebdr" transform="translate(205 1515)"><polygon points="25,0 50,25 25,50 0,25" style="stroke: black; stroke-width: 2px; fill: white; fill-opacity: 0.95;"></polygon><path d="m 23,10 0,12.5 -12.5,0 0,5 12.5,0 0,12.5 5,0 0,-12.5 12.5,0 0,-5 -12.5,0 0,-12.5 -5,0 z" style="fill: black; stroke-width: 1px; stroke: black;"></path></g><g class="djs-visual" id="Gateway_066d0qk" transform="translate(205 1645)"><polygon points="25,0 50,25 25,50 0,25" style="stroke: black; stroke-width: 2px; fill: white; fill-opacity: 0.95;"></polygon><path d="m 16,15 7.42857142857143,9.714285714285715 -7.42857142857143,9.714285714285715 3.428571428571429,0 5.714285714285715,-7.464228571428572 5.714285714285715,7.464228571428572 3.428571428571429,0 -7.42857142857143,-9.714285714285715 7.42857142857143,-9.714285714285715 -3.428571428571429,0 -5.714285714285715,7.464228571428572 -5.714285714285715,-7.464228571428572 -3.428571428571429,0 z" style="fill: black; stroke-width: 1px; stroke: black;"></path></g><g class="djs-visual" id="Activity_018y5jv" transform="translate(505 1140)"><rect x="0" y="0" width="130" height="100" rx="10" ry="10" style="stroke: black; stroke-width: 2px; fill: white; fill-opacity: 0.95;"></rect><text lineHeight="1.2" class="djs-label" style="font-family: Arial, sans-serif; font-size: 12px; font-weight: normal; fill: black;"><tspan x="21.4833984375" y="53.599999999999994">Create DX trade</tspan></text></g><g class="djs-visual" id="Activity_1q6sjx3" transform="translate(165 1760)"><rect x="0" y="0" width="130" height="100" rx="10" ry="10" style="stroke: black; stroke-width: 2px; fill: white; fill-opacity: 0.95;"></rect><text lineHeight="1.2" class="djs-label" style="font-family: Arial, sans-serif; font-size: 12px; font-weight: normal; fill: black;"><tspan x="11.8076171875" y="46.4">Generate Customer </tspan><tspan x="47.4931640625" y="60.8">advice</tspan></text></g><g class="djs-visual" id="Activity_1rl8rlc" transform="translate(165 1960)"><rect x="0" y="0" width="130" height="100" rx="10" ry="10" style="stroke: black; stroke-width: 2px; fill: white; fill-opacity: 0.95;"></rect><text lineHeight="1.2" class="djs-label" style="font-family: Arial, sans-serif; font-size: 12px; font-weight: normal; fill: black;"><tspan x="5.640625" y="53.599999999999994">Generate e-mail alerts</tspan></text></g><g class="djs-visual" id="Event_1mb3n0n" transform="translate(212 2122)"><circle cx="18" cy="18" r="18" style="stroke: black; stroke-width: 4px; fill: white; fill-opacity: 0.95;"></circle></g><g class="djs-visual" id="Event_1mb3n0n_label" transform="translate(187 2168)"><text lineHeight="1.2" class="djs-label" style="font-family: Arial, sans-serif; font-size: 11px; font-weight: normal; fill: black;"><tspan x="0" y="9.899999999999999">DCI/ TCI Initiation </tspan><tspan x="17.921875" y="23.099999999999998">completed</tspan></text></g><g class="djs-visual" id="DataObjectReference_1s2wjai" transform="translate(362 1785)"><path d="m 0,0 28.23529411764706,0 7.058823529411765,8.196721311475411 0,40.98360655737705 -35.294117647058826,0 0,-49.18032786885246 28.23529411764706,0 0,8.196721311475411 7.058823529411765,0" style="fill: white; stroke-width: 2px; stroke: black; fill-opacity: 0.95;"></path></g><g class="djs-visual" id="DataObjectReference_1s2wjai_label" transform="translate(364 1844)"><text lineHeight="1.2" class="djs-label" style="font-family: Arial, sans-serif; font-size: 11px; font-weight: normal; fill: black;"><tspan x="0" y="9.899999999999999">Advice</tspan></text></g><g class="djs-visual" id="DataObjectReference_15ryn5v" transform="translate(362 1985)"><path d="m 0,0 28.23529411764706,0 7.058823529411765,8.196721311475411 0,40.98360655737705 -35.294117647058826,0 0,-49.18032786885246 28.23529411764706,0 0,8.196721311475411 7.058823529411765,0" style="fill: white; stroke-width: 2px; stroke: black; fill-opacity: 0.95;"></path></g><g class="djs-visual" id="DataObjectReference_15ryn5v_label" transform="translate(349 2043)"><text lineHeight="1.2" class="djs-label" style="font-family: Arial, sans-serif; font-size: 11px; font-weight: normal; fill: black;"><tspan x="0" y="9.899999999999999">E-mail alerts</tspan></text></g><g class="djs-visual" id="Activity_0j8kq9u" transform="translate(955 1000)"><rect x="0" y="0" width="130" height="100" rx="10" ry="10" style="stroke: black; stroke-width: 2px; fill: white; fill-opacity: 0.95;"></rect><text lineHeight="1.2" class="djs-label" style="font-family: Arial, sans-serif; font-size: 12px; font-weight: normal; fill: black;"><tspan x="9.1318359375" y="46.4">Generate accounting </tspan><tspan x="46.984375" y="60.8">entries</tspan></text></g><g class="djs-visual" id="TextAnnotation_1csdcgo" transform="translate(362 390)"><rect x="0" y="0" width="153" height="170" rx="0" ry="0" style="stroke: none; stroke-width: 2px; fill: none;"></rect><path d="m 0, 0 m 10,0 l -10,0 l 0,170 l 10,0" style="fill: none; stroke-width: 2px; stroke: black;"></path><text lineHeight="1.2" class="djs-label" style="font-family: Arial, sans-serif; font-size: 12px; font-weight: normal; fill: black;"><tspan x="5" y="15.799999999999999">- Customer ID&nbsp; &nbsp; &nbsp; &nbsp; &nbsp; &nbsp; &nbsp; &nbsp; &nbsp; &nbsp;</tspan><tspan x="5" y="30.199999999999996">- Portfolio&nbsp; &nbsp; &nbsp; &nbsp; &nbsp; &nbsp; &nbsp; &nbsp; &nbsp; &nbsp; &nbsp;</tspan><tspan x="5" y="44.599999999999994">- Trade Date&nbsp; &nbsp; &nbsp; &nbsp; &nbsp; &nbsp; &nbsp; &nbsp; &nbsp; &nbsp; </tspan><tspan x="5" y="58.99999999999999">- Value Date&nbsp; &nbsp; &nbsp; &nbsp; &nbsp; &nbsp; &nbsp; &nbsp; &nbsp; &nbsp;</tspan><tspan x="5" y="73.39999999999999">- Counterparty&nbsp; &nbsp; &nbsp; &nbsp; &nbsp; &nbsp; &nbsp; &nbsp; &nbsp;</tspan><tspan x="5" y="87.79999999999998">- Trade Currency&nbsp; &nbsp; &nbsp; &nbsp; &nbsp; &nbsp; &nbsp; </tspan><tspan x="5" y="102.19999999999999">- Alternate Ccy 1&nbsp; &nbsp; &nbsp; &nbsp; &nbsp; &nbsp; &nbsp;</tspan><tspan x="5" y="116.6">- Alternate Ccy 2 (For TCI)</tspan><tspan x="5" y="131">- Strike Price&nbsp; &nbsp; &nbsp; &nbsp; &nbsp; &nbsp; &nbsp; &nbsp; </tspan><tspan x="5" y="145.4">- DX Contract Code&nbsp; &nbsp; &nbsp; &nbsp; &nbsp; </tspan><tspan x="5" y="159.8">- Account Details etc.</tspan></text></g><g class="djs-visual" id="TextAnnotation_05j4vce" transform="translate(690 1070)"><rect x="0" y="0" width="160" height="70" rx="0" ry="0" style="stroke: none; stroke-width: 2px; fill: none;"></rect><path d="m 0, 0 m 10,0 l -10,0 l 0,70 l 10,0" style="fill: none; stroke-width: 2px; stroke: black;"></path><text lineHeight="1.2" class="djs-label" style="font-family: Arial, sans-serif; font-size: 12px; font-weight: normal; fill: black;"><tspan x="5" y="15.799999999999999">A zero premium DX trade is </tspan><tspan x="5" y="30.199999999999996">created. No accounting </tspan><tspan x="5" y="44.599999999999994">entries/ advice is generated</tspan><tspan x="5" y="58.99999999999999">for DX trade leg</tspan></text></g><g class="djs-visual" id="TextAnnotation_1gffq5r" transform="translate(362 1890)"><rect x="0" y="0" width="188" height="40" rx="0" ry="0" style="stroke: none; stroke-width: 2px; fill: none;"></rect><path d="m 0, 0 m 10,0 l -10,0 l 0,40 l 10,0" style="fill: none; stroke-width: 2px; stroke: black;"></path><text lineHeight="1.2" class="djs-label" style="font-family: Arial, sans-serif; font-size: 12px; font-weight: normal; fill: black;"><tspan x="5" y="15.799999999999999">Alerts will be sent to customer (if</tspan><tspan x="5" y="30.199999999999996">subscribed via alerts)</tspan></text></g><g class="djs-visual" id="TextAnnotation_1uigkvg" transform="translate(1130 950)"><rect x="0" y="0" width="100" height="40" rx="0" ry="0" style="stroke: none; stroke-width: 2px; fill: none;"></rect><path d="m 0, 0 m 10,0 l -10,0 l 0,40 l 10,0" style="fill: none; stroke-width: 2px; stroke: black;"></path><text lineHeight="1.2" class="djs-label" style="font-family: Arial, sans-serif; font-size: 12px; font-weight: normal; fill: black;"><tspan x="5" y="15.799999999999999">Notional Entries </tspan><tspan x="5" y="30.199999999999996">are not raised</tspan></text></g><g class="djs-visual" id="DataInputAssociation_05wy8nc" transform="translate(0 0)"><polyline points="108,130 165,130 " style="fill: none; stroke: black; stroke-width: 2px; stroke-dasharray: 0.5, 5; stroke-linecap: round; stroke-linejoin: round; marker-end: url(&quot;#association-end-white-black-5r14dyh522esr2dbf2eukdy8i&quot;);"></polyline></g><g class="djs-visual" id="Flow_0cagnu8_label" transform="translate(226 926)"><text lineHeight="1.2" class="djs-label" style="font-family: Arial, sans-serif; font-size: 11px; font-weight: normal; fill: black;"><tspan x="0" y="9.899999999999999">Dealer Book Model</tspan></text></g><g class="djs-visual" id="Flow_1fykc6c_label" transform="translate(222 1466)"><text lineHeight="1.2" class="djs-label" style="font-family: Arial, sans-serif; font-size: 11px; font-weight: normal; fill: black;"><tspan x="0" y="9.899999999999999">MM deposit created</tspan></text></g><g class="djs-visual" id="Flow_0a1wwxl_label" transform="translate(582 1469)"><text lineHeight="1.2" class="djs-label" style="font-family: Arial, sans-serif; font-size: 11px; font-weight: normal; fill: black;"><tspan x="0" y="9.899999999999999">DX option created</tspan></text></g><g class="djs-visual" id="DataOutputAssociation_00svipt" transform="translate(0 0)"><polyline points="295,1810 362,1810 " style="fill: none; stroke: black; stroke-width: 2px; stroke-dasharray: 0.5, 5; stroke-linecap: round; stroke-linejoin: round; marker-end: url(&quot;#association-end-white-black-5r14dyh522esr2dbf2eukdy8i&quot;);"></polyline></g><g class="djs-visual" id="DataOutputAssociation_060uc9e" transform="translate(0 0)"><polyline points="295,2010 362,2010 " style="fill: none; stroke: black; stroke-width: 2px; stroke-dasharray: 0.5, 5; stroke-linecap: round; stroke-linejoin: round; marker-end: url(&quot;#association-end-white-black-5r14dyh522esr2dbf2eukdy8i&quot;);"></polyline></g><g class="djs-visual" id="Flow_04uqvn7_label" transform="translate(1031 931)"><text lineHeight="1.2" class="djs-label" style="font-family: Arial, sans-serif; font-size: 11px; font-weight: normal; fill: black;"><tspan x="0" y="9.899999999999999">Transaction Model</tspan></text></g><g class="djs-visual" id="Association_02sauci" transform="translate(0 0)"><polyline points="294,515 362,465 " style="fill: none; stroke: black; stroke-width: 2px; stroke-dasharray: 0.5, 5; stroke-linecap: round; stroke-linejoin: round;"></polyline></g><g class="djs-visual" id="Association_0os8l0a" transform="translate(0 0)"><polyline points="633,1145 690,1105 " style="fill: none; stroke: black; stroke-width: 2px; stroke-dasharray: 0.5, 5; stroke-linecap: round; stroke-linejoin: round;"></polyline></g><g class="djs-visual" id="Association_06ztpfr" transform="translate(0 0)"><polyline points="292,1963 362,1909 " style="fill: none; stroke: black; stroke-width: 2px; stroke-dasharray: 0.5, 5; stroke-linecap: round; stroke-linejoin: round;"></polyline></g><g class="djs-visual" id="Association_18rkkph" transform="translate(0 0)"><polyline points="1083,1004 1130,970 " style="fill: none; stroke: black; stroke-width: 2px; stroke-dasharray: 0.5, 5; stroke-linecap: round; stroke-linejoin: round;"></polyline></g></g><g><rect class="viewport" x="-2363.1868512110727" y="-79.1280276816609" width="6003.460207612457" height="2283.7370242214533"></rect></g></svg>