<svg width="100%" height="100%" viewBox="-50, -16, 1835, 2140"><g><g class="djs-visual" id="Flow_0t0r8ip" transform="translate(0 0)"><path d="m  800,900L800,1880 L135,1880 " style="fill: none; stroke-width: 2px; stroke: black; stroke-linejoin: round; marker-end: url(&quot;#sequenceflow-end-white-black-ertfjcyoojhczmdy02sgmj2qb&quot;);"></path></g><g class="djs-visual" id="Flow_08nv4bg" transform="translate(0 0)"><path d="m  135,720L800,720 L800,800 " style="fill: none; stroke-width: 2px; stroke: black; stroke-linejoin: round; marker-end: url(&quot;#sequenceflow-end-white-black-ertfjcyoojhczmdy02sgmj2qb&quot;);"></path></g><g class="djs-visual" id="Flow_1ssyhef" transform="translate(0 0)"><path d="m  110,985L110,1775 " style="fill: none; stroke-width: 2px; stroke: black; stroke-linejoin: round; marker-end: url(&quot;#sequenceflow-end-white-black-ertfjcyoojhczmdy02sgmj2qb&quot;);"></path></g><g class="djs-visual" id="Flow_0yqaast" transform="translate(0 0)"><path d="m  410,1520L410,1600 " style="fill: none; stroke-width: 2px; stroke: black; stroke-linejoin: round; marker-end: url(&quot;#sequenceflow-end-white-black-ertfjcyoojhczmdy02sgmj2qb&quot;);"></path></g><g class="djs-visual" id="Flow_1ptk4z7" transform="translate(0 0)"><path d="m  410,1340L410,1420 " style="fill: none; stroke-width: 2px; stroke: black; stroke-linejoin: round; marker-end: url(&quot;#sequenceflow-end-white-black-ertfjcyoojhczmdy02sgmj2qb&quot;);"></path></g><g class="djs-visual" id="Flow_10mpjzv" transform="translate(0 0)"><path d="m  410,1180L410,1240 " style="fill: none; stroke-width: 2px; stroke: black; stroke-linejoin: round; marker-end: url(&quot;#sequenceflow-end-white-black-ertfjcyoojhczmdy02sgmj2qb&quot;);"></path></g><g class="djs-visual" id="Flow_1vuf8jg" transform="translate(0 0)"><path d="m  410,1700L410,1800 L135,1800 " style="fill: none; stroke-width: 2px; stroke: black; stroke-linejoin: round; marker-end: url(&quot;#sequenceflow-end-white-black-ertfjcyoojhczmdy02sgmj2qb&quot;);"></path></g><g class="djs-visual" id="Flow_0dpz6cq" transform="translate(0 0)"><path d="m  135,960L410,960 L410,1080 " style="fill: none; stroke-width: 2px; stroke: black; stroke-linejoin: round; marker-end: url(&quot;#sequenceflow-end-white-black-ertfjcyoojhczmdy02sgmj2qb&quot;);"></path></g><g class="djs-visual" id="Flow_1wyv3ry" transform="translate(0 0)"><path d="m  110,745L110,800 " style="fill: none; stroke-width: 2px; stroke: black; stroke-linejoin: round; marker-end: url(&quot;#sequenceflow-end-white-black-ertfjcyoojhczmdy02sgmj2qb&quot;);"></path></g><g class="djs-visual" id="Flow_0q9vzax" transform="translate(0 0)"><path d="m  110,470L110,540 " style="fill: none; stroke-width: 2px; stroke: black; stroke-linejoin: round; marker-end: url(&quot;#sequenceflow-end-white-black-ertfjcyoojhczmdy02sgmj2qb&quot;);"></path></g><g class="djs-visual" id="Flow_0e4udm4" transform="translate(0 0)"><path d="m  110,640L110,695 " style="fill: none; stroke-width: 2px; stroke: black; stroke-linejoin: round; marker-end: url(&quot;#sequenceflow-end-white-black-ertfjcyoojhczmdy02sgmj2qb&quot;);"></path></g><g class="djs-visual" id="Flow_10lq4sb" transform="translate(0 0)"><path d="m  110,300L110,370 " style="fill: none; stroke-width: 2px; stroke: black; stroke-linejoin: round; marker-end: url(&quot;#sequenceflow-end-white-black-ertfjcyoojhczmdy02sgmj2qb&quot;);"></path></g><g class="djs-visual" id="Flow_1ff42x3" transform="translate(0 0)"><path d="m  110,1905L110,1972 " style="fill: none; stroke-width: 2px; stroke: black; stroke-linejoin: round; marker-end: url(&quot;#sequenceflow-end-white-black-ertfjcyoojhczmdy02sgmj2qb&quot;);"></path></g><g class="djs-visual" id="Flow_1hk08j8" transform="translate(0 0)"><path d="m  110,1825L110,1855 " style="fill: none; stroke-width: 2px; stroke: black; stroke-linejoin: round; marker-end: url(&quot;#sequenceflow-end-white-black-ertfjcyoojhczmdy02sgmj2qb&quot;);"></path></g><g class="djs-visual" id="Flow_1ldhank" transform="translate(0 0)"><path d="m  110,900L110,935 " style="fill: none; stroke-width: 2px; stroke: black; stroke-linejoin: round; marker-end: url(&quot;#sequenceflow-end-white-black-ertfjcyoojhczmdy02sgmj2qb&quot;);"></path></g><g class="djs-visual" id="Flow_0nhjkkj" transform="translate(0 0)"><path d="m  110,138L110,200 " style="fill: none; stroke-width: 2px; stroke: black; stroke-linejoin: round; marker-end: url(&quot;#sequenceflow-end-white-black-ertfjcyoojhczmdy02sgmj2qb&quot;);"></path></g><g class="djs-visual" id="Event_1qxt5g2" transform="translate(92 102)"><circle cx="18" cy="18" r="18" style="stroke: black; stroke-width: 2px; fill: white; fill-opacity: 0.95;"></circle></g><g class="djs-visual" id="Event_1qxt5g2_label" transform="translate(62 40)"><text lineHeight="1.2" class="djs-label" style="font-family: Arial, sans-serif; font-size: 11px; font-weight: normal; fill: black;"><tspan x="0" y="9.899999999999999">Sanction Screening </tspan><tspan x="9.375" y="23.099999999999998">to be performed</tspan></text></g><g class="djs-visual" id="Activity_1ygngre" transform="translate(45 200)"><rect x="0" y="0" width="130" height="100" rx="10" ry="10" style="stroke: black; stroke-width: 2px; fill: white; fill-opacity: 0.95;"></rect><text lineHeight="1.2" class="djs-label" style="font-family: Arial, sans-serif; font-size: 12px; font-weight: normal; fill: black;"><tspan x="12.8056640625" y="39.2">Send information to </tspan><tspan x="19.4765625" y="53.6">external sanction </tspan><tspan x="18.1494140625" y="68">screening service</tspan></text></g><g class="djs-visual" id="Activity_1mrn0ba" transform="translate(45 370)"><rect x="0" y="0" width="130" height="100" rx="10" ry="10" style="stroke: black; stroke-width: 2px; fill: white; fill-opacity: 0.95;"></rect><text lineHeight="1.2" class="djs-label" style="font-family: Arial, sans-serif; font-size: 12px; font-weight: normal; fill: black;"><tspan x="14.8154296875" y="53.599999999999994">Perform Screening</tspan></text></g><g class="djs-visual" id="Gateway_028hcap" transform="translate(85 695)"><polygon points="25,0 50,25 25,50 0,25" style="stroke: black; stroke-width: 2px; fill: white; fill-opacity: 0.95;"></polygon><path d="m 16,15 7.42857142857143,9.714285714285715 -7.42857142857143,9.714285714285715 3.428571428571429,0 5.714285714285715,-7.464228571428572 5.714285714285715,7.464228571428572 3.428571428571429,0 -7.42857142857143,-9.714285714285715 7.42857142857143,-9.714285714285715 -3.428571428571429,0 -5.714285714285715,7.464228571428572 -5.714285714285715,-7.464228571428572 -3.428571428571429,0 z" style="fill: black; stroke-width: 1px; stroke: black;"></path></g><g class="djs-visual" id="Activity_1527x0b" transform="translate(45 800)"><rect x="0" y="0" width="130" height="100" rx="10" ry="10" style="stroke: black; stroke-width: 2px; fill: white; fill-opacity: 0.95;"></rect><text lineHeight="1.2" class="djs-label" style="font-family: Arial, sans-serif; font-size: 12px; font-weight: normal; fill: black;"><tspan x="27.4814453125" y="46.4">Check type of </tspan><tspan x="40.154296875" y="60.8">response</tspan></text></g><g class="djs-visual" id="Gateway_1kvujtu" transform="translate(85 935)"><polygon points="25,0 50,25 25,50 0,25" style="stroke: black; stroke-width: 2px; fill: white; fill-opacity: 0.95;"></polygon><path d="m 16,15 7.42857142857143,9.714285714285715 -7.42857142857143,9.714285714285715 3.428571428571429,0 5.714285714285715,-7.464228571428572 5.714285714285715,7.464228571428572 3.428571428571429,0 -7.42857142857143,-9.714285714285715 7.42857142857143,-9.714285714285715 -3.428571428571429,0 -5.714285714285715,7.464228571428572 -5.714285714285715,-7.464228571428572 -3.428571428571429,0 z" style="fill: black; stroke-width: 1px; stroke: black;"></path></g><g class="djs-visual" id="Gateway_0b162km" transform="translate(85 1775)"><polygon points="25,0 50,25 25,50 0,25" style="stroke: black; stroke-width: 2px; fill: white; fill-opacity: 0.95;"></polygon><path d="m 16,15 7.42857142857143,9.714285714285715 -7.42857142857143,9.714285714285715 3.428571428571429,0 5.714285714285715,-7.464228571428572 5.714285714285715,7.464228571428572 3.428571428571429,0 -7.42857142857143,-9.714285714285715 7.42857142857143,-9.714285714285715 -3.428571428571429,0 -5.714285714285715,7.464228571428572 -5.714285714285715,-7.464228571428572 -3.428571428571429,0 z" style="fill: black; stroke-width: 1px; stroke: black;"></path></g><g class="djs-visual" id="Gateway_18l5sx9" transform="translate(85 1855)"><polygon points="25,0 50,25 25,50 0,25" style="stroke: black; stroke-width: 2px; fill: white; fill-opacity: 0.95;"></polygon><path d="m 16,15 7.42857142857143,9.714285714285715 -7.42857142857143,9.714285714285715 3.428571428571429,0 5.714285714285715,-7.464228571428572 5.714285714285715,7.464228571428572 3.428571428571429,0 -7.42857142857143,-9.714285714285715 7.42857142857143,-9.714285714285715 -3.428571428571429,0 -5.714285714285715,7.464228571428572 -5.714285714285715,-7.464228571428572 -3.428571428571429,0 z" style="fill: black; stroke-width: 1px; stroke: black;"></path></g><g class="djs-visual" id="Event_0rjrwk4" transform="translate(92 1972)"><circle cx="18" cy="18" r="18" style="stroke: black; stroke-width: 4px; fill: white; fill-opacity: 0.95;"></circle></g><g class="djs-visual" id="Event_0rjrwk4_label" transform="translate(83 2015)"><text lineHeight="1.2" class="djs-label" style="font-family: Arial, sans-serif; font-size: 11px; font-weight: normal; fill: black;"><tspan x="3.2578125" y="9.899999999999999">Screening </tspan><tspan x="2.987060546875" y="23.099999999999998">Approved/ </tspan><tspan x="0" y="36.3">Transaction </tspan><tspan x="4.7890625" y="49.5">cancelled</tspan></text></g><g class="djs-visual" id="Activity_15czeig" transform="translate(45 540)"><rect x="0" y="0" width="130" height="100" rx="10" ry="10" style="stroke: black; stroke-width: 2px; fill: white; fill-opacity: 0.95;"></rect><text lineHeight="1.2" class="djs-label" style="font-family: Arial, sans-serif; font-size: 12px; font-weight: normal; fill: black;"><tspan x="10.9765625" y="32">Check if response is </tspan><tspan x="5.474609375" y="46.4">received from external</tspan><tspan x="14.806640625" y="60.8">sanction screening </tspan><tspan x="45.83203125" y="75.19999999999999">service</tspan></text></g><g class="djs-visual" id="Activity_0jvegvu" transform="translate(345 1080)"><rect x="0" y="0" width="130" height="100" rx="10" ry="10" style="stroke: black; stroke-width: 2px; fill: white; fill-opacity: 0.95;"></rect><text lineHeight="1.2" class="djs-label" style="font-family: Arial, sans-serif; font-size: 12px; font-weight: normal; fill: black;"><tspan x="14.47265625" y="46.4">Update&nbsp;transaction </tspan><tspan x="13.8076171875" y="60.8">status&nbsp;as cancelled</tspan></text></g><g class="djs-visual" id="Activity_1vcwbjq" transform="translate(345 1240)"><rect x="0" y="0" width="130" height="100" rx="10" ry="10" style="stroke: black; stroke-width: 2px; fill: white; fill-opacity: 0.95;"></rect><text lineHeight="1.2" class="djs-label" style="font-family: Arial, sans-serif; font-size: 12px; font-weight: normal; fill: black;"><tspan x="13.46484375" y="39.2">Generate and send </tspan><tspan x="7.13671875" y="53.6">cancellation message </tspan><tspan x="37.654296875" y="68">to clearing</tspan></text></g><g class="djs-visual" id="Activity_102pdd6" transform="translate(345 1420)"><rect x="0" y="0" width="130" height="100" rx="10" ry="10" style="stroke: black; stroke-width: 2px; fill: white; fill-opacity: 0.95;"></rect><text lineHeight="1.2" class="djs-label" style="font-family: Arial, sans-serif; font-size: 12px; font-weight: normal; fill: black;"><tspan x="13.140625" y="46.4">Generate customer </tspan><tspan x="31.318359375" y="60.8">status report</tspan></text></g><g class="djs-visual" id="Activity_0qdfyv2" transform="translate(345 1600)"><rect x="0" y="0" width="130" height="100" rx="10" ry="10" style="stroke: black; stroke-width: 2px; fill: white; fill-opacity: 0.95;"></rect><text lineHeight="1.2" class="djs-label" style="font-family: Arial, sans-serif; font-size: 12px; font-weight: normal; fill: black;"><tspan x="6.9765625" y="46.4">Generate Email/ SMS </tspan><tspan x="16.6494140625" y="60.8">Alerts to customer</tspan></text></g><g class="djs-visual" id="DataObjectReference_1pq237v" transform="translate(532 1625)"><path d="m 0,0 28.23529411764706,0 7.058823529411765,8.196721311475411 0,40.98360655737705 -35.294117647058826,0 0,-49.18032786885246 28.23529411764706,0 0,8.196721311475411 7.058823529411765,0" style="fill: white; stroke-width: 2px; stroke: black; fill-opacity: 0.95;"></path></g><g class="djs-visual" id="DataObjectReference_1pq237v_label" transform="translate(505 1682)"><text lineHeight="1.2" class="djs-label" style="font-family: Arial, sans-serif; font-size: 11px; font-weight: normal; fill: black;"><tspan x="0" y="9.899999999999999">E-mail alerts; SMS </tspan><tspan x="32.16845703125" y="23.099999999999998">alerts</tspan></text></g><g class="djs-visual" id="DataObjectReference_09s4637" transform="translate(532 1445)"><path d="m 0,0 28.23529411764706,0 7.058823529411765,8.196721311475411 0,40.98360655737705 -35.294117647058826,0 0,-49.18032786885246 28.23529411764706,0 0,8.196721311475411 7.058823529411765,0" style="fill: white; stroke-width: 2px; stroke: black; fill-opacity: 0.95;"></path></g><g class="djs-visual" id="DataObjectReference_09s4637_label" transform="translate(529 1502)"><text lineHeight="1.2" class="djs-label" style="font-family: Arial, sans-serif; font-size: 11px; font-weight: normal; fill: black;"><tspan x="0" y="9.899999999999999">pain.002</tspan></text></g><g class="djs-visual" id="DataObjectReference_1me9b04" transform="translate(532 1265)"><path d="m 0,0 28.23529411764706,0 7.058823529411765,8.196721311475411 0,40.98360655737705 -35.294117647058826,0 0,-49.18032786885246 28.23529411764706,0 0,8.196721311475411 7.058823529411765,0" style="fill: white; stroke-width: 2px; stroke: black; fill-opacity: 0.95;"></path></g><g class="djs-visual" id="DataObjectReference_1me9b04_label" transform="translate(528 1322)"><text lineHeight="1.2" class="djs-label" style="font-family: Arial, sans-serif; font-size: 11px; font-weight: normal; fill: black;"><tspan x="0" y="9.899999999999999">pacs.002</tspan></text></g><g class="djs-visual" id="Activity_074yvmr" transform="translate(735 800)"><rect x="0" y="0" width="130" height="100" rx="10" ry="10" style="stroke: black; stroke-width: 2px; fill: white; fill-opacity: 0.95;"></rect><text lineHeight="1.2" class="djs-label" style="font-family: Arial, sans-serif; font-size: 12px; font-weight: normal; fill: black;"><tspan x="5.302734375" y="53.599999999999994">Proceed with&nbsp;payment</tspan></text></g><g class="djs-visual" id="TextAnnotation_0klkxkd" transform="translate(510 1030)"><rect x="0" y="0" width="210" height="40" rx="0" ry="0" style="stroke: none; stroke-width: 2px; fill: none;"></rect><path d="m 0, 0 m 10,0 l -10,0 l 0,40 l 10,0" style="fill: none; stroke-width: 2px; stroke: black;"></path><text lineHeight="1.2" class="djs-label" style="font-family: Arial, sans-serif; font-size: 12px; font-weight: normal; fill: black;"><tspan x="5" y="15.799999999999999">Status will be updated in PO also, for</tspan><tspan x="5" y="30.199999999999996">PO initiated transactions</tspan></text></g><g class="djs-visual" id="TextAnnotation_1lpsfqj" transform="translate(510 1540)"><rect x="0" y="0" width="162" height="40" rx="0" ry="0" style="stroke: none; stroke-width: 2px; fill: none;"></rect><path d="m 0, 0 m 10,0 l -10,0 l 0,40 l 10,0" style="fill: none; stroke-width: 2px; stroke: black;"></path><text lineHeight="1.2" class="djs-label" style="font-family: Arial, sans-serif; font-size: 12px; font-weight: normal; fill: black;"><tspan x="5" y="15.799999999999999">When payment is initiated </tspan><tspan x="5" y="30.199999999999996">through Payment Order</tspan></text></g><g class="djs-visual" id="TextAnnotation_0zfncuj" transform="translate(510 1200)"><rect x="0" y="0" width="180" height="30" rx="0" ry="0" style="stroke: none; stroke-width: 2px; fill: none;"></rect><path d="m 0, 0 m 10,0 l -10,0 l 0,30 l 10,0" style="fill: none; stroke-width: 2px; stroke: black;"></path><text lineHeight="1.2" class="djs-label" style="font-family: Arial, sans-serif; font-size: 12px; font-weight: normal; fill: black;"><tspan x="5" y="15.799999999999999">When pacs.008 is received</tspan></text></g><g class="djs-visual" id="TextAnnotation_0mb4v7s" transform="translate(510 1370)"><rect x="0" y="0" width="162" height="30" rx="0" ry="0" style="stroke: none; stroke-width: 2px; fill: none;"></rect><path d="m 0, 0 m 10,0 l -10,0 l 0,30 l 10,0" style="fill: none; stroke-width: 2px; stroke: black;"></path><text lineHeight="1.2" class="djs-label" style="font-family: Arial, sans-serif; font-size: 12px; font-weight: normal; fill: black;"><tspan x="5" y="15.799999999999999">When pain.001 is received</tspan></text></g><g class="djs-visual" id="TextAnnotation_1h8zirz" transform="translate(920 720)"><rect x="0" y="0" width="270" height="90" rx="0" ry="0" style="stroke: none; stroke-width: 2px; fill: none;"></rect><path d="m 0, 0 m 10,0 l -10,0 l 0,90 l 10,0" style="fill: none; stroke-width: 2px; stroke: black;"></path><text lineHeight="1.2" class="djs-label" style="font-family: Arial, sans-serif; font-size: 12px; font-weight: normal; fill: black;"><tspan x="5" y="15.799999999999999">Details will be sent to the payment system </tspan><tspan x="5" y="30.199999999999996">irrespective of receipt of response. Payment </tspan><tspan x="5" y="44.599999999999994">system will proceed with payment activities </tspan><tspan x="5" y="58.99999999999999">(like Warehouse requirement, risk screening) but</tspan><tspan x="5" y="73.39999999999999">booking of payment will happen only after the </tspan><tspan x="5" y="87.79999999999998">sanction screening response is received.</tspan></text></g><g class="djs-visual" id="Flow_1wyv3ry_label" transform="translate(103 756)"><text lineHeight="1.2" class="djs-label" style="font-family: Arial, sans-serif; font-size: 11px; font-weight: normal; fill: black;"><tspan x="0" y="9.899999999999999">Response received</tspan></text></g><g class="djs-visual" id="Flow_0dpz6cq_label" transform="translate(428 993)"><text lineHeight="1.2" class="djs-label" style="font-family: Arial, sans-serif; font-size: 11px; font-weight: normal; fill: black;"><tspan x="0" y="9.899999999999999">Rejected</tspan></text></g><g class="djs-visual" id="DataOutputAssociation_1yva6py" transform="translate(0 0)"><polyline points="475,1290 532,1290 " style="fill: none; stroke: black; stroke-width: 2px; stroke-dasharray: 0.5, 5; stroke-linecap: round; stroke-linejoin: round; marker-end: url(&quot;#association-end-white-black-ertfjcyoojhczmdy02sgmj2qb&quot;);"></polyline></g><g class="djs-visual" id="DataOutputAssociation_0hx352d" transform="translate(0 0)"><polyline points="475,1470 532,1470 " style="fill: none; stroke: black; stroke-width: 2px; stroke-dasharray: 0.5, 5; stroke-linecap: round; stroke-linejoin: round; marker-end: url(&quot;#association-end-white-black-ertfjcyoojhczmdy02sgmj2qb&quot;);"></polyline></g><g class="djs-visual" id="DataOutputAssociation_1l0u9cf" transform="translate(0 0)"><polyline points="475,1650 530,1650 " style="fill: none; stroke: black; stroke-width: 2px; stroke-dasharray: 0.5, 5; stroke-linecap: round; stroke-linejoin: round; marker-end: url(&quot;#association-end-white-black-ertfjcyoojhczmdy02sgmj2qb&quot;);"></polyline></g><g class="djs-visual" id="Flow_1ssyhef_label" transform="translate(127 993)"><text lineHeight="1.2" class="djs-label" style="font-family: Arial, sans-serif; font-size: 11px; font-weight: normal; fill: black;"><tspan x="0" y="9.899999999999999">Approved</tspan></text></g><g class="djs-visual" id="Flow_08nv4bg_label" transform="translate(165 676)"><text lineHeight="1.2" class="djs-label" style="font-family: Arial, sans-serif; font-size: 11px; font-weight: normal; fill: black;"><tspan x="0" y="9.899999999999999">Response not </tspan><tspan x="13.622802734375" y="23.099999999999998">received</tspan></text></g><g class="djs-visual" id="Association_1p4i91y" transform="translate(0 0)"><polyline points="470,1082 510,1050 " style="fill: none; stroke: black; stroke-width: 2px; stroke-dasharray: 0.5, 5; stroke-linecap: round; stroke-linejoin: round;"></polyline></g><g class="djs-visual" id="Association_1hlp5av" transform="translate(0 0)"><polyline points="465,1600 510,1560 " style="fill: none; stroke: black; stroke-width: 2px; stroke-dasharray: 0.5, 5; stroke-linecap: round; stroke-linejoin: round;"></polyline></g><g class="djs-visual" id="Association_0hlfu2w" transform="translate(0 0)"><polyline points="472,1243 510,1215 " style="fill: none; stroke: black; stroke-width: 2px; stroke-dasharray: 0.5, 5; stroke-linecap: round; stroke-linejoin: round;"></polyline></g><g class="djs-visual" id="Association_1b2ybxi" transform="translate(0 0)"><polyline points="468,1421 510,1385 " style="fill: none; stroke: black; stroke-width: 2px; stroke-dasharray: 0.5, 5; stroke-linecap: round; stroke-linejoin: round;"></polyline></g><g class="djs-visual" id="Association_181vg8o" transform="translate(0 0)"><polyline points="864,807 920,769 " style="fill: none; stroke: black; stroke-width: 2px; stroke-dasharray: 0.5, 5; stroke-linecap: round; stroke-linejoin: round;"></polyline></g></g><g><rect class="viewport" x="-2060.867283950617" y="33.95061728395061" width="5354.938271604938" height="2037.037037037037"></rect></g></svg>