<svg width="100%" height="100%" viewBox="-51, -180, 1835, 1178"><g><g class="djs-visual" id="Flow_0kkf0by" transform="translate(0 0)"><path d="m  570,-22L570,70 L95,70 " style="fill: none; stroke-width: 2px; stroke: black; stroke-linejoin: round; marker-end: url(&quot;#sequenceflow-end-white-black-6d1gyaqno8x288nm3d7d5uljq&quot;);"></path></g><g class="djs-visual" id="Flow_02xfjyi" transform="translate(0 0)"><path d="m  410,-22L410,70 L95,70 " style="fill: none; stroke-width: 2px; stroke: black; stroke-linejoin: round; marker-end: url(&quot;#sequenceflow-end-white-black-6d1gyaqno8x288nm3d7d5uljq&quot;);"></path></g><g class="djs-visual" id="Flow_0szsrh2" transform="translate(0 0)"><path d="m  260,-22L260,70 L95,70 " style="fill: none; stroke-width: 2px; stroke: black; stroke-linejoin: round; marker-end: url(&quot;#sequenceflow-end-white-black-6d1gyaqno8x288nm3d7d5uljq&quot;);"></path></g><g class="djs-visual" id="Flow_0c2ccxp" transform="translate(0 0)"><path d="m  70,95L70,190 " style="fill: none; stroke-width: 2px; stroke: black; stroke-linejoin: round; marker-end: url(&quot;#sequenceflow-end-white-black-6d1gyaqno8x288nm3d7d5uljq&quot;);"></path></g><g class="djs-visual" id="Flow_1vm7s85" transform="translate(0 0)"><path d="m  470,590L470,672 " style="fill: none; stroke-width: 2px; stroke: black; stroke-linejoin: round; marker-end: url(&quot;#sequenceflow-end-white-black-6d1gyaqno8x288nm3d7d5uljq&quot;);"></path></g><g class="djs-visual" id="Flow_0pnudz1" transform="translate(0 0)"><path d="m  70,800L70,872 " style="fill: none; stroke-width: 2px; stroke: black; stroke-linejoin: round; marker-end: url(&quot;#sequenceflow-end-white-black-6d1gyaqno8x288nm3d7d5uljq&quot;);"></path></g><g class="djs-visual" id="Flow_1dy4b6r" transform="translate(0 0)"><path d="m  70,590L70,700 " style="fill: none; stroke-width: 2px; stroke: black; stroke-linejoin: round; marker-end: url(&quot;#sequenceflow-end-white-black-6d1gyaqno8x288nm3d7d5uljq&quot;);"></path></g><g class="djs-visual" id="Flow_0mnmy15" transform="translate(0 0)"><path d="m  95,390L470,390 L470,490 " style="fill: none; stroke-width: 2px; stroke: black; stroke-linejoin: round; marker-end: url(&quot;#sequenceflow-end-white-black-6d1gyaqno8x288nm3d7d5uljq&quot;);"></path></g><g class="djs-visual" id="Flow_1cgv39e" transform="translate(0 0)"><path d="m  70,415L70,490 " style="fill: none; stroke-width: 2px; stroke: black; stroke-linejoin: round; marker-end: url(&quot;#sequenceflow-end-white-black-6d1gyaqno8x288nm3d7d5uljq&quot;);"></path></g><g class="djs-visual" id="Flow_0ujgbby" transform="translate(0 0)"><path d="m  70,290L70,365 " style="fill: none; stroke-width: 2px; stroke: black; stroke-linejoin: round; marker-end: url(&quot;#sequenceflow-end-white-black-6d1gyaqno8x288nm3d7d5uljq&quot;);"></path></g><g class="djs-visual" id="Flow_0hzrgdl" transform="translate(0 0)"><path d="m  70,-22L70,45 " style="fill: none; stroke-width: 2px; stroke: black; stroke-linejoin: round; marker-end: url(&quot;#sequenceflow-end-white-black-6d1gyaqno8x288nm3d7d5uljq&quot;);"></path></g><g class="djs-visual" id="Event_15w8f06" transform="translate(52 -58)"><circle cx="18" cy="18" r="18" style="stroke: black; stroke-width: 2px; fill: white; fill-opacity: 0.95;"></circle></g><g class="djs-visual" id="Event_15w8f06_label" transform="translate(27 -118)"><text lineHeight="1.2" class="djs-label" style="font-family: Arial, sans-serif; font-size: 11px; font-weight: normal; fill: black;"><tspan x="0" y="9.899999999999999">Direct Trade (DX) </tspan><tspan x="18.18115234375" y="23.099999999999998">generated</tspan></text></g><g class="djs-visual" id="Activity_00t9zhd" transform="translate(5 190)"><rect x="0" y="0" width="130" height="100" rx="10" ry="10" style="stroke: black; stroke-width: 2px; fill: white; fill-opacity: 0.95;"></rect><text lineHeight="1.2" class="djs-label" style="font-family: Arial, sans-serif; font-size: 12px; font-weight: normal; fill: black;"><tspan x="9.1318359375" y="46.4">Generate accounting </tspan><tspan x="11.6484375" y="60.8">entries (Derivatives)</tspan></text></g><g class="djs-visual" id="Gateway_1g7v21z" transform="translate(45 365)"><polygon points="25,0 50,25 25,50 0,25" style="stroke: black; stroke-width: 2px; fill: white; fill-opacity: 0.95;"></polygon><path d="m 23,10 0,12.5 -12.5,0 0,5 12.5,0 0,12.5 5,0 0,-12.5 12.5,0 0,-5 -12.5,0 0,-12.5 -5,0 z" style="fill: black; stroke-width: 1px; stroke: black;"></path></g><g class="djs-visual" id="Activity_0x70asr" transform="translate(5 490)"><rect x="0" y="0" width="130" height="100" rx="10" ry="10" style="stroke: black; stroke-width: 2px; fill: white; fill-opacity: 0.95;"></rect><text lineHeight="1.2" class="djs-label" style="font-family: Arial, sans-serif; font-size: 12px; font-weight: normal; fill: black;"><tspan x="24.4775390625" y="39.2">Generate trade </tspan><tspan x="23.1484375" y="53.6">confirmation for </tspan><tspan x="38.4912109375" y="68">Customer</tspan></text></g><g class="djs-visual" id="Activity_0mklxvj" transform="translate(405 490)"><rect x="0" y="0" width="130" height="100" rx="10" ry="10" style="stroke: black; stroke-width: 2px; fill: white; fill-opacity: 0.95;"></rect><text lineHeight="1.2" class="djs-label" style="font-family: Arial, sans-serif; font-size: 12px; font-weight: normal; fill: black;"><tspan x="15.1318359375" y="46.4">Generate outgoing </tspan><tspan x="41.654296875" y="60.8">payment</tspan></text></g><g class="djs-visual" id="Activity_00pl11j" transform="translate(5 700)"><rect x="0" y="0" width="130" height="100" rx="10" ry="10" style="stroke: black; stroke-width: 2px; fill: white; fill-opacity: 0.95;"></rect><text lineHeight="1.2" class="djs-label" style="font-family: Arial, sans-serif; font-size: 12px; font-weight: normal; fill: black;"><tspan x="24.4775390625" y="39.2">Generate trade </tspan><tspan x="23.1484375" y="53.6">confirmation for </tspan><tspan x="31.6484375" y="68">counterparty</tspan></text></g><g class="djs-visual" id="Event_0xmkn86" transform="translate(52 872)"><circle cx="18" cy="18" r="18" style="stroke: black; stroke-width: 4px; fill: white; fill-opacity: 0.95;"></circle></g><g class="djs-visual" id="Event_0xmkn86_label" transform="translate(25 915)"><text lineHeight="1.2" class="djs-label" style="font-family: Arial, sans-serif; font-size: 11px; font-weight: normal; fill: black;"><tspan x="0" y="9.899999999999999">Trade confirmation </tspan><tspan x="20.3828125" y="23.099999999999998">generated</tspan></text></g><g class="djs-visual" id="Event_15t6x67" transform="translate(452 672)"><circle cx="18" cy="18" r="18" style="stroke: black; stroke-width: 4px; fill: white; fill-opacity: 0.95;"></circle></g><g class="djs-visual" id="Event_15t6x67_label" transform="translate(425 715)"><text lineHeight="1.2" class="djs-label" style="font-family: Arial, sans-serif; font-size: 11px; font-weight: normal; fill: black;"><tspan x="0" y="9.899999999999999">Outgoing payment </tspan><tspan x="20.643798828125" y="23.099999999999998">generated</tspan></text></g><g class="djs-visual" id="DataObjectReference_0jg6ox9" transform="translate(202 515)"><path d="m 0,0 28.23529411764706,0 7.058823529411765,8.196721311475411 0,40.98360655737705 -35.294117647058826,0 0,-49.18032786885246 28.23529411764706,0 0,8.196721311475411 7.058823529411765,0" style="fill: white; stroke-width: 2px; stroke: black; fill-opacity: 0.95;"></path></g><g class="djs-visual" id="DataObjectReference_0jg6ox9_label" transform="translate(174 572)"><text lineHeight="1.2" class="djs-label" style="font-family: Arial, sans-serif; font-size: 11px; font-weight: normal; fill: black;"><tspan x="0" y="9.899999999999999">Trade Confirmation </tspan><tspan x="15.341552734375" y="23.099999999999998">(Derivatives)</tspan></text></g><g class="djs-visual" id="DataObjectReference_08pc9m6" transform="translate(602 515)"><path d="m 0,0 28.23529411764706,0 7.058823529411765,8.196721311475411 0,40.98360655737705 -35.294117647058826,0 0,-49.18032786885246 28.23529411764706,0 0,8.196721311475411 7.058823529411765,0" style="fill: white; stroke-width: 2px; stroke: black; fill-opacity: 0.95;"></path></g><g class="djs-visual" id="DataObjectReference_08pc9m6_label" transform="translate(603 572)"><text lineHeight="1.2" class="djs-label" style="font-family: Arial, sans-serif; font-size: 11px; font-weight: normal; fill: black;"><tspan x="0" y="9.899999999999999">MT202</tspan></text></g><g class="djs-visual" id="DataObjectReference_1r6nh4r" transform="translate(202 725)"><path d="m 0,0 28.23529411764706,0 7.058823529411765,8.196721311475411 0,40.98360655737705 -35.294117647058826,0 0,-49.18032786885246 28.23529411764706,0 0,8.196721311475411 7.058823529411765,0" style="fill: white; stroke-width: 2px; stroke: black; fill-opacity: 0.95;"></path></g><g class="djs-visual" id="DataObjectReference_1r6nh4r_label" transform="translate(181 782)"><text lineHeight="1.2" class="djs-label" style="font-family: Arial, sans-serif; font-size: 11px; font-weight: normal; fill: black;"><tspan x="0" y="9.899999999999999">MT306; MT601; </tspan><tspan x="21.6953125" y="23.099999999999998">MT305</tspan></text></g><g class="djs-visual" id="Gateway_04ck32y" transform="translate(45 45)"><polygon points="25,0 50,25 25,50 0,25" style="stroke: black; stroke-width: 2px; fill: white; fill-opacity: 0.95;"></polygon><path d="m 16,15 7.42857142857143,9.714285714285715 -7.42857142857143,9.714285714285715 3.428571428571429,0 5.714285714285715,-7.464228571428572 5.714285714285715,7.464228571428572 3.428571428571429,0 -7.42857142857143,-9.714285714285715 7.42857142857143,-9.714285714285715 -3.428571428571429,0 -5.714285714285715,7.464228571428572 -5.714285714285715,-7.464228571428572 -3.428571428571429,0 z" style="fill: black; stroke-width: 1px; stroke: black;"></path></g><g class="djs-visual" id="Event_07q2px5" transform="translate(242 -58)"><circle cx="18" cy="18" r="18" style="stroke: black; stroke-width: 2px; fill: white; fill-opacity: 0.95;"></circle></g><g class="djs-visual" id="Event_07q2px5_label" transform="translate(212 -111)"><text lineHeight="1.2" class="djs-label" style="font-family: Arial, sans-serif; font-size: 11px; font-weight: normal; fill: black;"><tspan x="0" y="9.899999999999999">OTC Trade created</tspan></text></g><g class="djs-visual" id="Event_0e8m35y" transform="translate(392 -58)"><circle cx="18" cy="18" r="18" style="stroke: black; stroke-width: 2px; fill: white; fill-opacity: 0.95;"></circle></g><g class="djs-visual" id="Event_0e8m35y_label" transform="translate(377 -124)"><text lineHeight="1.2" class="djs-label" style="font-family: Arial, sans-serif; font-size: 11px; font-weight: normal; fill: black;"><tspan x="0" y="9.899999999999999">Commodities </tspan><tspan x="1.95947265625" y="23.099999999999998">futures trade </tspan><tspan x="6.65478515625" y="36.3">authorised</tspan></text></g><g class="djs-visual" id="Event_189ub01" transform="translate(552 -58)"><circle cx="18" cy="18" r="18" style="stroke: black; stroke-width: 2px; fill: white; fill-opacity: 0.95;"></circle></g><g class="djs-visual" id="Event_189ub01_label" transform="translate(528 -124)"><text lineHeight="1.2" class="djs-label" style="font-family: Arial, sans-serif; font-size: 11px; font-weight: normal; fill: black;"><tspan x="0" y="9.899999999999999">Derivatives trade </tspan><tspan x="1.586181640625" y="23.099999999999998">created for back </tspan><tspan x="28.2265625" y="36.3">office</tspan></text></g><g class="djs-visual" id="TextAnnotation_184nfo5" transform="translate(195 120)"><rect x="0" y="0" width="465" height="150" rx="0" ry="0" style="stroke: none; stroke-width: 2px; fill: none;"></rect><path d="m 0, 0 m 10,0 l -10,0 l 0,150 l 10,0" style="fill: none; stroke-width: 2px; stroke: black;"></path><text lineHeight="1.2" class="djs-label" style="font-family: Arial, sans-serif; font-size: 12px; font-weight: normal; fill: black;"><tspan x="5" y="15.799999999999999">- Margin: Future, Exchange traded Option</tspan><tspan x="5" y="30.199999999999996">- Premium: Option</tspan><tspan x="5" y="44.599999999999994">- Accounting entries depend on the nature of trade (Buy/ Sell/ Future/ Option etc.)</tspan><tspan x="5" y="58.99999999999999">&nbsp; System can be parameterised (Interco Parameter) to book P&amp;L on account of</tspan><tspan x="5" y="73.39999999999999">&nbsp; customer fees and Taxes automatically in the Portfolio’s own Company</tspan><tspan x="5" y="87.79999999999998">- For a multiple Customers in a Single Trade, Customer Commission/</tspan><tspan x="5" y="102.19999999999999">&nbsp; fees and Taxes can be booked on a pro-rata basis</tspan><tspan x="5" y="116.6">- Similarly, system can be parameterised to reinvoice Broker fees and Taxes</tspan><tspan x="5" y="131">&nbsp; automatically to the Portfolio Company</tspan></text></g><g class="djs-visual" id="TextAnnotation_16tka7e" transform="translate(195 650)"><rect x="0" y="0" width="230" height="50" rx="0" ry="0" style="stroke: none; stroke-width: 2px; fill: none;"></rect><path d="m 0, 0 m 10,0 l -10,0 l 0,50 l 10,0" style="fill: none; stroke-width: 2px; stroke: black;"></path><text lineHeight="1.2" class="djs-label" style="font-family: Arial, sans-serif; font-size: 12px; font-weight: normal; fill: black;"><tspan x="5" y="15.799999999999999">MT306 - for Exotic FX option</tspan><tspan x="5" y="30.199999999999996">MT601 - for Precious metal FX option</tspan><tspan x="5" y="44.599999999999994">MT305 - for Vanilla FX option</tspan></text></g><g class="djs-visual" id="Flow_0ujgbby_label" transform="translate(78 313)"><text lineHeight="1.2" class="djs-label" style="font-family: Arial, sans-serif; font-size: 11px; font-weight: normal; fill: black;"><tspan x="0" y="9.899999999999999">Accounting entries </tspan><tspan x="20.225341796875" y="23.099999999999998">generated</tspan></text></g><g class="djs-visual" id="DataOutputAssociation_19u5s23" transform="translate(0 0)"><polyline points="135,540 202,540 " style="fill: none; stroke: black; stroke-width: 2px; stroke-dasharray: 0.5, 5; stroke-linecap: round; stroke-linejoin: round; marker-end: url(&quot;#association-end-white-black-6d1gyaqno8x288nm3d7d5uljq&quot;);"></polyline></g><g class="djs-visual" id="DataOutputAssociation_11xycg0" transform="translate(0 0)"><polyline points="535,540 602,540 " style="fill: none; stroke: black; stroke-width: 2px; stroke-dasharray: 0.5, 5; stroke-linecap: round; stroke-linejoin: round; marker-end: url(&quot;#association-end-white-black-6d1gyaqno8x288nm3d7d5uljq&quot;);"></polyline></g><g class="djs-visual" id="DataOutputAssociation_0tbnd7b" transform="translate(0 0)"><polyline points="135,750 202,750 " style="fill: none; stroke: black; stroke-width: 2px; stroke-dasharray: 0.5, 5; stroke-linecap: round; stroke-linejoin: round; marker-end: url(&quot;#association-end-white-black-6d1gyaqno8x288nm3d7d5uljq&quot;);"></polyline></g><g class="djs-visual" id="Association_1pg70d6" transform="translate(0 0)"><polyline points="135,203 195,169 " style="fill: none; stroke: black; stroke-width: 2px; stroke-dasharray: 0.5, 5; stroke-linecap: round; stroke-linejoin: round;"></polyline></g><g class="djs-visual" id="Association_0yro812" transform="translate(0 0)"><polyline points="135,711 195,675 " style="fill: none; stroke: black; stroke-width: 2px; stroke-dasharray: 0.5, 5; stroke-linecap: round; stroke-linejoin: round;"></polyline></g></g><g><rect class="viewport" x="-1084.8513071895425" y="-130.05228758169935" width="2834.967320261438" height="1078.4313725490197"></rect></g></svg>