<svg width="100%" height="100%" viewBox="-101, -680, 1835, 2281"><g><g class="djs-visual" id="Flow_1bps2ic" transform="translate(0 0)"><path d="m  20,1380L20,1462 " style="fill: none; stroke-width: 2px; stroke: black; stroke-linejoin: round; marker-end: url(&quot;#sequenceflow-end-white-black-1qkbf37bm6dlh5zdpaxdpm7hu&quot;);"></path></g><g class="djs-visual" id="Flow_1iqic8q" transform="translate(0 0)"><path d="m  20,1210L20,1280 " style="fill: none; stroke-width: 2px; stroke: black; stroke-linejoin: round; marker-end: url(&quot;#sequenceflow-end-white-black-1qkbf37bm6dlh5zdpaxdpm7hu&quot;);"></path></g><g class="djs-visual" id="Flow_0pelc1b" transform="translate(0 0)"><path d="m  20,1040L20,1110 " style="fill: none; stroke-width: 2px; stroke: black; stroke-linejoin: round; marker-end: url(&quot;#sequenceflow-end-white-black-1qkbf37bm6dlh5zdpaxdpm7hu&quot;);"></path></g><g class="djs-visual" id="Flow_17w7ut7" transform="translate(0 0)"><path d="m  20,875L20,940 " style="fill: none; stroke-width: 2px; stroke: black; stroke-linejoin: round; marker-end: url(&quot;#sequenceflow-end-white-black-1qkbf37bm6dlh5zdpaxdpm7hu&quot;);"></path></g><g class="djs-visual" id="Flow_0z45tu4" transform="translate(0 0)"><path d="m  440,875L440,910 L640,910 L640,-260 L45,-260 " style="fill: none; stroke-width: 2px; stroke: black; stroke-linejoin: round; marker-end: url(&quot;#sequenceflow-end-white-black-1qkbf37bm6dlh5zdpaxdpm7hu&quot;);"></path></g><g class="djs-visual" id="Flow_13wfpcg" transform="translate(0 0)"><path d="m  415,850L45,850 " style="fill: none; stroke-width: 2px; stroke: black; stroke-linejoin: round; marker-end: url(&quot;#sequenceflow-end-white-black-1qkbf37bm6dlh5zdpaxdpm7hu&quot;);"></path></g><g class="djs-visual" id="Flow_0ary8r1" transform="translate(0 0)"><path d="m  440,750L440,825 " style="fill: none; stroke-width: 2px; stroke: black; stroke-linejoin: round; marker-end: url(&quot;#sequenceflow-end-white-black-1qkbf37bm6dlh5zdpaxdpm7hu&quot;);"></path></g><g class="djs-visual" id="Flow_0jrvlmp" transform="translate(0 0)"><path d="m  20,570L20,825 " style="fill: none; stroke-width: 2px; stroke: black; stroke-linejoin: round; marker-end: url(&quot;#sequenceflow-end-white-black-1qkbf37bm6dlh5zdpaxdpm7hu&quot;);"></path></g><g class="djs-visual" id="Flow_18e8vnv" transform="translate(0 0)"><path d="m  440,570L440,650 " style="fill: none; stroke-width: 2px; stroke: black; stroke-linejoin: round; marker-end: url(&quot;#sequenceflow-end-white-black-1qkbf37bm6dlh5zdpaxdpm7hu&quot;);"></path></g><g class="djs-visual" id="Flow_16ynhvs" transform="translate(0 0)"><path d="m  45,380L440,380 L440,470 " style="fill: none; stroke-width: 2px; stroke: black; stroke-linejoin: round; marker-end: url(&quot;#sequenceflow-end-white-black-1qkbf37bm6dlh5zdpaxdpm7hu&quot;);"></path></g><g class="djs-visual" id="Flow_1z0wobh" transform="translate(0 0)"><path d="m  20,405L20,470 " style="fill: none; stroke-width: 2px; stroke: black; stroke-linejoin: round; marker-end: url(&quot;#sequenceflow-end-white-black-1qkbf37bm6dlh5zdpaxdpm7hu&quot;);"></path></g><g class="djs-visual" id="Flow_19gmikt" transform="translate(0 0)"><path d="m  20,280L20,355 " style="fill: none; stroke-width: 2px; stroke: black; stroke-linejoin: round; marker-end: url(&quot;#sequenceflow-end-white-black-1qkbf37bm6dlh5zdpaxdpm7hu&quot;);"></path></g><g class="djs-visual" id="Flow_0xnrvkr" transform="translate(0 0)"><path d="m  20,110L20,180 " style="fill: none; stroke-width: 2px; stroke: black; stroke-linejoin: round; marker-end: url(&quot;#sequenceflow-end-white-black-1qkbf37bm6dlh5zdpaxdpm7hu&quot;);"></path></g><g class="djs-visual" id="Flow_0zcngpj" transform="translate(0 0)"><path d="m  20,-60L20,10 " style="fill: none; stroke-width: 2px; stroke: black; stroke-linejoin: round; marker-end: url(&quot;#sequenceflow-end-white-black-1qkbf37bm6dlh5zdpaxdpm7hu&quot;);"></path></g><g class="djs-visual" id="Flow_0ycy71w" transform="translate(0 0)"><path d="m  20,-235L20,-160 " style="fill: none; stroke-width: 2px; stroke: black; stroke-linejoin: round; marker-end: url(&quot;#sequenceflow-end-white-black-1qkbf37bm6dlh5zdpaxdpm7hu&quot;);"></path></g><g class="djs-visual" id="Flow_1cntj30" transform="translate(0 0)"><path d="m  20,-370L20,-285 " style="fill: none; stroke-width: 2px; stroke: black; stroke-linejoin: round; marker-end: url(&quot;#sequenceflow-end-white-black-1qkbf37bm6dlh5zdpaxdpm7hu&quot;);"></path></g><g class="djs-visual" id="Flow_0ezpyit" transform="translate(0 0)"><path d="m  20,-532L20,-470 " style="fill: none; stroke-width: 2px; stroke: black; stroke-linejoin: round; marker-end: url(&quot;#sequenceflow-end-white-black-1qkbf37bm6dlh5zdpaxdpm7hu&quot;);"></path></g><g class="djs-visual" id="StartEvent_1bm324f" transform="translate(2 -568)"><circle cx="18" cy="18" r="18" style="stroke: black; stroke-width: 2px; fill: white; fill-opacity: 0.95;"></circle></g><g class="djs-visual" id="StartEvent_1bm324f_label" transform="translate(-24 -624)"><text lineHeight="1.2" class="djs-label" style="font-family: Arial, sans-serif; font-size: 11px; font-weight: normal; fill: black;"><tspan x="0" y="9.899999999999999">Derivatives order </tspan><tspan x="23.277099609375" y="23.099999999999998">initiated</tspan></text></g><g class="djs-visual" id="Activity_1ubu6m1" transform="translate(-45 -470)"><rect x="0" y="0" width="130" height="100" rx="10" ry="10" style="stroke: black; stroke-width: 2px; fill: white; fill-opacity: 0.95;"></rect><text lineHeight="1.2" class="djs-label" style="font-family: Arial, sans-serif; font-size: 12px; font-weight: normal; fill: black;"><tspan x="14.3046875" y="46.4">Check open orders </tspan><tspan x="52.6640625" y="60.8">(DX)</tspan></text></g><g class="djs-visual" id="Gateway_0bh66p5" transform="translate(-5 -285)"><polygon points="25,0 50,25 25,50 0,25" style="stroke: black; stroke-width: 2px; fill: white; fill-opacity: 0.95;"></polygon><path d="m 16,15 7.42857142857143,9.714285714285715 -7.42857142857143,9.714285714285715 3.428571428571429,0 5.714285714285715,-7.464228571428572 5.714285714285715,7.464228571428572 3.428571428571429,0 -7.42857142857143,-9.714285714285715 7.42857142857143,-9.714285714285715 -3.428571428571429,0 -5.714285714285715,7.464228571428572 -5.714285714285715,-7.464228571428572 -3.428571428571429,0 z" style="fill: black; stroke-width: 1px; stroke: black;"></path></g><g class="djs-visual" id="Activity_0mhyenm" transform="translate(-45 -160)"><rect x="0" y="0" width="130" height="100" rx="10" ry="10" style="stroke: black; stroke-width: 2px; fill: white; fill-opacity: 0.95;"></rect><text lineHeight="1.2" class="djs-label" style="font-family: Arial, sans-serif; font-size: 12px; font-weight: normal; fill: black;"><tspan x="19.640625" y="46.4">Place derivatives </tspan><tspan x="14.3115234375" y="60.8">order in the market</tspan></text></g><g class="djs-visual" id="Activity_0kn2oar" transform="translate(-45 10)"><rect x="0" y="0" width="130" height="100" rx="10" ry="10" style="stroke: black; stroke-width: 2px; fill: white; fill-opacity: 0.95;"></rect><text lineHeight="1.2" class="djs-label" style="font-family: Arial, sans-serif; font-size: 12px; font-weight: normal; fill: black;"><tspan x="15.80859375" y="46.4">Receive execution </tspan><tspan x="47.65625" y="60.8">details</tspan></text></g><g class="djs-visual" id="Activity_0srd3eh" transform="translate(-45 180)"><rect x="0" y="0" width="130" height="100" rx="10" ry="10" style="stroke: black; stroke-width: 2px; fill: white; fill-opacity: 0.95;"></rect><text lineHeight="1.2" class="djs-label" style="font-family: Arial, sans-serif; font-size: 12px; font-weight: normal; fill: black;"><tspan x="23.14453125" y="46.4">Enter execution </tspan><tspan x="47.65625" y="60.8">details</tspan></text></g><g class="djs-visual" id="Gateway_126w4hc" transform="translate(-5 355)"><polygon points="25,0 50,25 25,50 0,25" style="stroke: black; stroke-width: 2px; fill: white; fill-opacity: 0.95;"></polygon><path d="m 16,15 7.42857142857143,9.714285714285715 -7.42857142857143,9.714285714285715 3.428571428571429,0 5.714285714285715,-7.464228571428572 5.714285714285715,7.464228571428572 3.428571428571429,0 -7.42857142857143,-9.714285714285715 7.42857142857143,-9.714285714285715 -3.428571428571429,0 -5.714285714285715,7.464228571428572 -5.714285714285715,-7.464228571428572 -3.428571428571429,0 z" style="fill: black; stroke-width: 1px; stroke: black;"></path></g><g class="djs-visual" id="Activity_04xtseb" transform="translate(-45 470)"><rect x="0" y="0" width="130" height="100" rx="10" ry="10" style="stroke: black; stroke-width: 2px; fill: white; fill-opacity: 0.95;"></rect><text lineHeight="1.2" class="djs-label" style="font-family: Arial, sans-serif; font-size: 12px; font-weight: normal; fill: black;"><tspan x="10.9609375" y="53.599999999999994">Update order details</tspan></text></g><g class="djs-visual" id="Activity_0qs9f6n" transform="translate(375 470)"><rect x="0" y="0" width="130" height="100" rx="10" ry="10" style="stroke: black; stroke-width: 2px; fill: white; fill-opacity: 0.95;"></rect><text lineHeight="1.2" class="djs-label" style="font-family: Arial, sans-serif; font-size: 12px; font-weight: normal; fill: black;"><tspan x="10.9609375" y="53.599999999999994">Update order details</tspan></text></g><g class="djs-visual" id="Activity_0yusujx" transform="translate(375 650)"><rect x="0" y="0" width="130" height="100" rx="10" ry="10" style="stroke: black; stroke-width: 2px; fill: white; fill-opacity: 0.95;"></rect><text lineHeight="1.2" class="djs-label" style="font-family: Arial, sans-serif; font-size: 12px; font-weight: normal; fill: black;"><tspan x="17.4755859375" y="39.2">Update remaining </tspan><tspan x="28.810546875" y="53.6">quantity to be </tspan><tspan x="40.4853515625" y="68">executed</tspan></text></g><g class="djs-visual" id="Gateway_1261254" transform="translate(-5 825)"><polygon points="25,0 50,25 25,50 0,25" style="stroke: black; stroke-width: 2px; fill: white; fill-opacity: 0.95;"></polygon><path d="m 16,15 7.42857142857143,9.714285714285715 -7.42857142857143,9.714285714285715 3.428571428571429,0 5.714285714285715,-7.464228571428572 5.714285714285715,7.464228571428572 3.428571428571429,0 -7.42857142857143,-9.714285714285715 7.42857142857143,-9.714285714285715 -3.428571428571429,0 -5.714285714285715,7.464228571428572 -5.714285714285715,-7.464228571428572 -3.428571428571429,0 z" style="fill: black; stroke-width: 1px; stroke: black;"></path></g><g class="djs-visual" id="Gateway_0w6s1aw" transform="translate(415 825)"><polygon points="25,0 50,25 25,50 0,25" style="stroke: black; stroke-width: 2px; fill: white; fill-opacity: 0.95;"></polygon><circle cx="25" cy="25" r="13" style="stroke: black; stroke-width: 2.5px; fill: white;"></circle></g><g class="djs-visual" id="Activity_12s1m1u" transform="translate(-45 940)"><rect x="0" y="0" width="130" height="100" rx="10" ry="10" style="stroke: black; stroke-width: 2px; fill: white; fill-opacity: 0.95;"></rect><text lineHeight="1.2" class="djs-label" style="font-family: Arial, sans-serif; font-size: 12px; font-weight: normal; fill: black;"><tspan x="16.640625" y="46.4">Create derivatives </tspan><tspan x="12.3095703125" y="60.8">trade for completion</tspan></text></g><g class="djs-visual" id="Activity_17lhv3o" transform="translate(-45 1110)"><rect x="0" y="0" width="130" height="100" rx="10" ry="10" style="stroke: black; stroke-width: 2px; fill: white; fill-opacity: 0.95;"></rect><text lineHeight="1.2" class="djs-label" style="font-family: Arial, sans-serif; font-size: 12px; font-weight: normal; fill: black;"><tspan x="9.8046875" y="46.4">Authorise derivatives </tspan><tspan x="51.6611328125" y="60.8">trade</tspan></text></g><g class="djs-visual" id="Activity_0nwoa5w" transform="translate(-45 1280)"><rect x="0" y="0" width="130" height="100" rx="10" ry="10" style="stroke: black; stroke-width: 2px; fill: white; fill-opacity: 0.95;"></rect><text lineHeight="1.2" class="djs-label" style="font-family: Arial, sans-serif; font-size: 12px; font-weight: normal; fill: black;"><tspan x="15.3046875" y="46.4">Update derivatives </tspan><tspan x="51.6611328125" y="60.8">trade</tspan></text></g><g class="djs-visual" id="Event_0fvj2tl" transform="translate(2 1462)"><circle cx="18" cy="18" r="18" style="stroke: black; stroke-width: 4px; fill: white; fill-opacity: 0.95;"></circle></g><g class="djs-visual" id="Event_0fvj2tl_label" transform="translate(-21 1505)"><text lineHeight="1.2" class="djs-label" style="font-family: Arial, sans-serif; font-size: 11px; font-weight: normal; fill: black;"><tspan x="0" y="9.899999999999999">Derivatives trade </tspan><tspan x="1.586181640625" y="23.099999999999998">created for back </tspan><tspan x="28.2265625" y="36.3">office</tspan></text></g><g class="djs-visual" id="TextAnnotation_1ivr42d" transform="translate(150 -30)"><rect x="0" y="0" width="190" height="30" rx="0" ry="0" style="stroke: none; stroke-width: 2px; fill: none;"></rect><path d="m 0, 0 m 10,0 l -10,0 l 0,30 l 10,0" style="fill: none; stroke-width: 2px; stroke: black;"></path><text lineHeight="1.2" class="djs-label" style="font-family: Arial, sans-serif; font-size: 12px; font-weight: normal; fill: black;"><tspan x="5" y="15.799999999999999">Received via Phone, Fax etc.</tspan></text></g><g class="djs-visual" id="TextAnnotation_1eg8b58" transform="translate(150 130)"><rect x="0" y="0" width="100" height="70" rx="0" ry="0" style="stroke: none; stroke-width: 2px; fill: none;"></rect><path d="m 0, 0 m 10,0 l -10,0 l 0,70 l 10,0" style="fill: none; stroke-width: 2px; stroke: black;"></path><text lineHeight="1.2" class="djs-label" style="font-family: Arial, sans-serif; font-size: 12px; font-weight: normal; fill: black;"><tspan x="5" y="15.799999999999999">- Broker Price</tspan><tspan x="5" y="30.199999999999996">- Quantity</tspan><tspan x="5" y="44.599999999999994">- Charges</tspan><tspan x="5" y="58.99999999999999">- Allocation</tspan></text></g><g class="djs-visual" id="Flow_0zcngpj_label" transform="translate(32 -33)"><text lineHeight="1.2" class="djs-label" style="font-family: Arial, sans-serif; font-size: 11px; font-weight: normal; fill: black;"><tspan x="0" y="9.899999999999999">Order accepted</tspan></text></g><g class="djs-visual" id="Flow_1z0wobh_label" transform="translate(40 423)"><text lineHeight="1.2" class="djs-label" style="font-family: Arial, sans-serif; font-size: 11px; font-weight: normal; fill: black;"><tspan x="0" y="9.899999999999999">Order fully executed</tspan></text></g><g class="djs-visual" id="Flow_16ynhvs_label" transform="translate(447 423)"><text lineHeight="1.2" class="djs-label" style="font-family: Arial, sans-serif; font-size: 11px; font-weight: normal; fill: black;"><tspan x="0" y="9.899999999999999">Order only partially </tspan><tspan x="24.078369140625" y="23.099999999999998">executed</tspan></text></g><g class="djs-visual" id="Flow_0jrvlmp_label" transform="translate(30 636)"><text lineHeight="1.2" class="djs-label" style="font-family: Arial, sans-serif; font-size: 11px; font-weight: normal; fill: black;"><tspan x="0" y="9.899999999999999">Order details </tspan><tspan x="11.8525390625" y="23.099999999999998">updated</tspan></text></g><g class="djs-visual" id="Flow_13wfpcg_label" transform="translate(275 813)"><text lineHeight="1.2" class="djs-label" style="font-family: Arial, sans-serif; font-size: 11px; font-weight: normal; fill: black;"><tspan x="0" y="9.899999999999999">Order partially </tspan><tspan x="12.460693359375" y="23.099999999999998">executed</tspan></text></g><g class="djs-visual" id="Flow_0z45tu4_label" transform="translate(493 860)"><text lineHeight="1.2" class="djs-label" style="font-family: Arial, sans-serif; font-size: 11px; font-weight: normal; fill: black;"><tspan x="0" y="9.899999999999999">Remaining quantity </tspan><tspan x="11.7470703125" y="23.099999999999998">to be executed </tspan><tspan x="27.4501953125" y="36.3">updated</tspan></text></g><g class="djs-visual" id="Association_1yjm8si" transform="translate(0 0)"><polyline points="85,23 150,-15 " style="fill: none; stroke: black; stroke-width: 2px; stroke-dasharray: 0.5, 5; stroke-linecap: round; stroke-linejoin: round;"></polyline></g><g class="djs-visual" id="Association_0ng6vxh" transform="translate(0 0)"><polyline points="85,190 150,150 " style="fill: none; stroke: black; stroke-width: 2px; stroke-dasharray: 0.5, 5; stroke-linecap: round; stroke-linejoin: round;"></polyline></g></g><g><rect class="viewport" x="-2565.914191419142" y="-629.1947194719472" width="5726.072607260726" height="2178.2178217821784"></rect></g></svg>