<svg width="100%" height="100%" viewBox="-50, -226, 1835, 2784"><g><g class="djs-visual" id="Flow_1lgtpjq" transform="translate(0 0)"><path d="m  210,1300L210,1350 " style="fill: none; stroke-width: 2px; stroke: black; stroke-linejoin: round; marker-end: url(&quot;#sequenceflow-end-white-black-akagyzkme15u9coswapz44ak9&quot;);"></path></g><g class="djs-visual" id="Flow_0i6ycjq" transform="translate(0 0)"><path d="m  210,2370L210,2432 " style="fill: none; stroke-width: 2px; stroke: black; stroke-linejoin: round; marker-end: url(&quot;#sequenceflow-end-white-black-akagyzkme15u9coswapz44ak9&quot;);"></path></g><g class="djs-visual" id="Flow_0fmz5kx" transform="translate(0 0)"><path d="m  210,2190L210,2270 " style="fill: none; stroke-width: 2px; stroke: black; stroke-linejoin: round; marker-end: url(&quot;#sequenceflow-end-white-black-akagyzkme15u9coswapz44ak9&quot;);"></path></g><g class="djs-visual" id="Flow_0kf9j2m" transform="translate(0 0)"><path d="m  210,2020L210,2090 " style="fill: none; stroke-width: 2px; stroke: black; stroke-linejoin: round; marker-end: url(&quot;#sequenceflow-end-white-black-akagyzkme15u9coswapz44ak9&quot;);"></path></g><g class="djs-visual" id="Flow_1hhqz4q" transform="translate(0 0)"><path d="m  210,1850L210,1920 " style="fill: none; stroke-width: 2px; stroke: black; stroke-linejoin: round; marker-end: url(&quot;#sequenceflow-end-white-black-akagyzkme15u9coswapz44ak9&quot;);"></path></g><g class="djs-visual" id="Flow_183anfs" transform="translate(0 0)"><path d="m  235,1670L620,1670 L620,1120 L235,1120 " style="fill: none; stroke-width: 2px; stroke: black; stroke-linejoin: round; marker-end: url(&quot;#sequenceflow-end-white-black-akagyzkme15u9coswapz44ak9&quot;);"></path></g><g class="djs-visual" id="Flow_0awdhvj" transform="translate(0 0)"><path d="m  210,1695L210,1750 " style="fill: none; stroke-width: 2px; stroke: black; stroke-linejoin: round; marker-end: url(&quot;#sequenceflow-end-white-black-akagyzkme15u9coswapz44ak9&quot;);"></path></g><g class="djs-visual" id="Flow_1x2axfi" transform="translate(0 0)"><path d="m  210,1600L210,1645 " style="fill: none; stroke-width: 2px; stroke: black; stroke-linejoin: round; marker-end: url(&quot;#sequenceflow-end-white-black-akagyzkme15u9coswapz44ak9&quot;);"></path></g><g class="djs-visual" id="Flow_1ueeie9" transform="translate(0 0)"><path d="m  210,1450L210,1500 " style="fill: none; stroke-width: 2px; stroke: black; stroke-linejoin: round; marker-end: url(&quot;#sequenceflow-end-white-black-akagyzkme15u9coswapz44ak9&quot;);"></path></g><g class="djs-visual" id="Flow_19l9pjb" transform="translate(0 0)"><path d="m  210,1145L210,1200 " style="fill: none; stroke-width: 2px; stroke: black; stroke-linejoin: round; marker-end: url(&quot;#sequenceflow-end-white-black-akagyzkme15u9coswapz44ak9&quot;);"></path></g><g class="djs-visual" id="Flow_0wygs45" transform="translate(0 0)"><path d="m  210,1040L210,1095 " style="fill: none; stroke-width: 2px; stroke: black; stroke-linejoin: round; marker-end: url(&quot;#sequenceflow-end-white-black-akagyzkme15u9coswapz44ak9&quot;);"></path></g><g class="djs-visual" id="Flow_0ab9vko" transform="translate(0 0)"><path d="m  210,940L210,840 L610,840 L610,50 L235,50 " style="fill: none; stroke-width: 2px; stroke: black; stroke-linejoin: round; marker-end: url(&quot;#sequenceflow-end-white-black-akagyzkme15u9coswapz44ak9&quot;);"></path></g><g class="djs-visual" id="Flow_1rkd5rd" transform="translate(0 0)"><path d="m  210,865L210,940 " style="fill: none; stroke-width: 2px; stroke: black; stroke-linejoin: round; marker-end: url(&quot;#sequenceflow-end-white-black-akagyzkme15u9coswapz44ak9&quot;);"></path></g><g class="djs-visual" id="Flow_0vj2xws" transform="translate(0 0)"><path d="m  210,750L210,815 " style="fill: none; stroke-width: 2px; stroke: black; stroke-linejoin: round; marker-end: url(&quot;#sequenceflow-end-white-black-akagyzkme15u9coswapz44ak9&quot;);"></path></g><g class="djs-visual" id="Flow_0vwden0" transform="translate(0 0)"><path d="m  210,580L210,650 " style="fill: none; stroke-width: 2px; stroke: black; stroke-linejoin: round; marker-end: url(&quot;#sequenceflow-end-white-black-akagyzkme15u9coswapz44ak9&quot;);"></path></g><g class="djs-visual" id="Flow_1hhyp82" transform="translate(0 0)"><path d="m  210,410L210,480 " style="fill: none; stroke-width: 2px; stroke: black; stroke-linejoin: round; marker-end: url(&quot;#sequenceflow-end-white-black-akagyzkme15u9coswapz44ak9&quot;);"></path></g><g class="djs-visual" id="Flow_0p0pjj8" transform="translate(0 0)"><path d="m  210,240L210,310 " style="fill: none; stroke-width: 2px; stroke: black; stroke-linejoin: round; marker-end: url(&quot;#sequenceflow-end-white-black-akagyzkme15u9coswapz44ak9&quot;);"></path></g><g class="djs-visual" id="Flow_1uppojb" transform="translate(0 0)"><path d="m  210,75L210,140 " style="fill: none; stroke-width: 2px; stroke: black; stroke-linejoin: round; marker-end: url(&quot;#sequenceflow-end-white-black-akagyzkme15u9coswapz44ak9&quot;);"></path></g><g class="djs-visual" id="Flow_0d0fd80" transform="translate(0 0)"><path d="m  210,-42L210,25 " style="fill: none; stroke-width: 2px; stroke: black; stroke-linejoin: round; marker-end: url(&quot;#sequenceflow-end-white-black-akagyzkme15u9coswapz44ak9&quot;);"></path></g><g class="djs-visual" id="StartEvent_1bm324f" transform="translate(192 -78)"><circle cx="18" cy="18" r="18" style="stroke: black; stroke-width: 2px; fill: white; fill-opacity: 0.95;"></circle></g><g class="djs-visual" id="StartEvent_1bm324f_label" transform="translate(167 -170)"><text lineHeight="1.2" class="djs-label" style="font-family: Arial, sans-serif; font-size: 11px; font-weight: normal; fill: black;"><tspan x="8.40234375" y="9.899999999999999">Distribution of </tspan><tspan x="16.5078125" y="23.099999999999998">profit to be </tspan><tspan x="11.3125" y="36.3">performed to </tspan><tspan x="9.78125" y="49.5">accounts and </tspan><tspan x="0" y="62.7">deposits linked to </tspan><tspan x="31.2138671875" y="75.9">Pool</tspan></text></g><g class="djs-visual" id="Gateway_0a3gr7a" transform="translate(185 25)"><polygon points="25,0 50,25 25,50 0,25" style="stroke: black; stroke-width: 2px; fill: white; fill-opacity: 0.95;"></polygon><path d="m 16,15 7.42857142857143,9.714285714285715 -7.42857142857143,9.714285714285715 3.428571428571429,0 5.714285714285715,-7.464228571428572 5.714285714285715,7.464228571428572 3.428571428571429,0 -7.42857142857143,-9.714285714285715 7.42857142857143,-9.714285714285715 -3.428571428571429,0 -5.714285714285715,7.464228571428572 -5.714285714285715,-7.464228571428572 -3.428571428571429,0 z" style="fill: black; stroke-width: 1px; stroke: black;"></path></g><g class="djs-visual" id="Activity_06yhssh" transform="translate(145 140)"><rect x="0" y="0" width="130" height="100" rx="10" ry="10" style="stroke: black; stroke-width: 2px; fill: white; fill-opacity: 0.95;"></rect><text lineHeight="1.2" class="djs-label" style="font-family: Arial, sans-serif; font-size: 12px; font-weight: normal; fill: black;"><tspan x="15.47265625" y="46.4">Capture details for </tspan><tspan x="28.8251953125" y="60.8">PMsimulation</tspan></text></g><g class="djs-visual" id="Activity_188zhby" transform="translate(145 310)"><rect x="0" y="0" width="130" height="100" rx="10" ry="10" style="stroke: black; stroke-width: 2px; fill: white; fill-opacity: 0.95;"></rect><text lineHeight="1.2" class="djs-label" style="font-family: Arial, sans-serif; font-size: 12px; font-weight: normal; fill: black;"><tspan x="21.140625" y="53.599999999999994">Authorise details</tspan></text></g><g class="djs-visual" id="Activity_00br5gc" transform="translate(145 480)"><rect x="0" y="0" width="130" height="100" rx="10" ry="10" style="stroke: black; stroke-width: 2px; fill: white; fill-opacity: 0.95;"></rect><text lineHeight="1.2" class="djs-label" style="font-family: Arial, sans-serif; font-size: 12px; font-weight: normal; fill: black;"><tspan x="43.65625" y="46.4">Perform </tspan><tspan x="27.8232421875" y="60.8">PMSimulation</tspan></text></g><g class="djs-visual" id="Activity_1wu45f9" transform="translate(145 650)"><rect x="0" y="0" width="130" height="100" rx="10" ry="10" style="stroke: black; stroke-width: 2px; fill: white; fill-opacity: 0.95;"></rect><text lineHeight="1.2" class="djs-label" style="font-family: Arial, sans-serif; font-size: 12px; font-weight: normal; fill: black;"><tspan x="24.5947265625" y="46.4">View simulated </tspan><tspan x="17.3046875" y="60.8">calculation results</tspan></text></g><g class="djs-visual" id="Gateway_0tgabhc" transform="translate(185 815)"><polygon points="25,0 50,25 25,50 0,25" style="stroke: black; stroke-width: 2px; fill: white; fill-opacity: 0.95;"></polygon><path d="m 16,15 7.42857142857143,9.714285714285715 -7.42857142857143,9.714285714285715 3.428571428571429,0 5.714285714285715,-7.464228571428572 5.714285714285715,7.464228571428572 3.428571428571429,0 -7.42857142857143,-9.714285714285715 7.42857142857143,-9.714285714285715 -3.428571428571429,0 -5.714285714285715,7.464228571428572 -5.714285714285715,-7.464228571428572 -3.428571428571429,0 z" style="fill: black; stroke-width: 1px; stroke: black;"></path></g><g class="djs-visual" id="Activity_10bmcp3" transform="translate(145 940)"><rect x="0" y="0" width="130" height="100" rx="10" ry="10" style="stroke: black; stroke-width: 2px; fill: white; fill-opacity: 0.95;"></rect><text lineHeight="1.2" class="djs-label" style="font-family: Arial, sans-serif; font-size: 12px; font-weight: normal; fill: black;"><tspan x="20.9794921875" y="46.4">Initiate PMtarget </tspan><tspan x="19.4736328125" y="60.8">profit rate update</tspan></text></g><g class="djs-visual" id="Gateway_0tw516w" transform="translate(185 1095)"><polygon points="25,0 50,25 25,50 0,25" style="stroke: black; stroke-width: 2px; fill: white; fill-opacity: 0.95;"></polygon><path d="m 16,15 7.42857142857143,9.714285714285715 -7.42857142857143,9.714285714285715 3.428571428571429,0 5.714285714285715,-7.464228571428572 5.714285714285715,7.464228571428572 3.428571428571429,0 -7.42857142857143,-9.714285714285715 7.42857142857143,-9.714285714285715 -3.428571428571429,0 -5.714285714285715,7.464228571428572 -5.714285714285715,-7.464228571428572 -3.428571428571429,0 z" style="fill: black; stroke-width: 1px; stroke: black;"></path></g><g class="djs-visual" id="Activity_045ge2e" transform="translate(145 1350)"><rect x="0" y="0" width="130" height="100" rx="10" ry="10" style="stroke: black; stroke-width: 2px; fill: white; fill-opacity: 0.95;"></rect><text lineHeight="1.2" class="djs-label" style="font-family: Arial, sans-serif; font-size: 12px; font-weight: normal; fill: black;"><tspan x="11.314453125" y="46.4">Perform target profit </tspan><tspan x="34.4794921875" y="60.8">rate update</tspan></text></g><g class="djs-visual" id="Activity_006x7h3" transform="translate(145 1500)"><rect x="0" y="0" width="130" height="100" rx="10" ry="10" style="stroke: black; stroke-width: 2px; fill: white; fill-opacity: 0.95;"></rect><text lineHeight="1.2" class="djs-label" style="font-family: Arial, sans-serif; font-size: 12px; font-weight: normal; fill: black;"><tspan x="17.9208984375" y="46.4">View recalculated </tspan><tspan x="18.6484375" y="60.8">simulation results</tspan></text></g><g class="djs-visual" id="Gateway_0566wa0" transform="translate(185 1645)"><polygon points="25,0 50,25 25,50 0,25" style="stroke: black; stroke-width: 2px; fill: white; fill-opacity: 0.95;"></polygon><path d="m 16,15 7.42857142857143,9.714285714285715 -7.42857142857143,9.714285714285715 3.428571428571429,0 5.714285714285715,-7.464228571428572 5.714285714285715,7.464228571428572 3.428571428571429,0 -7.42857142857143,-9.714285714285715 7.42857142857143,-9.714285714285715 -3.428571428571429,0 -5.714285714285715,7.464228571428572 -5.714285714285715,-7.464228571428572 -3.428571428571429,0 z" style="fill: black; stroke-width: 1px; stroke: black;"></path></g><g class="djs-visual" id="Activity_1fi3ytk" transform="translate(145 1750)"><rect x="0" y="0" width="130" height="100" rx="10" ry="10" style="stroke: black; stroke-width: 2px; fill: white; fill-opacity: 0.95;"></rect><text lineHeight="1.2" class="djs-label" style="font-family: Arial, sans-serif; font-size: 12px; font-weight: normal; fill: black;"><tspan x="16.4765625" y="53.599999999999994">Initiate distribution</tspan></text></g><g class="djs-visual" id="Activity_1dgppu1" transform="translate(145 1920)"><rect x="0" y="0" width="130" height="100" rx="10" ry="10" style="stroke: black; stroke-width: 2px; fill: white; fill-opacity: 0.95;"></rect><text lineHeight="1.2" class="djs-label" style="font-family: Arial, sans-serif; font-size: 12px; font-weight: normal; fill: black;"><tspan x="9.306640625" y="53.599999999999994">Authorise distribution</tspan></text></g><g class="djs-visual" id="Activity_1s929kb" transform="translate(145 2090)"><rect x="0" y="0" width="130" height="100" rx="10" ry="10" style="stroke: black; stroke-width: 2px; fill: white; fill-opacity: 0.95;"></rect><text lineHeight="1.2" class="djs-label" style="font-family: Arial, sans-serif; font-size: 12px; font-weight: normal; fill: black;"><tspan x="12.8173828125" y="53.599999999999994">Perform distribution</tspan></text></g><g class="djs-visual" id="Activity_04et2ev" transform="translate(145 2270)"><rect x="0" y="0" width="130" height="100" rx="10" ry="10" style="stroke: black; stroke-width: 2px; fill: white; fill-opacity: 0.95;"></rect><text lineHeight="1.2" class="djs-label" style="font-family: Arial, sans-serif; font-size: 12px; font-weight: normal; fill: black;"><tspan x="9.1318359375" y="46.4">Generate accounting </tspan><tspan x="46.984375" y="60.8">entries</tspan></text></g><g class="djs-visual" id="Event_0i9qfwh" transform="translate(192 2432)"><circle cx="18" cy="18" r="18" style="stroke: black; stroke-width: 4px; fill: white; fill-opacity: 0.95;"></circle></g><g class="djs-visual" id="Event_0i9qfwh_label" transform="translate(169 2475)"><text lineHeight="1.2" class="djs-label" style="font-family: Arial, sans-serif; font-size: 11px; font-weight: normal; fill: black;"><tspan x="0" y="9.899999999999999">Profit distribution</tspan><tspan x="15.5859375" y="23.099999999999998">completed</tspan></text></g><g class="djs-visual" id="Activity_1tufm02" transform="translate(145 1200)"><rect x="0" y="0" width="130" height="100" rx="10" ry="10" style="stroke: black; stroke-width: 2px; fill: white; fill-opacity: 0.95;"></rect><text lineHeight="1.2" class="djs-label" style="font-family: Arial, sans-serif; font-size: 12px; font-weight: normal; fill: black;"><tspan x="8.484375" y="46.4">Modify PMSimulation </tspan><tspan x="47.328125" y="60.8">results</tspan></text></g><g class="djs-visual" id="TextAnnotation_16fufh7" transform="translate(325 130)"><rect x="0" y="0" width="235" height="80" rx="0" ry="0" style="stroke: none; stroke-width: 2px; fill: none;"></rect><path d="m 0, 0 m 10,0 l -10,0 l 0,80 l 10,0" style="fill: none; stroke-width: 2px; stroke: black;"></path><text lineHeight="1.2" class="djs-label" style="font-family: Arial, sans-serif; font-size: 12px; font-weight: normal; fill: black;"><tspan x="5" y="15.799999999999999">- Pool ID (Up to 13 characters)</tspan><tspan x="5" y="30.199999999999996">- Action = "PMSimulation"</tspan><tspan x="5" y="44.599999999999994">- Start date</tspan><tspan x="5" y="58.99999999999999">- End date</tspan><tspan x="5" y="73.39999999999999">- Capture PER%, Mudarib share, IRR%</tspan></text></g><g class="djs-visual" id="TextAnnotation_0qefy9l" transform="translate(330 460)"><rect x="0" y="0" width="200" height="74" rx="0" ry="0" style="stroke: none; stroke-width: 2px; fill: none;"></rect><path d="m 0, 0 m 10,0 l -10,0 l 0,74 l 10,0" style="fill: none; stroke-width: 2px; stroke: black;"></path><text lineHeight="1.2" class="djs-label" style="font-family: Arial, sans-serif; font-size: 12px; font-weight: normal; fill: black;"><tspan x="5" y="15.799999999999999">Initiate TSA services for simulation</tspan><tspan x="5" y="30.199999999999996">- ID.PROFIT.CALCULATION&nbsp; &nbsp; &nbsp; &nbsp; &nbsp; &nbsp; </tspan><tspan x="5" y="44.599999999999994">- ID.POOL.BALANCES&nbsp; &nbsp; &nbsp; &nbsp; &nbsp; &nbsp; &nbsp; &nbsp; </tspan><tspan x="5" y="58.99999999999999">- ID.SIMULATION.CALC</tspan></text></g><g class="djs-visual" id="TextAnnotation_1yq5kqh" transform="translate(310 1340)"><rect x="0" y="0" width="210" height="50" rx="0" ry="0" style="stroke: none; stroke-width: 2px; fill: none;"></rect><path d="m 0, 0 m 10,0 l -10,0 l 0,50 l 10,0" style="fill: none; stroke-width: 2px; stroke: black;"></path><text lineHeight="1.2" class="djs-label" style="font-family: Arial, sans-serif; font-size: 12px; font-weight: normal; fill: black;"><tspan x="5" y="15.799999999999999">Initiate TSA services </tspan><tspan x="5" y="30.199999999999996">ID.TARGET.UPDATE for target </tspan><tspan x="5" y="44.599999999999994">updation</tspan></text></g><g class="djs-visual" id="TextAnnotation_1duxk3n" transform="translate(320 2240)"><rect x="0" y="0" width="470" height="185" rx="0" ry="0" style="stroke: none; stroke-width: 2px; fill: none;"></rect><path d="m 0, 0 m 10,0 l -10,0 l 0,185 l 10,0" style="fill: none; stroke-width: 2px; stroke: black;"></path><text lineHeight="1.2" class="djs-label" style="font-family: Arial, sans-serif; font-size: 12px; font-weight: normal; fill: black;"><tspan x="5" y="15.799999999999999">If the funds are moved to PER/ IRR reserve accounts</tspan><tspan x="5" y="30.199999999999996">DR Profit &amp; Loss account (Profit expenses)</tspan><tspan x="5" y="44.599999999999994">CR Profit reserve Account (IRR/ PER)</tspan><tspan x="5" y="58.99999999999999">If the funds are moved from PER/ IRR reserve accounts</tspan><tspan x="5" y="73.39999999999999">DR Profit reserve Account (IRR/ PER)</tspan><tspan x="5" y="87.79999999999998">CR Profit &amp; Loss account (Profit expenses)</tspan><tspan x="5" y="102.19999999999999">For HIBA Payment,</tspan><tspan x="5" y="116.6">DR HIBA Expenses PL Category</tspan><tspan x="5" y="131">CR Profit &amp; Loss account (Profit expenses)</tspan><tspan x="5" y="145.4">For Mudarib share,</tspan><tspan x="5" y="159.8">DR Profit &amp; Loss account (Profit expenses)</tspan><tspan x="5" y="174.20000000000002">CR Mudarib share account</tspan></text></g><g class="djs-visual" id="TextAnnotation_14c89rz" transform="translate(320 2050)"><rect x="0" y="0" width="260" height="50" rx="0" ry="0" style="stroke: none; stroke-width: 2px; fill: none;"></rect><path d="m 0, 0 m 10,0 l -10,0 l 0,50 l 10,0" style="fill: none; stroke-width: 2px; stroke: black;"></path><text lineHeight="1.2" class="djs-label" style="font-family: Arial, sans-serif; font-size: 12px; font-weight: normal; fill: black;"><tspan x="5" y="15.799999999999999">Initiate TSA services </tspan><tspan x="5" y="30.199999999999996">ID.PROFIT.DISTRIBUTION for Profit </tspan><tspan x="5" y="44.599999999999994">Distribution</tspan></text></g><g class="djs-visual" id="TextAnnotation_0x2cub7" transform="translate(320 940)"><rect x="0" y="0" width="165" height="30" rx="0" ry="0" style="stroke: none; stroke-width: 2px; fill: none;"></rect><path d="m 0, 0 m 10,0 l -10,0 l 0,30 l 10,0" style="fill: none; stroke-width: 2px; stroke: black;"></path><text lineHeight="1.2" class="djs-label" style="font-family: Arial, sans-serif; font-size: 12px; font-weight: normal; fill: black;"><tspan x="5" y="15.799999999999999">Action 'PMTargetUpdate'</tspan></text></g><g class="djs-visual" id="TextAnnotation_1csplpd" transform="translate(310 1200)"><rect x="0" y="0" width="280" height="84" rx="0" ry="0" style="stroke: none; stroke-width: 2px; fill: none;"></rect><path d="m 0, 0 m 10,0 l -10,0 l 0,84 l 10,0" style="fill: none; stroke-width: 2px; stroke: black;"></path><text lineHeight="1.2" class="djs-label" style="font-family: Arial, sans-serif; font-size: 12px; font-weight: normal; fill: black;"><tspan x="5" y="15.799999999999999">By adding amounts from the reserves</tspan><tspan x="5" y="30.199999999999996">- Action = 'PMTarget rate update'</tspan><tspan x="5" y="44.599999999999994">- Utilise funds from 'PER Account', 'IRR Account'</tspan><tspan x="5" y="58.99999999999999">- Add additional profit as 'HIBA %'</tspan><tspan x="5" y="73.39999999999999">- Capture 'Expenses from Closed Accounts'</tspan></text></g><g class="djs-visual" id="TextAnnotation_0sle34e" transform="translate(325 1760)"><rect x="0" y="0" width="135" height="30" rx="0" ry="0" style="stroke: none; stroke-width: 2px; fill: none;"></rect><path d="m 0, 0 m 10,0 l -10,0 l 0,30 l 10,0" style="fill: none; stroke-width: 2px; stroke: black;"></path><text lineHeight="1.2" class="djs-label" style="font-family: Arial, sans-serif; font-size: 12px; font-weight: normal; fill: black;"><tspan x="5" y="15.799999999999999">Action = 'Distribution'</tspan></text></g><g class="djs-visual" id="Flow_1rkd5rd_label" transform="translate(221 880)"><text lineHeight="1.2" class="djs-label" style="font-family: Arial, sans-serif; font-size: 11px; font-weight: normal; fill: black;"><tspan x="0.70458984375" y="9.899999999999999">Confirm profit </tspan><tspan x="0" y="23.099999999999998">distribution as </tspan><tspan x="10.6455078125" y="36.3">simulated</tspan></text></g><g class="djs-visual" id="Flow_0ab9vko_label" transform="translate(278 796)"><text lineHeight="1.2" class="djs-label" style="font-family: Arial, sans-serif; font-size: 11px; font-weight: normal; fill: black;"><tspan x="0" y="9.899999999999999">Resimulation </tspan><tspan x="11.6171875" y="23.099999999999998">required</tspan></text></g><g class="djs-visual" id="Flow_0awdhvj_label" transform="translate(223 1706)"><text lineHeight="1.2" class="djs-label" style="font-family: Arial, sans-serif; font-size: 11px; font-weight: normal; fill: black;"><tspan x="0" y="9.899999999999999">Proceed with profit </tspan><tspan x="19.419921875" y="23.099999999999998">distribution</tspan></text></g><g class="djs-visual" id="Flow_183anfs_label" transform="translate(286 1633)"><text lineHeight="1.2" class="djs-label" style="font-family: Arial, sans-serif; font-size: 11px; font-weight: normal; fill: black;"><tspan x="0" y="9.899999999999999">Re-perform target </tspan><tspan x="27.047607421875" y="23.099999999999998">update</tspan></text></g><g class="djs-visual" id="Association_1qdr1yo" transform="translate(0 0)"><polyline points="275,170 325,155 " style="fill: none; stroke: black; stroke-width: 2px; stroke-dasharray: 0.5, 5; stroke-linecap: round; stroke-linejoin: round;"></polyline></g><g class="djs-visual" id="Association_0kfiqfa" transform="translate(0 0)"><polyline points="275,504 330,481 " style="fill: none; stroke: black; stroke-width: 2px; stroke-dasharray: 0.5, 5; stroke-linecap: round; stroke-linejoin: round;"></polyline></g><g class="djs-visual" id="Association_1e4mvij" transform="translate(0 0)"><polyline points="275,1368 310,1350 " style="fill: none; stroke: black; stroke-width: 2px; stroke-dasharray: 0.5, 5; stroke-linecap: round; stroke-linejoin: round;"></polyline></g><g class="djs-visual" id="Association_0nw4vvn" transform="translate(0 0)"><polyline points="275,2303 320,2291 " style="fill: none; stroke: black; stroke-width: 2px; stroke-dasharray: 0.5, 5; stroke-linecap: round; stroke-linejoin: round;"></polyline></g><g class="djs-visual" id="Association_140ipbi" transform="translate(0 0)"><polyline points="275,2103 320,2079 " style="fill: none; stroke: black; stroke-width: 2px; stroke-dasharray: 0.5, 5; stroke-linecap: round; stroke-linejoin: round;"></polyline></g><g class="djs-visual" id="Association_01ezc5z" transform="translate(0 0)"><polyline points="275,974 320,964 " style="fill: none; stroke: black; stroke-width: 2px; stroke-dasharray: 0.5, 5; stroke-linecap: round; stroke-linejoin: round;"></polyline></g><g class="djs-visual" id="Association_17ubd0h" transform="translate(0 0)"><polyline points="275,1235 310,1227 " style="fill: none; stroke: black; stroke-width: 2px; stroke-dasharray: 0.5, 5; stroke-linecap: round; stroke-linejoin: round;"></polyline></g><g class="djs-visual" id="Association_08yl1gh" transform="translate(0 0)"><polyline points="275,1790 325,1783 " style="fill: none; stroke: black; stroke-width: 2px; stroke-dasharray: 0.5, 5; stroke-linecap: round; stroke-linejoin: round;"></polyline></g></g><g><rect class="viewport" x="-3059.1097560975613" y="-175.9308943089431" width="7052.845528455285" height="2682.9268292682927"></rect></g></svg>