<svg width="100%" height="100%" viewBox="-72, -5163, 1835, 2375"><g><g class="djs-visual" id="Flow_1gr41tl" transform="translate(0 0)"><path d="m  172,-3700L172,-3650 " style="fill: none; stroke-width: 2px; stroke: black; stroke-linejoin: round; marker-end: url(&quot;#sequenceflow-end-white-black-a2fqb1ayki71c243jtuym0vjc&quot;);"></path></g><g class="djs-visual" id="Flow_1w93r1q" transform="translate(0 0)"><path d="m  172,-4840L172,-4770 " style="fill: none; stroke-width: 2px; stroke: black; stroke-linejoin: round; marker-end: url(&quot;#sequenceflow-end-white-black-a2fqb1ayki71c243jtuym0vjc&quot;);"></path></g><g class="djs-visual" id="Flow_0jvoauv" transform="translate(0 0)"><path d="m  540,-3950L540,-3890 L197,-3890 " style="fill: none; stroke-width: 2px; stroke: black; stroke-linejoin: round; marker-end: url(&quot;#sequenceflow-end-white-black-a2fqb1ayki71c243jtuym0vjc&quot;);"></path></g><g class="djs-visual" id="Flow_0jm799f" transform="translate(0 0)"><path d="m  172,-3865L172,-3800 " style="fill: none; stroke-width: 2px; stroke: black; stroke-linejoin: round; marker-end: url(&quot;#sequenceflow-end-white-black-a2fqb1ayki71c243jtuym0vjc&quot;);"></path></g><g class="djs-visual" id="Flow_01qxqwc" transform="translate(0 0)"><path d="m  197,-4130L540,-4130 L540,-4050 " style="fill: none; stroke-width: 2px; stroke: black; stroke-linejoin: round; marker-end: url(&quot;#sequenceflow-end-white-black-a2fqb1ayki71c243jtuym0vjc&quot;);"></path></g><g class="djs-visual" id="Flow_1xi7pvz" transform="translate(0 0)"><path d="m  172,-3950L172,-3915 " style="fill: none; stroke-width: 2px; stroke: black; stroke-linejoin: round; marker-end: url(&quot;#sequenceflow-end-white-black-a2fqb1ayki71c243jtuym0vjc&quot;);"></path></g><g class="djs-visual" id="Flow_1ayihb3" transform="translate(0 0)"><path d="m  172,-4105L172,-4050 " style="fill: none; stroke-width: 2px; stroke: black; stroke-linejoin: round; marker-end: url(&quot;#sequenceflow-end-white-black-a2fqb1ayki71c243jtuym0vjc&quot;);"></path></g><g class="djs-visual" id="Flow_0uc2lc4" transform="translate(0 0)"><path d="m  172,-3140L172,-3090 " style="fill: none; stroke-width: 2px; stroke: black; stroke-linejoin: round; marker-end: url(&quot;#sequenceflow-end-white-black-a2fqb1ayki71c243jtuym0vjc&quot;);"></path></g><g class="djs-visual" id="Flow_08gka1u" transform="translate(0 0)"><path d="m  460,-3290L460,-3254 " style="fill: none; stroke-width: 2px; stroke: black; stroke-linejoin: round; marker-end: url(&quot;#sequenceflow-end-white-black-a2fqb1ayki71c243jtuym0vjc&quot;);"></path></g><g class="djs-visual" id="Flow_0wf8r7i" transform="translate(0 0)"><path d="m  172,-3550L172,-3495 " style="fill: none; stroke-width: 2px; stroke: black; stroke-linejoin: round; marker-end: url(&quot;#sequenceflow-end-white-black-a2fqb1ayki71c243jtuym0vjc&quot;);"></path></g><g class="djs-visual" id="Flow_1eblst5" transform="translate(0 0)"><path d="m  172,-4200L172,-4155 " style="fill: none; stroke-width: 2px; stroke: black; stroke-linejoin: round; marker-end: url(&quot;#sequenceflow-end-white-black-a2fqb1ayki71c243jtuym0vjc&quot;);"></path></g><g class="djs-visual" id="Flow_0yu4ja3" transform="translate(0 0)"><path d="m  172,-4500L172,-4450 " style="fill: none; stroke-width: 2px; stroke: black; stroke-linejoin: round; marker-end: url(&quot;#sequenceflow-end-white-black-a2fqb1ayki71c243jtuym0vjc&quot;);"></path></g><g class="djs-visual" id="Flow_0twv23x" transform="translate(0 0)"><path d="m  172,-3290L172,-3240 " style="fill: none; stroke-width: 2px; stroke: black; stroke-linejoin: round; marker-end: url(&quot;#sequenceflow-end-white-black-a2fqb1ayki71c243jtuym0vjc&quot;);"></path></g><g class="djs-visual" id="Flow_057hsh2" transform="translate(0 0)"><path d="m  172,-3445L172,-3390 " style="fill: none; stroke-width: 2px; stroke: black; stroke-linejoin: round; marker-end: url(&quot;#sequenceflow-end-white-black-a2fqb1ayki71c243jtuym0vjc&quot;);"></path></g><g class="djs-visual" id="Flow_04rce8e" transform="translate(0 0)"><path d="m  172,-4350L172,-4300 " style="fill: none; stroke-width: 2px; stroke: black; stroke-linejoin: round; marker-end: url(&quot;#sequenceflow-end-white-black-a2fqb1ayki71c243jtuym0vjc&quot;);"></path></g><g class="djs-visual" id="Flow_0psqgzv" transform="translate(0 0)"><path d="m  172,-4670L172,-4600 " style="fill: none; stroke-width: 2px; stroke: black; stroke-linejoin: round; marker-end: url(&quot;#sequenceflow-end-white-black-a2fqb1ayki71c243jtuym0vjc&quot;);"></path></g><g class="djs-visual" id="Flow_0ya7j25" transform="translate(0 0)"><path d="m  172,-2990L172,-2948 " style="fill: none; stroke-width: 2px; stroke: black; stroke-linejoin: round; marker-end: url(&quot;#sequenceflow-end-white-black-a2fqb1ayki71c243jtuym0vjc&quot;);"></path></g><g class="djs-visual" id="Flow_0jretc8" transform="translate(0 0)"><path d="m  172,-5002L172,-4940 " style="fill: none; stroke-width: 2px; stroke: black; stroke-linejoin: round; marker-end: url(&quot;#sequenceflow-end-white-black-a2fqb1ayki71c243jtuym0vjc&quot;);"></path></g><g class="djs-visual" id="Flow_0vcb63v" transform="translate(0 0)"><path d="m  197,-3470L460,-3470 L460,-3390 " style="fill: none; stroke-width: 2px; stroke: black; stroke-linejoin: round; marker-end: url(&quot;#sequenceflow-end-white-black-a2fqb1ayki71c243jtuym0vjc&quot;);"></path></g><g class="djs-visual" id="Event_0tpantj" transform="translate(154 -2948)"><circle cx="18" cy="18" r="18" style="stroke: black; stroke-width: 4px; fill: white; fill-opacity: 0.95;"></circle></g><g class="djs-visual" id="Event_0tpantj_label" transform="translate(131 -2897)"><text lineHeight="1.2" class="djs-label" style="font-family: Arial, sans-serif; font-size: 11px; font-weight: normal; fill: black;"><tspan x="0" y="9.899999999999999">Interest changed </tspan><tspan x="2.713134765625" y="23.099999999999998">successfully for </tspan><tspan x="8.5625" y="36.3">asset finance </tspan><tspan x="9.320068359375" y="49.5">arrangement</tspan></text></g><g class="djs-visual" id="Activity_0b1pth6" transform="translate(107 -3240)"><rect x="0" y="0" width="130" height="100" rx="10" ry="10" style="stroke: black; stroke-width: 2px; fill: white; fill-opacity: 0.95;"></rect><text lineHeight="1.2" class="djs-label" style="font-family: Arial, sans-serif; font-size: 12px; font-weight: normal; fill: black;"><tspan x="11.8037109375" y="46.4">Verify and authorise </tspan><tspan x="17.302734375" y="60.8">change in interest</tspan></text></g><g class="djs-visual" id="Gateway_0sm43jp" transform="translate(147 -3495)"><polygon points="25,0 50,25 25,50 0,25" style="stroke: black; stroke-width: 2px; fill: white; fill-opacity: 0.95;"></polygon><path d="m 16,15 7.42857142857143,9.714285714285715 -7.42857142857143,9.714285714285715 3.428571428571429,0 5.714285714285715,-7.464228571428572 5.714285714285715,7.464228571428572 3.428571428571429,0 -7.42857142857143,-9.714285714285715 7.42857142857143,-9.714285714285715 -3.428571428571429,0 -5.714285714285715,7.464228571428572 -5.714285714285715,-7.464228571428572 -3.428571428571429,0 z" style="fill: black; stroke-width: 1px; stroke: black;"></path></g><g class="djs-visual" id="Activity_0fyacv1" transform="translate(107 -3390)"><rect x="0" y="0" width="130" height="100" rx="10" ry="10" style="stroke: black; stroke-width: 2px; fill: white; fill-opacity: 0.95;"></rect><text lineHeight="1.2" class="djs-label" style="font-family: Arial, sans-serif; font-size: 12px; font-weight: normal; fill: black;"><tspan x="12.4775390625" y="46.4">Move transaction to </tspan><tspan x="12.12890625" y="60.8">authorisation queue</tspan></text></g><g class="djs-visual" id="Event_1sqrm58" transform="translate(442 -3254)"><circle cx="18" cy="18" r="18" style="stroke: black; stroke-width: 4px; fill: white; fill-opacity: 0.95;"></circle></g><g class="djs-visual" id="Event_1sqrm58_label" transform="translate(423 -3210)"><text lineHeight="1.2" class="djs-label" style="font-family: Arial, sans-serif; font-size: 11px; font-weight: normal; fill: black;"><tspan x="0" y="9.899999999999999">Interest change </tspan><tspan x="16.8125" y="23.099999999999998">updation </tspan><tspan x="5.849609375" y="36.3">unsuccessful</tspan></text></g><g class="djs-visual" id="Event_1l5nlpj" transform="translate(154 -5038)"><circle cx="18" cy="18" r="18" style="stroke: black; stroke-width: 2px; fill: white; fill-opacity: 0.95;"></circle></g><g class="djs-visual" id="Event_1l5nlpj_label" transform="translate(128 -5107)"><text lineHeight="1.2" class="djs-label" style="font-family: Arial, sans-serif; font-size: 11px; font-weight: normal; fill: black;"><tspan x="0" y="9.899999999999999">Interest rate to be</tspan><tspan x="6.4140625" y="23.099999999999998">changed for an </tspan><tspan x="10.6953125" y="36.3">asset finance </tspan><tspan x="11.452880859375" y="49.5">arrangement</tspan></text></g><g class="djs-visual" id="Activity_0n81g7c" transform="translate(107 -3090)"><rect x="0" y="0" width="130" height="100" rx="10" ry="10" style="stroke: black; stroke-width: 2px; fill: white; fill-opacity: 0.95;"></rect><text lineHeight="1.2" class="djs-label" style="font-family: Arial, sans-serif; font-size: 12px; font-weight: normal; fill: black;"><tspan x="9.6328125" y="53.599999999999994">Update arrangement</tspan></text></g><g class="djs-visual" id="Activity_1ozv070" transform="translate(107 -4770)"><rect x="0" y="0" width="130" height="100" rx="10" ry="10" style="stroke: black; stroke-width: 2px; fill: white; fill-opacity: 0.95;"></rect><text lineHeight="1.2" class="djs-label" style="font-family: Arial, sans-serif; font-size: 12px; font-weight: normal; fill: black;"><tspan x="30.1494140625" y="46.4">List available </tspan><tspan x="30.6474609375" y="60.8">arrangement</tspan></text></g><g class="djs-visual" id="Activity_1rsiq23" transform="translate(107 -4450)"><rect x="0" y="0" width="130" height="100" rx="10" ry="10" style="stroke: black; stroke-width: 2px; fill: white; fill-opacity: 0.95;"></rect><text lineHeight="1.2" class="djs-label" style="font-family: Arial, sans-serif; font-size: 12px; font-weight: normal; fill: black;"><tspan x="5.306640625" y="53.599999999999994">Arrangement overview</tspan></text></g><g class="djs-visual" id="Activity_0zxqhze" transform="translate(107 -3800)"><rect x="0" y="0" width="130" height="100" rx="10" ry="10" style="stroke: black; stroke-width: 2px; fill: white; fill-opacity: 0.95;"></rect><text lineHeight="1.2" class="djs-label" style="font-family: Arial, sans-serif; font-size: 12px; font-weight: normal; fill: black;"><tspan x="24.5419921875" y="46.4">Trigger interest </tspan><tspan x="46.65625" y="60.8">activity</tspan></text></g><g class="djs-visual" id="Activity_1m2oq1f" transform="translate(107 -4600)"><rect x="0" y="0" width="130" height="100" rx="10" ry="10" style="stroke: black; stroke-width: 2px; fill: white; fill-opacity: 0.95;"></rect><text lineHeight="1.2" class="djs-label" style="font-family: Arial, sans-serif; font-size: 12px; font-weight: normal; fill: black;"><tspan x="12.3046875" y="46.4">Select arrangement </tspan><tspan x="25.3056640625" y="60.8">to be amended</tspan></text></g><g class="djs-visual" id="Activity_0lhfd1o" transform="translate(107 -4300)"><rect x="0" y="0" width="130" height="100" rx="10" ry="10" style="stroke: black; stroke-width: 2px; fill: white; fill-opacity: 0.95;"></rect><text lineHeight="1.2" class="djs-label" style="font-family: Arial, sans-serif; font-size: 12px; font-weight: normal; fill: black;"><tspan x="14.3125" y="53.599999999999994">Select New Activity</tspan></text></g><g class="djs-visual" id="Activity_1kr3dvm" transform="translate(107 -3650)"><rect x="0" y="0" width="130" height="100" rx="10" ry="10" style="stroke: black; stroke-width: 2px; fill: white; fill-opacity: 0.95;"></rect><text lineHeight="1.2" class="djs-label" style="font-family: Arial, sans-serif; font-size: 12px; font-weight: normal; fill: black;"><tspan x="23.7578125" y="53.599999999999994">Validate activity</tspan></text></g><g class="djs-visual" id="Activity_02hlawl" transform="translate(395 -3390)"><rect x="0" y="0" width="130" height="100" rx="10" ry="10" style="stroke: black; stroke-width: 2px; fill: white; fill-opacity: 0.95;"></rect><text lineHeight="1.2" class="djs-label" style="font-family: Arial, sans-serif; font-size: 12px; font-weight: normal; fill: black;"><tspan x="30.490234375" y="53.599999999999994">Display error</tspan></text></g><g class="djs-visual" id="Gateway_0tlp38t" transform="translate(147 -4155)"><polygon points="25,0 50,25 25,50 0,25" style="stroke: black; stroke-width: 2px; fill: white; fill-opacity: 0.95;"></polygon><path d="m 16,15 7.42857142857143,9.714285714285715 -7.42857142857143,9.714285714285715 3.428571428571429,0 5.714285714285715,-7.464228571428572 5.714285714285715,7.464228571428572 3.428571428571429,0 -7.42857142857143,-9.714285714285715 7.42857142857143,-9.714285714285715 -3.428571428571429,0 -5.714285714285715,7.464228571428572 -5.714285714285715,-7.464228571428572 -3.428571428571429,0 z" style="fill: black; stroke-width: 1px; stroke: black;"></path></g><g class="djs-visual" id="Activity_0e5xxkf" transform="translate(107 -4050)"><rect x="0" y="0" width="130" height="100" rx="10" ry="10" style="stroke: black; stroke-width: 2px; fill: white; fill-opacity: 0.95;"></rect><text lineHeight="1.2" class="djs-label" style="font-family: Arial, sans-serif; font-size: 12px; font-weight: normal; fill: black;"><tspan x="8.2412109375" y="53.599999999999994">Update effective date</tspan></text></g><g class="djs-visual" id="Activity_14bsgkq" transform="translate(475 -4050)"><rect x="0" y="0" width="130" height="100" rx="10" ry="10" style="stroke: black; stroke-width: 2px; fill: white; fill-opacity: 0.95;"></rect><text lineHeight="1.2" class="djs-label" style="font-family: Arial, sans-serif; font-size: 12px; font-weight: normal; fill: black;"><tspan x="6.2431640625" y="53.599999999999994">Capture effective date</tspan></text></g><g class="djs-visual" id="Gateway_1jobtp7" transform="translate(147 -3915)"><polygon points="25,0 50,25 25,50 0,25" style="stroke: black; stroke-width: 2px; fill: white; fill-opacity: 0.95;"></polygon><path d="m 16,15 7.42857142857143,9.714285714285715 -7.42857142857143,9.714285714285715 3.428571428571429,0 5.714285714285715,-7.464228571428572 5.714285714285715,7.464228571428572 3.428571428571429,0 -7.42857142857143,-9.714285714285715 7.42857142857143,-9.714285714285715 -3.428571428571429,0 -5.714285714285715,7.464228571428572 -5.714285714285715,-7.464228571428572 -3.428571428571429,0 z" style="fill: black; stroke-width: 1px; stroke: black;"></path></g><g class="djs-visual" id="Activity_1xf5wxo" transform="translate(107 -4940)"><rect x="0" y="0" width="130" height="100" rx="10" ry="10" style="stroke: black; stroke-width: 2px; fill: white; fill-opacity: 0.95;"></rect><text lineHeight="1.2" class="djs-label" style="font-family: Arial, sans-serif; font-size: 12px; font-weight: normal; fill: black;"><tspan x="14.8095703125" y="46.4">Receive request to </tspan><tspan x="11.8037109375" y="60.8">change interest rate</tspan></text></g><g class="djs-visual" id="DataObjectReference_0qgjlry" transform="translate(12 -4915)"><path d="m 0,0 28.23529411764706,0 7.058823529411765,8.196721311475411 0,40.98360655737705 -35.294117647058826,0 0,-49.18032786885246 28.23529411764706,0 0,8.196721311475411 7.058823529411765,0" style="fill: white; stroke-width: 2px; stroke: black; fill-opacity: 0.95;"></path></g><g class="djs-visual" id="DataObjectReference_0qgjlry_label" transform="translate(-16 -4865)"><text lineHeight="1.2" class="djs-label" style="font-family: Arial, sans-serif; font-size: 11px; font-weight: normal; fill: black;"><tspan x="0" y="9.899999999999999">Customer Request</tspan></text></g><g class="djs-visual" id="TextAnnotation_177ch0s" transform="translate(270 -3250)"><rect x="0" y="0" width="110" height="27" rx="0" ry="0" style="stroke: none; stroke-width: 2px; fill: none;"></rect><path d="m 0, 0 m 10,0 l -10,0 l 0,27 l 10,0" style="fill: none; stroke-width: 2px; stroke: black;"></path><text lineHeight="1.2" class="djs-label" style="font-family: Arial, sans-serif; font-size: 12px; font-weight: normal; fill: black;"><tspan x="5" y="15.799999999999999">Arrangement ID</tspan></text></g><g class="djs-visual" id="TextAnnotation_1oe5ksw" transform="translate(255 -4590)"><rect x="0" y="0" width="140" height="26" rx="0" ry="0" style="stroke: none; stroke-width: 2px; fill: none;"></rect><path d="m 0, 0 m 10,0 l -10,0 l 0,26 l 10,0" style="fill: none; stroke-width: 2px; stroke: black;"></path><text lineHeight="1.2" class="djs-label" style="font-family: Arial, sans-serif; font-size: 12px; font-weight: normal; fill: black;"><tspan x="5" y="15.799999999999999">Arrangement ID</tspan></text></g><g class="djs-visual" id="TextAnnotation_0sr9kcq" transform="translate(570 -3390)"><rect x="0" y="0" width="120" height="41" rx="0" ry="0" style="stroke: none; stroke-width: 2px; fill: none;"></rect><path d="m 0, 0 m 10,0 l -10,0 l 0,41 l 10,0" style="fill: none; stroke-width: 2px; stroke: black;"></path><text lineHeight="1.2" class="djs-label" style="font-family: Arial, sans-serif; font-size: 12px; font-weight: normal; fill: black;"><tspan x="5" y="15.799999999999999">'Change in interest </tspan><tspan x="5" y="30.199999999999996">unsuccessful'</tspan></text></g><g class="djs-visual" id="TextAnnotation_13k7f54" transform="translate(260 -4050)"><rect x="0" y="0" width="165" height="41" rx="0" ry="0" style="stroke: none; stroke-width: 2px; fill: none;"></rect><path d="m 0, 0 m 10,0 l -10,0 l 0,41 l 10,0" style="fill: none; stroke-width: 2px; stroke: black;"></path><text lineHeight="1.2" class="djs-label" style="font-family: Arial, sans-serif; font-size: 12px; font-weight: normal; fill: black;"><tspan x="5" y="15.799999999999999">Today's date defaulted as </tspan><tspan x="5" y="30.199999999999996">effective date</tspan></text></g><g class="djs-visual" id="TextAnnotation_1yffxwz" transform="translate(270 -3820)"><rect x="0" y="0" width="525" height="70" rx="0" ry="0" style="stroke: none; stroke-width: 2px; fill: none;"></rect><path d="m 0, 0 m 10,0 l -10,0 l 0,70 l 10,0" style="fill: none; stroke-width: 2px; stroke: black;"></path><text lineHeight="1.2" class="djs-label" style="font-family: Arial, sans-serif; font-size: 12px; font-weight: normal; fill: black;"><tspan x="5" y="15.799999999999999">Fields to be updated:</tspan><tspan x="5" y="30.199999999999996">Lease Interest&nbsp;</tspan><tspan x="5" y="44.599999999999994">&nbsp; &nbsp;- Interest Type &amp; Rate Grid/ Fixed Rate/ Floating Index/ Periodic Index &amp; Spread Type/</tspan><tspan x="5" y="58.99999999999999">&nbsp; &nbsp; &nbsp;Spread Oper/ Spread Rate &amp; Cust Margin Grid &amp; Margin Type &amp; Margin Oper/ Margin Reset</tspan></text></g><g class="djs-visual" id="TextAnnotation_1yw478m" transform="translate(260 -4320)"><rect x="0" y="0" width="225" height="40" rx="0" ry="0" style="stroke: none; stroke-width: 2px; fill: none;"></rect><path d="m 0, 0 m 10,0 l -10,0 l 0,40 l 10,0" style="fill: none; stroke-width: 2px; stroke: black;"></path><text lineHeight="1.2" class="djs-label" style="font-family: Arial, sans-serif; font-size: 12px; font-weight: normal; fill: black;"><tspan x="5" y="15.799999999999999">"Change Interest" activity triggered</tspan><tspan x="5" y="30.199999999999996">ASSET.FINANCE-CHANGE-LEASEINT</tspan></text></g><g class="djs-visual" id="Flow_0vcb63v_label" transform="translate(488 -3443)"><text lineHeight="1.2" class="djs-label" style="font-family: Arial, sans-serif; font-size: 11px; font-weight: normal; fill: black;"><tspan x="8.822265625" y="9.899999999999999">Validation </tspan><tspan x="0" y="23.099999999999998">unsuccessful</tspan></text></g><g class="djs-visual" id="Flow_057hsh2_label" transform="translate(184 -3443)"><text lineHeight="1.2" class="djs-label" style="font-family: Arial, sans-serif; font-size: 11px; font-weight: normal; fill: black;"><tspan x="2.70458984375" y="9.899999999999999">Validation </tspan><tspan x="0" y="23.099999999999998">successful</tspan></text></g><g class="djs-visual" id="Flow_1ayihb3_label" transform="translate(181 -4094)"><text lineHeight="1.2" class="djs-label" style="font-family: Arial, sans-serif; font-size: 11px; font-weight: normal; fill: black;"><tspan x="0" y="9.899999999999999">'Do activity today' to </tspan><tspan x="20.4375" y="23.099999999999998">be selected</tspan></text></g><g class="djs-visual" id="Flow_01qxqwc_label" transform="translate(549 -4104)"><text lineHeight="1.2" class="djs-label" style="font-family: Arial, sans-serif; font-size: 11px; font-weight: normal; fill: black;"><tspan x="0" y="9.899999999999999">'Do activity' to be </tspan><tspan x="20.7421875" y="23.099999999999998">selected</tspan></text></g><g class="djs-visual" id="DataInputAssociation_0mka6df" transform="translate(0 0)"><polyline points="48,-4890 107,-4890 " style="fill: none; stroke: black; stroke-width: 2px; stroke-dasharray: 0.5, 5; stroke-linecap: round; stroke-linejoin: round; marker-end: url(&quot;#association-end-white-black-a2fqb1ayki71c243jtuym0vjc&quot;);"></polyline></g><g class="djs-visual" id="Association_1wzgb2s" transform="translate(0 0)"><polyline points="237,-3221 270,-3238 " style="fill: none; stroke: black; stroke-width: 2px; stroke-dasharray: 0.5, 5; stroke-linecap: round; stroke-linejoin: round;"></polyline></g><g class="djs-visual" id="Association_12sqrv4" transform="translate(0 0)"><polyline points="237,-4569 255,-4574 " style="fill: none; stroke: black; stroke-width: 2px; stroke-dasharray: 0.5, 5; stroke-linecap: round; stroke-linejoin: round;"></polyline></g><g class="djs-visual" id="Association_0vc3ty9" transform="translate(0 0)"><polyline points="525,-3354 570,-3364 " style="fill: none; stroke: black; stroke-width: 2px; stroke-dasharray: 0.5, 5; stroke-linecap: round; stroke-linejoin: round;"></polyline></g><g class="djs-visual" id="Association_1hidaz2" transform="translate(0 0)"><polyline points="237,-4017 260,-4024 " style="fill: none; stroke: black; stroke-width: 2px; stroke-dasharray: 0.5, 5; stroke-linecap: round; stroke-linejoin: round;"></polyline></g><g class="djs-visual" id="Association_0l5mk1g" transform="translate(0 0)"><polyline points="237,-3767 270,-3776 " style="fill: none; stroke: black; stroke-width: 2px; stroke-dasharray: 0.5, 5; stroke-linecap: round; stroke-linejoin: round;"></polyline></g><g class="djs-visual" id="Association_1s50w71" transform="translate(0 0)"><polyline points="237,-4276 260,-4285 " style="fill: none; stroke: black; stroke-width: 2px; stroke-dasharray: 0.5, 5; stroke-linecap: round; stroke-linejoin: round;"></polyline></g></g><g><rect class="viewport" x="-2601.731034482759" y="-5114.937931034484" width="5982.758620689656" height="2275.862068965517"></rect></g></svg>