<svg width="100%" height="100%" viewBox="-162, -33, 1835, 2784"><g><g class="djs-visual" id="Flow_1kklzpb" transform="translate(0 0)"><path d="m  1110,2030L1110,2110 L715,2110 " style="fill: none; stroke-width: 2px; stroke: black; stroke-linejoin: round; marker-end: url(&quot;#sequenceflow-end-white-black-3pf1mlu16p7zliqoefd002zvm&quot;);"></path></g><g class="djs-visual" id="Flow_18rf9yc" transform="translate(0 0)"><path d="m  1110,1870L1110,1930 " style="fill: none; stroke-width: 2px; stroke: black; stroke-linejoin: round; marker-end: url(&quot;#sequenceflow-end-white-black-3pf1mlu16p7zliqoefd002zvm&quot;);"></path></g><g class="djs-visual" id="Flow_1fotku6" transform="translate(0 0)"><path d="m  715,1650L1110,1650 L1110,1770 " style="fill: none; stroke-width: 2px; stroke: black; stroke-linejoin: round; marker-end: url(&quot;#sequenceflow-end-white-black-3pf1mlu16p7zliqoefd002zvm&quot;);"></path></g><g class="djs-visual" id="Flow_0chbihe" transform="translate(0 0)"><path d="m  690,2135L690,2190 L85,2190 " style="fill: none; stroke-width: 2px; stroke: black; stroke-linejoin: round; marker-end: url(&quot;#sequenceflow-end-white-black-3pf1mlu16p7zliqoefd002zvm&quot;);"></path></g><g class="djs-visual" id="Flow_1liwlad" transform="translate(0 0)"><path d="m  690,2030L690,2085 " style="fill: none; stroke-width: 2px; stroke: black; stroke-linejoin: round; marker-end: url(&quot;#sequenceflow-end-white-black-3pf1mlu16p7zliqoefd002zvm&quot;);"></path></g><g class="djs-visual" id="Flow_105xlde" transform="translate(0 0)"><path d="m  690,1870L690,1930 " style="fill: none; stroke-width: 2px; stroke: black; stroke-linejoin: round; marker-end: url(&quot;#sequenceflow-end-white-black-3pf1mlu16p7zliqoefd002zvm&quot;);"></path></g><g class="djs-visual" id="Flow_1e3av7w" transform="translate(0 0)"><path d="m  690,1675L690,1770 " style="fill: none; stroke-width: 2px; stroke: black; stroke-linejoin: round; marker-end: url(&quot;#sequenceflow-end-white-black-3pf1mlu16p7zliqoefd002zvm&quot;);"></path></g><g class="djs-visual" id="Flow_0ojhfdm" transform="translate(0 0)"><path d="m  690,1570L690,1625 " style="fill: none; stroke-width: 2px; stroke: black; stroke-linejoin: round; marker-end: url(&quot;#sequenceflow-end-white-black-3pf1mlu16p7zliqoefd002zvm&quot;);"></path></g><g class="djs-visual" id="Flow_19wp7lr" transform="translate(0 0)"><path d="m  690,1410L690,1470 " style="fill: none; stroke-width: 2px; stroke: black; stroke-linejoin: round; marker-end: url(&quot;#sequenceflow-end-white-black-3pf1mlu16p7zliqoefd002zvm&quot;);"></path></g><g class="djs-visual" id="Flow_0y3zi9j" transform="translate(0 0)"><path d="m  690,1250L690,1310 " style="fill: none; stroke-width: 2px; stroke: black; stroke-linejoin: round; marker-end: url(&quot;#sequenceflow-end-white-black-3pf1mlu16p7zliqoefd002zvm&quot;);"></path></g><g class="djs-visual" id="Flow_0zks42s" transform="translate(0 0)"><path d="m  85,930L690,930 L690,1150 " style="fill: none; stroke-width: 2px; stroke: black; stroke-linejoin: round; marker-end: url(&quot;#sequenceflow-end-white-black-3pf1mlu16p7zliqoefd002zvm&quot;);"></path></g><g class="djs-visual" id="Flow_089iioa" transform="translate(0 0)"><path d="m  60,2560L60,2622 " style="fill: none; stroke-width: 2px; stroke: black; stroke-linejoin: round; marker-end: url(&quot;#sequenceflow-end-white-black-3pf1mlu16p7zliqoefd002zvm&quot;);"></path></g><g class="djs-visual" id="Flow_1ybe21u" transform="translate(0 0)"><path d="m  60,2400L60,2460 " style="fill: none; stroke-width: 2px; stroke: black; stroke-linejoin: round; marker-end: url(&quot;#sequenceflow-end-white-black-3pf1mlu16p7zliqoefd002zvm&quot;);"></path></g><g class="djs-visual" id="Flow_10uia3c" transform="translate(0 0)"><path d="m  60,2215L60,2300 " style="fill: none; stroke-width: 2px; stroke: black; stroke-linejoin: round; marker-end: url(&quot;#sequenceflow-end-white-black-3pf1mlu16p7zliqoefd002zvm&quot;);"></path></g><g class="djs-visual" id="Flow_1of7pkl" transform="translate(0 0)"><path d="m  60,1570L60,2165 " style="fill: none; stroke-width: 2px; stroke: black; stroke-linejoin: round; marker-end: url(&quot;#sequenceflow-end-white-black-3pf1mlu16p7zliqoefd002zvm&quot;);"></path></g><g class="djs-visual" id="Flow_1kpuhym" transform="translate(0 0)"><path d="m  60,1410L60,1470 " style="fill: none; stroke-width: 2px; stroke: black; stroke-linejoin: round; marker-end: url(&quot;#sequenceflow-end-white-black-3pf1mlu16p7zliqoefd002zvm&quot;);"></path></g><g class="djs-visual" id="Flow_1z06ttu" transform="translate(0 0)"><path d="m  60,1250L60,1310 " style="fill: none; stroke-width: 2px; stroke: black; stroke-linejoin: round; marker-end: url(&quot;#sequenceflow-end-white-black-3pf1mlu16p7zliqoefd002zvm&quot;);"></path></g><g class="djs-visual" id="Flow_11mx7l0" transform="translate(0 0)"><path d="m  60,955L60,1150 " style="fill: none; stroke-width: 2px; stroke: black; stroke-linejoin: round; marker-end: url(&quot;#sequenceflow-end-white-black-3pf1mlu16p7zliqoefd002zvm&quot;);"></path></g><g class="djs-visual" id="Flow_0tazhkc" transform="translate(0 0)"><path d="m  60,850L60,905 " style="fill: none; stroke-width: 2px; stroke: black; stroke-linejoin: round; marker-end: url(&quot;#sequenceflow-end-white-black-3pf1mlu16p7zliqoefd002zvm&quot;);"></path></g><g class="djs-visual" id="Flow_120ra02" transform="translate(0 0)"><path d="m  60,690L60,750 " style="fill: none; stroke-width: 2px; stroke: black; stroke-linejoin: round; marker-end: url(&quot;#sequenceflow-end-white-black-3pf1mlu16p7zliqoefd002zvm&quot;);"></path></g><g class="djs-visual" id="Flow_1i9mv0q" transform="translate(0 0)"><path d="m  60,540L60,590 " style="fill: none; stroke-width: 2px; stroke: black; stroke-linejoin: round; marker-end: url(&quot;#sequenceflow-end-white-black-3pf1mlu16p7zliqoefd002zvm&quot;);"></path></g><g class="djs-visual" id="Flow_0jomg9t" transform="translate(0 0)"><path d="m  60,390L60,440 " style="fill: none; stroke-width: 2px; stroke: black; stroke-linejoin: round; marker-end: url(&quot;#sequenceflow-end-white-black-3pf1mlu16p7zliqoefd002zvm&quot;);"></path></g><g class="djs-visual" id="Flow_16tv9m4" transform="translate(0 0)"><path d="m  60,235L60,290 " style="fill: none; stroke-width: 2px; stroke: black; stroke-linejoin: round; marker-end: url(&quot;#sequenceflow-end-white-black-3pf1mlu16p7zliqoefd002zvm&quot;);"></path></g><g class="djs-visual" id="Flow_0x4igzb" transform="translate(0 0)"><path d="m  290,108L290,210 L85,210 " style="fill: none; stroke-width: 2px; stroke: black; stroke-linejoin: round; marker-end: url(&quot;#sequenceflow-end-white-black-3pf1mlu16p7zliqoefd002zvm&quot;);"></path></g><g class="djs-visual" id="Flow_0av3kb6" transform="translate(0 0)"><path d="m  60,108L60,185 " style="fill: none; stroke-width: 2px; stroke: black; stroke-linejoin: round; marker-end: url(&quot;#sequenceflow-end-white-black-3pf1mlu16p7zliqoefd002zvm&quot;);"></path></g><g class="djs-visual" id="StartEvent_1bm324f" transform="translate(42 72)"><circle cx="18" cy="18" r="18" style="stroke: black; stroke-width: 2px; fill: white; fill-opacity: 0.95;"></circle></g><g class="djs-visual" id="StartEvent_1bm324f_label" transform="translate(23 23)"><text lineHeight="1.2" class="djs-label" style="font-family: Arial, sans-serif; font-size: 11px; font-weight: normal; fill: black;"><tspan x="0" y="9.899999999999999">Product details </tspan><tspan x="19.498291015625" y="23.099999999999998">agreed</tspan></text></g><g class="djs-visual" id="Event_11py6bg" transform="translate(272 72)"><circle cx="18" cy="18" r="18" style="stroke: black; stroke-width: 2px; fill: white; fill-opacity: 0.95;"></circle></g><g class="djs-visual" id="Event_11py6bg_label" transform="translate(253 23)"><text lineHeight="1.2" class="djs-label" style="font-family: Arial, sans-serif; font-size: 11px; font-weight: normal; fill: black;"><tspan x="0" y="9.899999999999999">Product details </tspan><tspan x="19.498291015625" y="23.099999999999998">agreed</tspan></text></g><g class="djs-visual" id="Gateway_18eg9vl" transform="translate(35 185)"><polygon points="25,0 50,25 25,50 0,25" style="stroke: black; stroke-width: 2px; fill: white; fill-opacity: 0.95;"></polygon><path d="m 16,15 7.42857142857143,9.714285714285715 -7.42857142857143,9.714285714285715 3.428571428571429,0 5.714285714285715,-7.464228571428572 5.714285714285715,7.464228571428572 3.428571428571429,0 -7.42857142857143,-9.714285714285715 7.42857142857143,-9.714285714285715 -3.428571428571429,0 -5.714285714285715,7.464228571428572 -5.714285714285715,-7.464228571428572 -3.428571428571429,0 z" style="fill: black; stroke-width: 1px; stroke: black;"></path></g><g class="djs-visual" id="Activity_1brpifd" transform="translate(-5 290)"><rect x="0" y="0" width="130" height="100" rx="10" ry="10" style="stroke: black; stroke-width: 2px; fill: white; fill-opacity: 0.95;"></rect><text lineHeight="1.2" class="djs-label" style="font-family: Arial, sans-serif; font-size: 12px; font-weight: normal; fill: black;"><tspan x="9.375" y="46.4">Confirm Wakala type </tspan><tspan x="38.6484375" y="60.8">of deposit</tspan></text></g><g class="djs-visual" id="DataObjectReference_01mzlgp" transform="translate(-78 315)"><path d="m 0,0 28.23529411764706,0 7.058823529411765,8.196721311475411 0,40.98360655737705 -35.294117647058826,0 0,-49.18032786885246 28.23529411764706,0 0,8.196721311475411 7.058823529411765,0" style="fill: white; stroke-width: 2px; stroke: black; fill-opacity: 0.95;"></path></g><g class="djs-visual" id="DataObjectReference_01mzlgp_label" transform="translate(-106 372)"><text lineHeight="1.2" class="djs-label" style="font-family: Arial, sans-serif; font-size: 11px; font-weight: normal; fill: black;"><tspan x="0" y="9.899999999999999">Customer Request</tspan></text></g><g class="djs-visual" id="Activity_08sccr4" transform="translate(-5 440)"><rect x="0" y="0" width="130" height="100" rx="10" ry="10" style="stroke: black; stroke-width: 2px; fill: white; fill-opacity: 0.95;"></rect><text lineHeight="1.2" class="djs-label" style="font-family: Arial, sans-serif; font-size: 12px; font-weight: normal; fill: black;"><tspan x="8.96875" y="46.4">Choose product from </tspan><tspan x="45.4892578125" y="60.8">catalog</tspan></text></g><g class="djs-visual" id="Activity_1r0oqs3" transform="translate(-5 590)"><rect x="0" y="0" width="130" height="100" rx="10" ry="10" style="stroke: black; stroke-width: 2px; fill: white; fill-opacity: 0.95;"></rect><text lineHeight="1.2" class="djs-label" style="font-family: Arial, sans-serif; font-size: 12px; font-weight: normal; fill: black;"><tspan x="34.8125" y="46.4">Set up new </tspan><tspan x="30.6474609375" y="60.8">arrangement</tspan></text></g><g class="djs-visual" id="Activity_0wgkxyh" transform="translate(-5 750)"><rect x="0" y="0" width="130" height="100" rx="10" ry="10" style="stroke: black; stroke-width: 2px; fill: white; fill-opacity: 0.95;"></rect><text lineHeight="1.2" class="djs-label" style="font-family: Arial, sans-serif; font-size: 12px; font-weight: normal; fill: black;"><tspan x="24.474609375" y="39.2">Decide on auto </tspan><tspan x="14.46875" y="53.6">funding/ settlement </tspan><tspan x="34.6484375" y="68">instructions</tspan></text></g><g class="djs-visual" id="Gateway_1pxv6tq" transform="translate(35 905)"><polygon points="25,0 50,25 25,50 0,25" style="stroke: black; stroke-width: 2px; fill: white; fill-opacity: 0.95;"></polygon><path d="m 16,15 7.42857142857143,9.714285714285715 -7.42857142857143,9.714285714285715 3.428571428571429,0 5.714285714285715,-7.464228571428572 5.714285714285715,7.464228571428572 3.428571428571429,0 -7.42857142857143,-9.714285714285715 7.42857142857143,-9.714285714285715 -3.428571428571429,0 -5.714285714285715,7.464228571428572 -5.714285714285715,-7.464228571428572 -3.428571428571429,0 z" style="fill: black; stroke-width: 1px; stroke: black;"></path></g><g class="djs-visual" id="Activity_1cbhyuv" transform="translate(-5 1150)"><rect x="0" y="0" width="130" height="100" rx="10" ry="10" style="stroke: black; stroke-width: 2px; fill: white; fill-opacity: 0.95;"></rect><text lineHeight="1.2" class="djs-label" style="font-family: Arial, sans-serif; font-size: 12px; font-weight: normal; fill: black;"><tspan x="10.95703125" y="46.4">Set up auto funding/ </tspan><tspan x="5.3046875" y="60.8">settlement instructions</tspan></text></g><g class="djs-visual" id="Activity_1tso4k2" transform="translate(-5 1310)"><rect x="0" y="0" width="130" height="100" rx="10" ry="10" style="stroke: black; stroke-width: 2px; fill: white; fill-opacity: 0.95;"></rect><text lineHeight="1.2" class="djs-label" style="font-family: Arial, sans-serif; font-size: 12px; font-weight: normal; fill: black;"><tspan x="11.8037109375" y="46.4">Verify and authorise </tspan><tspan x="17.9736328125" y="60.8">new arrangement</tspan></text></g><g class="djs-visual" id="Activity_0hekae9" transform="translate(-5 1470)"><rect x="0" y="0" width="130" height="100" rx="10" ry="10" style="stroke: black; stroke-width: 2px; fill: white; fill-opacity: 0.95;"></rect><text lineHeight="1.2" class="djs-label" style="font-family: Arial, sans-serif; font-size: 12px; font-weight: normal; fill: black;"><tspan x="22.54296875" y="46.4">Activate Wakala </tspan><tspan x="44.3232421875" y="60.8">Deposit</tspan></text></g><g class="djs-visual" id="Gateway_0jn6deb" transform="translate(35 2165)"><polygon points="25,0 50,25 25,50 0,25" style="stroke: black; stroke-width: 2px; fill: white; fill-opacity: 0.95;"></polygon><path d="m 16,15 7.42857142857143,9.714285714285715 -7.42857142857143,9.714285714285715 3.428571428571429,0 5.714285714285715,-7.464228571428572 5.714285714285715,7.464228571428572 3.428571428571429,0 -7.42857142857143,-9.714285714285715 7.42857142857143,-9.714285714285715 -3.428571428571429,0 -5.714285714285715,7.464228571428572 -5.714285714285715,-7.464228571428572 -3.428571428571429,0 z" style="fill: black; stroke-width: 1px; stroke: black;"></path></g><g class="djs-visual" id="Activity_1w1wj8j" transform="translate(-5 2300)"><rect x="0" y="0" width="130" height="100" rx="10" ry="10" style="stroke: black; stroke-width: 2px; fill: white; fill-opacity: 0.95;"></rect><text lineHeight="1.2" class="djs-label" style="font-family: Arial, sans-serif; font-size: 12px; font-weight: normal; fill: black;"><tspan x="20.8095703125" y="53.599999999999994">Generate advice</tspan></text></g><g class="djs-visual" id="Activity_1hxresg" transform="translate(-5 2460)"><rect x="0" y="0" width="130" height="100" rx="10" ry="10" style="stroke: black; stroke-width: 2px; fill: white; fill-opacity: 0.95;"></rect><text lineHeight="1.2" class="djs-label" style="font-family: Arial, sans-serif; font-size: 12px; font-weight: normal; fill: black;"><tspan x="20.484375" y="46.4">Deliver advice to </tspan><tspan x="38.4912109375" y="60.8">Customer</tspan></text></g><g class="djs-visual" id="DataObjectReference_0agztb8" transform="translate(162 2325)"><path d="m 0,0 28.23529411764706,0 7.058823529411765,8.196721311475411 0,40.98360655737705 -35.294117647058826,0 0,-49.18032786885246 28.23529411764706,0 0,8.196721311475411 7.058823529411765,0" style="fill: white; stroke-width: 2px; stroke: black; fill-opacity: 0.95;"></path></g><g class="djs-visual" id="DataObjectReference_0agztb8_label" transform="translate(144 2382)"><text lineHeight="1.2" class="djs-label" style="font-family: Arial, sans-serif; font-size: 11px; font-weight: normal; fill: black;"><tspan x="0" y="9.899999999999999">Deposit Advice</tspan></text></g><g class="djs-visual" id="DataObjectReference_0dgdfd0" transform="translate(162 2485)"><path d="m 0,0 28.23529411764706,0 7.058823529411765,8.196721311475411 0,40.98360655737705 -35.294117647058826,0 0,-49.18032786885246 28.23529411764706,0 0,8.196721311475411 7.058823529411765,0" style="fill: white; stroke-width: 2px; stroke: black; fill-opacity: 0.95;"></path></g><g class="djs-visual" id="DataObjectReference_0dgdfd0_label" transform="translate(144 2542)"><text lineHeight="1.2" class="djs-label" style="font-family: Arial, sans-serif; font-size: 11px; font-weight: normal; fill: black;"><tspan x="0" y="9.899999999999999">Deposit Advice</tspan></text></g><g class="djs-visual" id="Event_17sn9s6" transform="translate(42 2622)"><circle cx="18" cy="18" r="18" style="stroke: black; stroke-width: 4px; fill: white; fill-opacity: 0.95;"></circle></g><g class="djs-visual" id="Event_17sn9s6_label" transform="translate(22 2668)"><text lineHeight="1.2" class="djs-label" style="font-family: Arial, sans-serif; font-size: 11px; font-weight: normal; fill: black;"><tspan x="0" y="9.899999999999999">Wakala Deposit </tspan><tspan x="19.932373046875" y="23.099999999999998">created</tspan></text></g><g class="djs-visual" id="Activity_1cgvkeh" transform="translate(625 1150)"><rect x="0" y="0" width="130" height="100" rx="10" ry="10" style="stroke: black; stroke-width: 2px; fill: white; fill-opacity: 0.95;"></rect><text lineHeight="1.2" class="djs-label" style="font-family: Arial, sans-serif; font-size: 12px; font-weight: normal; fill: black;"><tspan x="11.8037109375" y="46.4">Verify and authorise </tspan><tspan x="17.9736328125" y="60.8">new arrangement</tspan></text></g><g class="djs-visual" id="Activity_1ippshu" transform="translate(625 1310)"><rect x="0" y="0" width="130" height="100" rx="10" ry="10" style="stroke: black; stroke-width: 2px; fill: white; fill-opacity: 0.95;"></rect><text lineHeight="1.2" class="djs-label" style="font-family: Arial, sans-serif; font-size: 12px; font-weight: normal; fill: black;"><tspan x="18.5380859375" y="46.4">Authorise Wakala </tspan><tspan x="44.3232421875" y="60.8">Deposit</tspan></text></g><g class="djs-visual" id="Activity_0b7n6ov" transform="translate(625 1470)"><rect x="0" y="0" width="130" height="100" rx="10" ry="10" style="stroke: black; stroke-width: 2px; fill: white; fill-opacity: 0.95;"></rect><text lineHeight="1.2" class="djs-label" style="font-family: Arial, sans-serif; font-size: 12px; font-weight: normal; fill: black;"><tspan x="11.1357421875" y="46.4">Decide on the mode </tspan><tspan x="17.466796875" y="60.8">of deposit funding</tspan></text></g><g class="djs-visual" id="Gateway_0pgyuuz" transform="translate(665 1625)"><polygon points="25,0 50,25 25,50 0,25" style="stroke: black; stroke-width: 2px; fill: white; fill-opacity: 0.95;"></polygon><path d="m 16,15 7.42857142857143,9.714285714285715 -7.42857142857143,9.714285714285715 3.428571428571429,0 5.714285714285715,-7.464228571428572 5.714285714285715,7.464228571428572 3.428571428571429,0 -7.42857142857143,-9.714285714285715 7.42857142857143,-9.714285714285715 -3.428571428571429,0 -5.714285714285715,7.464228571428572 -5.714285714285715,-7.464228571428572 -3.428571428571429,0 z" style="fill: black; stroke-width: 1px; stroke: black;"></path></g><g class="djs-visual" id="Activity_16mn5pr" transform="translate(625 1770)"><rect x="0" y="0" width="130" height="100" rx="10" ry="10" style="stroke: black; stroke-width: 2px; fill: white; fill-opacity: 0.95;"></rect><text lineHeight="1.2" class="djs-label" style="font-family: Arial, sans-serif; font-size: 12px; font-weight: normal; fill: black;"><tspan x="11.2890625" y="53.599999999999994">Input funding details</tspan></text></g><g class="djs-visual" id="Activity_1goak6c" transform="translate(625 1930)"><rect x="0" y="0" width="130" height="100" rx="10" ry="10" style="stroke: black; stroke-width: 2px; fill: white; fill-opacity: 0.95;"></rect><text lineHeight="1.2" class="djs-label" style="font-family: Arial, sans-serif; font-size: 12px; font-weight: normal; fill: black;"><tspan x="18.8046875" y="46.4">Authorise deposit </tspan><tspan x="45.65234375" y="60.8">funding</tspan></text></g><g class="djs-visual" id="Gateway_12e7pyo" transform="translate(665 2085)"><polygon points="25,0 50,25 25,50 0,25" style="stroke: black; stroke-width: 2px; fill: white; fill-opacity: 0.95;"></polygon><path d="m 16,15 7.42857142857143,9.714285714285715 -7.42857142857143,9.714285714285715 3.428571428571429,0 5.714285714285715,-7.464228571428572 5.714285714285715,7.464228571428572 3.428571428571429,0 -7.42857142857143,-9.714285714285715 7.42857142857143,-9.714285714285715 -3.428571428571429,0 -5.714285714285715,7.464228571428572 -5.714285714285715,-7.464228571428572 -3.428571428571429,0 z" style="fill: black; stroke-width: 1px; stroke: black;"></path></g><g class="djs-visual" id="Activity_1e7834j" transform="translate(1045 1770)"><rect x="0" y="0" width="130" height="100" rx="10" ry="10" style="stroke: black; stroke-width: 2px; fill: white; fill-opacity: 0.95;"></rect><text lineHeight="1.2" class="djs-label" style="font-family: Arial, sans-serif; font-size: 12px; font-weight: normal; fill: black;"><tspan x="11.2890625" y="53.599999999999994">Input funding details</tspan></text></g><g class="djs-visual" id="Activity_1edj0kn" transform="translate(1045 1930)"><rect x="0" y="0" width="130" height="100" rx="10" ry="10" style="stroke: black; stroke-width: 2px; fill: white; fill-opacity: 0.95;"></rect><text lineHeight="1.2" class="djs-label" style="font-family: Arial, sans-serif; font-size: 12px; font-weight: normal; fill: black;"><tspan x="18.8046875" y="46.4">Authorise deposit </tspan><tspan x="45.65234375" y="60.8">funding</tspan></text></g><g class="djs-visual" id="TextAnnotation_03epazx" transform="translate(200 480)"><rect x="0" y="0" width="350" height="169" rx="0" ry="0" style="stroke: none; stroke-width: 2px; fill: none;"></rect><path d="m 0, 0 m 10,0 l -10,0 l 0,169 l 10,0" style="fill: none; stroke-width: 2px; stroke: black;"></path><text lineHeight="1.2" class="djs-label" style="font-family: Arial, sans-serif; font-size: 12px; font-weight: normal; fill: black;"><tspan x="5" y="15.799999999999999">Input</tspan><tspan x="5" y="30.199999999999996">- Customer Number, Currency</tspan><tspan x="5" y="44.599999999999994">- Branch, Line of Business (optional)</tspan><tspan x="5" y="58.99999999999999">- Deposit amount, Term</tspan><tspan x="5" y="73.39999999999999">- Special HIBA Profit Rate</tspan><tspan x="5" y="87.79999999999998">- Closure Type/ Method</tspan><tspan x="5" y="102.19999999999999">- Pool ID (if not defaulted based on condition)</tspan><tspan x="5" y="116.6">Note: Various attributes are defaulted from the product&nbsp;</tspan><tspan x="5" y="131">which can be amended wherever required (e.g. Tax, Alerts etc.)&nbsp;</tspan><tspan x="5" y="145.4">System generates Arrangement ID automatically</tspan></text></g><g class="djs-visual" id="TextAnnotation_06gk9sm" transform="translate(200 990)"><rect x="0" y="0" width="370" height="170" rx="0" ry="0" style="stroke: none; stroke-width: 2px; fill: none;"></rect><path d="m 0, 0 m 10,0 l -10,0 l 0,170 l 10,0" style="fill: none; stroke-width: 2px; stroke: black;"></path><text lineHeight="1.2" class="djs-label" style="font-family: Arial, sans-serif; font-size: 12px; font-weight: normal; fill: black;"><tspan x="5" y="15.799999999999999">Auto funding/ Settlement can be performed for AA deposits</tspan><tspan x="5" y="30.199999999999996">The following details are given</tspan><tspan x="5" y="44.599999999999994">- PAYIN.ACCOUNT OR PAYIN.BENEFICIARY</tspan><tspan x="5" y="58.99999999999999">- PAYOUT.ACCOUNT OR PAYOUT.BENEFICIARY</tspan><tspan x="5" y="73.39999999999999"></tspan><tspan x="5" y="87.79999999999998">There are three types of auto funding</tspan><tspan x="5" y="102.19999999999999">- Full funding</tspan><tspan x="5" y="116.6">- Partial funding (deposit to be funded to extent of the funds</tspan><tspan x="5" y="131">&nbsp; available in the account)</tspan><tspan x="5" y="145.4">- None (If the balance is fully sufficient the deposit would be fully</tspan><tspan x="5" y="159.8">&nbsp; funded from the account, else no auto funding would take place)</tspan></text></g><g class="djs-visual" id="TextAnnotation_1yrz1jf" transform="translate(200 1270)"><rect x="0" y="0" width="180" height="40" rx="0" ry="0" style="stroke: none; stroke-width: 2px; fill: none;"></rect><path d="m 0, 0 m 10,0 l -10,0 l 0,40 l 10,0" style="fill: none; stroke-width: 2px; stroke: black;"></path><text lineHeight="1.2" class="djs-label" style="font-family: Arial, sans-serif; font-size: 12px; font-weight: normal; fill: black;"><tspan x="5" y="15.799999999999999">Input 'Arrangement ID', verify </tspan><tspan x="5" y="30.199999999999996">particulars of AA and authorise</tspan></text></g><g class="djs-visual" id="TextAnnotation_0lyznzu" transform="translate(810 1090)"><rect x="0" y="0" width="190" height="40" rx="0" ry="0" style="stroke: none; stroke-width: 2px; fill: none;"></rect><path d="m 0, 0 m 10,0 l -10,0 l 0,40 l 10,0" style="fill: none; stroke-width: 2px; stroke: black;"></path><text lineHeight="1.2" class="djs-label" style="font-family: Arial, sans-serif; font-size: 12px; font-weight: normal; fill: black;"><tspan x="5" y="15.799999999999999">Input 'Arrangement ID', verify </tspan><tspan x="5" y="30.199999999999996">particulars of AA and authorise</tspan></text></g><g class="djs-visual" id="TextAnnotation_1uapuwl" transform="translate(810 1250)"><rect x="0" y="0" width="200" height="50" rx="0" ry="0" style="stroke: none; stroke-width: 2px; fill: none;"></rect><path d="m 0, 0 m 10,0 l -10,0 l 0,50 l 10,0" style="fill: none; stroke-width: 2px; stroke: black;"></path><text lineHeight="1.2" class="djs-label" style="font-family: Arial, sans-serif; font-size: 12px; font-weight: normal; fill: black;"><tspan x="5" y="15.799999999999999">Once an AA deposit is authorised. </tspan><tspan x="5" y="30.199999999999996">Due bill is generated which needs </tspan><tspan x="5" y="44.599999999999994">to be funded</tspan></text></g><g class="djs-visual" id="TextAnnotation_1gcq4ov" transform="translate(810 1390)"><rect x="0" y="0" width="310" height="70" rx="0" ry="0" style="stroke: none; stroke-width: 2px; fill: none;"></rect><path d="m 0, 0 m 10,0 l -10,0 l 0,70 l 10,0" style="fill: none; stroke-width: 2px; stroke: black;"></path><text lineHeight="1.2" class="djs-label" style="font-family: Arial, sans-serif; font-size: 12px; font-weight: normal; fill: black;"><tspan x="5" y="15.799999999999999">Note: Based on pre-defined parameters,</tspan><tspan x="5" y="30.199999999999996">if the funding does not happen before a</tspan><tspan x="5" y="44.599999999999994">fixed number of days defined in the cancel period,</tspan><tspan x="5" y="58.99999999999999">the system automatically cancels the deposit</tspan></text></g><g class="djs-visual" id="TextAnnotation_1cnzgg6" transform="translate(810 1690)"><rect x="0" y="0" width="180" height="84" rx="0" ry="0" style="stroke: none; stroke-width: 2px; fill: none;"></rect><path d="m 0, 0 m 10,0 l -10,0 l 0,84 l 10,0" style="fill: none; stroke-width: 2px; stroke: black;"></path><text lineHeight="1.2" class="djs-label" style="font-family: Arial, sans-serif; font-size: 12px; font-weight: normal; fill: black;"><tspan x="5" y="15.799999999999999">- Arrangement Id</tspan><tspan x="5" y="30.199999999999996">- Credit and Debit Accounts&nbsp;</tspan><tspan x="5" y="44.599999999999994">- Value date</tspan><tspan x="5" y="58.99999999999999">- Treasury rates</tspan><tspan x="5" y="73.39999999999999">- Spread etc.</tspan></text></g><g class="djs-visual" id="TextAnnotation_0wklgzc" transform="translate(1250 1700)"><rect x="0" y="0" width="160" height="84" rx="0" ry="0" style="stroke: none; stroke-width: 2px; fill: none;"></rect><path d="m 0, 0 m 10,0 l -10,0 l 0,84 l 10,0" style="fill: none; stroke-width: 2px; stroke: black;"></path><text lineHeight="1.2" class="djs-label" style="font-family: Arial, sans-serif; font-size: 12px; font-weight: normal; fill: black;"><tspan x="5" y="15.799999999999999">- Customer&nbsp; &nbsp; &nbsp; &nbsp; &nbsp; &nbsp; &nbsp; &nbsp; &nbsp; &nbsp; &nbsp; &nbsp; </tspan><tspan x="5" y="30.199999999999996">- Currency&nbsp; &nbsp; &nbsp; &nbsp; &nbsp; &nbsp; &nbsp; &nbsp; &nbsp; &nbsp; &nbsp; &nbsp;</tspan><tspan x="5" y="44.599999999999994">- Arrangement Id&nbsp; &nbsp; &nbsp; &nbsp; &nbsp; &nbsp; &nbsp; &nbsp; </tspan><tspan x="5" y="58.99999999999999">- Value date&nbsp; &nbsp; &nbsp; &nbsp; &nbsp; &nbsp; &nbsp; &nbsp; &nbsp; &nbsp;</tspan><tspan x="5" y="73.39999999999999">- Cash denomination etc.</tspan></text></g><g class="djs-visual" id="DataInputAssociation_1xhgpd1" transform="translate(0 0)"><polyline points="-42,340 -5,340 " style="fill: none; stroke: black; stroke-width: 2px; stroke-dasharray: 0.5, 5; stroke-linecap: round; stroke-linejoin: round; marker-end: url(&quot;#association-end-white-black-3pf1mlu16p7zliqoefd002zvm&quot;);"></polyline></g><g class="djs-visual" id="Flow_11mx7l0_label" transform="translate(72 1003)"><text lineHeight="1.2" class="djs-label" style="font-family: Arial, sans-serif; font-size: 11px; font-weight: normal; fill: black;"><tspan x="9.191650390625" y="9.899999999999999">Auto funding/ </tspan><tspan x="15.733154296875" y="23.099999999999998">settlement </tspan><tspan x="0" y="36.3">instructions to be </tspan><tspan x="28.4296875" y="49.5">given</tspan></text></g><g class="djs-visual" id="DataOutputAssociation_1dbkd6x" transform="translate(0 0)"><polyline points="125,2350 162,2350 " style="fill: none; stroke: black; stroke-width: 2px; stroke-dasharray: 0.5, 5; stroke-linecap: round; stroke-linejoin: round; marker-end: url(&quot;#association-end-white-black-3pf1mlu16p7zliqoefd002zvm&quot;);"></polyline></g><g class="djs-visual" id="Flow_10uia3c_label" transform="translate(68 2236)"><text lineHeight="1.2" class="djs-label" style="font-family: Arial, sans-serif; font-size: 11px; font-weight: normal; fill: black;"><tspan x="0" y="9.899999999999999">Funding details </tspan><tspan x="16.14599609375" y="23.099999999999998">captured</tspan></text></g><g class="djs-visual" id="DataOutputAssociation_196jzbu" transform="translate(0 0)"><polyline points="125,2510 162,2510 " style="fill: none; stroke: black; stroke-width: 2px; stroke-dasharray: 0.5, 5; stroke-linecap: round; stroke-linejoin: round; marker-end: url(&quot;#association-end-white-black-3pf1mlu16p7zliqoefd002zvm&quot;);"></polyline></g><g class="djs-visual" id="Flow_0zks42s_label" transform="translate(106 886)"><text lineHeight="1.2" class="djs-label" style="font-family: Arial, sans-serif; font-size: 11px; font-weight: normal; fill: black;"><tspan x="0" y="9.899999999999999">Manual funding to </tspan><tspan x="11.0078125" y="23.099999999999998">be performed</tspan></text></g><g class="djs-visual" id="Flow_1e3av7w_label" transform="translate(700 1705)"><text lineHeight="1.2" class="djs-label" style="font-family: Arial, sans-serif; font-size: 11px; font-weight: normal; fill: black;"><tspan x="0" y="9.899999999999999">Funding through </tspan><tspan x="3.93408203125" y="23.099999999999998">Funds transfer</tspan></text></g><g class="djs-visual" id="Flow_1fotku6_label" transform="translate(739 1616)"><text lineHeight="1.2" class="djs-label" style="font-family: Arial, sans-serif; font-size: 11px; font-weight: normal; fill: black;"><tspan x="0" y="9.899999999999999">Funding through </tspan><tspan x="26.7509765625" y="23.099999999999998">Teller</tspan></text></g><g class="djs-visual" id="Association_1kxwt1a" transform="translate(0 0)"><polyline points="124,596 200,546 " style="fill: none; stroke: black; stroke-width: 2px; stroke-dasharray: 0.5, 5; stroke-linecap: round; stroke-linejoin: round;"></polyline></g><g class="djs-visual" id="Association_0psaf8d" transform="translate(0 0)"><polyline points="120,1152 200,1087 " style="fill: none; stroke: black; stroke-width: 2px; stroke-dasharray: 0.5, 5; stroke-linecap: round; stroke-linejoin: round;"></polyline></g><g class="djs-visual" id="Association_08ekv3i" transform="translate(0 0)"><polyline points="125,1328 200,1290 " style="fill: none; stroke: black; stroke-width: 2px; stroke-dasharray: 0.5, 5; stroke-linecap: round; stroke-linejoin: round;"></polyline></g><g class="djs-visual" id="Association_1vis0cf" transform="translate(0 0)"><polyline points="752,1153 810,1110 " style="fill: none; stroke: black; stroke-width: 2px; stroke-dasharray: 0.5, 5; stroke-linecap: round; stroke-linejoin: round;"></polyline></g><g class="djs-visual" id="Association_1pq4cnq" transform="translate(0 0)"><polyline points="752,1314 810,1271 " style="fill: none; stroke: black; stroke-width: 2px; stroke-dasharray: 0.5, 5; stroke-linecap: round; stroke-linejoin: round;"></polyline></g><g class="djs-visual" id="Association_1p75d5j" transform="translate(0 0)"><polyline points="751,1472 810,1425 " style="fill: none; stroke: black; stroke-width: 2px; stroke-dasharray: 0.5, 5; stroke-linecap: round; stroke-linejoin: round;"></polyline></g><g class="djs-visual" id="Association_1hrx2th" transform="translate(0 0)"><polyline points="751,1773 810,1727 " style="fill: none; stroke: black; stroke-width: 2px; stroke-dasharray: 0.5, 5; stroke-linecap: round; stroke-linejoin: round;"></polyline></g><g class="djs-visual" id="Association_1mse3i6" transform="translate(0 0)"><polyline points="1173,1775 1250,1720 " style="fill: none; stroke: black; stroke-width: 2px; stroke-dasharray: 0.5, 5; stroke-linecap: round; stroke-linejoin: round;"></polyline></g></g><g><rect class="viewport" x="-2874.6829268292686" y="16.991869918699187" width="7052.845528455285" height="2682.9268292682927"></rect></g></svg>