<svg width="100%" height="100%" viewBox="-50, -63, 1835, 3059"><g><g class="djs-visual" id="Flow_0qqtvob" transform="translate(0 0)"><path d="m  260,1745L260,1800 " style="fill: none; stroke-width: 2px; stroke: black; stroke-linejoin: round; marker-end: url(&quot;#sequenceflow-end-white-black-2bjwhz33orc8sgxqtgxx3jnmf&quot;);"></path></g><g class="djs-visual" id="Flow_0uq601m" transform="translate(0 0)"><path d="m  260,1465L260,1695 " style="fill: none; stroke-width: 2px; stroke: black; stroke-linejoin: round; marker-end: url(&quot;#sequenceflow-end-white-black-2bjwhz33orc8sgxqtgxx3jnmf&quot;);"></path></g><g class="djs-visual" id="Flow_1epfk98" transform="translate(0 0)"><path d="m  1010,1630L1010,1720 L285,1720 " style="fill: none; stroke-width: 2px; stroke: black; stroke-linejoin: round; marker-end: url(&quot;#sequenceflow-end-white-black-2bjwhz33orc8sgxqtgxx3jnmf&quot;);"></path></g><g class="djs-visual" id="Flow_1tcl5k6" transform="translate(0 0)"><path d="m  285,1440L1010,1440 L1010,1530 " style="fill: none; stroke-width: 2px; stroke: black; stroke-linejoin: round; marker-end: url(&quot;#sequenceflow-end-white-black-2bjwhz33orc8sgxqtgxx3jnmf&quot;);"></path></g><g class="djs-visual" id="Flow_0d7agyq" transform="translate(0 0)"><path d="m  570,1630L570,1720 L285,1720 " style="fill: none; stroke-width: 2px; stroke: black; stroke-linejoin: round; marker-end: url(&quot;#sequenceflow-end-white-black-2bjwhz33orc8sgxqtgxx3jnmf&quot;);"></path></g><g class="djs-visual" id="Flow_08icv0o" transform="translate(0 0)"><path d="m  285,1440L570,1440 L570,1530 " style="fill: none; stroke-width: 2px; stroke: black; stroke-linejoin: round; marker-end: url(&quot;#sequenceflow-end-white-black-2bjwhz33orc8sgxqtgxx3jnmf&quot;);"></path></g><g class="djs-visual" id="Flow_0jgor6f" transform="translate(0 0)"><path d="m  260,1350L260,1415 " style="fill: none; stroke-width: 2px; stroke: black; stroke-linejoin: round; marker-end: url(&quot;#sequenceflow-end-white-black-2bjwhz33orc8sgxqtgxx3jnmf&quot;);"></path></g><g class="djs-visual" id="Flow_0khevf2" transform="translate(0 0)"><path d="m  260,2800L260,2852 " style="fill: none; stroke-width: 2px; stroke: black; stroke-linejoin: round; marker-end: url(&quot;#sequenceflow-end-white-black-2bjwhz33orc8sgxqtgxx3jnmf&quot;);"></path></g><g class="djs-visual" id="Flow_0yc4z7r" transform="translate(0 0)"><path d="m  480,2320L480,2360 L285,2360 " style="fill: none; stroke-width: 2px; stroke: black; stroke-linejoin: round; marker-end: url(&quot;#sequenceflow-end-white-black-2bjwhz33orc8sgxqtgxx3jnmf&quot;);"></path></g><g class="djs-visual" id="Flow_162srkl" transform="translate(0 0)"><path d="m  260,2385L260,2420 " style="fill: none; stroke-width: 2px; stroke: black; stroke-linejoin: round; marker-end: url(&quot;#sequenceflow-end-white-black-2bjwhz33orc8sgxqtgxx3jnmf&quot;);"></path></g><g class="djs-visual" id="Flow_1xktqto" transform="translate(0 0)"><path d="m  260,680L260,760 " style="fill: none; stroke-width: 2px; stroke: black; stroke-linejoin: round; marker-end: url(&quot;#sequenceflow-end-white-black-2bjwhz33orc8sgxqtgxx3jnmf&quot;);"></path></g><g class="djs-visual" id="Flow_03nm46e" transform="translate(0 0)"><path d="m  480,2170L480,2220 " style="fill: none; stroke-width: 2px; stroke: black; stroke-linejoin: round; marker-end: url(&quot;#sequenceflow-end-white-black-2bjwhz33orc8sgxqtgxx3jnmf&quot;);"></path></g><g class="djs-visual" id="Flow_0snoda9" transform="translate(0 0)"><path d="m  285,1980L480,1980 L480,2070 " style="fill: none; stroke-width: 2px; stroke: black; stroke-linejoin: round; marker-end: url(&quot;#sequenceflow-end-white-black-2bjwhz33orc8sgxqtgxx3jnmf&quot;);"></path></g><g class="djs-visual" id="Flow_1jnpzhj" transform="translate(0 0)"><path d="m  260,2005L260,2335 " style="fill: none; stroke-width: 2px; stroke: black; stroke-linejoin: round; marker-end: url(&quot;#sequenceflow-end-white-black-2bjwhz33orc8sgxqtgxx3jnmf&quot;);"></path></g><g class="djs-visual" id="Flow_0gwyr89" transform="translate(0 0)"><path d="m  260,1900L260,1955 " style="fill: none; stroke-width: 2px; stroke: black; stroke-linejoin: round; marker-end: url(&quot;#sequenceflow-end-white-black-2bjwhz33orc8sgxqtgxx3jnmf&quot;);"></path></g><g class="djs-visual" id="Flow_18k9m2e" transform="translate(0 0)"><path d="m  260,380L260,430 " style="fill: none; stroke-width: 2px; stroke: black; stroke-linejoin: round; marker-end: url(&quot;#sequenceflow-end-white-black-2bjwhz33orc8sgxqtgxx3jnmf&quot;);"></path></g><g class="djs-visual" id="Flow_19rmb54" transform="translate(0 0)"><path d="m  260,230L260,280 " style="fill: none; stroke-width: 2px; stroke: black; stroke-linejoin: round; marker-end: url(&quot;#sequenceflow-end-white-black-2bjwhz33orc8sgxqtgxx3jnmf&quot;);"></path></g><g class="djs-visual" id="Flow_0tiwa9r" transform="translate(0 0)"><path d="m  260,2660L260,2700 " style="fill: none; stroke-width: 2px; stroke: black; stroke-linejoin: round; marker-end: url(&quot;#sequenceflow-end-white-black-2bjwhz33orc8sgxqtgxx3jnmf&quot;);"></path></g><g class="djs-visual" id="Flow_1noid4b" transform="translate(0 0)"><path d="m  260,2520L260,2560 " style="fill: none; stroke-width: 2px; stroke: black; stroke-linejoin: round; marker-end: url(&quot;#sequenceflow-end-white-black-2bjwhz33orc8sgxqtgxx3jnmf&quot;);"></path></g><g class="djs-visual" id="Flow_15kxvam" transform="translate(0 0)"><path d="m  260,860L260,1250 " style="fill: none; stroke-width: 2px; stroke: black; stroke-linejoin: round; marker-end: url(&quot;#sequenceflow-end-white-black-2bjwhz33orc8sgxqtgxx3jnmf&quot;);"></path></g><g class="djs-visual" id="Flow_0vpsvtf" transform="translate(0 0)"><path d="m  260,530L260,580 " style="fill: none; stroke-width: 2px; stroke: black; stroke-linejoin: round; marker-end: url(&quot;#sequenceflow-end-white-black-2bjwhz33orc8sgxqtgxx3jnmf&quot;);"></path></g><g class="djs-visual" id="Flow_1obtzef" transform="translate(0 0)"><path d="m  260,88L260,130 " style="fill: none; stroke-width: 2px; stroke: black; stroke-linejoin: round; marker-end: url(&quot;#sequenceflow-end-white-black-2bjwhz33orc8sgxqtgxx3jnmf&quot;);"></path></g><g class="djs-visual" id="StartEvent_1bm324f" transform="translate(242 52)"><circle cx="18" cy="18" r="18" style="stroke: black; stroke-width: 2px; fill: white; fill-opacity: 0.95;"></circle></g><g class="djs-visual" id="StartEvent_1bm324f_label" transform="translate(215 -7)"><text lineHeight="1.2" class="djs-label" style="font-family: Arial, sans-serif; font-size: 11px; font-weight: normal; fill: black;"><tspan x="10.2109375" y="9.899999999999999">Hire Purchase </tspan><tspan x="0" y="23.099999999999998">Arrangement to be </tspan><tspan x="26.7109375" y="36.3">created</tspan></text></g><g class="djs-visual" id="Activity_0136l04" transform="translate(195 430)"><rect x="0" y="0" width="130" height="100" rx="10" ry="10" style="stroke: black; stroke-width: 2px; fill: white; fill-opacity: 0.95;"></rect><text lineHeight="1.2" class="djs-label" style="font-family: Arial, sans-serif; font-size: 12px; font-weight: normal; fill: black;"><tspan x="7.634765625" y="46.4">Capture arrangement </tspan><tspan x="47.65625" y="60.8">details</tspan></text></g><g class="djs-visual" id="Activity_0t0k4v4" transform="translate(195 760)"><rect x="0" y="0" width="130" height="100" rx="10" ry="10" style="stroke: black; stroke-width: 2px; fill: white; fill-opacity: 0.95;"></rect><text lineHeight="1.2" class="djs-label" style="font-family: Arial, sans-serif; font-size: 12px; font-weight: normal; fill: black;"><tspan x="16.1328125" y="46.4">Capture additional </tspan><tspan x="47.65625" y="60.8">details</tspan></text></g><g class="djs-visual" id="Activity_165cmxe" transform="translate(195 2420)"><rect x="0" y="0" width="130" height="100" rx="10" ry="10" style="stroke: black; stroke-width: 2px; fill: white; fill-opacity: 0.95;"></rect><text lineHeight="1.2" class="djs-label" style="font-family: Arial, sans-serif; font-size: 12px; font-weight: normal; fill: black;"><tspan x="9.5830078125" y="46.4">View arrangement to </tspan><tspan x="28.4765625" y="60.8">be authorised</tspan></text></g><g class="djs-visual" id="Event_0q92l2c" transform="translate(242 2852)"><circle cx="18" cy="18" r="18" style="stroke: black; stroke-width: 4px; fill: white; fill-opacity: 0.95;"></circle></g><g class="djs-visual" id="Event_0q92l2c_label" transform="translate(215 2900)"><text lineHeight="1.2" class="djs-label" style="font-family: Arial, sans-serif; font-size: 11px; font-weight: normal; fill: black;"><tspan x="10.09375" y="9.899999999999999">Hire Purchase </tspan><tspan x="0" y="23.099999999999998">arrangement to be </tspan><tspan x="22.9296875" y="36.3">activated</tspan></text></g><g class="djs-visual" id="Activity_1taiwsy" transform="translate(195 2560)"><rect x="0" y="0" width="130" height="100" rx="10" ry="10" style="stroke: black; stroke-width: 2px; fill: white; fill-opacity: 0.95;"></rect><text lineHeight="1.2" class="djs-label" style="font-family: Arial, sans-serif; font-size: 12px; font-weight: normal; fill: black;"><tspan x="39.9892578125" y="46.4">Authorise </tspan><tspan x="30.6474609375" y="60.8">arrangement</tspan></text></g><g class="djs-visual" id="Activity_1y7ejnz" transform="translate(195 280)"><rect x="0" y="0" width="130" height="100" rx="10" ry="10" style="stroke: black; stroke-width: 2px; fill: white; fill-opacity: 0.95;"></rect><text lineHeight="1.2" class="djs-label" style="font-family: Arial, sans-serif; font-size: 12px; font-weight: normal; fill: black;"><tspan x="7.4736328125" y="46.4">Select Product Group</tspan><tspan x="32.3115234375" y="60.8">and Product</tspan></text></g><g class="djs-visual" id="Activity_1o9tiwl" transform="translate(195 130)"><rect x="0" y="0" width="130" height="100" rx="10" ry="10" style="stroke: black; stroke-width: 2px; fill: white; fill-opacity: 0.95;"></rect><text lineHeight="1.2" class="djs-label" style="font-family: Arial, sans-serif; font-size: 12px; font-weight: normal; fill: black;"><tspan x="21.310546875" y="53.599999999999994">Receive request</tspan></text></g><g class="djs-visual" id="DataObjectReference_1svlolt" transform="translate(112 155)"><path d="m 0,0 28.23529411764706,0 7.058823529411765,8.196721311475411 0,40.98360655737705 -35.294117647058826,0 0,-49.18032786885246 28.23529411764706,0 0,8.196721311475411 7.058823529411765,0" style="fill: white; stroke-width: 2px; stroke: black; fill-opacity: 0.95;"></path></g><g class="djs-visual" id="DataObjectReference_1svlolt_label" transform="translate(84 205)"><text lineHeight="1.2" class="djs-label" style="font-family: Arial, sans-serif; font-size: 11px; font-weight: normal; fill: black;"><tspan x="0" y="9.899999999999999">Customer Request</tspan></text></g><g class="djs-visual" id="Activity_08jd9xw" transform="translate(195 1800)"><rect x="0" y="0" width="130" height="100" rx="10" ry="10" style="stroke: black; stroke-width: 2px; fill: white; fill-opacity: 0.95;"></rect><text lineHeight="1.2" class="djs-label" style="font-family: Arial, sans-serif; font-size: 12px; font-weight: normal; fill: black;"><tspan x="15.92578125" y="53.599999999999994">Perform Validation</tspan></text></g><g class="djs-visual" id="Gateway_0ixeakb" transform="translate(235 1955)"><polygon points="25,0 50,25 25,50 0,25" style="stroke: black; stroke-width: 2px; fill: white; fill-opacity: 0.95;"></polygon><path d="m 16,15 7.42857142857143,9.714285714285715 -7.42857142857143,9.714285714285715 3.428571428571429,0 5.714285714285715,-7.464228571428572 5.714285714285715,7.464228571428572 3.428571428571429,0 -7.42857142857143,-9.714285714285715 7.42857142857143,-9.714285714285715 -3.428571428571429,0 -5.714285714285715,7.464228571428572 -5.714285714285715,-7.464228571428572 -3.428571428571429,0 z" style="fill: black; stroke-width: 1px; stroke: black;"></path></g><g class="djs-visual" id="Activity_1ymklnq" transform="translate(415 2070)"><rect x="0" y="0" width="130" height="100" rx="10" ry="10" style="stroke: black; stroke-width: 2px; fill: white; fill-opacity: 0.95;"></rect><text lineHeight="1.2" class="djs-label" style="font-family: Arial, sans-serif; font-size: 12px; font-weight: normal; fill: black;"><tspan x="18.9765625" y="53.599999999999994">Display overrides</tspan></text></g><g class="djs-visual" id="Activity_1064aa2" transform="translate(415 2220)"><rect x="0" y="0" width="130" height="100" rx="10" ry="10" style="stroke: black; stroke-width: 2px; fill: white; fill-opacity: 0.95;"></rect><text lineHeight="1.2" class="djs-label" style="font-family: Arial, sans-serif; font-size: 12px; font-weight: normal; fill: black;"><tspan x="20.8125" y="53.599999999999994">Accept overrides</tspan></text></g><g class="djs-visual" id="Activity_0he2ds4" transform="translate(195 580)"><rect x="0" y="0" width="130" height="100" rx="10" ry="10" style="stroke: black; stroke-width: 2px; fill: white; fill-opacity: 0.95;"></rect><text lineHeight="1.2" class="djs-label" style="font-family: Arial, sans-serif; font-size: 12px; font-weight: normal; fill: black;"><tspan x="10.9716796875" y="53.599999999999994">Create arrangement</tspan></text></g><g class="djs-visual" id="Gateway_1kwk2sq" transform="translate(235 2335)"><polygon points="25,0 50,25 25,50 0,25" style="stroke: black; stroke-width: 2px; fill: white; fill-opacity: 0.95;"></polygon><path d="m 16,15 7.42857142857143,9.714285714285715 -7.42857142857143,9.714285714285715 3.428571428571429,0 5.714285714285715,-7.464228571428572 5.714285714285715,7.464228571428572 3.428571428571429,0 -7.42857142857143,-9.714285714285715 7.42857142857143,-9.714285714285715 -3.428571428571429,0 -5.714285714285715,7.464228571428572 -5.714285714285715,-7.464228571428572 -3.428571428571429,0 z" style="fill: black; stroke-width: 1px; stroke: black;"></path></g><g class="djs-visual" id="Activity_1ftt1wb" transform="translate(195 2700)"><rect x="0" y="0" width="130" height="100" rx="10" ry="10" style="stroke: black; stroke-width: 2px; fill: white; fill-opacity: 0.95;"></rect><text lineHeight="1.2" class="djs-label" style="font-family: Arial, sans-serif; font-size: 12px; font-weight: normal; fill: black;"><tspan x="9.6328125" y="53.599999999999994">Update arrangement</tspan></text></g><g class="djs-visual" id="Activity_0n9at5v" transform="translate(195 1250)"><rect x="0" y="0" width="130" height="100" rx="10" ry="10" style="stroke: black; stroke-width: 2px; fill: white; fill-opacity: 0.95;"></rect><text lineHeight="1.2" class="djs-label" style="font-family: Arial, sans-serif; font-size: 12px; font-weight: normal; fill: black;"><tspan x="8.302734375" y="46.4">Decide on settlement </tspan><tspan x="53.99609375" y="60.8">type</tspan></text></g><g class="djs-visual" id="Gateway_02qy3d1" transform="translate(235 1415)"><polygon points="25,0 50,25 25,50 0,25" style="stroke: black; stroke-width: 2px; fill: white; fill-opacity: 0.95;"></polygon><path d="m 16,15 7.42857142857143,9.714285714285715 -7.42857142857143,9.714285714285715 3.428571428571429,0 5.714285714285715,-7.464228571428572 5.714285714285715,7.464228571428572 3.428571428571429,0 -7.42857142857143,-9.714285714285715 7.42857142857143,-9.714285714285715 -3.428571428571429,0 -5.714285714285715,7.464228571428572 -5.714285714285715,-7.464228571428572 -3.428571428571429,0 z" style="fill: black; stroke-width: 1px; stroke: black;"></path></g><g class="djs-visual" id="Activity_1i9ldfw" transform="translate(505 1530)"><rect x="0" y="0" width="130" height="100" rx="10" ry="10" style="stroke: black; stroke-width: 2px; fill: white; fill-opacity: 0.95;"></rect><text lineHeight="1.2" class="djs-label" style="font-family: Arial, sans-serif; font-size: 12px; font-weight: normal; fill: black;"><tspan x="30.146484375" y="32">Capture auto </tspan><tspan x="36.9873046875" y="46.4">settlement </tspan><tspan x="21.48046875" y="60.8">instruction using </tspan><tspan x="15.978515625" y="75.19999999999999">Customer account</tspan></text></g><g class="djs-visual" id="Activity_1jvfvzp" transform="translate(945 1530)"><rect x="0" y="0" width="130" height="100" rx="10" ry="10" style="stroke: black; stroke-width: 2px; fill: white; fill-opacity: 0.95;"></rect><text lineHeight="1.2" class="djs-label" style="font-family: Arial, sans-serif; font-size: 12px; font-weight: normal; fill: black;"><tspan x="30.146484375" y="32">Capture auto </tspan><tspan x="36.9873046875" y="46.4">settlement </tspan><tspan x="21.48046875" y="60.8">instruction using </tspan><tspan x="23.81640625" y="75.19999999999999">Payment Order</tspan></text></g><g class="djs-visual" id="Gateway_1fiwdf6" transform="translate(235 1695)"><polygon points="25,0 50,25 25,50 0,25" style="stroke: black; stroke-width: 2px; fill: white; fill-opacity: 0.95;"></polygon><path d="m 16,15 7.42857142857143,9.714285714285715 -7.42857142857143,9.714285714285715 3.428571428571429,0 5.714285714285715,-7.464228571428572 5.714285714285715,7.464228571428572 3.428571428571429,0 -7.42857142857143,-9.714285714285715 7.42857142857143,-9.714285714285715 -3.428571428571429,0 -5.714285714285715,7.464228571428572 -5.714285714285715,-7.464228571428572 -3.428571428571429,0 z" style="fill: black; stroke-width: 1px; stroke: black;"></path></g><g class="djs-visual" id="TextAnnotation_1u4cyv3" transform="translate(370 420)"><rect x="0" y="0" width="135" height="56" rx="0" ry="0" style="stroke: none; stroke-width: 2px; fill: none;"></rect><path d="m 0, 0 m 10,0 l -10,0 l 0,56 l 10,0" style="fill: none; stroke-width: 2px; stroke: black;"></path><text lineHeight="1.2" class="djs-label" style="font-family: Arial, sans-serif; font-size: 12px; font-weight: normal; fill: black;"><tspan x="5" y="15.799999999999999">- Customer</tspan><tspan x="5" y="30.199999999999996">- Currency</tspan><tspan x="5" y="44.599999999999994">- Effective Date</tspan></text></g><g class="djs-visual" id="TextAnnotation_0ted5ya" transform="translate(370 700)"><rect x="0" y="0" width="525" height="559" rx="0" ry="0" style="stroke: none; stroke-width: 2px; fill: none;"></rect><path d="m 0, 0 m 10,0 l -10,0 l 0,559 l 10,0" style="fill: none; stroke-width: 2px; stroke: black;"></path><text lineHeight="1.2" class="djs-label" style="font-family: Arial, sans-serif; font-size: 12px; font-weight: normal; fill: black;"><tspan x="5" y="15.799999999999999">- Account</tspan><tspan x="5" y="30.199999999999996">&nbsp; &nbsp;- Asset Reference</tspan><tspan x="5" y="44.599999999999994">- Commitment and Term</tspan><tspan x="5" y="58.99999999999999">&nbsp; &nbsp;- Amount</tspan><tspan x="5" y="73.39999999999999">&nbsp; &nbsp;- Term</tspan><tspan x="5" y="87.79999999999998">&nbsp; &nbsp;- Adv Payment Type</tspan><tspan x="5" y="102.19999999999999">&nbsp; &nbsp;- Adv Payment Value</tspan><tspan x="5" y="116.6">- Extensions</tspan><tspan x="5" y="131">&nbsp; &nbsp;- Change Date Type</tspan><tspan x="5" y="145.4">&nbsp; &nbsp;- Change Period</tspan><tspan x="5" y="159.8">- Lease Interest</tspan><tspan x="5" y="174.20000000000002">&nbsp; &nbsp;- Interest Type &amp; Rate Grid/ Fixed Rate/ Floating Index/ Periodic Index &amp; Spread Type/</tspan><tspan x="5" y="188.60000000000002">&nbsp; &nbsp; &nbsp;Spread Oper/ Spread Rate &amp; Cust Margin Grid &amp; Margin Type &amp; Margin Oper/ Margin Reset</tspan><tspan x="5" y="203.00000000000003">- Arrangement Fee</tspan><tspan x="5" y="217.40000000000003">&nbsp; &nbsp;- Type</tspan><tspan x="5" y="231.80000000000004">&nbsp; &nbsp;- Currency</tspan><tspan x="5" y="246.20000000000005">&nbsp; &nbsp;- Rate</tspan><tspan x="5" y="260.6">&nbsp; &nbsp;- Grid Reset Method</tspan><tspan x="5" y="275">- Document Fee</tspan><tspan x="5" y="289.4">&nbsp; &nbsp;- Flat Charge</tspan><tspan x="5" y="303.79999999999995">- Vat</tspan><tspan x="5" y="318.19999999999993">&nbsp; &nbsp;- Tax Property</tspan><tspan x="5" y="332.5999999999999">&nbsp; &nbsp;- Tax Condition</tspan><tspan x="5" y="346.9999999999999">&nbsp; &nbsp;- Tax code</tspan><tspan x="5" y="361.39999999999986">&nbsp; &nbsp;- Payment Method</tspan><tspan x="5" y="375.79999999999984">- Subscription Services</tspan><tspan x="5" y="390.1999999999998">&nbsp; &nbsp;- Subscription</tspan><tspan x="5" y="404.5999999999998">&nbsp; &nbsp;- Variation</tspan><tspan x="5" y="418.9999999999998">&nbsp; &nbsp;- Payment Mode</tspan><tspan x="5" y="433.39999999999975">&nbsp; &nbsp;- Start Date</tspan><tspan x="5" y="447.7999999999997">&nbsp; &nbsp;- Term</tspan><tspan x="5" y="462.1999999999997">&nbsp; &nbsp;- Expiry Date</tspan><tspan x="5" y="476.5999999999997">&nbsp; &nbsp;- Frequency</tspan><tspan x="5" y="490.99999999999966">&nbsp; &nbsp;- Bill Produced</tspan><tspan x="5" y="505.39999999999964">- Schedule</tspan><tspan x="5" y="519.7999999999996">&nbsp; &nbsp;- Payments</tspan><tspan x="5" y="534.1999999999996">&nbsp; &nbsp;- Payment Type</tspan><tspan x="5" y="548.5999999999996">&nbsp; &nbsp;- Amount/ Percentage/ No of payment</tspan></text></g><g class="djs-visual" id="TextAnnotation_02rjxho" transform="translate(370 280)"><rect x="0" y="0" width="210" height="56" rx="0" ry="0" style="stroke: none; stroke-width: 2px; fill: none;"></rect><path d="m 0, 0 m 10,0 l -10,0 l 0,56 l 10,0" style="fill: none; stroke-width: 2px; stroke: black;"></path><text lineHeight="1.2" class="djs-label" style="font-family: Arial, sans-serif; font-size: 12px; font-weight: normal; fill: black;"><tspan x="5" y="15.799999999999999">- Hire Purchase</tspan><tspan x="5" y="30.199999999999996">&nbsp;- Hire Purchase (Cars)</tspan><tspan x="5" y="44.599999999999994">&nbsp;- Hire Purchase (Machinery)</tspan></text></g><g class="djs-visual" id="TextAnnotation_0ylvm68" transform="translate(370 570)"><rect x="0" y="0" width="170" height="40" rx="0" ry="0" style="stroke: none; stroke-width: 2px; fill: none;"></rect><path d="m 0, 0 m 10,0 l -10,0 l 0,40 l 10,0" style="fill: none; stroke-width: 2px; stroke: black;"></path><text lineHeight="1.2" class="djs-label" style="font-family: Arial, sans-serif; font-size: 12px; font-weight: normal; fill: black;"><tspan x="5" y="15.799999999999999">- Arrangement ID generated</tspan><tspan x="5" y="30.199999999999996">- Status set as Unauthorised</tspan></text></g><g class="djs-visual" id="TextAnnotation_1haen1u" transform="translate(670 1510)"><rect x="0" y="0" width="250" height="41" rx="0" ry="0" style="stroke: none; stroke-width: 2px; fill: none;"></rect><path d="m 0, 0 m 10,0 l -10,0 l 0,41 l 10,0" style="fill: none; stroke-width: 2px; stroke: black;"></path><text lineHeight="1.2" class="djs-label" style="font-family: Arial, sans-serif; font-size: 12px; font-weight: normal; fill: black;"><tspan x="5" y="15.799999999999999">- PAYIN.SETTLEMENT attribute set as Yes</tspan><tspan x="5" y="30.199999999999996">- Account (Customer Account number)</tspan></text></g><g class="djs-visual" id="TextAnnotation_09u7d05" transform="translate(1110 1510)"><rect x="0" y="0" width="250" height="41" rx="0" ry="0" style="stroke: none; stroke-width: 2px; fill: none;"></rect><path d="m 0, 0 m 10,0 l -10,0 l 0,41 l 10,0" style="fill: none; stroke-width: 2px; stroke: black;"></path><text lineHeight="1.2" class="djs-label" style="font-family: Arial, sans-serif; font-size: 12px; font-weight: normal; fill: black;"><tspan x="5" y="15.799999999999999">- PAYIN.SETTLEMENT attribute set as Yes</tspan><tspan x="5" y="30.199999999999996">- Beneficiary details</tspan></text></g><g class="djs-visual" id="DataInputAssociation_0x57uup" transform="translate(0 0)"><polyline points="148,180 195,180 " style="fill: none; stroke: black; stroke-width: 2px; stroke-dasharray: 0.5, 5; stroke-linecap: round; stroke-linejoin: round; marker-end: url(&quot;#association-end-white-black-2bjwhz33orc8sgxqtgxx3jnmf&quot;);"></polyline></g><g class="djs-visual" id="Flow_1jnpzhj_label" transform="translate(274 2010)"><text lineHeight="1.2" class="djs-label" style="font-family: Arial, sans-serif; font-size: 11px; font-weight: normal; fill: black;"><tspan x="2.70458984375" y="9.899999999999999">Validation </tspan><tspan x="0" y="23.099999999999998">successful</tspan></text></g><g class="djs-visual" id="Flow_0snoda9_label" transform="translate(488 2013)"><text lineHeight="1.2" class="djs-label" style="font-family: Arial, sans-serif; font-size: 11px; font-weight: normal; fill: black;"><tspan x="8.822265625" y="9.899999999999999">Validation </tspan><tspan x="0" y="23.099999999999998">unsuccessful</tspan></text></g><g class="djs-visual" id="Flow_08icv0o_label" transform="translate(594 1476)"><text lineHeight="1.2" class="djs-label" style="font-family: Arial, sans-serif; font-size: 11px; font-weight: normal; fill: black;"><tspan x="0" y="9.899999999999999">Internal settlement</tspan></text></g><g class="djs-visual" id="Flow_1tcl5k6_label" transform="translate(1032 1476)"><text lineHeight="1.2" class="djs-label" style="font-family: Arial, sans-serif; font-size: 11px; font-weight: normal; fill: black;"><tspan x="0" y="9.899999999999999">External settlement</tspan></text></g><g class="djs-visual" id="Flow_0uq601m_label" transform="translate(272 1463)"><text lineHeight="1.2" class="djs-label" style="font-family: Arial, sans-serif; font-size: 11px; font-weight: normal; fill: black;"><tspan x="0" y="9.899999999999999">Manual Repayment </tspan><tspan x="2.364990234375" y="23.099999999999998">(Settlement details </tspan><tspan x="15.89306640625" y="36.3">not provided)</tspan></text></g><g class="djs-visual" id="Association_007ct6m" transform="translate(0 0)"><polyline points="325,462 370,450 " style="fill: none; stroke: black; stroke-width: 2px; stroke-dasharray: 0.5, 5; stroke-linecap: round; stroke-linejoin: round;"></polyline></g><g class="djs-visual" id="Association_0g9lr62" transform="translate(0 0)"><polyline points="325,774 370,750 " style="fill: none; stroke: black; stroke-width: 2px; stroke-dasharray: 0.5, 5; stroke-linecap: round; stroke-linejoin: round;"></polyline></g><g class="djs-visual" id="Association_0e9c0v7" transform="translate(0 0)"><polyline points="325,322 370,316 " style="fill: none; stroke: black; stroke-width: 2px; stroke-dasharray: 0.5, 5; stroke-linecap: round; stroke-linejoin: round;"></polyline></g><g class="djs-visual" id="Association_0tej2n2" transform="translate(0 0)"><polyline points="325,612 370,598 " style="fill: none; stroke: black; stroke-width: 2px; stroke-dasharray: 0.5, 5; stroke-linecap: round; stroke-linejoin: round;"></polyline></g><g class="djs-visual" id="Association_1ol30nq" transform="translate(0 0)"><polyline points="635,1556 670,1542 " style="fill: none; stroke: black; stroke-width: 2px; stroke-dasharray: 0.5, 5; stroke-linecap: round; stroke-linejoin: round;"></polyline></g><g class="djs-visual" id="Association_1ccjtg2" transform="translate(0 0)"><polyline points="1075,1553 1110,1540 " style="fill: none; stroke: black; stroke-width: 2px; stroke-dasharray: 0.5, 5; stroke-linecap: round; stroke-linejoin: round;"></polyline></g></g><g><rect class="viewport" x="-3167.977578475336" y="-13.004484304932735" width="7780.269058295964" height="2959.641255605381"></rect></g></svg>