<svg width="100%" height="100%" viewBox="-50, 80, 1835, 2701"><g><g class="djs-visual" id="Flow_1wpnqn7" transform="translate(0 0)"><path d="m  860,1890L860,1982 " style="fill: none; stroke-width: 2px; stroke: black; stroke-linejoin: round; marker-end: url(&quot;#sequenceflow-end-white-black-15kxf23whr28iqbm9i4d94sfs&quot;);"></path></g><g class="djs-visual" id="Flow_1f02xdu" transform="translate(0 0)"><path d="m  860,1710L860,1790 " style="fill: none; stroke-width: 2px; stroke: black; stroke-linejoin: round; marker-end: url(&quot;#sequenceflow-end-white-black-15kxf23whr28iqbm9i4d94sfs&quot;);"></path></g><g class="djs-visual" id="Flow_10mrc5i" transform="translate(0 0)"><path d="m  595,1510L860,1510 L860,1610 " style="fill: none; stroke-width: 2px; stroke: black; stroke-linejoin: round; marker-end: url(&quot;#sequenceflow-end-white-black-15kxf23whr28iqbm9i4d94sfs&quot;);"></path></g><g class="djs-visual" id="Flow_0e6w1lx" transform="translate(0 0)"><path d="m  260,2560L260,2642 " style="fill: none; stroke-width: 2px; stroke: black; stroke-linejoin: round; marker-end: url(&quot;#sequenceflow-end-white-black-15kxf23whr28iqbm9i4d94sfs&quot;);"></path></g><g class="djs-visual" id="Flow_0cvvzz4" transform="translate(0 0)"><path d="m  260,2370L260,2460 " style="fill: none; stroke-width: 2px; stroke: black; stroke-linejoin: round; marker-end: url(&quot;#sequenceflow-end-white-black-15kxf23whr28iqbm9i4d94sfs&quot;);"></path></g><g class="djs-visual" id="Flow_196fz8w" transform="translate(0 0)"><path d="m  260,2190L260,2270 " style="fill: none; stroke-width: 2px; stroke: black; stroke-linejoin: round; marker-end: url(&quot;#sequenceflow-end-white-black-15kxf23whr28iqbm9i4d94sfs&quot;);"></path></g><g class="djs-visual" id="Flow_1v3k4ii" transform="translate(0 0)"><path d="m  260,2005L260,2090 " style="fill: none; stroke-width: 2px; stroke: black; stroke-linejoin: round; marker-end: url(&quot;#sequenceflow-end-white-black-15kxf23whr28iqbm9i4d94sfs&quot;);"></path></g><g class="djs-visual" id="Flow_1rw8uru" transform="translate(0 0)"><path d="m  570,1890L570,1980 L285,1980 " style="fill: none; stroke-width: 2px; stroke: black; stroke-linejoin: round; marker-end: url(&quot;#sequenceflow-end-white-black-15kxf23whr28iqbm9i4d94sfs&quot;);"></path></g><g class="djs-visual" id="Flow_0rrkl8t" transform="translate(0 0)"><path d="m  260,1410L260,1955 " style="fill: none; stroke-width: 2px; stroke: black; stroke-linejoin: round; marker-end: url(&quot;#sequenceflow-end-white-black-15kxf23whr28iqbm9i4d94sfs&quot;);"></path></g><g class="djs-visual" id="Flow_0jxpwuv" transform="translate(0 0)"><path d="m  570,1710L570,1790 " style="fill: none; stroke-width: 2px; stroke: black; stroke-linejoin: round; marker-end: url(&quot;#sequenceflow-end-white-black-15kxf23whr28iqbm9i4d94sfs&quot;);"></path></g><g class="djs-visual" id="Flow_0dzt4s4" transform="translate(0 0)"><path d="m  570,1535L570,1610 " style="fill: none; stroke-width: 2px; stroke: black; stroke-linejoin: round; marker-end: url(&quot;#sequenceflow-end-white-black-15kxf23whr28iqbm9i4d94sfs&quot;);"></path></g><g class="djs-visual" id="Flow_0h1m6s0" transform="translate(0 0)"><path d="m  570,1410L570,1485 " style="fill: none; stroke-width: 2px; stroke: black; stroke-linejoin: round; marker-end: url(&quot;#sequenceflow-end-white-black-15kxf23whr28iqbm9i4d94sfs&quot;);"></path></g><g class="djs-visual" id="Flow_0gp5ojg" transform="translate(0 0)"><path d="m  285,1210L570,1210 L570,1310 " style="fill: none; stroke-width: 2px; stroke: black; stroke-linejoin: round; marker-end: url(&quot;#sequenceflow-end-white-black-15kxf23whr28iqbm9i4d94sfs&quot;);"></path></g><g class="djs-visual" id="Flow_1nzvdn6" transform="translate(0 0)"><path d="m  260,1235L260,1310 " style="fill: none; stroke-width: 2px; stroke: black; stroke-linejoin: round; marker-end: url(&quot;#sequenceflow-end-white-black-15kxf23whr28iqbm9i4d94sfs&quot;);"></path></g><g class="djs-visual" id="Flow_0amkeki" transform="translate(0 0)"><path d="m  260,1110L260,1185 " style="fill: none; stroke-width: 2px; stroke: black; stroke-linejoin: round; marker-end: url(&quot;#sequenceflow-end-white-black-15kxf23whr28iqbm9i4d94sfs&quot;);"></path></g><g class="djs-visual" id="Flow_13bqpg3" transform="translate(0 0)"><path d="m  260,930L260,1010 " style="fill: none; stroke-width: 2px; stroke: black; stroke-linejoin: round; marker-end: url(&quot;#sequenceflow-end-white-black-15kxf23whr28iqbm9i4d94sfs&quot;);"></path></g><g class="djs-visual" id="Flow_0pimoce" transform="translate(0 0)"><path d="m  260,750L260,830 " style="fill: none; stroke-width: 2px; stroke: black; stroke-linejoin: round; marker-end: url(&quot;#sequenceflow-end-white-black-15kxf23whr28iqbm9i4d94sfs&quot;);"></path></g><g class="djs-visual" id="Flow_1jliurd" transform="translate(0 0)"><path d="m  260,570L260,650 " style="fill: none; stroke-width: 2px; stroke: black; stroke-linejoin: round; marker-end: url(&quot;#sequenceflow-end-white-black-15kxf23whr28iqbm9i4d94sfs&quot;);"></path></g><g class="djs-visual" id="Flow_0b1zhkb" transform="translate(0 0)"><path d="m  260,390L260,470 " style="fill: none; stroke-width: 2px; stroke: black; stroke-linejoin: round; marker-end: url(&quot;#sequenceflow-end-white-black-15kxf23whr28iqbm9i4d94sfs&quot;);"></path></g><g class="djs-visual" id="Flow_196epiu" transform="translate(0 0)"><path d="m  260,220L260,290 " style="fill: none; stroke-width: 2px; stroke: black; stroke-linejoin: round; marker-end: url(&quot;#sequenceflow-end-white-black-15kxf23whr28iqbm9i4d94sfs&quot;);"></path></g><g class="djs-visual" id="StartEvent_1bm324f" transform="translate(242 184)"><circle cx="18" cy="18" r="18" style="stroke: black; stroke-width: 2px; fill: white; fill-opacity: 0.95;"></circle></g><g class="djs-visual" id="StartEvent_1bm324f_label" transform="translate(223 136)"><text lineHeight="1.2" class="djs-label" style="font-family: Arial, sans-serif; font-size: 11px; font-weight: normal; fill: black;"><tspan x="0" y="9.899999999999999">FCY sale to be </tspan><tspan x="13.953125" y="23.099999999999998">executed</tspan></text></g><g class="djs-visual" id="Activity_15djeh6" transform="translate(195 290)"><rect x="0" y="0" width="130" height="100" rx="10" ry="10" style="stroke: black; stroke-width: 2px; fill: white; fill-opacity: 0.95;"></rect><text lineHeight="1.2" class="djs-label" style="font-family: Arial, sans-serif; font-size: 12px; font-weight: normal; fill: black;"><tspan x="15.919921875" y="46.4">Capture LCY cash </tspan><tspan x="47.65625" y="60.8">details</tspan></text></g><g class="djs-visual" id="Activity_1w1slgj" transform="translate(195 470)"><rect x="0" y="0" width="130" height="100" rx="10" ry="10" style="stroke: black; stroke-width: 2px; fill: white; fill-opacity: 0.95;"></rect><text lineHeight="1.2" class="djs-label" style="font-family: Arial, sans-serif; font-size: 12px; font-weight: normal; fill: black;"><tspan x="11.142578125" y="46.4">Check availability of </tspan><tspan x="52.501953125" y="60.8">FCY</tspan></text></g><g class="djs-visual" id="Activity_0dal0pb" transform="translate(195 650)"><rect x="0" y="0" width="130" height="100" rx="10" ry="10" style="stroke: black; stroke-width: 2px; fill: white; fill-opacity: 0.95;"></rect><text lineHeight="1.2" class="djs-label" style="font-family: Arial, sans-serif; font-size: 12px; font-weight: normal; fill: black;"><tspan x="7.6337890625" y="53.599999999999994">Assign exchange rate</tspan></text></g><g class="djs-visual" id="Activity_1eztajk" transform="translate(195 830)"><rect x="0" y="0" width="130" height="100" rx="10" ry="10" style="stroke: black; stroke-width: 2px; fill: white; fill-opacity: 0.95;"></rect><text lineHeight="1.2" class="djs-label" style="font-family: Arial, sans-serif; font-size: 12px; font-weight: normal; fill: black;"><tspan x="37.490234375" y="39.2">Input FCY </tspan><tspan x="5.953125" y="53.6">denomination and pay</tspan><tspan x="52.1630859375" y="68">cash</tspan></text></g><g class="djs-visual" id="Activity_17f8t9g" transform="translate(195 1010)"><rect x="0" y="0" width="130" height="100" rx="10" ry="10" style="stroke: black; stroke-width: 2px; fill: white; fill-opacity: 0.95;"></rect><text lineHeight="1.2" class="djs-label" style="font-family: Arial, sans-serif; font-size: 12px; font-weight: normal; fill: black;"><tspan x="10.984375" y="53.599999999999994">Verify teller/ till limits</tspan></text></g><g class="djs-visual" id="Gateway_1gjvkgg" transform="translate(235 1185)"><polygon points="25,0 50,25 25,50 0,25" style="stroke: black; stroke-width: 2px; fill: white; fill-opacity: 0.95;"></polygon><path d="m 16,15 7.42857142857143,9.714285714285715 -7.42857142857143,9.714285714285715 3.428571428571429,0 5.714285714285715,-7.464228571428572 5.714285714285715,7.464228571428572 3.428571428571429,0 -7.42857142857143,-9.714285714285715 7.42857142857143,-9.714285714285715 -3.428571428571429,0 -5.714285714285715,7.464228571428572 -5.714285714285715,-7.464228571428572 -3.428571428571429,0 z" style="fill: black; stroke-width: 1px; stroke: black;"></path></g><g class="djs-visual" id="Activity_1k0grmi" transform="translate(195 1310)"><rect x="0" y="0" width="130" height="100" rx="10" ry="10" style="stroke: black; stroke-width: 2px; fill: white; fill-opacity: 0.95;"></rect><text lineHeight="1.2" class="djs-label" style="font-family: Arial, sans-serif; font-size: 12px; font-weight: normal; fill: black;"><tspan x="12.4775390625" y="46.4">Move transaction to </tspan><tspan x="12.12890625" y="60.8">authorisation queue</tspan></text></g><g class="djs-visual" id="Activity_0gzfrig" transform="translate(505 1310)"><rect x="0" y="0" width="130" height="100" rx="10" ry="10" style="stroke: black; stroke-width: 2px; fill: white; fill-opacity: 0.95;"></rect><text lineHeight="1.2" class="djs-label" style="font-family: Arial, sans-serif; font-size: 12px; font-weight: normal; fill: black;"><tspan x="16.4765625" y="53.599999999999994">Generate override</tspan></text></g><g class="djs-visual" id="Activity_07bvtyu" transform="translate(505 1610)"><rect x="0" y="0" width="130" height="100" rx="10" ry="10" style="stroke: black; stroke-width: 2px; fill: white; fill-opacity: 0.95;"></rect><text lineHeight="1.2" class="djs-label" style="font-family: Arial, sans-serif; font-size: 12px; font-weight: normal; fill: black;"><tspan x="23.650390625" y="53.599999999999994">Accept override</tspan></text></g><g class="djs-visual" id="Activity_0byptt2" transform="translate(505 1790)"><rect x="0" y="0" width="130" height="100" rx="10" ry="10" style="stroke: black; stroke-width: 2px; fill: white; fill-opacity: 0.95;"></rect><text lineHeight="1.2" class="djs-label" style="font-family: Arial, sans-serif; font-size: 12px; font-weight: normal; fill: black;"><tspan x="12.4775390625" y="46.4">Move transaction to </tspan><tspan x="12.12890625" y="60.8">authorisation queue</tspan></text></g><g class="djs-visual" id="Gateway_0tzufvi" transform="translate(545 1485)"><polygon points="25,0 50,25 25,50 0,25" style="stroke: black; stroke-width: 2px; fill: white; fill-opacity: 0.95;"></polygon><path d="m 16,15 7.42857142857143,9.714285714285715 -7.42857142857143,9.714285714285715 3.428571428571429,0 5.714285714285715,-7.464228571428572 5.714285714285715,7.464228571428572 3.428571428571429,0 -7.42857142857143,-9.714285714285715 7.42857142857143,-9.714285714285715 -3.428571428571429,0 -5.714285714285715,7.464228571428572 -5.714285714285715,-7.464228571428572 -3.428571428571429,0 z" style="fill: black; stroke-width: 1px; stroke: black;"></path></g><g class="djs-visual" id="Gateway_0ly5hyi" transform="translate(235 1955)"><polygon points="25,0 50,25 25,50 0,25" style="stroke: black; stroke-width: 2px; fill: white; fill-opacity: 0.95;"></polygon><path d="m 16,15 7.42857142857143,9.714285714285715 -7.42857142857143,9.714285714285715 3.428571428571429,0 5.714285714285715,-7.464228571428572 5.714285714285715,7.464228571428572 3.428571428571429,0 -7.42857142857143,-9.714285714285715 7.42857142857143,-9.714285714285715 -3.428571428571429,0 -5.714285714285715,7.464228571428572 -5.714285714285715,-7.464228571428572 -3.428571428571429,0 z" style="fill: black; stroke-width: 1px; stroke: black;"></path></g><g class="djs-visual" id="Activity_01k90dm" transform="translate(195 2090)"><rect x="0" y="0" width="130" height="100" rx="10" ry="10" style="stroke: black; stroke-width: 2px; fill: white; fill-opacity: 0.95;"></rect><text lineHeight="1.2" class="djs-label" style="font-family: Arial, sans-serif; font-size: 12px; font-weight: normal; fill: black;"><tspan x="11.8037109375" y="46.4">Verify and authorise </tspan><tspan x="14.1416015625" y="60.8">currency exchange</tspan></text></g><g class="djs-visual" id="Activity_0ouby3j" transform="translate(195 2270)"><rect x="0" y="0" width="130" height="100" rx="10" ry="10" style="stroke: black; stroke-width: 2px; fill: white; fill-opacity: 0.95;"></rect><text lineHeight="1.2" class="djs-label" style="font-family: Arial, sans-serif; font-size: 12px; font-weight: normal; fill: black;"><tspan x="8.8037109375" y="46.4">Generate transaction </tspan><tspan x="43.984375" y="60.8">receipts</tspan></text></g><g class="djs-visual" id="Activity_1g4f7kv" transform="translate(195 2460)"><rect x="0" y="0" width="130" height="100" rx="10" ry="10" style="stroke: black; stroke-width: 2px; fill: white; fill-opacity: 0.95;"></rect><text lineHeight="1.2" class="djs-label" style="font-family: Arial, sans-serif; font-size: 12px; font-weight: normal; fill: black;"><tspan x="13.4765625" y="46.4">Prepare &amp; disburse </tspan><tspan x="52.1630859375" y="60.8">cash</tspan></text></g><g class="djs-visual" id="DataObjectReference_19hz8nb" transform="translate(412 2295)"><path d="m 0,0 28.23529411764706,0 7.058823529411765,8.196721311475411 0,40.98360655737705 -35.294117647058826,0 0,-49.18032786885246 28.23529411764706,0 0,8.196721311475411 7.058823529411765,0" style="fill: white; stroke-width: 2px; stroke: black; fill-opacity: 0.95;"></path></g><g class="djs-visual" id="DataObjectReference_19hz8nb_label" transform="translate(382 2352)"><text lineHeight="1.2" class="djs-label" style="font-family: Arial, sans-serif; font-size: 11px; font-weight: normal; fill: black;"><tspan x="0" y="9.899999999999999">Transaction Receipt</tspan></text></g><g class="djs-visual" id="DataObjectReference_0i9iykg" transform="translate(412 2485)"><path d="m 0,0 28.23529411764706,0 7.058823529411765,8.196721311475411 0,40.98360655737705 -35.294117647058826,0 0,-49.18032786885246 28.23529411764706,0 0,8.196721311475411 7.058823529411765,0" style="fill: white; stroke-width: 2px; stroke: black; fill-opacity: 0.95;"></path></g><g class="djs-visual" id="DataObjectReference_0i9iykg_label" transform="translate(382 2542)"><text lineHeight="1.2" class="djs-label" style="font-family: Arial, sans-serif; font-size: 11px; font-weight: normal; fill: black;"><tspan x="0" y="9.899999999999999">Transaction Receipt</tspan></text></g><g class="djs-visual" id="Event_1bjr5ws" transform="translate(242 2642)"><circle cx="18" cy="18" r="18" style="stroke: black; stroke-width: 4px; fill: white; fill-opacity: 0.95;"></circle></g><g class="djs-visual" id="Event_1bjr5ws_label" transform="translate(219 2685)"><text lineHeight="1.2" class="djs-label" style="font-family: Arial, sans-serif; font-size: 11px; font-weight: normal; fill: black;"><tspan x="0" y="9.899999999999999">Sell FCY against </tspan><tspan x="17.585205078125" y="23.099999999999998">LCY cash </tspan><tspan x="15.952392578125" y="36.3">completed</tspan></text></g><g class="djs-visual" id="Activity_1m725o8" transform="translate(795 1610)"><rect x="0" y="0" width="130" height="100" rx="10" ry="10" style="stroke: black; stroke-width: 2px; fill: white; fill-opacity: 0.95;"></rect><text lineHeight="1.2" class="djs-label" style="font-family: Arial, sans-serif; font-size: 12px; font-weight: normal; fill: black;"><tspan x="23.15625" y="53.599999999999994">Reject Override</tspan></text></g><g class="djs-visual" id="Activity_10wj06k" transform="translate(795 1790)"><rect x="0" y="0" width="130" height="100" rx="10" ry="10" style="stroke: black; stroke-width: 2px; fill: white; fill-opacity: 0.95;"></rect><text lineHeight="1.2" class="djs-label" style="font-family: Arial, sans-serif; font-size: 12px; font-weight: normal; fill: black;"><tspan x="13.4765625" y="53.599999999999994">Cancel Transaction</tspan></text></g><g class="djs-visual" id="Event_0r3qe4z" transform="translate(842 1982)"><circle cx="18" cy="18" r="18" style="stroke: black; stroke-width: 4px; fill: white; fill-opacity: 0.95;"></circle></g><g class="djs-visual" id="Event_0r3qe4z_label" transform="translate(812 2025)"><text lineHeight="1.2" class="djs-label" style="font-family: Arial, sans-serif; font-size: 11px; font-weight: normal; fill: black;"><tspan x="0" y="9.899999999999999">Transaction aborted</tspan></text></g><g class="djs-visual" id="TextAnnotation_04o1kyu" transform="translate(380 240)"><rect x="0" y="0" width="100" height="40" rx="0" ry="0" style="stroke: none; stroke-width: 2px; fill: none;"></rect><path d="m 0, 0 m 10,0 l -10,0 l 0,40 l 10,0" style="fill: none; stroke-width: 2px; stroke: black;"></path><text lineHeight="1.2" class="djs-label" style="font-family: Arial, sans-serif; font-size: 12px; font-weight: normal; fill: black;"><tspan x="5" y="15.799999999999999">- Amount&nbsp; &nbsp; &nbsp; &nbsp; &nbsp;</tspan><tspan x="5" y="30.199999999999996">- Cash received</tspan></text></g><g class="djs-visual" id="TextAnnotation_1abbhre" transform="translate(370 580)"><rect x="0" y="0" width="120" height="40" rx="0" ry="0" style="stroke: none; stroke-width: 2px; fill: none;"></rect><path d="m 0, 0 m 10,0 l -10,0 l 0,40 l 10,0" style="fill: none; stroke-width: 2px; stroke: black;"></path><text lineHeight="1.2" class="djs-label" style="font-family: Arial, sans-serif; font-size: 12px; font-weight: normal; fill: black;"><tspan x="5" y="15.799999999999999">Convert amount into </tspan><tspan x="5" y="30.199999999999996">foreign currency</tspan></text></g><g class="djs-visual" id="TextAnnotation_0mv89f5" transform="translate(380 760)"><rect x="0" y="0" width="100" height="54" rx="0" ry="0" style="stroke: none; stroke-width: 2px; fill: none;"></rect><path d="m 0, 0 m 10,0 l -10,0 l 0,54 l 10,0" style="fill: none; stroke-width: 2px; stroke: black;"></path><text lineHeight="1.2" class="djs-label" style="font-family: Arial, sans-serif; font-size: 12px; font-weight: normal; fill: black;"><tspan x="5" y="15.799999999999999">- Amount&nbsp; &nbsp; &nbsp; &nbsp; &nbsp; &nbsp;</tspan><tspan x="5" y="30.199999999999996">- Currency&nbsp; &nbsp; &nbsp; &nbsp; </tspan><tspan x="5" y="44.599999999999994">- Cash paid</tspan></text></g><g class="djs-visual" id="Flow_1nzvdn6_label" transform="translate(267 1263)"><text lineHeight="1.2" class="djs-label" style="font-family: Arial, sans-serif; font-size: 11px; font-weight: normal; fill: black;"><tspan x="0" y="9.899999999999999">Within Limit</tspan></text></g><g class="djs-visual" id="Flow_0gp5ojg_label" transform="translate(578 1253)"><text lineHeight="1.2" class="djs-label" style="font-family: Arial, sans-serif; font-size: 11px; font-weight: normal; fill: black;"><tspan x="0" y="9.899999999999999">Limit exceeded</tspan></text></g><g class="djs-visual" id="Flow_0dzt4s4_label" transform="translate(575 1556)"><text lineHeight="1.2" class="djs-label" style="font-family: Arial, sans-serif; font-size: 11px; font-weight: normal; fill: black;"><tspan x="0" y="9.899999999999999">Override to be </tspan><tspan x="12.5234375" y="23.099999999999998">accepted</tspan></text></g><g class="djs-visual" id="Flow_1v3k4ii_label" transform="translate(267 2021)"><text lineHeight="1.2" class="djs-label" style="font-family: Arial, sans-serif; font-size: 11px; font-weight: normal; fill: black;"><tspan x="1.3203125" y="9.899999999999999">Transaction </tspan><tspan x="0" y="23.099999999999998">prompted to </tspan><tspan x="4.225830078125" y="36.3">authoriser</tspan></text></g><g class="djs-visual" id="DataOutputAssociation_121xxtp" transform="translate(0 0)"><polyline points="325,2320 412,2320 " style="fill: none; stroke: black; stroke-width: 2px; stroke-dasharray: 0.5, 5; stroke-linecap: round; stroke-linejoin: round; marker-end: url(&quot;#association-end-white-black-15kxf23whr28iqbm9i4d94sfs&quot;);"></polyline></g><g class="djs-visual" id="DataOutputAssociation_1irr14z" transform="translate(0 0)"><polyline points="325,2510 412,2510 " style="fill: none; stroke: black; stroke-width: 2px; stroke-dasharray: 0.5, 5; stroke-linecap: round; stroke-linejoin: round; marker-end: url(&quot;#association-end-white-black-15kxf23whr28iqbm9i4d94sfs&quot;);"></polyline></g><g class="djs-visual" id="Flow_10mrc5i_label" transform="translate(865 1551)"><text lineHeight="1.2" class="djs-label" style="font-family: Arial, sans-serif; font-size: 11px; font-weight: normal; fill: black;"><tspan x="0" y="9.899999999999999">Override to be </tspan><tspan x="14.359375" y="23.099999999999998">declined</tspan></text></g><g class="djs-visual" id="Association_1vumkie" transform="translate(0 0)"><polyline points="323,295 380,255 " style="fill: none; stroke: black; stroke-width: 2px; stroke-dasharray: 0.5, 5; stroke-linecap: round; stroke-linejoin: round;"></polyline></g><g class="djs-visual" id="Association_1l12coy" transform="translate(0 0)"><polyline points="320,650 370,600 " style="fill: none; stroke: black; stroke-width: 2px; stroke-dasharray: 0.5, 5; stroke-linecap: round; stroke-linejoin: round;"></polyline></g><g class="djs-visual" id="Association_0a2dz0f" transform="translate(0 0)"><polyline points="321,833 380,787 " style="fill: none; stroke: black; stroke-width: 2px; stroke-dasharray: 0.5, 5; stroke-linecap: round; stroke-linejoin: round;"></polyline></g></g><g><rect class="viewport" x="-2850.9133858267714" y="129.87007874015748" width="6830.708661417323" height="2598.4251968503936"></rect></g></svg>