<svg width="100%" height="100%" viewBox="-50, -210, 1835, 3711"><g><g class="djs-visual" id="Flow_0pavbhg" transform="translate(0 0)"><path d="m  205,3280L470,3280 L470,3362 " style="fill: none; stroke-width: 2px; stroke: black; stroke-linejoin: round; marker-end: url(&quot;#sequenceflow-end-white-black-8qctg8nd9o4jnff1pm9h5051k&quot;);"></path></g><g class="djs-visual" id="Flow_0vc37lp" transform="translate(0 0)"><path d="m  205,3280L330,3280 L330,3362 " style="fill: none; stroke-width: 2px; stroke: black; stroke-linejoin: round; marker-end: url(&quot;#sequenceflow-end-white-black-8qctg8nd9o4jnff1pm9h5051k&quot;);"></path></g><g class="djs-visual" id="Flow_1cak3nk" transform="translate(0 0)"><path d="m  180,3305L180,3362 " style="fill: none; stroke-width: 2px; stroke: black; stroke-linejoin: round; marker-end: url(&quot;#sequenceflow-end-white-black-8qctg8nd9o4jnff1pm9h5051k&quot;);"></path></g><g class="djs-visual" id="Flow_0ltycvq" transform="translate(0 0)"><path d="m  180,3160L180,3255 " style="fill: none; stroke-width: 2px; stroke: black; stroke-linejoin: round; marker-end: url(&quot;#sequenceflow-end-white-black-8qctg8nd9o4jnff1pm9h5051k&quot;);"></path></g><g class="djs-visual" id="Flow_0ic41cc" transform="translate(0 0)"><path d="m  180,2984L180,3060 " style="fill: none; stroke-width: 2px; stroke: black; stroke-linejoin: round; marker-end: url(&quot;#sequenceflow-end-white-black-8qctg8nd9o4jnff1pm9h5051k&quot;);"></path></g><g class="djs-visual" id="Flow_1frt1hc" transform="translate(0 0)"><path d="m  180,2810L180,2884 " style="fill: none; stroke-width: 2px; stroke: black; stroke-linejoin: round; marker-end: url(&quot;#sequenceflow-end-white-black-8qctg8nd9o4jnff1pm9h5051k&quot;);"></path></g><g class="djs-visual" id="Flow_0ikxtwo" transform="translate(0 0)"><path d="m  180,2640L180,2710 " style="fill: none; stroke-width: 2px; stroke: black; stroke-linejoin: round; marker-end: url(&quot;#sequenceflow-end-white-black-8qctg8nd9o4jnff1pm9h5051k&quot;);"></path></g><g class="djs-visual" id="Flow_0r00j84" transform="translate(0 0)"><path d="m  180,2475L180,2540 " style="fill: none; stroke-width: 2px; stroke: black; stroke-linejoin: round; marker-end: url(&quot;#sequenceflow-end-white-black-8qctg8nd9o4jnff1pm9h5051k&quot;);"></path></g><g class="djs-visual" id="Flow_0rfsk5h" transform="translate(0 0)"><path d="m  430,2370L430,2450 L205,2450 " style="fill: none; stroke-width: 2px; stroke: black; stroke-linejoin: round; marker-end: url(&quot;#sequenceflow-end-white-black-8qctg8nd9o4jnff1pm9h5051k&quot;);"></path></g><g class="djs-visual" id="Flow_0agzt2p" transform="translate(0 0)"><path d="m  205,2210L430,2210 L430,2270 " style="fill: none; stroke-width: 2px; stroke: black; stroke-linejoin: round; marker-end: url(&quot;#sequenceflow-end-white-black-8qctg8nd9o4jnff1pm9h5051k&quot;);"></path></g><g class="djs-visual" id="Flow_1ancy06" transform="translate(0 0)"><path d="m  180,2235L180,2425 " style="fill: none; stroke-width: 2px; stroke: black; stroke-linejoin: round; marker-end: url(&quot;#sequenceflow-end-white-black-8qctg8nd9o4jnff1pm9h5051k&quot;);"></path></g><g class="djs-visual" id="Flow_1po3fst" transform="translate(0 0)"><path d="m  180,2120L180,2185 " style="fill: none; stroke-width: 2px; stroke: black; stroke-linejoin: round; marker-end: url(&quot;#sequenceflow-end-white-black-8qctg8nd9o4jnff1pm9h5051k&quot;);"></path></g><g class="djs-visual" id="Flow_03ryr1y" transform="translate(0 0)"><path d="m  180,1910L180,2020 " style="fill: none; stroke-width: 2px; stroke: black; stroke-linejoin: round; marker-end: url(&quot;#sequenceflow-end-white-black-8qctg8nd9o4jnff1pm9h5051k&quot;);"></path></g><g class="djs-visual" id="Flow_0ri8cgg" transform="translate(0 0)"><path d="m  180,1730L180,1810 " style="fill: none; stroke-width: 2px; stroke: black; stroke-linejoin: round; marker-end: url(&quot;#sequenceflow-end-white-black-8qctg8nd9o4jnff1pm9h5051k&quot;);"></path></g><g class="djs-visual" id="Flow_1i20dsx" transform="translate(0 0)"><path d="m  180,1550L180,1630 " style="fill: none; stroke-width: 2px; stroke: black; stroke-linejoin: round; marker-end: url(&quot;#sequenceflow-end-white-black-8qctg8nd9o4jnff1pm9h5051k&quot;);"></path></g><g class="djs-visual" id="Flow_18c7cod" transform="translate(0 0)"><path d="m  180,1385L180,1450 " style="fill: none; stroke-width: 2px; stroke: black; stroke-linejoin: round; marker-end: url(&quot;#sequenceflow-end-white-black-8qctg8nd9o4jnff1pm9h5051k&quot;);"></path></g><g class="djs-visual" id="Flow_10gn9mj" transform="translate(0 0)"><path d="m  760,1316L760,1360 L205,1360 " style="fill: none; stroke-width: 2px; stroke: black; stroke-linejoin: round; marker-end: url(&quot;#sequenceflow-end-white-black-8qctg8nd9o4jnff1pm9h5051k&quot;);"></path></g><g class="djs-visual" id="Flow_0v78j1e" transform="translate(0 0)"><path d="m  760,1155L760,1216 " style="fill: none; stroke-width: 2px; stroke: black; stroke-linejoin: round; marker-end: url(&quot;#sequenceflow-end-white-black-8qctg8nd9o4jnff1pm9h5051k&quot;);"></path></g><g class="djs-visual" id="Flow_01s8801" transform="translate(0 0)"><path d="m  995,1050L995,1130 L785,1130 " style="fill: none; stroke-width: 2px; stroke: black; stroke-linejoin: round; marker-end: url(&quot;#sequenceflow-end-white-black-8qctg8nd9o4jnff1pm9h5051k&quot;);"></path></g><g class="djs-visual" id="Flow_0jxqha3" transform="translate(0 0)"><path d="m  785,870L995,870 L995,950 " style="fill: none; stroke-width: 2px; stroke: black; stroke-linejoin: round; marker-end: url(&quot;#sequenceflow-end-white-black-8qctg8nd9o4jnff1pm9h5051k&quot;);"></path></g><g class="djs-visual" id="Flow_1effmor" transform="translate(0 0)"><path d="m  760,895L760,1105 " style="fill: none; stroke-width: 2px; stroke: black; stroke-linejoin: round; marker-end: url(&quot;#sequenceflow-end-white-black-8qctg8nd9o4jnff1pm9h5051k&quot;);"></path></g><g class="djs-visual" id="Flow_154662r" transform="translate(0 0)"><path d="m  760,770L760,845 " style="fill: none; stroke-width: 2px; stroke: black; stroke-linejoin: round; marker-end: url(&quot;#sequenceflow-end-white-black-8qctg8nd9o4jnff1pm9h5051k&quot;);"></path></g><g class="djs-visual" id="Flow_04skrxt" transform="translate(0 0)"><path d="m  205,570L760,570 L760,670 " style="fill: none; stroke-width: 2px; stroke: black; stroke-linejoin: round; marker-end: url(&quot;#sequenceflow-end-white-black-8qctg8nd9o4jnff1pm9h5051k&quot;);"></path></g><g class="djs-visual" id="Flow_1a346ws" transform="translate(0 0)"><path d="m  180,990L180,1335 " style="fill: none; stroke-width: 2px; stroke: black; stroke-linejoin: round; marker-end: url(&quot;#sequenceflow-end-white-black-8qctg8nd9o4jnff1pm9h5051k&quot;);"></path></g><g class="djs-visual" id="Flow_1dcyeh7" transform="translate(0 0)"><path d="m  180,770L180,890 " style="fill: none; stroke-width: 2px; stroke: black; stroke-linejoin: round; marker-end: url(&quot;#sequenceflow-end-white-black-8qctg8nd9o4jnff1pm9h5051k&quot;);"></path></g><g class="djs-visual" id="Flow_1bkny3z" transform="translate(0 0)"><path d="m  180,595L180,670 " style="fill: none; stroke-width: 2px; stroke: black; stroke-linejoin: round; marker-end: url(&quot;#sequenceflow-end-white-black-8qctg8nd9o4jnff1pm9h5051k&quot;);"></path></g><g class="djs-visual" id="Flow_1qoysgs" transform="translate(0 0)"><path d="m  180,480L180,545 " style="fill: none; stroke-width: 2px; stroke: black; stroke-linejoin: round; marker-end: url(&quot;#sequenceflow-end-white-black-8qctg8nd9o4jnff1pm9h5051k&quot;);"></path></g><g class="djs-visual" id="Flow_0kyfj8d" transform="translate(0 0)"><path d="m  180,300L180,380 " style="fill: none; stroke-width: 2px; stroke: black; stroke-linejoin: round; marker-end: url(&quot;#sequenceflow-end-white-black-8qctg8nd9o4jnff1pm9h5051k&quot;);"></path></g><g class="djs-visual" id="Flow_0lzfhlq" transform="translate(0 0)"><path d="m  180,120L180,200 " style="fill: none; stroke-width: 2px; stroke: black; stroke-linejoin: round; marker-end: url(&quot;#sequenceflow-end-white-black-8qctg8nd9o4jnff1pm9h5051k&quot;);"></path></g><g class="djs-visual" id="Flow_0dnajkl" transform="translate(0 0)"><path d="m  180,-57L180,20 " style="fill: none; stroke-width: 2px; stroke: black; stroke-linejoin: round; marker-end: url(&quot;#sequenceflow-end-white-black-8qctg8nd9o4jnff1pm9h5051k&quot;);"></path></g><g class="djs-visual" id="StartEvent_1bm324f" transform="translate(162 -93)"><circle cx="18" cy="18" r="18" style="stroke: black; stroke-width: 2px; fill: white; fill-opacity: 0.95;"></circle></g><g class="djs-visual" id="StartEvent_1bm324f_label" transform="translate(146 -154)"><text lineHeight="1.2" class="djs-label" style="font-family: Arial, sans-serif; font-size: 11px; font-weight: normal; fill: black;"><tspan x="16.084228515625" y="9.899999999999999">Manual </tspan><tspan x="0" y="23.099999999999998">Disbursement</tspan></text></g><g class="djs-visual" id="Activity_0vml1vt" transform="translate(115 20)"><rect x="0" y="0" width="130" height="100" rx="10" ry="10" style="stroke: black; stroke-width: 2px; fill: white; fill-opacity: 0.95;"></rect><text lineHeight="1.2" class="djs-label" style="font-family: Arial, sans-serif; font-size: 12px; font-weight: normal; fill: black;"><tspan x="22.306640625" y="46.4">Choose product </tspan><tspan x="38.8154296875" y="60.8">catalogue</tspan></text></g><g class="djs-visual" id="Activity_0bjw94g" transform="translate(115 200)"><rect x="0" y="0" width="130" height="100" rx="10" ry="10" style="stroke: black; stroke-width: 2px; fill: white; fill-opacity: 0.95;"></rect><text lineHeight="1.2" class="djs-label" style="font-family: Arial, sans-serif; font-size: 12px; font-weight: normal; fill: black;"><tspan x="34.8125" y="46.4">Set up new </tspan><tspan x="30.6474609375" y="60.8">arrangement</tspan></text></g><g class="djs-visual" id="Activity_13uve5g" transform="translate(115 380)"><rect x="0" y="0" width="130" height="100" rx="10" ry="10" style="stroke: black; stroke-width: 2px; fill: white; fill-opacity: 0.95;"></rect><text lineHeight="1.2" class="djs-label" style="font-family: Arial, sans-serif; font-size: 12px; font-weight: normal; fill: black;"><tspan x="14.478515625" y="53.599999999999994">Select Pricing Plan</tspan></text></g><g class="djs-visual" id="Gateway_15u4m7l" transform="translate(155 545)"><polygon points="25,0 50,25 25,50 0,25" style="stroke: black; stroke-width: 2px; fill: white; fill-opacity: 0.95;"></polygon><path d="m 16,15 7.42857142857143,9.714285714285715 -7.42857142857143,9.714285714285715 3.428571428571429,0 5.714285714285715,-7.464228571428572 5.714285714285715,7.464228571428572 3.428571428571429,0 -7.42857142857143,-9.714285714285715 7.42857142857143,-9.714285714285715 -3.428571428571429,0 -5.714285714285715,7.464228571428572 -5.714285714285715,-7.464228571428572 -3.428571428571429,0 z" style="fill: black; stroke-width: 1px; stroke: black;"></path></g><g class="djs-visual" id="Activity_1wqh3jk" transform="translate(115 670)"><rect x="0" y="0" width="130" height="100" rx="10" ry="10" style="stroke: black; stroke-width: 2px; fill: white; fill-opacity: 0.95;"></rect><text lineHeight="1.2" class="djs-label" style="font-family: Arial, sans-serif; font-size: 12px; font-weight: normal; fill: black;"><tspan x="34.1455078125" y="39.2">Set up auto </tspan><tspan x="36.3193359375" y="53.6">repayment </tspan><tspan x="34.6484375" y="68">instructions</tspan></text></g><g class="djs-visual" id="Activity_1s979dt" transform="translate(115 890)"><rect x="0" y="0" width="130" height="100" rx="10" ry="10" style="stroke: black; stroke-width: 2px; fill: white; fill-opacity: 0.95;"></rect><text lineHeight="1.2" class="djs-label" style="font-family: Arial, sans-serif; font-size: 12px; font-weight: normal; fill: black;"><tspan x="11.8037109375" y="46.4">Verify and authorise </tspan><tspan x="17.9736328125" y="60.8">new arrangement</tspan></text></g><g class="djs-visual" id="Gateway_02l1j0a" transform="translate(155 1335)"><polygon points="25,0 50,25 25,50 0,25" style="stroke: black; stroke-width: 2px; fill: white; fill-opacity: 0.95;"></polygon><path d="m 16,15 7.42857142857143,9.714285714285715 -7.42857142857143,9.714285714285715 3.428571428571429,0 5.714285714285715,-7.464228571428572 5.714285714285715,7.464228571428572 3.428571428571429,0 -7.42857142857143,-9.714285714285715 7.42857142857143,-9.714285714285715 -3.428571428571429,0 -5.714285714285715,7.464228571428572 -5.714285714285715,-7.464228571428572 -3.428571428571429,0 z" style="fill: black; stroke-width: 1px; stroke: black;"></path></g><g class="djs-visual" id="Activity_0ctzk8o" transform="translate(695 670)"><rect x="0" y="0" width="130" height="100" rx="10" ry="10" style="stroke: black; stroke-width: 2px; fill: white; fill-opacity: 0.95;"></rect><text lineHeight="1.2" class="djs-label" style="font-family: Arial, sans-serif; font-size: 12px; font-weight: normal; fill: black;"><tspan x="27.8115234375" y="46.4">Decide on the </tspan><tspan x="14.8095703125" y="60.8">repayment method</tspan></text></g><g class="djs-visual" id="Gateway_1hkibmv" transform="translate(735 845)"><polygon points="25,0 50,25 25,50 0,25" style="stroke: black; stroke-width: 2px; fill: white; fill-opacity: 0.95;"></polygon><path d="m 16,15 7.42857142857143,9.714285714285715 -7.42857142857143,9.714285714285715 3.428571428571429,0 5.714285714285715,-7.464228571428572 5.714285714285715,7.464228571428572 3.428571428571429,0 -7.42857142857143,-9.714285714285715 7.42857142857143,-9.714285714285715 -3.428571428571429,0 -5.714285714285715,7.464228571428572 -5.714285714285715,-7.464228571428572 -3.428571428571429,0 z" style="fill: black; stroke-width: 1px; stroke: black;"></path></g><g class="djs-visual" id="Gateway_01mttgy" transform="translate(735 1105)"><polygon points="25,0 50,25 25,50 0,25" style="stroke: black; stroke-width: 2px; fill: white; fill-opacity: 0.95;"></polygon><path d="m 16,15 7.42857142857143,9.714285714285715 -7.42857142857143,9.714285714285715 3.428571428571429,0 5.714285714285715,-7.464228571428572 5.714285714285715,7.464228571428572 3.428571428571429,0 -7.42857142857143,-9.714285714285715 7.42857142857143,-9.714285714285715 -3.428571428571429,0 -5.714285714285715,7.464228571428572 -5.714285714285715,-7.464228571428572 -3.428571428571429,0 z" style="fill: black; stroke-width: 1px; stroke: black;"></path></g><g class="djs-visual" id="Activity_0dpatwr" transform="translate(695 1216)"><rect x="0" y="0" width="130" height="100" rx="10" ry="10" style="stroke: black; stroke-width: 2px; fill: white; fill-opacity: 0.95;"></rect><text lineHeight="1.2" class="djs-label" style="font-family: Arial, sans-serif; font-size: 12px; font-weight: normal; fill: black;"><tspan x="11.8037109375" y="46.4">Verify and authorise </tspan><tspan x="17.9736328125" y="60.8">new arrangement</tspan></text></g><g class="djs-visual" id="Activity_1anwc6f" transform="translate(115 1450)"><rect x="0" y="0" width="130" height="100" rx="10" ry="10" style="stroke: black; stroke-width: 2px; fill: white; fill-opacity: 0.95;"></rect><text lineHeight="1.2" class="djs-label" style="font-family: Arial, sans-serif; font-size: 12px; font-weight: normal; fill: black;"><tspan x="12.474609375" y="53.599999999999994">Create Ijara finance</tspan></text></g><g class="djs-visual" id="Activity_0ks3kj8" transform="translate(115 1630)"><rect x="0" y="0" width="130" height="100" rx="10" ry="10" style="stroke: black; stroke-width: 2px; fill: white; fill-opacity: 0.95;"></rect><text lineHeight="1.2" class="djs-label" style="font-family: Arial, sans-serif; font-size: 12px; font-weight: normal; fill: black;"><tspan x="20.8095703125" y="53.599999999999994">Generate advice</tspan></text></g><g class="djs-visual" id="DataObjectReference_18spz9h" transform="translate(342 1655)"><path d="m 0,0 28.23529411764706,0 7.058823529411765,8.196721311475411 0,40.98360655737705 -35.294117647058826,0 0,-49.18032786885246 28.23529411764706,0 0,8.196721311475411 7.058823529411765,0" style="fill: white; stroke-width: 2px; stroke: black; fill-opacity: 0.95;"></path></g><g class="djs-visual" id="DataObjectReference_18spz9h_label" transform="translate(314 1712)"><text lineHeight="1.2" class="djs-label" style="font-family: Arial, sans-serif; font-size: 11px; font-weight: normal; fill: black;"><tspan x="23.123046875" y="9.899999999999999">Repayment </tspan><tspan x="5.078857421875" y="23.099999999999998">Schedule; Letter of </tspan><tspan x="0" y="36.3">Terms and conditions</tspan></text></g><g class="djs-visual" id="Activity_1pku3zx" transform="translate(115 1810)"><rect x="0" y="0" width="130" height="100" rx="10" ry="10" style="stroke: black; stroke-width: 2px; fill: white; fill-opacity: 0.95;"></rect><text lineHeight="1.2" class="djs-label" style="font-family: Arial, sans-serif; font-size: 12px; font-weight: normal; fill: black;"><tspan x="20.484375" y="46.4">Deliver advice to </tspan><tspan x="38.4912109375" y="60.8">Customer</tspan></text></g><g class="djs-visual" id="DataObjectReference_0sd2wb7" transform="translate(342 1835)"><path d="m 0,0 28.23529411764706,0 7.058823529411765,8.196721311475411 0,40.98360655737705 -35.294117647058826,0 0,-49.18032786885246 28.23529411764706,0 0,8.196721311475411 7.058823529411765,0" style="fill: white; stroke-width: 2px; stroke: black; fill-opacity: 0.95;"></path></g><g class="djs-visual" id="DataObjectReference_0sd2wb7_label" transform="translate(314 1892)"><text lineHeight="1.2" class="djs-label" style="font-family: Arial, sans-serif; font-size: 11px; font-weight: normal; fill: black;"><tspan x="23.123046875" y="9.899999999999999">Repayment </tspan><tspan x="5.078857421875" y="23.099999999999998">Schedule; Letter of </tspan><tspan x="0" y="36.3">Terms and conditions</tspan></text></g><g class="djs-visual" id="Activity_1cfujw3" transform="translate(115 2020)"><rect x="0" y="0" width="130" height="100" rx="10" ry="10" style="stroke: black; stroke-width: 2px; fill: white; fill-opacity: 0.95;"></rect><text lineHeight="1.2" class="djs-label" style="font-family: Arial, sans-serif; font-size: 12px; font-weight: normal; fill: black;"><tspan x="18.138671875" y="46.4">Check for Vendor </tspan><tspan x="40.9892578125" y="60.8">Payment</tspan></text></g><g class="djs-visual" id="Gateway_0793i1r" transform="translate(155 2185)"><polygon points="25,0 50,25 25,50 0,25" style="stroke: black; stroke-width: 2px; fill: white; fill-opacity: 0.95;"></polygon><path d="m 16,15 7.42857142857143,9.714285714285715 -7.42857142857143,9.714285714285715 3.428571428571429,0 5.714285714285715,-7.464228571428572 5.714285714285715,7.464228571428572 3.428571428571429,0 -7.42857142857143,-9.714285714285715 7.42857142857143,-9.714285714285715 -3.428571428571429,0 -5.714285714285715,7.464228571428572 -5.714285714285715,-7.464228571428572 -3.428571428571429,0 z" style="fill: black; stroke-width: 1px; stroke: black;"></path></g><g class="djs-visual" id="Gateway_0c445rz" transform="translate(155 2425)"><polygon points="25,0 50,25 25,50 0,25" style="stroke: black; stroke-width: 2px; fill: white; fill-opacity: 0.95;"></polygon><path d="m 16,15 7.42857142857143,9.714285714285715 -7.42857142857143,9.714285714285715 3.428571428571429,0 5.714285714285715,-7.464228571428572 5.714285714285715,7.464228571428572 3.428571428571429,0 -7.42857142857143,-9.714285714285715 7.42857142857143,-9.714285714285715 -3.428571428571429,0 -5.714285714285715,7.464228571428572 -5.714285714285715,-7.464228571428572 -3.428571428571429,0 z" style="fill: black; stroke-width: 1px; stroke: black;"></path></g><g class="djs-visual" id="Activity_1ekln34" transform="translate(115 2540)"><rect x="0" y="0" width="130" height="100" rx="10" ry="10" style="stroke: black; stroke-width: 2px; fill: white; fill-opacity: 0.95;"></rect><text lineHeight="1.2" class="djs-label" style="font-family: Arial, sans-serif; font-size: 12px; font-weight: normal; fill: black;"><tspan x="10.142578125" y="46.4">Select customer and </tspan><tspan x="45.9892578125" y="60.8">finance</tspan></text></g><g class="djs-visual" id="Activity_1pgjj2x" transform="translate(115 2710)"><rect x="0" y="0" width="130" height="100" rx="10" ry="10" style="stroke: black; stroke-width: 2px; fill: white; fill-opacity: 0.95;"></rect><text lineHeight="1.2" class="djs-label" style="font-family: Arial, sans-serif; font-size: 12px; font-weight: normal; fill: black;"><tspan x="19.1455078125" y="46.4">Disburse through </tspan><tspan x="21.4755859375" y="60.8">account transfer</tspan></text></g><g class="djs-visual" id="Activity_036gab3" transform="translate(115 2884)"><rect x="0" y="0" width="130" height="100" rx="10" ry="10" style="stroke: black; stroke-width: 2px; fill: white; fill-opacity: 0.95;"></rect><text lineHeight="1.2" class="djs-label" style="font-family: Arial, sans-serif; font-size: 12px; font-weight: normal; fill: black;"><tspan x="11.8037109375" y="46.4">Verify and authorise </tspan><tspan x="28.6494140625" y="60.8">disbursement</tspan></text></g><g class="djs-visual" id="Activity_02m1hxh" transform="translate(115 3060)"><rect x="0" y="0" width="130" height="100" rx="10" ry="10" style="stroke: black; stroke-width: 2px; fill: white; fill-opacity: 0.95;"></rect><text lineHeight="1.2" class="djs-label" style="font-family: Arial, sans-serif; font-size: 12px; font-weight: normal; fill: black;"><tspan x="22.9765625" y="53.599999999999994">Disburse Funds</tspan></text></g><g class="djs-visual" id="Gateway_0pb5qhg" transform="translate(155 3255)"><polygon points="25,0 50,25 25,50 0,25" style="stroke: black; stroke-width: 2px; fill: white; fill-opacity: 0.95;"></polygon><path d="m 16,15 7.42857142857143,9.714285714285715 -7.42857142857143,9.714285714285715 3.428571428571429,0 5.714285714285715,-7.464228571428572 5.714285714285715,7.464228571428572 3.428571428571429,0 -7.42857142857143,-9.714285714285715 7.42857142857143,-9.714285714285715 -3.428571428571429,0 -5.714285714285715,7.464228571428572 -5.714285714285715,-7.464228571428572 -3.428571428571429,0 z" style="fill: black; stroke-width: 1px; stroke: black;"></path></g><g class="djs-visual" id="Event_0k7u12m" transform="translate(162 3362)"><circle cx="18" cy="18" r="18" style="stroke: black; stroke-width: 4px; fill: white; fill-opacity: 0.95;"></circle></g><g class="djs-visual" id="Event_0k7u12m_label" transform="translate(146 3405)"><text lineHeight="1.2" class="djs-label" style="font-family: Arial, sans-serif; font-size: 11px; font-weight: normal; fill: black;"><tspan x="13.553466796875" y="9.899999999999999">Supplier </tspan><tspan x="0" y="23.099999999999998">Disbursement </tspan><tspan x="9.018310546875" y="36.3">completed</tspan></text></g><g class="djs-visual" id="Event_0r9nepw" transform="translate(312 3362)"><circle cx="18" cy="18" r="18" style="stroke: black; stroke-width: 4px; fill: white; fill-opacity: 0.95;"></circle></g><g class="djs-visual" id="Event_0r9nepw_label" transform="translate(296 3405)"><text lineHeight="1.2" class="djs-label" style="font-family: Arial, sans-serif; font-size: 11px; font-weight: normal; fill: black;"><tspan x="13.553466796875" y="9.899999999999999">Supplier </tspan><tspan x="0" y="23.099999999999998">Disbursement </tspan><tspan x="9.018310546875" y="36.3">completed</tspan></text></g><g class="djs-visual" id="Event_1hes684" transform="translate(452 3362)"><circle cx="18" cy="18" r="18" style="stroke: black; stroke-width: 4px; fill: white; fill-opacity: 0.95;"></circle></g><g class="djs-visual" id="Event_1hes684_label" transform="translate(436 3405)"><text lineHeight="1.2" class="djs-label" style="font-family: Arial, sans-serif; font-size: 11px; font-weight: normal; fill: black;"><tspan x="13.553466796875" y="9.899999999999999">Supplier </tspan><tspan x="0" y="23.099999999999998">Disbursement </tspan><tspan x="9.018310546875" y="36.3">completed</tspan></text></g><g class="djs-visual" id="Activity_1j65ow3" transform="translate(930 950)"><rect x="0" y="0" width="130" height="100" rx="10" ry="10" style="stroke: black; stroke-width: 5px; fill: white; fill-opacity: 0.95;"></rect><text lineHeight="1.2" class="djs-label" style="font-family: Arial, sans-serif; font-size: 12px; font-weight: normal; fill: black;"><tspan x="9.31640625" y="46.4">Register Direct Debit </tspan><tspan x="12.984375" y="60.8">Mandate (IF) (PBA)</tspan></text><rect x="0" y="0" width="14" height="14" rx="0" ry="0" style="stroke: black; stroke-width: 1px; fill: white;" transform="matrix(1 0 0 1 57.5 80)"></rect><path d="m57.5,80 m 7,2 l 0,10 m -5,-5 l 10,0" data-marker="sub-process" style="fill: white; stroke-width: 2px; stroke: black;"></path></g><g class="djs-visual" id="Activity_0ha3vh8" transform="translate(362 2270)"><rect x="0" y="0" width="135" height="100" rx="10" ry="10" style="stroke: black; stroke-width: 5px; fill: white; fill-opacity: 0.95;"></rect><text lineHeight="1.2" class="djs-label" style="font-family: Arial, sans-serif; font-size: 12px; font-weight: normal; fill: black;"><tspan x="24.634765625" y="46.4">Execute Vendor </tspan><tspan x="15.15625" y="60.8">Payment (IF) (PBA)</tspan></text><rect x="0" y="0" width="14" height="14" rx="0" ry="0" style="stroke: black; stroke-width: 1px; fill: white;" transform="matrix(1 0 0 1 60 80)"></rect><path d="m60,80 m 7,2 l 0,10 m -5,-5 l 10,0" data-marker="sub-process" style="fill: white; stroke-width: 2px; stroke: black;"></path></g><g class="djs-visual" id="TextAnnotation_0t7v3ap" transform="translate(300 -40)"><rect x="0" y="0" width="164" height="40" rx="0" ry="0" style="stroke: none; stroke-width: 2px; fill: none;"></rect><path d="m 0, 0 m 10,0 l -10,0 l 0,40 l 10,0" style="fill: none; stroke-width: 2px; stroke: black;"></path><text lineHeight="1.2" class="djs-label" style="font-family: Arial, sans-serif; font-size: 12px; font-weight: normal; fill: black;"><tspan x="5" y="15.799999999999999">Choose Product line, </tspan><tspan x="5" y="30.199999999999996">Product group and Product</tspan></text></g><g class="djs-visual" id="TextAnnotation_1feukt1" transform="translate(300 90)"><rect x="0" y="0" width="260" height="110" rx="0" ry="0" style="stroke: none; stroke-width: 2px; fill: none;"></rect><path d="m 0, 0 m 10,0 l -10,0 l 0,110 l 10,0" style="fill: none; stroke-width: 2px; stroke: black;"></path><text lineHeight="1.2" class="djs-label" style="font-family: Arial, sans-serif; font-size: 12px; font-weight: normal; fill: black;"><tspan x="5" y="15.799999999999999">Input Customer Number, Currency</tspan><tspan x="5" y="30.199999999999996">- Finance amount</tspan><tspan x="5" y="44.599999999999994">- Term</tspan><tspan x="5" y="58.99999999999999">- Repayment frequency</tspan><tspan x="5" y="73.39999999999999">- Profit rate</tspan><tspan x="5" y="87.79999999999998">- Limit ID</tspan><tspan x="5" y="102.19999999999999">- Pool ID (System generates Arrangement ID)</tspan></text></g><g class="djs-visual" id="TextAnnotation_07uf0xu" transform="translate(300 586)"><rect x="0" y="0" width="365" height="156" rx="0" ry="0" style="stroke: none; stroke-width: 2px; fill: none;"></rect><path d="m 0, 0 m 10,0 l -10,0 l 0,156 l 10,0" style="fill: none; stroke-width: 2px; stroke: black;"></path><text lineHeight="1.2" class="djs-label" style="font-family: Arial, sans-serif; font-size: 12px; font-weight: normal; fill: black;"><tspan x="5" y="15.799999999999999">- Auto repayment instructions can be given for AA Financing.</tspan><tspan x="5" y="30.199999999999996">- Auto repayment mechanism takes care of the new arrangement </tspan><tspan x="5" y="44.599999999999994">fees and other scheduled fees The following details are given</tspan><tspan x="5" y="58.99999999999999">- Pay in account There are three types of auto repayment</tspan><tspan x="5" y="73.39999999999999">- Full repayment</tspan><tspan x="5" y="87.79999999999998">- Partial repayment (finance to be settled to extent of the funds</tspan><tspan x="5" y="102.19999999999999">&nbsp;available in the account)</tspan><tspan x="5" y="116.6">- None (If the balance is fully sufficient the finance would be fully</tspan><tspan x="5" y="131">settled from the account, else no auto repayment would take </tspan><tspan x="5" y="145.4">place)</tspan></text></g><g class="djs-visual" id="TextAnnotation_0u1i65m" transform="translate(300 837)"><rect x="0" y="0" width="180" height="40" rx="0" ry="0" style="stroke: none; stroke-width: 2px; fill: none;"></rect><path d="m 0, 0 m 10,0 l -10,0 l 0,40 l 10,0" style="fill: none; stroke-width: 2px; stroke: black;"></path><text lineHeight="1.2" class="djs-label" style="font-family: Arial, sans-serif; font-size: 12px; font-weight: normal; fill: black;"><tspan x="5" y="15.799999999999999">Input 'Arrangement ID', verify </tspan><tspan x="5" y="30.199999999999996">particulars of AA and authorise</tspan></text></g><g class="djs-visual" id="TextAnnotation_1psfj4p" transform="translate(880 1160)"><rect x="0" y="0" width="190" height="40" rx="0" ry="0" style="stroke: none; stroke-width: 2px; fill: none;"></rect><path d="m 0, 0 m 10,0 l -10,0 l 0,40 l 10,0" style="fill: none; stroke-width: 2px; stroke: black;"></path><text lineHeight="1.2" class="djs-label" style="font-family: Arial, sans-serif; font-size: 12px; font-weight: normal; fill: black;"><tspan x="5" y="15.799999999999999">Input 'Arrangement ID', verify </tspan><tspan x="5" y="30.199999999999996">particulars of AA and authorise</tspan></text></g><g class="djs-visual" id="TextAnnotation_0karez4" transform="translate(300 1560)"><rect x="0" y="0" width="300" height="40" rx="0" ry="0" style="stroke: none; stroke-width: 2px; fill: none;"></rect><path d="m 0, 0 m 10,0 l -10,0 l 0,40 l 10,0" style="fill: none; stroke-width: 2px; stroke: black;"></path><text lineHeight="1.2" class="djs-label" style="font-family: Arial, sans-serif; font-size: 12px; font-weight: normal; fill: black;"><tspan x="5" y="15.799999999999999">Letter generated to Customer with limit details, </tspan><tspan x="5" y="30.199999999999996">profit/ penalty rates, Repayment schedule</tspan></text></g><g class="djs-visual" id="TextAnnotation_16g6khg" transform="translate(300 1960)"><rect x="0" y="0" width="280" height="40" rx="0" ry="0" style="stroke: none; stroke-width: 2px; fill: none;"></rect><path d="m 0, 0 m 10,0 l -10,0 l 0,40 l 10,0" style="fill: none; stroke-width: 2px; stroke: black;"></path><text lineHeight="1.2" class="djs-label" style="font-family: Arial, sans-serif; font-size: 12px; font-weight: normal; fill: black;"><tspan x="5" y="15.799999999999999">Disbursement can be done by multiple roles e.g. </tspan><tspan x="5" y="30.199999999999996">Customer Service Agent, Islamic Credit Officer</tspan></text></g><g class="djs-visual" id="TextAnnotation_10juji4" transform="translate(300 2490)"><rect x="0" y="0" width="160" height="30" rx="0" ry="0" style="stroke: none; stroke-width: 2px; fill: none;"></rect><path d="m 0, 0 m 10,0 l -10,0 l 0,30 l 10,0" style="fill: none; stroke-width: 2px; stroke: black;"></path><text lineHeight="1.2" class="djs-label" style="font-family: Arial, sans-serif; font-size: 12px; font-weight: normal; fill: black;"><tspan x="5" y="15.799999999999999">For Supplier Disbursement</tspan></text></g><g class="djs-visual" id="TextAnnotation_075pihi" transform="translate(300 2660)"><rect x="0" y="0" width="164" height="30" rx="0" ry="0" style="stroke: none; stroke-width: 2px; fill: none;"></rect><path d="m 0, 0 m 10,0 l -10,0 l 0,30 l 10,0" style="fill: none; stroke-width: 2px; stroke: black;"></path><text lineHeight="1.2" class="djs-label" style="font-family: Arial, sans-serif; font-size: 12px; font-weight: normal; fill: black;"><tspan x="5" y="15.799999999999999">Capture 'Purchase account'</tspan></text></g><g class="djs-visual" id="TextAnnotation_1rjlwsn" transform="translate(300 3000)"><rect x="0" y="0" width="188" height="40" rx="0" ry="0" style="stroke: none; stroke-width: 2px; fill: none;"></rect><path d="m 0, 0 m 10,0 l -10,0 l 0,40 l 10,0" style="fill: none; stroke-width: 2px; stroke: black;"></path><text lineHeight="1.2" class="djs-label" style="font-family: Arial, sans-serif; font-size: 12px; font-weight: normal; fill: black;"><tspan x="5" y="15.799999999999999">Debit: Arrangement (Finance) </tspan><tspan x="5" y="30.199999999999996">Credit: Purchase account</tspan></text></g><g class="djs-visual" id="Flow_1bkny3z_label" transform="translate(188 613)"><text lineHeight="1.2" class="djs-label" style="font-family: Arial, sans-serif; font-size: 11px; font-weight: normal; fill: black;"><tspan x="2.778564453125" y="9.899999999999999">Auto repayment </tspan><tspan x="0" y="23.099999999999998">instructions to be </tspan><tspan x="23.2265625" y="36.3">created</tspan></text></g><g class="djs-visual" id="Flow_04skrxt_label" transform="translate(764 606)"><text lineHeight="1.2" class="djs-label" style="font-family: Arial, sans-serif; font-size: 11px; font-weight: normal; fill: black;"><tspan x="0" y="9.899999999999999">Manual repayment </tspan><tspan x="4.446044921875" y="23.099999999999998">instructions to be </tspan><tspan x="32.875732421875" y="36.3">given</tspan></text></g><g class="djs-visual" id="Flow_1effmor_label" transform="translate(764 908)"><text lineHeight="1.2" class="djs-label" style="font-family: Arial, sans-serif; font-size: 11px; font-weight: normal; fill: black;"><tspan x="0" y="9.899999999999999">Over the counter </tspan><tspan x="15.176513671875" y="23.099999999999998">repayment</tspan></text></g><g class="djs-visual" id="Flow_0jxqha3_label" transform="translate(1001 887)"><text lineHeight="1.2" class="djs-label" style="font-family: Arial, sans-serif; font-size: 11px; font-weight: normal; fill: black;"><tspan x="0" y="9.899999999999999">Repayment through </tspan><tspan x="20.936767578125" y="23.099999999999998">direct debit</tspan></text></g><g class="djs-visual" id="Flow_01s8801_label" transform="translate(998 1070)"><text lineHeight="1.2" class="djs-label" style="font-family: Arial, sans-serif; font-size: 11px; font-weight: normal; fill: black;"><tspan x="0" y="9.899999999999999">Direct Debit Mandate </tspan><tspan x="27.203125" y="23.099999999999998">registered</tspan></text></g><g class="djs-visual" id="DataOutputAssociation_036c0wi" transform="translate(0 0)"><polyline points="245,1680 342,1680 " style="fill: none; stroke: black; stroke-width: 2px; stroke-dasharray: 0.5, 5; stroke-linecap: round; stroke-linejoin: round; marker-end: url(&quot;#association-end-white-black-8qctg8nd9o4jnff1pm9h5051k&quot;);"></polyline></g><g class="djs-visual" id="DataOutputAssociation_0dzuc0l" transform="translate(0 0)"><polyline points="245,1860 342,1860 " style="fill: none; stroke: black; stroke-width: 2px; stroke-dasharray: 0.5, 5; stroke-linecap: round; stroke-linejoin: round; marker-end: url(&quot;#association-end-white-black-8qctg8nd9o4jnff1pm9h5051k&quot;);"></polyline></g><g class="djs-visual" id="Flow_1ancy06_label" transform="translate(189 2242)"><text lineHeight="1.2" class="djs-label" style="font-family: Arial, sans-serif; font-size: 11px; font-weight: normal; fill: black;"><tspan x="0" y="9.899999999999999">Vendor Payment </tspan><tspan x="26.870849609375" y="23.099999999999998">made</tspan></text></g><g class="djs-visual" id="Flow_0agzt2p_label" transform="translate(239 2176)"><text lineHeight="1.2" class="djs-label" style="font-family: Arial, sans-serif; font-size: 11px; font-weight: normal; fill: black;"><tspan x="0" y="9.899999999999999">Vendor Payment </tspan><tspan x="17.698974609375" y="23.099999999999998">not made</tspan></text></g><g class="djs-visual" id="Flow_0rfsk5h_label" transform="translate(438 2396)"><text lineHeight="1.2" class="djs-label" style="font-family: Arial, sans-serif; font-size: 11px; font-weight: normal; fill: black;"><tspan x="8.839599609375" y="9.899999999999999">Ijara Finance </tspan><tspan x="0" y="23.099999999999998">Vendor Payment</tspan></text></g><g class="djs-visual" id="Association_08ecu31" transform="translate(0 0)"><polyline points="242,24 300,-20 " style="fill: none; stroke: black; stroke-width: 2px; stroke-dasharray: 0.5, 5; stroke-linecap: round; stroke-linejoin: round;"></polyline></g><g class="djs-visual" id="Association_1v9mmbd" transform="translate(0 0)"><polyline points="244,205 300,166 " style="fill: none; stroke: black; stroke-width: 2px; stroke-dasharray: 0.5, 5; stroke-linecap: round; stroke-linejoin: round;"></polyline></g><g class="djs-visual" id="Association_0c23qp6" transform="translate(0 0)"><polyline points="245,684 300,654 " style="fill: none; stroke: black; stroke-width: 2px; stroke-dasharray: 0.5, 5; stroke-linecap: round; stroke-linejoin: round;"></polyline></g><g class="djs-visual" id="Association_1vlv9bq" transform="translate(0 0)"><polyline points="244,896 300,857 " style="fill: none; stroke: black; stroke-width: 2px; stroke-dasharray: 0.5, 5; stroke-linecap: round; stroke-linejoin: round;"></polyline></g><g class="djs-visual" id="Association_053r44v" transform="translate(0 0)"><polyline points="824,1221 880,1180 " style="fill: none; stroke: black; stroke-width: 2px; stroke-dasharray: 0.5, 5; stroke-linecap: round; stroke-linejoin: round;"></polyline></g><g class="djs-visual" id="Association_0hkq7mt" transform="translate(0 0)"><polyline points="243,1635 300,1594 " style="fill: none; stroke: black; stroke-width: 2px; stroke-dasharray: 0.5, 5; stroke-linecap: round; stroke-linejoin: round;"></polyline></g><g class="djs-visual" id="Association_0up155z" transform="translate(0 0)"><polyline points="242,2023 300,1980 " style="fill: none; stroke: black; stroke-width: 2px; stroke-dasharray: 0.5, 5; stroke-linecap: round; stroke-linejoin: round;"></polyline></g><g class="djs-visual" id="Association_17xom3c" transform="translate(0 0)"><polyline points="244,2545 300,2505 " style="fill: none; stroke: black; stroke-width: 2px; stroke-dasharray: 0.5, 5; stroke-linecap: round; stroke-linejoin: round;"></polyline></g><g class="djs-visual" id="Association_0xjjj8z" transform="translate(0 0)"><polyline points="244,2715 300,2676 " style="fill: none; stroke: black; stroke-width: 2px; stroke-dasharray: 0.5, 5; stroke-linecap: round; stroke-linejoin: round;"></polyline></g><g class="djs-visual" id="Association_1ruytrc" transform="translate(0 0)"><polyline points="242,3064 300,3020 " style="fill: none; stroke: black; stroke-width: 2px; stroke-dasharray: 0.5, 5; stroke-linecap: round; stroke-linejoin: round;"></polyline></g></g><g><rect class="viewport" x="-4132.68306010929" y="-159.80327868852459" width="9480.874316939891" height="3606.5573770491806"></rect></g></svg>