<svg width="100%" height="100%" viewBox="-226, 52, 1835, 1226"><g><g class="djs-visual" id="Flow_112ozlj" transform="translate(0 0)"><path d="m  -40,1090L-40,1152 " style="fill: none; stroke-width: 2px; stroke: black; stroke-linejoin: round; marker-end: url(&quot;#sequenceflow-end-white-black-98b53yqagm1vksgvwmk0wivml&quot;);"></path></g><g class="djs-visual" id="Flow_0ga15sp" transform="translate(0 0)"><path d="m  -40,920L-40,990 " style="fill: none; stroke-width: 2px; stroke: black; stroke-linejoin: round; marker-end: url(&quot;#sequenceflow-end-white-black-98b53yqagm1vksgvwmk0wivml&quot;);"></path></g><g class="djs-visual" id="Flow_17ayipr" transform="translate(0 0)"><path d="m  -40,750L-40,820 " style="fill: none; stroke-width: 2px; stroke: black; stroke-linejoin: round; marker-end: url(&quot;#sequenceflow-end-white-black-98b53yqagm1vksgvwmk0wivml&quot;);"></path></g><g class="djs-visual" id="Flow_181vdii" transform="translate(0 0)"><path d="m  -40,580L-40,650 " style="fill: none; stroke-width: 2px; stroke: black; stroke-linejoin: round; marker-end: url(&quot;#sequenceflow-end-white-black-98b53yqagm1vksgvwmk0wivml&quot;);"></path></g><g class="djs-visual" id="Flow_0rqrh1k" transform="translate(0 0)"><path d="m  -40,395L-40,480 " style="fill: none; stroke-width: 2px; stroke: black; stroke-linejoin: round; marker-end: url(&quot;#sequenceflow-end-white-black-98b53yqagm1vksgvwmk0wivml&quot;);"></path></g><g class="djs-visual" id="Flow_0btq2sp" transform="translate(0 0)"><path d="m  50,220L50,370 L-15,370 " style="fill: none; stroke-width: 2px; stroke: black; stroke-linejoin: round; marker-end: url(&quot;#sequenceflow-end-white-black-98b53yqagm1vksgvwmk0wivml&quot;);"></path></g><g class="djs-visual" id="Flow_1879oe8" transform="translate(0 0)"><path d="m  -40,220L-40,345 " style="fill: none; stroke-width: 2px; stroke: black; stroke-linejoin: round; marker-end: url(&quot;#sequenceflow-end-white-black-98b53yqagm1vksgvwmk0wivml&quot;);"></path></g><g class="djs-visual" id="Flow_18k0cvu" transform="translate(0 0)"><path d="m  -130,220L-130,370 L-65,370 " style="fill: none; stroke-width: 2px; stroke: black; stroke-linejoin: round; marker-end: url(&quot;#sequenceflow-end-white-black-98b53yqagm1vksgvwmk0wivml&quot;);"></path></g><g class="djs-visual" id="StartEvent_1bm324f" transform="translate(-148 184)"><circle cx="18" cy="18" r="18" style="stroke: black; stroke-width: 2px; fill: white; fill-opacity: 0.95;"></circle></g><g class="djs-visual" id="StartEvent_1bm324f_label" transform="translate(-170 108)"><text lineHeight="1.2" class="djs-label" style="font-family: Arial, sans-serif; font-size: 11px; font-weight: normal; fill: black;"><tspan x="4.796875" y="9.899999999999999">Forward Ijara/ </tspan><tspan x="8.3125" y="23.099999999999998">Construction </tspan><tspan x="0" y="36.3">Finance Vendor </tspan><tspan x="17.018798828125" y="49.5">Payment</tspan></text></g><g class="djs-visual" id="Event_0w2x9eo" transform="translate(32 184)"><circle cx="18" cy="18" r="18" style="stroke: black; stroke-width: 2px; fill: white; fill-opacity: 0.95;"></circle></g><g class="djs-visual" id="Event_0w2x9eo_label" transform="translate(15 121)"><text lineHeight="1.2" class="djs-label" style="font-family: Arial, sans-serif; font-size: 11px; font-weight: normal; fill: black;"><tspan x="0" y="9.899999999999999">Disbursement </tspan><tspan x="9.018310546875" y="23.099999999999998">completed</tspan></text></g><g class="djs-visual" id="Event_0d5lo4r" transform="translate(-58 184)"><circle cx="18" cy="18" r="18" style="stroke: black; stroke-width: 2px; fill: white; fill-opacity: 0.95;"></circle></g><g class="djs-visual" id="Event_0d5lo4r_label" transform="translate(-75 115)"><text lineHeight="1.2" class="djs-label" style="font-family: Arial, sans-serif; font-size: 11px; font-weight: normal; fill: black;"><tspan x="13.553466796875" y="9.899999999999999">Supplier </tspan><tspan x="0" y="23.099999999999998">Disbursement </tspan><tspan x="9.018310546875" y="36.3">completed</tspan></text></g><g class="djs-visual" id="Gateway_0u4pb08" transform="translate(-65 345)"><polygon points="25,0 50,25 25,50 0,25" style="stroke: black; stroke-width: 2px; fill: white; fill-opacity: 0.95;"></polygon><path d="m 16,15 7.42857142857143,9.714285714285715 -7.42857142857143,9.714285714285715 3.428571428571429,0 5.714285714285715,-7.464228571428572 5.714285714285715,7.464228571428572 3.428571428571429,0 -7.42857142857143,-9.714285714285715 7.42857142857143,-9.714285714285715 -3.428571428571429,0 -5.714285714285715,7.464228571428572 -5.714285714285715,-7.464228571428572 -3.428571428571429,0 z" style="fill: black; stroke-width: 1px; stroke: black;"></path></g><g class="djs-visual" id="Activity_0iag9b9" transform="translate(-105 480)"><rect x="0" y="0" width="130" height="100" rx="10" ry="10" style="stroke: black; stroke-width: 2px; fill: white; fill-opacity: 0.95;"></rect><text lineHeight="1.2" class="djs-label" style="font-family: Arial, sans-serif; font-size: 12px; font-weight: normal; fill: black;"><tspan x="17.9765625" y="46.4">Capture Payment </tspan><tspan x="47.65625" y="60.8">details</tspan></text></g><g class="djs-visual" id="Activity_0fjsxzb" transform="translate(-105 650)"><rect x="0" y="0" width="130" height="100" rx="10" ry="10" style="stroke: black; stroke-width: 2px; fill: white; fill-opacity: 0.95;"></rect><text lineHeight="1.2" class="djs-label" style="font-family: Arial, sans-serif; font-size: 12px; font-weight: normal; fill: black;"><tspan x="14.474609375" y="46.4">Authorise Payment </tspan><tspan x="47.65625" y="60.8">details</tspan></text></g><g class="djs-visual" id="Activity_02mgcdx" transform="translate(-105 820)"><rect x="0" y="0" width="130" height="100" rx="10" ry="10" style="stroke: black; stroke-width: 2px; fill: white; fill-opacity: 0.95;"></rect><text lineHeight="1.2" class="djs-label" style="font-family: Arial, sans-serif; font-size: 12px; font-weight: normal; fill: black;"><tspan x="17.642578125" y="53.599999999999994">Execute Payment</tspan></text></g><g class="djs-visual" id="Activity_0pw44s6" transform="translate(-105 990)"><rect x="0" y="0" width="130" height="100" rx="10" ry="10" style="stroke: black; stroke-width: 2px; fill: white; fill-opacity: 0.95;"></rect><text lineHeight="1.2" class="djs-label" style="font-family: Arial, sans-serif; font-size: 12px; font-weight: normal; fill: black;"><tspan x="9.1318359375" y="46.4">Generate accounting </tspan><tspan x="46.984375" y="60.8">entries</tspan></text></g><g class="djs-visual" id="Event_106aq25" transform="translate(-58 1152)"><circle cx="18" cy="18" r="18" style="stroke: black; stroke-width: 4px; fill: white; fill-opacity: 0.95;"></circle></g><g class="djs-visual" id="Event_106aq25_label" transform="translate(-87 1195)"><text lineHeight="1.2" class="djs-label" style="font-family: Arial, sans-serif; font-size: 11px; font-weight: normal; fill: black;"><tspan x="0" y="9.899999999999999">Retention Payment </tspan><tspan x="0.475341796875" y="23.099999999999998">Process completed</tspan></text></g><g class="djs-visual" id="TextAnnotation_1h73jm8" transform="translate(90 400)"><rect x="0" y="0" width="140" height="100" rx="0" ry="0" style="stroke: none; stroke-width: 2px; fill: none;"></rect><path d="m 0, 0 m 10,0 l -10,0 l 0,100 l 10,0" style="fill: none; stroke-width: 2px; stroke: black;"></path><text lineHeight="1.2" class="djs-label" style="font-family: Arial, sans-serif; font-size: 12px; font-weight: normal; fill: black;"><tspan x="5" y="15.799999999999999">- Vendor</tspan><tspan x="5" y="30.199999999999996">- Vendor account</tspan><tspan x="5" y="44.599999999999994">- Currency</tspan><tspan x="5" y="58.99999999999999">- Purchase Reference</tspan><tspan x="5" y="73.39999999999999">- Payment Date</tspan><tspan x="5" y="87.79999999999998">- Payment Amount</tspan></text></g><g class="djs-visual" id="TextAnnotation_09363v8" transform="translate(90 930)"><rect x="0" y="0" width="200" height="41" rx="0" ry="0" style="stroke: none; stroke-width: 2px; fill: none;"></rect><path d="m 0, 0 m 10,0 l -10,0 l 0,41 l 10,0" style="fill: none; stroke-width: 2px; stroke: black;"></path><text lineHeight="1.2" class="djs-label" style="font-family: Arial, sans-serif; font-size: 12px; font-weight: normal; fill: black;"><tspan x="5" y="15.799999999999999">Debit Retention acct&nbsp;</tspan><tspan x="5" y="30.199999999999996">Credit customer/ vendor /PL Acc</tspan></text></g><g class="djs-visual" id="Association_1qjs976" transform="translate(0 0)"><polyline points="25,489 90,447 " style="fill: none; stroke: black; stroke-width: 2px; stroke-dasharray: 0.5, 5; stroke-linecap: round; stroke-linejoin: round;"></polyline></g><g class="djs-visual" id="Association_06cl9xh" transform="translate(0 0)"><polyline points="24,995 90,949 " style="fill: none; stroke: black; stroke-width: 2px; stroke-dasharray: 0.5, 5; stroke-linecap: round; stroke-linejoin: round;"></polyline></g></g><g><rect class="viewport" x="-1420.3600682593858" y="102.02559726962458" width="2960.7508532423208" height="1126.2798634812286"></rect></g></svg>