<svg width="100%" height="100%" viewBox="565, 5794, 1835, 2992"><g><g class="djs-visual" id="Flow_0oie5uj" transform="translate(0 0)"><path d="m  850,6155L850,6180 " style="fill: none; stroke-width: 2px; stroke: black; stroke-linejoin: round; marker-end: url(&quot;#sequenceflow-end-white-black-1zzmui0b9qie95vo6cn7v1xmv&quot;);"></path></g><g class="djs-visual" id="Flow_1lxee6q" transform="translate(0 0)"><path d="m  1590,8675L1590,8730 L1050,8730 L1050,8120 L875,8120 " style="fill: none; stroke-width: 2px; stroke: black; stroke-linejoin: round; marker-end: url(&quot;#sequenceflow-end-white-black-1zzmui0b9qie95vo6cn7v1xmv&quot;);"></path></g><g class="djs-visual" id="Flow_1pa3r38" transform="translate(0 0)"><path d="m  1310,8530L1310,8580 L1150,8580 L1150,8050 L875,8050 " style="fill: none; stroke-width: 2px; stroke: black; stroke-linejoin: round; marker-end: url(&quot;#sequenceflow-end-white-black-1zzmui0b9qie95vo6cn7v1xmv&quot;);"></path></g><g class="djs-visual" id="Flow_1m10v8l" transform="translate(0 0)"><path d="m  1590,8530L1590,8575 " style="fill: none; stroke-width: 2px; stroke: black; stroke-linejoin: round; marker-end: url(&quot;#sequenceflow-end-white-black-1zzmui0b9qie95vo6cn7v1xmv&quot;);"></path></g><g class="djs-visual" id="Flow_1ssudn9" transform="translate(0 0)"><path d="m  850,8145L850,8202 " style="fill: none; stroke-width: 2px; stroke: black; stroke-linejoin: round; marker-end: url(&quot;#sequenceflow-end-white-black-1zzmui0b9qie95vo6cn7v1xmv&quot;);"></path></g><g class="djs-visual" id="Flow_00o2ydp" transform="translate(0 0)"><path d="m  850,6055L850,6105 " style="fill: none; stroke-width: 2px; stroke: black; stroke-linejoin: round; marker-end: url(&quot;#sequenceflow-end-white-black-1zzmui0b9qie95vo6cn7v1xmv&quot;);"></path></g><g class="djs-visual" id="Flow_1qrmqek" transform="translate(0 0)"><path d="m  850,5958L850,6005 " style="fill: none; stroke-width: 2px; stroke: black; stroke-linejoin: round; marker-end: url(&quot;#sequenceflow-end-white-black-1zzmui0b9qie95vo6cn7v1xmv&quot;);"></path></g><g class="djs-visual" id="Flow_1ds7rx2" transform="translate(0 0)"><path d="m  850,8075L850,8095 " style="fill: none; stroke-width: 2px; stroke: black; stroke-linejoin: round; marker-end: url(&quot;#sequenceflow-end-white-black-1zzmui0b9qie95vo6cn7v1xmv&quot;);"></path></g><g class="djs-visual" id="Flow_1ddl8t3" transform="translate(0 0)"><path d="m  1115,7055L1330,7055 L1330,6530 L1115,6530 " style="fill: none; stroke-width: 2px; stroke: black; stroke-linejoin: round; marker-end: url(&quot;#sequenceflow-end-white-black-1zzmui0b9qie95vo6cn7v1xmv&quot;);"></path></g><g class="djs-visual" id="Flow_0siywew" transform="translate(0 0)"><path d="m  1090,6555L1090,6590 " style="fill: none; stroke-width: 2px; stroke: black; stroke-linejoin: round; marker-end: url(&quot;#sequenceflow-end-white-black-1zzmui0b9qie95vo6cn7v1xmv&quot;);"></path></g><g class="djs-visual" id="Flow_0rcl6zt" transform="translate(0 0)"><path d="m  875,6370L1090,6370 L1090,6505 " style="fill: none; stroke-width: 2px; stroke: black; stroke-linejoin: round; marker-end: url(&quot;#sequenceflow-end-white-black-1zzmui0b9qie95vo6cn7v1xmv&quot;);"></path></g><g class="djs-visual" id="Flow_04ebjb3" transform="translate(0 0)"><path d="m  1090,6992L1090,7030 " style="fill: none; stroke-width: 2px; stroke: black; stroke-linejoin: round; marker-end: url(&quot;#sequenceflow-end-white-black-1zzmui0b9qie95vo6cn7v1xmv&quot;);"></path></g><g class="djs-visual" id="Flow_0foxrs0" transform="translate(0 0)"><path d="m  1090,7080L1090,7130 L875,7130 " style="fill: none; stroke-width: 2px; stroke: black; stroke-linejoin: round; marker-end: url(&quot;#sequenceflow-end-white-black-1zzmui0b9qie95vo6cn7v1xmv&quot;);"></path></g><g class="djs-visual" id="Flow_0ysdcm4" transform="translate(0 0)"><path d="m  850,7155L850,7190 " style="fill: none; stroke-width: 2px; stroke: black; stroke-linejoin: round; marker-end: url(&quot;#sequenceflow-end-white-black-1zzmui0b9qie95vo6cn7v1xmv&quot;);"></path></g><g class="djs-visual" id="Flow_0rtsxe5" transform="translate(0 0)"><path d="m  1090,6840L1090,6892 " style="fill: none; stroke-width: 2px; stroke: black; stroke-linejoin: round; marker-end: url(&quot;#sequenceflow-end-white-black-1zzmui0b9qie95vo6cn7v1xmv&quot;);"></path></g><g class="djs-visual" id="Flow_0g2s744" transform="translate(0 0)"><path d="m  1090,6690L1090,6740 " style="fill: none; stroke-width: 2px; stroke: black; stroke-linejoin: round; marker-end: url(&quot;#sequenceflow-end-white-black-1zzmui0b9qie95vo6cn7v1xmv&quot;);"></path></g><g class="djs-visual" id="Flow_1p31std" transform="translate(0 0)"><path d="m  850,6395L850,7105 " style="fill: none; stroke-width: 2px; stroke: black; stroke-linejoin: round; marker-end: url(&quot;#sequenceflow-end-white-black-1zzmui0b9qie95vo6cn7v1xmv&quot;);"></path></g><g class="djs-visual" id="Flow_0ywa57x" transform="translate(0 0)"><path d="m  850,6280L850,6345 " style="fill: none; stroke-width: 2px; stroke: black; stroke-linejoin: round; marker-end: url(&quot;#sequenceflow-end-white-black-1zzmui0b9qie95vo6cn7v1xmv&quot;);"></path></g><g class="djs-visual" id="Flow_1baaotn" transform="translate(0 0)"><path d="m  1880,8700L1880,8730 L2180,8730 L2180,6030 L875,6030 " style="fill: none; stroke-width: 2px; stroke: black; stroke-linejoin: round; marker-end: url(&quot;#sequenceflow-end-white-black-1zzmui0b9qie95vo6cn7v1xmv&quot;);"></path></g><g class="djs-visual" id="Flow_1uoj5ks" transform="translate(0 0)"><path d="m  1310,8380L1310,8430 " style="fill: none; stroke-width: 2px; stroke: black; stroke-linejoin: round; marker-end: url(&quot;#sequenceflow-end-white-black-1zzmui0b9qie95vo6cn7v1xmv&quot;);"></path></g><g class="djs-visual" id="Flow_1ox996d" transform="translate(0 0)"><path d="m  850,7970L850,8025 " style="fill: none; stroke-width: 2px; stroke: black; stroke-linejoin: round; marker-end: url(&quot;#sequenceflow-end-white-black-1zzmui0b9qie95vo6cn7v1xmv&quot;);"></path></g><g class="djs-visual" id="Flow_0qe3e8w" transform="translate(0 0)"><path d="m  850,7815L850,7870 " style="fill: none; stroke-width: 2px; stroke: black; stroke-linejoin: round; marker-end: url(&quot;#sequenceflow-end-white-black-1zzmui0b9qie95vo6cn7v1xmv&quot;);"></path></g><g class="djs-visual" id="Flow_0qp1xgy" transform="translate(0 0)"><path d="m  1880,8530L1880,8600 " style="fill: none; stroke-width: 2px; stroke: black; stroke-linejoin: round; marker-end: url(&quot;#sequenceflow-end-white-black-1zzmui0b9qie95vo6cn7v1xmv&quot;);"></path></g><g class="djs-visual" id="Flow_1ngz6fj" transform="translate(0 0)"><path d="m  1880,8380L1880,8430 " style="fill: none; stroke-width: 2px; stroke: black; stroke-linejoin: round; marker-end: url(&quot;#sequenceflow-end-white-black-1zzmui0b9qie95vo6cn7v1xmv&quot;);"></path></g><g class="djs-visual" id="Flow_0n0e678" transform="translate(0 0)"><path d="m  1335,8190L1880,8190 L1880,8280 " style="fill: none; stroke-width: 2px; stroke: black; stroke-linejoin: round; marker-end: url(&quot;#sequenceflow-end-white-black-1zzmui0b9qie95vo6cn7v1xmv&quot;);"></path></g><g class="djs-visual" id="Flow_0l958st" transform="translate(0 0)"><path d="m  1590,8380L1590,8430 " style="fill: none; stroke-width: 2px; stroke: black; stroke-linejoin: round; marker-end: url(&quot;#sequenceflow-end-white-black-1zzmui0b9qie95vo6cn7v1xmv&quot;);"></path></g><g class="djs-visual" id="Flow_0u1kybf" transform="translate(0 0)"><path d="m  1335,8190L1590,8190 L1590,8280 " style="fill: none; stroke-width: 2px; stroke: black; stroke-linejoin: round; marker-end: url(&quot;#sequenceflow-end-white-black-1zzmui0b9qie95vo6cn7v1xmv&quot;);"></path></g><g class="djs-visual" id="Flow_0nfigoq" transform="translate(0 0)"><path d="m  1310,8120L1310,8165 " style="fill: none; stroke-width: 2px; stroke: black; stroke-linejoin: round; marker-end: url(&quot;#sequenceflow-end-white-black-1zzmui0b9qie95vo6cn7v1xmv&quot;);"></path></g><g class="djs-visual" id="Flow_1nv22xn" transform="translate(0 0)"><path d="m  1310,7970L1310,8020 " style="fill: none; stroke-width: 2px; stroke: black; stroke-linejoin: round; marker-end: url(&quot;#sequenceflow-end-white-black-1zzmui0b9qie95vo6cn7v1xmv&quot;);"></path></g><g class="djs-visual" id="Flow_036qhq8" transform="translate(0 0)"><path d="m  1310,8215L1310,8280 " style="fill: none; stroke-width: 2px; stroke: black; stroke-linejoin: round; marker-end: url(&quot;#sequenceflow-end-white-black-1zzmui0b9qie95vo6cn7v1xmv&quot;);"></path></g><g class="djs-visual" id="Flow_1jz7z74" transform="translate(0 0)"><path d="m  875,7790L1310,7790 L1310,7870 " style="fill: none; stroke-width: 2px; stroke: black; stroke-linejoin: round; marker-end: url(&quot;#sequenceflow-end-white-black-1zzmui0b9qie95vo6cn7v1xmv&quot;);"></path></g><g class="djs-visual" id="Flow_059vxha" transform="translate(0 0)"><path d="m  1300,7700L1300,7730 L1580,7730 L1580,6130 L875,6130 " style="fill: none; stroke-width: 2px; stroke: black; stroke-linejoin: round; marker-end: url(&quot;#sequenceflow-end-white-black-1zzmui0b9qie95vo6cn7v1xmv&quot;);"></path></g><g class="djs-visual" id="Flow_0bz4q9q" transform="translate(0 0)"><path d="m  1300,7560L1300,7600 " style="fill: none; stroke-width: 2px; stroke: black; stroke-linejoin: round; marker-end: url(&quot;#sequenceflow-end-white-black-1zzmui0b9qie95vo6cn7v1xmv&quot;);"></path></g><g class="djs-visual" id="Flow_1m1gcg4" transform="translate(0 0)"><path d="m  875,7350L1300,7350 L1300,7460 " style="fill: none; stroke-width: 2px; stroke: black; stroke-linejoin: round; marker-end: url(&quot;#sequenceflow-end-white-black-1zzmui0b9qie95vo6cn7v1xmv&quot;);"></path></g><g class="djs-visual" id="Flow_0sr17br" transform="translate(0 0)"><path d="m  850,7560L850,7765 " style="fill: none; stroke-width: 2px; stroke: black; stroke-linejoin: round; marker-end: url(&quot;#sequenceflow-end-white-black-1zzmui0b9qie95vo6cn7v1xmv&quot;);"></path></g><g class="djs-visual" id="Flow_0ocpgp6" transform="translate(0 0)"><path d="m  850,7375L850,7460 " style="fill: none; stroke-width: 2px; stroke: black; stroke-linejoin: round; marker-end: url(&quot;#sequenceflow-end-white-black-1zzmui0b9qie95vo6cn7v1xmv&quot;);"></path></g><g class="djs-visual" id="Flow_14dhdl6" transform="translate(0 0)"><path d="m  850,7290L850,7325 " style="fill: none; stroke-width: 2px; stroke: black; stroke-linejoin: round; marker-end: url(&quot;#sequenceflow-end-white-black-1zzmui0b9qie95vo6cn7v1xmv&quot;);"></path></g><g class="djs-visual" id="Gateway_1d88fk1" transform="translate(825 6005)"><polygon points="25,0 50,25 25,50 0,25" style="stroke: black; stroke-width: 2px; fill: white; fill-opacity: 0.95;"></polygon><path d="m 16,15 7.42857142857143,9.714285714285715 -7.42857142857143,9.714285714285715 3.428571428571429,0 5.714285714285715,-7.464228571428572 5.714285714285715,7.464228571428572 3.428571428571429,0 -7.42857142857143,-9.714285714285715 7.42857142857143,-9.714285714285715 -3.428571428571429,0 -5.714285714285715,7.464228571428572 -5.714285714285715,-7.464228571428572 -3.428571428571429,0 z" style="fill: black; stroke-width: 1px; stroke: black;"></path></g><g class="djs-visual" id="Gateway_0bra7f6" transform="translate(825 6105)"><polygon points="25,0 50,25 25,50 0,25" style="stroke: black; stroke-width: 2px; fill: white; fill-opacity: 0.95;"></polygon><path d="m 16,15 7.42857142857143,9.714285714285715 -7.42857142857143,9.714285714285715 3.428571428571429,0 5.714285714285715,-7.464228571428572 5.714285714285715,7.464228571428572 3.428571428571429,0 -7.42857142857143,-9.714285714285715 7.42857142857143,-9.714285714285715 -3.428571428571429,0 -5.714285714285715,7.464228571428572 -5.714285714285715,-7.464228571428572 -3.428571428571429,0 z" style="fill: black; stroke-width: 1px; stroke: black;"></path></g><g class="djs-visual" id="Activity_1qt75cl" transform="translate(785 7190)"><rect x="0" y="0" width="130" height="100" rx="10" ry="10" style="stroke: black; stroke-width: 2px; fill: white; fill-opacity: 0.95;"></rect><text lineHeight="1.2" class="djs-label" style="font-family: Arial, sans-serif; font-size: 12px; font-weight: normal; fill: black;"><tspan x="16.1484375" y="46.4">Check for network </tspan><tspan x="19.640625" y="60.8">acknowledgment</tspan></text></g><g class="djs-visual" id="Gateway_1772v0h" transform="translate(825 7325)"><polygon points="25,0 50,25 25,50 0,25" style="stroke: black; stroke-width: 2px; fill: white; fill-opacity: 0.95;"></polygon><path d="m 16,15 7.42857142857143,9.714285714285715 -7.42857142857143,9.714285714285715 3.428571428571429,0 5.714285714285715,-7.464228571428572 5.714285714285715,7.464228571428572 3.428571428571429,0 -7.42857142857143,-9.714285714285715 7.42857142857143,-9.714285714285715 -3.428571428571429,0 -5.714285714285715,7.464228571428572 -5.714285714285715,-7.464228571428572 -3.428571428571429,0 z" style="fill: black; stroke-width: 1px; stroke: black;"></path></g><g class="djs-visual" id="Activity_0hukx16" transform="translate(785 7460)"><rect x="0" y="0" width="130" height="100" rx="10" ry="10" style="stroke: black; stroke-width: 2px; fill: white; fill-opacity: 0.95;"></rect><text lineHeight="1.2" class="djs-label" style="font-family: Arial, sans-serif; font-size: 12px; font-weight: normal; fill: black;"><tspan x="27.4814453125" y="46.4">Check type of </tspan><tspan x="40.154296875" y="60.8">response</tspan></text></g><g class="djs-visual" id="Gateway_0d2vtx2" transform="translate(825 7765)"><polygon points="25,0 50,25 25,50 0,25" style="stroke: black; stroke-width: 2px; fill: white; fill-opacity: 0.95;"></polygon><path d="m 16,15 7.42857142857143,9.714285714285715 -7.42857142857143,9.714285714285715 3.428571428571429,0 5.714285714285715,-7.464228571428572 5.714285714285715,7.464228571428572 3.428571428571429,0 -7.42857142857143,-9.714285714285715 7.42857142857143,-9.714285714285715 -3.428571428571429,0 -5.714285714285715,7.464228571428572 -5.714285714285715,-7.464228571428572 -3.428571428571429,0 z" style="fill: black; stroke-width: 1px; stroke: black;"></path></g><g class="djs-visual" id="Activity_0x0717i" transform="translate(1235 7460)"><rect x="0" y="0" width="130" height="100" rx="10" ry="10" style="stroke: black; stroke-width: 2px; fill: white; fill-opacity: 0.95;"></rect><text lineHeight="1.2" class="djs-label" style="font-family: Arial, sans-serif; font-size: 12px; font-weight: normal; fill: black;"><tspan x="8.478515625" y="53.599999999999994">Resubmit transaction</tspan></text></g><g class="djs-visual" id="Activity_0r41jec" transform="translate(1235 7600)"><rect x="0" y="0" width="130" height="100" rx="10" ry="10" style="stroke: black; stroke-width: 2px; fill: white; fill-opacity: 0.95;"></rect><text lineHeight="1.2" class="djs-label" style="font-family: Arial, sans-serif; font-size: 12px; font-weight: normal; fill: black;"><tspan x="27.9765625" y="53.599999999999994">Update status</tspan></text></g><g class="djs-visual" id="Activity_0yw5d8a" transform="translate(1245 7870)"><rect x="0" y="0" width="130" height="100" rx="10" ry="10" style="stroke: black; stroke-width: 2px; fill: white; fill-opacity: 0.95;"></rect><text lineHeight="1.2" class="djs-label" style="font-family: Arial, sans-serif; font-size: 12px; font-weight: normal; fill: black;"><tspan x="27.9765625" y="53.599999999999994">Update status</tspan></text></g><g class="djs-visual" id="Activity_0qcrzag" transform="translate(1245 8020)"><rect x="0" y="0" width="130" height="100" rx="10" ry="10" style="stroke: black; stroke-width: 2px; fill: white; fill-opacity: 0.95;"></rect><text lineHeight="1.2" class="djs-label" style="font-family: Arial, sans-serif; font-size: 12px; font-weight: normal; fill: black;"><tspan x="20.1416015625" y="53.599999999999994">Decide on action</tspan></text></g><g class="djs-visual" id="Activity_1omjahv" transform="translate(1245 8280)"><rect x="0" y="0" width="130" height="100" rx="10" ry="10" style="stroke: black; stroke-width: 2px; fill: white; fill-opacity: 0.95;"></rect><text lineHeight="1.2" class="djs-label" style="font-family: Arial, sans-serif; font-size: 12px; font-weight: normal; fill: black;"><tspan x="12.640625" y="46.4">Mark transaction as </tspan><tspan x="40.4912109375" y="60.8">complete</tspan></text></g><g class="djs-visual" id="Gateway_1va5vh8" transform="translate(1285 8165)"><polygon points="25,0 50,25 25,50 0,25" style="stroke: black; stroke-width: 2px; fill: white; fill-opacity: 0.95;"></polygon><path d="m 16,15 7.42857142857143,9.714285714285715 -7.42857142857143,9.714285714285715 3.428571428571429,0 5.714285714285715,-7.464228571428572 5.714285714285715,7.464228571428572 3.428571428571429,0 -7.42857142857143,-9.714285714285715 7.42857142857143,-9.714285714285715 -3.428571428571429,0 -5.714285714285715,7.464228571428572 -5.714285714285715,-7.464228571428572 -3.428571428571429,0 z" style="fill: black; stroke-width: 1px; stroke: black;"></path></g><g class="djs-visual" id="Event_0fzoy0r" transform="translate(832 8202)"><circle cx="18" cy="18" r="18" style="stroke: black; stroke-width: 4px; fill: white; fill-opacity: 0.95;"></circle></g><g class="djs-visual" id="Event_0fzoy0r_label" transform="translate(802 8250)"><text lineHeight="1.2" class="djs-label" style="font-family: Arial, sans-serif; font-size: 11px; font-weight: normal; fill: black;"><tspan x="3.875" y="9.899999999999999">Message validation </tspan><tspan x="25.890625" y="23.099999999999998">performed </tspan><tspan x="19.3125" y="36.3">successfully/ </tspan><tspan x="0" y="49.5">Transaction reversed</tspan></text></g><g class="djs-visual" id="Activity_013r513" transform="translate(1525 8280)"><rect x="0" y="0" width="130" height="100" rx="10" ry="10" style="stroke: black; stroke-width: 2px; fill: white; fill-opacity: 0.95;"></rect><text lineHeight="1.2" class="djs-label" style="font-family: Arial, sans-serif; font-size: 12px; font-weight: normal; fill: black;"><tspan x="11.478515625" y="53.599999999999994">Reverse transaction</tspan></text></g><g class="djs-visual" id="Activity_0kvwa25" transform="translate(1525 8430)"><rect x="0" y="0" width="130" height="100" rx="10" ry="10" style="stroke: black; stroke-width: 2px; fill: white; fill-opacity: 0.95;"></rect><text lineHeight="1.2" class="djs-label" style="font-family: Arial, sans-serif; font-size: 12px; font-weight: normal; fill: black;"><tspan x="11.806640625" y="46.4">Reverse accounting </tspan><tspan x="46.984375" y="60.8">entries</tspan></text></g><g class="djs-visual" id="Activity_0pz2g04" transform="translate(1815 8280)"><rect x="0" y="0" width="130" height="100" rx="10" ry="10" style="stroke: black; stroke-width: 2px; fill: white; fill-opacity: 0.95;"></rect><text lineHeight="1.2" class="djs-label" style="font-family: Arial, sans-serif; font-size: 12px; font-weight: normal; fill: black;"><tspan x="8.478515625" y="53.599999999999994">Resubmit transaction</tspan></text></g><g class="djs-visual" id="Activity_1hwcggk" transform="translate(1815 8430)"><rect x="0" y="0" width="130" height="100" rx="10" ry="10" style="stroke: black; stroke-width: 2px; fill: white; fill-opacity: 0.95;"></rect><text lineHeight="1.2" class="djs-label" style="font-family: Arial, sans-serif; font-size: 12px; font-weight: normal; fill: black;"><tspan x="23.1416015625" y="46.4">Delete negative </tspan><tspan x="40.154296875" y="60.8">response</tspan></text></g><g class="djs-visual" id="Activity_0m8h1mp" transform="translate(1815 8600)"><rect x="0" y="0" width="130" height="100" rx="10" ry="10" style="stroke: black; stroke-width: 2px; fill: white; fill-opacity: 0.95;"></rect><text lineHeight="1.2" class="djs-label" style="font-family: Arial, sans-serif; font-size: 12px; font-weight: normal; fill: black;"><tspan x="27.9765625" y="53.599999999999994">Update status</tspan></text></g><g class="djs-visual" id="Activity_0f7qgcb" transform="translate(790 7870)"><rect x="0" y="0" width="120" height="100" rx="10" ry="10" style="stroke: black; stroke-width: 2px; fill: white; fill-opacity: 0.95;"></rect><text lineHeight="1.2" class="djs-label" style="font-family: Arial, sans-serif; font-size: 12px; font-weight: normal; fill: black;"><tspan x="22.9765625" y="53.599999999999994">Update status</tspan></text></g><g class="djs-visual" id="Gateway_16w8534" transform="translate(825 8025)"><polygon points="25,0 50,25 25,50 0,25" style="stroke: black; stroke-width: 2px; fill: white; fill-opacity: 0.95;"></polygon><path d="m 16,15 7.42857142857143,9.714285714285715 -7.42857142857143,9.714285714285715 3.428571428571429,0 5.714285714285715,-7.464228571428572 5.714285714285715,7.464228571428572 3.428571428571429,0 -7.42857142857143,-9.714285714285715 7.42857142857143,-9.714285714285715 -3.428571428571429,0 -5.714285714285715,7.464228571428572 -5.714285714285715,-7.464228571428572 -3.428571428571429,0 z" style="fill: black; stroke-width: 1px; stroke: black;"></path></g><g class="djs-visual" id="Activity_1rulye6" transform="translate(785 6180)"><rect x="0" y="0" width="130" height="100" rx="10" ry="10" style="stroke: black; stroke-width: 2px; fill: white; fill-opacity: 0.95;"></rect><text lineHeight="1.2" class="djs-label" style="font-family: Arial, sans-serif; font-size: 12px; font-weight: normal; fill: black;"><tspan x="17.150390625" y="32">Check if message </tspan><tspan x="23.47265625" y="46.4">passed through </tspan><tspan x="16.81640625" y="60.8">Delivery layer and </tspan><tspan x="37.826171875" y="75.19999999999999">TPH layer</tspan></text></g><g class="djs-visual" id="Gateway_03srlmk" transform="translate(825 6345)"><polygon points="25,0 50,25 25,50 0,25" style="stroke: black; stroke-width: 2px; fill: white; fill-opacity: 0.95;"></polygon><path d="m 16,15 7.42857142857143,9.714285714285715 -7.42857142857143,9.714285714285715 3.428571428571429,0 5.714285714285715,-7.464228571428572 5.714285714285715,7.464228571428572 3.428571428571429,0 -7.42857142857143,-9.714285714285715 7.42857142857143,-9.714285714285715 -3.428571428571429,0 -5.714285714285715,7.464228571428572 -5.714285714285715,-7.464228571428572 -3.428571428571429,0 z" style="fill: black; stroke-width: 1px; stroke: black;"></path></g><g class="djs-visual" id="Activity_1jsqzuu" transform="translate(1025 6740)"><rect x="0" y="0" width="130" height="100" rx="10" ry="10" style="stroke: black; stroke-width: 2px; fill: white; fill-opacity: 0.95;"></rect><text lineHeight="1.2" class="djs-label" style="font-family: Arial, sans-serif; font-size: 12px; font-weight: normal; fill: black;"><tspan x="7.4677734375" y="53.599999999999994">Regenerate Message</tspan></text></g><g class="djs-visual" id="Activity_0i3l03s" transform="translate(1025 6892)"><rect x="0" y="0" width="130" height="100" rx="10" ry="10" style="stroke: black; stroke-width: 2px; fill: white; fill-opacity: 0.95;"></rect><text lineHeight="1.2" class="djs-label" style="font-family: Arial, sans-serif; font-size: 12px; font-weight: normal; fill: black;"><tspan x="5.96875" y="46.4">Check if message has</tspan><tspan x="23.47265625" y="60.8">passed through</tspan></text></g><g class="djs-visual" id="Activity_19nw86i" transform="translate(1025 6590)"><rect x="0" y="0" width="130" height="100" rx="10" ry="10" style="stroke: black; stroke-width: 2px; fill: white; fill-opacity: 0.95;"></rect><text lineHeight="1.2" class="djs-label" style="font-family: Arial, sans-serif; font-size: 12px; font-weight: normal; fill: black;"><tspan x="25.927734375" y="53.599999999999994">View message</tspan></text></g><g class="djs-visual" id="Gateway_03t5r9c" transform="translate(825 7105)"><polygon points="25,0 50,25 25,50 0,25" style="stroke: black; stroke-width: 2px; fill: white; fill-opacity: 0.95;"></polygon><path d="m 16,15 7.42857142857143,9.714285714285715 -7.42857142857143,9.714285714285715 3.428571428571429,0 5.714285714285715,-7.464228571428572 5.714285714285715,7.464228571428572 3.428571428571429,0 -7.42857142857143,-9.714285714285715 7.42857142857143,-9.714285714285715 -3.428571428571429,0 -5.714285714285715,7.464228571428572 -5.714285714285715,-7.464228571428572 -3.428571428571429,0 z" style="fill: black; stroke-width: 1px; stroke: black;"></path></g><g class="djs-visual" id="Gateway_1o8tgq8" transform="translate(1065 7030)"><polygon points="25,0 50,25 25,50 0,25" style="stroke: black; stroke-width: 2px; fill: white; fill-opacity: 0.95;"></polygon><path d="m 16,15 7.42857142857143,9.714285714285715 -7.42857142857143,9.714285714285715 3.428571428571429,0 5.714285714285715,-7.464228571428572 5.714285714285715,7.464228571428572 3.428571428571429,0 -7.42857142857143,-9.714285714285715 7.42857142857143,-9.714285714285715 -3.428571428571429,0 -5.714285714285715,7.464228571428572 -5.714285714285715,-7.464228571428572 -3.428571428571429,0 z" style="fill: black; stroke-width: 1px; stroke: black;"></path></g><g class="djs-visual" id="Gateway_0d7m4lt" transform="translate(1065 6505)"><polygon points="25,0 50,25 25,50 0,25" style="stroke: black; stroke-width: 2px; fill: white; fill-opacity: 0.95;"></polygon><path d="m 16,15 7.42857142857143,9.714285714285715 -7.42857142857143,9.714285714285715 3.428571428571429,0 5.714285714285715,-7.464228571428572 5.714285714285715,7.464228571428572 3.428571428571429,0 -7.42857142857143,-9.714285714285715 7.42857142857143,-9.714285714285715 -3.428571428571429,0 -5.714285714285715,7.464228571428572 -5.714285714285715,-7.464228571428572 -3.428571428571429,0 z" style="fill: black; stroke-width: 1px; stroke: black;"></path></g><g class="djs-visual" id="Event_19n88ic" transform="translate(832 5922)"><circle cx="18" cy="18" r="18" style="stroke: black; stroke-width: 2px; fill: white; fill-opacity: 0.95;"></circle></g><g class="djs-visual" id="Event_19n88ic_label" transform="translate(803 5850)"><text lineHeight="1.2" class="djs-label" style="font-family: Arial, sans-serif; font-size: 11px; font-weight: normal; fill: black;"><tspan x="0" y="9.899999999999999">Message validation </tspan><tspan x="8.7578125" y="23.099999999999998">to be performed</tspan></text></g><g class="djs-visual" id="Gateway_1d27e4d" transform="translate(825 8095)"><polygon points="25,0 50,25 25,50 0,25" style="stroke: black; stroke-width: 2px; fill: white; fill-opacity: 0.95;"></polygon><path d="m 16,15 7.42857142857143,9.714285714285715 -7.42857142857143,9.714285714285715 3.428571428571429,0 5.714285714285715,-7.464228571428572 5.714285714285715,7.464228571428572 3.428571428571429,0 -7.42857142857143,-9.714285714285715 7.42857142857143,-9.714285714285715 -3.428571428571429,0 -5.714285714285715,7.464228571428572 -5.714285714285715,-7.464228571428572 -3.428571428571429,0 z" style="fill: black; stroke-width: 1px; stroke: black;"></path></g><g class="djs-visual" id="Activity_0ww26xj" transform="translate(1245 8430)"><rect x="0" y="0" width="130" height="100" rx="10" ry="10" style="stroke: black; stroke-width: 2px; fill: white; fill-opacity: 0.95;"></rect><text lineHeight="1.2" class="djs-label" style="font-family: Arial, sans-serif; font-size: 12px; font-weight: normal; fill: black;"><tspan x="27.9765625" y="53.599999999999994">Update status</tspan></text></g><g class="djs-visual" id="Activity_0e5zpa5" transform="translate(1525 8575)"><rect x="0" y="0" width="130" height="100" rx="10" ry="10" style="stroke: black; stroke-width: 2px; fill: white; fill-opacity: 0.95;"></rect><text lineHeight="1.2" class="djs-label" style="font-family: Arial, sans-serif; font-size: 12px; font-weight: normal; fill: black;"><tspan x="27.9765625" y="53.599999999999994">Update status</tspan></text></g><g class="djs-visual" id="TextAnnotation_08553od" transform="translate(1390 7580)"><rect x="0" y="0" width="175" height="60" rx="0" ry="0" style="stroke: none; stroke-width: 2px; fill: none;"></rect><path d="m 0, 0 m 10,0 l -10,0 l 0,60 l 10,0" style="fill: none; stroke-width: 2px; stroke: black;"></path><text lineHeight="1.2" class="djs-label" style="font-family: Arial, sans-serif; font-size: 12px; font-weight: normal; fill: black;"><tspan x="5" y="15.799999999999999">Update payment status as</tspan><tspan x="5" y="30.199999999999996">"Network acknowledgement</tspan><tspan x="5" y="44.599999999999994">not received"</tspan></text></g><g class="djs-visual" id="TextAnnotation_0vrgenj" transform="translate(1410 7869)"><rect x="0" y="0" width="215" height="42" rx="0" ry="0" style="stroke: none; stroke-width: 2px; fill: none;"></rect><path d="m 0, 0 m 10,0 l -10,0 l 0,42 l 10,0" style="fill: none; stroke-width: 2px; stroke: black;"></path><text lineHeight="1.2" class="djs-label" style="font-family: Arial, sans-serif; font-size: 12px; font-weight: normal; fill: black;"><tspan x="5" y="15.799999999999999">Update payment status as "Negative </tspan><tspan x="5" y="30.199999999999996">acknowledgment received"</tspan></text></g><g class="djs-visual" id="TextAnnotation_0sd2p0i" transform="translate(1680 8450)"><rect x="0" y="0" width="130" height="50" rx="0" ry="0" style="stroke: none; stroke-width: 2px; fill: none;"></rect><path d="m 0, 0 m 10,0 l -10,0 l 0,50 l 10,0" style="fill: none; stroke-width: 2px; stroke: black;"></path><text lineHeight="1.2" class="djs-label" style="font-family: Arial, sans-serif; font-size: 12px; font-weight: normal; fill: black;"><tspan x="5" y="15.799999999999999">Dr Nostro account</tspan><tspan x="5" y="30.199999999999996">Cr Internal suspense </tspan><tspan x="5" y="44.599999999999994">account</tspan></text></g><g class="djs-visual" id="TextAnnotation_13ubhrp" transform="translate(1973 8420)"><rect x="0" y="0" width="180" height="50" rx="0" ry="0" style="stroke: none; stroke-width: 2px; fill: none;"></rect><path d="m 0, 0 m 10,0 l -10,0 l 0,50 l 10,0" style="fill: none; stroke-width: 2px; stroke: black;"></path><text lineHeight="1.2" class="djs-label" style="font-family: Arial, sans-serif; font-size: 12px; font-weight: normal; fill: black;"><tspan x="5" y="15.799999999999999">Delete payment status</tspan><tspan x="5" y="30.199999999999996">"Negative acknowledgment </tspan><tspan x="5" y="44.599999999999994">received"</tspan></text></g><g class="djs-visual" id="TextAnnotation_08447mb" transform="translate(1978 8600)"><rect x="0" y="0" width="170" height="50" rx="0" ry="0" style="stroke: none; stroke-width: 2px; fill: none;"></rect><path d="m 0, 0 m 10,0 l -10,0 l 0,50 l 10,0" style="fill: none; stroke-width: 2px; stroke: black;"></path><text lineHeight="1.2" class="djs-label" style="font-family: Arial, sans-serif; font-size: 12px; font-weight: normal; fill: black;"><tspan x="5" y="15.799999999999999">Update payment status as</tspan><tspan x="5" y="30.199999999999996">"Network acknowledgement</tspan><tspan x="5" y="44.599999999999994">not received"</tspan></text></g><g class="djs-visual" id="TextAnnotation_003v6bm" transform="translate(946 7870)"><rect x="0" y="0" width="217" height="40" rx="0" ry="0" style="stroke: none; stroke-width: 2px; fill: none;"></rect><path d="m 0, 0 m 10,0 l -10,0 l 0,40 l 10,0" style="fill: none; stroke-width: 2px; stroke: black;"></path><text lineHeight="1.2" class="djs-label" style="font-family: Arial, sans-serif; font-size: 12px; font-weight: normal; fill: black;"><tspan x="5" y="15.799999999999999">Update payment status as “Positive </tspan><tspan x="5" y="30.199999999999996">acknowledgement received”</tspan></text></g><g class="djs-visual" id="TextAnnotation_1bovpwi" transform="translate(1186 6600)"><rect x="0" y="0" width="110" height="41" rx="0" ry="0" style="stroke: none; stroke-width: 2px; fill: none;"></rect><path d="m 0, 0 m 10,0 l -10,0 l 0,41 l 10,0" style="fill: none; stroke-width: 2px; stroke: black;"></path><text lineHeight="1.2" class="djs-label" style="font-family: Arial, sans-serif; font-size: 12px; font-weight: normal; fill: black;"><tspan x="5" y="15.799999999999999">Using File </tspan><tspan x="5" y="30.199999999999996">Reference</tspan></text></g><g class="djs-visual" id="TextAnnotation_1fpsc9r" transform="translate(1184 6720)"><rect x="0" y="0" width="115" height="84" rx="0" ry="0" style="stroke: none; stroke-width: 2px; fill: none;"></rect><path d="m 0, 0 m 10,0 l -10,0 l 0,84 l 10,0" style="fill: none; stroke-width: 2px; stroke: black;"></path><text lineHeight="1.2" class="djs-label" style="font-family: Arial, sans-serif; font-size: 12px; font-weight: normal; fill: black;"><tspan x="5" y="15.799999999999999">Appropriate </tspan><tspan x="5" y="30.199999999999996">message is sent to</tspan><tspan x="5" y="44.599999999999994">Delivery layer </tspan><tspan x="5" y="58.99999999999999">(DE.LAYER) or </tspan><tspan x="5" y="73.39999999999999">TPH layer</tspan></text></g><g class="djs-visual" id="TextAnnotation_127zibd" transform="translate(970 6170)"><rect x="0" y="0" width="170" height="50" rx="0" ry="0" style="stroke: none; stroke-width: 2px; fill: none;"></rect><path d="m 0, 0 m 10,0 l -10,0 l 0,50 l 10,0" style="fill: none; stroke-width: 2px; stroke: black;"></path><text lineHeight="1.2" class="djs-label" style="font-family: Arial, sans-serif; font-size: 12px; font-weight: normal; fill: black;"><tspan x="5" y="15.799999999999999">Using file reference or </tspan><tspan x="5" y="30.199999999999996">transaction reference in </tspan><tspan x="5" y="44.599999999999994">DE.O.HEADER</tspan></text></g><g class="djs-visual" id="TextAnnotation_0w9j5dw" transform="translate(1973 8280)"><rect x="0" y="0" width="100" height="50" rx="0" ry="0" style="stroke: none; stroke-width: 2px; fill: none;"></rect><path d="m 0, 0 m 10,0 l -10,0 l 0,50 l 10,0" style="fill: none; stroke-width: 2px; stroke: black;"></path><text lineHeight="1.2" class="djs-label" style="font-family: Arial, sans-serif; font-size: 12px; font-weight: normal; fill: black;"><tspan x="5" y="15.799999999999999">Appropriate </tspan><tspan x="5" y="30.199999999999996">message is sent</tspan></text></g><g class="djs-visual" id="TextAnnotation_0xxbrvr" transform="translate(1400 8445)"><rect x="0" y="0" width="100" height="40" rx="0" ry="0" style="stroke: none; stroke-width: 2px; fill: none;"></rect><path d="m 0, 0 m 10,0 l -10,0 l 0,40 l 10,0" style="fill: none; stroke-width: 2px; stroke: black;"></path><text lineHeight="1.2" class="djs-label" style="font-family: Arial, sans-serif; font-size: 12px; font-weight: normal; fill: black;"><tspan x="5" y="15.799999999999999">Update status </tspan><tspan x="5" y="30.199999999999996">as complete</tspan></text></g><g class="djs-visual" id="TextAnnotation_1bwyol2" transform="translate(1680 8590)"><rect x="0" y="0" width="120" height="41" rx="0" ry="0" style="stroke: none; stroke-width: 2px; fill: none;"></rect><path d="m 0, 0 m 10,0 l -10,0 l 0,41 l 10,0" style="fill: none; stroke-width: 2px; stroke: black;"></path><text lineHeight="1.2" class="djs-label" style="font-family: Arial, sans-serif; font-size: 12px; font-weight: normal; fill: black;"><tspan x="5" y="15.799999999999999">Update status as </tspan><tspan x="5" y="30.199999999999996">reversed</tspan></text></g><g class="djs-visual" id="Flow_0ocpgp6_label" transform="translate(862 7396)"><text lineHeight="1.2" class="djs-label" style="font-family: Arial, sans-serif; font-size: 11px; font-weight: normal; fill: black;"><tspan x="0" y="9.899999999999999">Response received</tspan></text></g><g class="djs-visual" id="Flow_1m1gcg4_label" transform="translate(1318 7372)"><text lineHeight="1.2" class="djs-label" style="font-family: Arial, sans-serif; font-size: 11px; font-weight: normal; fill: black;"><tspan x="8.080322265625" y="9.899999999999999">Response not </tspan><tspan x="0" y="23.099999999999998">received (System </tspan><tspan x="7.0576171875" y="36.3">awaits manual </tspan><tspan x="12.0576171875" y="49.5">intervention)</tspan></text></g><g class="djs-visual" id="Flow_1jz7z74_label" transform="translate(1304 7824)"><text lineHeight="1.2" class="djs-label" style="font-family: Arial, sans-serif; font-size: 11px; font-weight: normal; fill: black;"><tspan x="0" y="9.899999999999999">Negative response</tspan></text></g><g class="djs-visual" id="Flow_036qhq8_label" transform="translate(1328 8226)"><text lineHeight="1.2" class="djs-label" style="font-family: Arial, sans-serif; font-size: 11px; font-weight: normal; fill: black;"><tspan x="0" y="9.899999999999999">Transaction to be </tspan><tspan x="16.4140625" y="23.099999999999998">completed</tspan></text></g><g class="djs-visual" id="Flow_0u1kybf_label" transform="translate(1608 8226)"><text lineHeight="1.2" class="djs-label" style="font-family: Arial, sans-serif; font-size: 11px; font-weight: normal; fill: black;"><tspan x="0" y="9.899999999999999">Transaction to be </tspan><tspan x="20.3984375" y="23.099999999999998">reversed</tspan></text></g><g class="djs-visual" id="Flow_0n0e678_label" transform="translate(1898 8226)"><text lineHeight="1.2" class="djs-label" style="font-family: Arial, sans-serif; font-size: 11px; font-weight: normal; fill: black;"><tspan x="0" y="9.899999999999999">Transaction to be </tspan><tspan x="13.0546875" y="23.099999999999998">resubmitted</tspan></text></g><g class="djs-visual" id="Flow_0qe3e8w_label" transform="translate(862 7831)"><text lineHeight="1.2" class="djs-label" style="font-family: Arial, sans-serif; font-size: 11px; font-weight: normal; fill: black;"><tspan x="0" y="9.899999999999999">Positive response</tspan></text></g><g class="djs-visual" id="Flow_1p31std_label" transform="translate(864 6394)"><text lineHeight="1.2" class="djs-label" style="font-family: Arial, sans-serif; font-size: 11px; font-weight: normal; fill: black;"><tspan x="3.891357421875" y="9.899999999999999">Message passed </tspan><tspan x="5.680419921875" y="23.099999999999998">through Delivery </tspan><tspan x="10.394775390625" y="36.3">layer and TPH </tspan><tspan x="32.8876953125" y="49.5">layer </tspan><tspan x="0" y="62.7">(DE.O.HEADER is </tspan><tspan x="5.829345703125" y="75.9">in FORMATTED </tspan><tspan x="28.803466796875" y="89.10000000000001">status)</tspan></text></g><g class="djs-visual" id="Flow_0foxrs0_label" transform="translate(1098 7095)"><text lineHeight="1.2" class="djs-label" style="font-family: Arial, sans-serif; font-size: 11px; font-weight: normal; fill: black;"><tspan x="0" y="9.899999999999999">Message passed</tspan></text></g><g class="djs-visual" id="Flow_0rcl6zt_label" transform="translate(1092 6394)"><text lineHeight="1.2" class="djs-label" style="font-family: Arial, sans-serif; font-size: 11px; font-weight: normal; fill: black;"><tspan x="4.011474609375" y="9.899999999999999">Message failed at </tspan><tspan x="7.190673828125" y="23.099999999999998">Delivery layer or </tspan><tspan x="22.97412109375" y="36.3">TPH layer </tspan><tspan x="2.114501953125" y="49.5">(DE.O.HEADER is </tspan><tspan x="0" y="62.7">in UNFORMATTED </tspan><tspan x="30.91796875" y="75.9">status)</tspan></text></g><g class="djs-visual" id="Flow_1ddl8t3_label" transform="translate(1183 7033)"><text lineHeight="1.2" class="djs-label" style="font-family: Arial, sans-serif; font-size: 11px; font-weight: normal; fill: black;"><tspan x="0" y="9.899999999999999">Message failed</tspan></text></g><g class="djs-visual" id="Association_1ewtl0q" transform="translate(0 0)"><polyline points="1365,7628 1390,7618 " style="fill: none; stroke: black; stroke-width: 2px; stroke-dasharray: 0.5, 5; stroke-linecap: round; stroke-linejoin: round;"></polyline></g><g class="djs-visual" id="Association_17ffsua" transform="translate(0 0)"><polyline points="1375,7898 1410,7882 " style="fill: none; stroke: black; stroke-width: 2px; stroke-dasharray: 0.5, 5; stroke-linecap: round; stroke-linejoin: round;"></polyline></g><g class="djs-visual" id="Association_12w0dx8" transform="translate(0 0)"><polyline points="1655,8468 1680,8464 " style="fill: none; stroke: black; stroke-width: 2px; stroke-dasharray: 0.5, 5; stroke-linecap: round; stroke-linejoin: round;"></polyline></g><g class="djs-visual" id="Association_1tjtom4" transform="translate(0 0)"><polyline points="1945,8458 1973,8448 " style="fill: none; stroke: black; stroke-width: 2px; stroke-dasharray: 0.5, 5; stroke-linecap: round; stroke-linejoin: round;"></polyline></g><g class="djs-visual" id="Association_0814hu4" transform="translate(0 0)"><polyline points="1945,8634 1978,8627 " style="fill: none; stroke: black; stroke-width: 2px; stroke-dasharray: 0.5, 5; stroke-linecap: round; stroke-linejoin: round;"></polyline></g><g class="djs-visual" id="Association_1do0mkn" transform="translate(0 0)"><polyline points="910,7900 946,7892 " style="fill: none; stroke: black; stroke-width: 2px; stroke-dasharray: 0.5, 5; stroke-linecap: round; stroke-linejoin: round;"></polyline></g><g class="djs-visual" id="Association_1bbu1gr" transform="translate(0 0)"><polyline points="1155,6617 1186,6608 " style="fill: none; stroke: black; stroke-width: 2px; stroke-dasharray: 0.5, 5; stroke-linecap: round; stroke-linejoin: round;"></polyline></g><g class="djs-visual" id="Association_1x9t6m8" transform="translate(0 0)"><polyline points="1155,6764 1184,6753 " style="fill: none; stroke: black; stroke-width: 2px; stroke-dasharray: 0.5, 5; stroke-linecap: round; stroke-linejoin: round;"></polyline></g><g class="djs-visual" id="Association_0xbnzln" transform="translate(0 0)"><polyline points="915,6213 970,6198 " style="fill: none; stroke: black; stroke-width: 2px; stroke-dasharray: 0.5, 5; stroke-linecap: round; stroke-linejoin: round;"></polyline></g><g class="djs-visual" id="Association_1k43jmt" transform="translate(0 0)"><polyline points="1945,8314 1973,8307 " style="fill: none; stroke: black; stroke-width: 2px; stroke-dasharray: 0.5, 5; stroke-linecap: round; stroke-linejoin: round;"></polyline></g><g class="djs-visual" id="Association_1v4zndy" transform="translate(0 0)"><polyline points="1375,8473 1400,8470 " style="fill: none; stroke: black; stroke-width: 2px; stroke-dasharray: 0.5, 5; stroke-linecap: round; stroke-linejoin: round;"></polyline></g><g class="djs-visual" id="Association_0k8fde4" transform="translate(0 0)"><polyline points="1655,8619 1680,8616 " style="fill: none; stroke: black; stroke-width: 2px; stroke-dasharray: 0.5, 5; stroke-linecap: round; stroke-linejoin: round;"></polyline></g></g><g><rect class="viewport" x="-2320.9210526315787" y="5849.5307017543855" width="7609.649122807017" height="2894.736842105263"></rect></g></svg>