<svg width="100%" height="100%" viewBox="-52, -5149, 1835, 2195"><g><g class="djs-visual" id="Flow_1x3eo14" transform="translate(0 0)"><path d="m  172,-4830L172,-4780 " style="fill: none; stroke-width: 2px; stroke: black; stroke-linejoin: round; marker-end: url(&quot;#sequenceflow-end-white-black-0of9yhtz783wsx4oy3alwampo&quot;);"></path></g><g class="djs-visual" id="Flow_1ilebid" transform="translate(0 0)"><path d="m  172,-3850L172,-3810 " style="fill: none; stroke-width: 2px; stroke: black; stroke-linejoin: round; marker-end: url(&quot;#sequenceflow-end-white-black-0of9yhtz783wsx4oy3alwampo&quot;);"></path></g><g class="djs-visual" id="Flow_0jvoauv" transform="translate(0 0)"><path d="m  510,-4080L510,-4010 L197,-4010 " style="fill: none; stroke-width: 2px; stroke: black; stroke-linejoin: round; marker-end: url(&quot;#sequenceflow-end-white-black-0of9yhtz783wsx4oy3alwampo&quot;);"></path></g><g class="djs-visual" id="Flow_0jm799f" transform="translate(0 0)"><path d="m  172,-3985L172,-3950 " style="fill: none; stroke-width: 2px; stroke: black; stroke-linejoin: round; marker-end: url(&quot;#sequenceflow-end-white-black-0of9yhtz783wsx4oy3alwampo&quot;);"></path></g><g class="djs-visual" id="Flow_01qxqwc" transform="translate(0 0)"><path d="m  197,-4280L510,-4280 L510,-4180 " style="fill: none; stroke-width: 2px; stroke: black; stroke-linejoin: round; marker-end: url(&quot;#sequenceflow-end-white-black-0of9yhtz783wsx4oy3alwampo&quot;);"></path></g><g class="djs-visual" id="Flow_1xi7pvz" transform="translate(0 0)"><path d="m  172,-4080L172,-4035 " style="fill: none; stroke-width: 2px; stroke: black; stroke-linejoin: round; marker-end: url(&quot;#sequenceflow-end-white-black-0of9yhtz783wsx4oy3alwampo&quot;);"></path></g><g class="djs-visual" id="Flow_1ayihb3" transform="translate(0 0)"><path d="m  172,-4255L172,-4180 " style="fill: none; stroke-width: 2px; stroke: black; stroke-linejoin: round; marker-end: url(&quot;#sequenceflow-end-white-black-0of9yhtz783wsx4oy3alwampo&quot;);"></path></g><g class="djs-visual" id="Flow_0uc2lc4" transform="translate(0 0)"><path d="m  172,-3320L172,-3260 " style="fill: none; stroke-width: 2px; stroke: black; stroke-linejoin: round; marker-end: url(&quot;#sequenceflow-end-white-black-0of9yhtz783wsx4oy3alwampo&quot;);"></path></g><g class="djs-visual" id="Flow_08gka1u" transform="translate(0 0)"><path d="m  430,-3462L430,-3408 " style="fill: none; stroke-width: 2px; stroke: black; stroke-linejoin: round; marker-end: url(&quot;#sequenceflow-end-white-black-0of9yhtz783wsx4oy3alwampo&quot;);"></path></g><g class="djs-visual" id="Flow_0wf8r7i" transform="translate(0 0)"><path d="m  172,-3710L172,-3675 " style="fill: none; stroke-width: 2px; stroke: black; stroke-linejoin: round; marker-end: url(&quot;#sequenceflow-end-white-black-0of9yhtz783wsx4oy3alwampo&quot;);"></path></g><g class="djs-visual" id="Flow_1eblst5" transform="translate(0 0)"><path d="m  172,-4360L172,-4305 " style="fill: none; stroke-width: 2px; stroke: black; stroke-linejoin: round; marker-end: url(&quot;#sequenceflow-end-white-black-0of9yhtz783wsx4oy3alwampo&quot;);"></path></g><g class="djs-visual" id="Flow_0yu4ja3" transform="translate(0 0)"><path d="m  172,-4520L172,-4460 " style="fill: none; stroke-width: 2px; stroke: black; stroke-linejoin: round; marker-end: url(&quot;#sequenceflow-end-white-black-0of9yhtz783wsx4oy3alwampo&quot;);"></path></g><g class="djs-visual" id="Flow_0twv23x" transform="translate(0 0)"><path d="m  172,-3462L172,-3420 " style="fill: none; stroke-width: 2px; stroke: black; stroke-linejoin: round; marker-end: url(&quot;#sequenceflow-end-white-black-0of9yhtz783wsx4oy3alwampo&quot;);"></path></g><g class="djs-visual" id="Flow_057hsh2" transform="translate(0 0)"><path d="m  172,-3625L172,-3562 " style="fill: none; stroke-width: 2px; stroke: black; stroke-linejoin: round; marker-end: url(&quot;#sequenceflow-end-white-black-0of9yhtz783wsx4oy3alwampo&quot;);"></path></g><g class="djs-visual" id="Flow_0psqgzv" transform="translate(0 0)"><path d="m  172,-4680L172,-4620 " style="fill: none; stroke-width: 2px; stroke: black; stroke-linejoin: round; marker-end: url(&quot;#sequenceflow-end-white-black-0of9yhtz783wsx4oy3alwampo&quot;);"></path></g><g class="djs-visual" id="Flow_0ya7j25" transform="translate(0 0)"><path d="m  172,-3160L172,-3108 " style="fill: none; stroke-width: 2px; stroke: black; stroke-linejoin: round; marker-end: url(&quot;#sequenceflow-end-white-black-0of9yhtz783wsx4oy3alwampo&quot;);"></path></g><g class="djs-visual" id="Flow_0jretc8" transform="translate(0 0)"><path d="m  172,-4972L172,-4930 " style="fill: none; stroke-width: 2px; stroke: black; stroke-linejoin: round; marker-end: url(&quot;#sequenceflow-end-white-black-0of9yhtz783wsx4oy3alwampo&quot;);"></path></g><g class="djs-visual" id="Flow_0vcb63v" transform="translate(0 0)"><path d="m  197,-3650L430,-3650 L430,-3562 " style="fill: none; stroke-width: 2px; stroke: black; stroke-linejoin: round; marker-end: url(&quot;#sequenceflow-end-white-black-0of9yhtz783wsx4oy3alwampo&quot;);"></path></g><g class="djs-visual" id="Event_0tpantj" transform="translate(154 -3108)"><circle cx="18" cy="18" r="18" style="stroke: black; stroke-width: 4px; fill: white; fill-opacity: 0.95;"></circle></g><g class="djs-visual" id="Event_0tpantj_label" transform="translate(130 -3050)"><text lineHeight="1.2" class="djs-label" style="font-family: Arial, sans-serif; font-size: 11px; font-weight: normal; fill: black;"><tspan x="17.88671875" y="9.899999999999999">Repayment </tspan><tspan x="0" y="23.099999999999998">schedule amended </tspan><tspan x="16.5859375" y="36.3">successfully</tspan></text></g><g class="djs-visual" id="Activity_0b1pth6" transform="translate(107 -3420)"><rect x="0" y="0" width="130" height="100" rx="10" ry="10" style="stroke: black; stroke-width: 2px; fill: white; fill-opacity: 0.95;"></rect><text lineHeight="1.2" class="djs-label" style="font-family: Arial, sans-serif; font-size: 12px; font-weight: normal; fill: black;"><tspan x="11.8037109375" y="39.2">Verify and authorise</tspan><tspan x="26.8154296875" y="53.6">amendment in </tspan><tspan x="10.8046875" y="68">repayment schedule</tspan></text></g><g class="djs-visual" id="Gateway_0sm43jp" transform="translate(147 -3675)"><polygon points="25,0 50,25 25,50 0,25" style="stroke: black; stroke-width: 2px; fill: white; fill-opacity: 0.95;"></polygon><path d="m 16,15 7.42857142857143,9.714285714285715 -7.42857142857143,9.714285714285715 3.428571428571429,0 5.714285714285715,-7.464228571428572 5.714285714285715,7.464228571428572 3.428571428571429,0 -7.42857142857143,-9.714285714285715 7.42857142857143,-9.714285714285715 -3.428571428571429,0 -5.714285714285715,7.464228571428572 -5.714285714285715,-7.464228571428572 -3.428571428571429,0 z" style="fill: black; stroke-width: 1px; stroke: black;"></path></g><g class="djs-visual" id="Activity_0fyacv1" transform="translate(107 -3562)"><rect x="0" y="0" width="130" height="100" rx="10" ry="10" style="stroke: black; stroke-width: 2px; fill: white; fill-opacity: 0.95;"></rect><text lineHeight="1.2" class="djs-label" style="font-family: Arial, sans-serif; font-size: 12px; font-weight: normal; fill: black;"><tspan x="12.4775390625" y="46.4">Move transaction to </tspan><tspan x="12.12890625" y="60.8">authorisation queue</tspan></text></g><g class="djs-visual" id="Event_1sqrm58" transform="translate(412 -3408)"><circle cx="18" cy="18" r="18" style="stroke: black; stroke-width: 4px; fill: white; fill-opacity: 0.95;"></circle></g><g class="djs-visual" id="Event_1sqrm58_label" transform="translate(398 -3364)"><text lineHeight="1.2" class="djs-label" style="font-family: Arial, sans-serif; font-size: 11px; font-weight: normal; fill: black;"><tspan x="3.474609375" y="9.899999999999999">Repayment </tspan><tspan x="10.048828125" y="23.099999999999998">schedule </tspan><tspan x="2.55615234375" y="36.3">amendment </tspan><tspan x="0" y="49.5">unsuccessful</tspan></text></g><g class="djs-visual" id="Event_1l5nlpj" transform="translate(154 -5008)"><circle cx="18" cy="18" r="18" style="stroke: black; stroke-width: 2px; fill: white; fill-opacity: 0.95;"></circle></g><g class="djs-visual" id="Event_1l5nlpj_label" transform="translate(128 -5093)"><text lineHeight="1.2" class="djs-label" style="font-family: Arial, sans-serif; font-size: 11px; font-weight: normal; fill: black;"><tspan x="15.29150390625" y="9.899999999999999">Repayment </tspan><tspan x="8.10791015625" y="23.099999999999998">schedule to be </tspan><tspan x="0" y="36.3">amended in asset </tspan><tspan x="26.64697265625" y="49.5">finance </tspan><tspan x="12.232666015625" y="62.7">arrangement</tspan></text></g><g class="djs-visual" id="Activity_0n81g7c" transform="translate(107 -3260)"><rect x="0" y="0" width="130" height="100" rx="10" ry="10" style="stroke: black; stroke-width: 2px; fill: white; fill-opacity: 0.95;"></rect><text lineHeight="1.2" class="djs-label" style="font-family: Arial, sans-serif; font-size: 12px; font-weight: normal; fill: black;"><tspan x="9.6328125" y="53.599999999999994">Update arrangement</tspan></text></g><g class="djs-visual" id="Activity_1ozv070" transform="translate(107 -4780)"><rect x="0" y="0" width="130" height="100" rx="10" ry="10" style="stroke: black; stroke-width: 2px; fill: white; fill-opacity: 0.95;"></rect><text lineHeight="1.2" class="djs-label" style="font-family: Arial, sans-serif; font-size: 12px; font-weight: normal; fill: black;"><tspan x="30.1494140625" y="46.4">List available </tspan><tspan x="30.6474609375" y="60.8">arrangement</tspan></text></g><g class="djs-visual" id="Activity_0zxqhze" transform="translate(102 -3950)"><rect x="0" y="0" width="130" height="100" rx="10" ry="10" style="stroke: black; stroke-width: 2px; fill: white; fill-opacity: 0.95;"></rect><text lineHeight="1.2" class="djs-label" style="font-family: Arial, sans-serif; font-size: 12px; font-weight: normal; fill: black;"><tspan x="20.3701171875" y="46.4">Trigger schedule </tspan><tspan x="46.65625" y="60.8">activity</tspan></text></g><g class="djs-visual" id="Activity_1m2oq1f" transform="translate(107 -4620)"><rect x="0" y="0" width="130" height="100" rx="10" ry="10" style="stroke: black; stroke-width: 2px; fill: white; fill-opacity: 0.95;"></rect><text lineHeight="1.2" class="djs-label" style="font-family: Arial, sans-serif; font-size: 12px; font-weight: normal; fill: black;"><tspan x="12.3046875" y="46.4">Select arrangement </tspan><tspan x="25.3056640625" y="60.8">to be amended</tspan></text></g><g class="djs-visual" id="Activity_0lhfd1o" transform="translate(107 -4460)"><rect x="0" y="0" width="130" height="100" rx="10" ry="10" style="stroke: black; stroke-width: 2px; fill: white; fill-opacity: 0.95;"></rect><text lineHeight="1.2" class="djs-label" style="font-family: Arial, sans-serif; font-size: 12px; font-weight: normal; fill: black;"><tspan x="14.3125" y="53.599999999999994">Select New Activity</tspan></text></g><g class="djs-visual" id="Activity_1kr3dvm" transform="translate(107 -3810)"><rect x="0" y="0" width="130" height="100" rx="10" ry="10" style="stroke: black; stroke-width: 2px; fill: white; fill-opacity: 0.95;"></rect><text lineHeight="1.2" class="djs-label" style="font-family: Arial, sans-serif; font-size: 12px; font-weight: normal; fill: black;"><tspan x="10.078125" y="53.599999999999994">Validate amendment</tspan></text></g><g class="djs-visual" id="Activity_02hlawl" transform="translate(365 -3562)"><rect x="0" y="0" width="130" height="100" rx="10" ry="10" style="stroke: black; stroke-width: 2px; fill: white; fill-opacity: 0.95;"></rect><text lineHeight="1.2" class="djs-label" style="font-family: Arial, sans-serif; font-size: 12px; font-weight: normal; fill: black;"><tspan x="30.490234375" y="53.599999999999994">Display error</tspan></text></g><g class="djs-visual" id="Gateway_0tlp38t" transform="translate(147 -4305)"><polygon points="25,0 50,25 25,50 0,25" style="stroke: black; stroke-width: 2px; fill: white; fill-opacity: 0.95;"></polygon><path d="m 16,15 7.42857142857143,9.714285714285715 -7.42857142857143,9.714285714285715 3.428571428571429,0 5.714285714285715,-7.464228571428572 5.714285714285715,7.464228571428572 3.428571428571429,0 -7.42857142857143,-9.714285714285715 7.42857142857143,-9.714285714285715 -3.428571428571429,0 -5.714285714285715,7.464228571428572 -5.714285714285715,-7.464228571428572 -3.428571428571429,0 z" style="fill: black; stroke-width: 1px; stroke: black;"></path></g><g class="djs-visual" id="Activity_0e5xxkf" transform="translate(107 -4180)"><rect x="0" y="0" width="130" height="100" rx="10" ry="10" style="stroke: black; stroke-width: 2px; fill: white; fill-opacity: 0.95;"></rect><text lineHeight="1.2" class="djs-label" style="font-family: Arial, sans-serif; font-size: 12px; font-weight: normal; fill: black;"><tspan x="8.2412109375" y="53.599999999999994">Update effective date</tspan></text></g><g class="djs-visual" id="Activity_14bsgkq" transform="translate(445 -4180)"><rect x="0" y="0" width="130" height="100" rx="10" ry="10" style="stroke: black; stroke-width: 2px; fill: white; fill-opacity: 0.95;"></rect><text lineHeight="1.2" class="djs-label" style="font-family: Arial, sans-serif; font-size: 12px; font-weight: normal; fill: black;"><tspan x="6.2431640625" y="53.599999999999994">Capture effective date</tspan></text></g><g class="djs-visual" id="Gateway_1jobtp7" transform="translate(147 -4035)"><polygon points="25,0 50,25 25,50 0,25" style="stroke: black; stroke-width: 2px; fill: white; fill-opacity: 0.95;"></polygon><path d="m 16,15 7.42857142857143,9.714285714285715 -7.42857142857143,9.714285714285715 3.428571428571429,0 5.714285714285715,-7.464228571428572 5.714285714285715,7.464228571428572 3.428571428571429,0 -7.42857142857143,-9.714285714285715 7.42857142857143,-9.714285714285715 -3.428571428571429,0 -5.714285714285715,7.464228571428572 -5.714285714285715,-7.464228571428572 -3.428571428571429,0 z" style="fill: black; stroke-width: 1px; stroke: black;"></path></g><g class="djs-visual" id="Activity_1nf1i0c" transform="translate(107 -4930)"><rect x="0" y="0" width="130" height="100" rx="10" ry="10" style="stroke: black; stroke-width: 2px; fill: white; fill-opacity: 0.95;"></rect><text lineHeight="1.2" class="djs-label" style="font-family: Arial, sans-serif; font-size: 12px; font-weight: normal; fill: black;"><tspan x="12.47265625" y="39.2">Receive request for </tspan><tspan x="8.2998046875" y="53.6">amending repayment </tspan><tspan x="40.8193359375" y="68">schedule</tspan></text></g><g class="djs-visual" id="DataObjectReference_0twks36" transform="translate(32 -4905)"><path d="m 0,0 28.23529411764706,0 7.058823529411765,8.196721311475411 0,40.98360655737705 -35.294117647058826,0 0,-49.18032786885246 28.23529411764706,0 0,8.196721311475411 7.058823529411765,0" style="fill: white; stroke-width: 2px; stroke: black; fill-opacity: 0.95;"></path></g><g class="djs-visual" id="DataObjectReference_0twks36_label" transform="translate(4 -4847)"><text lineHeight="1.2" class="djs-label" style="font-family: Arial, sans-serif; font-size: 11px; font-weight: normal; fill: black;"><tspan x="0" y="9.899999999999999">Customer Request</tspan></text></g><g class="djs-visual" id="TextAnnotation_177ch0s" transform="translate(269 -3430)"><rect x="0" y="0" width="120" height="27" rx="0" ry="0" style="stroke: none; stroke-width: 2px; fill: none;"></rect><path d="m 0, 0 m 10,0 l -10,0 l 0,27 l 10,0" style="fill: none; stroke-width: 2px; stroke: black;"></path><text lineHeight="1.2" class="djs-label" style="font-family: Arial, sans-serif; font-size: 12px; font-weight: normal; fill: black;"><tspan x="5" y="15.799999999999999">Arrangement ID</tspan></text></g><g class="djs-visual" id="TextAnnotation_1oe5ksw" transform="translate(269 -4630)"><rect x="0" y="0" width="110" height="26" rx="0" ry="0" style="stroke: none; stroke-width: 2px; fill: none;"></rect><path d="m 0, 0 m 10,0 l -10,0 l 0,26 l 10,0" style="fill: none; stroke-width: 2px; stroke: black;"></path><text lineHeight="1.2" class="djs-label" style="font-family: Arial, sans-serif; font-size: 12px; font-weight: normal; fill: black;"><tspan x="5" y="15.799999999999999">Arrangement ID</tspan></text></g><g class="djs-visual" id="TextAnnotation_13k7f54" transform="translate(269 -4200)"><rect x="0" y="0" width="135" height="41" rx="0" ry="0" style="stroke: none; stroke-width: 2px; fill: none;"></rect><path d="m 0, 0 m 10,0 l -10,0 l 0,41 l 10,0" style="fill: none; stroke-width: 2px; stroke: black;"></path><text lineHeight="1.2" class="djs-label" style="font-family: Arial, sans-serif; font-size: 12px; font-weight: normal; fill: black;"><tspan x="5" y="15.799999999999999">Today's date defaulted </tspan><tspan x="5" y="30.199999999999996">as effective date</tspan></text></g><g class="djs-visual" id="TextAnnotation_0fnc1t4" transform="translate(262 -3960)"><rect x="0" y="0" width="538" height="84" rx="0" ry="0" style="stroke: none; stroke-width: 2px; fill: none;"></rect><path d="m 0, 0 m 10,0 l -10,0 l 0,84 l 10,0" style="fill: none; stroke-width: 2px; stroke: black;"></path><text lineHeight="1.2" class="djs-label" style="font-family: Arial, sans-serif; font-size: 12px; font-weight: normal; fill: black;"><tspan x="5" y="15.799999999999999">The fields to be updated:</tspan><tspan x="5" y="30.199999999999996">- Add/ Remove/ Change Payments</tspan><tspan x="5" y="44.599999999999994">&nbsp; &nbsp; - Payment Type, Payment Frequency, Payment Amount, Start Date, Num Payments/ End Date</tspan><tspan x="5" y="58.99999999999999">&nbsp;- Change Residual Values</tspan><tspan x="5" y="73.39999999999999">&nbsp; &nbsp; - Residual Amount/ Percentage, Guaranteed Amount/ Percentage</tspan></text></g><g class="djs-visual" id="TextAnnotation_0sr9kcq" transform="translate(540 -3570)"><rect x="0" y="0" width="160" height="41" rx="0" ry="0" style="stroke: none; stroke-width: 2px; fill: none;"></rect><path d="m 0, 0 m 10,0 l -10,0 l 0,41 l 10,0" style="fill: none; stroke-width: 2px; stroke: black;"></path><text lineHeight="1.2" class="djs-label" style="font-family: Arial, sans-serif; font-size: 12px; font-weight: normal; fill: black;"><tspan x="5" y="15.799999999999999">'Amendment in Repayment </tspan><tspan x="5" y="30.199999999999996">Schedule unsuccessful'</tspan></text></g><g class="djs-visual" id="TextAnnotation_07vpkch" transform="translate(269 -4500)"><rect x="0" y="0" width="301" height="41" rx="0" ry="0" style="stroke: none; stroke-width: 2px; fill: none;"></rect><path d="m 0, 0 m 10,0 l -10,0 l 0,41 l 10,0" style="fill: none; stroke-width: 2px; stroke: black;"></path><text lineHeight="1.2" class="djs-label" style="font-family: Arial, sans-serif; font-size: 12px; font-weight: normal; fill: black;"><tspan x="5" y="15.799999999999999">"Change Schedule" activity triggered</tspan><tspan x="5" y="30.199999999999996">ASSET.FINANCE-CHANGE-SCHEDULE</tspan></text></g><g class="djs-visual" id="Flow_0vcb63v_label" transform="translate(438 -3610)"><text lineHeight="1.2" class="djs-label" style="font-family: Arial, sans-serif; font-size: 11px; font-weight: normal; fill: black;"><tspan x="8.822265625" y="9.899999999999999">Validation </tspan><tspan x="0" y="23.099999999999998">unsuccessful</tspan></text></g><g class="djs-visual" id="Flow_057hsh2_label" transform="translate(184 -3610)"><text lineHeight="1.2" class="djs-label" style="font-family: Arial, sans-serif; font-size: 11px; font-weight: normal; fill: black;"><tspan x="2.70458984375" y="9.899999999999999">Validation </tspan><tspan x="0" y="23.099999999999998">successful</tspan></text></g><g class="djs-visual" id="Flow_1ayihb3_label" transform="translate(183 -4244)"><text lineHeight="1.2" class="djs-label" style="font-family: Arial, sans-serif; font-size: 11px; font-weight: normal; fill: black;"><tspan x="0" y="9.899999999999999">'Do activity today' </tspan><tspan x="8.703125" y="23.099999999999998">to be selected</tspan></text></g><g class="djs-visual" id="Flow_01qxqwc_label" transform="translate(528 -4244)"><text lineHeight="1.2" class="djs-label" style="font-family: Arial, sans-serif; font-size: 11px; font-weight: normal; fill: black;"><tspan x="0" y="9.899999999999999">'Do activity' to be </tspan><tspan x="20.7421875" y="23.099999999999998">selected</tspan></text></g><g class="djs-visual" id="DataInputAssociation_1drrb68" transform="translate(0 0)"><polyline points="68,-4880 107,-4880 " style="fill: none; stroke: black; stroke-width: 2px; stroke-dasharray: 0.5, 5; stroke-linecap: round; stroke-linejoin: round; marker-end: url(&quot;#association-end-white-black-0of9yhtz783wsx4oy3alwampo&quot;);"></polyline></g><g class="djs-visual" id="Association_1wzgb2s" transform="translate(0 0)"><polyline points="237,-3400 269,-3416 " style="fill: none; stroke: black; stroke-width: 2px; stroke-dasharray: 0.5, 5; stroke-linecap: round; stroke-linejoin: round;"></polyline></g><g class="djs-visual" id="Association_12sqrv4" transform="translate(0 0)"><polyline points="237,-4599 269,-4612 " style="fill: none; stroke: black; stroke-width: 2px; stroke-dasharray: 0.5, 5; stroke-linecap: round; stroke-linejoin: round;"></polyline></g><g class="djs-visual" id="Association_1hidaz2" transform="translate(0 0)"><polyline points="237,-4154 269,-4166 " style="fill: none; stroke: black; stroke-width: 2px; stroke-dasharray: 0.5, 5; stroke-linecap: round; stroke-linejoin: round;"></polyline></g><g class="djs-visual" id="Association_1vqszfm" transform="translate(0 0)"><polyline points="232,-3917 262,-3925 " style="fill: none; stroke: black; stroke-width: 2px; stroke-dasharray: 0.5, 5; stroke-linecap: round; stroke-linejoin: round;"></polyline></g><g class="djs-visual" id="Association_0vc3ty9" transform="translate(0 0)"><polyline points="495,-3529 540,-3541 " style="fill: none; stroke: black; stroke-width: 2px; stroke-dasharray: 0.5, 5; stroke-linecap: round; stroke-linejoin: round;"></polyline></g><g class="djs-visual" id="Association_1lr26b6" transform="translate(0 0)"><polyline points="235,-4455 269,-4479 " style="fill: none; stroke: black; stroke-width: 2px; stroke-dasharray: 0.5, 5; stroke-linecap: round; stroke-linejoin: round;"></polyline></g></g><g><rect class="viewport" x="-2351.9238095238093" y="-5099.577777777778" width="5507.936507936508" height="2095.2380952380954"></rect></g></svg>