<svg width="100%" height="100%" viewBox="-50, -5136, 1835, 2915"><g><g class="djs-visual" id="Flow_0yvwcaf" transform="translate(0 0)"><path d="m  460,-4962L460,-4890 L197,-4890 " style="fill: none; stroke-width: 2px; stroke: black; stroke-linejoin: round; marker-end: url(&quot;#sequenceflow-end-white-black-8t58nlyzume678x3q73nt35lw&quot;);"></path></g><g class="djs-visual" id="Flow_179oe42" transform="translate(0 0)"><path d="m  310,-4962L310,-4890 L197,-4890 " style="fill: none; stroke-width: 2px; stroke: black; stroke-linejoin: round; marker-end: url(&quot;#sequenceflow-end-white-black-8t58nlyzume678x3q73nt35lw&quot;);"></path></g><g class="djs-visual" id="Flow_0v6pq04" transform="translate(0 0)"><path d="m  172,-4865L172,-4830 " style="fill: none; stroke-width: 2px; stroke: black; stroke-linejoin: round; marker-end: url(&quot;#sequenceflow-end-white-black-8t58nlyzume678x3q73nt35lw&quot;);"></path></g><g class="djs-visual" id="Flow_19knhf7" transform="translate(0 0)"><path d="m  440,-3710L440,-3665 " style="fill: none; stroke-width: 2px; stroke: black; stroke-linejoin: round; marker-end: url(&quot;#sequenceflow-end-white-black-8t58nlyzume678x3q73nt35lw&quot;);"></path></g><g class="djs-visual" id="Flow_1p62zdh" transform="translate(0 0)"><path d="m  172,-3075L172,-3040 " style="fill: none; stroke-width: 2px; stroke: black; stroke-linejoin: round; marker-end: url(&quot;#sequenceflow-end-white-black-8t58nlyzume678x3q73nt35lw&quot;);"></path></g><g class="djs-visual" id="Flow_1634hjk" transform="translate(0 0)"><path d="m  172,-3710L172,-3125 " style="fill: none; stroke-width: 2px; stroke: black; stroke-linejoin: round; marker-end: url(&quot;#sequenceflow-end-white-black-8t58nlyzume678x3q73nt35lw&quot;);"></path></g><g class="djs-visual" id="Flow_0c3w611" transform="translate(0 0)"><path d="m  440,-3125L440,-3100 L197,-3100 " style="fill: none; stroke-width: 2px; stroke: black; stroke-linejoin: round; marker-end: url(&quot;#sequenceflow-end-white-black-8t58nlyzume678x3q73nt35lw&quot;);"></path></g><g class="djs-visual" id="Flow_1r7fank" transform="translate(0 0)"><path d="m  197,-3890L440,-3890 L440,-3810 " style="fill: none; stroke-width: 2px; stroke: black; stroke-linejoin: round; marker-end: url(&quot;#sequenceflow-end-white-black-8t58nlyzume678x3q73nt35lw&quot;);"></path></g><g class="djs-visual" id="Flow_1ulpz2d" transform="translate(0 0)"><path d="m  172,-3865L172,-3810 " style="fill: none; stroke-width: 2px; stroke: black; stroke-linejoin: round; marker-end: url(&quot;#sequenceflow-end-white-black-8t58nlyzume678x3q73nt35lw&quot;);"></path></g><g class="djs-visual" id="Flow_1i8e7vq" transform="translate(0 0)"><path d="m  440,-3615L440,-3175 " style="fill: none; stroke-width: 2px; stroke: black; stroke-linejoin: round; marker-end: url(&quot;#sequenceflow-end-white-black-8t58nlyzume678x3q73nt35lw&quot;);"></path></g><g class="djs-visual" id="Flow_17n6dlb" transform="translate(0 0)"><path d="m  172,-3950L172,-3915 " style="fill: none; stroke-width: 2px; stroke: black; stroke-linejoin: round; marker-end: url(&quot;#sequenceflow-end-white-black-8t58nlyzume678x3q73nt35lw&quot;);"></path></g><g class="djs-visual" id="Flow_1fprj7o" transform="translate(0 0)"><path d="m  172,-4100L172,-4050 " style="fill: none; stroke-width: 2px; stroke: black; stroke-linejoin: round; marker-end: url(&quot;#sequenceflow-end-white-black-8t58nlyzume678x3q73nt35lw&quot;);"></path></g><g class="djs-visual" id="Flow_0io9uah" transform="translate(0 0)"><path d="m  172,-4260L172,-4200 " style="fill: none; stroke-width: 2px; stroke: black; stroke-linejoin: round; marker-end: url(&quot;#sequenceflow-end-white-black-8t58nlyzume678x3q73nt35lw&quot;);"></path></g><g class="djs-visual" id="Flow_1sxldyv" transform="translate(0 0)"><path d="m  938,-3190L938,-3150 " style="fill: none; stroke-width: 2px; stroke: black; stroke-linejoin: round; marker-end: url(&quot;#sequenceflow-end-white-black-8t58nlyzume678x3q73nt35lw&quot;);"></path></g><g class="djs-visual" id="Flow_0x3jx38" transform="translate(0 0)"><path d="m  698,-3190L698,-3150 L465,-3150 " style="fill: none; stroke-width: 2px; stroke: black; stroke-linejoin: round; marker-end: url(&quot;#sequenceflow-end-white-black-8t58nlyzume678x3q73nt35lw&quot;);"></path></g><g class="djs-visual" id="Flow_10j7ul0" transform="translate(0 0)"><path d="m  698,-3345L698,-3290 " style="fill: none; stroke-width: 2px; stroke: black; stroke-linejoin: round; marker-end: url(&quot;#sequenceflow-end-white-black-8t58nlyzume678x3q73nt35lw&quot;);"></path></g><g class="djs-visual" id="Flow_19k623p" transform="translate(0 0)"><path d="m  723,-3370L938,-3370 L938,-3290 " style="fill: none; stroke-width: 2px; stroke: black; stroke-linejoin: round; marker-end: url(&quot;#sequenceflow-end-white-black-8t58nlyzume678x3q73nt35lw&quot;);"></path></g><g class="djs-visual" id="Flow_0lgnfif" transform="translate(0 0)"><path d="m  698,-3450L698,-3395 " style="fill: none; stroke-width: 2px; stroke: black; stroke-linejoin: round; marker-end: url(&quot;#sequenceflow-end-white-black-8t58nlyzume678x3q73nt35lw&quot;);"></path></g><g class="djs-visual" id="Flow_0yu4ja3" transform="translate(0 0)"><path d="m  172,-4580L172,-4520 " style="fill: none; stroke-width: 2px; stroke: black; stroke-linejoin: round; marker-end: url(&quot;#sequenceflow-end-white-black-8t58nlyzume678x3q73nt35lw&quot;);"></path></g><g class="djs-visual" id="Flow_029tlyy" transform="translate(0 0)"><path d="m  172,-2776L172,-2730 " style="fill: none; stroke-width: 2px; stroke: black; stroke-linejoin: round; marker-end: url(&quot;#sequenceflow-end-white-black-8t58nlyzume678x3q73nt35lw&quot;);"></path></g><g class="djs-visual" id="Flow_0ipuk1b" transform="translate(0 0)"><path d="m  172,-2630L172,-2550 " style="fill: none; stroke-width: 2px; stroke: black; stroke-linejoin: round; marker-end: url(&quot;#sequenceflow-end-white-black-8t58nlyzume678x3q73nt35lw&quot;);"></path></g><g class="djs-visual" id="Flow_0twv23x" transform="translate(0 0)"><path d="m  172,-2940L172,-2876 " style="fill: none; stroke-width: 2px; stroke: black; stroke-linejoin: round; marker-end: url(&quot;#sequenceflow-end-white-black-8t58nlyzume678x3q73nt35lw&quot;);"></path></g><g class="djs-visual" id="Flow_1i40a5t" transform="translate(0 0)"><path d="m  938,-3050L938,-3008 " style="fill: none; stroke-width: 2px; stroke: black; stroke-linejoin: round; marker-end: url(&quot;#sequenceflow-end-white-black-8t58nlyzume678x3q73nt35lw&quot;);"></path></g><g class="djs-visual" id="Flow_04rce8e" transform="translate(0 0)"><path d="m  172,-4420L172,-4360 " style="fill: none; stroke-width: 2px; stroke: black; stroke-linejoin: round; marker-end: url(&quot;#sequenceflow-end-white-black-8t58nlyzume678x3q73nt35lw&quot;);"></path></g><g class="djs-visual" id="Flow_0psqgzv" transform="translate(0 0)"><path d="m  172,-4730L172,-4680 " style="fill: none; stroke-width: 2px; stroke: black; stroke-linejoin: round; marker-end: url(&quot;#sequenceflow-end-white-black-8t58nlyzume678x3q73nt35lw&quot;);"></path></g><g class="djs-visual" id="Flow_0ya7j25" transform="translate(0 0)"><path d="m  172,-2450L172,-2388 " style="fill: none; stroke-width: 2px; stroke: black; stroke-linejoin: round; marker-end: url(&quot;#sequenceflow-end-white-black-8t58nlyzume678x3q73nt35lw&quot;);"></path></g><g class="djs-visual" id="Flow_0jretc8" transform="translate(0 0)"><path d="m  172,-4962L172,-4915 " style="fill: none; stroke-width: 2px; stroke: black; stroke-linejoin: round; marker-end: url(&quot;#sequenceflow-end-white-black-8t58nlyzume678x3q73nt35lw&quot;);"></path></g><g class="djs-visual" id="Flow_0vcb63v" transform="translate(0 0)"><path d="m  465,-3640L698,-3640 L698,-3550 " style="fill: none; stroke-width: 2px; stroke: black; stroke-linejoin: round; marker-end: url(&quot;#sequenceflow-end-white-black-8t58nlyzume678x3q73nt35lw&quot;);"></path></g><g class="djs-visual" id="Event_0tpantj" transform="translate(154 -2388)"><circle cx="18" cy="18" r="18" style="stroke: black; stroke-width: 4px; fill: white; fill-opacity: 0.95;"></circle></g><g class="djs-visual" id="Event_0tpantj_label" transform="translate(139 -2330)"><text lineHeight="1.2" class="djs-label" style="font-family: Arial, sans-serif; font-size: 11px; font-weight: normal; fill: black;"><tspan x="0" y="9.899999999999999">Asset Finance </tspan><tspan x="2.695068359375" y="23.099999999999998">arrangement </tspan><tspan x="12.3359375" y="36.3">activated </tspan><tspan x="4.453125" y="49.5">successfully</tspan></text></g><g class="djs-visual" id="Activity_0b1pth6" transform="translate(107 -2876)"><rect x="0" y="0" width="130" height="100" rx="10" ry="10" style="stroke: black; stroke-width: 2px; fill: white; fill-opacity: 0.95;"></rect><text lineHeight="1.2" class="djs-label" style="font-family: Arial, sans-serif; font-size: 12px; font-weight: normal; fill: black;"><tspan x="11.8037109375" y="39.2">Verify and authorise </tspan><tspan x="32.1484375" y="53.6">activation of </tspan><tspan x="30.6474609375" y="68">arrangement</tspan></text></g><g class="djs-visual" id="Gateway_0sm43jp" transform="translate(415 -3665)"><polygon points="25,0 50,25 25,50 0,25" style="stroke: black; stroke-width: 2px; fill: white; fill-opacity: 0.95;"></polygon><path d="m 16,15 7.42857142857143,9.714285714285715 -7.42857142857143,9.714285714285715 3.428571428571429,0 5.714285714285715,-7.464228571428572 5.714285714285715,7.464228571428572 3.428571428571429,0 -7.42857142857143,-9.714285714285715 7.42857142857143,-9.714285714285715 -3.428571428571429,0 -5.714285714285715,7.464228571428572 -5.714285714285715,-7.464228571428572 -3.428571428571429,0 z" style="fill: black; stroke-width: 1px; stroke: black;"></path></g><g class="djs-visual" id="Activity_1icesuv" transform="translate(873 -3150)"><rect x="0" y="0" width="130" height="100" rx="10" ry="10" style="stroke: black; stroke-width: 2px; fill: white; fill-opacity: 0.95;"></rect><text lineHeight="1.2" class="djs-label" style="font-family: Arial, sans-serif; font-size: 12px; font-weight: normal; fill: black;"><tspan x="30.490234375" y="53.599999999999994">Display error</tspan></text></g><g class="djs-visual" id="Activity_0fyacv1" transform="translate(107 -3040)"><rect x="0" y="0" width="130" height="100" rx="10" ry="10" style="stroke: black; stroke-width: 2px; fill: white; fill-opacity: 0.95;"></rect><text lineHeight="1.2" class="djs-label" style="font-family: Arial, sans-serif; font-size: 12px; font-weight: normal; fill: black;"><tspan x="12.474609375" y="46.4">Place transaction in </tspan><tspan x="12.12890625" y="60.8">authorisation queue</tspan></text></g><g class="djs-visual" id="Event_1sqrm58" transform="translate(920 -3008)"><circle cx="18" cy="18" r="18" style="stroke: black; stroke-width: 4px; fill: white; fill-opacity: 0.95;"></circle></g><g class="djs-visual" id="Event_1sqrm58_label" transform="translate(900 -2965)"><text lineHeight="1.2" class="djs-label" style="font-family: Arial, sans-serif; font-size: 11px; font-weight: normal; fill: black;"><tspan x="7.98388671875" y="9.899999999999999">Arrangement </tspan><tspan x="0" y="23.099999999999998">activation failure</tspan></text></g><g class="djs-visual" id="Event_1l5nlpj" transform="translate(154 -4998)"><circle cx="18" cy="18" r="18" style="stroke: black; stroke-width: 2px; fill: white; fill-opacity: 0.95;"></circle></g><g class="djs-visual" id="Event_1l5nlpj_label" transform="translate(127 -5080)"><text lineHeight="1.2" class="djs-label" style="font-family: Arial, sans-serif; font-size: 11px; font-weight: normal; fill: black;"><tspan x="10.09375" y="9.899999999999999">Hire Purchase </tspan><tspan x="0" y="23.099999999999998">arrangement to be </tspan><tspan x="22.9296875" y="36.3">activated</tspan></text></g><g class="djs-visual" id="Activity_0n81g7c" transform="translate(107 -2550)"><rect x="0" y="0" width="130" height="100" rx="10" ry="10" style="stroke: black; stroke-width: 2px; fill: white; fill-opacity: 0.95;"></rect><text lineHeight="1.2" class="djs-label" style="font-family: Arial, sans-serif; font-size: 12px; font-weight: normal; fill: black;"><tspan x="27.9765625" y="53.599999999999994">Update status</tspan></text></g><g class="djs-visual" id="Activity_1ozv070" transform="translate(107 -4830)"><rect x="0" y="0" width="130" height="100" rx="10" ry="10" style="stroke: black; stroke-width: 2px; fill: white; fill-opacity: 0.95;"></rect><text lineHeight="1.2" class="djs-label" style="font-family: Arial, sans-serif; font-size: 12px; font-weight: normal; fill: black;"><tspan x="30.1494140625" y="46.4">List available </tspan><tspan x="30.6474609375" y="60.8">arrangement</tspan></text></g><g class="djs-visual" id="Activity_1rsiq23" transform="translate(107 -4520)"><rect x="0" y="0" width="130" height="100" rx="10" ry="10" style="stroke: black; stroke-width: 2px; fill: white; fill-opacity: 0.95;"></rect><text lineHeight="1.2" class="djs-label" style="font-family: Arial, sans-serif; font-size: 12px; font-weight: normal; fill: black;"><tspan x="5.306640625" y="53.599999999999994">Arrangement overview</tspan></text></g><g class="djs-visual" id="Activity_0zxqhze" transform="translate(107 -4200)"><rect x="0" y="0" width="130" height="100" rx="10" ry="10" style="stroke: black; stroke-width: 2px; fill: white; fill-opacity: 0.95;"></rect><text lineHeight="1.2" class="djs-label" style="font-family: Arial, sans-serif; font-size: 12px; font-weight: normal; fill: black;"><tspan x="8.1376953125" y="53.599999999999994">Activate arrangement</tspan></text></g><g class="djs-visual" id="Activity_118a16y" transform="translate(107 -2730)"><rect x="0" y="0" width="130" height="100" rx="10" ry="10" style="stroke: black; stroke-width: 2px; fill: white; fill-opacity: 0.95;"></rect><text lineHeight="1.2" class="djs-label" style="font-family: Arial, sans-serif; font-size: 12px; font-weight: normal; fill: black;"><tspan x="9.1318359375" y="46.4">Generate accounting </tspan><tspan x="46.984375" y="60.8">entries</tspan></text></g><g class="djs-visual" id="Activity_1m2oq1f" transform="translate(107 -4680)"><rect x="0" y="0" width="130" height="100" rx="10" ry="10" style="stroke: black; stroke-width: 2px; fill: white; fill-opacity: 0.95;"></rect><text lineHeight="1.2" class="djs-label" style="font-family: Arial, sans-serif; font-size: 12px; font-weight: normal; fill: black;"><tspan x="12.3046875" y="53.599999999999994">Select arrangement</tspan></text></g><g class="djs-visual" id="Activity_0lhfd1o" transform="translate(107 -4360)"><rect x="0" y="0" width="130" height="100" rx="10" ry="10" style="stroke: black; stroke-width: 2px; fill: white; fill-opacity: 0.95;"></rect><text lineHeight="1.2" class="djs-label" style="font-family: Arial, sans-serif; font-size: 12px; font-weight: normal; fill: black;"><tspan x="15.640625" y="53.599999999999994">Select new activity</tspan></text></g><g class="djs-visual" id="Activity_1kr3dvm" transform="translate(107 -4050)"><rect x="0" y="0" width="130" height="100" rx="10" ry="10" style="stroke: black; stroke-width: 2px; fill: white; fill-opacity: 0.95;"></rect><text lineHeight="1.2" class="djs-label" style="font-family: Arial, sans-serif; font-size: 12px; font-weight: normal; fill: black;"><tspan x="6.97265625" y="46.4">Check if Evidence set </tspan><tspan x="26.8125" y="60.8">up is available</tspan></text></g><g class="djs-visual" id="Activity_02hlawl" transform="translate(633 -3550)"><rect x="0" y="0" width="130" height="100" rx="10" ry="10" style="stroke: black; stroke-width: 2px; fill: white; fill-opacity: 0.95;"></rect><text lineHeight="1.2" class="djs-label" style="font-family: Arial, sans-serif; font-size: 12px; font-weight: normal; fill: black;"><tspan x="21.8203125" y="53.599999999999994">Display override</tspan></text></g><g class="djs-visual" id="Gateway_1fyniq7" transform="translate(673 -3395)"><polygon points="25,0 50,25 25,50 0,25" style="stroke: black; stroke-width: 2px; fill: white; fill-opacity: 0.95;"></polygon><path d="m 16,15 7.42857142857143,9.714285714285715 -7.42857142857143,9.714285714285715 3.428571428571429,0 5.714285714285715,-7.464228571428572 5.714285714285715,7.464228571428572 3.428571428571429,0 -7.42857142857143,-9.714285714285715 7.42857142857143,-9.714285714285715 -3.428571428571429,0 -5.714285714285715,7.464228571428572 -5.714285714285715,-7.464228571428572 -3.428571428571429,0 z" style="fill: black; stroke-width: 1px; stroke: black;"></path></g><g class="djs-visual" id="Activity_1q2lmgi" transform="translate(633 -3290)"><rect x="0" y="0" width="130" height="100" rx="10" ry="10" style="stroke: black; stroke-width: 2px; fill: white; fill-opacity: 0.95;"></rect><text lineHeight="1.2" class="djs-label" style="font-family: Arial, sans-serif; font-size: 12px; font-weight: normal; fill: black;"><tspan x="23.650390625" y="53.599999999999994">Accept override</tspan></text></g><g class="djs-visual" id="Gateway_0p3nsj8" transform="translate(415 -3175)"><polygon points="25,0 50,25 25,50 0,25" style="stroke: black; stroke-width: 2px; fill: white; fill-opacity: 0.95;"></polygon><path d="m 16,15 7.42857142857143,9.714285714285715 -7.42857142857143,9.714285714285715 3.428571428571429,0 5.714285714285715,-7.464228571428572 5.714285714285715,7.464228571428572 3.428571428571429,0 -7.42857142857143,-9.714285714285715 7.42857142857143,-9.714285714285715 -3.428571428571429,0 -5.714285714285715,7.464228571428572 -5.714285714285715,-7.464228571428572 -3.428571428571429,0 z" style="fill: black; stroke-width: 1px; stroke: black;"></path></g><g class="djs-visual" id="Activity_1lbh86l" transform="translate(873 -3290)"><rect x="0" y="0" width="130" height="100" rx="10" ry="10" style="stroke: black; stroke-width: 2px; fill: white; fill-opacity: 0.95;"></rect><text lineHeight="1.2" class="djs-label" style="font-family: Arial, sans-serif; font-size: 12px; font-weight: normal; fill: black;"><tspan x="24.486328125" y="53.599999999999994">Reject override</tspan></text></g><g class="djs-visual" id="Gateway_1sx38b1" transform="translate(147 -3915)"><polygon points="25,0 50,25 25,50 0,25" style="stroke: black; stroke-width: 2px; fill: white; fill-opacity: 0.95;"></polygon><path d="m 16,15 7.42857142857143,9.714285714285715 -7.42857142857143,9.714285714285715 3.428571428571429,0 5.714285714285715,-7.464228571428572 5.714285714285715,7.464228571428572 3.428571428571429,0 -7.42857142857143,-9.714285714285715 7.42857142857143,-9.714285714285715 -3.428571428571429,0 -5.714285714285715,7.464228571428572 -5.714285714285715,-7.464228571428572 -3.428571428571429,0 z" style="fill: black; stroke-width: 1px; stroke: black;"></path></g><g class="djs-visual" id="Activity_1sdn78b" transform="translate(107 -3810)"><rect x="0" y="0" width="130" height="100" rx="10" ry="10" style="stroke: black; stroke-width: 2px; fill: white; fill-opacity: 0.95;"></rect><text lineHeight="1.2" class="djs-label" style="font-family: Arial, sans-serif; font-size: 12px; font-weight: normal; fill: black;"><tspan x="35.818359375" y="46.4">Proceed to </tspan><tspan x="30.48046875" y="60.8">authorisation</tspan></text></g><g class="djs-visual" id="Activity_0rk6nuh" transform="translate(375 -3810)"><rect x="0" y="0" width="130" height="100" rx="10" ry="10" style="stroke: black; stroke-width: 2px; fill: white; fill-opacity: 0.95;"></rect><text lineHeight="1.2" class="djs-label" style="font-family: Arial, sans-serif; font-size: 12px; font-weight: normal; fill: black;"><tspan x="17.478515625" y="46.4">Check if evidence </tspan><tspan x="38.82421875" y="60.8">submitted</tspan></text></g><g class="djs-visual" id="Gateway_0xuyi3l" transform="translate(147 -3125)"><polygon points="25,0 50,25 25,50 0,25" style="stroke: black; stroke-width: 2px; fill: white; fill-opacity: 0.95;"></polygon><path d="m 16,15 7.42857142857143,9.714285714285715 -7.42857142857143,9.714285714285715 3.428571428571429,0 5.714285714285715,-7.464228571428572 5.714285714285715,7.464228571428572 3.428571428571429,0 -7.42857142857143,-9.714285714285715 7.42857142857143,-9.714285714285715 -3.428571428571429,0 -5.714285714285715,7.464228571428572 -5.714285714285715,-7.464228571428572 -3.428571428571429,0 z" style="fill: black; stroke-width: 1px; stroke: black;"></path></g><g class="djs-visual" id="Event_02fofji" transform="translate(292 -4998)"><circle cx="18" cy="18" r="18" style="stroke: black; stroke-width: 2px; fill: white; fill-opacity: 0.95;"></circle></g><g class="djs-visual" id="Event_02fofji_label" transform="translate(265 -5080)"><text lineHeight="1.2" class="djs-label" style="font-family: Arial, sans-serif; font-size: 11px; font-weight: normal; fill: black;"><tspan x="4.2734375" y="9.899999999999999">Operating Lease </tspan><tspan x="0" y="23.099999999999998">arrangement to be </tspan><tspan x="22.9296875" y="36.3">activated</tspan></text></g><g class="djs-visual" id="Event_1s9sawx" transform="translate(442 -4998)"><circle cx="18" cy="18" r="18" style="stroke: black; stroke-width: 2px; fill: white; fill-opacity: 0.95;"></circle></g><g class="djs-visual" id="Event_1s9sawx_label" transform="translate(415 -5080)"><text lineHeight="1.2" class="djs-label" style="font-family: Arial, sans-serif; font-size: 11px; font-weight: normal; fill: black;"><tspan x="8.859375" y="9.899999999999999">Finance Lease </tspan><tspan x="0" y="23.099999999999998">arrangement to be </tspan><tspan x="22.9296875" y="36.3">activated</tspan></text></g><g class="djs-visual" id="Gateway_1xz30e4" transform="translate(147 -4915)"><polygon points="25,0 50,25 25,50 0,25" style="stroke: black; stroke-width: 2px; fill: white; fill-opacity: 0.95;"></polygon><path d="m 16,15 7.42857142857143,9.714285714285715 -7.42857142857143,9.714285714285715 3.428571428571429,0 5.714285714285715,-7.464228571428572 5.714285714285715,7.464228571428572 3.428571428571429,0 -7.42857142857143,-9.714285714285715 7.42857142857143,-9.714285714285715 -3.428571428571429,0 -5.714285714285715,7.464228571428572 -5.714285714285715,-7.464228571428572 -3.428571428571429,0 z" style="fill: black; stroke-width: 1px; stroke: black;"></path></g><g class="djs-visual" id="TextAnnotation_177ch0s" transform="translate(280 -2890)"><rect x="0" y="0" width="120" height="27" rx="0" ry="0" style="stroke: none; stroke-width: 2px; fill: none;"></rect><path d="m 0, 0 m 10,0 l -10,0 l 0,27 l 10,0" style="fill: none; stroke-width: 2px; stroke: black;"></path><text lineHeight="1.2" class="djs-label" style="font-family: Arial, sans-serif; font-size: 12px; font-weight: normal; fill: black;"><tspan x="5" y="15.799999999999999">Arrangement ID</tspan></text></g><g class="djs-visual" id="TextAnnotation_1oe5ksw" transform="translate(270 -4690)"><rect x="0" y="0" width="110" height="26" rx="0" ry="0" style="stroke: none; stroke-width: 2px; fill: none;"></rect><path d="m 0, 0 m 10,0 l -10,0 l 0,26 l 10,0" style="fill: none; stroke-width: 2px; stroke: black;"></path><text lineHeight="1.2" class="djs-label" style="font-family: Arial, sans-serif; font-size: 12px; font-weight: normal; fill: black;"><tspan x="5" y="15.799999999999999">Arrangement ID</tspan></text></g><g class="djs-visual" id="TextAnnotation_16ryjnq" transform="translate(280 -2730)"><rect x="0" y="0" width="330" height="27" rx="0" ry="0" style="stroke: none; stroke-width: 2px; fill: none;"></rect><path d="m 0, 0 m 10,0 l -10,0 l 0,27 l 10,0" style="fill: none; stroke-width: 2px; stroke: black;"></path><text lineHeight="1.2" class="djs-label" style="font-family: Arial, sans-serif; font-size: 12px; font-weight: normal; fill: black;"><tspan x="5" y="15.799999999999999">Based on value in the Lease Type&nbsp; - Finance or Operating</tspan></text></g><g class="djs-visual" id="TextAnnotation_1phwe48" transform="translate(1078 -3150)"><rect x="0" y="0" width="160" height="45" rx="0" ry="0" style="stroke: none; stroke-width: 2px; fill: none;"></rect><path d="m 0, 0 m 10,0 l -10,0 l 0,45 l 10,0" style="fill: none; stroke-width: 2px; stroke: black;"></path><text lineHeight="1.2" class="djs-label" style="font-family: Arial, sans-serif; font-size: 12px; font-weight: normal; fill: black;"><tspan x="5" y="15.799999999999999">Error Message 'Submit </tspan><tspan x="5" y="30.199999999999996">Evidence'</tspan></text></g><g class="djs-visual" id="TextAnnotation_0k1aj23" transform="translate(285 -2600)"><rect x="0" y="0" width="155" height="40" rx="0" ry="0" style="stroke: none; stroke-width: 2px; fill: none;"></rect><path d="m 0, 0 m 10,0 l -10,0 l 0,40 l 10,0" style="fill: none; stroke-width: 2px; stroke: black;"></path><text lineHeight="1.2" class="djs-label" style="font-family: Arial, sans-serif; font-size: 12px; font-weight: normal; fill: black;"><tspan x="5" y="15.799999999999999">Arrangement status </tspan><tspan x="5" y="30.199999999999996">updated as 'Current'</tspan></text></g><g class="djs-visual" id="Flow_0vcb63v_label" transform="translate(707 -3604)"><text lineHeight="1.2" class="djs-label" style="font-family: Arial, sans-serif; font-size: 11px; font-weight: normal; fill: black;"><tspan x="0" y="9.899999999999999">Evidence not </tspan><tspan x="8.419921875" y="23.099999999999998">submitted</tspan></text></g><g class="djs-visual" id="Flow_19k623p_label" transform="translate(953 -3344)"><text lineHeight="1.2" class="djs-label" style="font-family: Arial, sans-serif; font-size: 11px; font-weight: normal; fill: black;"><tspan x="0" y="9.899999999999999">Override to be </tspan><tspan x="14.359375" y="23.099999999999998">declined</tspan></text></g><g class="djs-visual" id="Flow_10j7ul0_label" transform="translate(704 -3337)"><text lineHeight="1.2" class="djs-label" style="font-family: Arial, sans-serif; font-size: 11px; font-weight: normal; fill: black;"><tspan x="0" y="9.899999999999999">Override to be </tspan><tspan x="12.5234375" y="23.099999999999998">accepted</tspan></text></g><g class="djs-visual" id="Flow_1i8e7vq_label" transform="translate(430 -3604)"><text lineHeight="1.2" class="djs-label" style="font-family: Arial, sans-serif; font-size: 11px; font-weight: normal; fill: black;"><tspan x="0" y="9.899999999999999">Evidence submitted</tspan></text></g><g class="djs-visual" id="Flow_1ulpz2d_label" transform="translate(182 -3858)"><text lineHeight="1.2" class="djs-label" style="font-family: Arial, sans-serif; font-size: 11px; font-weight: normal; fill: black;"><tspan x="0" y="9.899999999999999">Evidence set up not </tspan><tspan x="27.0712890625" y="23.099999999999998">available</tspan></text></g><g class="djs-visual" id="Flow_1r7fank_label" transform="translate(465 -3858)"><text lineHeight="1.2" class="djs-label" style="font-family: Arial, sans-serif; font-size: 11px; font-weight: normal; fill: black;"><tspan x="0" y="9.899999999999999">Evidence set up is </tspan><tspan x="23.175537109375" y="23.099999999999998">available</tspan></text></g><g class="djs-visual" id="Association_1wzgb2s" transform="translate(0 0)"><polyline points="237,-2857 280,-2877 " style="fill: none; stroke: black; stroke-width: 2px; stroke-dasharray: 0.5, 5; stroke-linecap: round; stroke-linejoin: round;"></polyline></g><g class="djs-visual" id="Association_0nzxdgz" transform="translate(0 0)"><polyline points="237,-2706 280,-2724 " style="fill: none; stroke: black; stroke-width: 2px; stroke-dasharray: 0.5, 5; stroke-linecap: round; stroke-linejoin: round;"></polyline></g><g class="djs-visual" id="Association_0bkgd4p" transform="translate(0 0)"><polyline points="1003,-3119 1078,-3142 " style="fill: none; stroke: black; stroke-width: 2px; stroke-dasharray: 0.5, 5; stroke-linecap: round; stroke-linejoin: round;"></polyline></g><g class="djs-visual" id="Association_1ms34f4" transform="translate(0 0)"><polyline points="237,-2534 287,-2560 " style="fill: none; stroke: black; stroke-width: 2px; stroke-dasharray: 0.5, 5; stroke-linecap: round; stroke-linejoin: round;"></polyline></g><g class="djs-visual" id="Association_1sa1oh5" transform="translate(0 0)"><polyline points="237,-4660 270,-4675 " style="fill: none; stroke: black; stroke-width: 2px; stroke-dasharray: 0.5, 5; stroke-linecap: round; stroke-linejoin: round;"></polyline></g></g><g><rect class="viewport" x="-3033.448717948718" y="-5095.961538461538" width="7414.529914529914" height="2820.5128205128203"></rect></g></svg>