<svg width="100%" height="100%" viewBox="-50, -103, 1835, 2407"><g><g class="djs-visual" id="Flow_0f1dhet" transform="translate(0 0)"><path d="m  440,68L440,160 L185,160 " style="fill: none; stroke-width: 2px; stroke: black; stroke-linejoin: round; marker-end: url(&quot;#sequenceflow-end-white-black-42hjtp39fqs3tnuyv5yqzoezv&quot;);"></path></g><g class="djs-visual" id="Flow_12i0bhi" transform="translate(0 0)"><path d="m  305,68L305,160 L185,160 " style="fill: none; stroke-width: 2px; stroke: black; stroke-linejoin: round; marker-end: url(&quot;#sequenceflow-end-white-black-42hjtp39fqs3tnuyv5yqzoezv&quot;);"></path></g><g class="djs-visual" id="Flow_0rr8xmi" transform="translate(0 0)"><path d="m  160,185L160,220 " style="fill: none; stroke-width: 2px; stroke: black; stroke-linejoin: round; marker-end: url(&quot;#sequenceflow-end-white-black-42hjtp39fqs3tnuyv5yqzoezv&quot;);"></path></g><g class="djs-visual" id="Flow_0fupned" transform="translate(0 0)"><path d="m  160,2060L160,2162 " style="fill: none; stroke-width: 2px; stroke: black; stroke-linejoin: round; marker-end: url(&quot;#sequenceflow-end-white-black-42hjtp39fqs3tnuyv5yqzoezv&quot;);"></path></g><g class="djs-visual" id="Flow_1jhcanr" transform="translate(0 0)"><path d="m  160,1880L160,1960 " style="fill: none; stroke-width: 2px; stroke: black; stroke-linejoin: round; marker-end: url(&quot;#sequenceflow-end-white-black-42hjtp39fqs3tnuyv5yqzoezv&quot;);"></path></g><g class="djs-visual" id="Flow_1xloxh2" transform="translate(0 0)"><path d="m  160,1700L160,1780 " style="fill: none; stroke-width: 2px; stroke: black; stroke-linejoin: round; marker-end: url(&quot;#sequenceflow-end-white-black-42hjtp39fqs3tnuyv5yqzoezv&quot;);"></path></g><g class="djs-visual" id="Flow_1f5h2hm" transform="translate(0 0)"><path d="m  160,1530L160,1600 " style="fill: none; stroke-width: 2px; stroke: black; stroke-linejoin: round; marker-end: url(&quot;#sequenceflow-end-white-black-42hjtp39fqs3tnuyv5yqzoezv&quot;);"></path></g><g class="djs-visual" id="Flow_0ts9tiw" transform="translate(0 0)"><path d="m  160,1325L160,1430 " style="fill: none; stroke-width: 2px; stroke: black; stroke-linejoin: round; marker-end: url(&quot;#sequenceflow-end-white-black-42hjtp39fqs3tnuyv5yqzoezv&quot;);"></path></g><g class="djs-visual" id="Flow_0mvty7d" transform="translate(0 0)"><path d="m  465,1170L630,1170 L630,1222 " style="fill: none; stroke-width: 2px; stroke: black; stroke-linejoin: round; marker-end: url(&quot;#sequenceflow-end-white-black-42hjtp39fqs3tnuyv5yqzoezv&quot;);"></path></g><g class="djs-visual" id="Flow_0qqdije" transform="translate(0 0)"><path d="m  440,1195L440,1300 L185,1300 " style="fill: none; stroke-width: 2px; stroke: black; stroke-linejoin: round; marker-end: url(&quot;#sequenceflow-end-white-black-42hjtp39fqs3tnuyv5yqzoezv&quot;);"></path></g><g class="djs-visual" id="Flow_1c0iaxp" transform="translate(0 0)"><path d="m  440,1060L440,1145 " style="fill: none; stroke-width: 2px; stroke: black; stroke-linejoin: round; marker-end: url(&quot;#sequenceflow-end-white-black-42hjtp39fqs3tnuyv5yqzoezv&quot;);"></path></g><g class="djs-visual" id="Flow_0ct8vs2" transform="translate(0 0)"><path d="m  185,840L440,840 L440,960 " style="fill: none; stroke-width: 2px; stroke: black; stroke-linejoin: round; marker-end: url(&quot;#sequenceflow-end-white-black-42hjtp39fqs3tnuyv5yqzoezv&quot;);"></path></g><g class="djs-visual" id="Flow_0c5mhqx" transform="translate(0 0)"><path d="m  160,865L160,1275 " style="fill: none; stroke-width: 2px; stroke: black; stroke-linejoin: round; marker-end: url(&quot;#sequenceflow-end-white-black-42hjtp39fqs3tnuyv5yqzoezv&quot;);"></path></g><g class="djs-visual" id="Flow_1blqbdn" transform="translate(0 0)"><path d="m  160,730L160,815 " style="fill: none; stroke-width: 2px; stroke: black; stroke-linejoin: round; marker-end: url(&quot;#sequenceflow-end-white-black-42hjtp39fqs3tnuyv5yqzoezv&quot;);"></path></g><g class="djs-visual" id="Flow_0saoxju" transform="translate(0 0)"><path d="m  160,540L160,630 " style="fill: none; stroke-width: 2px; stroke: black; stroke-linejoin: round; marker-end: url(&quot;#sequenceflow-end-white-black-42hjtp39fqs3tnuyv5yqzoezv&quot;);"></path></g><g class="djs-visual" id="Flow_04pliz8" transform="translate(0 0)"><path d="m  160,320L160,440 " style="fill: none; stroke-width: 2px; stroke: black; stroke-linejoin: round; marker-end: url(&quot;#sequenceflow-end-white-black-42hjtp39fqs3tnuyv5yqzoezv&quot;);"></path></g><g class="djs-visual" id="Flow_194xql1" transform="translate(0 0)"><path d="m  160,68L160,135 " style="fill: none; stroke-width: 2px; stroke: black; stroke-linejoin: round; marker-end: url(&quot;#sequenceflow-end-white-black-42hjtp39fqs3tnuyv5yqzoezv&quot;);"></path></g><g class="djs-visual" id="StartEvent_1bm324f" transform="translate(142 32)"><circle cx="18" cy="18" r="18" style="stroke: black; stroke-width: 2px; fill: white; fill-opacity: 0.95;"></circle></g><g class="djs-visual" id="StartEvent_1bm324f_label" transform="translate(116 -47)"><text lineHeight="1.2" class="djs-label" style="font-family: Arial, sans-serif; font-size: 11px; font-weight: normal; fill: black;"><tspan x="0" y="9.899999999999999">Transaction details </tspan><tspan x="27.660888671875" y="23.099999999999998">defined</tspan></text></g><g class="djs-visual" id="Activity_07jlade" transform="translate(95 220)"><rect x="0" y="0" width="130" height="100" rx="10" ry="10" style="stroke: black; stroke-width: 2px; fill: white; fill-opacity: 0.95;"></rect><text lineHeight="1.2" class="djs-label" style="font-family: Arial, sans-serif; font-size: 12px; font-weight: normal; fill: black;"><tspan x="9.9765625" y="46.4">Obtain FX Rate from </tspan><tspan x="11.650390625" y="60.8">treasury - if required</tspan></text></g><g class="djs-visual" id="Activity_17gon5p" transform="translate(95 440)"><rect x="0" y="0" width="130" height="100" rx="10" ry="10" style="stroke: black; stroke-width: 2px; fill: white; fill-opacity: 0.95;"></rect><text lineHeight="1.2" class="djs-label" style="font-family: Arial, sans-serif; font-size: 12px; font-weight: normal; fill: black;"><tspan x="9.640625" y="53.599999999999994">Capture deal (Forex)</tspan></text></g><g class="djs-visual" id="Activity_0hez806" transform="translate(95 630)"><rect x="0" y="0" width="130" height="100" rx="10" ry="10" style="stroke: black; stroke-width: 2px; fill: white; fill-opacity: 0.95;"></rect><text lineHeight="1.2" class="djs-label" style="font-family: Arial, sans-serif; font-size: 12px; font-weight: normal; fill: black;"><tspan x="17.912109375" y="46.4">Validate &amp; update </tspan><tspan x="44.15625" y="60.8">position</tspan></text></g><g class="djs-visual" id="Gateway_1j5iefq" transform="translate(135 815)"><polygon points="25,0 50,25 25,50 0,25" style="stroke: black; stroke-width: 2px; fill: white; fill-opacity: 0.95;"></polygon><path d="m 16,15 7.42857142857143,9.714285714285715 -7.42857142857143,9.714285714285715 3.428571428571429,0 5.714285714285715,-7.464228571428572 5.714285714285715,7.464228571428572 3.428571428571429,0 -7.42857142857143,-9.714285714285715 7.42857142857143,-9.714285714285715 -3.428571428571429,0 -5.714285714285715,7.464228571428572 -5.714285714285715,-7.464228571428572 -3.428571428571429,0 z" style="fill: black; stroke-width: 1px; stroke: black;"></path></g><g class="djs-visual" id="Gateway_0fg2doj" transform="translate(135 1275)"><polygon points="25,0 50,25 25,50 0,25" style="stroke: black; stroke-width: 2px; fill: white; fill-opacity: 0.95;"></polygon><path d="m 16,15 7.42857142857143,9.714285714285715 -7.42857142857143,9.714285714285715 3.428571428571429,0 5.714285714285715,-7.464228571428572 5.714285714285715,7.464228571428572 3.428571428571429,0 -7.42857142857143,-9.714285714285715 7.42857142857143,-9.714285714285715 -3.428571428571429,0 -5.714285714285715,7.464228571428572 -5.714285714285715,-7.464228571428572 -3.428571428571429,0 z" style="fill: black; stroke-width: 1px; stroke: black;"></path></g><g class="djs-visual" id="Activity_1c7vekm" transform="translate(375 960)"><rect x="0" y="0" width="130" height="100" rx="10" ry="10" style="stroke: black; stroke-width: 2px; fill: white; fill-opacity: 0.95;"></rect><text lineHeight="1.2" class="djs-label" style="font-family: Arial, sans-serif; font-size: 12px; font-weight: normal; fill: black;"><tspan x="22.478515625" y="39.2">Accept warning/ </tspan><tspan x="12.3125" y="53.6">override for security </tspan><tspan x="29.150390625" y="68">order capture</tspan></text></g><g class="djs-visual" id="Gateway_0z99t85" transform="translate(415 1145)"><polygon points="25,0 50,25 25,50 0,25" style="stroke: black; stroke-width: 2px; fill: white; fill-opacity: 0.95;"></polygon><path d="m 16,15 7.42857142857143,9.714285714285715 -7.42857142857143,9.714285714285715 3.428571428571429,0 5.714285714285715,-7.464228571428572 5.714285714285715,7.464228571428572 3.428571428571429,0 -7.42857142857143,-9.714285714285715 7.42857142857143,-9.714285714285715 -3.428571428571429,0 -5.714285714285715,7.464228571428572 -5.714285714285715,-7.464228571428572 -3.428571428571429,0 z" style="fill: black; stroke-width: 1px; stroke: black;"></path></g><g class="djs-visual" id="Event_1o5uh4p" transform="translate(612 1222)"><circle cx="18" cy="18" r="18" style="stroke: black; stroke-width: 4px; fill: white; fill-opacity: 0.95;"></circle></g><g class="djs-visual" id="Event_1o5uh4p_label" transform="translate(582 1269)"><text lineHeight="1.2" class="djs-label" style="font-family: Arial, sans-serif; font-size: 11px; font-weight: normal; fill: black;"><tspan x="0" y="9.899999999999999">Transaction rejected</tspan></text></g><g class="djs-visual" id="Activity_0e5tapv" transform="translate(95 1430)"><rect x="0" y="0" width="130" height="100" rx="10" ry="10" style="stroke: black; stroke-width: 2px; fill: white; fill-opacity: 0.95;"></rect><text lineHeight="1.2" class="djs-label" style="font-family: Arial, sans-serif; font-size: 12px; font-weight: normal; fill: black;"><tspan x="20.80859375" y="53.599999999999994">Execute FX deal</tspan></text></g><g class="djs-visual" id="Activity_049sqm7" transform="translate(95 1600)"><rect x="0" y="0" width="130" height="100" rx="10" ry="10" style="stroke: black; stroke-width: 2px; fill: white; fill-opacity: 0.95;"></rect><text lineHeight="1.2" class="djs-label" style="font-family: Arial, sans-serif; font-size: 12px; font-weight: normal; fill: black;"><tspan x="15.80859375" y="46.4">Receive execution </tspan><tspan x="10.6484375" y="60.8">details from treasury</tspan></text></g><g class="djs-visual" id="Activity_07yuia6" transform="translate(95 1780)"><rect x="0" y="0" width="130" height="100" rx="10" ry="10" style="stroke: black; stroke-width: 2px; fill: white; fill-opacity: 0.95;"></rect><text lineHeight="1.2" class="djs-label" style="font-family: Arial, sans-serif; font-size: 12px; font-weight: normal; fill: black;"><tspan x="7.4619140625" y="46.4">Update and authorise </tspan><tspan x="40.3203125" y="60.8">deal (FX)</tspan></text></g><g class="djs-visual" id="Activity_0bayfcy" transform="translate(95 1960)"><rect x="0" y="0" width="130" height="100" rx="10" ry="10" style="stroke: black; stroke-width: 2px; fill: white; fill-opacity: 0.95;"></rect><text lineHeight="1.2" class="djs-label" style="font-family: Arial, sans-serif; font-size: 12px; font-weight: normal; fill: black;"><tspan x="9.134765625" y="46.4">Provide trade data to </tspan><tspan x="35.9326171875" y="60.8">back-office</tspan></text></g><g class="djs-visual" id="Event_0wgac88" transform="translate(142 2162)"><circle cx="18" cy="18" r="18" style="stroke: black; stroke-width: 4px; fill: white; fill-opacity: 0.95;"></circle></g><g class="djs-visual" id="Event_0wgac88_label" transform="translate(120 2208)"><text lineHeight="1.2" class="djs-label" style="font-family: Arial, sans-serif; font-size: 11px; font-weight: normal; fill: black;"><tspan x="0.2490234375" y="9.899999999999999">Forex trade data </tspan><tspan x="0" y="23.099999999999998">provided to back </tspan><tspan x="27.5615234375" y="36.3">office</tspan></text></g><g class="djs-visual" id="Gateway_0x59zsh" transform="translate(135 135)"><polygon points="25,0 50,25 25,50 0,25" style="stroke: black; stroke-width: 2px; fill: white; fill-opacity: 0.95;"></polygon><circle cx="25" cy="25" r="13" style="stroke: black; stroke-width: 2.5px; fill: white;"></circle></g><g class="djs-visual" id="Event_01bfcu5" transform="translate(287 32)"><circle cx="18" cy="18" r="18" style="stroke: black; stroke-width: 2px; fill: white; fill-opacity: 0.95;"></circle></g><g class="djs-visual" id="Event_01bfcu5_label" transform="translate(265 -40)"><text lineHeight="1.2" class="djs-label" style="font-family: Arial, sans-serif; font-size: 11px; font-weight: normal; fill: black;"><tspan x="0" y="9.899999999999999">User input limits</tspan></text></g><g class="djs-visual" id="Event_0tklt8p" transform="translate(422 32)"><circle cx="18" cy="18" r="18" style="stroke: black; stroke-width: 2px; fill: white; fill-opacity: 0.95;"></circle></g><g class="djs-visual" id="Event_0tklt8p_label" transform="translate(406 -47)"><text lineHeight="1.2" class="djs-label" style="font-family: Arial, sans-serif; font-size: 11px; font-weight: normal; fill: black;"><tspan x="0" y="9.899999999999999">Product limits </tspan><tspan x="11.180908203125" y="23.099999999999998">sufficient</tspan></text></g><g class="djs-visual" id="TextAnnotation_1doqqyy" transform="translate(270 387)"><rect x="0" y="0" width="140" height="30" rx="0" ry="0" style="stroke: none; stroke-width: 2px; fill: none;"></rect><path d="m 0, 0 m 10,0 l -10,0 l 0,30 l 10,0" style="fill: none; stroke-width: 2px; stroke: black;"></path><text lineHeight="1.2" class="djs-label" style="font-family: Arial, sans-serif; font-size: 12px; font-weight: normal; fill: black;"><tspan x="5" y="15.799999999999999">Indicative Rate</tspan></text></g><g class="djs-visual" id="TextAnnotation_0nkwmxz" transform="translate(270 560)"><rect x="0" y="0" width="300" height="50" rx="0" ry="0" style="stroke: none; stroke-width: 2px; fill: none;"></rect><path d="m 0, 0 m 10,0 l -10,0 l 0,50 l 10,0" style="fill: none; stroke-width: 2px; stroke: black;"></path><text lineHeight="1.2" class="djs-label" style="font-family: Arial, sans-serif; font-size: 12px; font-weight: normal; fill: black;"><tspan x="5" y="15.799999999999999">trade validation&nbsp;</tspan><tspan x="5" y="30.199999999999996">(can trigger exception handling processes) Update </tspan><tspan x="5" y="44.599999999999994">credit limits &amp; trader limits</tspan></text></g><g class="djs-visual" id="TextAnnotation_0vcl69k" transform="translate(270 1730)"><rect x="0" y="0" width="70" height="30" rx="0" ry="0" style="stroke: none; stroke-width: 2px; fill: none;"></rect><path d="m 0, 0 m 10,0 l -10,0 l 0,30 l 10,0" style="fill: none; stroke-width: 2px; stroke: black;"></path><text lineHeight="1.2" class="djs-label" style="font-family: Arial, sans-serif; font-size: 12px; font-weight: normal; fill: black;"><tspan x="5" y="15.799999999999999">Final Rate</tspan></text></g><g class="djs-visual" id="Flow_04pliz8_label" transform="translate(171 346)"><text lineHeight="1.2" class="djs-label" style="font-family: Arial, sans-serif; font-size: 11px; font-weight: normal; fill: black;"><tspan x="0" y="9.899999999999999">Rate obtained and </tspan><tspan x="0.46484375" y="23.099999999999998">agreed with Client</tspan></text></g><g class="djs-visual" id="Flow_0c5mhqx_label" transform="translate(171 872)"><text lineHeight="1.2" class="djs-label" style="font-family: Arial, sans-serif; font-size: 11px; font-weight: normal; fill: black;"><tspan x="0" y="9.899999999999999">No exceptions </tspan><tspan x="4.51708984375" y="23.099999999999998">encountered</tspan></text></g><g class="djs-visual" id="Flow_0ct8vs2_label" transform="translate(451 873)"><text lineHeight="1.2" class="djs-label" style="font-family: Arial, sans-serif; font-size: 11px; font-weight: normal; fill: black;"><tspan x="3.43212890625" y="9.899999999999999">Exceptions </tspan><tspan x="0" y="23.099999999999998">encountered </tspan><tspan x="3.13671875" y="36.3">- Overrides</tspan></text></g><g class="djs-visual" id="Flow_0qqdije_label" transform="translate(452 1269)"><text lineHeight="1.2" class="djs-label" style="font-family: Arial, sans-serif; font-size: 11px; font-weight: normal; fill: black;"><tspan x="0" y="9.899999999999999">Transaction </tspan><tspan x="5.703125" y="23.099999999999998">accepted</tspan></text></g><g class="djs-visual" id="Association_1onbyvz" transform="translate(0 0)"><polyline points="222,443 270,405 " style="fill: none; stroke: black; stroke-width: 2px; stroke-dasharray: 0.5, 5; stroke-linecap: round; stroke-linejoin: round;"></polyline></g><g class="djs-visual" id="Association_1fum9cy" transform="translate(0 0)"><polyline points="224,636 270,603 " style="fill: none; stroke: black; stroke-width: 2px; stroke-dasharray: 0.5, 5; stroke-linecap: round; stroke-linejoin: round;"></polyline></g><g class="djs-visual" id="Association_0m8rkn2" transform="translate(0 0)"><polyline points="221,1783 270,1745 " style="fill: none; stroke: black; stroke-width: 2px; stroke-dasharray: 0.5, 5; stroke-linecap: round; stroke-linejoin: round;"></polyline></g></g><g><rect class="viewport" x="-2645.101398601399" y="-53.01748251748252" width="6066.433566433567" height="2307.692307692308"></rect></g></svg>