<svg width="100%" height="100%" viewBox="-248, 1177, 1835, 3011"><g><g class="djs-visual" id="Flow_1ifa0bv" transform="translate(0 0)"><path d="m  -40,4010L-40,4062 " style="fill: none; stroke-width: 2px; stroke: black; stroke-linejoin: round; marker-end: url(&quot;#sequenceflow-end-white-black-0wap3tj7scy6r8xozsjsd6b6y&quot;);"></path></g><g class="djs-visual" id="Flow_0zlh2ql" transform="translate(0 0)"><path d="m  -40,3870L-40,3910 " style="fill: none; stroke-width: 2px; stroke: black; stroke-linejoin: round; marker-end: url(&quot;#sequenceflow-end-white-black-0wap3tj7scy6r8xozsjsd6b6y&quot;);"></path></g><g class="djs-visual" id="Flow_0f6divm" transform="translate(0 0)"><path d="m  -40,3570L-40,3620 " style="fill: none; stroke-width: 2px; stroke: black; stroke-linejoin: round; marker-end: url(&quot;#sequenceflow-end-white-black-0wap3tj7scy6r8xozsjsd6b6y&quot;);"></path></g><g class="djs-visual" id="Flow_0skwrq3" transform="translate(0 0)"><path d="m  -40,3720L-40,3770 " style="fill: none; stroke-width: 2px; stroke: black; stroke-linejoin: round; marker-end: url(&quot;#sequenceflow-end-white-black-0wap3tj7scy6r8xozsjsd6b6y&quot;);"></path></g><g class="djs-visual" id="Flow_0fa99xu" transform="translate(0 0)"><path d="m  340,3570L340,3602 " style="fill: none; stroke-width: 2px; stroke: black; stroke-linejoin: round; marker-end: url(&quot;#sequenceflow-end-white-black-0wap3tj7scy6r8xozsjsd6b6y&quot;);"></path></g><g class="djs-visual" id="Flow_13dduvs" transform="translate(0 0)"><path d="m  -40,3340L-40,3375 " style="fill: none; stroke-width: 2px; stroke: black; stroke-linejoin: round; marker-end: url(&quot;#sequenceflow-end-white-black-0wap3tj7scy6r8xozsjsd6b6y&quot;);"></path></g><g class="djs-visual" id="Flow_1rjlp88" transform="translate(0 0)"><path d="m  -15,3400L340,3400 L340,3470 " style="fill: none; stroke-width: 2px; stroke: black; stroke-linejoin: round; marker-end: url(&quot;#sequenceflow-end-white-black-0wap3tj7scy6r8xozsjsd6b6y&quot;);"></path></g><g class="djs-visual" id="Flow_0par5sq" transform="translate(0 0)"><path d="m  -40,3425L-40,3470 " style="fill: none; stroke-width: 2px; stroke: black; stroke-linejoin: round; marker-end: url(&quot;#sequenceflow-end-white-black-0wap3tj7scy6r8xozsjsd6b6y&quot;);"></path></g><g class="djs-visual" id="Flow_0slpbvf" transform="translate(0 0)"><path d="m  -40,3170L-40,3240 " style="fill: none; stroke-width: 2px; stroke: black; stroke-linejoin: round; marker-end: url(&quot;#sequenceflow-end-white-black-0wap3tj7scy6r8xozsjsd6b6y&quot;);"></path></g><g class="djs-visual" id="Flow_1w8c91t" transform="translate(0 0)"><path d="m  340,3160L340,3192 " style="fill: none; stroke-width: 2px; stroke: black; stroke-linejoin: round; marker-end: url(&quot;#sequenceflow-end-white-black-0wap3tj7scy6r8xozsjsd6b6y&quot;);"></path></g><g class="djs-visual" id="Flow_052ittr" transform="translate(0 0)"><path d="m  -40,3015L-40,3070 " style="fill: none; stroke-width: 2px; stroke: black; stroke-linejoin: round; marker-end: url(&quot;#sequenceflow-end-white-black-0wap3tj7scy6r8xozsjsd6b6y&quot;);"></path></g><g class="djs-visual" id="Flow_12kxuqi" transform="translate(0 0)"><path d="m  -40,2750L-40,2800 " style="fill: none; stroke-width: 2px; stroke: black; stroke-linejoin: round; marker-end: url(&quot;#sequenceflow-end-white-black-0wap3tj7scy6r8xozsjsd6b6y&quot;);"></path></g><g class="djs-visual" id="Flow_02gcuig" transform="translate(0 0)"><path d="m  -40,2900L-40,2965 " style="fill: none; stroke-width: 2px; stroke: black; stroke-linejoin: round; marker-end: url(&quot;#sequenceflow-end-white-black-0wap3tj7scy6r8xozsjsd6b6y&quot;);"></path></g><g class="djs-visual" id="Flow_1jnq20s" transform="translate(0 0)"><path d="m  -15,2990L340,2990 L340,3060 " style="fill: none; stroke-width: 2px; stroke: black; stroke-linejoin: round; marker-end: url(&quot;#sequenceflow-end-white-black-0wap3tj7scy6r8xozsjsd6b6y&quot;);"></path></g><g class="djs-visual" id="Flow_0e3a774" transform="translate(0 0)"><path d="m  600,3160L600,3202 " style="fill: none; stroke-width: 2px; stroke: black; stroke-linejoin: round; marker-end: url(&quot;#sequenceflow-end-white-black-0wap3tj7scy6r8xozsjsd6b6y&quot;);"></path></g><g class="djs-visual" id="Flow_05o5ggd" transform="translate(0 0)"><path d="m  -40,2560L-40,2650 " style="fill: none; stroke-width: 2px; stroke: black; stroke-linejoin: round; marker-end: url(&quot;#sequenceflow-end-white-black-0wap3tj7scy6r8xozsjsd6b6y&quot;);"></path></g><g class="djs-visual" id="Flow_0g1hr6b" transform="translate(0 0)"><path d="m  910,3160L910,3200 L1130,3200 L1130,1890 L-15,1890 " style="fill: none; stroke-width: 2px; stroke: black; stroke-linejoin: round; marker-end: url(&quot;#sequenceflow-end-white-black-0wap3tj7scy6r8xozsjsd6b6y&quot;);"></path></g><g class="djs-visual" id="Flow_05jl60b" transform="translate(0 0)"><path d="m  910,2990L910,3060 " style="fill: none; stroke-width: 2px; stroke: black; stroke-linejoin: round; marker-end: url(&quot;#sequenceflow-end-white-black-0wap3tj7scy6r8xozsjsd6b6y&quot;);"></path></g><g class="djs-visual" id="Flow_09tf67r" transform="translate(0 0)"><path d="m  600,2990L600,3060 " style="fill: none; stroke-width: 2px; stroke: black; stroke-linejoin: round; marker-end: url(&quot;#sequenceflow-end-white-black-0wap3tj7scy6r8xozsjsd6b6y&quot;);"></path></g><g class="djs-visual" id="Flow_1rxz8p3" transform="translate(0 0)"><path d="m  910,2810L910,2890 " style="fill: none; stroke-width: 2px; stroke: black; stroke-linejoin: round; marker-end: url(&quot;#sequenceflow-end-white-black-0wap3tj7scy6r8xozsjsd6b6y&quot;);"></path></g><g class="djs-visual" id="Flow_0szffyg" transform="translate(0 0)"><path d="m  600,2810L600,2890 " style="fill: none; stroke-width: 2px; stroke: black; stroke-linejoin: round; marker-end: url(&quot;#sequenceflow-end-white-black-0wap3tj7scy6r8xozsjsd6b6y&quot;);"></path></g><g class="djs-visual" id="Flow_1tiq003" transform="translate(0 0)"><path d="m  625,2620L910,2620 L910,2710 " style="fill: none; stroke-width: 2px; stroke: black; stroke-linejoin: round; marker-end: url(&quot;#sequenceflow-end-white-black-0wap3tj7scy6r8xozsjsd6b6y&quot;);"></path></g><g class="djs-visual" id="Flow_1rs67it" transform="translate(0 0)"><path d="m  600,2645L600,2710 " style="fill: none; stroke-width: 2px; stroke: black; stroke-linejoin: round; marker-end: url(&quot;#sequenceflow-end-white-black-0wap3tj7scy6r8xozsjsd6b6y&quot;);"></path></g><g class="djs-visual" id="Flow_0ift5pd" transform="translate(0 0)"><path d="m  600,2560L600,2595 " style="fill: none; stroke-width: 2px; stroke: black; stroke-linejoin: round; marker-end: url(&quot;#sequenceflow-end-white-black-0wap3tj7scy6r8xozsjsd6b6y&quot;);"></path></g><g class="djs-visual" id="Flow_1h0st3q" transform="translate(0 0)"><path d="m  600,2400L600,2460 " style="fill: none; stroke-width: 2px; stroke: black; stroke-linejoin: round; marker-end: url(&quot;#sequenceflow-end-white-black-0wap3tj7scy6r8xozsjsd6b6y&quot;);"></path></g><g class="djs-visual" id="Flow_0uapt8d" transform="translate(0 0)"><path d="m  -40,2400L-40,2460 " style="fill: none; stroke-width: 2px; stroke: black; stroke-linejoin: round; marker-end: url(&quot;#sequenceflow-end-white-black-0wap3tj7scy6r8xozsjsd6b6y&quot;);"></path></g><g class="djs-visual" id="Flow_0kqyeln" transform="translate(0 0)"><path d="m  -15,2180L600,2180 L600,2300 " style="fill: none; stroke-width: 2px; stroke: black; stroke-linejoin: round; marker-end: url(&quot;#sequenceflow-end-white-black-0wap3tj7scy6r8xozsjsd6b6y&quot;);"></path></g><g class="djs-visual" id="Flow_0kegjf2" transform="translate(0 0)"><path d="m  -40,2205L-40,2300 " style="fill: none; stroke-width: 2px; stroke: black; stroke-linejoin: round; marker-end: url(&quot;#sequenceflow-end-white-black-0wap3tj7scy6r8xozsjsd6b6y&quot;);"></path></g><g class="djs-visual" id="Flow_0snhhd2" transform="translate(0 0)"><path d="m  -40,2080L-40,2155 " style="fill: none; stroke-width: 2px; stroke: black; stroke-linejoin: round; marker-end: url(&quot;#sequenceflow-end-white-black-0wap3tj7scy6r8xozsjsd6b6y&quot;);"></path></g><g class="djs-visual" id="Flow_0346i6k" transform="translate(0 0)"><path d="m  -40,1915L-40,1980 " style="fill: none; stroke-width: 2px; stroke: black; stroke-linejoin: round; marker-end: url(&quot;#sequenceflow-end-white-black-0wap3tj7scy6r8xozsjsd6b6y&quot;);"></path></g><g class="djs-visual" id="Flow_1eaemaa" transform="translate(0 0)"><path d="m  -40,1800L-40,1865 " style="fill: none; stroke-width: 2px; stroke: black; stroke-linejoin: round; marker-end: url(&quot;#sequenceflow-end-white-black-0wap3tj7scy6r8xozsjsd6b6y&quot;);"></path></g><g class="djs-visual" id="Flow_1i0yin2" transform="translate(0 0)"><path d="m  -40,1640L-40,1700 " style="fill: none; stroke-width: 2px; stroke: black; stroke-linejoin: round; marker-end: url(&quot;#sequenceflow-end-white-black-0wap3tj7scy6r8xozsjsd6b6y&quot;);"></path></g><g class="djs-visual" id="Flow_0ojqvpf" transform="translate(0 0)"><path d="m  -40,1470L-40,1540 " style="fill: none; stroke-width: 2px; stroke: black; stroke-linejoin: round; marker-end: url(&quot;#sequenceflow-end-white-black-0wap3tj7scy6r8xozsjsd6b6y&quot;);"></path></g><g class="djs-visual" id="Flow_1e2l9xm" transform="translate(0 0)"><path d="m  -40,1318L-40,1370 " style="fill: none; stroke-width: 2px; stroke: black; stroke-linejoin: round; marker-end: url(&quot;#sequenceflow-end-white-black-0wap3tj7scy6r8xozsjsd6b6y&quot;);"></path></g><g class="djs-visual" id="StartEvent_1bm324f" transform="translate(-58 1282)"><circle cx="18" cy="18" r="18" style="stroke: black; stroke-width: 2px; fill: white; fill-opacity: 0.95;"></circle></g><g class="djs-visual" id="StartEvent_1bm324f_label" transform="translate(-80 1233)"><text lineHeight="1.2" class="djs-label" style="font-family: Arial, sans-serif; font-size: 11px; font-weight: normal; fill: black;"><tspan x="9.28076171875" y="9.899999999999999">Bank Initiates </tspan><tspan x="0" y="23.099999999999998">Liquidity Transfer </tspan><tspan x="21.59228515625" y="36.3">Request</tspan></text></g><g class="djs-visual" id="Activity_15mln6j" transform="translate(-105 1370)"><rect x="0" y="0" width="130" height="100" rx="10" ry="10" style="stroke: black; stroke-width: 2px; fill: white; fill-opacity: 0.95;"></rect><text lineHeight="1.2" class="djs-label" style="font-family: Arial, sans-serif; font-size: 12px; font-weight: normal; fill: black;"><tspan x="19.96875" y="46.4">Capture Liquidity </tspan><tspan x="44.6572265625" y="60.8">transfer</tspan></text></g><g class="djs-visual" id="Activity_0uakuka" transform="translate(-105 1540)"><rect x="0" y="0" width="130" height="100" rx="10" ry="10" style="stroke: black; stroke-width: 2px; fill: white; fill-opacity: 0.95;"></rect><text lineHeight="1.2" class="djs-label" style="font-family: Arial, sans-serif; font-size: 12px; font-weight: normal; fill: black;"><tspan x="17.642578125" y="53.599999999999994">Authorise transfer</tspan></text></g><g class="djs-visual" id="Activity_0cxf5n8" transform="translate(-105 1700)"><rect x="0" y="0" width="130" height="100" rx="10" ry="10" style="stroke: black; stroke-width: 2px; fill: white; fill-opacity: 0.95;"></rect><text lineHeight="1.2" class="djs-label" style="font-family: Arial, sans-serif; font-size: 12px; font-weight: normal; fill: black;"><tspan x="15.8115234375" y="53.599999999999994">Create transaction</tspan></text></g><g class="djs-visual" id="Gateway_09jrf43" transform="translate(-65 1865)"><polygon points="25,0 50,25 25,50 0,25" style="stroke: black; stroke-width: 2px; fill: white; fill-opacity: 0.95;"></polygon><path d="m 16,15 7.42857142857143,9.714285714285715 -7.42857142857143,9.714285714285715 3.428571428571429,0 5.714285714285715,-7.464228571428572 5.714285714285715,7.464228571428572 3.428571428571429,0 -7.42857142857143,-9.714285714285715 7.42857142857143,-9.714285714285715 -3.428571428571429,0 -5.714285714285715,7.464228571428572 -5.714285714285715,-7.464228571428572 -3.428571428571429,0 z" style="fill: black; stroke-width: 1px; stroke: black;"></path></g><g class="djs-visual" id="Activity_0kbe4ee" transform="translate(-105 1980)"><rect x="0" y="0" width="130" height="100" rx="10" ry="10" style="stroke: black; stroke-width: 2px; fill: white; fill-opacity: 0.95;"></rect><text lineHeight="1.2" class="djs-label" style="font-family: Arial, sans-serif; font-size: 12px; font-weight: normal; fill: black;"><tspan x="13.640625" y="53.599999999999994">Perform validations</tspan></text></g><g class="djs-visual" id="Gateway_0zuqilq" transform="translate(-65 2155)"><polygon points="25,0 50,25 25,50 0,25" style="stroke: black; stroke-width: 2px; fill: white; fill-opacity: 0.95;"></polygon><path d="m 16,15 7.42857142857143,9.714285714285715 -7.42857142857143,9.714285714285715 3.428571428571429,0 5.714285714285715,-7.464228571428572 5.714285714285715,7.464228571428572 3.428571428571429,0 -7.42857142857143,-9.714285714285715 7.42857142857143,-9.714285714285715 -3.428571428571429,0 -5.714285714285715,7.464228571428572 -5.714285714285715,-7.464228571428572 -3.428571428571429,0 z" style="fill: black; stroke-width: 1px; stroke: black;"></path></g><g class="djs-visual" id="Activity_0p3d7ry" transform="translate(-105 2300)"><rect x="0" y="0" width="130" height="100" rx="10" ry="10" style="stroke: black; stroke-width: 2px; fill: white; fill-opacity: 0.95;"></rect><text lineHeight="1.2" class="djs-label" style="font-family: Arial, sans-serif; font-size: 12px; font-weight: normal; fill: black;"><tspan x="9.1318359375" y="46.4">Generate accounting </tspan><tspan x="46.984375" y="60.8">entries</tspan></text></g><g class="djs-visual" id="Activity_12mo6xv" transform="translate(535 2300)"><rect x="0" y="0" width="130" height="100" rx="10" ry="10" style="stroke: black; stroke-width: 2px; fill: white; fill-opacity: 0.95;"></rect><text lineHeight="1.2" class="djs-label" style="font-family: Arial, sans-serif; font-size: 12px; font-weight: normal; fill: black;"><tspan x="12.474609375" y="46.4">Place transaction in </tspan><tspan x="31.1455078125" y="60.8">repair queue</tspan></text></g><g class="djs-visual" id="Activity_170vzxk" transform="translate(-105 2460)"><rect x="0" y="0" width="130" height="100" rx="10" ry="10" style="stroke: black; stroke-width: 2px; fill: white; fill-opacity: 0.95;"></rect><text lineHeight="1.2" class="djs-label" style="font-family: Arial, sans-serif; font-size: 12px; font-weight: normal; fill: black;"><tspan x="13.46484375" y="46.4">Generate and send </tspan><tspan x="9.80859375" y="60.8">message to Clearing</tspan></text></g><g class="djs-visual" id="Activity_0e155br" transform="translate(535 2460)"><rect x="0" y="0" width="130" height="100" rx="10" ry="10" style="stroke: black; stroke-width: 2px; fill: white; fill-opacity: 0.95;"></rect><text lineHeight="1.2" class="djs-label" style="font-family: Arial, sans-serif; font-size: 12px; font-weight: normal; fill: black;"><tspan x="20.1416015625" y="53.599999999999994">Decide on action</tspan></text></g><g class="djs-visual" id="DataObjectReference_1tlpfgx" transform="translate(82 2485)"><path d="m 0,0 28.23529411764706,0 7.058823529411765,8.196721311475411 0,40.98360655737705 -35.294117647058826,0 0,-49.18032786885246 28.23529411764706,0 0,8.196721311475411 7.058823529411765,0" style="fill: white; stroke-width: 2px; stroke: black; fill-opacity: 0.95;"></path></g><g class="djs-visual" id="DataObjectReference_1tlpfgx_label" transform="translate(78 2542)"><text lineHeight="1.2" class="djs-label" style="font-family: Arial, sans-serif; font-size: 11px; font-weight: normal; fill: black;"><tspan x="0" y="9.899999999999999">pacs.009</tspan></text></g><g class="djs-visual" id="Gateway_11s7q8l" transform="translate(575 2595)"><polygon points="25,0 50,25 25,50 0,25" style="stroke: black; stroke-width: 2px; fill: white; fill-opacity: 0.95;"></polygon><path d="m 16,15 7.42857142857143,9.714285714285715 -7.42857142857143,9.714285714285715 3.428571428571429,0 5.714285714285715,-7.464228571428572 5.714285714285715,7.464228571428572 3.428571428571429,0 -7.42857142857143,-9.714285714285715 7.42857142857143,-9.714285714285715 -3.428571428571429,0 -5.714285714285715,7.464228571428572 -5.714285714285715,-7.464228571428572 -3.428571428571429,0 z" style="fill: black; stroke-width: 1px; stroke: black;"></path></g><g class="djs-visual" id="Activity_0id24xs" transform="translate(535 2710)"><rect x="0" y="0" width="130" height="100" rx="10" ry="10" style="stroke: black; stroke-width: 2px; fill: white; fill-opacity: 0.95;"></rect><text lineHeight="1.2" class="djs-label" style="font-family: Arial, sans-serif; font-size: 12px; font-weight: normal; fill: black;"><tspan x="16.8134765625" y="53.599999999999994">Reject transaction</tspan></text></g><g class="djs-visual" id="Activity_1lkkgse" transform="translate(535 2890)"><rect x="0" y="0" width="130" height="100" rx="10" ry="10" style="stroke: black; stroke-width: 2px; fill: white; fill-opacity: 0.95;"></rect><text lineHeight="1.2" class="djs-label" style="font-family: Arial, sans-serif; font-size: 12px; font-weight: normal; fill: black;"><tspan x="8.97265625" y="53.599999999999994">Authorise transaction</tspan></text></g><g class="djs-visual" id="Activity_12gj090" transform="translate(535 3060)"><rect x="0" y="0" width="130" height="100" rx="10" ry="10" style="stroke: black; stroke-width: 2px; fill: white; fill-opacity: 0.95;"></rect><text lineHeight="1.2" class="djs-label" style="font-family: Arial, sans-serif; font-size: 12px; font-weight: normal; fill: black;"><tspan x="14.47265625" y="53.599999999999994">Update transaction</tspan></text></g><g class="djs-visual" id="Activity_1vu9hzx" transform="translate(845 2710)"><rect x="0" y="0" width="130" height="100" rx="10" ry="10" style="stroke: black; stroke-width: 2px; fill: white; fill-opacity: 0.95;"></rect><text lineHeight="1.2" class="djs-label" style="font-family: Arial, sans-serif; font-size: 12px; font-weight: normal; fill: black;"><tspan x="16.1455078125" y="53.599999999999994">Repair transaction</tspan></text></g><g class="djs-visual" id="Activity_1sy1xap" transform="translate(845 2890)"><rect x="0" y="0" width="130" height="100" rx="10" ry="10" style="stroke: black; stroke-width: 2px; fill: white; fill-opacity: 0.95;"></rect><text lineHeight="1.2" class="djs-label" style="font-family: Arial, sans-serif; font-size: 12px; font-weight: normal; fill: black;"><tspan x="6.4677734375" y="53.599999999999994">Authorise amendment</tspan></text></g><g class="djs-visual" id="Activity_1imurul" transform="translate(845 3060)"><rect x="0" y="0" width="130" height="100" rx="10" ry="10" style="stroke: black; stroke-width: 2px; fill: white; fill-opacity: 0.95;"></rect><text lineHeight="1.2" class="djs-label" style="font-family: Arial, sans-serif; font-size: 12px; font-weight: normal; fill: black;"><tspan x="14.47265625" y="53.599999999999994">Update transaction</tspan></text></g><g class="djs-visual" id="Event_101xjlv" transform="translate(582 3202)"><circle cx="18" cy="18" r="18" style="stroke: black; stroke-width: 4px; fill: white; fill-opacity: 0.95;"></circle></g><g class="djs-visual" id="Event_101xjlv_label" transform="translate(560 3248)"><text lineHeight="1.2" class="djs-label" style="font-family: Arial, sans-serif; font-size: 11px; font-weight: normal; fill: black;"><tspan x="0" y="9.899999999999999">Liquidity transfer </tspan><tspan x="1.576171875" y="23.099999999999998">request rejected</tspan></text></g><g class="djs-visual" id="Activity_174ous7" transform="translate(-105 2650)"><rect x="0" y="0" width="130" height="100" rx="10" ry="10" style="stroke: black; stroke-width: 2px; fill: white; fill-opacity: 0.95;"></rect><text lineHeight="1.2" class="djs-label" style="font-family: Arial, sans-serif; font-size: 12px; font-weight: normal; fill: black;"><tspan x="17.1474609375" y="46.4">Receive message </tspan><tspan x="30.658203125" y="60.8">from clearing</tspan></text></g><g class="djs-visual" id="DataObjectReference_0xrodak" transform="translate(-188 2675)"><path d="m 0,0 28.23529411764706,0 7.058823529411765,8.196721311475411 0,40.98360655737705 -35.294117647058826,0 0,-49.18032786885246 28.23529411764706,0 0,8.196721311475411 7.058823529411765,0" style="fill: white; stroke-width: 2px; stroke: black; fill-opacity: 0.95;"></path></g><g class="djs-visual" id="DataObjectReference_0xrodak_label" transform="translate(-192 2725)"><text lineHeight="1.2" class="djs-label" style="font-family: Arial, sans-serif; font-size: 11px; font-weight: normal; fill: black;"><tspan x="0" y="9.899999999999999">pacs.002</tspan></text></g><g class="djs-visual" id="Activity_1gakqe4" transform="translate(-105 2800)"><rect x="0" y="0" width="130" height="100" rx="10" ry="10" style="stroke: black; stroke-width: 2px; fill: white; fill-opacity: 0.95;"></rect><text lineHeight="1.2" class="djs-label" style="font-family: Arial, sans-serif; font-size: 12px; font-weight: normal; fill: black;"><tspan x="24.1552734375" y="46.4">Perform syntax </tspan><tspan x="37.1484375" y="60.8">validations</tspan></text></g><g class="djs-visual" id="Gateway_09urfhb" transform="translate(-65 2965)"><polygon points="25,0 50,25 25,50 0,25" style="stroke: black; stroke-width: 2px; fill: white; fill-opacity: 0.95;"></polygon><path d="m 16,15 7.42857142857143,9.714285714285715 -7.42857142857143,9.714285714285715 3.428571428571429,0 5.714285714285715,-7.464228571428572 5.714285714285715,7.464228571428572 3.428571428571429,0 -7.42857142857143,-9.714285714285715 7.42857142857143,-9.714285714285715 -3.428571428571429,0 -5.714285714285715,7.464228571428572 -5.714285714285715,-7.464228571428572 -3.428571428571429,0 z" style="fill: black; stroke-width: 1px; stroke: black;"></path></g><g class="djs-visual" id="Activity_068s8nf" transform="translate(275 3060)"><rect x="0" y="0" width="130" height="100" rx="10" ry="10" style="stroke: black; stroke-width: 2px; fill: white; fill-opacity: 0.95;"></rect><text lineHeight="1.2" class="djs-label" style="font-family: Arial, sans-serif; font-size: 12px; font-weight: normal; fill: black;"><tspan x="36.8232421875" y="53.599999999999994">Cancel file</tspan></text></g><g class="djs-visual" id="Activity_1nxfdqr" transform="translate(-105 3070)"><rect x="0" y="0" width="130" height="100" rx="10" ry="10" style="stroke: black; stroke-width: 2px; fill: white; fill-opacity: 0.95;"></rect><text lineHeight="1.2" class="djs-label" style="font-family: Arial, sans-serif; font-size: 12px; font-weight: normal; fill: black;"><tspan x="15.8115234375" y="53.599999999999994">Create transaction</tspan></text></g><g class="djs-visual" id="Event_0q7hit1" transform="translate(322 3192)"><circle cx="18" cy="18" r="18" style="stroke: black; stroke-width: 4px; fill: white; fill-opacity: 0.95;"></circle></g><g class="djs-visual" id="Event_0q7hit1_label" transform="translate(306 3235)"><text lineHeight="1.2" class="djs-label" style="font-family: Arial, sans-serif; font-size: 11px; font-weight: normal; fill: black;"><tspan x="0" y="9.899999999999999">File cancelled</tspan></text></g><g class="djs-visual" id="Activity_1cs0nw6" transform="translate(-105 3240)"><rect x="0" y="0" width="130" height="100" rx="10" ry="10" style="stroke: black; stroke-width: 2px; fill: white; fill-opacity: 0.95;"></rect><text lineHeight="1.2" class="djs-label" style="font-family: Arial, sans-serif; font-size: 12px; font-weight: normal; fill: black;"><tspan x="27.4814453125" y="46.4">Check type of </tspan><tspan x="40.154296875" y="60.8">response</tspan></text></g><g class="djs-visual" id="Gateway_01wm8fx" transform="translate(-65 3375)"><polygon points="25,0 50,25 25,50 0,25" style="stroke: black; stroke-width: 2px; fill: white; fill-opacity: 0.95;"></polygon><path d="m 16,15 7.42857142857143,9.714285714285715 -7.42857142857143,9.714285714285715 3.428571428571429,0 5.714285714285715,-7.464228571428572 5.714285714285715,7.464228571428572 3.428571428571429,0 -7.42857142857143,-9.714285714285715 7.42857142857143,-9.714285714285715 -3.428571428571429,0 -5.714285714285715,7.464228571428572 -5.714285714285715,-7.464228571428572 -3.428571428571429,0 z" style="fill: black; stroke-width: 1px; stroke: black;"></path></g><g class="djs-visual" id="Activity_1rd2afy" transform="translate(-105 3470)"><rect x="0" y="0" width="130" height="100" rx="10" ry="10" style="stroke: black; stroke-width: 2px; fill: white; fill-opacity: 0.95;"></rect><text lineHeight="1.2" class="djs-label" style="font-family: Arial, sans-serif; font-size: 12px; font-weight: normal; fill: black;"><tspan x="24.4736328125" y="46.4">Update original </tspan><tspan x="35.9873046875" y="60.8">transaction</tspan></text></g><g class="djs-visual" id="Activity_095mpmv" transform="translate(275 3470)"><rect x="0" y="0" width="130" height="100" rx="10" ry="10" style="stroke: black; stroke-width: 2px; fill: white; fill-opacity: 0.95;"></rect><text lineHeight="1.2" class="djs-label" style="font-family: Arial, sans-serif; font-size: 12px; font-weight: normal; fill: black;"><tspan x="27.9765625" y="53.599999999999994">Update status</tspan></text></g><g class="djs-visual" id="Event_0lra0c9" transform="translate(322 3602)"><circle cx="18" cy="18" r="18" style="stroke: black; stroke-width: 4px; fill: white; fill-opacity: 0.95;"></circle></g><g class="djs-visual" id="Event_0lra0c9_label" transform="translate(298 3645)"><text lineHeight="1.2" class="djs-label" style="font-family: Arial, sans-serif; font-size: 11px; font-weight: normal; fill: black;"><tspan x="1.173828125" y="9.899999999999999">Liquidity transfer </tspan><tspan x="0" y="23.099999999999998">request executed </tspan><tspan x="12.296875" y="36.3">successfully</tspan></text></g><g class="djs-visual" id="Activity_0zh33m9" transform="translate(-105 3620)"><rect x="0" y="0" width="130" height="100" rx="10" ry="10" style="stroke: black; stroke-width: 2px; fill: white; fill-opacity: 0.95;"></rect><text lineHeight="1.2" class="djs-label" style="font-family: Arial, sans-serif; font-size: 12px; font-weight: normal; fill: black;"><tspan x="23.8173828125" y="46.4">Create reversal </tspan><tspan x="35.9873046875" y="60.8">transaction</tspan></text></g><g class="djs-visual" id="Activity_1h619sn" transform="translate(-105 3770)"><rect x="0" y="0" width="130" height="100" rx="10" ry="10" style="stroke: black; stroke-width: 2px; fill: white; fill-opacity: 0.95;"></rect><text lineHeight="1.2" class="djs-label" style="font-family: Arial, sans-serif; font-size: 12px; font-weight: normal; fill: black;"><tspan x="9.1318359375" y="46.4">Generate accounting </tspan><tspan x="46.984375" y="60.8">entries</tspan></text></g><g class="djs-visual" id="Activity_0yfs5at" transform="translate(-105 3910)"><rect x="0" y="0" width="130" height="100" rx="10" ry="10" style="stroke: black; stroke-width: 2px; fill: white; fill-opacity: 0.95;"></rect><text lineHeight="1.2" class="djs-label" style="font-family: Arial, sans-serif; font-size: 12px; font-weight: normal; fill: black;"><tspan x="14.47265625" y="53.599999999999994">Update transaction</tspan></text></g><g class="djs-visual" id="Event_0kjofsz" transform="translate(-58 4062)"><circle cx="18" cy="18" r="18" style="stroke: black; stroke-width: 4px; fill: white; fill-opacity: 0.95;"></circle></g><g class="djs-visual" id="Event_0kjofsz_label" transform="translate(-81 4105)"><text lineHeight="1.2" class="djs-label" style="font-family: Arial, sans-serif; font-size: 11px; font-weight: normal; fill: black;"><tspan x="0.251953125" y="9.899999999999999">Liquidity transfer </tspan><tspan x="0" y="23.099999999999998">request reversed</tspan></text></g><g class="djs-visual" id="TextAnnotation_16s959j" transform="translate(70 1330)"><rect x="0" y="0" width="155" height="80" rx="0" ry="0" style="stroke: none; stroke-width: 2px; fill: none;"></rect><path d="m 0, 0 m 10,0 l -10,0 l 0,80 l 10,0" style="fill: none; stroke-width: 2px; stroke: black;"></path><text lineHeight="1.2" class="djs-label" style="font-family: Arial, sans-serif; font-size: 12px; font-weight: normal; fill: black;"><tspan x="5" y="15.799999999999999">- Amount</tspan><tspan x="5" y="30.199999999999996">- Currency</tspan><tspan x="5" y="44.599999999999994">- Debit account number</tspan><tspan x="5" y="58.99999999999999">- Credit account number</tspan><tspan x="5" y="73.39999999999999">- Processing date</tspan></text></g><g class="djs-visual" id="TextAnnotation_0dkma4g" transform="translate(70 1520)"><rect x="0" y="0" width="140" height="70" rx="0" ry="0" style="stroke: none; stroke-width: 2px; fill: none;"></rect><path d="m 0, 0 m 10,0 l -10,0 l 0,70 l 10,0" style="fill: none; stroke-width: 2px; stroke: black;"></path><text lineHeight="1.2" class="djs-label" style="font-family: Arial, sans-serif; font-size: 12px; font-weight: normal; fill: black;"><tspan x="5" y="15.799999999999999">Authorisation levels can</tspan><tspan x="5" y="30.199999999999996">be defined e.g.</tspan><tspan x="5" y="44.599999999999994">- per company</tspan><tspan x="5" y="58.99999999999999">- based on amount</tspan></text></g><g class="djs-visual" id="TextAnnotation_11vrqvv" transform="translate(70 1700)"><rect x="0" y="0" width="100" height="40" rx="0" ry="0" style="stroke: none; stroke-width: 2px; fill: none;"></rect><path d="m 0, 0 m 10,0 l -10,0 l 0,40 l 10,0" style="fill: none; stroke-width: 2px; stroke: black;"></path><text lineHeight="1.2" class="djs-label" style="font-family: Arial, sans-serif; font-size: 12px; font-weight: normal; fill: black;"><tspan x="5" y="15.799999999999999">POR transaction</tspan><tspan x="5" y="30.199999999999996">created</tspan></text></g><g class="djs-visual" id="TextAnnotation_1besits" transform="translate(60 1980)"><rect x="0" y="0" width="160" height="60" rx="0" ry="0" style="stroke: none; stroke-width: 2px; fill: none;"></rect><path d="m 0, 0 m 10,0 l -10,0 l 0,60 l 10,0" style="fill: none; stroke-width: 2px; stroke: black;"></path><text lineHeight="1.2" class="djs-label" style="font-family: Arial, sans-serif; font-size: 12px; font-weight: normal; fill: black;"><tspan x="5" y="15.799999999999999">- Product determination</tspan><tspan x="5" y="30.199999999999996">- Debit party determination</tspan><tspan x="5" y="44.599999999999994">- Credit party determination</tspan></text></g><g class="djs-visual" id="TextAnnotation_1iq4cqk" transform="translate(53 2290)"><rect x="0" y="0" width="190" height="70" rx="0" ry="0" style="stroke: none; stroke-width: 2px; fill: none;"></rect><path d="m 0, 0 m 10,0 l -10,0 l 0,70 l 10,0" style="fill: none; stroke-width: 2px; stroke: black;"></path><text lineHeight="1.2" class="djs-label" style="font-family: Arial, sans-serif; font-size: 12px; font-weight: normal; fill: black;"><tspan x="5" y="15.799999999999999">Dr Nostro account</tspan><tspan x="5" y="30.199999999999996">Cr Nostro account</tspan><tspan x="5" y="44.599999999999994">(Nostro account of Own/</tspan><tspan x="5" y="58.99999999999999">Indirect Participant/ Other bank)</tspan></text></g><g class="djs-visual" id="TextAnnotation_0ztmyhi" transform="translate(700 3060)"><rect x="0" y="0" width="100" height="40" rx="0" ry="0" style="stroke: none; stroke-width: 2px; fill: none;"></rect><path d="m 0, 0 m 10,0 l -10,0 l 0,40 l 10,0" style="fill: none; stroke-width: 2px; stroke: black;"></path><text lineHeight="1.2" class="djs-label" style="font-family: Arial, sans-serif; font-size: 12px; font-weight: normal; fill: black;"><tspan x="5" y="15.799999999999999">Update status </tspan><tspan x="5" y="30.199999999999996">as rejected</tspan></text></g><g class="djs-visual" id="TextAnnotation_1b2h6qu" transform="translate(430 3480)"><rect x="0" y="0" width="100" height="40" rx="0" ry="0" style="stroke: none; stroke-width: 2px; fill: none;"></rect><path d="m 0, 0 m 10,0 l -10,0 l 0,40 l 10,0" style="fill: none; stroke-width: 2px; stroke: black;"></path><text lineHeight="1.2" class="djs-label" style="font-family: Arial, sans-serif; font-size: 12px; font-weight: normal; fill: black;"><tspan x="5" y="15.799999999999999">Update EBQA </tspan><tspan x="5" y="30.199999999999996">record</tspan></text></g><g class="djs-visual" id="TextAnnotation_06zwcvg" transform="translate(47 3485)"><rect x="0" y="0" width="185" height="70" rx="0" ry="0" style="stroke: none; stroke-width: 2px; fill: none;"></rect><path d="m 0, 0 m 10,0 l -10,0 l 0,70 l 10,0" style="fill: none; stroke-width: 2px; stroke: black;"></path><text lineHeight="1.2" class="djs-label" style="font-family: Arial, sans-serif; font-size: 12px; font-weight: normal; fill: black;"><tspan x="5" y="15.799999999999999">- Status updated as "Payment c</tspan><tspan x="5" y="30.199999999999996">ompleted with reversal"</tspan><tspan x="5" y="44.599999999999994">- Auto reversal set in</tspan><tspan x="5" y="58.99999999999999">PP.CLEARING.RETURNCODE</tspan></text></g><g class="djs-visual" id="TextAnnotation_0py0l6a" transform="translate(50 3620)"><rect x="0" y="0" width="130" height="40" rx="0" ry="0" style="stroke: none; stroke-width: 2px; fill: none;"></rect><path d="m 0, 0 m 10,0 l -10,0 l 0,40 l 10,0" style="fill: none; stroke-width: 2px; stroke: black;"></path><text lineHeight="1.2" class="djs-label" style="font-family: Arial, sans-serif; font-size: 12px; font-weight: normal; fill: black;"><tspan x="5" y="15.799999999999999">Using details from </tspan><tspan x="5" y="30.199999999999996">original transaction</tspan></text></g><g class="djs-visual" id="TextAnnotation_086ii9d" transform="translate(50 3770)"><rect x="0" y="0" width="225" height="61" rx="0" ry="0" style="stroke: none; stroke-width: 2px; fill: none;"></rect><path d="m 0, 0 m 10,0 l -10,0 l 0,61 l 10,0" style="fill: none; stroke-width: 2px; stroke: black;"></path><text lineHeight="1.2" class="djs-label" style="font-family: Arial, sans-serif; font-size: 12px; font-weight: normal; fill: black;"><tspan x="5" y="15.799999999999999">Dr Nostro account</tspan><tspan x="5" y="30.199999999999996">Cr Nostro account (Nostro account of </tspan><tspan x="5" y="44.599999999999994">Own/ Indirect Participant/ Other bank)</tspan></text></g><g class="djs-visual" id="TextAnnotation_1nbxj4i" transform="translate(52 3920)"><rect x="0" y="0" width="192" height="41" rx="0" ry="0" style="stroke: none; stroke-width: 2px; fill: none;"></rect><path d="m 0, 0 m 10,0 l -10,0 l 0,41 l 10,0" style="fill: none; stroke-width: 2px; stroke: black;"></path><text lineHeight="1.2" class="djs-label" style="font-family: Arial, sans-serif; font-size: 12px; font-weight: normal; fill: black;"><tspan x="5" y="15.799999999999999">Reversal transaction status </tspan><tspan x="5" y="30.199999999999996">updated as "Completed"</tspan></text></g><g class="djs-visual" id="DataOutputAssociation_08o43fm" transform="translate(0 0)"><polyline points="25,2510 82,2510 " style="fill: none; stroke: black; stroke-width: 2px; stroke-dasharray: 0.5, 5; stroke-linecap: round; stroke-linejoin: round; marker-end: url(&quot;#association-end-white-black-0wap3tj7scy6r8xozsjsd6b6y&quot;);"></polyline></g><g class="djs-visual" id="Flow_0kegjf2_label" transform="translate(-27 2216)"><text lineHeight="1.2" class="djs-label" style="font-family: Arial, sans-serif; font-size: 11px; font-weight: normal; fill: black;"><tspan x="0" y="9.899999999999999">Transaction correct</tspan></text></g><g class="djs-visual" id="Flow_0kqyeln_label" transform="translate(618 2209)"><text lineHeight="1.2" class="djs-label" style="font-family: Arial, sans-serif; font-size: 11px; font-weight: normal; fill: black;"><tspan x="0" y="9.899999999999999">Transaction </tspan><tspan x="6.4697265625" y="23.099999999999998">incorrect</tspan></text></g><g class="djs-visual" id="Flow_1rs67it_label" transform="translate(611 2650)"><text lineHeight="1.2" class="djs-label" style="font-family: Arial, sans-serif; font-size: 11px; font-weight: normal; fill: black;"><tspan x="0" y="9.899999999999999">Payment to be </tspan><tspan x="15.8984375" y="23.099999999999998">rejected</tspan></text></g><g class="djs-visual" id="Flow_1tiq003_label" transform="translate(925 2647)"><text lineHeight="1.2" class="djs-label" style="font-family: Arial, sans-serif; font-size: 11px; font-weight: normal; fill: black;"><tspan x="0" y="9.899999999999999">Payment to be </tspan><tspan x="15.2890625" y="23.099999999999998">repaired</tspan></text></g><g class="djs-visual" id="DataInputAssociation_06uu6q3" transform="translate(0 0)"><polyline points="-152,2700 -105,2700 " style="fill: none; stroke: black; stroke-width: 2px; stroke-dasharray: 0.5, 5; stroke-linecap: round; stroke-linejoin: round; marker-end: url(&quot;#association-end-white-black-0wap3tj7scy6r8xozsjsd6b6y&quot;);"></polyline></g><g class="djs-visual" id="Flow_05o5ggd_label" transform="translate(-18 2596)"><text lineHeight="1.2" class="djs-label" style="font-family: Arial, sans-serif; font-size: 11px; font-weight: normal; fill: black;"><tspan x="0" y="9.899999999999999">Awaiting response </tspan><tspan x="13.0546875" y="23.099999999999998">from clearing</tspan></text></g><g class="djs-visual" id="Flow_1jnq20s_label" transform="translate(349 3026)"><text lineHeight="1.2" class="djs-label" style="font-family: Arial, sans-serif; font-size: 11px; font-weight: normal; fill: black;"><tspan x="0" y="9.899999999999999">Validations failed</tspan></text></g><g class="djs-visual" id="Flow_052ittr_label" transform="translate(-26 3026)"><text lineHeight="1.2" class="djs-label" style="font-family: Arial, sans-serif; font-size: 11px; font-weight: normal; fill: black;"><tspan x="0" y="9.899999999999999">Validations passed</tspan></text></g><g class="djs-visual" id="Flow_0par5sq_label" transform="translate(-26 3433)"><text lineHeight="1.2" class="djs-label" style="font-family: Arial, sans-serif; font-size: 11px; font-weight: normal; fill: black;"><tspan x="0" y="9.899999999999999">Negative response</tspan></text></g><g class="djs-visual" id="Flow_1rjlp88_label" transform="translate(347 3423)"><text lineHeight="1.2" class="djs-label" style="font-family: Arial, sans-serif; font-size: 11px; font-weight: normal; fill: black;"><tspan x="0" y="9.899999999999999">Positive response</tspan></text></g><g class="djs-visual" id="Association_0g3jr5n" transform="translate(0 0)"><polyline points="25,1382 70,1356 " style="fill: none; stroke: black; stroke-width: 2px; stroke-dasharray: 0.5, 5; stroke-linecap: round; stroke-linejoin: round;"></polyline></g><g class="djs-visual" id="Association_0r6ja6t" transform="translate(0 0)"><polyline points="25,1558 70,1537 " style="fill: none; stroke: black; stroke-width: 2px; stroke-dasharray: 0.5, 5; stroke-linecap: round; stroke-linejoin: round;"></polyline></g><g class="djs-visual" id="Association_03az66a" transform="translate(0 0)"><polyline points="25,1734 70,1723 " style="fill: none; stroke: black; stroke-width: 2px; stroke-dasharray: 0.5, 5; stroke-linecap: round; stroke-linejoin: round;"></polyline></g><g class="djs-visual" id="Association_1wv2qyv" transform="translate(0 0)"><polyline points="25,2009 60,1998 " style="fill: none; stroke: black; stroke-width: 2px; stroke-dasharray: 0.5, 5; stroke-linecap: round; stroke-linejoin: round;"></polyline></g><g class="djs-visual" id="Association_0guxcfl" transform="translate(0 0)"><polyline points="25,2312 53,2296 " style="fill: none; stroke: black; stroke-width: 2px; stroke-dasharray: 0.5, 5; stroke-linecap: round; stroke-linejoin: round;"></polyline></g><g class="djs-visual" id="Association_0v6046w" transform="translate(0 0)"><polyline points="665,3091 700,3083 " style="fill: none; stroke: black; stroke-width: 2px; stroke-dasharray: 0.5, 5; stroke-linecap: round; stroke-linejoin: round;"></polyline></g><g class="djs-visual" id="Association_0xmigz9" transform="translate(0 0)"><polyline points="405,3508 430,3504 " style="fill: none; stroke: black; stroke-width: 2px; stroke-dasharray: 0.5, 5; stroke-linecap: round; stroke-linejoin: round;"></polyline></g><g class="djs-visual" id="Association_12dwsnk" transform="translate(0 0)"><polyline points="25,3510 47,3507 " style="fill: none; stroke: black; stroke-width: 2px; stroke-dasharray: 0.5, 5; stroke-linecap: round; stroke-linejoin: round;"></polyline></g><g class="djs-visual" id="Association_0aa38qz" transform="translate(0 0)"><polyline points="25,3654 50,3648 " style="fill: none; stroke: black; stroke-width: 2px; stroke-dasharray: 0.5, 5; stroke-linecap: round; stroke-linejoin: round;"></polyline></g><g class="djs-visual" id="Association_1vq4za8" transform="translate(0 0)"><polyline points="25,3804 50,3798 " style="fill: none; stroke: black; stroke-width: 2px; stroke-dasharray: 0.5, 5; stroke-linecap: round; stroke-linejoin: round;"></polyline></g><g class="djs-visual" id="Association_0miaq1y" transform="translate(0 0)"><polyline points="25,3947 52,3941 " style="fill: none; stroke: black; stroke-width: 2px; stroke-dasharray: 0.5, 5; stroke-linecap: round; stroke-linejoin: round;"></polyline></g></g><g><rect class="viewport" x="-3353.1497797356824" y="1225.519823788546" width="7643.171806167401" height="2907.4889867841407"></rect></g></svg>