<svg width="100%" height="100%" viewBox="-62, -5326, 1835, 2092"><g><g class="djs-visual" id="Flow_041gcqo" transform="translate(0 0)"><path d="m  430,-3620L430,-3558 " style="fill: none; stroke-width: 2px; stroke: black; stroke-linejoin: round; marker-end: url(&quot;#sequenceflow-end-white-black-b8hiatrgk1k9oudgyvyu19ucc&quot;);"></path></g><g class="djs-visual" id="Flow_1affqut" transform="translate(0 0)"><path d="m  172,-5010L172,-4940 " style="fill: none; stroke-width: 2px; stroke: black; stroke-linejoin: round; marker-end: url(&quot;#sequenceflow-end-white-black-b8hiatrgk1k9oudgyvyu19ucc&quot;);"></path></g><g class="djs-visual" id="Flow_0uc2lc4" transform="translate(0 0)"><path d="m  167,-3620L167,-3540 " style="fill: none; stroke-width: 2px; stroke: black; stroke-linejoin: round; marker-end: url(&quot;#sequenceflow-end-white-black-b8hiatrgk1k9oudgyvyu19ucc&quot;);"></path></g><g class="djs-visual" id="Flow_08gka1u" transform="translate(0 0)"><path d="m  430,-3800L430,-3720 " style="fill: none; stroke-width: 2px; stroke: black; stroke-linejoin: round; marker-end: url(&quot;#sequenceflow-end-white-black-b8hiatrgk1k9oudgyvyu19ucc&quot;);"></path></g><g class="djs-visual" id="Flow_0wf8r7i" transform="translate(0 0)"><path d="m  167,-4060L167,-4015 " style="fill: none; stroke-width: 2px; stroke: black; stroke-linejoin: round; marker-end: url(&quot;#sequenceflow-end-white-black-b8hiatrgk1k9oudgyvyu19ucc&quot;);"></path></g><g class="djs-visual" id="Flow_1eblst5" transform="translate(0 0)"><path d="m  172,-4370L172,-4310 " style="fill: none; stroke-width: 2px; stroke: black; stroke-linejoin: round; marker-end: url(&quot;#sequenceflow-end-white-black-b8hiatrgk1k9oudgyvyu19ucc&quot;);"></path></g><g class="djs-visual" id="Flow_0yu4ja3" transform="translate(0 0)"><path d="m  172,-4670L172,-4620 " style="fill: none; stroke-width: 2px; stroke: black; stroke-linejoin: round; marker-end: url(&quot;#sequenceflow-end-white-black-b8hiatrgk1k9oudgyvyu19ucc&quot;);"></path></g><g class="djs-visual" id="Flow_0twv23x" transform="translate(0 0)"><path d="m  167,-3800L167,-3720 " style="fill: none; stroke-width: 2px; stroke: black; stroke-linejoin: round; marker-end: url(&quot;#sequenceflow-end-white-black-b8hiatrgk1k9oudgyvyu19ucc&quot;);"></path></g><g class="djs-visual" id="Flow_057hsh2" transform="translate(0 0)"><path d="m  167,-3965L167,-3900 " style="fill: none; stroke-width: 2px; stroke: black; stroke-linejoin: round; marker-end: url(&quot;#sequenceflow-end-white-black-b8hiatrgk1k9oudgyvyu19ucc&quot;);"></path></g><g class="djs-visual" id="Flow_1724tzo" transform="translate(0 0)"><path d="m  167,-4210L167,-4160 " style="fill: none; stroke-width: 2px; stroke: black; stroke-linejoin: round; marker-end: url(&quot;#sequenceflow-end-white-black-b8hiatrgk1k9oudgyvyu19ucc&quot;);"></path></g><g class="djs-visual" id="Flow_04rce8e" transform="translate(0 0)"><path d="m  172,-4520L172,-4470 " style="fill: none; stroke-width: 2px; stroke: black; stroke-linejoin: round; marker-end: url(&quot;#sequenceflow-end-white-black-b8hiatrgk1k9oudgyvyu19ucc&quot;);"></path></g><g class="djs-visual" id="Flow_0psqgzv" transform="translate(0 0)"><path d="m  172,-4840L172,-4770 " style="fill: none; stroke-width: 2px; stroke: black; stroke-linejoin: round; marker-end: url(&quot;#sequenceflow-end-white-black-b8hiatrgk1k9oudgyvyu19ucc&quot;);"></path></g><g class="djs-visual" id="Flow_0ya7j25" transform="translate(0 0)"><path d="m  167,-3440L167,-3388 " style="fill: none; stroke-width: 2px; stroke: black; stroke-linejoin: round; marker-end: url(&quot;#sequenceflow-end-white-black-b8hiatrgk1k9oudgyvyu19ucc&quot;);"></path></g><g class="djs-visual" id="Flow_0jretc8" transform="translate(0 0)"><path d="m  172,-5172L172,-5110 " style="fill: none; stroke-width: 2px; stroke: black; stroke-linejoin: round; marker-end: url(&quot;#sequenceflow-end-white-black-b8hiatrgk1k9oudgyvyu19ucc&quot;);"></path></g><g class="djs-visual" id="Flow_0vcb63v" transform="translate(0 0)"><path d="m  192,-3990L430,-3990 L430,-3900 " style="fill: none; stroke-width: 2px; stroke: black; stroke-linejoin: round; marker-end: url(&quot;#sequenceflow-end-white-black-b8hiatrgk1k9oudgyvyu19ucc&quot;);"></path></g><g class="djs-visual" id="Event_0tpantj" transform="translate(149 -3388)"><circle cx="18" cy="18" r="18" style="stroke: black; stroke-width: 4px; fill: white; fill-opacity: 0.95;"></circle></g><g class="djs-visual" id="Event_0tpantj_label" transform="translate(134 -3330)"><text lineHeight="1.2" class="djs-label" style="font-family: Arial, sans-serif; font-size: 11px; font-weight: normal; fill: black;"><tspan x="0" y="9.899999999999999">Asset Finance </tspan><tspan x="2.695068359375" y="23.099999999999998">arrangement </tspan><tspan x="11.109375" y="36.3">cancelled</tspan></text></g><g class="djs-visual" id="Activity_0b1pth6" transform="translate(102 -3720)"><rect x="0" y="0" width="130" height="100" rx="10" ry="10" style="stroke: black; stroke-width: 2px; fill: white; fill-opacity: 0.95;"></rect><text lineHeight="1.2" class="djs-label" style="font-family: Arial, sans-serif; font-size: 12px; font-weight: normal; fill: black;"><tspan x="11.8037109375" y="39.2">Verify and authorise </tspan><tspan x="25.80859375" y="53.6">cancellation of </tspan><tspan x="30.6474609375" y="68">arrangement</tspan></text></g><g class="djs-visual" id="Gateway_0sm43jp" transform="translate(142 -4015)"><polygon points="25,0 50,25 25,50 0,25" style="stroke: black; stroke-width: 2px; fill: white; fill-opacity: 0.95;"></polygon><path d="m 16,15 7.42857142857143,9.714285714285715 -7.42857142857143,9.714285714285715 3.428571428571429,0 5.714285714285715,-7.464228571428572 5.714285714285715,7.464228571428572 3.428571428571429,0 -7.42857142857143,-9.714285714285715 7.42857142857143,-9.714285714285715 -3.428571428571429,0 -5.714285714285715,7.464228571428572 -5.714285714285715,-7.464228571428572 -3.428571428571429,0 z" style="fill: black; stroke-width: 1px; stroke: black;"></path></g><g class="djs-visual" id="Activity_0fyacv1" transform="translate(102 -3900)"><rect x="0" y="0" width="130" height="100" rx="10" ry="10" style="stroke: black; stroke-width: 2px; fill: white; fill-opacity: 0.95;"></rect><text lineHeight="1.2" class="djs-label" style="font-family: Arial, sans-serif; font-size: 12px; font-weight: normal; fill: black;"><tspan x="12.474609375" y="46.4">Place transaction in </tspan><tspan x="12.12890625" y="60.8">authorisation queue</tspan></text></g><g class="djs-visual" id="Event_1sqrm58" transform="translate(412 -3558)"><circle cx="18" cy="18" r="18" style="stroke: black; stroke-width: 4px; fill: white; fill-opacity: 0.95;"></circle></g><g class="djs-visual" id="Event_1sqrm58_label" transform="translate(393 -3514)"><text lineHeight="1.2" class="djs-label" style="font-family: Arial, sans-serif; font-size: 11px; font-weight: normal; fill: black;"><tspan x="0" y="9.899999999999999">Cancellation of </tspan><tspan x="4.441650390625" y="23.099999999999998">asset finance </tspan><tspan x="5.19921875" y="36.3">arrangement </tspan><tspan x="4.783447265625" y="49.5">unsuccessful</tspan></text></g><g class="djs-visual" id="Event_1l5nlpj" transform="translate(154 -5208)"><circle cx="18" cy="18" r="18" style="stroke: black; stroke-width: 2px; fill: white; fill-opacity: 0.95;"></circle></g><g class="djs-visual" id="Event_1l5nlpj_label" transform="translate(125 -5270)"><text lineHeight="1.2" class="djs-label" style="font-family: Arial, sans-serif; font-size: 11px; font-weight: normal; fill: black;"><tspan x="12.67529296875" y="9.899999999999999">Asset Finance </tspan><tspan x="2.08154296875" y="23.099999999999998">arrangement to be </tspan><tspan x="0" y="36.3">cancelled manually</tspan></text></g><g class="djs-visual" id="Activity_0n81g7c" transform="translate(102 -3540)"><rect x="0" y="0" width="130" height="100" rx="10" ry="10" style="stroke: black; stroke-width: 2px; fill: white; fill-opacity: 0.95;"></rect><text lineHeight="1.2" class="djs-label" style="font-family: Arial, sans-serif; font-size: 12px; font-weight: normal; fill: black;"><tspan x="18.806640625" y="46.4">Update status for </tspan><tspan x="11.8037109375" y="60.8">manual cancellation</tspan></text></g><g class="djs-visual" id="Activity_1ozv070" transform="translate(107 -4940)"><rect x="0" y="0" width="130" height="100" rx="10" ry="10" style="stroke: black; stroke-width: 2px; fill: white; fill-opacity: 0.95;"></rect><text lineHeight="1.2" class="djs-label" style="font-family: Arial, sans-serif; font-size: 12px; font-weight: normal; fill: black;"><tspan x="30.1494140625" y="46.4">List available </tspan><tspan x="30.6474609375" y="60.8">arrangement</tspan></text></g><g class="djs-visual" id="Activity_1rsiq23" transform="translate(107 -4620)"><rect x="0" y="0" width="130" height="100" rx="10" ry="10" style="stroke: black; stroke-width: 2px; fill: white; fill-opacity: 0.95;"></rect><text lineHeight="1.2" class="djs-label" style="font-family: Arial, sans-serif; font-size: 12px; font-weight: normal; fill: black;"><tspan x="5.306640625" y="53.599999999999994">Arrangement overview</tspan></text></g><g class="djs-visual" id="Activity_0zxqhze" transform="translate(102 -4310)"><rect x="0" y="0" width="130" height="100" rx="10" ry="10" style="stroke: black; stroke-width: 2px; fill: white; fill-opacity: 0.95;"></rect><text lineHeight="1.2" class="djs-label" style="font-family: Arial, sans-serif; font-size: 12px; font-weight: normal; fill: black;"><tspan x="10.3037109375" y="53.599999999999994">Cancel arrangement</tspan></text></g><g class="djs-visual" id="Activity_1m2oq1f" transform="translate(107 -4770)"><rect x="0" y="0" width="130" height="100" rx="10" ry="10" style="stroke: black; stroke-width: 2px; fill: white; fill-opacity: 0.95;"></rect><text lineHeight="1.2" class="djs-label" style="font-family: Arial, sans-serif; font-size: 12px; font-weight: normal; fill: black;"><tspan x="5.8037109375" y="46.4">Select arrangement to</tspan><tspan x="31.1455078125" y="60.8">be cancelled</tspan></text></g><g class="djs-visual" id="Activity_0lhfd1o" transform="translate(107 -4470)"><rect x="0" y="0" width="130" height="100" rx="10" ry="10" style="stroke: black; stroke-width: 2px; fill: white; fill-opacity: 0.95;"></rect><text lineHeight="1.2" class="djs-label" style="font-family: Arial, sans-serif; font-size: 12px; font-weight: normal; fill: black;"><tspan x="15.640625" y="53.599999999999994">Select new activity</tspan></text></g><g class="djs-visual" id="Activity_1kr3dvm" transform="translate(102 -4160)"><rect x="0" y="0" width="130" height="100" rx="10" ry="10" style="stroke: black; stroke-width: 2px; fill: white; fill-opacity: 0.95;"></rect><text lineHeight="1.2" class="djs-label" style="font-family: Arial, sans-serif; font-size: 12px; font-weight: normal; fill: black;"><tspan x="16.482421875" y="53.599999999999994">Perform validation</tspan></text></g><g class="djs-visual" id="Activity_02hlawl" transform="translate(365 -3900)"><rect x="0" y="0" width="130" height="100" rx="10" ry="10" style="stroke: black; stroke-width: 2px; fill: white; fill-opacity: 0.95;"></rect><text lineHeight="1.2" class="djs-label" style="font-family: Arial, sans-serif; font-size: 12px; font-weight: normal; fill: black;"><tspan x="30.490234375" y="53.599999999999994">Display error</tspan></text></g><g class="djs-visual" id="Activity_1ok12js" transform="translate(107 -5110)"><rect x="0" y="0" width="130" height="100" rx="10" ry="10" style="stroke: black; stroke-width: 2px; fill: white; fill-opacity: 0.95;"></rect><text lineHeight="1.2" class="djs-label" style="font-family: Arial, sans-serif; font-size: 12px; font-weight: normal; fill: black;"><tspan x="12.47265625" y="39.2">Receive request for </tspan><tspan x="33.1494140625" y="53.6">cancellation </tspan><tspan x="30.6474609375" y="68">arrangement</tspan></text></g><g class="djs-visual" id="DataObjectReference_1urz60t" transform="translate(22 -5085)"><path d="m 0,0 28.23529411764706,0 7.058823529411765,8.196721311475411 0,40.98360655737705 -35.294117647058826,0 0,-49.18032786885246 28.23529411764706,0 0,8.196721311475411 7.058823529411765,0" style="fill: white; stroke-width: 2px; stroke: black; fill-opacity: 0.95;"></path></g><g class="djs-visual" id="DataObjectReference_1urz60t_label" transform="translate(-6 -5035)"><text lineHeight="1.2" class="djs-label" style="font-family: Arial, sans-serif; font-size: 11px; font-weight: normal; fill: black;"><tspan x="0" y="9.899999999999999">Customer Request</tspan></text></g><g class="djs-visual" id="Activity_1r92ni1" transform="translate(365 -3720)"><rect x="0" y="0" width="130" height="100" rx="10" ry="10" style="stroke: black; stroke-width: 2px; fill: white; fill-opacity: 0.95;"></rect><text lineHeight="1.2" class="djs-label" style="font-family: Arial, sans-serif; font-size: 12px; font-weight: normal; fill: black;"><tspan x="21.1533203125" y="53.599999999999994">Inform customer</tspan></text></g><g class="djs-visual" id="TextAnnotation_177ch0s" transform="translate(250 -3740)"><rect x="0" y="0" width="120" height="27" rx="0" ry="0" style="stroke: none; stroke-width: 2px; fill: none;"></rect><path d="m 0, 0 m 10,0 l -10,0 l 0,27 l 10,0" style="fill: none; stroke-width: 2px; stroke: black;"></path><text lineHeight="1.2" class="djs-label" style="font-family: Arial, sans-serif; font-size: 12px; font-weight: normal; fill: black;"><tspan x="5" y="15.799999999999999">Arrangement ID</tspan></text></g><g class="djs-visual" id="TextAnnotation_1oe5ksw" transform="translate(285 -4770)"><rect x="0" y="0" width="110" height="26" rx="0" ry="0" style="stroke: none; stroke-width: 2px; fill: none;"></rect><path d="m 0, 0 m 10,0 l -10,0 l 0,26 l 10,0" style="fill: none; stroke-width: 2px; stroke: black;"></path><text lineHeight="1.2" class="djs-label" style="font-family: Arial, sans-serif; font-size: 12px; font-weight: normal; fill: black;"><tspan x="5" y="15.799999999999999">Arrangement ID</tspan></text></g><g class="djs-visual" id="TextAnnotation_13461fr" transform="translate(280 -4500)"><rect x="0" y="0" width="140" height="26" rx="0" ry="0" style="stroke: none; stroke-width: 2px; fill: none;"></rect><path d="m 0, 0 m 10,0 l -10,0 l 0,26 l 10,0" style="fill: none; stroke-width: 2px; stroke: black;"></path><text lineHeight="1.2" class="djs-label" style="font-family: Arial, sans-serif; font-size: 12px; font-weight: normal; fill: black;"><tspan x="5" y="15.799999999999999">'Do Activity Today'</tspan></text></g><g class="djs-visual" id="TextAnnotation_0k1aj23" transform="translate(250 -3560)"><rect x="0" y="0" width="155" height="40" rx="0" ry="0" style="stroke: none; stroke-width: 2px; fill: none;"></rect><path d="m 0, 0 m 10,0 l -10,0 l 0,40 l 10,0" style="fill: none; stroke-width: 2px; stroke: black;"></path><text lineHeight="1.2" class="djs-label" style="font-family: Arial, sans-serif; font-size: 12px; font-weight: normal; fill: black;"><tspan x="5" y="15.799999999999999">Arrangement status </tspan><tspan x="5" y="30.199999999999996">updated as 'Cancelled'</tspan></text></g><g class="djs-visual" id="TextAnnotation_0sr9kcq" transform="translate(540 -3910)"><rect x="0" y="0" width="120" height="70" rx="0" ry="0" style="stroke: none; stroke-width: 2px; fill: none;"></rect><path d="m 0, 0 m 10,0 l -10,0 l 0,70 l 10,0" style="fill: none; stroke-width: 2px; stroke: black;"></path><text lineHeight="1.2" class="djs-label" style="font-family: Arial, sans-serif; font-size: 12px; font-weight: normal; fill: black;"><tspan x="5" y="15.799999999999999">'Cancellation not </tspan><tspan x="5" y="30.199999999999996">allowed post </tspan><tspan x="5" y="44.599999999999994">activation of </tspan><tspan x="5" y="58.99999999999999">arrangement'</tspan></text></g><g class="djs-visual" id="TextAnnotation_0uxfaw1" transform="translate(278 -4170)"><rect x="0" y="0" width="162" height="41" rx="0" ry="0" style="stroke: none; stroke-width: 2px; fill: none;"></rect><path d="m 0, 0 m 10,0 l -10,0 l 0,41 l 10,0" style="fill: none; stroke-width: 2px; stroke: black;"></path><text lineHeight="1.2" class="djs-label" style="font-family: Arial, sans-serif; font-size: 12px; font-weight: normal; fill: black;"><tspan x="5" y="15.799999999999999">Arrangement status </tspan><tspan x="5" y="30.199999999999996">(Activated/ Not activated)</tspan></text></g><g class="djs-visual" id="Flow_0vcb63v_label" transform="translate(430 -3967)"><text lineHeight="1.2" class="djs-label" style="font-family: Arial, sans-serif; font-size: 11px; font-weight: normal; fill: black;"><tspan x="1.935791015625" y="9.899999999999999">Arrangement status </tspan><tspan x="0" y="23.099999999999998">- Current (Activated)</tspan></text></g><g class="djs-visual" id="Flow_057hsh2_label" transform="translate(171 -3967)"><text lineHeight="1.2" class="djs-label" style="font-family: Arial, sans-serif; font-size: 11px; font-weight: normal; fill: black;"><tspan x="3.8876953125" y="9.899999999999999">Arrangement status </tspan><tspan x="0" y="23.099999999999998">- Authorised (Not acti</tspan><tspan x="36.67919921875" y="36.3">vated)</tspan></text></g><g class="djs-visual" id="DataInputAssociation_1s6fou7" transform="translate(0 0)"><polyline points="58,-5060 107,-5060 " style="fill: none; stroke: black; stroke-width: 2px; stroke-dasharray: 0.5, 5; stroke-linecap: round; stroke-linejoin: round; marker-end: url(&quot;#association-end-white-black-b8hiatrgk1k9oudgyvyu19ucc&quot;);"></polyline></g><g class="djs-visual" id="Association_1wzgb2s" transform="translate(0 0)"><polyline points="232,-3707 250,-3719 " style="fill: none; stroke: black; stroke-width: 2px; stroke-dasharray: 0.5, 5; stroke-linecap: round; stroke-linejoin: round;"></polyline></g><g class="djs-visual" id="Association_07agent" transform="translate(0 0)"><polyline points="237,-4457 280,-4483 " style="fill: none; stroke: black; stroke-width: 2px; stroke-dasharray: 0.5, 5; stroke-linecap: round; stroke-linejoin: round;"></polyline></g><g class="djs-visual" id="Association_1ms34f4" transform="translate(0 0)"><polyline points="232,-3518 250,-3526 " style="fill: none; stroke: black; stroke-width: 2px; stroke-dasharray: 0.5, 5; stroke-linecap: round; stroke-linejoin: round;"></polyline></g><g class="djs-visual" id="Association_12sqrv4" transform="translate(0 0)"><polyline points="237,-4742 285,-4757 " style="fill: none; stroke: black; stroke-width: 2px; stroke-dasharray: 0.5, 5; stroke-linecap: round; stroke-linejoin: round;"></polyline></g><g class="djs-visual" id="Association_0vc3ty9" transform="translate(0 0)"><polyline points="495,-3868 540,-3881 " style="fill: none; stroke: black; stroke-width: 2px; stroke-dasharray: 0.5, 5; stroke-linecap: round; stroke-linejoin: round;"></polyline></g><g class="djs-visual" id="Association_0yfjtoq" transform="translate(0 0)"><polyline points="232,-4128 278,-4141 " style="fill: none; stroke: black; stroke-width: 2px; stroke-dasharray: 0.5, 5; stroke-linecap: round; stroke-linejoin: round;"></polyline></g></g><g><rect class="viewport" x="-2293.5256797583083" y="-5281.184290030211" width="5241.691842900302" height="1993.9577039274923"></rect></g></svg>