<svg width="100%" height="100%" viewBox="-51, -151, 1835, 1736"><g><g class="djs-visual" id="Flow_1cmwhl8" transform="translate(0 0)"><path d="m  460,600L460,680 L95,680 " style="fill: none; stroke-width: 2px; stroke: black; stroke-linejoin: round; marker-end: url(&quot;#sequenceflow-end-white-black-6y75b579sqkbhu6y2zfxxmjhy&quot;);"></path></g><g class="djs-visual" id="Flow_1rhtyq7" transform="translate(0 0)"><path d="m  70,600L70,655 " style="fill: none; stroke-width: 2px; stroke: black; stroke-linejoin: round; marker-end: url(&quot;#sequenceflow-end-white-black-6y75b579sqkbhu6y2zfxxmjhy&quot;);"></path></g><g class="djs-visual" id="Flow_13vu6lv" transform="translate(0 0)"><path d="m  70,1210L70,1280 " style="fill: none; stroke-width: 2px; stroke: black; stroke-linejoin: round; marker-end: url(&quot;#sequenceflow-end-white-black-6y75b579sqkbhu6y2zfxxmjhy&quot;);"></path></g><g class="djs-visual" id="Flow_0wicbwq" transform="translate(0 0)"><path d="m  70,1040L70,1110 " style="fill: none; stroke-width: 2px; stroke: black; stroke-linejoin: round; marker-end: url(&quot;#sequenceflow-end-white-black-6y75b579sqkbhu6y2zfxxmjhy&quot;);"></path></g><g class="djs-visual" id="Flow_1wwdo1k" transform="translate(0 0)"><path d="m  70,850L70,940 " style="fill: none; stroke-width: 2px; stroke: black; stroke-linejoin: round; marker-end: url(&quot;#sequenceflow-end-white-black-6y75b579sqkbhu6y2zfxxmjhy&quot;);"></path></g><g class="djs-visual" id="Flow_1q6rebt" transform="translate(0 0)"><path d="m  70,705L70,750 " style="fill: none; stroke-width: 2px; stroke: black; stroke-linejoin: round; marker-end: url(&quot;#sequenceflow-end-white-black-6y75b579sqkbhu6y2zfxxmjhy&quot;);"></path></g><g class="djs-visual" id="Flow_03h7rmb" transform="translate(0 0)"><path d="m  460,430L460,500 " style="fill: none; stroke-width: 2px; stroke: black; stroke-linejoin: round; marker-end: url(&quot;#sequenceflow-end-white-black-6y75b579sqkbhu6y2zfxxmjhy&quot;);"></path></g><g class="djs-visual" id="Flow_16af6gs" transform="translate(0 0)"><path d="m  95,230L460,230 L460,330 " style="fill: none; stroke-width: 2px; stroke: black; stroke-linejoin: round; marker-end: url(&quot;#sequenceflow-end-white-black-6y75b579sqkbhu6y2zfxxmjhy&quot;);"></path></g><g class="djs-visual" id="Flow_1fjnnmv" transform="translate(0 0)"><path d="m  70,255L70,340 " style="fill: none; stroke-width: 2px; stroke: black; stroke-linejoin: round; marker-end: url(&quot;#sequenceflow-end-white-black-6y75b579sqkbhu6y2zfxxmjhy&quot;);"></path></g><g class="djs-visual" id="Flow_1pm4hmf" transform="translate(0 0)"><path d="m  70,1380L70,1472 " style="fill: none; stroke-width: 2px; stroke: black; stroke-linejoin: round; marker-end: url(&quot;#sequenceflow-end-white-black-6y75b579sqkbhu6y2zfxxmjhy&quot;);"></path></g><g class="djs-visual" id="Flow_0jruhvl" transform="translate(0 0)"><path d="m  70,440L70,500 " style="fill: none; stroke-width: 2px; stroke: black; stroke-linejoin: round; marker-end: url(&quot;#sequenceflow-end-white-black-6y75b579sqkbhu6y2zfxxmjhy&quot;);"></path></g><g class="djs-visual" id="Flow_01esvy8" transform="translate(0 0)"><path d="m  70,160L70,205 " style="fill: none; stroke-width: 2px; stroke: black; stroke-linejoin: round; marker-end: url(&quot;#sequenceflow-end-white-black-6y75b579sqkbhu6y2zfxxmjhy&quot;);"></path></g><g class="djs-visual" id="Flow_0oq12mb" transform="translate(0 0)"><path d="m  70,-12L70,60 " style="fill: none; stroke-width: 2px; stroke: black; stroke-linejoin: round; marker-end: url(&quot;#sequenceflow-end-white-black-6y75b579sqkbhu6y2zfxxmjhy&quot;);"></path></g><g class="djs-visual" id="StartEvent_1bm324f" transform="translate(52 -48)"><circle cx="18" cy="18" r="18" style="stroke: black; stroke-width: 2px; fill: white; fill-opacity: 0.95;"></circle></g><g class="djs-visual" id="StartEvent_1bm324f_label" transform="translate(26 -95)"><text lineHeight="1.2" class="djs-label" style="font-family: Arial, sans-serif; font-size: 11px; font-weight: normal; fill: black;"><tspan x="0" y="9.899999999999999">Customer initiates </tspan><tspan x="17.620361328125" y="23.099999999999998">OTC order</tspan></text></g><g class="djs-visual" id="Activity_0qrym02" transform="translate(5 60)"><rect x="0" y="0" width="130" height="100" rx="10" ry="10" style="stroke: black; stroke-width: 2px; fill: white; fill-opacity: 0.95;"></rect><text lineHeight="1.2" class="djs-label" style="font-family: Arial, sans-serif; font-size: 12px; font-weight: normal; fill: black;"><tspan x="12.310546875" y="39.2">Check with internal/ </tspan><tspan x="19.4775390625" y="53.6">external party for </tspan><tspan x="26.984375" y="68">contract terms</tspan></text></g><g class="djs-visual" id="Gateway_1fipezb" transform="translate(45 205)"><polygon points="25,0 50,25 25,50 0,25" style="stroke: black; stroke-width: 2px; fill: white; fill-opacity: 0.95;"></polygon><path d="m 16,15 7.42857142857143,9.714285714285715 -7.42857142857143,9.714285714285715 3.428571428571429,0 5.714285714285715,-7.464228571428572 5.714285714285715,7.464228571428572 3.428571428571429,0 -7.42857142857143,-9.714285714285715 7.42857142857143,-9.714285714285715 -3.428571428571429,0 -5.714285714285715,7.464228571428572 -5.714285714285715,-7.464228571428572 -3.428571428571429,0 z" style="fill: black; stroke-width: 1px; stroke: black;"></path></g><g class="djs-visual" id="Activity_1j370dw" transform="translate(5 340)"><rect x="0" y="0" width="130" height="100" rx="10" ry="10" style="stroke: black; stroke-width: 2px; fill: white; fill-opacity: 0.95;"></rect><text lineHeight="1.2" class="djs-label" style="font-family: Arial, sans-serif; font-size: 12px; font-weight: normal; fill: black;"><tspan x="18.134765625" y="46.4">Log quote/ create </tspan><tspan x="44.654296875" y="60.8">product</tspan></text></g><g class="djs-visual" id="Activity_1b7ggav" transform="translate(395 330)"><rect x="0" y="0" width="130" height="100" rx="10" ry="10" style="stroke: black; stroke-width: 2px; fill: white; fill-opacity: 0.95;"></rect><text lineHeight="1.2" class="djs-label" style="font-family: Arial, sans-serif; font-size: 12px; font-weight: normal; fill: black;"><tspan x="18.134765625" y="46.4">Log quote/ create </tspan><tspan x="44.654296875" y="60.8">product</tspan></text></g><g class="djs-visual" id="Gateway_1e9ww9p" transform="translate(45 655)"><polygon points="25,0 50,25 25,50 0,25" style="stroke: black; stroke-width: 2px; fill: white; fill-opacity: 0.95;"></polygon><path d="m 16,15 7.42857142857143,9.714285714285715 -7.42857142857143,9.714285714285715 3.428571428571429,0 5.714285714285715,-7.464228571428572 5.714285714285715,7.464228571428572 3.428571428571429,0 -7.42857142857143,-9.714285714285715 7.42857142857143,-9.714285714285715 -3.428571428571429,0 -5.714285714285715,7.464228571428572 -5.714285714285715,-7.464228571428572 -3.428571428571429,0 z" style="fill: black; stroke-width: 1px; stroke: black;"></path></g><g class="djs-visual" id="Activity_0sbdjzm" transform="translate(5 750)"><rect x="0" y="0" width="130" height="100" rx="10" ry="10" style="stroke: black; stroke-width: 2px; fill: white; fill-opacity: 0.95;"></rect><text lineHeight="1.2" class="djs-label" style="font-family: Arial, sans-serif; font-size: 12px; font-weight: normal; fill: black;"><tspan x="19.8203125" y="46.4">Inform Customer </tspan><tspan x="33.140625" y="60.8">about quote</tspan></text></g><g class="djs-visual" id="Activity_0jp8i66" transform="translate(5 940)"><rect x="0" y="0" width="130" height="100" rx="10" ry="10" style="stroke: black; stroke-width: 2px; fill: white; fill-opacity: 0.95;"></rect><text lineHeight="1.2" class="djs-label" style="font-family: Arial, sans-serif; font-size: 12px; font-weight: normal; fill: black;"><tspan x="20.14453125" y="46.4">Capture&nbsp;over the </tspan><tspan x="10.6328125" y="60.8">counter trade details</tspan></text></g><g class="djs-visual" id="Activity_06knkeq" transform="translate(5 1110)"><rect x="0" y="0" width="130" height="100" rx="10" ry="10" style="stroke: black; stroke-width: 2px; fill: white; fill-opacity: 0.95;"></rect><text lineHeight="1.2" class="djs-label" style="font-family: Arial, sans-serif; font-size: 12px; font-weight: normal; fill: black;"><tspan x="16.642578125" y="46.4">Authorise over the </tspan><tspan x="10.6328125" y="60.8">counter trade details</tspan></text></g><g class="djs-visual" id="Activity_1py7zu7" transform="translate(5 1280)"><rect x="0" y="0" width="130" height="100" rx="10" ry="10" style="stroke: black; stroke-width: 2px; fill: white; fill-opacity: 0.95;"></rect><text lineHeight="1.2" class="djs-label" style="font-family: Arial, sans-serif; font-size: 12px; font-weight: normal; fill: black;"><tspan x="15.1513671875" y="46.4">Generate OTC DX </tspan><tspan x="49.3857421875" y="60.8">Trade</tspan></text></g><g class="djs-visual" id="Event_0g1tew9" transform="translate(52 1472)"><circle cx="18" cy="18" r="18" style="stroke: black; stroke-width: 4px; fill: white; fill-opacity: 0.95;"></circle></g><g class="djs-visual" id="Event_0g1tew9_label" transform="translate(23 1515)"><text lineHeight="1.2" class="djs-label" style="font-family: Arial, sans-serif; font-size: 11px; font-weight: normal; fill: black;"><tspan x="0" y="9.899999999999999">OTC Trade created</tspan></text></g><g class="djs-visual" id="Activity_1mp414w" transform="translate(5 500)"><rect x="0" y="0" width="130" height="100" rx="10" ry="10" style="stroke: black; stroke-width: 2px; fill: white; fill-opacity: 0.95;"></rect><text lineHeight="1.2" class="djs-label" style="font-family: Arial, sans-serif; font-size: 12px; font-weight: normal; fill: black;"><tspan x="9.31640625" y="53.599999999999994">Create OTC contract</tspan></text></g><g class="djs-visual" id="Activity_06ktwyg" transform="translate(395 500)"><rect x="0" y="0" width="130" height="100" rx="10" ry="10" style="stroke: black; stroke-width: 2px; fill: white; fill-opacity: 0.95;"></rect><text lineHeight="1.2" class="djs-label" style="font-family: Arial, sans-serif; font-size: 12px; font-weight: normal; fill: black;"><tspan x="24.8251953125" y="46.4">Create FXOTC </tspan><tspan x="43.32421875" y="60.8">contract</tspan></text></g><g class="djs-visual" id="TextAnnotation_1voyebh" transform="translate(170 240)"><rect x="0" y="0" width="270" height="84" rx="0" ry="0" style="stroke: none; stroke-width: 2px; fill: none;"></rect><path d="m 0, 0 m 10,0 l -10,0 l 0,84 l 10,0" style="fill: none; stroke-width: 2px; stroke: black;"></path><text lineHeight="1.2" class="djs-label" style="font-family: Arial, sans-serif; font-size: 12px; font-weight: normal; fill: black;"><tspan x="5" y="15.799999999999999">Based on Templates</tspan><tspan x="5" y="30.199999999999996">- Securities Master</tspan><tspan x="5" y="44.599999999999994">- Contract Master Based on product set up</tspan><tspan x="5" y="58.99999999999999">&nbsp;(American, European, Vanilla, Exotics) the OTC</tspan><tspan x="5" y="73.39999999999999">product can be traded</tspan></text></g><g class="djs-visual" id="TextAnnotation_1m4z9nw" transform="translate(570 240)"><rect x="0" y="0" width="270" height="83" rx="0" ry="0" style="stroke: none; stroke-width: 2px; fill: none;"></rect><path d="m 0, 0 m 10,0 l -10,0 l 0,83 l 10,0" style="fill: none; stroke-width: 2px; stroke: black;"></path><text lineHeight="1.2" class="djs-label" style="font-family: Arial, sans-serif; font-size: 12px; font-weight: normal; fill: black;"><tspan x="5" y="15.799999999999999">Single Generic Contract Master to be created </tspan><tspan x="5" y="30.199999999999996">- Contract class with contract type FXOTC Fields</tspan><tspan x="5" y="44.599999999999994">Currency, Delivery Currency, Price Dps, Tick </tspan><tspan x="5" y="58.99999999999999">Size, Tick Value, Min Price Mvmt and Underlying </tspan><tspan x="5" y="73.39999999999999">will be defaulted</tspan></text></g><g class="djs-visual" id="TextAnnotation_0z9m5m2" transform="translate(170 860)"><rect x="0" y="0" width="570" height="110" rx="0" ry="0" style="stroke: none; stroke-width: 2px; fill: none;"></rect><path d="m 0, 0 m 10,0 l -10,0 l 0,110 l 10,0" style="fill: none; stroke-width: 2px; stroke: black;"></path><text lineHeight="1.2" class="djs-label" style="font-family: Arial, sans-serif; font-size: 12px; font-weight: normal; fill: black;"><tspan x="5" y="15.799999999999999">- For FXOTC, currency pair need to be defined at Trade level.</tspan><tspan x="5" y="30.199999999999996">- Strike Quote and Strike Quote Currency need to be entered</tspan><tspan x="5" y="44.599999999999994">- Commission will be calculated at Order level based on Charge Tax</tspan><tspan x="5" y="58.99999999999999">Type for Dx.trade activity if set in SC.CHARGE.TAX.CALC.CREATE else&nbsp;</tspan><tspan x="5" y="73.39999999999999">calculated based on DX.COMMISSION and defaulted to the order or can&nbsp;</tspan><tspan x="5" y="87.79999999999998">be manually input</tspan><tspan x="5" y="102.19999999999999">- For option with underlying future, maturity date for underlying future can be defined</tspan></text></g><g class="djs-visual" id="Flow_1fjnnmv_label" transform="translate(72 276)"><text lineHeight="1.2" class="djs-label" style="font-family: Arial, sans-serif; font-size: 11px; font-weight: normal; fill: black;"><tspan x="0" y="9.899999999999999">OTC Contract to be </tspan><tspan x="28.1171875" y="23.099999999999998">Created</tspan></text></g><g class="djs-visual" id="Flow_16af6gs_label" transform="translate(142 196)"><text lineHeight="1.2" class="djs-label" style="font-family: Arial, sans-serif; font-size: 11px; font-weight: normal; fill: black;"><tspan x="0" y="9.899999999999999">FXOTC Contract to </tspan><tspan x="19.8515625" y="23.099999999999998">be Created</tspan></text></g><g class="djs-visual" id="Flow_1rhtyq7_label" transform="translate(87 625)"><text lineHeight="1.2" class="djs-label" style="font-family: Arial, sans-serif; font-size: 11px; font-weight: normal; fill: black;"><tspan x="0" y="9.899999999999999">OTC contract </tspan><tspan x="14.822265625" y="23.099999999999998">created</tspan></text></g><g class="djs-visual" id="Flow_1cmwhl8_label" transform="translate(469 626)"><text lineHeight="1.2" class="djs-label" style="font-family: Arial, sans-serif; font-size: 11px; font-weight: normal; fill: black;"><tspan x="1.212158203125" y="9.899999999999999">Generic FXOTC </tspan><tspan x="0" y="23.099999999999998">Contract created</tspan></text></g><g class="djs-visual" id="Association_02i6v15" transform="translate(0 0)"><polyline points="134,346 170,319 " style="fill: none; stroke: black; stroke-width: 2px; stroke-dasharray: 0.5, 5; stroke-linecap: round; stroke-linejoin: round;"></polyline></g><g class="djs-visual" id="Association_00u5adi" transform="translate(0 0)"><polyline points="525,339 570,310 " style="fill: none; stroke: black; stroke-width: 2px; stroke-dasharray: 0.5, 5; stroke-linecap: round; stroke-linejoin: round;"></polyline></g><g class="djs-visual" id="Association_1aru39p" transform="translate(0 0)"><polyline points="135,950 170,928 " style="fill: none; stroke: black; stroke-width: 2px; stroke-dasharray: 0.5, 5; stroke-linecap: round; stroke-linejoin: round;"></polyline></g></g><g><rect class="viewport" x="-1729.6625310173695" y="-101.10669975186104" width="4305.210918114144" height="1637.7171215880892"></rect></g></svg>