<svg width="100%" height="100%" viewBox="-50, -218, 1835, 4289"><g><g class="djs-visual" id="Flow_0zxf4c5" transform="translate(0 0)"><path d="m  290,2200L610,2200 L610,2302 " style="fill: none; stroke-width: 2px; stroke: black; stroke-linejoin: round; marker-end: url(&quot;#sequenceflow-end-white-black-4kgtug5vcfspl282ux0s6zoph&quot;);"></path></g><g class="djs-visual" id="Flow_0tqf4qx" transform="translate(0 0)"><path d="m  265,2225L265,2290 " style="fill: none; stroke-width: 2px; stroke: black; stroke-linejoin: round; marker-end: url(&quot;#sequenceflow-end-white-black-4kgtug5vcfspl282ux0s6zoph&quot;);"></path></g><g class="djs-visual" id="Flow_056tswg" transform="translate(0 0)"><path d="m  265,2130L265,2175 " style="fill: none; stroke-width: 2px; stroke: black; stroke-linejoin: round; marker-end: url(&quot;#sequenceflow-end-white-black-4kgtug5vcfspl282ux0s6zoph&quot;);"></path></g><g class="djs-visual" id="Flow_0ygc8r1" transform="translate(0 0)"><path d="m  290,1920L610,1920 L610,2002 " style="fill: none; stroke-width: 2px; stroke: black; stroke-linejoin: round; marker-end: url(&quot;#sequenceflow-end-white-black-4kgtug5vcfspl282ux0s6zoph&quot;);"></path></g><g class="djs-visual" id="Flow_1yjcef9" transform="translate(0 0)"><path d="m  265,1945L265,2030 " style="fill: none; stroke-width: 2px; stroke: black; stroke-linejoin: round; marker-end: url(&quot;#sequenceflow-end-white-black-4kgtug5vcfspl282ux0s6zoph&quot;);"></path></g><g class="djs-visual" id="Flow_0yyvtos" transform="translate(0 0)"><path d="m  290,1650L610,1650 L610,1762 " style="fill: none; stroke-width: 2px; stroke: black; stroke-linejoin: round; marker-end: url(&quot;#sequenceflow-end-white-black-4kgtug5vcfspl282ux0s6zoph&quot;);"></path></g><g class="djs-visual" id="Flow_0njnym3" transform="translate(0 0)"><path d="m  265,1840L265,1895 " style="fill: none; stroke-width: 2px; stroke: black; stroke-linejoin: round; marker-end: url(&quot;#sequenceflow-end-white-black-4kgtug5vcfspl282ux0s6zoph&quot;);"></path></g><g class="djs-visual" id="Flow_0pjbw00" transform="translate(0 0)"><path d="m  265,1675L265,1740 " style="fill: none; stroke-width: 2px; stroke: black; stroke-linejoin: round; marker-end: url(&quot;#sequenceflow-end-white-black-4kgtug5vcfspl282ux0s6zoph&quot;);"></path></g><g class="djs-visual" id="Flow_0ynnozj" transform="translate(0 0)"><path d="m  265,1590L265,1625 " style="fill: none; stroke-width: 2px; stroke: black; stroke-linejoin: round; marker-end: url(&quot;#sequenceflow-end-white-black-4kgtug5vcfspl282ux0s6zoph&quot;);"></path></g><g class="djs-visual" id="Flow_1lhdl7s" transform="translate(0 0)"><path d="m  265,3860L265,3932 " style="fill: none; stroke-width: 2px; stroke: black; stroke-linejoin: round; marker-end: url(&quot;#sequenceflow-end-white-black-4kgtug5vcfspl282ux0s6zoph&quot;);"></path></g><g class="djs-visual" id="Flow_1a3nif8" transform="translate(0 0)"><path d="m  265,3690L265,3760 " style="fill: none; stroke-width: 2px; stroke: black; stroke-linejoin: round; marker-end: url(&quot;#sequenceflow-end-white-black-4kgtug5vcfspl282ux0s6zoph&quot;);"></path></g><g class="djs-visual" id="Flow_0fkwj91" transform="translate(0 0)"><path d="m  265,3500L265,3590 " style="fill: none; stroke-width: 2px; stroke: black; stroke-linejoin: round; marker-end: url(&quot;#sequenceflow-end-white-black-4kgtug5vcfspl282ux0s6zoph&quot;);"></path></g><g class="djs-visual" id="Flow_0onfvp5" transform="translate(0 0)"><path d="m  265,3340L265,3400 " style="fill: none; stroke-width: 2px; stroke: black; stroke-linejoin: round; marker-end: url(&quot;#sequenceflow-end-white-black-4kgtug5vcfspl282ux0s6zoph&quot;);"></path></g><g class="djs-visual" id="Flow_1v2iape" transform="translate(0 0)"><path d="m  265,3135L265,3240 " style="fill: none; stroke-width: 2px; stroke: black; stroke-linejoin: round; marker-end: url(&quot;#sequenceflow-end-white-black-4kgtug5vcfspl282ux0s6zoph&quot;);"></path></g><g class="djs-visual" id="Flow_1psfzi3" transform="translate(0 0)"><path d="m  754,3040L754,3110 L290,3110 " style="fill: none; stroke-width: 2px; stroke: black; stroke-linejoin: round; marker-end: url(&quot;#sequenceflow-end-white-black-4kgtug5vcfspl282ux0s6zoph&quot;);"></path></g><g class="djs-visual" id="Flow_1esqe9n" transform="translate(0 0)"><path d="m  265,2630L265,3085 " style="fill: none; stroke-width: 2px; stroke: black; stroke-linejoin: round; marker-end: url(&quot;#sequenceflow-end-white-black-4kgtug5vcfspl282ux0s6zoph&quot;);"></path></g><g class="djs-visual" id="Flow_18w28wy" transform="translate(0 0)"><path d="m  1120,3040L1120,3112 " style="fill: none; stroke-width: 2px; stroke: black; stroke-linejoin: round; marker-end: url(&quot;#sequenceflow-end-white-black-4kgtug5vcfspl282ux0s6zoph&quot;);"></path></g><g class="djs-visual" id="Flow_1ukfanb" transform="translate(0 0)"><path d="m  1120,2890L1120,2940 " style="fill: none; stroke-width: 2px; stroke: black; stroke-linejoin: round; marker-end: url(&quot;#sequenceflow-end-white-black-4kgtug5vcfspl282ux0s6zoph&quot;);"></path></g><g class="djs-visual" id="Flow_10zy0q1" transform="translate(0 0)"><path d="m  779,2723L1120,2723 L1120,2790 " style="fill: none; stroke-width: 2px; stroke: black; stroke-linejoin: round; marker-end: url(&quot;#sequenceflow-end-white-black-4kgtug5vcfspl282ux0s6zoph&quot;);"></path></g><g class="djs-visual" id="Flow_0kl7qnd" transform="translate(0 0)"><path d="m  754,2890L754,2940 " style="fill: none; stroke-width: 2px; stroke: black; stroke-linejoin: round; marker-end: url(&quot;#sequenceflow-end-white-black-4kgtug5vcfspl282ux0s6zoph&quot;);"></path></g><g class="djs-visual" id="Flow_1q4c98b" transform="translate(0 0)"><path d="m  754,2748L754,2790 " style="fill: none; stroke-width: 2px; stroke: black; stroke-linejoin: round; marker-end: url(&quot;#sequenceflow-end-white-black-4kgtug5vcfspl282ux0s6zoph&quot;);"></path></g><g class="djs-visual" id="Flow_0kxcjt7" transform="translate(0 0)"><path d="m  754,2630L754,2698 " style="fill: none; stroke-width: 2px; stroke: black; stroke-linejoin: round; marker-end: url(&quot;#sequenceflow-end-white-black-4kgtug5vcfspl282ux0s6zoph&quot;);"></path></g><g class="djs-visual" id="Flow_0t6nqdb" transform="translate(0 0)"><path d="m  290,2454L754,2454 L754,2530 " style="fill: none; stroke-width: 2px; stroke: black; stroke-linejoin: round; marker-end: url(&quot;#sequenceflow-end-white-black-4kgtug5vcfspl282ux0s6zoph&quot;);"></path></g><g class="djs-visual" id="Flow_0sxje11" transform="translate(0 0)"><path d="m  265,2479L265,2530 " style="fill: none; stroke-width: 2px; stroke: black; stroke-linejoin: round; marker-end: url(&quot;#sequenceflow-end-white-black-4kgtug5vcfspl282ux0s6zoph&quot;);"></path></g><g class="djs-visual" id="Flow_1dwamuq" transform="translate(0 0)"><path d="m  265,2390L265,2429 " style="fill: none; stroke-width: 2px; stroke: black; stroke-linejoin: round; marker-end: url(&quot;#sequenceflow-end-white-black-4kgtug5vcfspl282ux0s6zoph&quot;);"></path></g><g class="djs-visual" id="Flow_02wfvpv" transform="translate(0 0)"><path d="m  265,1406L265,1490 " style="fill: none; stroke-width: 2px; stroke: black; stroke-linejoin: round; marker-end: url(&quot;#sequenceflow-end-white-black-4kgtug5vcfspl282ux0s6zoph&quot;);"></path></g><g class="djs-visual" id="Flow_1p0pvd1" transform="translate(0 0)"><path d="m  290,1230L610,1230 L610,1300 " style="fill: none; stroke-width: 2px; stroke: black; stroke-linejoin: round; marker-end: url(&quot;#sequenceflow-end-white-black-4kgtug5vcfspl282ux0s6zoph&quot;);"></path></g><g class="djs-visual" id="Flow_0b6j9gd" transform="translate(0 0)"><path d="m  265,1255L265,1306 " style="fill: none; stroke-width: 2px; stroke: black; stroke-linejoin: round; marker-end: url(&quot;#sequenceflow-end-white-black-4kgtug5vcfspl282ux0s6zoph&quot;);"></path></g><g class="djs-visual" id="Flow_1frb3wy" transform="translate(0 0)"><path d="m  265,1160L265,1205 " style="fill: none; stroke-width: 2px; stroke: black; stroke-linejoin: round; marker-end: url(&quot;#sequenceflow-end-white-black-4kgtug5vcfspl282ux0s6zoph&quot;);"></path></g><g class="djs-visual" id="Flow_0zrq0yo" transform="translate(0 0)"><path d="m  265,995L265,1060 " style="fill: none; stroke-width: 2px; stroke: black; stroke-linejoin: round; marker-end: url(&quot;#sequenceflow-end-white-black-4kgtug5vcfspl282ux0s6zoph&quot;);"></path></g><g class="djs-visual" id="Flow_0z8y8as" transform="translate(0 0)"><path d="m  610,1400L610,1442 " style="fill: none; stroke-width: 2px; stroke: black; stroke-linejoin: round; marker-end: url(&quot;#sequenceflow-end-white-black-4kgtug5vcfspl282ux0s6zoph&quot;);"></path></g><g class="djs-visual" id="Flow_1eb6kok" transform="translate(0 0)"><path d="m  290,620L610,620 L610,970 L290,970 " style="fill: none; stroke-width: 2px; stroke: black; stroke-linejoin: round; marker-end: url(&quot;#sequenceflow-end-white-black-4kgtug5vcfspl282ux0s6zoph&quot;);"></path></g><g class="djs-visual" id="Flow_1dlc3pk" transform="translate(0 0)"><path d="m  265,870L265,945 " style="fill: none; stroke-width: 2px; stroke: black; stroke-linejoin: round; marker-end: url(&quot;#sequenceflow-end-white-black-4kgtug5vcfspl282ux0s6zoph&quot;);"></path></g><g class="djs-visual" id="Flow_1961wei" transform="translate(0 0)"><path d="m  265,645L265,770 " style="fill: none; stroke-width: 2px; stroke: black; stroke-linejoin: round; marker-end: url(&quot;#sequenceflow-end-white-black-4kgtug5vcfspl282ux0s6zoph&quot;);"></path></g><g class="djs-visual" id="Flow_1ftyjt0" transform="translate(0 0)"><path d="m  265,535L265,595 " style="fill: none; stroke-width: 2px; stroke: black; stroke-linejoin: round; marker-end: url(&quot;#sequenceflow-end-white-black-4kgtug5vcfspl282ux0s6zoph&quot;);"></path></g><g class="djs-visual" id="Flow_166vqxa" transform="translate(0 0)"><path d="m  755,535L755,602 " style="fill: none; stroke-width: 2px; stroke: black; stroke-linejoin: round; marker-end: url(&quot;#sequenceflow-end-white-black-4kgtug5vcfspl282ux0s6zoph&quot;);"></path></g><g class="djs-visual" id="Flow_0h9twfx" transform="translate(0 0)"><path d="m  290,350L755,350 L755,435 " style="fill: none; stroke-width: 2px; stroke: black; stroke-linejoin: round; marker-end: url(&quot;#sequenceflow-end-white-black-4kgtug5vcfspl282ux0s6zoph&quot;);"></path></g><g class="djs-visual" id="Flow_11hcmad" transform="translate(0 0)"><path d="m  265,375L265,435 " style="fill: none; stroke-width: 2px; stroke: black; stroke-linejoin: round; marker-end: url(&quot;#sequenceflow-end-white-black-4kgtug5vcfspl282ux0s6zoph&quot;);"></path></g><g class="djs-visual" id="Flow_1u6ilo1" transform="translate(0 0)"><path d="m  265,260L265,325 " style="fill: none; stroke-width: 2px; stroke: black; stroke-linejoin: round; marker-end: url(&quot;#sequenceflow-end-white-black-4kgtug5vcfspl282ux0s6zoph&quot;);"></path></g><g class="djs-visual" id="Flow_06mpp5j" transform="translate(0 0)"><path d="m  265,90L265,160 " style="fill: none; stroke-width: 2px; stroke: black; stroke-linejoin: round; marker-end: url(&quot;#sequenceflow-end-white-black-4kgtug5vcfspl282ux0s6zoph&quot;);"></path></g><g class="djs-visual" id="Flow_012ecmr" transform="translate(0 0)"><path d="m  265,-90L265,-10 " style="fill: none; stroke-width: 2px; stroke: black; stroke-linejoin: round; marker-end: url(&quot;#sequenceflow-end-white-black-4kgtug5vcfspl282ux0s6zoph&quot;);"></path></g><g class="djs-visual" id="StartEvent_1bm324f" transform="translate(247 -126)"><circle cx="18" cy="18" r="18" style="stroke: black; stroke-width: 2px; fill: white; fill-opacity: 0.95;"></circle></g><g class="djs-visual" id="StartEvent_1bm324f_label" transform="translate(219 -162)"><text lineHeight="1.2" class="djs-label" style="font-family: Arial, sans-serif; font-size: 11px; font-weight: normal; fill: black;"><tspan x="0" y="9.899999999999999">Customer wants to </tspan><tspan x="11.5" y="23.099999999999998">withdraw cash</tspan></text></g><g class="djs-visual" id="Activity_171k7qs" transform="translate(200 -10)"><rect x="0" y="0" width="130" height="100" rx="10" ry="10" style="stroke: black; stroke-width: 2px; fill: white; fill-opacity: 0.95;"></rect><text lineHeight="1.2" class="djs-label" style="font-family: Arial, sans-serif; font-size: 12px; font-weight: normal; fill: black;"><tspan x="11.3046875" y="46.4">Receive instructions </tspan><tspan x="25.32421875" y="60.8">from Customer</tspan></text></g><g class="djs-visual" id="DataObjectReference_16uzwbr" transform="translate(112 15)"><path d="m 0,0 28.23529411764706,0 7.058823529411765,8.196721311475411 0,40.98360655737705 -35.294117647058826,0 0,-49.18032786885246 28.23529411764706,0 0,8.196721311475411 7.058823529411765,0" style="fill: white; stroke-width: 2px; stroke: black; fill-opacity: 0.95;"></path></g><g class="djs-visual" id="DataObjectReference_16uzwbr_label" transform="translate(88 72)"><text lineHeight="1.2" class="djs-label" style="font-family: Arial, sans-serif; font-size: 11px; font-weight: normal; fill: black;"><tspan x="0" y="9.899999999999999">Cash Withdrawal </tspan><tspan x="29.01171875" y="23.099999999999998">Form</tspan></text></g><g class="djs-visual" id="Activity_03oa1ig" transform="translate(200 160)"><rect x="0" y="0" width="130" height="100" rx="10" ry="10" style="stroke: black; stroke-width: 2px; fill: white; fill-opacity: 0.95;"></rect><text lineHeight="1.2" class="djs-label" style="font-family: Arial, sans-serif; font-size: 12px; font-weight: normal; fill: black;"><tspan x="31.9794921875" y="46.4">Authenticate </tspan><tspan x="38.4912109375" y="60.8">Customer</tspan></text></g><g class="djs-visual" id="Gateway_1w0tc73" transform="translate(240 325)"><polygon points="25,0 50,25 25,50 0,25" style="stroke: black; stroke-width: 2px; fill: white; fill-opacity: 0.95;"></polygon><path d="m 16,15 7.42857142857143,9.714285714285715 -7.42857142857143,9.714285714285715 3.428571428571429,0 5.714285714285715,-7.464228571428572 5.714285714285715,7.464228571428572 3.428571428571429,0 -7.42857142857143,-9.714285714285715 7.42857142857143,-9.714285714285715 -3.428571428571429,0 -5.714285714285715,7.464228571428572 -5.714285714285715,-7.464228571428572 -3.428571428571429,0 z" style="fill: black; stroke-width: 1px; stroke: black;"></path></g><g class="djs-visual" id="Activity_10l77ym" transform="translate(200 435)"><rect x="0" y="0" width="130" height="100" rx="10" ry="10" style="stroke: black; stroke-width: 2px; fill: white; fill-opacity: 0.95;"></rect><text lineHeight="1.2" class="djs-label" style="font-family: Arial, sans-serif; font-size: 12px; font-weight: normal; fill: black;"><tspan x="13.4755859375" y="46.4">Capture withdrawal </tspan><tspan x="31.93359375" y="60.8">of FCY cash</tspan></text></g><g class="djs-visual" id="Activity_0vv8kvl" transform="translate(690 435)"><rect x="0" y="0" width="130" height="100" rx="10" ry="10" style="stroke: black; stroke-width: 2px; fill: white; fill-opacity: 0.95;"></rect><text lineHeight="1.2" class="djs-label" style="font-family: Arial, sans-serif; font-size: 12px; font-weight: normal; fill: black;"><tspan x="19.8203125" y="39.2">Inform Customer </tspan><tspan x="13.466796875" y="53.6">about unsuccessful </tspan><tspan x="27.474609375" y="68">authentication</tspan></text></g><g class="djs-visual" id="Event_0usb7mn" transform="translate(737 602)"><circle cx="18" cy="18" r="18" style="stroke: black; stroke-width: 4px; fill: white; fill-opacity: 0.95;"></circle></g><g class="djs-visual" id="Event_0usb7mn_label" transform="translate(709 645)"><text lineHeight="1.2" class="djs-label" style="font-family: Arial, sans-serif; font-size: 11px; font-weight: normal; fill: black;"><tspan x="0" y="9.899999999999999">Customer informed </tspan><tspan x="18.328125" y="23.099999999999998">about failed </tspan><tspan x="12.5234375" y="36.3">authentication</tspan></text></g><g class="djs-visual" id="Gateway_0ysy17e" transform="translate(240 595)"><polygon points="25,0 50,25 25,50 0,25" style="stroke: black; stroke-width: 2px; fill: white; fill-opacity: 0.95;"></polygon><path d="m 16,15 7.42857142857143,9.714285714285715 -7.42857142857143,9.714285714285715 3.428571428571429,0 5.714285714285715,-7.464228571428572 5.714285714285715,7.464228571428572 3.428571428571429,0 -7.42857142857143,-9.714285714285715 7.42857142857143,-9.714285714285715 -3.428571428571429,0 -5.714285714285715,7.464228571428572 -5.714285714285715,-7.464228571428572 -3.428571428571429,0 z" style="fill: black; stroke-width: 1px; stroke: black;"></path></g><g class="djs-visual" id="Activity_0sdc3ye" transform="translate(200 770)"><rect x="0" y="0" width="130" height="100" rx="10" ry="10" style="stroke: black; stroke-width: 2px; fill: white; fill-opacity: 0.95;"></rect><text lineHeight="1.2" class="djs-label" style="font-family: Arial, sans-serif; font-size: 12px; font-weight: normal; fill: black;"><tspan x="7.6337890625" y="53.599999999999994">Assign exchange rate</tspan></text></g><g class="djs-visual" id="Gateway_0cgfprr" transform="translate(240 945)"><polygon points="25,0 50,25 25,50 0,25" style="stroke: black; stroke-width: 2px; fill: white; fill-opacity: 0.95;"></polygon><path d="m 16,15 7.42857142857143,9.714285714285715 -7.42857142857143,9.714285714285715 3.428571428571429,0 5.714285714285715,-7.464228571428572 5.714285714285715,7.464228571428572 3.428571428571429,0 -7.42857142857143,-9.714285714285715 7.42857142857143,-9.714285714285715 -3.428571428571429,0 -5.714285714285715,7.464228571428572 -5.714285714285715,-7.464228571428572 -3.428571428571429,0 z" style="fill: black; stroke-width: 1px; stroke: black;"></path></g><g class="djs-visual" id="Activity_1y2ouee" transform="translate(200 1060)"><rect x="0" y="0" width="130" height="100" rx="10" ry="10" style="stroke: black; stroke-width: 2px; fill: white; fill-opacity: 0.95;"></rect><text lineHeight="1.2" class="djs-label" style="font-family: Arial, sans-serif; font-size: 12px; font-weight: normal; fill: black;"><tspan x="20.748046875" y="46.4">Validate account </tspan><tspan x="44.154296875" y="60.8">number</tspan></text></g><g class="djs-visual" id="Gateway_15qu11o" transform="translate(240 1205)"><polygon points="25,0 50,25 25,50 0,25" style="stroke: black; stroke-width: 2px; fill: white; fill-opacity: 0.95;"></polygon><path d="m 16,15 7.42857142857143,9.714285714285715 -7.42857142857143,9.714285714285715 3.428571428571429,0 5.714285714285715,-7.464228571428572 5.714285714285715,7.464228571428572 3.428571428571429,0 -7.42857142857143,-9.714285714285715 7.42857142857143,-9.714285714285715 -3.428571428571429,0 -5.714285714285715,7.464228571428572 -5.714285714285715,-7.464228571428572 -3.428571428571429,0 z" style="fill: black; stroke-width: 1px; stroke: black;"></path></g><g class="djs-visual" id="Activity_1754ogf" transform="translate(200 1306)"><rect x="0" y="0" width="130" height="100" rx="10" ry="10" style="stroke: black; stroke-width: 2px; fill: white; fill-opacity: 0.95;"></rect><text lineHeight="1.2" class="djs-label" style="font-family: Arial, sans-serif; font-size: 12px; font-weight: normal; fill: black;"><tspan x="17.1513671875" y="46.4">Display Customer </tspan><tspan x="49.828125" y="60.8">name</tspan></text></g><g class="djs-visual" id="Activity_12m44xi" transform="translate(200 2290)"><rect x="0" y="0" width="130" height="100" rx="10" ry="10" style="stroke: black; stroke-width: 2px; fill: white; fill-opacity: 0.95;"></rect><text lineHeight="1.2" class="djs-label" style="font-family: Arial, sans-serif; font-size: 12px; font-weight: normal; fill: black;"><tspan x="9.3203125" y="53.599999999999994">Verify teller / till limits</tspan></text></g><g class="djs-visual" id="Activity_1isdf7x" transform="translate(545 1300)"><rect x="0" y="0" width="130" height="100" rx="10" ry="10" style="stroke: black; stroke-width: 2px; fill: white; fill-opacity: 0.95;"></rect><text lineHeight="1.2" class="djs-label" style="font-family: Arial, sans-serif; font-size: 12px; font-weight: normal; fill: black;"><tspan x="19.8203125" y="53.599999999999994">Inform Customer</tspan></text></g><g class="djs-visual" id="Event_1gjc1fg" transform="translate(592 1442)"><circle cx="18" cy="18" r="18" style="stroke: black; stroke-width: 4px; fill: white; fill-opacity: 0.95;"></circle></g><g class="djs-visual" id="Event_1gjc1fg_label" transform="translate(562 1485)"><text lineHeight="1.2" class="djs-label" style="font-family: Arial, sans-serif; font-size: 11px; font-weight: normal; fill: black;"><tspan x="0" y="9.899999999999999">Transaction rejected</tspan></text></g><g class="djs-visual" id="Gateway_0ivamxq" transform="translate(240 2429)"><polygon points="25,0 50,25 25,50 0,25" style="stroke: black; stroke-width: 2px; fill: white; fill-opacity: 0.95;"></polygon><path d="m 16,15 7.42857142857143,9.714285714285715 -7.42857142857143,9.714285714285715 3.428571428571429,0 5.714285714285715,-7.464228571428572 5.714285714285715,7.464228571428572 3.428571428571429,0 -7.42857142857143,-9.714285714285715 7.42857142857143,-9.714285714285715 -3.428571428571429,0 -5.714285714285715,7.464228571428572 -5.714285714285715,-7.464228571428572 -3.428571428571429,0 z" style="fill: black; stroke-width: 1px; stroke: black;"></path></g><g class="djs-visual" id="Activity_1asbkmq" transform="translate(200 2530)"><rect x="0" y="0" width="130" height="100" rx="10" ry="10" style="stroke: black; stroke-width: 2px; fill: white; fill-opacity: 0.95;"></rect><text lineHeight="1.2" class="djs-label" style="font-family: Arial, sans-serif; font-size: 12px; font-weight: normal; fill: black;"><tspan x="12.4775390625" y="46.4">Move transaction to </tspan><tspan x="12.12890625" y="60.8">authorisation queue</tspan></text></g><g class="djs-visual" id="Activity_1ukscvv" transform="translate(689 2530)"><rect x="0" y="0" width="130" height="100" rx="10" ry="10" style="stroke: black; stroke-width: 2px; fill: white; fill-opacity: 0.95;"></rect><text lineHeight="1.2" class="djs-label" style="font-family: Arial, sans-serif; font-size: 12px; font-weight: normal; fill: black;"><tspan x="16.4765625" y="53.599999999999994">Generate override</tspan></text></g><g class="djs-visual" id="Gateway_193yz96" transform="translate(729 2698)"><polygon points="25,0 50,25 25,50 0,25" style="stroke: black; stroke-width: 2px; fill: white; fill-opacity: 0.95;"></polygon><path d="m 16,15 7.42857142857143,9.714285714285715 -7.42857142857143,9.714285714285715 3.428571428571429,0 5.714285714285715,-7.464228571428572 5.714285714285715,7.464228571428572 3.428571428571429,0 -7.42857142857143,-9.714285714285715 7.42857142857143,-9.714285714285715 -3.428571428571429,0 -5.714285714285715,7.464228571428572 -5.714285714285715,-7.464228571428572 -3.428571428571429,0 z" style="fill: black; stroke-width: 1px; stroke: black;"></path></g><g class="djs-visual" id="Activity_1a51hc4" transform="translate(689 2790)"><rect x="0" y="0" width="130" height="100" rx="10" ry="10" style="stroke: black; stroke-width: 2px; fill: white; fill-opacity: 0.95;"></rect><text lineHeight="1.2" class="djs-label" style="font-family: Arial, sans-serif; font-size: 12px; font-weight: normal; fill: black;"><tspan x="23.650390625" y="53.599999999999994">Accept override</tspan></text></g><g class="djs-visual" id="Activity_0b7f4m2" transform="translate(689 2940)"><rect x="0" y="0" width="130" height="100" rx="10" ry="10" style="stroke: black; stroke-width: 2px; fill: white; fill-opacity: 0.95;"></rect><text lineHeight="1.2" class="djs-label" style="font-family: Arial, sans-serif; font-size: 12px; font-weight: normal; fill: black;"><tspan x="12.4775390625" y="46.4">Move transaction to </tspan><tspan x="12.12890625" y="60.8">authorisation queue</tspan></text></g><g class="djs-visual" id="Activity_0zr1oxm" transform="translate(1055 2790)"><rect x="0" y="0" width="130" height="100" rx="10" ry="10" style="stroke: black; stroke-width: 2px; fill: white; fill-opacity: 0.95;"></rect><text lineHeight="1.2" class="djs-label" style="font-family: Arial, sans-serif; font-size: 12px; font-weight: normal; fill: black;"><tspan x="23.15625" y="53.599999999999994">Reject Override</tspan></text></g><g class="djs-visual" id="Activity_0qvtzoj" transform="translate(1057 2940)"><rect x="0" y="0" width="128" height="100" rx="10" ry="10" style="stroke: black; stroke-width: 2px; fill: white; fill-opacity: 0.95;"></rect><text lineHeight="1.2" class="djs-label" style="font-family: Arial, sans-serif; font-size: 12px; font-weight: normal; fill: black;"><tspan x="12.4765625" y="53.599999999999994">Cancel Transaction</tspan></text></g><g class="djs-visual" id="Event_0h3llmu" transform="translate(1102 3112)"><circle cx="18" cy="18" r="18" style="stroke: black; stroke-width: 4px; fill: white; fill-opacity: 0.95;"></circle></g><g class="djs-visual" id="Event_0h3llmu_label" transform="translate(1073 3155)"><text lineHeight="1.2" class="djs-label" style="font-family: Arial, sans-serif; font-size: 11px; font-weight: normal; fill: black;"><tspan x="0" y="9.899999999999999">Transaction aborted</tspan></text></g><g class="djs-visual" id="Gateway_1ywyvqo" transform="translate(240 3085)"><polygon points="25,0 50,25 25,50 0,25" style="stroke: black; stroke-width: 2px; fill: white; fill-opacity: 0.95;"></polygon><path d="m 16,15 7.42857142857143,9.714285714285715 -7.42857142857143,9.714285714285715 3.428571428571429,0 5.714285714285715,-7.464228571428572 5.714285714285715,7.464228571428572 3.428571428571429,0 -7.42857142857143,-9.714285714285715 7.42857142857143,-9.714285714285715 -3.428571428571429,0 -5.714285714285715,7.464228571428572 -5.714285714285715,-7.464228571428572 -3.428571428571429,0 z" style="fill: black; stroke-width: 1px; stroke: black;"></path></g><g class="djs-visual" id="Activity_1f8f3uj" transform="translate(200 3240)"><rect x="0" y="0" width="130" height="100" rx="10" ry="10" style="stroke: black; stroke-width: 2px; fill: white; fill-opacity: 0.95;"></rect><text lineHeight="1.2" class="djs-label" style="font-family: Arial, sans-serif; font-size: 12px; font-weight: normal; fill: black;"><tspan x="11.8037109375" y="46.4">Verify and authorise </tspan><tspan x="22.1474609375" y="60.8">cash withdrawal</tspan></text></g><g class="djs-visual" id="Activity_0d37x8o" transform="translate(200 3400)"><rect x="0" y="0" width="130" height="100" rx="10" ry="10" style="stroke: black; stroke-width: 2px; fill: white; fill-opacity: 0.95;"></rect><text lineHeight="1.2" class="djs-label" style="font-family: Arial, sans-serif; font-size: 12px; font-weight: normal; fill: black;"><tspan x="8.8037109375" y="46.4">Generate transaction </tspan><tspan x="43.984375" y="60.8">receipts</tspan></text></g><g class="djs-visual" id="DataObjectReference_1u0xh74" transform="translate(392 3425)"><path d="m 0,0 28.23529411764706,0 7.058823529411765,8.196721311475411 0,40.98360655737705 -35.294117647058826,0 0,-49.18032786885246 28.23529411764706,0 0,8.196721311475411 7.058823529411765,0" style="fill: white; stroke-width: 2px; stroke: black; fill-opacity: 0.95;"></path></g><g class="djs-visual" id="DataObjectReference_1u0xh74_label" transform="translate(362 3482)"><text lineHeight="1.2" class="djs-label" style="font-family: Arial, sans-serif; font-size: 11px; font-weight: normal; fill: black;"><tspan x="0" y="9.899999999999999">Transaction Receipt</tspan></text></g><g class="djs-visual" id="Activity_0ytk6mn" transform="translate(200 3590)"><rect x="0" y="0" width="130" height="100" rx="10" ry="10" style="stroke: black; stroke-width: 2px; fill: white; fill-opacity: 0.95;"></rect><text lineHeight="1.2" class="djs-label" style="font-family: Arial, sans-serif; font-size: 12px; font-weight: normal; fill: black;"><tspan x="15.1494140625" y="46.4">Deliver transaction </tspan><tspan x="12.14453125" y="60.8">receipt to Customer</tspan></text></g><g class="djs-visual" id="DataObjectReference_18dncte" transform="translate(392 3615)"><path d="m 0,0 28.23529411764706,0 7.058823529411765,8.196721311475411 0,40.98360655737705 -35.294117647058826,0 0,-49.18032786885246 28.23529411764706,0 0,8.196721311475411 7.058823529411765,0" style="fill: white; stroke-width: 2px; stroke: black; fill-opacity: 0.95;"></path></g><g class="djs-visual" id="DataObjectReference_18dncte_label" transform="translate(362 3672)"><text lineHeight="1.2" class="djs-label" style="font-family: Arial, sans-serif; font-size: 11px; font-weight: normal; fill: black;"><tspan x="0" y="9.899999999999999">Transaction Receipt</tspan></text></g><g class="djs-visual" id="Activity_03h4zxa" transform="translate(200 3760)"><rect x="0" y="0" width="130" height="100" rx="10" ry="10" style="stroke: black; stroke-width: 2px; fill: white; fill-opacity: 0.95;"></rect><text lineHeight="1.2" class="djs-label" style="font-family: Arial, sans-serif; font-size: 12px; font-weight: normal; fill: black;"><tspan x="13.4765625" y="46.4">Prepare &amp; disburse </tspan><tspan x="52.1630859375" y="60.8">cash</tspan></text></g><g class="djs-visual" id="Event_1xx98xw" transform="translate(247 3932)"><circle cx="18" cy="18" r="18" style="stroke: black; stroke-width: 4px; fill: white; fill-opacity: 0.95;"></circle></g><g class="djs-visual" id="Event_1xx98xw_label" transform="translate(225 3975)"><text lineHeight="1.2" class="djs-label" style="font-family: Arial, sans-serif; font-size: 11px; font-weight: normal; fill: black;"><tspan x="0" y="9.899999999999999">Cash withdrawal </tspan><tspan x="14.22216796875" y="23.099999999999998">transaction </tspan><tspan x="15.24560546875" y="36.3">completed</tspan></text></g><g class="djs-visual" id="Activity_0k5ztxc" transform="translate(200 1490)"><rect x="0" y="0" width="130" height="100" rx="10" ry="10" style="stroke: black; stroke-width: 2px; fill: white; fill-opacity: 0.95;"></rect><text lineHeight="1.2" class="djs-label" style="font-family: Arial, sans-serif; font-size: 12px; font-weight: normal; fill: black;"><tspan x="9.6328125" y="53.599999999999994">Verify account status</tspan></text></g><g class="djs-visual" id="Gateway_0s88cmx" transform="translate(240 1625)"><polygon points="25,0 50,25 25,50 0,25" style="stroke: black; stroke-width: 2px; fill: white; fill-opacity: 0.95;"></polygon><path d="m 16,15 7.42857142857143,9.714285714285715 -7.42857142857143,9.714285714285715 3.428571428571429,0 5.714285714285715,-7.464228571428572 5.714285714285715,7.464228571428572 3.428571428571429,0 -7.42857142857143,-9.714285714285715 7.42857142857143,-9.714285714285715 -3.428571428571429,0 -5.714285714285715,7.464228571428572 -5.714285714285715,-7.464228571428572 -3.428571428571429,0 z" style="fill: black; stroke-width: 1px; stroke: black;"></path></g><g class="djs-visual" id="Activity_0wrhco4" transform="translate(200 1740)"><rect x="0" y="0" width="130" height="100" rx="10" ry="10" style="stroke: black; stroke-width: 2px; fill: white; fill-opacity: 0.95;"></rect><text lineHeight="1.2" class="djs-label" style="font-family: Arial, sans-serif; font-size: 12px; font-weight: normal; fill: black;"><tspan x="19.8134765625" y="53.599999999999994">Verify till balance</tspan></text></g><g class="djs-visual" id="Event_1owc9j8" transform="translate(592 1762)"><circle cx="18" cy="18" r="18" style="stroke: black; stroke-width: 4px; fill: white; fill-opacity: 0.95;"></circle></g><g class="djs-visual" id="Event_1owc9j8_label" transform="translate(560 1805)"><text lineHeight="1.2" class="djs-label" style="font-family: Arial, sans-serif; font-size: 11px; font-weight: normal; fill: black;"><tspan x="0.861083984375" y="9.899999999999999">Account status does </tspan><tspan x="0" y="23.099999999999998">not allow transaction</tspan></text></g><g class="djs-visual" id="Gateway_09v8nws" transform="translate(240 1895)"><polygon points="25,0 50,25 25,50 0,25" style="stroke: black; stroke-width: 2px; fill: white; fill-opacity: 0.95;"></polygon><path d="m 16,15 7.42857142857143,9.714285714285715 -7.42857142857143,9.714285714285715 3.428571428571429,0 5.714285714285715,-7.464228571428572 5.714285714285715,7.464228571428572 3.428571428571429,0 -7.42857142857143,-9.714285714285715 7.42857142857143,-9.714285714285715 -3.428571428571429,0 -5.714285714285715,7.464228571428572 -5.714285714285715,-7.464228571428572 -3.428571428571429,0 z" style="fill: black; stroke-width: 1px; stroke: black;"></path></g><g class="djs-visual" id="Event_0lag5h9" transform="translate(592 2002)"><circle cx="18" cy="18" r="18" style="stroke: black; stroke-width: 4px; fill: white; fill-opacity: 0.95;"></circle></g><g class="djs-visual" id="Event_0lag5h9_label" transform="translate(573 2045)"><text lineHeight="1.2" class="djs-label" style="font-family: Arial, sans-serif; font-size: 11px; font-weight: normal; fill: black;"><tspan x="0" y="9.899999999999999">Till balance not </tspan><tspan x="14.68408203125" y="23.099999999999998">sufficient</tspan></text></g><g class="djs-visual" id="Activity_036hfvd" transform="translate(200 2030)"><rect x="0" y="0" width="130" height="100" rx="10" ry="10" style="stroke: black; stroke-width: 2px; fill: white; fill-opacity: 0.95;"></rect><text lineHeight="1.2" class="djs-label" style="font-family: Arial, sans-serif; font-size: 12px; font-weight: normal; fill: black;"><tspan x="26.9794921875" y="46.4">Verify account </tspan><tspan x="43.8193359375" y="60.8">balance</tspan></text></g><g class="djs-visual" id="Gateway_0g0rdoy" transform="translate(240 2175)"><polygon points="25,0 50,25 25,50 0,25" style="stroke: black; stroke-width: 2px; fill: white; fill-opacity: 0.95;"></polygon><path d="m 16,15 7.42857142857143,9.714285714285715 -7.42857142857143,9.714285714285715 3.428571428571429,0 5.714285714285715,-7.464228571428572 5.714285714285715,7.464228571428572 3.428571428571429,0 -7.42857142857143,-9.714285714285715 7.42857142857143,-9.714285714285715 -3.428571428571429,0 -5.714285714285715,7.464228571428572 -5.714285714285715,-7.464228571428572 -3.428571428571429,0 z" style="fill: black; stroke-width: 1px; stroke: black;"></path></g><g class="djs-visual" id="Event_06gvl0i" transform="translate(592 2302)"><circle cx="18" cy="18" r="18" style="stroke: black; stroke-width: 4px; fill: white; fill-opacity: 0.95;"></circle></g><g class="djs-visual" id="Event_06gvl0i_label" transform="translate(560 2345)"><text lineHeight="1.2" class="djs-label" style="font-family: Arial, sans-serif; font-size: 11px; font-weight: normal; fill: black;"><tspan x="0" y="9.899999999999999">Account balance not </tspan><tspan x="27.73583984375" y="23.099999999999998">sufficient</tspan></text></g><g class="djs-visual" id="TextAnnotation_1bqiy0i" transform="translate(390 -60)"><rect x="0" y="0" width="130" height="70" rx="0" ry="0" style="stroke: none; stroke-width: 2px; fill: none;"></rect><path d="m 0, 0 m 10,0 l -10,0 l 0,70 l 10,0" style="fill: none; stroke-width: 2px; stroke: black;"></path><text lineHeight="1.2" class="djs-label" style="font-family: Arial, sans-serif; font-size: 12px; font-weight: normal; fill: black;"><tspan x="5" y="15.799999999999999">- Account number</tspan><tspan x="5" y="30.199999999999996">- Name</tspan><tspan x="5" y="44.599999999999994">- Amount/ Currency</tspan><tspan x="5" y="58.99999999999999">- Passbook</tspan></text></g><g class="djs-visual" id="TextAnnotation_0f0budk" transform="translate(370 750)"><rect x="0" y="0" width="110" height="40" rx="0" ry="0" style="stroke: none; stroke-width: 2px; fill: none;"></rect><path d="m 0, 0 m 10,0 l -10,0 l 0,40 l 10,0" style="fill: none; stroke-width: 2px; stroke: black;"></path><text lineHeight="1.2" class="djs-label" style="font-family: Arial, sans-serif; font-size: 12px; font-weight: normal; fill: black;"><tspan x="5" y="15.799999999999999">Convert amount </tspan><tspan x="5" y="30.199999999999996">into local currency</tspan></text></g><g class="djs-visual" id="TextAnnotation_0cb3i5l" transform="translate(390 3530)"><rect x="0" y="0" width="145" height="60" rx="0" ry="0" style="stroke: none; stroke-width: 2px; fill: none;"></rect><path d="m 0, 0 m 10,0 l -10,0 l 0,60 l 10,0" style="fill: none; stroke-width: 2px; stroke: black;"></path><text lineHeight="1.2" class="djs-label" style="font-family: Arial, sans-serif; font-size: 12px; font-weight: normal; fill: black;"><tspan x="5" y="15.799999999999999">Customer to be informed </tspan><tspan x="5" y="30.199999999999996">to check that amount of </tspan><tspan x="5" y="44.599999999999994">withdrawal is correct</tspan></text></g><g class="djs-visual" id="DataInputAssociation_0udedia" transform="translate(0 0)"><polyline points="148,40 200,40 " style="fill: none; stroke: black; stroke-width: 2px; stroke-dasharray: 0.5, 5; stroke-linecap: round; stroke-linejoin: round; marker-end: url(&quot;#association-end-white-black-4kgtug5vcfspl282ux0s6zoph&quot;);"></polyline></g><g class="djs-visual" id="Flow_11hcmad_label" transform="translate(272 386)"><text lineHeight="1.2" class="djs-label" style="font-family: Arial, sans-serif; font-size: 11px; font-weight: normal; fill: black;"><tspan x="8.523193359375" y="9.899999999999999">Customer </tspan><tspan x="0" y="23.099999999999998">authenticated</tspan></text></g><g class="djs-visual" id="Flow_0h9twfx_label" transform="translate(776 386)"><text lineHeight="1.2" class="djs-label" style="font-family: Arial, sans-serif; font-size: 11px; font-weight: normal; fill: black;"><tspan x="0" y="9.899999999999999">Customer not </tspan><tspan x="0.4541015625" y="23.099999999999998">authenticated</tspan></text></g><g class="djs-visual" id="Flow_1961wei_label" transform="translate(270 647)"><text lineHeight="1.2" class="djs-label" style="font-family: Arial, sans-serif; font-size: 11px; font-weight: normal; fill: black;"><tspan x="7.07177734375" y="9.899999999999999">Account currency </tspan><tspan x="16.390625" y="23.099999999999998">different (E.g. </tspan><tspan x="4.608642578125" y="36.3">Bank's currency is </tspan><tspan x="6.467529296875" y="49.5">USD &amp; Customer </tspan><tspan x="0" y="62.7">withdraws CHF from </tspan><tspan x="6.446533203125" y="75.9">his GBP account)</tspan></text></g><g class="djs-visual" id="Flow_1eb6kok_label" transform="translate(393 497)"><text lineHeight="1.2" class="djs-label" style="font-family: Arial, sans-serif; font-size: 11px; font-weight: normal; fill: black;"><tspan x="7.828857421875" y="9.899999999999999">Account currency </tspan><tspan x="5.363037109375" y="23.099999999999998">same (E.g. Bank's </tspan><tspan x="4.8115234375" y="36.3">currency is USD &amp; </tspan><tspan x="0" y="49.5">Customer withdraws </tspan><tspan x="4.707275390625" y="62.7">CHF from his CHF </tspan><tspan x="28.80615234375" y="75.9">account)</tspan></text></g><g class="djs-visual" id="Flow_0b6j9gd_label" transform="translate(279 1256)"><text lineHeight="1.2" class="djs-label" style="font-family: Arial, sans-serif; font-size: 11px; font-weight: normal; fill: black;"><tspan x="0" y="9.899999999999999">Account number </tspan><tspan x="25.9091796875" y="23.099999999999998">exists</tspan></text></g><g class="djs-visual" id="Flow_1p0pvd1_label" transform="translate(629 1256)"><text lineHeight="1.2" class="djs-label" style="font-family: Arial, sans-serif; font-size: 11px; font-weight: normal; fill: black;"><tspan x="0" y="9.899999999999999">Account number </tspan><tspan x="5.808837890625" y="23.099999999999998">does not exist</tspan></text></g><g class="djs-visual" id="Flow_02wfvpv_label" transform="translate(271 1436)"><text lineHeight="1.2" class="djs-label" style="font-family: Arial, sans-serif; font-size: 11px; font-weight: normal; fill: black;"><tspan x="0" y="9.899999999999999">Transaction limits to </tspan><tspan x="22.8203125" y="23.099999999999998">be verified</tspan></text></g><g class="djs-visual" id="Flow_0sxje11_label" transform="translate(277 2490)"><text lineHeight="1.2" class="djs-label" style="font-family: Arial, sans-serif; font-size: 11px; font-weight: normal; fill: black;"><tspan x="0" y="9.899999999999999">Within Limit</tspan></text></g><g class="djs-visual" id="Flow_0t6nqdb_label" transform="translate(773 2496)"><text lineHeight="1.2" class="djs-label" style="font-family: Arial, sans-serif; font-size: 11px; font-weight: normal; fill: black;"><tspan x="0" y="9.899999999999999">Limit exceeded</tspan></text></g><g class="djs-visual" id="Flow_1q4c98b_label" transform="translate(762 2746)"><text lineHeight="1.2" class="djs-label" style="font-family: Arial, sans-serif; font-size: 11px; font-weight: normal; fill: black;"><tspan x="0" y="9.899999999999999">Override to be </tspan><tspan x="12.5234375" y="23.099999999999998">accepted</tspan></text></g><g class="djs-visual" id="Flow_10zy0q1_label" transform="translate(1135 2746)"><text lineHeight="1.2" class="djs-label" style="font-family: Arial, sans-serif; font-size: 11px; font-weight: normal; fill: black;"><tspan x="0" y="9.899999999999999">Override to be </tspan><tspan x="14.359375" y="23.099999999999998">declined</tspan></text></g><g class="djs-visual" id="Flow_1v2iape_label" transform="translate(272 3170)"><text lineHeight="1.2" class="djs-label" style="font-family: Arial, sans-serif; font-size: 11px; font-weight: normal; fill: black;"><tspan x="1.3203125" y="9.899999999999999">Transaction </tspan><tspan x="0" y="23.099999999999998">prompted to </tspan><tspan x="4.225830078125" y="36.3">authoriser</tspan></text></g><g class="djs-visual" id="DataOutputAssociation_0xisjy5" transform="translate(0 0)"><polyline points="330,3450 392,3450 " style="fill: none; stroke: black; stroke-width: 2px; stroke-dasharray: 0.5, 5; stroke-linecap: round; stroke-linejoin: round; marker-end: url(&quot;#association-end-white-black-4kgtug5vcfspl282ux0s6zoph&quot;);"></polyline></g><g class="djs-visual" id="DataOutputAssociation_0euwnb3" transform="translate(0 0)"><polyline points="330,3639 392,3640 " style="fill: none; stroke: black; stroke-width: 2px; stroke-dasharray: 0.5, 5; stroke-linecap: round; stroke-linejoin: round; marker-end: url(&quot;#association-end-white-black-4kgtug5vcfspl282ux0s6zoph&quot;);"></polyline></g><g class="djs-visual" id="Flow_0pjbw00_label" transform="translate(276 1686)"><text lineHeight="1.2" class="djs-label" style="font-family: Arial, sans-serif; font-size: 11px; font-weight: normal; fill: black;"><tspan x="7.893798828125" y="9.899999999999999">Account status </tspan><tspan x="0" y="23.099999999999998">allows transaction</tspan></text></g><g class="djs-visual" id="Flow_1yjcef9_label" transform="translate(292 1947)"><text lineHeight="1.2" class="djs-label" style="font-family: Arial, sans-serif; font-size: 11px; font-weight: normal; fill: black;"><tspan x="0" y="9.899999999999999">Till balance </tspan><tspan x="5.0400390625" y="23.099999999999998">sufficient</tspan></text></g><g class="djs-visual" id="Flow_0tqf4qx_label" transform="translate(279 2233)"><text lineHeight="1.2" class="djs-label" style="font-family: Arial, sans-serif; font-size: 11px; font-weight: normal; fill: black;"><tspan x="0" y="9.899999999999999">Account balance </tspan><tspan x="18.0947265625" y="23.099999999999998">sufficient</tspan></text></g><g class="djs-visual" id="Association_18k3sor" transform="translate(0 0)"><polyline points="330,3 390,-30 " style="fill: none; stroke: black; stroke-width: 2px; stroke-dasharray: 0.5, 5; stroke-linecap: round; stroke-linejoin: round;"></polyline></g><g class="djs-visual" id="Association_1br5nyp" transform="translate(0 0)"><polyline points="330,785 370,757 " style="fill: none; stroke: black; stroke-width: 2px; stroke-dasharray: 0.5, 5; stroke-linecap: round; stroke-linejoin: round;"></polyline></g><g class="djs-visual" id="Association_0ortj0v" transform="translate(0 0)"><polyline points="330,3603 390,3553 " style="fill: none; stroke: black; stroke-width: 2px; stroke-dasharray: 0.5, 5; stroke-linecap: round; stroke-linejoin: round;"></polyline></g></g><g><rect class="viewport" x="-4845.822784810126" y="-167.5253164556962" width="10981.012658227848" height="4177.215189873417"></rect></g></svg>