<svg width="100%" height="100%" viewBox="-50, 17, 1835, 2901"><g><g class="djs-visual" id="Flow_1gxohsn" transform="translate(0 0)"><path d="m  260,2710L260,2792 " style="fill: none; stroke-width: 2px; stroke: black; stroke-linejoin: round; marker-end: url(&quot;#sequenceflow-end-white-black-1h8r7c02zkhm5egaj21dohkwl&quot;);"></path></g><g class="djs-visual" id="Flow_1u3l6b4" transform="translate(0 0)"><path d="m  260,2535L260,2610 " style="fill: none; stroke-width: 2px; stroke: black; stroke-linejoin: round; marker-end: url(&quot;#sequenceflow-end-white-black-1h8r7c02zkhm5egaj21dohkwl&quot;);"></path></g><g class="djs-visual" id="Flow_1p6eq3t" transform="translate(0 0)"><path d="m  450,2478L450,2510 L285,2510 " style="fill: none; stroke-width: 2px; stroke: black; stroke-linejoin: round; marker-end: url(&quot;#sequenceflow-end-white-black-1h8r7c02zkhm5egaj21dohkwl&quot;);"></path></g><g class="djs-visual" id="Flow_1lnmak0" transform="translate(0 0)"><path d="m  260,2330L260,2485 " style="fill: none; stroke-width: 2px; stroke: black; stroke-linejoin: round; marker-end: url(&quot;#sequenceflow-end-white-black-1h8r7c02zkhm5egaj21dohkwl&quot;);"></path></g><g class="djs-visual" id="Flow_0bdbmp7" transform="translate(0 0)"><path d="m  260,2150L260,2230 " style="fill: none; stroke-width: 2px; stroke: black; stroke-linejoin: round; marker-end: url(&quot;#sequenceflow-end-white-black-1h8r7c02zkhm5egaj21dohkwl&quot;);"></path></g><g class="djs-visual" id="Flow_15wfc4w" transform="translate(0 0)"><path d="m  260,1970L260,2050 " style="fill: none; stroke-width: 2px; stroke: black; stroke-linejoin: round; marker-end: url(&quot;#sequenceflow-end-white-black-1h8r7c02zkhm5egaj21dohkwl&quot;);"></path></g><g class="djs-visual" id="Flow_1pl8dee" transform="translate(0 0)"><path d="m  260,1805L260,1870 " style="fill: none; stroke-width: 2px; stroke: black; stroke-linejoin: round; marker-end: url(&quot;#sequenceflow-end-white-black-1h8r7c02zkhm5egaj21dohkwl&quot;);"></path></g><g class="djs-visual" id="Flow_00go4ys" transform="translate(0 0)"><path d="m  990,1720L990,1780 L285,1780 " style="fill: none; stroke-width: 2px; stroke: black; stroke-linejoin: round; marker-end: url(&quot;#sequenceflow-end-white-black-1h8r7c02zkhm5egaj21dohkwl&quot;);"></path></g><g class="djs-visual" id="Flow_1ilnte4" transform="translate(0 0)"><path d="m  990,1555L990,1620 " style="fill: none; stroke-width: 2px; stroke: black; stroke-linejoin: round; marker-end: url(&quot;#sequenceflow-end-white-black-1h8r7c02zkhm5egaj21dohkwl&quot;);"></path></g><g class="djs-visual" id="Flow_1e5k1ur" transform="translate(0 0)"><path d="m  1225,1470L1225,1530 L1015,1530 " style="fill: none; stroke-width: 2px; stroke: black; stroke-linejoin: round; marker-end: url(&quot;#sequenceflow-end-white-black-1h8r7c02zkhm5egaj21dohkwl&quot;);"></path></g><g class="djs-visual" id="Flow_18dwv7t" transform="translate(0 0)"><path d="m  1015,1290L1225,1290 L1225,1370 " style="fill: none; stroke-width: 2px; stroke: black; stroke-linejoin: round; marker-end: url(&quot;#sequenceflow-end-white-black-1h8r7c02zkhm5egaj21dohkwl&quot;);"></path></g><g class="djs-visual" id="Flow_0vytkz4" transform="translate(0 0)"><path d="m  990,1315L990,1505 " style="fill: none; stroke-width: 2px; stroke: black; stroke-linejoin: round; marker-end: url(&quot;#sequenceflow-end-white-black-1h8r7c02zkhm5egaj21dohkwl&quot;);"></path></g><g class="djs-visual" id="Flow_0oi54x8" transform="translate(0 0)"><path d="m  990,1200L990,1265 " style="fill: none; stroke-width: 2px; stroke: black; stroke-linejoin: round; marker-end: url(&quot;#sequenceflow-end-white-black-1h8r7c02zkhm5egaj21dohkwl&quot;);"></path></g><g class="djs-visual" id="Flow_0c5njx6" transform="translate(0 0)"><path d="m  990,1010L990,1100 " style="fill: none; stroke-width: 2px; stroke: black; stroke-linejoin: round; marker-end: url(&quot;#sequenceflow-end-white-black-1h8r7c02zkhm5egaj21dohkwl&quot;);"></path></g><g class="djs-visual" id="Flow_0l1e1a6" transform="translate(0 0)"><path d="m  285,800L990,800 L990,910 " style="fill: none; stroke-width: 2px; stroke: black; stroke-linejoin: round; marker-end: url(&quot;#sequenceflow-end-white-black-1h8r7c02zkhm5egaj21dohkwl&quot;);"></path></g><g class="djs-visual" id="Flow_017f0st" transform="translate(0 0)"><path d="m  260,1380L260,1755 " style="fill: none; stroke-width: 2px; stroke: black; stroke-linejoin: round; marker-end: url(&quot;#sequenceflow-end-white-black-1h8r7c02zkhm5egaj21dohkwl&quot;);"></path></g><g class="djs-visual" id="Flow_0bniff0" transform="translate(0 0)"><path d="m  260,1200L260,1280 " style="fill: none; stroke-width: 2px; stroke: black; stroke-linejoin: round; marker-end: url(&quot;#sequenceflow-end-white-black-1h8r7c02zkhm5egaj21dohkwl&quot;);"></path></g><g class="djs-visual" id="Flow_1j8y2dv" transform="translate(0 0)"><path d="m  260,1010L260,1100 " style="fill: none; stroke-width: 2px; stroke: black; stroke-linejoin: round; marker-end: url(&quot;#sequenceflow-end-white-black-1h8r7c02zkhm5egaj21dohkwl&quot;);"></path></g><g class="djs-visual" id="Flow_1q0rkru" transform="translate(0 0)"><path d="m  260,825L260,910 " style="fill: none; stroke-width: 2px; stroke: black; stroke-linejoin: round; marker-end: url(&quot;#sequenceflow-end-white-black-1h8r7c02zkhm5egaj21dohkwl&quot;);"></path></g><g class="djs-visual" id="Flow_0c5p4zl" transform="translate(0 0)"><path d="m  260,710L260,775 " style="fill: none; stroke-width: 2px; stroke: black; stroke-linejoin: round; marker-end: url(&quot;#sequenceflow-end-white-black-1h8r7c02zkhm5egaj21dohkwl&quot;);"></path></g><g class="djs-visual" id="Flow_0imp8qv" transform="translate(0 0)"><path d="m  260,540L260,610 " style="fill: none; stroke-width: 2px; stroke: black; stroke-linejoin: round; marker-end: url(&quot;#sequenceflow-end-white-black-1h8r7c02zkhm5egaj21dohkwl&quot;);"></path></g><g class="djs-visual" id="Flow_06k3tzj" transform="translate(0 0)"><path d="m  260,370L260,440 " style="fill: none; stroke-width: 2px; stroke: black; stroke-linejoin: round; marker-end: url(&quot;#sequenceflow-end-white-black-1h8r7c02zkhm5egaj21dohkwl&quot;);"></path></g><g class="djs-visual" id="Flow_0pb6u9t" transform="translate(0 0)"><path d="m  260,188L260,270 " style="fill: none; stroke-width: 2px; stroke: black; stroke-linejoin: round; marker-end: url(&quot;#sequenceflow-end-white-black-1h8r7c02zkhm5egaj21dohkwl&quot;);"></path></g><g class="djs-visual" id="StartEvent_1bm324f" transform="translate(242 152)"><circle cx="18" cy="18" r="18" style="stroke: black; stroke-width: 2px; fill: white; fill-opacity: 0.95;"></circle></g><g class="djs-visual" id="StartEvent_1bm324f_label" transform="translate(226 73)"><text lineHeight="1.2" class="djs-label" style="font-family: Arial, sans-serif; font-size: 11px; font-weight: normal; fill: black;"><tspan x="8.401123046875" y="9.899999999999999">Scheduled </tspan><tspan x="0" y="23.099999999999998">Disbursement </tspan><tspan x="14.221435546875" y="36.3">required</tspan></text></g><g class="djs-visual" id="Activity_0yrw7nt" transform="translate(195 270)"><rect x="0" y="0" width="130" height="100" rx="10" ry="10" style="stroke: black; stroke-width: 2px; fill: white; fill-opacity: 0.95;"></rect><text lineHeight="1.2" class="djs-label" style="font-family: Arial, sans-serif; font-size: 12px; font-weight: normal; fill: black;"><tspan x="22.306640625" y="46.4">Choose product </tspan><tspan x="38.8154296875" y="60.8">catalogue</tspan></text></g><g class="djs-visual" id="Activity_17ea24h" transform="translate(195 440)"><rect x="0" y="0" width="130" height="100" rx="10" ry="10" style="stroke: black; stroke-width: 2px; fill: white; fill-opacity: 0.95;"></rect><text lineHeight="1.2" class="djs-label" style="font-family: Arial, sans-serif; font-size: 12px; font-weight: normal; fill: black;"><tspan x="34.8125" y="46.4">Set up new </tspan><tspan x="30.6474609375" y="60.8">arrangement</tspan></text></g><g class="djs-visual" id="Activity_1rdvarp" transform="translate(195 610)"><rect x="0" y="0" width="130" height="100" rx="10" ry="10" style="stroke: black; stroke-width: 2px; fill: white; fill-opacity: 0.95;"></rect><text lineHeight="1.2" class="djs-label" style="font-family: Arial, sans-serif; font-size: 12px; font-weight: normal; fill: black;"><tspan x="14.478515625" y="53.599999999999994">Select Pricing Plan</tspan></text></g><g class="djs-visual" id="Gateway_1cba03o" transform="translate(235 775)"><polygon points="25,0 50,25 25,50 0,25" style="stroke: black; stroke-width: 2px; fill: white; fill-opacity: 0.95;"></polygon><path d="m 16,15 7.42857142857143,9.714285714285715 -7.42857142857143,9.714285714285715 3.428571428571429,0 5.714285714285715,-7.464228571428572 5.714285714285715,7.464228571428572 3.428571428571429,0 -7.42857142857143,-9.714285714285715 7.42857142857143,-9.714285714285715 -3.428571428571429,0 -5.714285714285715,7.464228571428572 -5.714285714285715,-7.464228571428572 -3.428571428571429,0 z" style="fill: black; stroke-width: 1px; stroke: black;"></path></g><g class="djs-visual" id="Activity_02ubsxs" transform="translate(195 910)"><rect x="0" y="0" width="130" height="100" rx="10" ry="10" style="stroke: black; stroke-width: 2px; fill: white; fill-opacity: 0.95;"></rect><text lineHeight="1.2" class="djs-label" style="font-family: Arial, sans-serif; font-size: 12px; font-weight: normal; fill: black;"><tspan x="34.1455078125" y="39.2">Set up auto </tspan><tspan x="36.3193359375" y="53.6">repayment </tspan><tspan x="34.6484375" y="68">instructions</tspan></text></g><g class="djs-visual" id="Activity_11kq9l9" transform="translate(195 1100)"><rect x="0" y="0" width="130" height="100" rx="10" ry="10" style="stroke: black; stroke-width: 2px; fill: white; fill-opacity: 0.95;"></rect><text lineHeight="1.2" class="djs-label" style="font-family: Arial, sans-serif; font-size: 12px; font-weight: normal; fill: black;"><tspan x="17.4697265625" y="39.2">Choose Schedule </tspan><tspan x="37.4833984375" y="53.6">Method of </tspan><tspan x="27.6533203125" y="68">Disbursement</tspan></text></g><g class="djs-visual" id="Activity_0xctl6e" transform="translate(195 1280)"><rect x="0" y="0" width="130" height="100" rx="10" ry="10" style="stroke: black; stroke-width: 2px; fill: white; fill-opacity: 0.95;"></rect><text lineHeight="1.2" class="djs-label" style="font-family: Arial, sans-serif; font-size: 12px; font-weight: normal; fill: black;"><tspan x="11.8037109375" y="46.4">Verify and authorise </tspan><tspan x="17.9736328125" y="60.8">new arrangement</tspan></text></g><g class="djs-visual" id="Gateway_173lwe3" transform="translate(235 1755)"><polygon points="25,0 50,25 25,50 0,25" style="stroke: black; stroke-width: 2px; fill: white; fill-opacity: 0.95;"></polygon><path d="m 16,15 7.42857142857143,9.714285714285715 -7.42857142857143,9.714285714285715 3.428571428571429,0 5.714285714285715,-7.464228571428572 5.714285714285715,7.464228571428572 3.428571428571429,0 -7.42857142857143,-9.714285714285715 7.42857142857143,-9.714285714285715 -3.428571428571429,0 -5.714285714285715,7.464228571428572 -5.714285714285715,-7.464228571428572 -3.428571428571429,0 z" style="fill: black; stroke-width: 1px; stroke: black;"></path></g><g class="djs-visual" id="Activity_18hshns" transform="translate(925 910)"><rect x="0" y="0" width="130" height="100" rx="10" ry="10" style="stroke: black; stroke-width: 2px; fill: white; fill-opacity: 0.95;"></rect><text lineHeight="1.2" class="djs-label" style="font-family: Arial, sans-serif; font-size: 12px; font-weight: normal; fill: black;"><tspan x="17.4697265625" y="39.2">Choose Schedule </tspan><tspan x="37.4833984375" y="53.6">Method of </tspan><tspan x="27.6533203125" y="68">Disbursement</tspan></text></g><g class="djs-visual" id="Activity_03bwi7r" transform="translate(925 1100)"><rect x="0" y="0" width="130" height="100" rx="10" ry="10" style="stroke: black; stroke-width: 2px; fill: white; fill-opacity: 0.95;"></rect><text lineHeight="1.2" class="djs-label" style="font-family: Arial, sans-serif; font-size: 12px; font-weight: normal; fill: black;"><tspan x="27.8115234375" y="46.4">Decide on the </tspan><tspan x="14.8095703125" y="60.8">repayment method</tspan></text></g><g class="djs-visual" id="Gateway_0haorv4" transform="translate(965 1265)"><polygon points="25,0 50,25 25,50 0,25" style="stroke: black; stroke-width: 2px; fill: white; fill-opacity: 0.95;"></polygon><path d="m 16,15 7.42857142857143,9.714285714285715 -7.42857142857143,9.714285714285715 3.428571428571429,0 5.714285714285715,-7.464228571428572 5.714285714285715,7.464228571428572 3.428571428571429,0 -7.42857142857143,-9.714285714285715 7.42857142857143,-9.714285714285715 -3.428571428571429,0 -5.714285714285715,7.464228571428572 -5.714285714285715,-7.464228571428572 -3.428571428571429,0 z" style="fill: black; stroke-width: 1px; stroke: black;"></path></g><g class="djs-visual" id="Gateway_0qmgha0" transform="translate(965 1505)"><polygon points="25,0 50,25 25,50 0,25" style="stroke: black; stroke-width: 2px; fill: white; fill-opacity: 0.95;"></polygon><path d="m 16,15 7.42857142857143,9.714285714285715 -7.42857142857143,9.714285714285715 3.428571428571429,0 5.714285714285715,-7.464228571428572 5.714285714285715,7.464228571428572 3.428571428571429,0 -7.42857142857143,-9.714285714285715 7.42857142857143,-9.714285714285715 -3.428571428571429,0 -5.714285714285715,7.464228571428572 -5.714285714285715,-7.464228571428572 -3.428571428571429,0 z" style="fill: black; stroke-width: 1px; stroke: black;"></path></g><g class="djs-visual" id="Activity_086dq3v" transform="translate(925 1620)"><rect x="0" y="0" width="130" height="100" rx="10" ry="10" style="stroke: black; stroke-width: 2px; fill: white; fill-opacity: 0.95;"></rect><text lineHeight="1.2" class="djs-label" style="font-family: Arial, sans-serif; font-size: 12px; font-weight: normal; fill: black;"><tspan x="11.8037109375" y="46.4">Verify and authorise </tspan><tspan x="17.9736328125" y="60.8">new arrangement</tspan></text></g><g class="djs-visual" id="Activity_1tiq6f6" transform="translate(195 1870)"><rect x="0" y="0" width="130" height="100" rx="10" ry="10" style="stroke: black; stroke-width: 2px; fill: white; fill-opacity: 0.95;"></rect><text lineHeight="1.2" class="djs-label" style="font-family: Arial, sans-serif; font-size: 12px; font-weight: normal; fill: black;"><tspan x="18.1435546875" y="46.4">Create Mudaraba </tspan><tspan x="45.9892578125" y="60.8">finance</tspan></text></g><g class="djs-visual" id="Activity_0orewdk" transform="translate(195 2050)"><rect x="0" y="0" width="130" height="100" rx="10" ry="10" style="stroke: black; stroke-width: 2px; fill: white; fill-opacity: 0.95;"></rect><text lineHeight="1.2" class="djs-label" style="font-family: Arial, sans-serif; font-size: 12px; font-weight: normal; fill: black;"><tspan x="20.8095703125" y="53.599999999999994">Generate advice</tspan></text></g><g class="djs-visual" id="DataObjectReference_19cjehc" transform="translate(432 2075)"><path d="m 0,0 28.23529411764706,0 7.058823529411765,8.196721311475411 0,40.98360655737705 -35.294117647058826,0 0,-49.18032786885246 28.23529411764706,0 0,8.196721311475411 7.058823529411765,0" style="fill: white; stroke-width: 2px; stroke: black; fill-opacity: 0.95;"></path></g><g class="djs-visual" id="DataObjectReference_19cjehc_label" transform="translate(403 2132)"><text lineHeight="1.2" class="djs-label" style="font-family: Arial, sans-serif; font-size: 11px; font-weight: normal; fill: black;"><tspan x="23.123046875" y="9.899999999999999">Repayment </tspan><tspan x="5.078857421875" y="23.099999999999998">Schedule; Letter of </tspan><tspan x="0" y="36.3">Terms and conditions</tspan></text></g><g class="djs-visual" id="Activity_106yrb6" transform="translate(195 2230)"><rect x="0" y="0" width="130" height="100" rx="10" ry="10" style="stroke: black; stroke-width: 2px; fill: white; fill-opacity: 0.95;"></rect><text lineHeight="1.2" class="djs-label" style="font-family: Arial, sans-serif; font-size: 12px; font-weight: normal; fill: black;"><tspan x="20.484375" y="46.4">Deliver advice to </tspan><tspan x="38.4912109375" y="60.8">Customer</tspan></text></g><g class="djs-visual" id="DataObjectReference_1dq2s6d" transform="translate(432 2255)"><path d="m 0,0 28.23529411764706,0 7.058823529411765,8.196721311475411 0,40.98360655737705 -35.294117647058826,0 0,-49.18032786885246 28.23529411764706,0 0,8.196721311475411 7.058823529411765,0" style="fill: white; stroke-width: 2px; stroke: black; fill-opacity: 0.95;"></path></g><g class="djs-visual" id="DataObjectReference_1dq2s6d_label" transform="translate(403 2312)"><text lineHeight="1.2" class="djs-label" style="font-family: Arial, sans-serif; font-size: 11px; font-weight: normal; fill: black;"><tspan x="23.123046875" y="9.899999999999999">Repayment </tspan><tspan x="5.078857421875" y="23.099999999999998">Schedule; Letter of </tspan><tspan x="0" y="36.3">Terms and conditions</tspan></text></g><g class="djs-visual" id="Gateway_1v85srx" transform="translate(235 2485)"><polygon points="25,0 50,25 25,50 0,25" style="stroke: black; stroke-width: 2px; fill: white; fill-opacity: 0.95;"></polygon><path d="m 23,10 0,12.5 -12.5,0 0,5 12.5,0 0,12.5 5,0 0,-12.5 12.5,0 0,-5 -12.5,0 0,-12.5 -5,0 z" style="fill: black; stroke-width: 1px; stroke: black;"></path></g><g class="djs-visual" id="Event_069k09w" transform="translate(432 2442)"><circle cx="18" cy="18" r="18" style="stroke: black; stroke-width: 2px; fill: white; fill-opacity: 0.95;"></circle></g><g class="djs-visual" id="Event_069k09w_label" transform="translate(406 2401)"><text lineHeight="1.2" class="djs-label" style="font-family: Arial, sans-serif; font-size: 11px; font-weight: normal; fill: black;"><tspan x="0" y="9.899999999999999">Schedule date for </tspan><tspan x="10.294189453125" y="23.099999999999998">disbursement </tspan><tspan x="23.8994140625" y="36.3">reached</tspan></text></g><g class="djs-visual" id="Activity_0vo3w7e" transform="translate(195 2610)"><rect x="0" y="0" width="130" height="100" rx="10" ry="10" style="stroke: black; stroke-width: 2px; fill: white; fill-opacity: 0.95;"></rect><text lineHeight="1.2" class="djs-label" style="font-family: Arial, sans-serif; font-size: 12px; font-weight: normal; fill: black;"><tspan x="12.1416015625" y="39.2">Disburse Funds per </tspan><tspan x="39.8173828125" y="53.6">Schedule </tspan><tspan x="29.984375" y="68">automatically</tspan></text></g><g class="djs-visual" id="Event_0e5sp54" transform="translate(242 2792)"><circle cx="18" cy="18" r="18" style="stroke: black; stroke-width: 4px; fill: white; fill-opacity: 0.95;"></circle></g><g class="djs-visual" id="Event_0e5sp54_label" transform="translate(226 2835)"><text lineHeight="1.2" class="djs-label" style="font-family: Arial, sans-serif; font-size: 11px; font-weight: normal; fill: black;"><tspan x="0" y="9.899999999999999">Disbursement </tspan><tspan x="9.018310546875" y="23.099999999999998">completed</tspan></text></g><g class="djs-visual" id="Activity_04403uc" transform="translate(1160 1370)"><rect x="0" y="0" width="130" height="100" rx="10" ry="10" style="stroke: black; stroke-width: 5px; fill: white; fill-opacity: 0.95;"></rect><text lineHeight="1.2" class="djs-label" style="font-family: Arial, sans-serif; font-size: 12px; font-weight: normal; fill: black;"><tspan x="9.31640625" y="46.4">Register Direct Debit </tspan><tspan x="12.984375" y="60.8">Mandate (IF) (PBA)</tspan></text><rect x="0" y="0" width="14" height="14" rx="0" ry="0" style="stroke: black; stroke-width: 1px; fill: white;" transform="matrix(1 0 0 1 57.5 80)"></rect><path d="m57.5,80 m 7,2 l 0,10 m -5,-5 l 10,0" data-marker="sub-process" style="fill: white; stroke-width: 2px; stroke: black;"></path></g><g class="djs-visual" id="TextAnnotation_1gmf2sj" transform="translate(370 220)"><rect x="0" y="0" width="160" height="40" rx="0" ry="0" style="stroke: none; stroke-width: 2px; fill: none;"></rect><path d="m 0, 0 m 10,0 l -10,0 l 0,40 l 10,0" style="fill: none; stroke-width: 2px; stroke: black;"></path><text lineHeight="1.2" class="djs-label" style="font-family: Arial, sans-serif; font-size: 12px; font-weight: normal; fill: black;"><tspan x="5" y="15.799999999999999">Choose Product line, </tspan><tspan x="5" y="30.199999999999996">Product group and Product</tspan></text></g><g class="djs-visual" id="TextAnnotation_0uqvdi1" transform="translate(370 370)"><rect x="0" y="0" width="230" height="110" rx="0" ry="0" style="stroke: none; stroke-width: 2px; fill: none;"></rect><path d="m 0, 0 m 10,0 l -10,0 l 0,110 l 10,0" style="fill: none; stroke-width: 2px; stroke: black;"></path><text lineHeight="1.2" class="djs-label" style="font-family: Arial, sans-serif; font-size: 12px; font-weight: normal; fill: black;"><tspan x="5" y="15.799999999999999">Input Customer Number, Currency</tspan><tspan x="5" y="30.199999999999996">- Finance amount</tspan><tspan x="5" y="44.599999999999994">- Term</tspan><tspan x="5" y="58.99999999999999">- Repayment frequency</tspan><tspan x="5" y="73.39999999999999">- Profit rate</tspan><tspan x="5" y="87.79999999999998">- Limit ID</tspan><tspan x="5" y="102.19999999999999">(System generates Arrangement ID)</tspan></text></g><g class="djs-visual" id="TextAnnotation_1lnx8u3" transform="translate(370 830)"><rect x="0" y="0" width="420" height="170" rx="0" ry="0" style="stroke: none; stroke-width: 2px; fill: none;"></rect><path d="m 0, 0 m 10,0 l -10,0 l 0,170 l 10,0" style="fill: none; stroke-width: 2px; stroke: black;"></path><text lineHeight="1.2" class="djs-label" style="font-family: Arial, sans-serif; font-size: 12px; font-weight: normal; fill: black;"><tspan x="5" y="15.799999999999999">- Auto repayment instructions can be given for AA Lending.</tspan><tspan x="5" y="30.199999999999996">- Auto repayment mechanism takes care of the new arrangement fees</tspan><tspan x="5" y="44.599999999999994">&nbsp;and other scheduled fees</tspan><tspan x="5" y="58.99999999999999">The following details are given:</tspan><tspan x="5" y="73.39999999999999">- Pay in account</tspan><tspan x="5" y="87.79999999999998">There are three types of auto repayment:</tspan><tspan x="5" y="102.19999999999999">- Full repayment</tspan><tspan x="5" y="116.6">- Partial repayment (finance to be settled to extent of the funds</tspan><tspan x="5" y="131">&nbsp;available in the account)</tspan><tspan x="5" y="145.4">- None (If the balance is fully sufficient the loan would be fully settled from</tspan><tspan x="5" y="159.8">&nbsp;the account, else no auto repayment would take place)</tspan></text></g><g class="djs-visual" id="TextAnnotation_0eghnbz" transform="translate(370 1050)"><rect x="0" y="0" width="230" height="70" rx="0" ry="0" style="stroke: none; stroke-width: 2px; fill: none;"></rect><path d="m 0, 0 m 10,0 l -10,0 l 0,70 l 10,0" style="fill: none; stroke-width: 2px; stroke: black;"></path><text lineHeight="1.2" class="djs-label" style="font-family: Arial, sans-serif; font-size: 12px; font-weight: normal; fill: black;"><tspan x="5" y="15.799999999999999">Disbursement can be done by multiple </tspan><tspan x="5" y="30.199999999999996">roles e.g. Teller, Customer Service Agent,</tspan><tspan x="5" y="44.599999999999994">Islamic Credit Officer</tspan></text></g><g class="djs-visual" id="TextAnnotation_04l4nvm" transform="translate(370 1220)"><rect x="0" y="0" width="190" height="45" rx="0" ry="0" style="stroke: none; stroke-width: 2px; fill: none;"></rect><path d="m 0, 0 m 10,0 l -10,0 l 0,45 l 10,0" style="fill: none; stroke-width: 2px; stroke: black;"></path><text lineHeight="1.2" class="djs-label" style="font-family: Arial, sans-serif; font-size: 12px; font-weight: normal; fill: black;"><tspan x="5" y="15.799999999999999">Input 'Arrangement ID', verify </tspan><tspan x="5" y="30.199999999999996">particulars of AA and authorise</tspan></text></g><g class="djs-visual" id="TextAnnotation_18lv3bh" transform="translate(1110 850)"><rect x="0" y="0" width="230" height="60" rx="0" ry="0" style="stroke: none; stroke-width: 2px; fill: none;"></rect><path d="m 0, 0 m 10,0 l -10,0 l 0,60 l 10,0" style="fill: none; stroke-width: 2px; stroke: black;"></path><text lineHeight="1.2" class="djs-label" style="font-family: Arial, sans-serif; font-size: 12px; font-weight: normal; fill: black;"><tspan x="5" y="15.799999999999999">Disbursement can be done by multiple </tspan><tspan x="5" y="30.199999999999996">roles e.g. Teller, Customer Service Agent,</tspan><tspan x="5" y="44.599999999999994">Islamic Credit Officer</tspan></text></g><g class="djs-visual" id="TextAnnotation_04bbxu3" transform="translate(1110 1570)"><rect x="0" y="0" width="200" height="40" rx="0" ry="0" style="stroke: none; stroke-width: 2px; fill: none;"></rect><path d="m 0, 0 m 10,0 l -10,0 l 0,40 l 10,0" style="fill: none; stroke-width: 2px; stroke: black;"></path><text lineHeight="1.2" class="djs-label" style="font-family: Arial, sans-serif; font-size: 12px; font-weight: normal; fill: black;"><tspan x="5" y="15.799999999999999">Input 'Arrangement ID', verify </tspan><tspan x="5" y="30.199999999999996">particulars of AA and authorise</tspan></text></g><g class="djs-visual" id="TextAnnotation_00lt4e0" transform="translate(370 1970)"><rect x="0" y="0" width="240" height="60" rx="0" ry="0" style="stroke: none; stroke-width: 2px; fill: none;"></rect><path d="m 0, 0 m 10,0 l -10,0 l 0,60 l 10,0" style="fill: none; stroke-width: 2px; stroke: black;"></path><text lineHeight="1.2" class="djs-label" style="font-family: Arial, sans-serif; font-size: 12px; font-weight: normal; fill: black;"><tspan x="5" y="15.799999999999999">Letter generated to Customer with limit </tspan><tspan x="5" y="30.199999999999996">details, interest/ penalty rates, Repayment</tspan><tspan x="5" y="44.599999999999994">schedule</tspan></text></g><g class="djs-visual" id="TextAnnotation_0lr3ymc" transform="translate(370 2566)"><rect x="0" y="0" width="180" height="40" rx="0" ry="0" style="stroke: none; stroke-width: 2px; fill: none;"></rect><path d="m 0, 0 m 10,0 l -10,0 l 0,40 l 10,0" style="fill: none; stroke-width: 2px; stroke: black;"></path><text lineHeight="1.2" class="djs-label" style="font-family: Arial, sans-serif; font-size: 12px; font-weight: normal; fill: black;"><tspan x="5" y="15.799999999999999">Debit: Arrangement (Finance)</tspan><tspan x="5" y="30.199999999999996">Credit: Drawdown account</tspan></text></g><g class="djs-visual" id="Flow_1q0rkru_label" transform="translate(268 840)"><text lineHeight="1.2" class="djs-label" style="font-family: Arial, sans-serif; font-size: 11px; font-weight: normal; fill: black;"><tspan x="2.778564453125" y="9.899999999999999">Auto repayment </tspan><tspan x="0" y="23.099999999999998">instructions to be </tspan><tspan x="23.2265625" y="36.3">created</tspan></text></g><g class="djs-visual" id="Flow_0l1e1a6_label" transform="translate(994 833)"><text lineHeight="1.2" class="djs-label" style="font-family: Arial, sans-serif; font-size: 11px; font-weight: normal; fill: black;"><tspan x="0" y="9.899999999999999">Manual repayment </tspan><tspan x="4.446044921875" y="23.099999999999998">instructions to be </tspan><tspan x="32.875732421875" y="36.3">given</tspan></text></g><g class="djs-visual" id="Flow_0vytkz4_label" transform="translate(998 1324)"><text lineHeight="1.2" class="djs-label" style="font-family: Arial, sans-serif; font-size: 11px; font-weight: normal; fill: black;"><tspan x="0" y="9.899999999999999">Over the counter </tspan><tspan x="15.176513671875" y="23.099999999999998">repayment</tspan></text></g><g class="djs-visual" id="Flow_18dwv7t_label" transform="translate(1062 1240)"><text lineHeight="1.2" class="djs-label" style="font-family: Arial, sans-serif; font-size: 11px; font-weight: normal; fill: black;"><tspan x="0" y="9.899999999999999">Repayment through </tspan><tspan x="20.936767578125" y="23.099999999999998">direct debit</tspan></text></g><g class="djs-visual" id="Flow_1e5k1ur_label" transform="translate(1238 1480)"><text lineHeight="1.2" class="djs-label" style="font-family: Arial, sans-serif; font-size: 11px; font-weight: normal; fill: black;"><tspan x="0" y="9.899999999999999">Direct Debit Mandate </tspan><tspan x="27.203125" y="23.099999999999998">registered</tspan></text></g><g class="djs-visual" id="DataOutputAssociation_00xua0k" transform="translate(0 0)"><polyline points="325,2100 432,2100 " style="fill: none; stroke: black; stroke-width: 2px; stroke-dasharray: 0.5, 5; stroke-linecap: round; stroke-linejoin: round; marker-end: url(&quot;#association-end-white-black-1h8r7c02zkhm5egaj21dohkwl&quot;);"></polyline></g><g class="djs-visual" id="DataOutputAssociation_0v379a5" transform="translate(0 0)"><polyline points="325,2280 432,2280 " style="fill: none; stroke: black; stroke-width: 2px; stroke-dasharray: 0.5, 5; stroke-linecap: round; stroke-linejoin: round; marker-end: url(&quot;#association-end-white-black-1h8r7c02zkhm5egaj21dohkwl&quot;);"></polyline></g><g class="djs-visual" id="Flow_1lnmak0_label" transform="translate(270 2409)"><text lineHeight="1.2" class="djs-label" style="font-family: Arial, sans-serif; font-size: 11px; font-weight: normal; fill: black;"><tspan x="0" y="9.899999999999999">Finance created</tspan></text></g><g class="djs-visual" id="Association_0oao2wo" transform="translate(0 0)"><polyline points="323,274 370,240 " style="fill: none; stroke: black; stroke-width: 2px; stroke-dasharray: 0.5, 5; stroke-linecap: round; stroke-linejoin: round;"></polyline></g><g class="djs-visual" id="Association_1sjhng7" transform="translate(0 0)"><polyline points="322,444 370,408 " style="fill: none; stroke: black; stroke-width: 2px; stroke-dasharray: 0.5, 5; stroke-linecap: round; stroke-linejoin: round;"></polyline></g><g class="djs-visual" id="Association_0u9kgdq" transform="translate(0 0)"><polyline points="324,918 370,887 " style="fill: none; stroke: black; stroke-width: 2px; stroke-dasharray: 0.5, 5; stroke-linecap: round; stroke-linejoin: round;"></polyline></g><g class="djs-visual" id="Association_1xj41jw" transform="translate(0 0)"><polyline points="324,1106 370,1075 " style="fill: none; stroke: black; stroke-width: 2px; stroke-dasharray: 0.5, 5; stroke-linecap: round; stroke-linejoin: round;"></polyline></g><g class="djs-visual" id="Association_052ifcn" transform="translate(0 0)"><polyline points="321,1282 370,1243 " style="fill: none; stroke: black; stroke-width: 2px; stroke-dasharray: 0.5, 5; stroke-linecap: round; stroke-linejoin: round;"></polyline></g><g class="djs-visual" id="Association_0izoutm" transform="translate(0 0)"><polyline points="1055,920 1110,886 " style="fill: none; stroke: black; stroke-width: 2px; stroke-dasharray: 0.5, 5; stroke-linecap: round; stroke-linejoin: round;"></polyline></g><g class="djs-visual" id="Association_09vg9vs" transform="translate(0 0)"><polyline points="1055,1629 1110,1595 " style="fill: none; stroke: black; stroke-width: 2px; stroke-dasharray: 0.5, 5; stroke-linecap: round; stroke-linejoin: round;"></polyline></g><g class="djs-visual" id="Association_0ng60vs" transform="translate(0 0)"><polyline points="324,2056 370,2023 " style="fill: none; stroke: black; stroke-width: 2px; stroke-dasharray: 0.5, 5; stroke-linecap: round; stroke-linejoin: round;"></polyline></g><g class="djs-visual" id="Association_0qi3vgm" transform="translate(0 0)"><polyline points="322,2613 370,2576 " style="fill: none; stroke: black; stroke-width: 2px; stroke-dasharray: 0.5, 5; stroke-linecap: round; stroke-linejoin: round;"></polyline></g></g><g><rect class="viewport" x="-2908.5508474576272" y="66.89406779661017" width="7351.6949152542375" height="2796.6101694915255"></rect></g></svg>