<svg width="100%" height="100%" viewBox="-50, 80, 1835, 3398"><g><g class="djs-visual" id="Flow_0smw8l1" transform="translate(0 0)"><path d="m  285,3270L490,3270 L490,3352 " style="fill: none; stroke-width: 2px; stroke: black; stroke-linejoin: round; marker-end: url(&quot;#sequenceflow-end-white-black-30z9uos32jm1b90v8mkfabtb8&quot;);"></path></g><g class="djs-visual" id="Flow_0q8yr5g" transform="translate(0 0)"><path d="m  285,3270L380,3270 L380,3352 " style="fill: none; stroke-width: 2px; stroke: black; stroke-linejoin: round; marker-end: url(&quot;#sequenceflow-end-white-black-30z9uos32jm1b90v8mkfabtb8&quot;);"></path></g><g class="djs-visual" id="Flow_0ax21og" transform="translate(0 0)"><path d="m  260,3295L260,3352 " style="fill: none; stroke-width: 2px; stroke: black; stroke-linejoin: round; marker-end: url(&quot;#sequenceflow-end-white-black-30z9uos32jm1b90v8mkfabtb8&quot;);"></path></g><g class="djs-visual" id="Flow_1p26wnb" transform="translate(0 0)"><path d="m  260,3170L260,3245 " style="fill: none; stroke-width: 2px; stroke: black; stroke-linejoin: round; marker-end: url(&quot;#sequenceflow-end-white-black-30z9uos32jm1b90v8mkfabtb8&quot;);"></path></g><g class="djs-visual" id="Flow_1bjr3kx" transform="translate(0 0)"><path d="m  260,3005L260,3070 " style="fill: none; stroke-width: 2px; stroke: black; stroke-linejoin: round; marker-end: url(&quot;#sequenceflow-end-white-black-30z9uos32jm1b90v8mkfabtb8&quot;);"></path></g><g class="djs-visual" id="Flow_1dfr985" transform="translate(0 0)"><path d="m  670,2888L670,2980 L285,2980 " style="fill: none; stroke-width: 2px; stroke: black; stroke-linejoin: round; marker-end: url(&quot;#sequenceflow-end-white-black-30z9uos32jm1b90v8mkfabtb8&quot;);"></path></g><g class="djs-visual" id="Flow_0bnq9mr" transform="translate(0 0)"><path d="m  260,2895L260,2955 " style="fill: none; stroke-width: 2px; stroke: black; stroke-linejoin: round; marker-end: url(&quot;#sequenceflow-end-white-black-30z9uos32jm1b90v8mkfabtb8&quot;);"></path></g><g class="djs-visual" id="Flow_0czvui8" transform="translate(0 0)"><path d="m  430,2790L430,2870 L285,2870 " style="fill: none; stroke-width: 2px; stroke: black; stroke-linejoin: round; marker-end: url(&quot;#sequenceflow-end-white-black-30z9uos32jm1b90v8mkfabtb8&quot;);"></path></g><g class="djs-visual" id="Flow_1ttzmv7" transform="translate(0 0)"><path d="m  285,2640L430,2640 L430,2690 " style="fill: none; stroke-width: 2px; stroke: black; stroke-linejoin: round; marker-end: url(&quot;#sequenceflow-end-white-black-30z9uos32jm1b90v8mkfabtb8&quot;);"></path></g><g class="djs-visual" id="Flow_0jdy1rn" transform="translate(0 0)"><path d="m  260,2665L260,2845 " style="fill: none; stroke-width: 2px; stroke: black; stroke-linejoin: round; marker-end: url(&quot;#sequenceflow-end-white-black-30z9uos32jm1b90v8mkfabtb8&quot;);"></path></g><g class="djs-visual" id="Flow_1hj7l8j" transform="translate(0 0)"><path d="m  260,2550L260,2615 " style="fill: none; stroke-width: 2px; stroke: black; stroke-linejoin: round; marker-end: url(&quot;#sequenceflow-end-white-black-30z9uos32jm1b90v8mkfabtb8&quot;);"></path></g><g class="djs-visual" id="Flow_03ccg3m" transform="translate(0 0)"><path d="m  260,2330L260,2450 " style="fill: none; stroke-width: 2px; stroke: black; stroke-linejoin: round; marker-end: url(&quot;#sequenceflow-end-white-black-30z9uos32jm1b90v8mkfabtb8&quot;);"></path></g><g class="djs-visual" id="Flow_1wmkmet" transform="translate(0 0)"><path d="m  260,2150L260,2230 " style="fill: none; stroke-width: 2px; stroke: black; stroke-linejoin: round; marker-end: url(&quot;#sequenceflow-end-white-black-30z9uos32jm1b90v8mkfabtb8&quot;);"></path></g><g class="djs-visual" id="Flow_18caoeh" transform="translate(0 0)"><path d="m  260,1980L260,2050 " style="fill: none; stroke-width: 2px; stroke: black; stroke-linejoin: round; marker-end: url(&quot;#sequenceflow-end-white-black-30z9uos32jm1b90v8mkfabtb8&quot;);"></path></g><g class="djs-visual" id="Flow_0gn7w6w" transform="translate(0 0)"><path d="m  260,1835L260,1880 " style="fill: none; stroke-width: 2px; stroke: black; stroke-linejoin: round; marker-end: url(&quot;#sequenceflow-end-white-black-30z9uos32jm1b90v8mkfabtb8&quot;);"></path></g><g class="djs-visual" id="Flow_1723c6p" transform="translate(0 0)"><path d="m  910,1760L910,1810 L285,1810 " style="fill: none; stroke-width: 2px; stroke: black; stroke-linejoin: round; marker-end: url(&quot;#sequenceflow-end-white-black-30z9uos32jm1b90v8mkfabtb8&quot;);"></path></g><g class="djs-visual" id="Flow_02wd9hc" transform="translate(0 0)"><path d="m  910,1608L910,1660 " style="fill: none; stroke-width: 2px; stroke: black; stroke-linejoin: round; marker-end: url(&quot;#sequenceflow-end-white-black-30z9uos32jm1b90v8mkfabtb8&quot;);"></path></g><g class="djs-visual" id="Flow_19h6u47" transform="translate(0 0)"><path d="m  1135,1510L1135,1583 L935,1583 " style="fill: none; stroke-width: 2px; stroke: black; stroke-linejoin: round; marker-end: url(&quot;#sequenceflow-end-white-black-30z9uos32jm1b90v8mkfabtb8&quot;);"></path></g><g class="djs-visual" id="Flow_0umjx9d" transform="translate(0 0)"><path d="m  935,1340L1135,1340 L1135,1410 " style="fill: none; stroke-width: 2px; stroke: black; stroke-linejoin: round; marker-end: url(&quot;#sequenceflow-end-white-black-30z9uos32jm1b90v8mkfabtb8&quot;);"></path></g><g class="djs-visual" id="Flow_0xk0qsn" transform="translate(0 0)"><path d="m  910,1365L910,1558 " style="fill: none; stroke-width: 2px; stroke: black; stroke-linejoin: round; marker-end: url(&quot;#sequenceflow-end-white-black-30z9uos32jm1b90v8mkfabtb8&quot;);"></path></g><g class="djs-visual" id="Flow_00fqeci" transform="translate(0 0)"><path d="m  910,1260L910,1315 " style="fill: none; stroke-width: 2px; stroke: black; stroke-linejoin: round; marker-end: url(&quot;#sequenceflow-end-white-black-30z9uos32jm1b90v8mkfabtb8&quot;);"></path></g><g class="djs-visual" id="Flow_1mxj3hu" transform="translate(0 0)"><path d="m  910,1060L910,1160 " style="fill: none; stroke-width: 2px; stroke: black; stroke-linejoin: round; marker-end: url(&quot;#sequenceflow-end-white-black-30z9uos32jm1b90v8mkfabtb8&quot;);"></path></g><g class="djs-visual" id="Flow_0n7h8a3" transform="translate(0 0)"><path d="m  285,830L910,830 L910,960 " style="fill: none; stroke-width: 2px; stroke: black; stroke-linejoin: round; marker-end: url(&quot;#sequenceflow-end-white-black-30z9uos32jm1b90v8mkfabtb8&quot;);"></path></g><g class="djs-visual" id="Flow_0wsoxb1" transform="translate(0 0)"><path d="m  260,1440L260,1785 " style="fill: none; stroke-width: 2px; stroke: black; stroke-linejoin: round; marker-end: url(&quot;#sequenceflow-end-white-black-30z9uos32jm1b90v8mkfabtb8&quot;);"></path></g><g class="djs-visual" id="Flow_0290dyd" transform="translate(0 0)"><path d="m  260,1260L260,1340 " style="fill: none; stroke-width: 2px; stroke: black; stroke-linejoin: round; marker-end: url(&quot;#sequenceflow-end-white-black-30z9uos32jm1b90v8mkfabtb8&quot;);"></path></g><g class="djs-visual" id="Flow_1x4rynj" transform="translate(0 0)"><path d="m  260,1060L260,1160 " style="fill: none; stroke-width: 2px; stroke: black; stroke-linejoin: round; marker-end: url(&quot;#sequenceflow-end-white-black-30z9uos32jm1b90v8mkfabtb8&quot;);"></path></g><g class="djs-visual" id="Flow_1aixunp" transform="translate(0 0)"><path d="m  260,855L260,960 " style="fill: none; stroke-width: 2px; stroke: black; stroke-linejoin: round; marker-end: url(&quot;#sequenceflow-end-white-black-30z9uos32jm1b90v8mkfabtb8&quot;);"></path></g><g class="djs-visual" id="Flow_1iyzl00" transform="translate(0 0)"><path d="m  260,740L260,805 " style="fill: none; stroke-width: 2px; stroke: black; stroke-linejoin: round; marker-end: url(&quot;#sequenceflow-end-white-black-30z9uos32jm1b90v8mkfabtb8&quot;);"></path></g><g class="djs-visual" id="Flow_0kmrc79" transform="translate(0 0)"><path d="m  260,570L260,640 " style="fill: none; stroke-width: 2px; stroke: black; stroke-linejoin: round; marker-end: url(&quot;#sequenceflow-end-white-black-30z9uos32jm1b90v8mkfabtb8&quot;);"></path></g><g class="djs-visual" id="Flow_0h9bqe7" transform="translate(0 0)"><path d="m  260,390L260,470 " style="fill: none; stroke-width: 2px; stroke: black; stroke-linejoin: round; marker-end: url(&quot;#sequenceflow-end-white-black-30z9uos32jm1b90v8mkfabtb8&quot;);"></path></g><g class="djs-visual" id="Flow_1v34yxm" transform="translate(0 0)"><path d="m  260,220L260,290 " style="fill: none; stroke-width: 2px; stroke: black; stroke-linejoin: round; marker-end: url(&quot;#sequenceflow-end-white-black-30z9uos32jm1b90v8mkfabtb8&quot;);"></path></g><g class="djs-visual" id="StartEvent_1bm324f" transform="translate(242 184)"><circle cx="18" cy="18" r="18" style="stroke: black; stroke-width: 2px; fill: white; fill-opacity: 0.95;"></circle></g><g class="djs-visual" id="StartEvent_1bm324f_label" transform="translate(226 136)"><text lineHeight="1.2" class="djs-label" style="font-family: Arial, sans-serif; font-size: 11px; font-weight: normal; fill: black;"><tspan x="8.401123046875" y="9.899999999999999">Scheduled </tspan><tspan x="0" y="23.099999999999998">Disbursement</tspan></text></g><g class="djs-visual" id="Activity_0abpt5w" transform="translate(195 290)"><rect x="0" y="0" width="130" height="100" rx="10" ry="10" style="stroke: black; stroke-width: 2px; fill: white; fill-opacity: 0.95;"></rect><text lineHeight="1.2" class="djs-label" style="font-family: Arial, sans-serif; font-size: 12px; font-weight: normal; fill: black;"><tspan x="22.306640625" y="46.4">Choose product </tspan><tspan x="38.8154296875" y="60.8">catalogue</tspan></text></g><g class="djs-visual" id="Activity_19d73u8" transform="translate(195 470)"><rect x="0" y="0" width="130" height="100" rx="10" ry="10" style="stroke: black; stroke-width: 2px; fill: white; fill-opacity: 0.95;"></rect><text lineHeight="1.2" class="djs-label" style="font-family: Arial, sans-serif; font-size: 12px; font-weight: normal; fill: black;"><tspan x="34.8125" y="46.4">Set up new </tspan><tspan x="30.6474609375" y="60.8">arrangement</tspan></text></g><g class="djs-visual" id="Activity_0x2s7ei" transform="translate(195 640)"><rect x="0" y="0" width="130" height="100" rx="10" ry="10" style="stroke: black; stroke-width: 2px; fill: white; fill-opacity: 0.95;"></rect><text lineHeight="1.2" class="djs-label" style="font-family: Arial, sans-serif; font-size: 12px; font-weight: normal; fill: black;"><tspan x="14.478515625" y="53.599999999999994">Select Pricing Plan</tspan></text></g><g class="djs-visual" id="Gateway_10tn4yd" transform="translate(235 805)"><polygon points="25,0 50,25 25,50 0,25" style="stroke: black; stroke-width: 2px; fill: white; fill-opacity: 0.95;"></polygon><path d="m 16,15 7.42857142857143,9.714285714285715 -7.42857142857143,9.714285714285715 3.428571428571429,0 5.714285714285715,-7.464228571428572 5.714285714285715,7.464228571428572 3.428571428571429,0 -7.42857142857143,-9.714285714285715 7.42857142857143,-9.714285714285715 -3.428571428571429,0 -5.714285714285715,7.464228571428572 -5.714285714285715,-7.464228571428572 -3.428571428571429,0 z" style="fill: black; stroke-width: 1px; stroke: black;"></path></g><g class="djs-visual" id="Activity_0qprhqc" transform="translate(195 960)"><rect x="0" y="0" width="130" height="100" rx="10" ry="10" style="stroke: black; stroke-width: 2px; fill: white; fill-opacity: 0.95;"></rect><text lineHeight="1.2" class="djs-label" style="font-family: Arial, sans-serif; font-size: 12px; font-weight: normal; fill: black;"><tspan x="34.1455078125" y="39.2">Set up auto </tspan><tspan x="36.3193359375" y="53.6">repayment </tspan><tspan x="34.6484375" y="68">instructions</tspan></text></g><g class="djs-visual" id="Activity_05zgjm0" transform="translate(195 1160)"><rect x="0" y="0" width="130" height="100" rx="10" ry="10" style="stroke: black; stroke-width: 2px; fill: white; fill-opacity: 0.95;"></rect><text lineHeight="1.2" class="djs-label" style="font-family: Arial, sans-serif; font-size: 12px; font-weight: normal; fill: black;"><tspan x="17.4697265625" y="39.2">Choose Schedule </tspan><tspan x="37.4833984375" y="53.6">Method of </tspan><tspan x="27.6533203125" y="68">Disbursement</tspan></text></g><g class="djs-visual" id="Activity_0wmhmqf" transform="translate(195 1340)"><rect x="0" y="0" width="130" height="100" rx="10" ry="10" style="stroke: black; stroke-width: 2px; fill: white; fill-opacity: 0.95;"></rect><text lineHeight="1.2" class="djs-label" style="font-family: Arial, sans-serif; font-size: 12px; font-weight: normal; fill: black;"><tspan x="11.8037109375" y="46.4">Verify and authorise </tspan><tspan x="17.9736328125" y="60.8">new arrangement</tspan></text></g><g class="djs-visual" id="Gateway_1wlptk9" transform="translate(235 1785)"><polygon points="25,0 50,25 25,50 0,25" style="stroke: black; stroke-width: 2px; fill: white; fill-opacity: 0.95;"></polygon><path d="m 16,15 7.42857142857143,9.714285714285715 -7.42857142857143,9.714285714285715 3.428571428571429,0 5.714285714285715,-7.464228571428572 5.714285714285715,7.464228571428572 3.428571428571429,0 -7.42857142857143,-9.714285714285715 7.42857142857143,-9.714285714285715 -3.428571428571429,0 -5.714285714285715,7.464228571428572 -5.714285714285715,-7.464228571428572 -3.428571428571429,0 z" style="fill: black; stroke-width: 1px; stroke: black;"></path></g><g class="djs-visual" id="Activity_1sijmaa" transform="translate(845 960)"><rect x="0" y="0" width="130" height="100" rx="10" ry="10" style="stroke: black; stroke-width: 2px; fill: white; fill-opacity: 0.95;"></rect><text lineHeight="1.2" class="djs-label" style="font-family: Arial, sans-serif; font-size: 12px; font-weight: normal; fill: black;"><tspan x="17.4697265625" y="39.2">Choose Schedule </tspan><tspan x="37.4833984375" y="53.6">Method of </tspan><tspan x="27.6533203125" y="68">Disbursement</tspan></text></g><g class="djs-visual" id="Activity_144vmmt" transform="translate(845 1160)"><rect x="0" y="0" width="130" height="100" rx="10" ry="10" style="stroke: black; stroke-width: 2px; fill: white; fill-opacity: 0.95;"></rect><text lineHeight="1.2" class="djs-label" style="font-family: Arial, sans-serif; font-size: 12px; font-weight: normal; fill: black;"><tspan x="27.8115234375" y="46.4">Decide on the </tspan><tspan x="14.8095703125" y="60.8">repayment method</tspan></text></g><g class="djs-visual" id="Gateway_07bly62" transform="translate(885 1315)"><polygon points="25,0 50,25 25,50 0,25" style="stroke: black; stroke-width: 2px; fill: white; fill-opacity: 0.95;"></polygon><path d="m 16,15 7.42857142857143,9.714285714285715 -7.42857142857143,9.714285714285715 3.428571428571429,0 5.714285714285715,-7.464228571428572 5.714285714285715,7.464228571428572 3.428571428571429,0 -7.42857142857143,-9.714285714285715 7.42857142857143,-9.714285714285715 -3.428571428571429,0 -5.714285714285715,7.464228571428572 -5.714285714285715,-7.464228571428572 -3.428571428571429,0 z" style="fill: black; stroke-width: 1px; stroke: black;"></path></g><g class="djs-visual" id="Gateway_1ow9jow" transform="translate(885 1558)"><polygon points="25,0 50,25 25,50 0,25" style="stroke: black; stroke-width: 2px; fill: white; fill-opacity: 0.95;"></polygon><path d="m 16,15 7.42857142857143,9.714285714285715 -7.42857142857143,9.714285714285715 3.428571428571429,0 5.714285714285715,-7.464228571428572 5.714285714285715,7.464228571428572 3.428571428571429,0 -7.42857142857143,-9.714285714285715 7.42857142857143,-9.714285714285715 -3.428571428571429,0 -5.714285714285715,7.464228571428572 -5.714285714285715,-7.464228571428572 -3.428571428571429,0 z" style="fill: black; stroke-width: 1px; stroke: black;"></path></g><g class="djs-visual" id="Activity_0fgn2t8" transform="translate(845 1660)"><rect x="0" y="0" width="130" height="100" rx="10" ry="10" style="stroke: black; stroke-width: 2px; fill: white; fill-opacity: 0.95;"></rect><text lineHeight="1.2" class="djs-label" style="font-family: Arial, sans-serif; font-size: 12px; font-weight: normal; fill: black;"><tspan x="11.8037109375" y="46.4">Verify and authorise </tspan><tspan x="17.9736328125" y="60.8">new arrangement</tspan></text></g><g class="djs-visual" id="Activity_1xo8zwo" transform="translate(195 1880)"><rect x="0" y="0" width="130" height="100" rx="10" ry="10" style="stroke: black; stroke-width: 2px; fill: white; fill-opacity: 0.95;"></rect><text lineHeight="1.2" class="djs-label" style="font-family: Arial, sans-serif; font-size: 12px; font-weight: normal; fill: black;"><tspan x="12.474609375" y="53.599999999999994">Create Ijara finance</tspan></text></g><g class="djs-visual" id="Activity_1lv7136" transform="translate(195 2050)"><rect x="0" y="0" width="130" height="100" rx="10" ry="10" style="stroke: black; stroke-width: 2px; fill: white; fill-opacity: 0.95;"></rect><text lineHeight="1.2" class="djs-label" style="font-family: Arial, sans-serif; font-size: 12px; font-weight: normal; fill: black;"><tspan x="20.8095703125" y="53.599999999999994">Generate advice</tspan></text></g><g class="djs-visual" id="DataObjectReference_05ysbr2" transform="translate(412 2075)"><path d="m 0,0 28.23529411764706,0 7.058823529411765,8.196721311475411 0,40.98360655737705 -35.294117647058826,0 0,-49.18032786885246 28.23529411764706,0 0,8.196721311475411 7.058823529411765,0" style="fill: white; stroke-width: 2px; stroke: black; fill-opacity: 0.95;"></path></g><g class="djs-visual" id="DataObjectReference_05ysbr2_label" transform="translate(383 2132)"><text lineHeight="1.2" class="djs-label" style="font-family: Arial, sans-serif; font-size: 11px; font-weight: normal; fill: black;"><tspan x="23.123046875" y="9.899999999999999">Repayment </tspan><tspan x="5.078857421875" y="23.099999999999998">Schedule; Letter of </tspan><tspan x="0" y="36.3">Terms and conditions</tspan></text></g><g class="djs-visual" id="Activity_00jchjn" transform="translate(195 2230)"><rect x="0" y="0" width="130" height="100" rx="10" ry="10" style="stroke: black; stroke-width: 2px; fill: white; fill-opacity: 0.95;"></rect><text lineHeight="1.2" class="djs-label" style="font-family: Arial, sans-serif; font-size: 12px; font-weight: normal; fill: black;"><tspan x="20.484375" y="46.4">Deliver advice to </tspan><tspan x="38.4912109375" y="60.8">Customer</tspan></text></g><g class="djs-visual" id="DataObjectReference_0ar5l22" transform="translate(412 2255)"><path d="m 0,0 28.23529411764706,0 7.058823529411765,8.196721311475411 0,40.98360655737705 -35.294117647058826,0 0,-49.18032786885246 28.23529411764706,0 0,8.196721311475411 7.058823529411765,0" style="fill: white; stroke-width: 2px; stroke: black; fill-opacity: 0.95;"></path></g><g class="djs-visual" id="DataObjectReference_0ar5l22_label" transform="translate(383 2312)"><text lineHeight="1.2" class="djs-label" style="font-family: Arial, sans-serif; font-size: 11px; font-weight: normal; fill: black;"><tspan x="23.123046875" y="9.899999999999999">Repayment </tspan><tspan x="5.078857421875" y="23.099999999999998">Schedule; Letter of </tspan><tspan x="0" y="36.3">Terms and conditions</tspan></text></g><g class="djs-visual" id="Activity_1xz6i92" transform="translate(195 2450)"><rect x="0" y="0" width="130" height="100" rx="10" ry="10" style="stroke: black; stroke-width: 2px; fill: white; fill-opacity: 0.95;"></rect><text lineHeight="1.2" class="djs-label" style="font-family: Arial, sans-serif; font-size: 12px; font-weight: normal; fill: black;"><tspan x="18.138671875" y="46.4">Check for Vendor </tspan><tspan x="40.9892578125" y="60.8">Payment</tspan></text></g><g class="djs-visual" id="Gateway_09a0eam" transform="translate(235 2615)"><polygon points="25,0 50,25 25,50 0,25" style="stroke: black; stroke-width: 2px; fill: white; fill-opacity: 0.95;"></polygon><path d="m 16,15 7.42857142857143,9.714285714285715 -7.42857142857143,9.714285714285715 3.428571428571429,0 5.714285714285715,-7.464228571428572 5.714285714285715,7.464228571428572 3.428571428571429,0 -7.42857142857143,-9.714285714285715 7.42857142857143,-9.714285714285715 -3.428571428571429,0 -5.714285714285715,7.464228571428572 -5.714285714285715,-7.464228571428572 -3.428571428571429,0 z" style="fill: black; stroke-width: 1px; stroke: black;"></path></g><g class="djs-visual" id="Gateway_0hjsxxq" transform="translate(235 2845)"><polygon points="25,0 50,25 25,50 0,25" style="stroke: black; stroke-width: 2px; fill: white; fill-opacity: 0.95;"></polygon><path d="m 16,15 7.42857142857143,9.714285714285715 -7.42857142857143,9.714285714285715 3.428571428571429,0 5.714285714285715,-7.464228571428572 5.714285714285715,7.464228571428572 3.428571428571429,0 -7.42857142857143,-9.714285714285715 7.42857142857143,-9.714285714285715 -3.428571428571429,0 -5.714285714285715,7.464228571428572 -5.714285714285715,-7.464228571428572 -3.428571428571429,0 z" style="fill: black; stroke-width: 1px; stroke: black;"></path></g><g class="djs-visual" id="Gateway_1cner10" transform="translate(235 2955)"><polygon points="25,0 50,25 25,50 0,25" style="stroke: black; stroke-width: 2px; fill: white; fill-opacity: 0.95;"></polygon><path d="m 23,10 0,12.5 -12.5,0 0,5 12.5,0 0,12.5 5,0 0,-12.5 12.5,0 0,-5 -12.5,0 0,-12.5 -5,0 z" style="fill: black; stroke-width: 1px; stroke: black;"></path></g><g class="djs-visual" id="Event_1tvbk6c" transform="translate(652 2852)"><circle cx="18" cy="18" r="18" style="stroke: black; stroke-width: 2px; fill: white; fill-opacity: 0.95;"></circle></g><g class="djs-visual" id="Event_1tvbk6c_label" transform="translate(626 2806)"><text lineHeight="1.2" class="djs-label" style="font-family: Arial, sans-serif; font-size: 11px; font-weight: normal; fill: black;"><tspan x="0" y="9.899999999999999">Schedule date for </tspan><tspan x="10.294189453125" y="23.099999999999998">disbursement </tspan><tspan x="23.8994140625" y="36.3">reached</tspan></text></g><g class="djs-visual" id="Activity_0bzca4l" transform="translate(195 3070)"><rect x="0" y="0" width="130" height="100" rx="10" ry="10" style="stroke: black; stroke-width: 2px; fill: white; fill-opacity: 0.95;"></rect><text lineHeight="1.2" class="djs-label" style="font-family: Arial, sans-serif; font-size: 12px; font-weight: normal; fill: black;"><tspan x="12.1416015625" y="39.2">Disburse Funds per </tspan><tspan x="39.8173828125" y="53.6">Schedule </tspan><tspan x="29.984375" y="68">automatically</tspan></text></g><g class="djs-visual" id="Gateway_1o7rblf" transform="translate(235 3245)"><polygon points="25,0 50,25 25,50 0,25" style="stroke: black; stroke-width: 2px; fill: white; fill-opacity: 0.95;"></polygon><path d="m 16,15 7.42857142857143,9.714285714285715 -7.42857142857143,9.714285714285715 3.428571428571429,0 5.714285714285715,-7.464228571428572 5.714285714285715,7.464228571428572 3.428571428571429,0 -7.42857142857143,-9.714285714285715 7.42857142857143,-9.714285714285715 -3.428571428571429,0 -5.714285714285715,7.464228571428572 -5.714285714285715,-7.464228571428572 -3.428571428571429,0 z" style="fill: black; stroke-width: 1px; stroke: black;"></path></g><g class="djs-visual" id="Event_1kp4tm4" transform="translate(242 3352)"><circle cx="18" cy="18" r="18" style="stroke: black; stroke-width: 4px; fill: white; fill-opacity: 0.95;"></circle></g><g class="djs-visual" id="Event_1kp4tm4_label" transform="translate(226 3395)"><text lineHeight="1.2" class="djs-label" style="font-family: Arial, sans-serif; font-size: 11px; font-weight: normal; fill: black;"><tspan x="0" y="9.899999999999999">Disbursement </tspan><tspan x="9.018310546875" y="23.099999999999998">completed</tspan></text></g><g class="djs-visual" id="Event_10dcdd0" transform="translate(362 3352)"><circle cx="18" cy="18" r="18" style="stroke: black; stroke-width: 4px; fill: white; fill-opacity: 0.95;"></circle></g><g class="djs-visual" id="Event_10dcdd0_label" transform="translate(346 3395)"><text lineHeight="1.2" class="djs-label" style="font-family: Arial, sans-serif; font-size: 11px; font-weight: normal; fill: black;"><tspan x="0" y="9.899999999999999">Disbursement </tspan><tspan x="9.018310546875" y="23.099999999999998">completed</tspan></text></g><g class="djs-visual" id="Activity_0xxe4a7" transform="translate(1070 1410)"><rect x="0" y="0" width="130" height="100" rx="10" ry="10" style="stroke: black; stroke-width: 5px; fill: white; fill-opacity: 0.95;"></rect><text lineHeight="1.2" class="djs-label" style="font-family: Arial, sans-serif; font-size: 12px; font-weight: normal; fill: black;"><tspan x="9.31640625" y="46.4">Register Direct Debit </tspan><tspan x="12.984375" y="60.8">Mandate (IF) (PBA)</tspan></text><rect x="0" y="0" width="14" height="14" rx="0" ry="0" style="stroke: black; stroke-width: 1px; fill: white;" transform="matrix(1 0 0 1 57.5 80)"></rect><path d="m57.5,80 m 7,2 l 0,10 m -5,-5 l 10,0" data-marker="sub-process" style="fill: white; stroke-width: 2px; stroke: black;"></path></g><g class="djs-visual" id="Activity_1enkgw0" transform="translate(365 2690)"><rect x="0" y="0" width="130" height="100" rx="10" ry="10" style="stroke: black; stroke-width: 5px; fill: white; fill-opacity: 0.95;"></rect><text lineHeight="1.2" class="djs-label" style="font-family: Arial, sans-serif; font-size: 12px; font-weight: normal; fill: black;"><tspan x="22.134765625" y="46.4">Execute Vendor </tspan><tspan x="12.65625" y="60.8">Payment (IF) (PBA)</tspan></text><rect x="0" y="0" width="14" height="14" rx="0" ry="0" style="stroke: black; stroke-width: 1px; fill: white;" transform="matrix(1 0 0 1 57.5 80)"></rect><path d="m57.5,80 m 7,2 l 0,10 m -5,-5 l 10,0" data-marker="sub-process" style="fill: white; stroke-width: 2px; stroke: black;"></path></g><g class="djs-visual" id="Event_1djnd7y" transform="translate(472 3352)"><circle cx="18" cy="18" r="18" style="stroke: black; stroke-width: 4px; fill: white; fill-opacity: 0.95;"></circle></g><g class="djs-visual" id="Event_1djnd7y_label" transform="translate(456 3395)"><text lineHeight="1.2" class="djs-label" style="font-family: Arial, sans-serif; font-size: 11px; font-weight: normal; fill: black;"><tspan x="0" y="9.899999999999999">Disbursement </tspan><tspan x="9.018310546875" y="23.099999999999998">completed</tspan></text></g><g class="djs-visual" id="TextAnnotation_065qldc" transform="translate(377 230)"><rect x="0" y="0" width="160" height="40" rx="0" ry="0" style="stroke: none; stroke-width: 2px; fill: none;"></rect><path d="m 0, 0 m 10,0 l -10,0 l 0,40 l 10,0" style="fill: none; stroke-width: 2px; stroke: black;"></path><text lineHeight="1.2" class="djs-label" style="font-family: Arial, sans-serif; font-size: 12px; font-weight: normal; fill: black;"><tspan x="5" y="15.799999999999999">Choose Product line, </tspan><tspan x="5" y="30.199999999999996">Product group and Product</tspan></text></g><g class="djs-visual" id="TextAnnotation_0ajyweu" transform="translate(377 370)"><rect x="0" y="0" width="273" height="110" rx="0" ry="0" style="stroke: none; stroke-width: 2px; fill: none;"></rect><path d="m 0, 0 m 10,0 l -10,0 l 0,110 l 10,0" style="fill: none; stroke-width: 2px; stroke: black;"></path><text lineHeight="1.2" class="djs-label" style="font-family: Arial, sans-serif; font-size: 12px; font-weight: normal; fill: black;"><tspan x="5" y="15.799999999999999">Input Customer Number, Currency</tspan><tspan x="5" y="30.199999999999996">- Finance amount</tspan><tspan x="5" y="44.599999999999994">- Term</tspan><tspan x="5" y="58.99999999999999">- Repayment frequency</tspan><tspan x="5" y="73.39999999999999">- Profit rate</tspan><tspan x="5" y="87.79999999999998">- Limit ID</tspan><tspan x="5" y="102.19999999999999">- Pool ID (System generates Arrangement ID)</tspan></text></g><g class="djs-visual" id="TextAnnotation_0i6wa3r" transform="translate(377 847)"><rect x="0" y="0" width="383" height="142" rx="0" ry="0" style="stroke: none; stroke-width: 2px; fill: none;"></rect><path d="m 0, 0 m 10,0 l -10,0 l 0,142 l 10,0" style="fill: none; stroke-width: 2px; stroke: black;"></path><text lineHeight="1.2" class="djs-label" style="font-family: Arial, sans-serif; font-size: 12px; font-weight: normal; fill: black;"><tspan x="5" y="15.799999999999999">- Auto repayment instructions can be given for AA Lending.</tspan><tspan x="5" y="30.199999999999996">- Auto repayment mechanism takes care of the new arrangement</tspan><tspan x="5" y="44.599999999999994">&nbsp;fees and other scheduled fees The following details are given</tspan><tspan x="5" y="58.99999999999999">- Pay in account There are three types of auto repayment</tspan><tspan x="5" y="73.39999999999999">- Full repayment</tspan><tspan x="5" y="87.79999999999998">- Partial repayment (finance to be settled to extent of the funds</tspan><tspan x="5" y="102.19999999999999">&nbsp;available in the account)</tspan><tspan x="5" y="116.6">- None (If the balance is fully sufficient the loan would be fully</tspan><tspan x="5" y="131">&nbsp;settled from the account, else no auto repayment would take place)</tspan></text></g><g class="djs-visual" id="TextAnnotation_0shvan7" transform="translate(377 1103)"><rect x="0" y="0" width="313" height="37" rx="0" ry="0" style="stroke: none; stroke-width: 2px; fill: none;"></rect><path d="m 0, 0 m 10,0 l -10,0 l 0,37 l 10,0" style="fill: none; stroke-width: 2px; stroke: black;"></path><text lineHeight="1.2" class="djs-label" style="font-family: Arial, sans-serif; font-size: 12px; font-weight: normal; fill: black;"><tspan x="5" y="15.799999999999999">Disbursement can be done by multiple roles e.g. Teller, </tspan><tspan x="5" y="30.199999999999996">Customer Service Agent, Islamic Credit Officer</tspan></text></g><g class="djs-visual" id="TextAnnotation_0ttgfc2" transform="translate(377 1290)"><rect x="0" y="0" width="193" height="40" rx="0" ry="0" style="stroke: none; stroke-width: 2px; fill: none;"></rect><path d="m 0, 0 m 10,0 l -10,0 l 0,40 l 10,0" style="fill: none; stroke-width: 2px; stroke: black;"></path><text lineHeight="1.2" class="djs-label" style="font-family: Arial, sans-serif; font-size: 12px; font-weight: normal; fill: black;"><tspan x="5" y="15.799999999999999">Input 'Arrangement ID', verify </tspan><tspan x="5" y="30.199999999999996">particulars of AA and authorise</tspan></text></g><g class="djs-visual" id="TextAnnotation_13ssx37" transform="translate(1030 880)"><rect x="0" y="0" width="300" height="40" rx="0" ry="0" style="stroke: none; stroke-width: 2px; fill: none;"></rect><path d="m 0, 0 m 10,0 l -10,0 l 0,40 l 10,0" style="fill: none; stroke-width: 2px; stroke: black;"></path><text lineHeight="1.2" class="djs-label" style="font-family: Arial, sans-serif; font-size: 12px; font-weight: normal; fill: black;"><tspan x="5" y="15.799999999999999">Disbursement can be done by multiple roles e.g. </tspan><tspan x="5" y="30.199999999999996">Teller, Customer Service Agent, Islamic Credit Officer</tspan></text></g><g class="djs-visual" id="TextAnnotation_13p0jqw" transform="translate(1030 1610)"><rect x="0" y="0" width="190" height="40" rx="0" ry="0" style="stroke: none; stroke-width: 2px; fill: none;"></rect><path d="m 0, 0 m 10,0 l -10,0 l 0,40 l 10,0" style="fill: none; stroke-width: 2px; stroke: black;"></path><text lineHeight="1.2" class="djs-label" style="font-family: Arial, sans-serif; font-size: 12px; font-weight: normal; fill: black;"><tspan x="5" y="15.799999999999999">Input 'Arrangement ID', verify </tspan><tspan x="5" y="30.199999999999996">particulars of AA and authorise</tspan></text></g><g class="djs-visual" id="TextAnnotation_19ffkyd" transform="translate(379 1990)"><rect x="0" y="0" width="270" height="40" rx="0" ry="0" style="stroke: none; stroke-width: 2px; fill: none;"></rect><path d="m 0, 0 m 10,0 l -10,0 l 0,40 l 10,0" style="fill: none; stroke-width: 2px; stroke: black;"></path><text lineHeight="1.2" class="djs-label" style="font-family: Arial, sans-serif; font-size: 12px; font-weight: normal; fill: black;"><tspan x="5" y="15.799999999999999">Letter generated to Customer with limit details, </tspan><tspan x="5" y="30.199999999999996">interest/ penalty rates, Repayment schedule</tspan></text></g><g class="djs-visual" id="TextAnnotation_03937qs" transform="translate(377 2390)"><rect x="0" y="0" width="293" height="40" rx="0" ry="0" style="stroke: none; stroke-width: 2px; fill: none;"></rect><path d="m 0, 0 m 10,0 l -10,0 l 0,40 l 10,0" style="fill: none; stroke-width: 2px; stroke: black;"></path><text lineHeight="1.2" class="djs-label" style="font-family: Arial, sans-serif; font-size: 12px; font-weight: normal; fill: black;"><tspan x="5" y="15.799999999999999">Disbursement can be done by multiple roles e.g. </tspan><tspan x="5" y="30.199999999999996">Customer Service Agent, Islamic Credit Officer</tspan></text></g><g class="djs-visual" id="TextAnnotation_1kqgw9i" transform="translate(377 3014)"><rect x="0" y="0" width="193" height="40" rx="0" ry="0" style="stroke: none; stroke-width: 2px; fill: none;"></rect><path d="m 0, 0 m 10,0 l -10,0 l 0,40 l 10,0" style="fill: none; stroke-width: 2px; stroke: black;"></path><text lineHeight="1.2" class="djs-label" style="font-family: Arial, sans-serif; font-size: 12px; font-weight: normal; fill: black;"><tspan x="5" y="15.799999999999999">Debit: Arrangement (Finance)</tspan><tspan x="5" y="30.199999999999996">Credit: Purchase account</tspan></text></g><g class="djs-visual" id="Flow_1aixunp_label" transform="translate(268 870)"><text lineHeight="1.2" class="djs-label" style="font-family: Arial, sans-serif; font-size: 11px; font-weight: normal; fill: black;"><tspan x="2.778564453125" y="9.899999999999999">Auto repayment </tspan><tspan x="0" y="23.099999999999998">instructions to be </tspan><tspan x="23.2265625" y="36.3">created</tspan></text></g><g class="djs-visual" id="Flow_0n7h8a3_label" transform="translate(915 863)"><text lineHeight="1.2" class="djs-label" style="font-family: Arial, sans-serif; font-size: 11px; font-weight: normal; fill: black;"><tspan x="0" y="9.899999999999999">Manual repayment </tspan><tspan x="4.446044921875" y="23.099999999999998">instructions to be </tspan><tspan x="32.875732421875" y="36.3">given</tspan></text></g><g class="djs-visual" id="Flow_0xk0qsn_label" transform="translate(914 1376)"><text lineHeight="1.2" class="djs-label" style="font-family: Arial, sans-serif; font-size: 11px; font-weight: normal; fill: black;"><tspan x="0" y="9.899999999999999">Over the counter </tspan><tspan x="15.176513671875" y="23.099999999999998">repayment</tspan></text></g><g class="djs-visual" id="Flow_0umjx9d_label" transform="translate(962 1290)"><text lineHeight="1.2" class="djs-label" style="font-family: Arial, sans-serif; font-size: 11px; font-weight: normal; fill: black;"><tspan x="0" y="9.899999999999999">Repayment through </tspan><tspan x="20.936767578125" y="23.099999999999998">direct debit</tspan></text></g><g class="djs-visual" id="Flow_19h6u47_label" transform="translate(1138 1528)"><text lineHeight="1.2" class="djs-label" style="font-family: Arial, sans-serif; font-size: 11px; font-weight: normal; fill: black;"><tspan x="0" y="9.899999999999999">Direct Debit Mandate </tspan><tspan x="27.203125" y="23.099999999999998">registered</tspan></text></g><g class="djs-visual" id="DataOutputAssociation_0uvjxlh" transform="translate(0 0)"><polyline points="325,2100 412,2100 " style="fill: none; stroke: black; stroke-width: 2px; stroke-dasharray: 0.5, 5; stroke-linecap: round; stroke-linejoin: round; marker-end: url(&quot;#association-end-white-black-30z9uos32jm1b90v8mkfabtb8&quot;);"></polyline></g><g class="djs-visual" id="DataOutputAssociation_0izav8w" transform="translate(0 0)"><polyline points="325,2280 412,2280 " style="fill: none; stroke: black; stroke-width: 2px; stroke-dasharray: 0.5, 5; stroke-linecap: round; stroke-linejoin: round; marker-end: url(&quot;#association-end-white-black-30z9uos32jm1b90v8mkfabtb8&quot;);"></polyline></g><g class="djs-visual" id="Flow_0jdy1rn_label" transform="translate(269 2666)"><text lineHeight="1.2" class="djs-label" style="font-family: Arial, sans-serif; font-size: 11px; font-weight: normal; fill: black;"><tspan x="0" y="9.899999999999999">Vendor Payment </tspan><tspan x="26.870849609375" y="23.099999999999998">made</tspan></text></g><g class="djs-visual" id="Flow_1ttzmv7_label" transform="translate(299 2606)"><text lineHeight="1.2" class="djs-label" style="font-family: Arial, sans-serif; font-size: 11px; font-weight: normal; fill: black;"><tspan x="0" y="9.899999999999999">Vendor Payment </tspan><tspan x="17.698974609375" y="23.099999999999998">not made</tspan></text></g><g class="djs-visual" id="Flow_0czvui8_label" transform="translate(436 2814)"><text lineHeight="1.2" class="djs-label" style="font-family: Arial, sans-serif; font-size: 11px; font-weight: normal; fill: black;"><tspan x="8.839599609375" y="9.899999999999999">Ijara Finance </tspan><tspan x="0" y="23.099999999999998">Vendor Payment</tspan></text></g><g class="djs-visual" id="Association_036968h" transform="translate(0 0)"><polyline points="324,296 377,260 " style="fill: none; stroke: black; stroke-width: 2px; stroke-dasharray: 0.5, 5; stroke-linecap: round; stroke-linejoin: round;"></polyline></g><g class="djs-visual" id="Association_18jw8wb" transform="translate(0 0)"><polyline points="325,480 377,448 " style="fill: none; stroke: black; stroke-width: 2px; stroke-dasharray: 0.5, 5; stroke-linecap: round; stroke-linejoin: round;"></polyline></g><g class="djs-visual" id="Association_1xl0sc0" transform="translate(0 0)"><polyline points="325,972 377,941 " style="fill: none; stroke: black; stroke-width: 2px; stroke-dasharray: 0.5, 5; stroke-linecap: round; stroke-linejoin: round;"></polyline></g><g class="djs-visual" id="Association_07iqaj9" transform="translate(0 0)"><polyline points="322,1164 377,1124 " style="fill: none; stroke: black; stroke-width: 2px; stroke-dasharray: 0.5, 5; stroke-linecap: round; stroke-linejoin: round;"></polyline></g><g class="djs-visual" id="Association_1a5lv95" transform="translate(0 0)"><polyline points="324,1348 377,1312 " style="fill: none; stroke: black; stroke-width: 2px; stroke-dasharray: 0.5, 5; stroke-linecap: round; stroke-linejoin: round;"></polyline></g><g class="djs-visual" id="Association_0e70r76" transform="translate(0 0)"><polyline points="969,961 1030,909 " style="fill: none; stroke: black; stroke-width: 2px; stroke-dasharray: 0.5, 5; stroke-linecap: round; stroke-linejoin: round;"></polyline></g><g class="djs-visual" id="Association_1fi72yd" transform="translate(0 0)"><polyline points="974,1667 1030,1630 " style="fill: none; stroke: black; stroke-width: 2px; stroke-dasharray: 0.5, 5; stroke-linecap: round; stroke-linejoin: round;"></polyline></g><g class="djs-visual" id="Association_0czde7d" transform="translate(0 0)"><polyline points="322,2053 379,2010 " style="fill: none; stroke: black; stroke-width: 2px; stroke-dasharray: 0.5, 5; stroke-linecap: round; stroke-linejoin: round;"></polyline></g><g class="djs-visual" id="Association_1gzkeu1" transform="translate(0 0)"><polyline points="324,2456 377,2419 " style="fill: none; stroke: black; stroke-width: 2px; stroke-dasharray: 0.5, 5; stroke-linecap: round; stroke-linejoin: round;"></polyline></g><g class="djs-visual" id="Association_1bvhvc0" transform="translate(0 0)"><polyline points="323,3074 377,3035 " style="fill: none; stroke: black; stroke-width: 2px; stroke-dasharray: 0.5, 5; stroke-linecap: round; stroke-linejoin: round;"></polyline></g></g><g><rect class="viewport" x="-3574.535" y="130.07999999999998" width="8675" height="3300"></rect></g></svg>