<svg width="100%" height="100%" viewBox="-50, 10, 1835, 2835"><g><g class="djs-visual" id="Flow_1o9oca6" transform="translate(0 0)"><path d="m  220,2630L220,2702 " style="fill: none; stroke-width: 2px; stroke: black; stroke-linejoin: round; marker-end: url(&quot;#sequenceflow-end-white-black-ew28vd8z8gxbqqq395fvv595l&quot;);"></path></g><g class="djs-visual" id="Flow_1lc7z0w" transform="translate(0 0)"><path d="m  220,2470L220,2530 " style="fill: none; stroke-width: 2px; stroke: black; stroke-linejoin: round; marker-end: url(&quot;#sequenceflow-end-white-black-ew28vd8z8gxbqqq395fvv595l&quot;);"></path></g><g class="djs-visual" id="Flow_1c48mtw" transform="translate(0 0)"><path d="m  220,2310L220,2370 " style="fill: none; stroke-width: 2px; stroke: black; stroke-linejoin: round; marker-end: url(&quot;#sequenceflow-end-white-black-ew28vd8z8gxbqqq395fvv595l&quot;);"></path></g><g class="djs-visual" id="Flow_01p3q87" transform="translate(0 0)"><path d="m  220,2150L220,2210 " style="fill: none; stroke-width: 2px; stroke: black; stroke-linejoin: round; marker-end: url(&quot;#sequenceflow-end-white-black-ew28vd8z8gxbqqq395fvv595l&quot;);"></path></g><g class="djs-visual" id="Flow_0nd23b5" transform="translate(0 0)"><path d="m  220,1980L220,2050 " style="fill: none; stroke-width: 2px; stroke: black; stroke-linejoin: round; marker-end: url(&quot;#sequenceflow-end-white-black-ew28vd8z8gxbqqq395fvv595l&quot;);"></path></g><g class="djs-visual" id="Flow_0fyafj6" transform="translate(0 0)"><path d="m  220,1765L220,1880 " style="fill: none; stroke-width: 2px; stroke: black; stroke-linejoin: round; marker-end: url(&quot;#sequenceflow-end-white-black-ew28vd8z8gxbqqq395fvv595l&quot;);"></path></g><g class="djs-visual" id="Flow_1dggxm7" transform="translate(0 0)"><path d="m  485,1610L630,1610 L630,1652 " style="fill: none; stroke-width: 2px; stroke: black; stroke-linejoin: round; marker-end: url(&quot;#sequenceflow-end-white-black-ew28vd8z8gxbqqq395fvv595l&quot;);"></path></g><g class="djs-visual" id="Flow_16xs7iu" transform="translate(0 0)"><path d="m  460,1635L460,1740 L245,1740 " style="fill: none; stroke-width: 2px; stroke: black; stroke-linejoin: round; marker-end: url(&quot;#sequenceflow-end-white-black-ew28vd8z8gxbqqq395fvv595l&quot;);"></path></g><g class="djs-visual" id="Flow_003vn2t" transform="translate(0 0)"><path d="m  460,1530L460,1585 " style="fill: none; stroke-width: 2px; stroke: black; stroke-linejoin: round; marker-end: url(&quot;#sequenceflow-end-white-black-ew28vd8z8gxbqqq395fvv595l&quot;);"></path></g><g class="djs-visual" id="Flow_05axkvn" transform="translate(0 0)"><path d="m  460,1370L460,1430 " style="fill: none; stroke-width: 2px; stroke: black; stroke-linejoin: round; marker-end: url(&quot;#sequenceflow-end-white-black-ew28vd8z8gxbqqq395fvv595l&quot;);"></path></g><g class="djs-visual" id="Flow_0c5y8hi" transform="translate(0 0)"><path d="m  460,1210L460,1270 " style="fill: none; stroke-width: 2px; stroke: black; stroke-linejoin: round; marker-end: url(&quot;#sequenceflow-end-white-black-ew28vd8z8gxbqqq395fvv595l&quot;);"></path></g><g class="djs-visual" id="Flow_1fr7d35" transform="translate(0 0)"><path d="m  245,1010L460,1010 L460,1110 " style="fill: none; stroke-width: 2px; stroke: black; stroke-linejoin: round; marker-end: url(&quot;#sequenceflow-end-white-black-ew28vd8z8gxbqqq395fvv595l&quot;);"></path></g><g class="djs-visual" id="Flow_094pyq2" transform="translate(0 0)"><path d="m  220,1035L220,1715 " style="fill: none; stroke-width: 2px; stroke: black; stroke-linejoin: round; marker-end: url(&quot;#sequenceflow-end-white-black-ew28vd8z8gxbqqq395fvv595l&quot;);"></path></g><g class="djs-visual" id="Flow_1f9f92e" transform="translate(0 0)"><path d="m  220,920L220,985 " style="fill: none; stroke-width: 2px; stroke: black; stroke-linejoin: round; marker-end: url(&quot;#sequenceflow-end-white-black-ew28vd8z8gxbqqq395fvv595l&quot;);"></path></g><g class="djs-visual" id="Flow_0bq5vdb" transform="translate(0 0)"><path d="m  520,750L520,822 " style="fill: none; stroke-width: 2px; stroke: black; stroke-linejoin: round; marker-end: url(&quot;#sequenceflow-end-white-black-ew28vd8z8gxbqqq395fvv595l&quot;);"></path></g><g class="djs-visual" id="Flow_0fv37n2" transform="translate(0 0)"><path d="m  220,750L220,820 " style="fill: none; stroke-width: 2px; stroke: black; stroke-linejoin: round; marker-end: url(&quot;#sequenceflow-end-white-black-ew28vd8z8gxbqqq395fvv595l&quot;);"></path></g><g class="djs-visual" id="Flow_1bqhz69" transform="translate(0 0)"><path d="m  245,550L520,550 L520,650 " style="fill: none; stroke-width: 2px; stroke: black; stroke-linejoin: round; marker-end: url(&quot;#sequenceflow-end-white-black-ew28vd8z8gxbqqq395fvv595l&quot;);"></path></g><g class="djs-visual" id="Flow_18rrmg2" transform="translate(0 0)"><path d="m  220,575L220,650 " style="fill: none; stroke-width: 2px; stroke: black; stroke-linejoin: round; marker-end: url(&quot;#sequenceflow-end-white-black-ew28vd8z8gxbqqq395fvv595l&quot;);"></path></g><g class="djs-visual" id="Flow_1jhgjmv" transform="translate(0 0)"><path d="m  220,470L220,525 " style="fill: none; stroke-width: 2px; stroke: black; stroke-linejoin: round; marker-end: url(&quot;#sequenceflow-end-white-black-ew28vd8z8gxbqqq395fvv595l&quot;);"></path></g><g class="djs-visual" id="Flow_0n8up60" transform="translate(0 0)"><path d="m  220,300L220,370 " style="fill: none; stroke-width: 2px; stroke: black; stroke-linejoin: round; marker-end: url(&quot;#sequenceflow-end-white-black-ew28vd8z8gxbqqq395fvv595l&quot;);"></path></g><g class="djs-visual" id="Flow_035mr42" transform="translate(0 0)"><path d="m  220,138L220,200 " style="fill: none; stroke-width: 2px; stroke: black; stroke-linejoin: round; marker-end: url(&quot;#sequenceflow-end-white-black-ew28vd8z8gxbqqq395fvv595l&quot;);"></path></g><g class="djs-visual" id="StartEvent_1bm324f" transform="translate(202 102)"><circle cx="18" cy="18" r="18" style="stroke: black; stroke-width: 2px; fill: white; fill-opacity: 0.95;"></circle></g><g class="djs-visual" id="StartEvent_1bm324f_label" transform="translate(175 66)"><text lineHeight="1.2" class="djs-label" style="font-family: Arial, sans-serif; font-size: 11px; font-weight: normal; fill: black;"><tspan x="0" y="9.899999999999999">Mudaraba deposit </tspan><tspan x="8.30615234375" y="23.099999999999998">to be amended</tspan></text></g><g class="djs-visual" id="Activity_0am9fs2" transform="translate(155 200)"><rect x="0" y="0" width="130" height="100" rx="10" ry="10" style="stroke: black; stroke-width: 2px; fill: white; fill-opacity: 0.95;"></rect><text lineHeight="1.2" class="djs-label" style="font-family: Arial, sans-serif; font-size: 12px; font-weight: normal; fill: black;"><tspan x="15.1474609375" y="39.2">Receive Customer </tspan><tspan x="18.140625" y="53.6">request to amend </tspan><tspan x="16.634765625" y="68">Mudaraba deposit</tspan></text></g><g class="djs-visual" id="DataObjectReference_07xw5su" transform="translate(82 225)"><path d="m 0,0 28.23529411764706,0 7.058823529411765,8.196721311475411 0,40.98360655737705 -35.294117647058826,0 0,-49.18032786885246 28.23529411764706,0 0,8.196721311475411 7.058823529411765,0" style="fill: white; stroke-width: 2px; stroke: black; fill-opacity: 0.95;"></path></g><g class="djs-visual" id="DataObjectReference_07xw5su_label" transform="translate(71 282)"><text lineHeight="1.2" class="djs-label" style="font-family: Arial, sans-serif; font-size: 11px; font-weight: normal; fill: black;"><tspan x="0" y="9.899999999999999">Amendment </tspan><tspan x="8.66845703125" y="23.099999999999998">Request</tspan></text></g><g class="djs-visual" id="Activity_0iz9xyz" transform="translate(155 370)"><rect x="0" y="0" width="130" height="100" rx="10" ry="10" style="stroke: black; stroke-width: 2px; fill: white; fill-opacity: 0.95;"></rect><text lineHeight="1.2" class="djs-label" style="font-family: Arial, sans-serif; font-size: 12px; font-weight: normal; fill: black;"><tspan x="31.9794921875" y="46.4">Authenticate </tspan><tspan x="38.4912109375" y="60.8">Customer</tspan></text></g><g class="djs-visual" id="Gateway_166kpzn" transform="translate(195 525)"><polygon points="25,0 50,25 25,50 0,25" style="stroke: black; stroke-width: 2px; fill: white; fill-opacity: 0.95;"></polygon><path d="m 16,15 7.42857142857143,9.714285714285715 -7.42857142857143,9.714285714285715 3.428571428571429,0 5.714285714285715,-7.464228571428572 5.714285714285715,7.464228571428572 3.428571428571429,0 -7.42857142857143,-9.714285714285715 7.42857142857143,-9.714285714285715 -3.428571428571429,0 -5.714285714285715,7.464228571428572 -5.714285714285715,-7.464228571428572 -3.428571428571429,0 z" style="fill: black; stroke-width: 1px; stroke: black;"></path></g><g class="djs-visual" id="Activity_1h83i2h" transform="translate(155 650)"><rect x="0" y="0" width="130" height="100" rx="10" ry="10" style="stroke: black; stroke-width: 2px; fill: white; fill-opacity: 0.95;"></rect><text lineHeight="1.2" class="djs-label" style="font-family: Arial, sans-serif; font-size: 12px; font-weight: normal; fill: black;"><tspan x="19.4765625" y="46.4">Select Mudaraba </tspan><tspan x="45.3193359375" y="60.8">deposit</tspan></text></g><g class="djs-visual" id="Activity_03a0wny" transform="translate(455 650)"><rect x="0" y="0" width="130" height="100" rx="10" ry="10" style="stroke: black; stroke-width: 2px; fill: white; fill-opacity: 0.95;"></rect><text lineHeight="1.2" class="djs-label" style="font-family: Arial, sans-serif; font-size: 12px; font-weight: normal; fill: black;"><tspan x="19.8203125" y="39.2">Inform Customer </tspan><tspan x="13.466796875" y="53.6">about unsuccessful </tspan><tspan x="27.474609375" y="68">authentication</tspan></text></g><g class="djs-visual" id="Activity_0mmkdgg" transform="translate(155 820)"><rect x="0" y="0" width="130" height="100" rx="10" ry="10" style="stroke: black; stroke-width: 2px; fill: white; fill-opacity: 0.95;"></rect><text lineHeight="1.2" class="djs-label" style="font-family: Arial, sans-serif; font-size: 12px; font-weight: normal; fill: black;"><tspan x="12.814453125" y="46.4">Decide if simulation </tspan><tspan x="42.8232421875" y="60.8">required</tspan></text></g><g class="djs-visual" id="Event_0b1bo1e" transform="translate(502 822)"><circle cx="18" cy="18" r="18" style="stroke: black; stroke-width: 4px; fill: white; fill-opacity: 0.95;"></circle></g><g class="djs-visual" id="Event_0b1bo1e_label" transform="translate(473 868)"><text lineHeight="1.2" class="djs-label" style="font-family: Arial, sans-serif; font-size: 11px; font-weight: normal; fill: black;"><tspan x="0" y="9.899999999999999">Customer informed </tspan><tspan x="18.328125" y="23.099999999999998">about failed </tspan><tspan x="12.5234375" y="36.3">authentication</tspan></text></g><g class="djs-visual" id="Gateway_0ixwa4v" transform="translate(195 985)"><polygon points="25,0 50,25 25,50 0,25" style="stroke: black; stroke-width: 2px; fill: white; fill-opacity: 0.95;"></polygon><path d="m 16,15 7.42857142857143,9.714285714285715 -7.42857142857143,9.714285714285715 3.428571428571429,0 5.714285714285715,-7.464228571428572 5.714285714285715,7.464228571428572 3.428571428571429,0 -7.42857142857143,-9.714285714285715 7.42857142857143,-9.714285714285715 -3.428571428571429,0 -5.714285714285715,7.464228571428572 -5.714285714285715,-7.464228571428572 -3.428571428571429,0 z" style="fill: black; stroke-width: 1px; stroke: black;"></path></g><g class="djs-visual" id="Gateway_12opl2h" transform="translate(195 1715)"><polygon points="25,0 50,25 25,50 0,25" style="stroke: black; stroke-width: 2px; fill: white; fill-opacity: 0.95;"></polygon><path d="m 16,15 7.42857142857143,9.714285714285715 -7.42857142857143,9.714285714285715 3.428571428571429,0 5.714285714285715,-7.464228571428572 5.714285714285715,7.464228571428572 3.428571428571429,0 -7.42857142857143,-9.714285714285715 7.42857142857143,-9.714285714285715 -3.428571428571429,0 -5.714285714285715,7.464228571428572 -5.714285714285715,-7.464228571428572 -3.428571428571429,0 z" style="fill: black; stroke-width: 1px; stroke: black;"></path></g><g class="djs-visual" id="Activity_0894913" transform="translate(395 1110)"><rect x="0" y="0" width="130" height="100" rx="10" ry="10" style="stroke: black; stroke-width: 2px; fill: white; fill-opacity: 0.95;"></rect><text lineHeight="1.2" class="djs-label" style="font-family: Arial, sans-serif; font-size: 12px; font-weight: normal; fill: black;"><tspan x="15.47265625" y="46.4">Capture details for </tspan><tspan x="37.8251953125" y="60.8">simulation</tspan></text></g><g class="djs-visual" id="Activity_1le6ewc" transform="translate(395 1270)"><rect x="0" y="0" width="130" height="100" rx="10" ry="10" style="stroke: black; stroke-width: 2px; fill: white; fill-opacity: 0.95;"></rect><text lineHeight="1.2" class="djs-label" style="font-family: Arial, sans-serif; font-size: 12px; font-weight: normal; fill: black;"><tspan x="14.8212890625" y="53.599999999999994">Perform simulation</tspan></text></g><g class="djs-visual" id="Activity_0bmjapn" transform="translate(395 1430)"><rect x="0" y="0" width="130" height="100" rx="10" ry="10" style="stroke: black; stroke-width: 2px; fill: white; fill-opacity: 0.95;"></rect><text lineHeight="1.2" class="djs-label" style="font-family: Arial, sans-serif; font-size: 12px; font-weight: normal; fill: black;"><tspan x="15.4775390625" y="46.4">Enquire simulation </tspan><tspan x="49.9951171875" y="60.8">result</tspan></text></g><g class="djs-visual" id="Gateway_1rrsa4l" transform="translate(435 1585)"><polygon points="25,0 50,25 25,50 0,25" style="stroke: black; stroke-width: 2px; fill: white; fill-opacity: 0.95;"></polygon><path d="m 16,15 7.42857142857143,9.714285714285715 -7.42857142857143,9.714285714285715 3.428571428571429,0 5.714285714285715,-7.464228571428572 5.714285714285715,7.464228571428572 3.428571428571429,0 -7.42857142857143,-9.714285714285715 7.42857142857143,-9.714285714285715 -3.428571428571429,0 -5.714285714285715,7.464228571428572 -5.714285714285715,-7.464228571428572 -3.428571428571429,0 z" style="fill: black; stroke-width: 1px; stroke: black;"></path></g><g class="djs-visual" id="Event_0v5z1fa" transform="translate(612 1652)"><circle cx="18" cy="18" r="18" style="stroke: black; stroke-width: 4px; fill: white; fill-opacity: 0.95;"></circle></g><g class="djs-visual" id="Event_0v5z1fa_label" transform="translate(581 1700)"><text lineHeight="1.2" class="djs-label" style="font-family: Arial, sans-serif; font-size: 11px; font-weight: normal; fill: black;"><tspan x="0" y="9.899999999999999">Amendment request </tspan><tspan x="17.576904296875" y="23.099999999999998">to be aborted</tspan></text></g><g class="djs-visual" id="Activity_1nfoeof" transform="translate(155 1880)"><rect x="0" y="0" width="130" height="100" rx="10" ry="10" style="stroke: black; stroke-width: 2px; fill: white; fill-opacity: 0.95;"></rect><text lineHeight="1.2" class="djs-label" style="font-family: Arial, sans-serif; font-size: 12px; font-weight: normal; fill: black;"><tspan x="17.6416015625" y="46.4">Amend Mudaraba </tspan><tspan x="45.3193359375" y="60.8">deposit</tspan></text></g><g class="djs-visual" id="Activity_0g0j7lc" transform="translate(155 2050)"><rect x="0" y="0" width="130" height="100" rx="10" ry="10" style="stroke: black; stroke-width: 2px; fill: white; fill-opacity: 0.95;"></rect><text lineHeight="1.2" class="djs-label" style="font-family: Arial, sans-serif; font-size: 12px; font-weight: normal; fill: black;"><tspan x="19.3115234375" y="39.2">Authorise/ Delete </tspan><tspan x="16.634765625" y="53.6">Mudaraba deposit </tspan><tspan x="30.3125" y="68">amendments</tspan></text></g><g class="djs-visual" id="Activity_1h4ht1e" transform="translate(155 2210)"><rect x="0" y="0" width="130" height="100" rx="10" ry="10" style="stroke: black; stroke-width: 2px; fill: white; fill-opacity: 0.95;"></rect><text lineHeight="1.2" class="djs-label" style="font-family: Arial, sans-serif; font-size: 12px; font-weight: normal; fill: black;"><tspan x="16.8046875" y="46.4">Update Mudaraba </tspan><tspan x="45.3193359375" y="60.8">deposit</tspan></text></g><g class="djs-visual" id="Activity_0cphgq9" transform="translate(155 2370)"><rect x="0" y="0" width="130" height="100" rx="10" ry="10" style="stroke: black; stroke-width: 2px; fill: white; fill-opacity: 0.95;"></rect><text lineHeight="1.2" class="djs-label" style="font-family: Arial, sans-serif; font-size: 12px; font-weight: normal; fill: black;"><tspan x="20.8095703125" y="53.599999999999994">Generate advice</tspan></text></g><g class="djs-visual" id="DataObjectReference_1eqg9yo" transform="translate(322 2395)"><path d="m 0,0 28.23529411764706,0 7.058823529411765,8.196721311475411 0,40.98360655737705 -35.294117647058826,0 0,-49.18032786885246 28.23529411764706,0 0,8.196721311475411 7.058823529411765,0" style="fill: white; stroke-width: 2px; stroke: black; fill-opacity: 0.95;"></path></g><g class="djs-visual" id="DataObjectReference_1eqg9yo_label" transform="translate(298 2452)"><text lineHeight="1.2" class="djs-label" style="font-family: Arial, sans-serif; font-size: 11px; font-weight: normal; fill: black;"><tspan x="0" y="9.899999999999999">Customer Advice</tspan></text></g><g class="djs-visual" id="Activity_1x7e3sx" transform="translate(155 2530)"><rect x="0" y="0" width="130" height="100" rx="10" ry="10" style="stroke: black; stroke-width: 2px; fill: white; fill-opacity: 0.95;"></rect><text lineHeight="1.2" class="djs-label" style="font-family: Arial, sans-serif; font-size: 12px; font-weight: normal; fill: black;"><tspan x="20.484375" y="46.4">Deliver advice to </tspan><tspan x="39.82421875" y="60.8">customer</tspan></text></g><g class="djs-visual" id="DataObjectReference_0i0kyqc" transform="translate(322 2555)"><path d="m 0,0 28.23529411764706,0 7.058823529411765,8.196721311475411 0,40.98360655737705 -35.294117647058826,0 0,-49.18032786885246 28.23529411764706,0 0,8.196721311475411 7.058823529411765,0" style="fill: white; stroke-width: 2px; stroke: black; fill-opacity: 0.95;"></path></g><g class="djs-visual" id="DataObjectReference_0i0kyqc_label" transform="translate(298 2612)"><text lineHeight="1.2" class="djs-label" style="font-family: Arial, sans-serif; font-size: 11px; font-weight: normal; fill: black;"><tspan x="0" y="9.899999999999999">Customer Advice</tspan></text></g><g class="djs-visual" id="Event_0r313rv" transform="translate(202 2702)"><circle cx="18" cy="18" r="18" style="stroke: black; stroke-width: 4px; fill: white; fill-opacity: 0.95;"></circle></g><g class="djs-visual" id="Event_0r313rv_label" transform="translate(175 2749)"><text lineHeight="1.2" class="djs-label" style="font-family: Arial, sans-serif; font-size: 11px; font-weight: normal; fill: black;"><tspan x="0" y="9.899999999999999">Mudaraba deposit </tspan><tspan x="14.9853515625" y="23.099999999999998">amendment </tspan><tspan x="19.11865234375" y="36.3">completed</tspan></text></g><g class="djs-visual" id="TextAnnotation_0t3r3s2" transform="translate(320 370)"><rect x="0" y="0" width="160" height="30" rx="0" ry="0" style="stroke: none; stroke-width: 2px; fill: none;"></rect><path d="m 0, 0 m 10,0 l -10,0 l 0,30 l 10,0" style="fill: none; stroke-width: 2px; stroke: black;"></path><text lineHeight="1.2" class="djs-label" style="font-family: Arial, sans-serif; font-size: 12px; font-weight: normal; fill: black;"><tspan x="5" y="15.799999999999999">Mandates/ Signatories</tspan></text></g><g class="djs-visual" id="TextAnnotation_1rud4gq" transform="translate(560 1080)"><rect x="0" y="0" width="210" height="84" rx="0" ry="0" style="stroke: none; stroke-width: 2px; fill: none;"></rect><path d="m 0, 0 m 10,0 l -10,0 l 0,84 l 10,0" style="fill: none; stroke-width: 2px; stroke: black;"></path><text lineHeight="1.2" class="djs-label" style="font-family: Arial, sans-serif; font-size: 12px; font-weight: normal; fill: black;"><tspan x="5" y="15.799999999999999">Details captured</tspan><tspan x="5" y="30.199999999999996">- Term of the deposit</tspan><tspan x="5" y="44.599999999999994">- Profit Rate&nbsp; &nbsp;</tspan><tspan x="5" y="58.99999999999999">- Profit payment schedule frequency</tspan><tspan x="5" y="73.39999999999999">- Special HIBA Profit Rate</tspan></text></g><g class="djs-visual" id="TextAnnotation_1mx4omv" transform="translate(320 1830)"><rect x="0" y="0" width="255" height="142" rx="0" ry="0" style="stroke: none; stroke-width: 2px; fill: none;"></rect><path d="m 0, 0 m 10,0 l -10,0 l 0,142 l 10,0" style="fill: none; stroke-width: 2px; stroke: black;"></path><text lineHeight="1.2" class="djs-label" style="font-family: Arial, sans-serif; font-size: 12px; font-weight: normal; fill: black;"><tspan x="5" y="15.799999999999999">Amendment can be done for</tspan><tspan x="5" y="30.199999999999996">- Term of the deposit</tspan><tspan x="5" y="44.599999999999994">- Profit Rate</tspan><tspan x="5" y="58.99999999999999">- Special HIBA Profit Rate</tspan><tspan x="5" y="73.39999999999999">- Profit payment schedule frequency</tspan><tspan x="5" y="87.79999999999998">- Settlement instructions (Manual/ auto)</tspan><tspan x="5" y="102.19999999999999">- Mark Arrangement Dormant</tspan><tspan x="5" y="116.6">- Branch and Line of Business</tspan><tspan x="5" y="131">- Pool ID</tspan></text></g><g class="djs-visual" id="DataInputAssociation_0o7iam4" transform="translate(0 0)"><polyline points="118,250 155,250 " style="fill: none; stroke: black; stroke-width: 2px; stroke-dasharray: 0.5, 5; stroke-linecap: round; stroke-linejoin: round; marker-end: url(&quot;#association-end-white-black-ew28vd8z8gxbqqq395fvv595l&quot;);"></polyline></g><g class="djs-visual" id="Flow_18rrmg2_label" transform="translate(230 593)"><text lineHeight="1.2" class="djs-label" style="font-family: Arial, sans-serif; font-size: 11px; font-weight: normal; fill: black;"><tspan x="8.523193359375" y="9.899999999999999">Customer </tspan><tspan x="0" y="23.099999999999998">authenticated</tspan></text></g><g class="djs-visual" id="Flow_1bqhz69_label" transform="translate(266 516)"><text lineHeight="1.2" class="djs-label" style="font-family: Arial, sans-serif; font-size: 11px; font-weight: normal; fill: black;"><tspan x="0" y="9.899999999999999">Customer not </tspan><tspan x="0.4541015625" y="23.099999999999998">authenticated</tspan></text></g><g class="djs-visual" id="Flow_094pyq2_label" transform="translate(229 1060)"><text lineHeight="1.2" class="djs-label" style="font-family: Arial, sans-serif; font-size: 11px; font-weight: normal; fill: black;"><tspan x="0" y="9.899999999999999">Simulation not </tspan><tspan x="15.145263671875" y="23.099999999999998">required</tspan></text></g><g class="djs-visual" id="Flow_1fr7d35_label" transform="translate(260 976)"><text lineHeight="1.2" class="djs-label" style="font-family: Arial, sans-serif; font-size: 11px; font-weight: normal; fill: black;"><tspan x="0" y="9.899999999999999">Simulation to be </tspan><tspan x="12.988037109375" y="23.099999999999998">carried out</tspan></text></g><g class="djs-visual" id="Flow_16xs7iu_label" transform="translate(470 1646)"><text lineHeight="1.2" class="djs-label" style="font-family: Arial, sans-serif; font-size: 11px; font-weight: normal; fill: black;"><tspan x="0" y="9.899999999999999">Amendment request </tspan><tspan x="19.115966796875" y="23.099999999999998">to be fulfilled</tspan></text></g><g class="djs-visual" id="DataOutputAssociation_0t7vj9o" transform="translate(0 0)"><polyline points="285,2420 322,2420 " style="fill: none; stroke: black; stroke-width: 2px; stroke-dasharray: 0.5, 5; stroke-linecap: round; stroke-linejoin: round; marker-end: url(&quot;#association-end-white-black-ew28vd8z8gxbqqq395fvv595l&quot;);"></polyline></g><g class="djs-visual" id="DataOutputAssociation_1r9eyfz" transform="translate(0 0)"><polyline points="285,2580 322,2580 " style="fill: none; stroke: black; stroke-width: 2px; stroke-dasharray: 0.5, 5; stroke-linecap: round; stroke-linejoin: round; marker-end: url(&quot;#association-end-white-black-ew28vd8z8gxbqqq395fvv595l&quot;);"></polyline></g><g class="djs-visual" id="Association_092o4xj" transform="translate(0 0)"><polyline points="285,388 320,371 " style="fill: none; stroke: black; stroke-width: 2px; stroke-dasharray: 0.5, 5; stroke-linecap: round; stroke-linejoin: round;"></polyline></g><g class="djs-visual" id="Association_1er9d7b" transform="translate(0 0)"><polyline points="524,1117 560,1093 " style="fill: none; stroke: black; stroke-width: 2px; stroke-dasharray: 0.5, 5; stroke-linecap: round; stroke-linejoin: round;"></polyline></g><g class="djs-visual" id="Association_0c0grqy" transform="translate(0 0)"><polyline points="285,1892 320,1871 " style="fill: none; stroke: black; stroke-width: 2px; stroke-dasharray: 0.5, 5; stroke-linecap: round; stroke-linejoin: round;"></polyline></g></g><g><rect class="viewport" x="-3178.535269709544" y="60.078838174273855" width="7199.1701244813285" height="2738.589211618257"></rect></g></svg>