<svg width="100%" height="100%" viewBox="-50, -190, 1835, 4541"><g><g class="djs-visual" id="Flow_079ao77" transform="translate(0 0)"><path d="m  285,2440L520,2440 L520,2522 " style="fill: none; stroke-width: 2px; stroke: black; stroke-linejoin: round; marker-end: url(&quot;#sequenceflow-end-white-black-0cyen6i9ogxaws5cisnij0ncl&quot;);"></path></g><g class="djs-visual" id="Flow_0db8qux" transform="translate(0 0)"><path d="m  260,2465L260,2530 " style="fill: none; stroke-width: 2px; stroke: black; stroke-linejoin: round; marker-end: url(&quot;#sequenceflow-end-white-black-0cyen6i9ogxaws5cisnij0ncl&quot;);"></path></g><g class="djs-visual" id="Flow_1ilvu9m" transform="translate(0 0)"><path d="m  285,2170L520,2170 L520,2282 " style="fill: none; stroke-width: 2px; stroke: black; stroke-linejoin: round; marker-end: url(&quot;#sequenceflow-end-white-black-0cyen6i9ogxaws5cisnij0ncl&quot;);"></path></g><g class="djs-visual" id="Flow_1rxmaxs" transform="translate(0 0)"><path d="m  260,2370L260,2415 " style="fill: none; stroke-width: 2px; stroke: black; stroke-linejoin: round; marker-end: url(&quot;#sequenceflow-end-white-black-0cyen6i9ogxaws5cisnij0ncl&quot;);"></path></g><g class="djs-visual" id="Flow_0lzrni9" transform="translate(0 0)"><path d="m  260,2195L260,2270 " style="fill: none; stroke-width: 2px; stroke: black; stroke-linejoin: round; marker-end: url(&quot;#sequenceflow-end-white-black-0cyen6i9ogxaws5cisnij0ncl&quot;);"></path></g><g class="djs-visual" id="Flow_1abcxd6" transform="translate(0 0)"><path d="m  285,1910L520,1910 L520,2012 " style="fill: none; stroke-width: 2px; stroke: black; stroke-linejoin: round; marker-end: url(&quot;#sequenceflow-end-white-black-0cyen6i9ogxaws5cisnij0ncl&quot;);"></path></g><g class="djs-visual" id="Flow_0dy6fpb" transform="translate(0 0)"><path d="m  260,2100L260,2145 " style="fill: none; stroke-width: 2px; stroke: black; stroke-linejoin: round; marker-end: url(&quot;#sequenceflow-end-white-black-0cyen6i9ogxaws5cisnij0ncl&quot;);"></path></g><g class="djs-visual" id="Flow_03p1afn" transform="translate(0 0)"><path d="m  260,1935L260,2000 " style="fill: none; stroke-width: 2px; stroke: black; stroke-linejoin: round; marker-end: url(&quot;#sequenceflow-end-white-black-0cyen6i9ogxaws5cisnij0ncl&quot;);"></path></g><g class="djs-visual" id="Flow_08uzswk" transform="translate(0 0)"><path d="m  260,1850L260,1885 " style="fill: none; stroke-width: 2px; stroke: black; stroke-linejoin: round; marker-end: url(&quot;#sequenceflow-end-white-black-0cyen6i9ogxaws5cisnij0ncl&quot;);"></path></g><g class="djs-visual" id="Flow_0p8i6s0" transform="translate(0 0)"><path d="m  260,4160L260,4212 " style="fill: none; stroke-width: 2px; stroke: black; stroke-linejoin: round; marker-end: url(&quot;#sequenceflow-end-white-black-0cyen6i9ogxaws5cisnij0ncl&quot;);"></path></g><g class="djs-visual" id="Flow_1rx8wz3" transform="translate(0 0)"><path d="m  260,3970L260,4060 " style="fill: none; stroke-width: 2px; stroke: black; stroke-linejoin: round; marker-end: url(&quot;#sequenceflow-end-white-black-0cyen6i9ogxaws5cisnij0ncl&quot;);"></path></g><g class="djs-visual" id="Flow_1npq972" transform="translate(0 0)"><path d="m  260,3770L260,3870 " style="fill: none; stroke-width: 2px; stroke: black; stroke-linejoin: round; marker-end: url(&quot;#sequenceflow-end-white-black-0cyen6i9ogxaws5cisnij0ncl&quot;);"></path></g><g class="djs-visual" id="Flow_08vy63a" transform="translate(0 0)"><path d="m  260,3580L260,3670 " style="fill: none; stroke-width: 2px; stroke: black; stroke-linejoin: round; marker-end: url(&quot;#sequenceflow-end-white-black-0cyen6i9ogxaws5cisnij0ncl&quot;);"></path></g><g class="djs-visual" id="Flow_0df3lyr" transform="translate(0 0)"><path d="m  260,3375L260,3480 " style="fill: none; stroke-width: 2px; stroke: black; stroke-linejoin: round; marker-end: url(&quot;#sequenceflow-end-white-black-0cyen6i9ogxaws5cisnij0ncl&quot;);"></path></g><g class="djs-visual" id="Flow_0rpzzt3" transform="translate(0 0)"><path d="m  530,3295L530,3350 L285,3350 " style="fill: none; stroke-width: 2px; stroke: black; stroke-linejoin: round; marker-end: url(&quot;#sequenceflow-end-white-black-0cyen6i9ogxaws5cisnij0ncl&quot;);"></path></g><g class="djs-visual" id="Flow_1j90wj6" transform="translate(0 0)"><path d="m  260,2880L260,3325 " style="fill: none; stroke-width: 2px; stroke: black; stroke-linejoin: round; marker-end: url(&quot;#sequenceflow-end-white-black-0cyen6i9ogxaws5cisnij0ncl&quot;);"></path></g><g class="djs-visual" id="Flow_0b9gxyh" transform="translate(0 0)"><path d="m  810,3295L810,3352 " style="fill: none; stroke-width: 2px; stroke: black; stroke-linejoin: round; marker-end: url(&quot;#sequenceflow-end-white-black-0cyen6i9ogxaws5cisnij0ncl&quot;);"></path></g><g class="djs-visual" id="Flow_0f9q9cb" transform="translate(0 0)"><path d="m  810,3140L810,3195 " style="fill: none; stroke-width: 2px; stroke: black; stroke-linejoin: round; marker-end: url(&quot;#sequenceflow-end-white-black-0cyen6i9ogxaws5cisnij0ncl&quot;);"></path></g><g class="djs-visual" id="Flow_0hhkebx" transform="translate(0 0)"><path d="m  555,2970L810,2970 L810,3040 " style="fill: none; stroke-width: 2px; stroke: black; stroke-linejoin: round; marker-end: url(&quot;#sequenceflow-end-white-black-0cyen6i9ogxaws5cisnij0ncl&quot;);"></path></g><g class="djs-visual" id="Flow_0vio03y" transform="translate(0 0)"><path d="m  530,3140L530,3195 " style="fill: none; stroke-width: 2px; stroke: black; stroke-linejoin: round; marker-end: url(&quot;#sequenceflow-end-white-black-0cyen6i9ogxaws5cisnij0ncl&quot;);"></path></g><g class="djs-visual" id="Flow_15073as" transform="translate(0 0)"><path d="m  530,2995L530,3040 " style="fill: none; stroke-width: 2px; stroke: black; stroke-linejoin: round; marker-end: url(&quot;#sequenceflow-end-white-black-0cyen6i9ogxaws5cisnij0ncl&quot;);"></path></g><g class="djs-visual" id="Flow_1y9v69e" transform="translate(0 0)"><path d="m  530,2880L530,2945 " style="fill: none; stroke-width: 2px; stroke: black; stroke-linejoin: round; marker-end: url(&quot;#sequenceflow-end-white-black-0cyen6i9ogxaws5cisnij0ncl&quot;);"></path></g><g class="djs-visual" id="Flow_1rnvc7y" transform="translate(0 0)"><path d="m  285,2710L530,2710 L530,2780 " style="fill: none; stroke-width: 2px; stroke: black; stroke-linejoin: round; marker-end: url(&quot;#sequenceflow-end-white-black-0cyen6i9ogxaws5cisnij0ncl&quot;);"></path></g><g class="djs-visual" id="Flow_1rj6obn" transform="translate(0 0)"><path d="m  260,2735L260,2780 " style="fill: none; stroke-width: 2px; stroke: black; stroke-linejoin: round; marker-end: url(&quot;#sequenceflow-end-white-black-0cyen6i9ogxaws5cisnij0ncl&quot;);"></path></g><g class="djs-visual" id="Flow_0vxrvdo" transform="translate(0 0)"><path d="m  260,2630L260,2685 " style="fill: none; stroke-width: 2px; stroke: black; stroke-linejoin: round; marker-end: url(&quot;#sequenceflow-end-white-black-0cyen6i9ogxaws5cisnij0ncl&quot;);"></path></g><g class="djs-visual" id="Flow_1otd9dg" transform="translate(0 0)"><path d="m  260,1660L260,1750 " style="fill: none; stroke-width: 2px; stroke: black; stroke-linejoin: round; marker-end: url(&quot;#sequenceflow-end-white-black-0cyen6i9ogxaws5cisnij0ncl&quot;);"></path></g><g class="djs-visual" id="Flow_0f4s441" transform="translate(0 0)"><path d="m  520,1660L520,1702 " style="fill: none; stroke-width: 2px; stroke: black; stroke-linejoin: round; marker-end: url(&quot;#sequenceflow-end-white-black-0cyen6i9ogxaws5cisnij0ncl&quot;);"></path></g><g class="djs-visual" id="Flow_121xiev" transform="translate(0 0)"><path d="m  285,1470L520,1470 L520,1560 " style="fill: none; stroke-width: 2px; stroke: black; stroke-linejoin: round; marker-end: url(&quot;#sequenceflow-end-white-black-0cyen6i9ogxaws5cisnij0ncl&quot;);"></path></g><g class="djs-visual" id="Flow_1hc3v9z" transform="translate(0 0)"><path d="m  260,1495L260,1560 " style="fill: none; stroke-width: 2px; stroke: black; stroke-linejoin: round; marker-end: url(&quot;#sequenceflow-end-white-black-0cyen6i9ogxaws5cisnij0ncl&quot;);"></path></g><g class="djs-visual" id="Flow_1iwe62x" transform="translate(0 0)"><path d="m  260,1370L260,1445 " style="fill: none; stroke-width: 2px; stroke: black; stroke-linejoin: round; marker-end: url(&quot;#sequenceflow-end-white-black-0cyen6i9ogxaws5cisnij0ncl&quot;);"></path></g><g class="djs-visual" id="Flow_0pc3ww0" transform="translate(0 0)"><path d="m  260,1195L260,1270 " style="fill: none; stroke-width: 2px; stroke: black; stroke-linejoin: round; marker-end: url(&quot;#sequenceflow-end-white-black-0cyen6i9ogxaws5cisnij0ncl&quot;);"></path></g><g class="djs-visual" id="Flow_14qgi78" transform="translate(0 0)"><path d="m  530,1110L530,1170 L285,1170 " style="fill: none; stroke-width: 2px; stroke: black; stroke-linejoin: round; marker-end: url(&quot;#sequenceflow-end-white-black-0cyen6i9ogxaws5cisnij0ncl&quot;);"></path></g><g class="djs-visual" id="Flow_0qvr074" transform="translate(0 0)"><path d="m  260,927L260,1145 " style="fill: none; stroke-width: 2px; stroke: black; stroke-linejoin: round; marker-end: url(&quot;#sequenceflow-end-white-black-0cyen6i9ogxaws5cisnij0ncl&quot;);"></path></g><g class="djs-visual" id="Flow_09jarpe" transform="translate(0 0)"><path d="m  530,927L530,1010 " style="fill: none; stroke-width: 2px; stroke: black; stroke-linejoin: round; marker-end: url(&quot;#sequenceflow-end-white-black-0cyen6i9ogxaws5cisnij0ncl&quot;);"></path></g><g class="djs-visual" id="Flow_019n6wx" transform="translate(0 0)"><path d="m  285,670L530,670 L530,827 " style="fill: none; stroke-width: 2px; stroke: black; stroke-linejoin: round; marker-end: url(&quot;#sequenceflow-end-white-black-0cyen6i9ogxaws5cisnij0ncl&quot;);"></path></g><g class="djs-visual" id="Flow_1m81vyi" transform="translate(0 0)"><path d="m  260,695L260,827 " style="fill: none; stroke-width: 2px; stroke: black; stroke-linejoin: round; marker-end: url(&quot;#sequenceflow-end-white-black-0cyen6i9ogxaws5cisnij0ncl&quot;);"></path></g><g class="djs-visual" id="Flow_0u1szmr" transform="translate(0 0)"><path d="m  260,540L260,645 " style="fill: none; stroke-width: 2px; stroke: black; stroke-linejoin: round; marker-end: url(&quot;#sequenceflow-end-white-black-0cyen6i9ogxaws5cisnij0ncl&quot;);"></path></g><g class="djs-visual" id="Flow_03l08lp" transform="translate(0 0)"><path d="m  700,540L700,572 " style="fill: none; stroke-width: 2px; stroke: black; stroke-linejoin: round; marker-end: url(&quot;#sequenceflow-end-white-black-0cyen6i9ogxaws5cisnij0ncl&quot;);"></path></g><g class="djs-visual" id="Flow_07vrsuv" transform="translate(0 0)"><path d="m  285,360L700,360 L700,440 " style="fill: none; stroke-width: 2px; stroke: black; stroke-linejoin: round; marker-end: url(&quot;#sequenceflow-end-white-black-0cyen6i9ogxaws5cisnij0ncl&quot;);"></path></g><g class="djs-visual" id="Flow_1iyiand" transform="translate(0 0)"><path d="m  260,385L260,440 " style="fill: none; stroke-width: 2px; stroke: black; stroke-linejoin: round; marker-end: url(&quot;#sequenceflow-end-white-black-0cyen6i9ogxaws5cisnij0ncl&quot;);"></path></g><g class="djs-visual" id="Flow_1lire6d" transform="translate(0 0)"><path d="m  260,280L260,335 " style="fill: none; stroke-width: 2px; stroke: black; stroke-linejoin: round; marker-end: url(&quot;#sequenceflow-end-white-black-0cyen6i9ogxaws5cisnij0ncl&quot;);"></path></g><g class="djs-visual" id="Flow_02j96nd" transform="translate(0 0)"><path d="m  260,110L260,180 " style="fill: none; stroke-width: 2px; stroke: black; stroke-linejoin: round; marker-end: url(&quot;#sequenceflow-end-white-black-0cyen6i9ogxaws5cisnij0ncl&quot;);"></path></g><g class="djs-visual" id="Flow_0wmdi61" transform="translate(0 0)"><path d="m  260,-62L260,10 " style="fill: none; stroke-width: 2px; stroke: black; stroke-linejoin: round; marker-end: url(&quot;#sequenceflow-end-white-black-0cyen6i9ogxaws5cisnij0ncl&quot;);"></path></g><g class="djs-visual" id="StartEvent_1bm324f" transform="translate(242 -98)"><circle cx="18" cy="18" r="18" style="stroke: black; stroke-width: 2px; fill: white; fill-opacity: 0.95;"></circle></g><g class="djs-visual" id="StartEvent_1bm324f_label" transform="translate(214 -134)"><text lineHeight="1.2" class="djs-label" style="font-family: Arial, sans-serif; font-size: 11px; font-weight: normal; fill: black;"><tspan x="0" y="9.899999999999999">Customer wants to </tspan><tspan x="11.5" y="23.099999999999998">withdraw cash</tspan></text></g><g class="djs-visual" id="Activity_15yp84u" transform="translate(195 10)"><rect x="0" y="0" width="130" height="100" rx="10" ry="10" style="stroke: black; stroke-width: 2px; fill: white; fill-opacity: 0.95;"></rect><text lineHeight="1.2" class="djs-label" style="font-family: Arial, sans-serif; font-size: 12px; font-weight: normal; fill: black;"><tspan x="11.3046875" y="46.4">Receive instructions </tspan><tspan x="25.32421875" y="60.8">from Customer</tspan></text></g><g class="djs-visual" id="DataObjectReference_12uiwnk" transform="translate(72 35)"><path d="m 0,0 28.23529411764706,0 7.058823529411765,8.196721311475411 0,40.98360655737705 -35.294117647058826,0 0,-49.18032786885246 28.23529411764706,0 0,8.196721311475411 7.058823529411765,0" style="fill: white; stroke-width: 2px; stroke: black; fill-opacity: 0.95;"></path></g><g class="djs-visual" id="DataObjectReference_12uiwnk_label" transform="translate(48 92)"><text lineHeight="1.2" class="djs-label" style="font-family: Arial, sans-serif; font-size: 11px; font-weight: normal; fill: black;"><tspan x="0" y="9.899999999999999">Cash Withdrawal </tspan><tspan x="29.01171875" y="23.099999999999998">Form</tspan></text></g><g class="djs-visual" id="Activity_16t4ppq" transform="translate(195 180)"><rect x="0" y="0" width="130" height="100" rx="10" ry="10" style="stroke: black; stroke-width: 2px; fill: white; fill-opacity: 0.95;"></rect><text lineHeight="1.2" class="djs-label" style="font-family: Arial, sans-serif; font-size: 12px; font-weight: normal; fill: black;"><tspan x="31.9794921875" y="46.4">Authenticate </tspan><tspan x="38.4912109375" y="60.8">Customer</tspan></text></g><g class="djs-visual" id="Gateway_1a432a8" transform="translate(235 335)"><polygon points="25,0 50,25 25,50 0,25" style="stroke: black; stroke-width: 2px; fill: white; fill-opacity: 0.95;"></polygon><path d="m 16,15 7.42857142857143,9.714285714285715 -7.42857142857143,9.714285714285715 3.428571428571429,0 5.714285714285715,-7.464228571428572 5.714285714285715,7.464228571428572 3.428571428571429,0 -7.42857142857143,-9.714285714285715 7.42857142857143,-9.714285714285715 -3.428571428571429,0 -5.714285714285715,7.464228571428572 -5.714285714285715,-7.464228571428572 -3.428571428571429,0 z" style="fill: black; stroke-width: 1px; stroke: black;"></path></g><g class="djs-visual" id="Activity_1ar0d54" transform="translate(195 440)"><rect x="0" y="0" width="130" height="100" rx="10" ry="10" style="stroke: black; stroke-width: 2px; fill: white; fill-opacity: 0.95;"></rect><text lineHeight="1.2" class="djs-label" style="font-family: Arial, sans-serif; font-size: 12px; font-weight: normal; fill: black;"><tspan x="23.4853515625" y="46.4">Confirm type of </tspan><tspan x="35.9873046875" y="60.8">transaction</tspan></text></g><g class="djs-visual" id="Activity_0fxbgaz" transform="translate(635 440)"><rect x="0" y="0" width="130" height="100" rx="10" ry="10" style="stroke: black; stroke-width: 2px; fill: white; fill-opacity: 0.95;"></rect><text lineHeight="1.2" class="djs-label" style="font-family: Arial, sans-serif; font-size: 12px; font-weight: normal; fill: black;"><tspan x="19.8203125" y="39.2">Inform Customer </tspan><tspan x="13.466796875" y="53.6">about unsuccessful </tspan><tspan x="27.474609375" y="68">authentication</tspan></text></g><g class="djs-visual" id="Event_05lczgw" transform="translate(682 572)"><circle cx="18" cy="18" r="18" style="stroke: black; stroke-width: 4px; fill: white; fill-opacity: 0.95;"></circle></g><g class="djs-visual" id="Event_05lczgw_label" transform="translate(654 615)"><text lineHeight="1.2" class="djs-label" style="font-family: Arial, sans-serif; font-size: 11px; font-weight: normal; fill: black;"><tspan x="0" y="9.899999999999999">Customer informed </tspan><tspan x="18.328125" y="23.099999999999998">about failed </tspan><tspan x="12.5234375" y="36.3">authentication</tspan></text></g><g class="djs-visual" id="Gateway_0kiia2j" transform="translate(235 645)"><polygon points="25,0 50,25 25,50 0,25" style="stroke: black; stroke-width: 2px; fill: white; fill-opacity: 0.95;"></polygon><path d="m 16,15 7.42857142857143,9.714285714285715 -7.42857142857143,9.714285714285715 3.428571428571429,0 5.714285714285715,-7.464228571428572 5.714285714285715,7.464228571428572 3.428571428571429,0 -7.42857142857143,-9.714285714285715 7.42857142857143,-9.714285714285715 -3.428571428571429,0 -5.714285714285715,7.464228571428572 -5.714285714285715,-7.464228571428572 -3.428571428571429,0 z" style="fill: black; stroke-width: 1px; stroke: black;"></path></g><g class="djs-visual" id="Activity_09uh4si" transform="translate(195 827)"><rect x="0" y="0" width="130" height="100" rx="10" ry="10" style="stroke: black; stroke-width: 2px; fill: white; fill-opacity: 0.95;"></rect><text lineHeight="1.2" class="djs-label" style="font-family: Arial, sans-serif; font-size: 12px; font-weight: normal; fill: black;"><tspan x="23.9208984375" y="39.2">Input LCY cash </tspan><tspan x="14.984375" y="53.6">withdrawal from an </tspan><tspan x="30.421875" y="68">LCY account</tspan></text></g><g class="djs-visual" id="Activity_0pnm9fj" transform="translate(465 827)"><rect x="0" y="0" width="130" height="100" rx="10" ry="10" style="stroke: black; stroke-width: 2px; fill: white; fill-opacity: 0.95;"></rect><text lineHeight="1.2" class="djs-label" style="font-family: Arial, sans-serif; font-size: 12px; font-weight: normal; fill: black;"><tspan x="23.9208984375" y="39.2">Input LCY cash </tspan><tspan x="14.984375" y="53.6">withdrawal from an </tspan><tspan x="30.09375" y="68">FCY account</tspan></text></g><g class="djs-visual" id="Activity_1k5r1v6" transform="translate(465 1010)"><rect x="0" y="0" width="130" height="100" rx="10" ry="10" style="stroke: black; stroke-width: 2px; fill: white; fill-opacity: 0.95;"></rect><text lineHeight="1.2" class="djs-label" style="font-family: Arial, sans-serif; font-size: 12px; font-weight: normal; fill: black;"><tspan x="7.6337890625" y="53.599999999999994">Assign exchange rate</tspan></text></g><g class="djs-visual" id="Gateway_11z7t7h" transform="translate(235 1145)"><polygon points="25,0 50,25 25,50 0,25" style="stroke: black; stroke-width: 2px; fill: white; fill-opacity: 0.95;"></polygon><path d="m 16,15 7.42857142857143,9.714285714285715 -7.42857142857143,9.714285714285715 3.428571428571429,0 5.714285714285715,-7.464228571428572 5.714285714285715,7.464228571428572 3.428571428571429,0 -7.42857142857143,-9.714285714285715 7.42857142857143,-9.714285714285715 -3.428571428571429,0 -5.714285714285715,7.464228571428572 -5.714285714285715,-7.464228571428572 -3.428571428571429,0 z" style="fill: black; stroke-width: 1px; stroke: black;"></path></g><g class="djs-visual" id="Activity_1dqdy2l" transform="translate(195 1270)"><rect x="0" y="0" width="130" height="100" rx="10" ry="10" style="stroke: black; stroke-width: 2px; fill: white; fill-opacity: 0.95;"></rect><text lineHeight="1.2" class="djs-label" style="font-family: Arial, sans-serif; font-size: 12px; font-weight: normal; fill: black;"><tspan x="20.748046875" y="46.4">Validate account </tspan><tspan x="44.154296875" y="60.8">number</tspan></text></g><g class="djs-visual" id="Gateway_18r7c9k" transform="translate(235 1445)"><polygon points="25,0 50,25 25,50 0,25" style="stroke: black; stroke-width: 2px; fill: white; fill-opacity: 0.95;"></polygon><path d="m 16,15 7.42857142857143,9.714285714285715 -7.42857142857143,9.714285714285715 3.428571428571429,0 5.714285714285715,-7.464228571428572 5.714285714285715,7.464228571428572 3.428571428571429,0 -7.42857142857143,-9.714285714285715 7.42857142857143,-9.714285714285715 -3.428571428571429,0 -5.714285714285715,7.464228571428572 -5.714285714285715,-7.464228571428572 -3.428571428571429,0 z" style="fill: black; stroke-width: 1px; stroke: black;"></path></g><g class="djs-visual" id="Activity_198w9tz" transform="translate(195 1560)"><rect x="0" y="0" width="130" height="100" rx="10" ry="10" style="stroke: black; stroke-width: 2px; fill: white; fill-opacity: 0.95;"></rect><text lineHeight="1.2" class="djs-label" style="font-family: Arial, sans-serif; font-size: 12px; font-weight: normal; fill: black;"><tspan x="17.1513671875" y="46.4">Display Customer </tspan><tspan x="49.828125" y="60.8">name</tspan></text></g><g class="djs-visual" id="Activity_0lyv6lh" transform="translate(455 1560)"><rect x="0" y="0" width="130" height="100" rx="10" ry="10" style="stroke: black; stroke-width: 2px; fill: white; fill-opacity: 0.95;"></rect><text lineHeight="1.2" class="djs-label" style="font-family: Arial, sans-serif; font-size: 12px; font-weight: normal; fill: black;"><tspan x="19.8203125" y="53.599999999999994">Inform Customer</tspan></text></g><g class="djs-visual" id="Event_0id1shf" transform="translate(502 1702)"><circle cx="18" cy="18" r="18" style="stroke: black; stroke-width: 4px; fill: white; fill-opacity: 0.95;"></circle></g><g class="djs-visual" id="Event_0id1shf_label" transform="translate(472 1745)"><text lineHeight="1.2" class="djs-label" style="font-family: Arial, sans-serif; font-size: 11px; font-weight: normal; fill: black;"><tspan x="0" y="9.899999999999999">Transaction rejected</tspan></text></g><g class="djs-visual" id="Activity_1q918yc" transform="translate(195 2530)"><rect x="0" y="0" width="130" height="100" rx="10" ry="10" style="stroke: black; stroke-width: 2px; fill: white; fill-opacity: 0.95;"></rect><text lineHeight="1.2" class="djs-label" style="font-family: Arial, sans-serif; font-size: 12px; font-weight: normal; fill: black;"><tspan x="9.3203125" y="53.599999999999994">Verify teller / till limits</tspan></text></g><g class="djs-visual" id="Gateway_0lfmze9" transform="translate(235 2685)"><polygon points="25,0 50,25 25,50 0,25" style="stroke: black; stroke-width: 2px; fill: white; fill-opacity: 0.95;"></polygon><path d="m 16,15 7.42857142857143,9.714285714285715 -7.42857142857143,9.714285714285715 3.428571428571429,0 5.714285714285715,-7.464228571428572 5.714285714285715,7.464228571428572 3.428571428571429,0 -7.42857142857143,-9.714285714285715 7.42857142857143,-9.714285714285715 -3.428571428571429,0 -5.714285714285715,7.464228571428572 -5.714285714285715,-7.464228571428572 -3.428571428571429,0 z" style="fill: black; stroke-width: 1px; stroke: black;"></path></g><g class="djs-visual" id="Activity_0l71q37" transform="translate(195 2780)"><rect x="0" y="0" width="130" height="100" rx="10" ry="10" style="stroke: black; stroke-width: 2px; fill: white; fill-opacity: 0.95;"></rect><text lineHeight="1.2" class="djs-label" style="font-family: Arial, sans-serif; font-size: 12px; font-weight: normal; fill: black;"><tspan x="12.4775390625" y="46.4">Move transaction to </tspan><tspan x="12.12890625" y="60.8">authorisation queue</tspan></text></g><g class="djs-visual" id="Activity_1hwur2p" transform="translate(465 2780)"><rect x="0" y="0" width="130" height="100" rx="10" ry="10" style="stroke: black; stroke-width: 2px; fill: white; fill-opacity: 0.95;"></rect><text lineHeight="1.2" class="djs-label" style="font-family: Arial, sans-serif; font-size: 12px; font-weight: normal; fill: black;"><tspan x="16.4765625" y="53.599999999999994">Generate override</tspan></text></g><g class="djs-visual" id="Gateway_1wr3qej" transform="translate(505 2945)"><polygon points="25,0 50,25 25,50 0,25" style="stroke: black; stroke-width: 2px; fill: white; fill-opacity: 0.95;"></polygon><path d="m 16,15 7.42857142857143,9.714285714285715 -7.42857142857143,9.714285714285715 3.428571428571429,0 5.714285714285715,-7.464228571428572 5.714285714285715,7.464228571428572 3.428571428571429,0 -7.42857142857143,-9.714285714285715 7.42857142857143,-9.714285714285715 -3.428571428571429,0 -5.714285714285715,7.464228571428572 -5.714285714285715,-7.464228571428572 -3.428571428571429,0 z" style="fill: black; stroke-width: 1px; stroke: black;"></path></g><g class="djs-visual" id="Activity_0ag64ak" transform="translate(465 3040)"><rect x="0" y="0" width="130" height="100" rx="10" ry="10" style="stroke: black; stroke-width: 2px; fill: white; fill-opacity: 0.95;"></rect><text lineHeight="1.2" class="djs-label" style="font-family: Arial, sans-serif; font-size: 12px; font-weight: normal; fill: black;"><tspan x="23.650390625" y="53.599999999999994">Accept override</tspan></text></g><g class="djs-visual" id="Activity_01ajs44" transform="translate(465 3195)"><rect x="0" y="0" width="130" height="100" rx="10" ry="10" style="stroke: black; stroke-width: 2px; fill: white; fill-opacity: 0.95;"></rect><text lineHeight="1.2" class="djs-label" style="font-family: Arial, sans-serif; font-size: 12px; font-weight: normal; fill: black;"><tspan x="12.4775390625" y="46.4">Move transaction to </tspan><tspan x="12.12890625" y="60.8">authorisation queue</tspan></text></g><g class="djs-visual" id="Activity_07p2u69" transform="translate(745 3040)"><rect x="0" y="0" width="130" height="100" rx="10" ry="10" style="stroke: black; stroke-width: 2px; fill: white; fill-opacity: 0.95;"></rect><text lineHeight="1.2" class="djs-label" style="font-family: Arial, sans-serif; font-size: 12px; font-weight: normal; fill: black;"><tspan x="23.15625" y="53.599999999999994">Reject Override</tspan></text></g><g class="djs-visual" id="Activity_0hxy4dk" transform="translate(745 3195)"><rect x="0" y="0" width="130" height="100" rx="10" ry="10" style="stroke: black; stroke-width: 2px; fill: white; fill-opacity: 0.95;"></rect><text lineHeight="1.2" class="djs-label" style="font-family: Arial, sans-serif; font-size: 12px; font-weight: normal; fill: black;"><tspan x="13.4765625" y="53.599999999999994">Cancel Transaction</tspan></text></g><g class="djs-visual" id="Event_17527tg" transform="translate(792 3352)"><circle cx="18" cy="18" r="18" style="stroke: black; stroke-width: 4px; fill: white; fill-opacity: 0.95;"></circle></g><g class="djs-visual" id="Event_17527tg_label" transform="translate(763 3395)"><text lineHeight="1.2" class="djs-label" style="font-family: Arial, sans-serif; font-size: 11px; font-weight: normal; fill: black;"><tspan x="0" y="9.899999999999999">Transaction aborted</tspan></text></g><g class="djs-visual" id="Gateway_04bkssb" transform="translate(235 3325)"><polygon points="25,0 50,25 25,50 0,25" style="stroke: black; stroke-width: 2px; fill: white; fill-opacity: 0.95;"></polygon><path d="m 16,15 7.42857142857143,9.714285714285715 -7.42857142857143,9.714285714285715 3.428571428571429,0 5.714285714285715,-7.464228571428572 5.714285714285715,7.464228571428572 3.428571428571429,0 -7.42857142857143,-9.714285714285715 7.42857142857143,-9.714285714285715 -3.428571428571429,0 -5.714285714285715,7.464228571428572 -5.714285714285715,-7.464228571428572 -3.428571428571429,0 z" style="fill: black; stroke-width: 1px; stroke: black;"></path></g><g class="djs-visual" id="Activity_0xi3hrk" transform="translate(195 3480)"><rect x="0" y="0" width="130" height="100" rx="10" ry="10" style="stroke: black; stroke-width: 2px; fill: white; fill-opacity: 0.95;"></rect><text lineHeight="1.2" class="djs-label" style="font-family: Arial, sans-serif; font-size: 12px; font-weight: normal; fill: black;"><tspan x="11.8037109375" y="46.4">Verify and authorise </tspan><tspan x="22.1474609375" y="60.8">cash withdrawal</tspan></text></g><g class="djs-visual" id="Activity_0xewj4n" transform="translate(195 3670)"><rect x="0" y="0" width="130" height="100" rx="10" ry="10" style="stroke: black; stroke-width: 2px; fill: white; fill-opacity: 0.95;"></rect><text lineHeight="1.2" class="djs-label" style="font-family: Arial, sans-serif; font-size: 12px; font-weight: normal; fill: black;"><tspan x="8.8037109375" y="46.4">Generate transaction </tspan><tspan x="43.984375" y="60.8">receipts</tspan></text></g><g class="djs-visual" id="DataObjectReference_0gggtyg" transform="translate(432 3695)"><path d="m 0,0 28.23529411764706,0 7.058823529411765,8.196721311475411 0,40.98360655737705 -35.294117647058826,0 0,-49.18032786885246 28.23529411764706,0 0,8.196721311475411 7.058823529411765,0" style="fill: white; stroke-width: 2px; stroke: black; fill-opacity: 0.95;"></path></g><g class="djs-visual" id="DataObjectReference_0gggtyg_label" transform="translate(401 3752)"><text lineHeight="1.2" class="djs-label" style="font-family: Arial, sans-serif; font-size: 11px; font-weight: normal; fill: black;"><tspan x="0" y="9.899999999999999">Transaction Receipt</tspan></text></g><g class="djs-visual" id="Activity_0um28lj" transform="translate(195 3870)"><rect x="0" y="0" width="130" height="100" rx="10" ry="10" style="stroke: black; stroke-width: 2px; fill: white; fill-opacity: 0.95;"></rect><text lineHeight="1.2" class="djs-label" style="font-family: Arial, sans-serif; font-size: 12px; font-weight: normal; fill: black;"><tspan x="15.1494140625" y="46.4">Deliver transaction </tspan><tspan x="12.14453125" y="60.8">receipt to Customer</tspan></text></g><g class="djs-visual" id="Activity_1r2g40o" transform="translate(195 4060)"><rect x="0" y="0" width="130" height="100" rx="10" ry="10" style="stroke: black; stroke-width: 2px; fill: white; fill-opacity: 0.95;"></rect><text lineHeight="1.2" class="djs-label" style="font-family: Arial, sans-serif; font-size: 12px; font-weight: normal; fill: black;"><tspan x="7.4677734375" y="46.4">Prepare and disburse</tspan><tspan x="52.1630859375" y="60.8">cash</tspan></text></g><g class="djs-visual" id="DataObjectReference_06eo1bt" transform="translate(432 3895)"><path d="m 0,0 28.23529411764706,0 7.058823529411765,8.196721311475411 0,40.98360655737705 -35.294117647058826,0 0,-49.18032786885246 28.23529411764706,0 0,8.196721311475411 7.058823529411765,0" style="fill: white; stroke-width: 2px; stroke: black; fill-opacity: 0.95;"></path></g><g class="djs-visual" id="DataObjectReference_06eo1bt_label" transform="translate(401 3952)"><text lineHeight="1.2" class="djs-label" style="font-family: Arial, sans-serif; font-size: 11px; font-weight: normal; fill: black;"><tspan x="0" y="9.899999999999999">Transaction Receipt</tspan></text></g><g class="djs-visual" id="Event_0a60w73" transform="translate(242 4212)"><circle cx="18" cy="18" r="18" style="stroke: black; stroke-width: 4px; fill: white; fill-opacity: 0.95;"></circle></g><g class="djs-visual" id="Event_0a60w73_label" transform="translate(220 4255)"><text lineHeight="1.2" class="djs-label" style="font-family: Arial, sans-serif; font-size: 11px; font-weight: normal; fill: black;"><tspan x="0" y="9.899999999999999">Cash withdrawal </tspan><tspan x="14.22216796875" y="23.099999999999998">transaction </tspan><tspan x="15.24560546875" y="36.3">completed</tspan></text></g><g class="djs-visual" id="Activity_0htcq9k" transform="translate(195 1750)"><rect x="0" y="0" width="130" height="100" rx="10" ry="10" style="stroke: black; stroke-width: 2px; fill: white; fill-opacity: 0.95;"></rect><text lineHeight="1.2" class="djs-label" style="font-family: Arial, sans-serif; font-size: 12px; font-weight: normal; fill: black;"><tspan x="9.6328125" y="53.599999999999994">Verify account status</tspan></text></g><g class="djs-visual" id="Gateway_0dixwp8" transform="translate(235 1885)"><polygon points="25,0 50,25 25,50 0,25" style="stroke: black; stroke-width: 2px; fill: white; fill-opacity: 0.95;"></polygon><path d="m 16,15 7.42857142857143,9.714285714285715 -7.42857142857143,9.714285714285715 3.428571428571429,0 5.714285714285715,-7.464228571428572 5.714285714285715,7.464228571428572 3.428571428571429,0 -7.42857142857143,-9.714285714285715 7.42857142857143,-9.714285714285715 -3.428571428571429,0 -5.714285714285715,7.464228571428572 -5.714285714285715,-7.464228571428572 -3.428571428571429,0 z" style="fill: black; stroke-width: 1px; stroke: black;"></path></g><g class="djs-visual" id="Activity_0tepp0y" transform="translate(195 2000)"><rect x="0" y="0" width="130" height="100" rx="10" ry="10" style="stroke: black; stroke-width: 2px; fill: white; fill-opacity: 0.95;"></rect><text lineHeight="1.2" class="djs-label" style="font-family: Arial, sans-serif; font-size: 12px; font-weight: normal; fill: black;"><tspan x="19.8134765625" y="53.599999999999994">Verify till balance</tspan></text></g><g class="djs-visual" id="Event_1948te0" transform="translate(502 2012)"><circle cx="18" cy="18" r="18" style="stroke: black; stroke-width: 4px; fill: white; fill-opacity: 0.95;"></circle></g><g class="djs-visual" id="Event_1948te0_label" transform="translate(471 2055)"><text lineHeight="1.2" class="djs-label" style="font-family: Arial, sans-serif; font-size: 11px; font-weight: normal; fill: black;"><tspan x="0.861083984375" y="9.899999999999999">Account status does </tspan><tspan x="0" y="23.099999999999998">not allow transaction</tspan></text></g><g class="djs-visual" id="Gateway_1uxlhgj" transform="translate(235 2145)"><polygon points="25,0 50,25 25,50 0,25" style="stroke: black; stroke-width: 2px; fill: white; fill-opacity: 0.95;"></polygon><path d="m 16,15 7.42857142857143,9.714285714285715 -7.42857142857143,9.714285714285715 3.428571428571429,0 5.714285714285715,-7.464228571428572 5.714285714285715,7.464228571428572 3.428571428571429,0 -7.42857142857143,-9.714285714285715 7.42857142857143,-9.714285714285715 -3.428571428571429,0 -5.714285714285715,7.464228571428572 -5.714285714285715,-7.464228571428572 -3.428571428571429,0 z" style="fill: black; stroke-width: 1px; stroke: black;"></path></g><g class="djs-visual" id="Activity_07n4vuh" transform="translate(195 2270)"><rect x="0" y="0" width="130" height="100" rx="10" ry="10" style="stroke: black; stroke-width: 2px; fill: white; fill-opacity: 0.95;"></rect><text lineHeight="1.2" class="djs-label" style="font-family: Arial, sans-serif; font-size: 12px; font-weight: normal; fill: black;"><tspan x="26.9794921875" y="46.4">Verify account </tspan><tspan x="43.8193359375" y="60.8">balance</tspan></text></g><g class="djs-visual" id="Event_1p9u655" transform="translate(502 2282)"><circle cx="18" cy="18" r="18" style="stroke: black; stroke-width: 4px; fill: white; fill-opacity: 0.95;"></circle></g><g class="djs-visual" id="Event_1p9u655_label" transform="translate(483 2325)"><text lineHeight="1.2" class="djs-label" style="font-family: Arial, sans-serif; font-size: 11px; font-weight: normal; fill: black;"><tspan x="0" y="9.899999999999999">Till balance not </tspan><tspan x="14.68408203125" y="23.099999999999998">sufficient</tspan></text></g><g class="djs-visual" id="Gateway_1k61no4" transform="translate(235 2415)"><polygon points="25,0 50,25 25,50 0,25" style="stroke: black; stroke-width: 2px; fill: white; fill-opacity: 0.95;"></polygon><path d="m 16,15 7.42857142857143,9.714285714285715 -7.42857142857143,9.714285714285715 3.428571428571429,0 5.714285714285715,-7.464228571428572 5.714285714285715,7.464228571428572 3.428571428571429,0 -7.42857142857143,-9.714285714285715 7.42857142857143,-9.714285714285715 -3.428571428571429,0 -5.714285714285715,7.464228571428572 -5.714285714285715,-7.464228571428572 -3.428571428571429,0 z" style="fill: black; stroke-width: 1px; stroke: black;"></path></g><g class="djs-visual" id="Event_1d824ya" transform="translate(502 2522)"><circle cx="18" cy="18" r="18" style="stroke: black; stroke-width: 4px; fill: white; fill-opacity: 0.95;"></circle></g><g class="djs-visual" id="Event_1d824ya_label" transform="translate(470 2565)"><text lineHeight="1.2" class="djs-label" style="font-family: Arial, sans-serif; font-size: 11px; font-weight: normal; fill: black;"><tspan x="0" y="9.899999999999999">Account balance not </tspan><tspan x="27.73583984375" y="23.099999999999998">sufficient</tspan></text></g><g class="djs-visual" id="TextAnnotation_07wx39s" transform="translate(350 -70)"><rect x="0" y="0" width="120" height="70" rx="0" ry="0" style="stroke: none; stroke-width: 2px; fill: none;"></rect><path d="m 0, 0 m 10,0 l -10,0 l 0,70 l 10,0" style="fill: none; stroke-width: 2px; stroke: black;"></path><text lineHeight="1.2" class="djs-label" style="font-family: Arial, sans-serif; font-size: 12px; font-weight: normal; fill: black;"><tspan x="5" y="15.799999999999999">- Account number</tspan><tspan x="5" y="30.199999999999996">- Name</tspan><tspan x="5" y="44.599999999999994">- Amount/ Currency</tspan><tspan x="5" y="58.99999999999999">- Passbook</tspan></text></g><g class="djs-visual" id="TextAnnotation_0yfsqk0" transform="translate(620 950)"><rect x="0" y="0" width="115" height="40" rx="0" ry="0" style="stroke: none; stroke-width: 2px; fill: none;"></rect><path d="m 0, 0 m 10,0 l -10,0 l 0,40 l 10,0" style="fill: none; stroke-width: 2px; stroke: black;"></path><text lineHeight="1.2" class="djs-label" style="font-family: Arial, sans-serif; font-size: 12px; font-weight: normal; fill: black;"><tspan x="5" y="15.799999999999999">Convert amount </tspan><tspan x="5" y="30.199999999999996">into local currency</tspan></text></g><g class="djs-visual" id="TextAnnotation_00tyf5y" transform="translate(355 3780)"><rect x="0" y="0" width="153" height="60" rx="0" ry="0" style="stroke: none; stroke-width: 2px; fill: none;"></rect><path d="m 0, 0 m 10,0 l -10,0 l 0,60 l 10,0" style="fill: none; stroke-width: 2px; stroke: black;"></path><text lineHeight="1.2" class="djs-label" style="font-family: Arial, sans-serif; font-size: 12px; font-weight: normal; fill: black;"><tspan x="5" y="15.799999999999999">Customer to be informed </tspan><tspan x="5" y="30.199999999999996">to check whether amount </tspan><tspan x="5" y="44.599999999999994">of withdrawal is correct</tspan></text></g><g class="djs-visual" id="DataInputAssociation_1lxgtqv" transform="translate(0 0)"><polyline points="108,60 195,60 " style="fill: none; stroke: black; stroke-width: 2px; stroke-dasharray: 0.5, 5; stroke-linecap: round; stroke-linejoin: round; marker-end: url(&quot;#association-end-white-black-0cyen6i9ogxaws5cisnij0ncl&quot;);"></polyline></g><g class="djs-visual" id="Flow_1iyiand_label" transform="translate(271 394)"><text lineHeight="1.2" class="djs-label" style="font-family: Arial, sans-serif; font-size: 11px; font-weight: normal; fill: black;"><tspan x="8.523193359375" y="9.899999999999999">Customer </tspan><tspan x="0" y="23.099999999999998">authenticated</tspan></text></g><g class="djs-visual" id="Flow_07vrsuv_label" transform="translate(708 400)"><text lineHeight="1.2" class="djs-label" style="font-family: Arial, sans-serif; font-size: 11px; font-weight: normal; fill: black;"><tspan x="0" y="9.899999999999999">Customer not </tspan><tspan x="0.4541015625" y="23.099999999999998">authenticated</tspan></text></g><g class="djs-visual" id="Flow_1m81vyi_label" transform="translate(268 703)"><text lineHeight="1.2" class="djs-label" style="font-family: Arial, sans-serif; font-size: 11px; font-weight: normal; fill: black;"><tspan x="0.8125" y="9.899999999999999">LCY cash withdrawal </tspan><tspan x="8.45556640625" y="23.099999999999998">from LCY account </tspan><tspan x="0" y="36.3">(E.g. Bank's currency</tspan><tspan x="0.77197265625" y="49.5">is USD and withdraw </tspan><tspan x="15.0380859375" y="62.7">USD from USD </tspan><tspan x="31.08349609375" y="75.9">account)</tspan></text></g><g class="djs-visual" id="Flow_019n6wx_label" transform="translate(548 700)"><text lineHeight="1.2" class="djs-label" style="font-family: Arial, sans-serif; font-size: 11px; font-weight: normal; fill: black;"><tspan x="0.8125" y="9.899999999999999">LCY cash withdrawal </tspan><tspan x="8.15478515625" y="23.099999999999998">from FCY account </tspan><tspan x="0" y="36.3">(E.g. Bank's currency</tspan><tspan x="0.77197265625" y="49.5">is USD and withdraw </tspan><tspan x="14.73193359375" y="62.7">USD from GBP </tspan><tspan x="31.08349609375" y="75.9">account)</tspan></text></g><g class="djs-visual" id="Flow_1hc3v9z_label" transform="translate(266 1506)"><text lineHeight="1.2" class="djs-label" style="font-family: Arial, sans-serif; font-size: 11px; font-weight: normal; fill: black;"><tspan x="0" y="9.899999999999999">Account number </tspan><tspan x="25.9091796875" y="23.099999999999998">exists</tspan></text></g><g class="djs-visual" id="Flow_121xiev_label" transform="translate(529 1506)"><text lineHeight="1.2" class="djs-label" style="font-family: Arial, sans-serif; font-size: 11px; font-weight: normal; fill: black;"><tspan x="0" y="9.899999999999999">Account number </tspan><tspan x="5.808837890625" y="23.099999999999998">does not exist</tspan></text></g><g class="djs-visual" id="Flow_1otd9dg_label" transform="translate(271 1686)"><text lineHeight="1.2" class="djs-label" style="font-family: Arial, sans-serif; font-size: 11px; font-weight: normal; fill: black;"><tspan x="0" y="9.899999999999999">Transaction limits to </tspan><tspan x="22.8203125" y="23.099999999999998">be verified</tspan></text></g><g class="djs-visual" id="Flow_1rj6obn_label" transform="translate(265 2743)"><text lineHeight="1.2" class="djs-label" style="font-family: Arial, sans-serif; font-size: 11px; font-weight: normal; fill: black;"><tspan x="0" y="9.899999999999999">Within Limit</tspan></text></g><g class="djs-visual" id="Flow_1rnvc7y_label" transform="translate(540 2743)"><text lineHeight="1.2" class="djs-label" style="font-family: Arial, sans-serif; font-size: 11px; font-weight: normal; fill: black;"><tspan x="0" y="9.899999999999999">Limit exceeded</tspan></text></g><g class="djs-visual" id="Flow_15073as_label" transform="translate(542 2996)"><text lineHeight="1.2" class="djs-label" style="font-family: Arial, sans-serif; font-size: 11px; font-weight: normal; fill: black;"><tspan x="0" y="9.899999999999999">Override to be </tspan><tspan x="12.5234375" y="23.099999999999998">accepted</tspan></text></g><g class="djs-visual" id="Flow_0hhkebx_label" transform="translate(816 2996)"><text lineHeight="1.2" class="djs-label" style="font-family: Arial, sans-serif; font-size: 11px; font-weight: normal; fill: black;"><tspan x="0" y="9.899999999999999">Override to be </tspan><tspan x="14.359375" y="23.099999999999998">declined</tspan></text></g><g class="djs-visual" id="Flow_0df3lyr_label" transform="translate(268 3410)"><text lineHeight="1.2" class="djs-label" style="font-family: Arial, sans-serif; font-size: 11px; font-weight: normal; fill: black;"><tspan x="1.3203125" y="9.899999999999999">Transaction </tspan><tspan x="0" y="23.099999999999998">prompted to </tspan><tspan x="4.225830078125" y="36.3">authoriser</tspan></text></g><g class="djs-visual" id="DataOutputAssociation_0z8efk4" transform="translate(0 0)"><polyline points="325,3720 432,3720 " style="fill: none; stroke: black; stroke-width: 2px; stroke-dasharray: 0.5, 5; stroke-linecap: round; stroke-linejoin: round; marker-end: url(&quot;#association-end-white-black-0cyen6i9ogxaws5cisnij0ncl&quot;);"></polyline></g><g class="djs-visual" id="DataOutputAssociation_1ghb1al" transform="translate(0 0)"><polyline points="325,3920 432,3920 " style="fill: none; stroke: black; stroke-width: 2px; stroke-dasharray: 0.5, 5; stroke-linecap: round; stroke-linejoin: round; marker-end: url(&quot;#association-end-white-black-0cyen6i9ogxaws5cisnij0ncl&quot;);"></polyline></g><g class="djs-visual" id="Flow_03p1afn_label" transform="translate(276 1940)"><text lineHeight="1.2" class="djs-label" style="font-family: Arial, sans-serif; font-size: 11px; font-weight: normal; fill: black;"><tspan x="7.893798828125" y="9.899999999999999">Account status </tspan><tspan x="0" y="23.099999999999998">allows transaction</tspan></text></g><g class="djs-visual" id="Flow_0lzrni9_label" transform="translate(277 2206)"><text lineHeight="1.2" class="djs-label" style="font-family: Arial, sans-serif; font-size: 11px; font-weight: normal; fill: black;"><tspan x="0" y="9.899999999999999">Till balance </tspan><tspan x="5.0400390625" y="23.099999999999998">sufficient</tspan></text></g><g class="djs-visual" id="Flow_0db8qux_label" transform="translate(279 2486)"><text lineHeight="1.2" class="djs-label" style="font-family: Arial, sans-serif; font-size: 11px; font-weight: normal; fill: black;"><tspan x="0" y="9.899999999999999">Account balance </tspan><tspan x="18.0947265625" y="23.099999999999998">sufficient</tspan></text></g><g class="djs-visual" id="Association_1v7heu7" transform="translate(0 0)"><polyline points="315,10 350,-20 " style="fill: none; stroke: black; stroke-width: 2px; stroke-dasharray: 0.5, 5; stroke-linecap: round; stroke-linejoin: round;"></polyline></g><g class="djs-visual" id="Association_03yrocq" transform="translate(0 0)"><polyline points="590,1010 620,970 " style="fill: none; stroke: black; stroke-width: 2px; stroke-dasharray: 0.5, 5; stroke-linecap: round; stroke-linejoin: round;"></polyline></g><g class="djs-visual" id="Association_1yv8qfz" transform="translate(0 0)"><polyline points="320,3870 355,3818 " style="fill: none; stroke: black; stroke-width: 2px; stroke-dasharray: 0.5, 5; stroke-linecap: round; stroke-linejoin: round;"></polyline></g></g><g><rect class="viewport" x="-5356.355704697987" y="-139.63758389261747" width="11644.295302013423" height="4429.530201342282"></rect></g></svg>