<svg width="100%" height="100%" viewBox="-91, -3, 2367, 2981"><g><g class="djs-visual" id="Flow_0dh7h0t" transform="translate(0 0)"><path d="m  250,2460L250,2512 " style="fill: none; stroke-width: 2px; stroke: black; stroke-linejoin: round; marker-end: url(&quot;#sequenceflow-end-white-black-0bjns6is0fjt6pvhqydb5jr51&quot;);"></path></g><g class="djs-visual" id="Flow_18gji2p" transform="translate(0 0)"><path d="m  55,2270L250,2270 L250,2360 " style="fill: none; stroke-width: 2px; stroke: black; stroke-linejoin: round; marker-end: url(&quot;#sequenceflow-end-white-black-0bjns6is0fjt6pvhqydb5jr51&quot;);"></path></g><g class="djs-visual" id="Flow_00x4kfw" transform="translate(0 0)"><path d="m  30,2295L30,2360 " style="fill: none; stroke-width: 2px; stroke: black; stroke-linejoin: round; marker-end: url(&quot;#sequenceflow-end-white-black-0bjns6is0fjt6pvhqydb5jr51&quot;);"></path></g><g class="djs-visual" id="Flow_0dquc0o" transform="translate(0 0)"><path d="m  30,2200L30,2245 " style="fill: none; stroke-width: 2px; stroke: black; stroke-linejoin: round; marker-end: url(&quot;#sequenceflow-end-white-black-0bjns6is0fjt6pvhqydb5jr51&quot;);"></path></g><g class="djs-visual" id="Flow_109ps08" transform="translate(0 0)"><path d="m  30,1170L30,1210 " style="fill: none; stroke-width: 2px; stroke: black; stroke-linejoin: round; marker-end: url(&quot;#sequenceflow-end-white-black-0bjns6is0fjt6pvhqydb5jr51&quot;);"></path></g><g class="djs-visual" id="Flow_114keqn" transform="translate(0 0)"><path d="m  30,1040L30,1070 " style="fill: none; stroke-width: 2px; stroke: black; stroke-linejoin: round; marker-end: url(&quot;#sequenceflow-end-white-black-0bjns6is0fjt6pvhqydb5jr51&quot;);"></path></g><g class="djs-visual" id="Flow_05un8yi" transform="translate(0 0)"><path d="m  1910,2050L1910,2132 " style="fill: none; stroke-width: 2px; stroke: black; stroke-linejoin: round; marker-end: url(&quot;#sequenceflow-end-white-black-0bjns6is0fjt6pvhqydb5jr51&quot;);"></path></g><g class="djs-visual" id="Flow_1fvi3ii" transform="translate(0 0)"><path d="m  1580,2050L1580,2132 " style="fill: none; stroke-width: 2px; stroke: black; stroke-linejoin: round; marker-end: url(&quot;#sequenceflow-end-white-black-0bjns6is0fjt6pvhqydb5jr51&quot;);"></path></g><g class="djs-visual" id="Flow_1igavbs" transform="translate(0 0)"><path d="m  1910,1870L1910,1950 " style="fill: none; stroke-width: 2px; stroke: black; stroke-linejoin: round; marker-end: url(&quot;#sequenceflow-end-white-black-0bjns6is0fjt6pvhqydb5jr51&quot;);"></path></g><g class="djs-visual" id="Flow_005qdlo" transform="translate(0 0)"><path d="m  1580,1870L1580,1950 " style="fill: none; stroke-width: 2px; stroke: black; stroke-linejoin: round; marker-end: url(&quot;#sequenceflow-end-white-black-0bjns6is0fjt6pvhqydb5jr51&quot;);"></path></g><g class="djs-visual" id="Flow_0cpg04t" transform="translate(0 0)"><path d="m  1605,1680L1910,1680 L1910,1770 " style="fill: none; stroke-width: 2px; stroke: black; stroke-linejoin: round; marker-end: url(&quot;#sequenceflow-end-white-black-0bjns6is0fjt6pvhqydb5jr51&quot;);"></path></g><g class="djs-visual" id="Flow_1ue7lly" transform="translate(0 0)"><path d="m  1580,1705L1580,1770 " style="fill: none; stroke-width: 2px; stroke: black; stroke-linejoin: round; marker-end: url(&quot;#sequenceflow-end-white-black-0bjns6is0fjt6pvhqydb5jr51&quot;);"></path></g><g class="djs-visual" id="Flow_0npdffi" transform="translate(0 0)"><path d="m  1580,1590L1580,1655 " style="fill: none; stroke-width: 2px; stroke: black; stroke-linejoin: round; marker-end: url(&quot;#sequenceflow-end-white-black-0bjns6is0fjt6pvhqydb5jr51&quot;);"></path></g><g class="djs-visual" id="Flow_1c4ozs6" transform="translate(0 0)"><path d="m  55,1380L1580,1380 L1580,1490 " style="fill: none; stroke-width: 2px; stroke: black; stroke-linejoin: round; marker-end: url(&quot;#sequenceflow-end-white-black-0bjns6is0fjt6pvhqydb5jr51&quot;);"></path></g><g class="djs-visual" id="Flow_0lbltso" transform="translate(0 0)"><path d="m  1250,1930L1250,2002 " style="fill: none; stroke-width: 2px; stroke: black; stroke-linejoin: round; marker-end: url(&quot;#sequenceflow-end-white-black-0bjns6is0fjt6pvhqydb5jr51&quot;);"></path></g><g class="djs-visual" id="Flow_1wnv2ka" transform="translate(0 0)"><path d="m  1250,1760L1250,1830 " style="fill: none; stroke-width: 2px; stroke: black; stroke-linejoin: round; marker-end: url(&quot;#sequenceflow-end-white-black-0bjns6is0fjt6pvhqydb5jr51&quot;);"></path></g><g class="djs-visual" id="Flow_06ayh3s" transform="translate(0 0)"><path d="m  1250,1590L1250,1660 " style="fill: none; stroke-width: 2px; stroke: black; stroke-linejoin: round; marker-end: url(&quot;#sequenceflow-end-white-black-0bjns6is0fjt6pvhqydb5jr51&quot;);"></path></g><g class="djs-visual" id="Flow_1rmnizi" transform="translate(0 0)"><path d="m  55,1380L1250,1380 L1250,1490 " style="fill: none; stroke-width: 2px; stroke: black; stroke-linejoin: round; marker-end: url(&quot;#sequenceflow-end-white-black-0bjns6is0fjt6pvhqydb5jr51&quot;);"></path></g><g class="djs-visual" id="Flow_1efmxcc" transform="translate(0 0)"><path d="m  890,2040L890,2112 " style="fill: none; stroke-width: 2px; stroke: black; stroke-linejoin: round; marker-end: url(&quot;#sequenceflow-end-white-black-0bjns6is0fjt6pvhqydb5jr51&quot;);"></path></g><g class="djs-visual" id="Flow_0s2on6n" transform="translate(0 0)"><path d="m  890,1870L890,1940 " style="fill: none; stroke-width: 2px; stroke: black; stroke-linejoin: round; marker-end: url(&quot;#sequenceflow-end-white-black-0bjns6is0fjt6pvhqydb5jr51&quot;);"></path></g><g class="djs-visual" id="Flow_1rtfg0s" transform="translate(0 0)"><path d="m  55,1680L890,1680 L890,1770 " style="fill: none; stroke-width: 2px; stroke: black; stroke-linejoin: round; marker-end: url(&quot;#sequenceflow-end-white-black-0bjns6is0fjt6pvhqydb5jr51&quot;);"></path></g><g class="djs-visual" id="Flow_0f2gaeg" transform="translate(0 0)"><path d="m  600,2560L600,2612 " style="fill: none; stroke-width: 2px; stroke: black; stroke-linejoin: round; marker-end: url(&quot;#sequenceflow-end-white-black-0bjns6is0fjt6pvhqydb5jr51&quot;);"></path></g><g class="djs-visual" id="Flow_1lietv7" transform="translate(0 0)"><path d="m  600,2380L600,2460 " style="fill: none; stroke-width: 2px; stroke: black; stroke-linejoin: round; marker-end: url(&quot;#sequenceflow-end-white-black-0bjns6is0fjt6pvhqydb5jr51&quot;);"></path></g><g class="djs-visual" id="Flow_1dr95fn" transform="translate(0 0)"><path d="m  600,2210L600,2280 " style="fill: none; stroke-width: 2px; stroke: black; stroke-linejoin: round; marker-end: url(&quot;#sequenceflow-end-white-black-0bjns6is0fjt6pvhqydb5jr51&quot;);"></path></g><g class="djs-visual" id="Flow_1meheeb" transform="translate(0 0)"><path d="m  600,2040L600,2110 " style="fill: none; stroke-width: 2px; stroke: black; stroke-linejoin: round; marker-end: url(&quot;#sequenceflow-end-white-black-0bjns6is0fjt6pvhqydb5jr51&quot;);"></path></g><g class="djs-visual" id="Flow_0fod91d" transform="translate(0 0)"><path d="m  600,1870L600,1940 " style="fill: none; stroke-width: 2px; stroke: black; stroke-linejoin: round; marker-end: url(&quot;#sequenceflow-end-white-black-0bjns6is0fjt6pvhqydb5jr51&quot;);"></path></g><g class="djs-visual" id="Flow_13hhpzr" transform="translate(0 0)"><path d="m  55,1680L600,1680 L600,1770 " style="fill: none; stroke-width: 2px; stroke: black; stroke-linejoin: round; marker-end: url(&quot;#sequenceflow-end-white-black-0bjns6is0fjt6pvhqydb5jr51&quot;);"></path></g><g class="djs-visual" id="Flow_1h81qaa" transform="translate(0 0)"><path d="m  30,2800L30,2852 " style="fill: none; stroke-width: 2px; stroke: black; stroke-linejoin: round; marker-end: url(&quot;#sequenceflow-end-white-black-0bjns6is0fjt6pvhqydb5jr51&quot;);"></path></g><g class="djs-visual" id="Flow_1vdy3re" transform="translate(0 0)"><path d="m  30,2640L30,2700 " style="fill: none; stroke-width: 2px; stroke: black; stroke-linejoin: round; marker-end: url(&quot;#sequenceflow-end-white-black-0bjns6is0fjt6pvhqydb5jr51&quot;);"></path></g><g class="djs-visual" id="Flow_0snffne" transform="translate(0 0)"><path d="m  30,2460L30,2540 " style="fill: none; stroke-width: 2px; stroke: black; stroke-linejoin: round; marker-end: url(&quot;#sequenceflow-end-white-black-0bjns6is0fjt6pvhqydb5jr51&quot;);"></path></g><g class="djs-visual" id="Flow_1ex8jkv" transform="translate(0 0)"><path d="m  30,2040L30,2100 " style="fill: none; stroke-width: 2px; stroke: black; stroke-linejoin: round; marker-end: url(&quot;#sequenceflow-end-white-black-0bjns6is0fjt6pvhqydb5jr51&quot;);"></path></g><g class="djs-visual" id="Flow_0xolbwy" transform="translate(0 0)"><path d="m  30,1870L30,1940 " style="fill: none; stroke-width: 2px; stroke: black; stroke-linejoin: round; marker-end: url(&quot;#sequenceflow-end-white-black-0bjns6is0fjt6pvhqydb5jr51&quot;);"></path></g><g class="djs-visual" id="Flow_0v7gwsw" transform="translate(0 0)"><path d="m  30,1705L30,1770 " style="fill: none; stroke-width: 2px; stroke: black; stroke-linejoin: round; marker-end: url(&quot;#sequenceflow-end-white-black-0bjns6is0fjt6pvhqydb5jr51&quot;);"></path></g><g class="djs-visual" id="Flow_19sc2qx" transform="translate(0 0)"><path d="m  30,1590L30,1655 " style="fill: none; stroke-width: 2px; stroke: black; stroke-linejoin: round; marker-end: url(&quot;#sequenceflow-end-white-black-0bjns6is0fjt6pvhqydb5jr51&quot;);"></path></g><g class="djs-visual" id="Flow_07gpio3" transform="translate(0 0)"><path d="m  30,1405L30,1490 " style="fill: none; stroke-width: 2px; stroke: black; stroke-linejoin: round; marker-end: url(&quot;#sequenceflow-end-white-black-0bjns6is0fjt6pvhqydb5jr51&quot;);"></path></g><g class="djs-visual" id="Flow_01uga7e" transform="translate(0 0)"><path d="m  30,1310L30,1355 " style="fill: none; stroke-width: 2px; stroke: black; stroke-linejoin: round; marker-end: url(&quot;#sequenceflow-end-white-black-0bjns6is0fjt6pvhqydb5jr51&quot;);"></path></g><g class="djs-visual" id="Flow_0w0vy4o" transform="translate(0 0)"><path d="m  30,890L30,940 " style="fill: none; stroke-width: 2px; stroke: black; stroke-linejoin: round; marker-end: url(&quot;#sequenceflow-end-white-black-0bjns6is0fjt6pvhqydb5jr51&quot;);"></path></g><g class="djs-visual" id="Flow_14rw7p4" transform="translate(0 0)"><path d="m  30,745L30,790 " style="fill: none; stroke-width: 2px; stroke: black; stroke-linejoin: round; marker-end: url(&quot;#sequenceflow-end-white-black-0bjns6is0fjt6pvhqydb5jr51&quot;);"></path></g><g class="djs-visual" id="Flow_0nt1nkd" transform="translate(0 0)"><path d="m  530,490L530,720 L55,720 " style="fill: none; stroke-width: 2px; stroke: black; stroke-linejoin: round; marker-end: url(&quot;#sequenceflow-end-white-black-0bjns6is0fjt6pvhqydb5jr51&quot;);"></path></g><g class="djs-visual" id="Flow_01in24t" transform="translate(0 0)"><path d="m  530,320L530,390 " style="fill: none; stroke-width: 2px; stroke: black; stroke-linejoin: round; marker-end: url(&quot;#sequenceflow-end-white-black-0bjns6is0fjt6pvhqydb5jr51&quot;);"></path></g><g class="djs-visual" id="Flow_0xplugf" transform="translate(0 0)"><path d="m  530,148L530,220 " style="fill: none; stroke-width: 2px; stroke: black; stroke-linejoin: round; marker-end: url(&quot;#sequenceflow-end-white-black-0bjns6is0fjt6pvhqydb5jr51&quot;);"></path></g><g class="djs-visual" id="Flow_0v9pc0c" transform="translate(0 0)"><path d="m  30,657L30,695 " style="fill: none; stroke-width: 2px; stroke: black; stroke-linejoin: round; marker-end: url(&quot;#sequenceflow-end-white-black-0bjns6is0fjt6pvhqydb5jr51&quot;);"></path></g><g class="djs-visual" id="Flow_1rxy0d7" transform="translate(0 0)"><path d="m  30,490L30,557 " style="fill: none; stroke-width: 2px; stroke: black; stroke-linejoin: round; marker-end: url(&quot;#sequenceflow-end-white-black-0bjns6is0fjt6pvhqydb5jr51&quot;);"></path></g><g class="djs-visual" id="Flow_0tgi91i" transform="translate(0 0)"><path d="m  30,320L30,390 " style="fill: none; stroke-width: 2px; stroke: black; stroke-linejoin: round; marker-end: url(&quot;#sequenceflow-end-white-black-0bjns6is0fjt6pvhqydb5jr51&quot;);"></path></g><g class="djs-visual" id="Flow_1lobwcw" transform="translate(0 0)"><path d="m  30,148L30,220 " style="fill: none; stroke-width: 2px; stroke: black; stroke-linejoin: round; marker-end: url(&quot;#sequenceflow-end-white-black-0bjns6is0fjt6pvhqydb5jr51&quot;);"></path></g><g class="djs-visual" id="StartEvent_1bm324f" transform="translate(12 112)"><circle cx="18" cy="18" r="18" style="stroke: black; stroke-width: 2px; fill: white; fill-opacity: 0.95;"></circle></g><g class="djs-visual" id="StartEvent_1bm324f_label" transform="translate(0 78)"><text lineHeight="1.2" class="djs-label" style="font-family: Arial, sans-serif; font-size: 11px; font-weight: normal; fill: black;"><tspan x="0" y="9.899999999999999">Option to be </tspan><tspan x="6.4296875" y="23.099999999999998">exercised</tspan></text></g><g class="djs-visual" id="Event_1a9ajwl" transform="translate(512 112)"><circle cx="18" cy="18" r="18" style="stroke: black; stroke-width: 2px; fill: white; fill-opacity: 0.95;"></circle></g><g class="djs-visual" id="Event_1a9ajwl_label" transform="translate(497 53)"><text lineHeight="1.2" class="djs-label" style="font-family: Arial, sans-serif; font-size: 11px; font-weight: normal; fill: black;"><tspan x="4.219970703125" y="9.899999999999999">Request for </tspan><tspan x="4.72265625" y="23.099999999999998">assignment </tspan><tspan x="0" y="36.3">received from </tspan><tspan x="2.498046875" y="49.5">counterparty</tspan></text></g><g class="djs-visual" id="Activity_1oqvhga" transform="translate(-35 220)"><rect x="0" y="0" width="130" height="100" rx="10" ry="10" style="stroke: black; stroke-width: 2px; fill: white; fill-opacity: 0.95;"></rect><text lineHeight="1.2" class="djs-label" style="font-family: Arial, sans-serif; font-size: 12px; font-weight: normal; fill: black;"><tspan x="14.1474609375" y="39.2">Receive instruction </tspan><tspan x="18.9921875" y="53.6">from Customer to </tspan><tspan x="24.48046875" y="68">exercise option</tspan></text></g><g class="djs-visual" id="Activity_00myssp" transform="translate(-35 390)"><rect x="0" y="0" width="130" height="100" rx="10" ry="10" style="stroke: black; stroke-width: 2px; fill: white; fill-opacity: 0.95;"></rect><text lineHeight="1.2" class="djs-label" style="font-family: Arial, sans-serif; font-size: 12px; font-weight: normal; fill: black;"><tspan x="6.2578125" y="46.4">Instruct Back Office to</tspan><tspan x="24.48046875" y="60.8">exercise option</tspan></text></g><g class="djs-visual" id="Activity_1mxjd9r" transform="translate(-35 557)"><rect x="0" y="0" width="130" height="100" rx="10" ry="10" style="stroke: black; stroke-width: 2px; fill: white; fill-opacity: 0.95;"></rect><text lineHeight="1.2" class="djs-label" style="font-family: Arial, sans-serif; font-size: 12px; font-weight: normal; fill: black;"><tspan x="23.8154296875" y="53.599999999999994">Exercise option</tspan></text></g><g class="djs-visual" id="Activity_131e1ov" transform="translate(465 220)"><rect x="0" y="0" width="130" height="100" rx="10" ry="10" style="stroke: black; stroke-width: 2px; fill: white; fill-opacity: 0.95;"></rect><text lineHeight="1.2" class="djs-label" style="font-family: Arial, sans-serif; font-size: 12px; font-weight: normal; fill: black;"><tspan x="8.314453125" y="39.2">Inform Customer that </tspan><tspan x="22.1337890625" y="53.6">option has been </tspan><tspan x="40.8193359375" y="68">assigned</tspan></text></g><g class="djs-visual" id="Gateway_1b0t39b" transform="translate(5 695)"><polygon points="25,0 50,25 25,50 0,25" style="stroke: black; stroke-width: 2px; fill: white; fill-opacity: 0.95;"></polygon><path d="m 16,15 7.42857142857143,9.714285714285715 -7.42857142857143,9.714285714285715 3.428571428571429,0 5.714285714285715,-7.464228571428572 5.714285714285715,7.464228571428572 3.428571428571429,0 -7.42857142857143,-9.714285714285715 7.42857142857143,-9.714285714285715 -3.428571428571429,0 -5.714285714285715,7.464228571428572 -5.714285714285715,-7.464228571428572 -3.428571428571429,0 z" style="fill: black; stroke-width: 1px; stroke: black;"></path></g><g class="djs-visual" id="Activity_04keamg" transform="translate(-35 1490)"><rect x="0" y="0" width="130" height="100" rx="10" ry="10" style="stroke: black; stroke-width: 2px; fill: white; fill-opacity: 0.95;"></rect><text lineHeight="1.2" class="djs-label" style="font-family: Arial, sans-serif; font-size: 12px; font-weight: normal; fill: black;"><tspan x="8.642578125" y="46.4">Check for Settlement </tspan><tspan x="53.99609375" y="60.8">type</tspan></text></g><g class="djs-visual" id="Activity_0oqxss0" transform="translate(465 390)"><rect x="0" y="0" width="130" height="100" rx="10" ry="10" style="stroke: black; stroke-width: 2px; fill: white; fill-opacity: 0.95;"></rect><text lineHeight="1.2" class="djs-label" style="font-family: Arial, sans-serif; font-size: 12px; font-weight: normal; fill: black;"><tspan x="29.3134765625" y="53.599999999999994">Assign option</tspan></text></g><g class="djs-visual" id="Activity_1n30w3k" transform="translate(-35 790)"><rect x="0" y="0" width="130" height="100" rx="10" ry="10" style="stroke: black; stroke-width: 2px; fill: white; fill-opacity: 0.95;"></rect><text lineHeight="1.2" class="djs-label" style="font-family: Arial, sans-serif; font-size: 12px; font-weight: normal; fill: black;"><tspan x="14.1435546875" y="46.4">Authorise exercise/ </tspan><tspan x="9.46875" y="60.8">assignment of option</tspan></text></g><g class="djs-visual" id="Activity_1v6a7t4" transform="translate(-35 1210)"><rect x="0" y="0" width="130" height="100" rx="10" ry="10" style="stroke: black; stroke-width: 2px; fill: white; fill-opacity: 0.95;"></rect><text lineHeight="1.2" class="djs-label" style="font-family: Arial, sans-serif; font-size: 12px; font-weight: normal; fill: black;"><tspan x="19.9716796875" y="46.4">Update Closeout </tspan><tspan x="47.65625" y="60.8">details</tspan></text></g><g class="djs-visual" id="Gateway_07vv06y" transform="translate(5 1355)"><polygon points="25,0 50,25 25,50 0,25" style="stroke: black; stroke-width: 2px; fill: white; fill-opacity: 0.95;"></polygon><path d="m 16,15 7.42857142857143,9.714285714285715 -7.42857142857143,9.714285714285715 3.428571428571429,0 5.714285714285715,-7.464228571428572 5.714285714285715,7.464228571428572 3.428571428571429,0 -7.42857142857143,-9.714285714285715 7.42857142857143,-9.714285714285715 -3.428571428571429,0 -5.714285714285715,7.464228571428572 -5.714285714285715,-7.464228571428572 -3.428571428571429,0 z" style="fill: black; stroke-width: 1px; stroke: black;"></path></g><g class="djs-visual" id="Gateway_1t21tr1" transform="translate(5 1655)"><polygon points="25,0 50,25 25,50 0,25" style="stroke: black; stroke-width: 2px; fill: white; fill-opacity: 0.95;"></polygon><path d="m 16,15 7.42857142857143,9.714285714285715 -7.42857142857143,9.714285714285715 3.428571428571429,0 5.714285714285715,-7.464228571428572 5.714285714285715,7.464228571428572 3.428571428571429,0 -7.42857142857143,-9.714285714285715 7.42857142857143,-9.714285714285715 -3.428571428571429,0 -5.714285714285715,7.464228571428572 -5.714285714285715,-7.464228571428572 -3.428571428571429,0 z" style="fill: black; stroke-width: 1px; stroke: black;"></path></g><g class="djs-visual" id="Activity_0j0kmx4" transform="translate(-35 1770)"><rect x="0" y="0" width="130" height="100" rx="10" ry="10" style="stroke: black; stroke-width: 2px; fill: white; fill-opacity: 0.95;"></rect><text lineHeight="1.2" class="djs-label" style="font-family: Arial, sans-serif; font-size: 12px; font-weight: normal; fill: black;"><tspan x="11.1416015625" y="46.4">Settle as Underlying </tspan><tspan x="43.3203125" y="60.8">Security</tspan></text></g><g class="djs-visual" id="Activity_0dlmrio" transform="translate(-35 1940)"><rect x="0" y="0" width="130" height="100" rx="10" ry="10" style="stroke: black; stroke-width: 2px; fill: white; fill-opacity: 0.95;"></rect><text lineHeight="1.2" class="djs-label" style="font-family: Arial, sans-serif; font-size: 12px; font-weight: normal; fill: black;"><tspan x="12.96875" y="46.4">Generate securities </tspan><tspan x="51.6611328125" y="60.8">trade</tspan></text></g><g class="djs-visual" id="Activity_00hugzp" transform="translate(-35 2360)"><rect x="0" y="0" width="130" height="100" rx="10" ry="10" style="stroke: black; stroke-width: 2px; fill: white; fill-opacity: 0.95;"></rect><text lineHeight="1.2" class="djs-label" style="font-family: Arial, sans-serif; font-size: 12px; font-weight: normal; fill: black;"><tspan x="17.3203125" y="46.4">Commit securities </tspan><tspan x="51.6611328125" y="60.8">trade</tspan></text></g><g class="djs-visual" id="Activity_0bl6mav" transform="translate(-35 2540)"><rect x="0" y="0" width="130" height="100" rx="10" ry="10" style="stroke: black; stroke-width: 2px; fill: white; fill-opacity: 0.95;"></rect><text lineHeight="1.2" class="djs-label" style="font-family: Arial, sans-serif; font-size: 12px; font-weight: normal; fill: black;"><tspan x="13.140625" y="46.4">Authorise securities </tspan><tspan x="51.6611328125" y="60.8">trade</tspan></text></g><g class="djs-visual" id="Activity_1w99xs8" transform="translate(-35 2700)"><rect x="0" y="0" width="130" height="100" rx="10" ry="10" style="stroke: black; stroke-width: 2px; fill: white; fill-opacity: 0.95;"></rect><text lineHeight="1.2" class="djs-label" style="font-family: Arial, sans-serif; font-size: 12px; font-weight: normal; fill: black;"><tspan x="17.640625" y="46.4">Update Securities </tspan><tspan x="29.5390625" y="60.8">Trade Details</tspan></text></g><g class="djs-visual" id="Event_1qy7ndz" transform="translate(12 2852)"><circle cx="18" cy="18" r="18" style="stroke: black; stroke-width: 4px; fill: white; fill-opacity: 0.95;"></circle></g><g class="djs-visual" id="Event_1qy7ndz_label" transform="translate(-8 2895)"><text lineHeight="1.2" class="djs-label" style="font-family: Arial, sans-serif; font-size: 11px; font-weight: normal; fill: black;"><tspan x="0" y="9.899999999999999">Securities trade </tspan><tspan x="12.53125" y="23.099999999999998">authorised</tspan></text></g><g class="djs-visual" id="Activity_03cafdx" transform="translate(535 1770)"><rect x="0" y="0" width="130" height="100" rx="10" ry="10" style="stroke: black; stroke-width: 2px; fill: white; fill-opacity: 0.95;"></rect><text lineHeight="1.2" class="djs-label" style="font-family: Arial, sans-serif; font-size: 12px; font-weight: normal; fill: black;"><tspan x="16.1396484375" y="46.4">Settle as Alternate </tspan><tspan x="36.322265625" y="60.8">Instrument</tspan></text></g><g class="djs-visual" id="Activity_0v5cypm" transform="translate(535 1940)"><rect x="0" y="0" width="130" height="100" rx="10" ry="10" style="stroke: black; stroke-width: 2px; fill: white; fill-opacity: 0.95;"></rect><text lineHeight="1.2" class="djs-label" style="font-family: Arial, sans-serif; font-size: 12px; font-weight: normal; fill: black;"><tspan x="12.96875" y="46.4">Generate securities </tspan><tspan x="51.6611328125" y="60.8">trade</tspan></text></g><g class="djs-visual" id="Activity_0debyv0" transform="translate(535 2110)"><rect x="0" y="0" width="130" height="100" rx="10" ry="10" style="stroke: black; stroke-width: 2px; fill: white; fill-opacity: 0.95;"></rect><text lineHeight="1.2" class="djs-label" style="font-family: Arial, sans-serif; font-size: 12px; font-weight: normal; fill: black;"><tspan x="11.3046875" y="46.4">Complete Securities </tspan><tspan x="51.6611328125" y="60.8">trade</tspan></text></g><g class="djs-visual" id="Activity_0zdpv12" transform="translate(535 2280)"><rect x="0" y="0" width="130" height="100" rx="10" ry="10" style="stroke: black; stroke-width: 2px; fill: white; fill-opacity: 0.95;"></rect><text lineHeight="1.2" class="djs-label" style="font-family: Arial, sans-serif; font-size: 12px; font-weight: normal; fill: black;"><tspan x="13.140625" y="46.4">Authorise securities </tspan><tspan x="51.6611328125" y="60.8">trade</tspan></text></g><g class="djs-visual" id="Activity_12dj5l3" transform="translate(535 2460)"><rect x="0" y="0" width="130" height="100" rx="10" ry="10" style="stroke: black; stroke-width: 2px; fill: white; fill-opacity: 0.95;"></rect><text lineHeight="1.2" class="djs-label" style="font-family: Arial, sans-serif; font-size: 12px; font-weight: normal; fill: black;"><tspan x="8.6328125" y="53.599999999999994">Update Trade Details</tspan></text></g><g class="djs-visual" id="Event_1yna40e" transform="translate(582 2612)"><circle cx="18" cy="18" r="18" style="stroke: black; stroke-width: 4px; fill: white; fill-opacity: 0.95;"></circle></g><g class="djs-visual" id="Event_1yna40e_label" transform="translate(562 2655)"><text lineHeight="1.2" class="djs-label" style="font-family: Arial, sans-serif; font-size: 11px; font-weight: normal; fill: black;"><tspan x="0" y="9.899999999999999">Securities trade </tspan><tspan x="12.53125" y="23.099999999999998">authorised</tspan></text></g><g class="djs-visual" id="Activity_1378n9b" transform="translate(825 1770)"><rect x="0" y="0" width="130" height="100" rx="10" ry="10" style="stroke: black; stroke-width: 2px; fill: white; fill-opacity: 0.95;"></rect><text lineHeight="1.2" class="djs-label" style="font-family: Arial, sans-serif; font-size: 12px; font-weight: normal; fill: black;"><tspan x="25.81640625" y="53.599999999999994">Settle as Cash</tspan></text></g><g class="djs-visual" id="Activity_1plxudt" transform="translate(825 1940)"><rect x="0" y="0" width="130" height="100" rx="10" ry="10" style="stroke: black; stroke-width: 2px; fill: white; fill-opacity: 0.95;"></rect><text lineHeight="1.2" class="djs-label" style="font-family: Arial, sans-serif; font-size: 12px; font-weight: normal; fill: black;"><tspan x="22.4765625" y="53.599999999999994">Update Position</tspan></text></g><g class="djs-visual" id="Event_0pc47w9" transform="translate(872 2112)"><circle cx="18" cy="18" r="18" style="stroke: black; stroke-width: 4px; fill: white; fill-opacity: 0.95;"></circle></g><g class="djs-visual" id="Event_0pc47w9_label" transform="translate(859 2155)"><text lineHeight="1.2" class="djs-label" style="font-family: Arial, sans-serif; font-size: 11px; font-weight: normal; fill: black;"><tspan x="0" y="9.899999999999999">Option Cash </tspan><tspan x="4.733154296875" y="23.099999999999998">settlement </tspan><tspan x="5.1953125" y="36.3">completed</tspan></text></g><g class="djs-visual" id="Activity_1rg0d6d" transform="translate(1185 1490)"><rect x="0" y="0" width="130" height="100" rx="10" ry="10" style="stroke: black; stroke-width: 2px; fill: white; fill-opacity: 0.95;"></rect><text lineHeight="1.2" class="djs-label" style="font-family: Arial, sans-serif; font-size: 12px; font-weight: normal; fill: black;"><tspan x="39.8203125" y="39.2">Generate </tspan><tspan x="11.3125" y="53.6">commodities futures </tspan><tspan x="51.6611328125" y="68">trade</tspan></text></g><g class="djs-visual" id="Activity_0dcxs4v" transform="translate(1185 1660)"><rect x="0" y="0" width="130" height="100" rx="10" ry="10" style="stroke: black; stroke-width: 2px; fill: white; fill-opacity: 0.95;"></rect><text lineHeight="1.2" class="djs-label" style="font-family: Arial, sans-serif; font-size: 12px; font-weight: normal; fill: black;"><tspan x="27.48046875" y="32">Complete and </tspan><tspan x="40.154296875" y="46.4">authorise </tspan><tspan x="11.3125" y="60.8">commodities futures </tspan><tspan x="51.6611328125" y="75.19999999999999">trade</tspan></text></g><g class="djs-visual" id="Activity_16tzmhz" transform="translate(1185 1830)"><rect x="0" y="0" width="130" height="100" rx="10" ry="10" style="stroke: black; stroke-width: 2px; fill: white; fill-opacity: 0.95;"></rect><text lineHeight="1.2" class="djs-label" style="font-family: Arial, sans-serif; font-size: 12px; font-weight: normal; fill: black;"><tspan x="18.4775390625" y="46.4">Update DX Trade </tspan><tspan x="47.65625" y="60.8">details</tspan></text></g><g class="djs-visual" id="Event_04pq33j" transform="translate(1232 2002)"><circle cx="18" cy="18" r="18" style="stroke: black; stroke-width: 4px; fill: white; fill-opacity: 0.95;"></circle></g><g class="djs-visual" id="Event_04pq33j_label" transform="translate(1218 2045)"><text lineHeight="1.2" class="djs-label" style="font-family: Arial, sans-serif; font-size: 11px; font-weight: normal; fill: black;"><tspan x="0" y="9.899999999999999">Commodities </tspan><tspan x="1.95947265625" y="23.099999999999998">futures trade </tspan><tspan x="6.65478515625" y="36.3">authorised</tspan></text></g><g class="djs-visual" id="Activity_18uublj" transform="translate(1515 1490)"><rect x="0" y="0" width="130" height="100" rx="10" ry="10" style="stroke: black; stroke-width: 2px; fill: white; fill-opacity: 0.95;"></rect><text lineHeight="1.2" class="djs-label" style="font-family: Arial, sans-serif; font-size: 12px; font-weight: normal; fill: black;"><tspan x="5.4755859375" y="53.599999999999994">Check settlement type</tspan></text></g><g class="djs-visual" id="Activity_04occft" transform="translate(1845 1950)"><rect x="0" y="0" width="130" height="100" rx="10" ry="10" style="stroke: black; stroke-width: 2px; fill: white; fill-opacity: 0.95;"></rect><text lineHeight="1.2" class="djs-label" style="font-family: Arial, sans-serif; font-size: 12px; font-weight: normal; fill: black;"><tspan x="22.4765625" y="53.599999999999994">Update Position</tspan></text></g><g class="djs-visual" id="Gateway_1xfjie9" transform="translate(1555 1655)"><polygon points="25,0 50,25 25,50 0,25" style="stroke: black; stroke-width: 2px; fill: white; fill-opacity: 0.95;"></polygon><path d="m 16,15 7.42857142857143,9.714285714285715 -7.42857142857143,9.714285714285715 3.428571428571429,0 5.714285714285715,-7.464228571428572 5.714285714285715,7.464228571428572 3.428571428571429,0 -7.42857142857143,-9.714285714285715 7.42857142857143,-9.714285714285715 -3.428571428571429,0 -5.714285714285715,7.464228571428572 -5.714285714285715,-7.464228571428572 -3.428571428571429,0 z" style="fill: black; stroke-width: 1px; stroke: black;"></path></g><g class="djs-visual" id="Activity_1fmg8xt" transform="translate(1515 1770)"><rect x="0" y="0" width="130" height="100" rx="10" ry="10" style="stroke: black; stroke-width: 2px; fill: white; fill-opacity: 0.95;"></rect><text lineHeight="1.2" class="djs-label" style="font-family: Arial, sans-serif; font-size: 12px; font-weight: normal; fill: black;"><tspan x="16.9765625" y="53.599999999999994">Settle as currency</tspan></text></g><g class="djs-visual" id="Activity_1o5g3un" transform="translate(1845 1770)"><rect x="0" y="0" width="130" height="100" rx="10" ry="10" style="stroke: black; stroke-width: 2px; fill: white; fill-opacity: 0.95;"></rect><text lineHeight="1.2" class="djs-label" style="font-family: Arial, sans-serif; font-size: 12px; font-weight: normal; fill: black;"><tspan x="25.81640625" y="53.599999999999994">Settle as Cash</tspan></text></g><g class="djs-visual" id="Activity_1rw6nq3" transform="translate(1515 1950)"><rect x="0" y="0" width="130" height="100" rx="10" ry="10" style="stroke: black; stroke-width: 2px; fill: white; fill-opacity: 0.95;"></rect><text lineHeight="1.2" class="djs-label" style="font-family: Arial, sans-serif; font-size: 12px; font-weight: normal; fill: black;"><tspan x="5.806640625" y="53.599999999999994">Generate Forex Trade</tspan></text></g><g class="djs-visual" id="Event_13d6mgk" transform="translate(1562 2132)"><circle cx="18" cy="18" r="18" style="stroke: black; stroke-width: 4px; fill: white; fill-opacity: 0.95;"></circle></g><g class="djs-visual" id="Event_13d6mgk_label" transform="translate(1530 2175)"><text lineHeight="1.2" class="djs-label" style="font-family: Arial, sans-serif; font-size: 11px; font-weight: normal; fill: black;"><tspan x="0" y="9.899999999999999">Forex Trade created</tspan></text></g><g class="djs-visual" id="Event_0cfyhhz" transform="translate(1892 2132)"><circle cx="18" cy="18" r="18" style="stroke: black; stroke-width: 4px; fill: white; fill-opacity: 0.95;"></circle></g><g class="djs-visual" id="Event_0cfyhhz_label" transform="translate(1879 2175)"><text lineHeight="1.2" class="djs-label" style="font-family: Arial, sans-serif; font-size: 11px; font-weight: normal; fill: black;"><tspan x="0" y="9.899999999999999">Option Cash </tspan><tspan x="4.733154296875" y="23.099999999999998">settlement </tspan><tspan x="5.1953125" y="36.3">completed</tspan></text></g><g class="djs-visual" id="Activity_1sh6tig" transform="translate(-35 940)"><rect x="0" y="0" width="130" height="100" rx="10" ry="10" style="stroke: black; stroke-width: 2px; fill: white; fill-opacity: 0.95;"></rect><text lineHeight="1.2" class="djs-label" style="font-family: Arial, sans-serif; font-size: 12px; font-weight: normal; fill: black;"><tspan x="15.6357421875" y="46.4">Generate closeout </tspan><tspan x="47.830078125" y="60.8">record</tspan></text></g><g class="djs-visual" id="Activity_1qau54v" transform="translate(-35 1070)"><rect x="0" y="0" width="130" height="100" rx="10" ry="10" style="stroke: black; stroke-width: 2px; fill: white; fill-opacity: 0.95;"></rect><text lineHeight="1.2" class="djs-label" style="font-family: Arial, sans-serif; font-size: 12px; font-weight: normal; fill: black;"><tspan x="15.8046875" y="46.4">Authorise closeout </tspan><tspan x="47.830078125" y="60.8">record</tspan></text></g><g class="djs-visual" id="Activity_03fdf0l" transform="translate(-35 2100)"><rect x="0" y="0" width="130" height="100" rx="10" ry="10" style="stroke: black; stroke-width: 2px; fill: white; fill-opacity: 0.95;"></rect><text lineHeight="1.2" class="djs-label" style="font-family: Arial, sans-serif; font-size: 12px; font-weight: normal; fill: black;"><tspan x="9.96875" y="46.4">Check if trade needs </tspan><tspan x="19.96484375" y="60.8">to be aggregated</tspan></text></g><g class="djs-visual" id="Gateway_0actzej" transform="translate(5 2245)"><polygon points="25,0 50,25 25,50 0,25" style="stroke: black; stroke-width: 2px; fill: white; fill-opacity: 0.95;"></polygon><path d="m 16,15 7.42857142857143,9.714285714285715 -7.42857142857143,9.714285714285715 3.428571428571429,0 5.714285714285715,-7.464228571428572 5.714285714285715,7.464228571428572 3.428571428571429,0 -7.42857142857143,-9.714285714285715 7.42857142857143,-9.714285714285715 -3.428571428571429,0 -5.714285714285715,7.464228571428572 -5.714285714285715,-7.464228571428572 -3.428571428571429,0 z" style="fill: black; stroke-width: 1px; stroke: black;"></path></g><g class="djs-visual" id="Event_0xvsenf" transform="translate(232 2512)"><circle cx="18" cy="18" r="18" style="stroke: black; stroke-width: 4px; fill: white; fill-opacity: 0.95;"></circle></g><g class="djs-visual" id="Event_0xvsenf_label" transform="translate(209 2555)"><text lineHeight="1.2" class="djs-label" style="font-family: Arial, sans-serif; font-size: 11px; font-weight: normal; fill: black;"><tspan x="0" y="9.899999999999999">Security trades to </tspan><tspan x="7.3203125" y="23.099999999999998">be aggregated</tspan></text></g><g class="djs-visual" id="Activity_0tuoeg8" transform="translate(185 2360)"><rect x="0" y="0" width="130" height="100" rx="10" ry="10" style="stroke: black; stroke-width: 2px; fill: white; fill-opacity: 0.95;"></rect><text lineHeight="1.2" class="djs-label" style="font-family: Arial, sans-serif; font-size: 12px; font-weight: normal; fill: black;"><tspan x="7.130859375" y="46.4">Place in unauthorised</tspan><tspan x="48.15234375" y="60.8">queue</tspan></text></g><g class="djs-visual" id="TextAnnotation_18lfs54" transform="translate(150 470)"><rect x="0" y="0" width="315" height="130" rx="0" ry="0" style="stroke: none; stroke-width: 2px; fill: none;"></rect><path d="m 0, 0 m 10,0 l -10,0 l 0,130 l 10,0" style="fill: none; stroke-width: 2px; stroke: black;"></path><text lineHeight="1.2" class="djs-label" style="font-family: Arial, sans-serif; font-size: 12px; font-weight: normal; fill: black;"><tspan x="5" y="15.799999999999999">-Select/ Input option to be exercised</tspan><tspan x="5" y="30.199999999999996">- The option can be exercised for a single contract or a </tspan><tspan x="5" y="44.599999999999994">group</tspan><tspan x="5" y="58.99999999999999">- Can be parameterised to suppress underlying trades</tspan><tspan x="5" y="73.39999999999999">- All Buyer and seller Commission will be calculated a</tspan><tspan x="5" y="87.79999999999998">nd defaulted based on Charge Tax Type for Dx.exercise</tspan><tspan x="5" y="102.19999999999999">activity if set in SC.CHARGE.TAX.CALC.CREATE or can </tspan><tspan x="5" y="116.6">be a manual input</tspan></text></g><g class="djs-visual" id="TextAnnotation_1k7r6an" transform="translate(660 330)"><rect x="0" y="0" width="250" height="99" rx="0" ry="0" style="stroke: none; stroke-width: 2px; fill: none;"></rect><path d="m 0, 0 m 10,0 l -10,0 l 0,99 l 10,0" style="fill: none; stroke-width: 2px; stroke: black;"></path><text lineHeight="1.2" class="djs-label" style="font-family: Arial, sans-serif; font-size: 12px; font-weight: normal; fill: black;"><tspan x="5" y="15.799999999999999">-Select/ Input option to be assigned</tspan><tspan x="5" y="30.199999999999996">-All Buyer and seller Commission will be c</tspan><tspan x="5" y="44.599999999999994">alculated and defaulted based on Charge </tspan><tspan x="5" y="58.99999999999999">Tax Type for Dx.assign activity if set in </tspan><tspan x="5" y="73.39999999999999">SC.CHARGE.TAX.CALC.CREATE or can be</tspan><tspan x="5" y="87.79999999999998">a manual input</tspan></text></g><g class="djs-visual" id="TextAnnotation_15k7aey" transform="translate(150 1420)"><rect x="0" y="0" width="230" height="60" rx="0" ry="0" style="stroke: none; stroke-width: 2px; fill: none;"></rect><path d="m 0, 0 m 10,0 l -10,0 l 0,60 l 10,0" style="fill: none; stroke-width: 2px; stroke: black;"></path><text lineHeight="1.2" class="djs-label" style="font-family: Arial, sans-serif; font-size: 12px; font-weight: normal; fill: black;"><tspan x="5" y="15.799999999999999">Check for the Settlement Type (Settle as </tspan><tspan x="5" y="30.199999999999996">Underlying Security, Alternate instrument</tspan><tspan x="5" y="44.599999999999994">or as Cash)</tspan></text></g><g class="djs-visual" id="TextAnnotation_0wvvndx" transform="translate(1000 1910)"><rect x="0" y="0" width="170" height="40" rx="0" ry="0" style="stroke: none; stroke-width: 2px; fill: none;"></rect><path d="m 0, 0 m 10,0 l -10,0 l 0,40 l 10,0" style="fill: none; stroke-width: 2px; stroke: black;"></path><text lineHeight="1.2" class="djs-label" style="font-family: Arial, sans-serif; font-size: 12px; font-weight: normal; fill: black;"><tspan x="5" y="15.799999999999999">- Generate Accounting Entrie</tspan><tspan x="5" y="30.199999999999996">s - Credit Customer Account</tspan></text></g><g class="djs-visual" id="TextAnnotation_1bu337t" transform="translate(2040 1899)"><rect x="0" y="0" width="180" height="41" rx="0" ry="0" style="stroke: none; stroke-width: 2px; fill: none;"></rect><path d="m 0, 0 m 10,0 l -10,0 l 0,41 l 10,0" style="fill: none; stroke-width: 2px; stroke: black;"></path><text lineHeight="1.2" class="djs-label" style="font-family: Arial, sans-serif; font-size: 12px; font-weight: normal; fill: black;"><tspan x="5" y="15.799999999999999">- Generate Accounting Entries</tspan><tspan x="5" y="30.199999999999996">- Credit Customer Account</tspan></text></g><g class="djs-visual" id="TextAnnotation_0kq2vr3" transform="translate(120 2070)"><rect x="0" y="0" width="180" height="52" rx="0" ry="0" style="stroke: none; stroke-width: 2px; fill: none;"></rect><path d="m 0, 0 m 10,0 l -10,0 l 0,52 l 10,0" style="fill: none; stroke-width: 2px; stroke: black;"></path><text lineHeight="1.2" class="djs-label" style="font-family: Arial, sans-serif; font-size: 12px; font-weight: normal; fill: black;"><tspan x="5" y="15.799999999999999">SEC.TRADE.AGGR set to Yes </tspan><tspan x="5" y="30.199999999999996">in DX.CUSTOMER of Broker or </tspan><tspan x="5" y="44.599999999999994">Counterparty</tspan></text></g><g class="djs-visual" id="TextAnnotation_0fpuylg" transform="translate(365 2360)"><rect x="0" y="0" width="100" height="40" rx="0" ry="0" style="stroke: none; stroke-width: 2px; fill: none;"></rect><path d="m 0, 0 m 10,0 l -10,0 l 0,40 l 10,0" style="fill: none; stroke-width: 2px; stroke: black;"></path><text lineHeight="1.2" class="djs-label" style="font-family: Arial, sans-serif; font-size: 12px; font-weight: normal; fill: black;"><tspan x="5" y="15.799999999999999">Trade created in</tspan><tspan x="5" y="30.199999999999996">IHLD</tspan></text></g><g class="djs-visual" id="Flow_0w0vy4o_label" transform="translate(38 896)"><text lineHeight="1.2" class="djs-label" style="font-family: Arial, sans-serif; font-size: 11px; font-weight: normal; fill: black;"><tspan x="0" y="9.899999999999999">Option input/ </tspan><tspan x="11.1669921875" y="23.099999999999998">selected</tspan></text></g><g class="djs-visual" id="Flow_07gpio3_label" transform="translate(37 1436)"><text lineHeight="1.2" class="djs-label" style="font-family: Arial, sans-serif; font-size: 11px; font-weight: normal; fill: black;"><tspan x="0" y="9.899999999999999">Equities options</tspan></text></g><g class="djs-visual" id="Flow_0v7gwsw_label" transform="translate(30 1710)"><text lineHeight="1.2" class="djs-label" style="font-family: Arial, sans-serif; font-size: 11px; font-weight: normal; fill: black;"><tspan x="0" y="9.899999999999999">Underlying security </tspan><tspan x="17.550048828125" y="23.099999999999998">to be settled</tspan></text></g><g class="djs-visual" id="Flow_13hhpzr_label" transform="translate(621 1708)"><text lineHeight="1.2" class="djs-label" style="font-family: Arial, sans-serif; font-size: 11px; font-weight: normal; fill: black;"><tspan x="0" y="9.899999999999999">Alternate instrument </tspan><tspan x="19.72119140625" y="23.099999999999998">to be settled</tspan></text></g><g class="djs-visual" id="Flow_1rtfg0s_label" transform="translate(915 1723)"><text lineHeight="1.2" class="djs-label" style="font-family: Arial, sans-serif; font-size: 11px; font-weight: normal; fill: black;"><tspan x="0" y="9.899999999999999">Cash to be settled</tspan></text></g><g class="djs-visual" id="Flow_1rmnizi_label" transform="translate(1251 1429)"><text lineHeight="1.2" class="djs-label" style="font-family: Arial, sans-serif; font-size: 11px; font-weight: normal; fill: black;"><tspan x="0" y="9.899999999999999">Commodities option</tspan></text></g><g class="djs-visual" id="Flow_1c4ozs6_label" transform="translate(1600 1436)"><text lineHeight="1.2" class="djs-label" style="font-family: Arial, sans-serif; font-size: 11px; font-weight: normal; fill: black;"><tspan x="0" y="9.899999999999999">FX Option</tspan></text></g><g class="djs-visual" id="Flow_1ue7lly_label" transform="translate(1588 1714)"><text lineHeight="1.2" class="djs-label" style="font-family: Arial, sans-serif; font-size: 11px; font-weight: normal; fill: black;"><tspan x="0" y="9.899999999999999">Currency to be </tspan><tspan x="19.8671875" y="23.099999999999998">settled</tspan></text></g><g class="djs-visual" id="Flow_0cpg04t_label" transform="translate(1920 1719)"><text lineHeight="1.2" class="djs-label" style="font-family: Arial, sans-serif; font-size: 11px; font-weight: normal; fill: black;"><tspan x="0" y="9.899999999999999">Cash to be settled</tspan></text></g><g class="djs-visual" id="Flow_00x4kfw_label" transform="translate(39 2306)"><text lineHeight="1.2" class="djs-label" style="font-family: Arial, sans-serif; font-size: 11px; font-weight: normal; fill: black;"><tspan x="0" y="9.899999999999999">No aggregation </tspan><tspan x="19.2578125" y="23.099999999999998">needed</tspan></text></g><g class="djs-visual" id="Flow_18gji2p_label" transform="translate(240 2306)"><text lineHeight="1.2" class="djs-label" style="font-family: Arial, sans-serif; font-size: 11px; font-weight: normal; fill: black;"><tspan x="0" y="9.899999999999999">Aggregation needed</tspan></text></g><g class="djs-visual" id="Association_0udckw7" transform="translate(0 0)"><polyline points="95,573 150,544 " style="fill: none; stroke: black; stroke-width: 2px; stroke-dasharray: 0.5, 5; stroke-linecap: round; stroke-linejoin: round;"></polyline></g><g class="djs-visual" id="Association_0ecbvp0" transform="translate(0 0)"><polyline points="595,405 660,370 " style="fill: none; stroke: black; stroke-width: 2px; stroke-dasharray: 0.5, 5; stroke-linecap: round; stroke-linejoin: round;"></polyline></g><g class="djs-visual" id="Association_11cax9h" transform="translate(0 0)"><polyline points="95,1500 150,1466 " style="fill: none; stroke: black; stroke-width: 2px; stroke-dasharray: 0.5, 5; stroke-linecap: round; stroke-linejoin: round;"></polyline></g><g class="djs-visual" id="Association_17xbor2" transform="translate(0 0)"><polyline points="955,1953 1000,1929 " style="fill: none; stroke: black; stroke-width: 2px; stroke-dasharray: 0.5, 5; stroke-linecap: round; stroke-linejoin: round;"></polyline></g><g class="djs-visual" id="Association_05e70dk" transform="translate(0 0)"><polyline points="1975,1960 2040,1920 " style="fill: none; stroke: black; stroke-width: 2px; stroke-dasharray: 0.5, 5; stroke-linecap: round; stroke-linejoin: round;"></polyline></g><g class="djs-visual" id="Association_0fzqlot" transform="translate(0 0)"><polyline points="93,2104 120,2085 " style="fill: none; stroke: black; stroke-width: 2px; stroke-dasharray: 0.5, 5; stroke-linecap: round; stroke-linejoin: round;"></polyline></g><g class="djs-visual" id="Association_0v7ya22" transform="translate(0 0)"><polyline points="315,2396 365,2386 " style="fill: none; stroke: black; stroke-width: 2px; stroke-dasharray: 0.5, 5; stroke-linecap: round; stroke-linejoin: round;"></polyline></g></g><g><rect class="viewport" x="-2695.2925764192137" y="47.01746724890829" width="7576.419213973799" height="2882.0960698689955"></rect></g></svg>