<svg width="100%" height="100%" viewBox="-82, -203, 1835, 2774"><g><g class="djs-visual" id="Flow_07tx4mz" transform="translate(0 0)"><path d="m  1210,1900L1210,1980 L815,1980 " style="fill: none; stroke-width: 2px; stroke: black; stroke-linejoin: round; marker-end: url(&quot;#sequenceflow-end-white-black-dpbrzsn0tlar7ma4c7n7lk849&quot;);"></path></g><g class="djs-visual" id="Flow_0uzn1bu" transform="translate(0 0)"><path d="m  1210,1740L1210,1800 " style="fill: none; stroke-width: 2px; stroke: black; stroke-linejoin: round; marker-end: url(&quot;#sequenceflow-end-white-black-dpbrzsn0tlar7ma4c7n7lk849&quot;);"></path></g><g class="djs-visual" id="Flow_1wh1r8l" transform="translate(0 0)"><path d="m  815,1550L1210,1550 L1210,1640 " style="fill: none; stroke-width: 2px; stroke: black; stroke-linejoin: round; marker-end: url(&quot;#sequenceflow-end-white-black-dpbrzsn0tlar7ma4c7n7lk849&quot;);"></path></g><g class="djs-visual" id="Flow_06v4zc1" transform="translate(0 0)"><path d="m  140,2390L140,2442 " style="fill: none; stroke-width: 2px; stroke: black; stroke-linejoin: round; marker-end: url(&quot;#sequenceflow-end-white-black-dpbrzsn0tlar7ma4c7n7lk849&quot;);"></path></g><g class="djs-visual" id="Flow_0dn04vl" transform="translate(0 0)"><path d="m  140,2230L140,2290 " style="fill: none; stroke-width: 2px; stroke: black; stroke-linejoin: round; marker-end: url(&quot;#sequenceflow-end-white-black-dpbrzsn0tlar7ma4c7n7lk849&quot;);"></path></g><g class="djs-visual" id="Flow_1lhwx33" transform="translate(0 0)"><path d="m  140,2065L140,2130 " style="fill: none; stroke-width: 2px; stroke: black; stroke-linejoin: round; marker-end: url(&quot;#sequenceflow-end-white-black-dpbrzsn0tlar7ma4c7n7lk849&quot;);"></path></g><g class="djs-visual" id="Flow_18t4qsg" transform="translate(0 0)"><path d="m  790,2005L790,2040 L165,2040 " style="fill: none; stroke-width: 2px; stroke: black; stroke-linejoin: round; marker-end: url(&quot;#sequenceflow-end-white-black-dpbrzsn0tlar7ma4c7n7lk849&quot;);"></path></g><g class="djs-visual" id="Flow_0oedjcw" transform="translate(0 0)"><path d="m  790,1900L790,1955 " style="fill: none; stroke-width: 2px; stroke: black; stroke-linejoin: round; marker-end: url(&quot;#sequenceflow-end-white-black-dpbrzsn0tlar7ma4c7n7lk849&quot;);"></path></g><g class="djs-visual" id="Flow_02o2kaz" transform="translate(0 0)"><path d="m  790,1740L790,1800 " style="fill: none; stroke-width: 2px; stroke: black; stroke-linejoin: round; marker-end: url(&quot;#sequenceflow-end-white-black-dpbrzsn0tlar7ma4c7n7lk849&quot;);"></path></g><g class="djs-visual" id="Flow_09p549e" transform="translate(0 0)"><path d="m  790,1575L790,1640 " style="fill: none; stroke-width: 2px; stroke: black; stroke-linejoin: round; marker-end: url(&quot;#sequenceflow-end-white-black-dpbrzsn0tlar7ma4c7n7lk849&quot;);"></path></g><g class="djs-visual" id="Flow_02jkvia" transform="translate(0 0)"><path d="m  790,1470L790,1525 " style="fill: none; stroke-width: 2px; stroke: black; stroke-linejoin: round; marker-end: url(&quot;#sequenceflow-end-white-black-dpbrzsn0tlar7ma4c7n7lk849&quot;);"></path></g><g class="djs-visual" id="Flow_1nc7lmy" transform="translate(0 0)"><path d="m  790,1310L790,1370 " style="fill: none; stroke-width: 2px; stroke: black; stroke-linejoin: round; marker-end: url(&quot;#sequenceflow-end-white-black-dpbrzsn0tlar7ma4c7n7lk849&quot;);"></path></g><g class="djs-visual" id="Flow_10el3cq" transform="translate(0 0)"><path d="m  790,1130L790,1210 " style="fill: none; stroke-width: 2px; stroke: black; stroke-linejoin: round; marker-end: url(&quot;#sequenceflow-end-white-black-dpbrzsn0tlar7ma4c7n7lk849&quot;);"></path></g><g class="djs-visual" id="Flow_087a0ay" transform="translate(0 0)"><path d="m  165,830L790,830 L790,1030 " style="fill: none; stroke-width: 2px; stroke: black; stroke-linejoin: round; marker-end: url(&quot;#sequenceflow-end-white-black-dpbrzsn0tlar7ma4c7n7lk849&quot;);"></path></g><g class="djs-visual" id="Flow_1cs49nf" transform="translate(0 0)"><path d="m  140,1470L140,2015 " style="fill: none; stroke-width: 2px; stroke: black; stroke-linejoin: round; marker-end: url(&quot;#sequenceflow-end-white-black-dpbrzsn0tlar7ma4c7n7lk849&quot;);"></path></g><g class="djs-visual" id="Flow_1o2eg83" transform="translate(0 0)"><path d="m  140,1310L140,1370 " style="fill: none; stroke-width: 2px; stroke: black; stroke-linejoin: round; marker-end: url(&quot;#sequenceflow-end-white-black-dpbrzsn0tlar7ma4c7n7lk849&quot;);"></path></g><g class="djs-visual" id="Flow_13czlk5" transform="translate(0 0)"><path d="m  140,1130L140,1210 " style="fill: none; stroke-width: 2px; stroke: black; stroke-linejoin: round; marker-end: url(&quot;#sequenceflow-end-white-black-dpbrzsn0tlar7ma4c7n7lk849&quot;);"></path></g><g class="djs-visual" id="Flow_166lw3k" transform="translate(0 0)"><path d="m  140,855L140,1030 " style="fill: none; stroke-width: 2px; stroke: black; stroke-linejoin: round; marker-end: url(&quot;#sequenceflow-end-white-black-dpbrzsn0tlar7ma4c7n7lk849&quot;);"></path></g><g class="djs-visual" id="Flow_0a28vr7" transform="translate(0 0)"><path d="m  140,750L140,805 " style="fill: none; stroke-width: 2px; stroke: black; stroke-linejoin: round; marker-end: url(&quot;#sequenceflow-end-white-black-dpbrzsn0tlar7ma4c7n7lk849&quot;);"></path></g><g class="djs-visual" id="Flow_0voqc6m" transform="translate(0 0)"><path d="m  140,590L140,650 " style="fill: none; stroke-width: 2px; stroke: black; stroke-linejoin: round; marker-end: url(&quot;#sequenceflow-end-white-black-dpbrzsn0tlar7ma4c7n7lk849&quot;);"></path></g><g class="djs-visual" id="Flow_13ygpv7" transform="translate(0 0)"><path d="m  140,430L140,490 " style="fill: none; stroke-width: 2px; stroke: black; stroke-linejoin: round; marker-end: url(&quot;#sequenceflow-end-white-black-dpbrzsn0tlar7ma4c7n7lk849&quot;);"></path></g><g class="djs-visual" id="Flow_0j5d4zf" transform="translate(0 0)"><path d="m  140,270L140,330 " style="fill: none; stroke-width: 2px; stroke: black; stroke-linejoin: round; marker-end: url(&quot;#sequenceflow-end-white-black-dpbrzsn0tlar7ma4c7n7lk849&quot;);"></path></g><g class="djs-visual" id="Flow_149r11t" transform="translate(0 0)"><path d="m  140,85L140,170 " style="fill: none; stroke-width: 2px; stroke: black; stroke-linejoin: round; marker-end: url(&quot;#sequenceflow-end-white-black-dpbrzsn0tlar7ma4c7n7lk849&quot;);"></path></g><g class="djs-visual" id="Flow_1ifx2ch" transform="translate(0 0)"><path d="m  350,-62L350,60 L165,60 " style="fill: none; stroke-width: 2px; stroke: black; stroke-linejoin: round; marker-end: url(&quot;#sequenceflow-end-white-black-dpbrzsn0tlar7ma4c7n7lk849&quot;);"></path></g><g class="djs-visual" id="Flow_0wn30ml" transform="translate(0 0)"><path d="m  140,-62L140,35 " style="fill: none; stroke-width: 2px; stroke: black; stroke-linejoin: round; marker-end: url(&quot;#sequenceflow-end-white-black-dpbrzsn0tlar7ma4c7n7lk849&quot;);"></path></g><g class="djs-visual" id="StartEvent_1bm324f" transform="translate(122 -98)"><circle cx="18" cy="18" r="18" style="stroke: black; stroke-width: 2px; fill: white; fill-opacity: 0.95;"></circle></g><g class="djs-visual" id="StartEvent_1bm324f_label" transform="translate(103 -147)"><text lineHeight="1.2" class="djs-label" style="font-family: Arial, sans-serif; font-size: 11px; font-weight: normal; fill: black;"><tspan x="0" y="9.899999999999999">Product details </tspan><tspan x="19.498291015625" y="23.099999999999998">agreed</tspan></text></g><g class="djs-visual" id="Event_05a6i9w" transform="translate(332 -98)"><circle cx="18" cy="18" r="18" style="stroke: black; stroke-width: 2px; fill: white; fill-opacity: 0.95;"></circle></g><g class="djs-visual" id="Event_05a6i9w_label" transform="translate(313 -147)"><text lineHeight="1.2" class="djs-label" style="font-family: Arial, sans-serif; font-size: 11px; font-weight: normal; fill: black;"><tspan x="0" y="9.899999999999999">Product details </tspan><tspan x="19.498291015625" y="23.099999999999998">agreed</tspan></text></g><g class="djs-visual" id="Gateway_16za3eh" transform="translate(115 35)"><polygon points="25,0 50,25 25,50 0,25" style="stroke: black; stroke-width: 2px; fill: white; fill-opacity: 0.95;"></polygon><path d="m 16,15 7.42857142857143,9.714285714285715 -7.42857142857143,9.714285714285715 3.428571428571429,0 5.714285714285715,-7.464228571428572 5.714285714285715,7.464228571428572 3.428571428571429,0 -7.42857142857143,-9.714285714285715 7.42857142857143,-9.714285714285715 -3.428571428571429,0 -5.714285714285715,7.464228571428572 -5.714285714285715,-7.464228571428572 -3.428571428571429,0 z" style="fill: black; stroke-width: 1px; stroke: black;"></path></g><g class="djs-visual" id="Activity_05snhhr" transform="translate(75 170)"><rect x="0" y="0" width="130" height="100" rx="10" ry="10" style="stroke: black; stroke-width: 2px; fill: white; fill-opacity: 0.95;"></rect><text lineHeight="1.2" class="djs-label" style="font-family: Arial, sans-serif; font-size: 12px; font-weight: normal; fill: black;"><tspan x="23.4853515625" y="46.4">Confirm type of </tspan><tspan x="45.3193359375" y="60.8">deposit</tspan></text></g><g class="djs-visual" id="DataObjectReference_1wo5758" transform="translate(2 195)"><path d="m 0,0 28.23529411764706,0 7.058823529411765,8.196721311475411 0,40.98360655737705 -35.294117647058826,0 0,-49.18032786885246 28.23529411764706,0 0,8.196721311475411 7.058823529411765,0" style="fill: white; stroke-width: 2px; stroke: black; fill-opacity: 0.95;"></path></g><g class="djs-visual" id="DataObjectReference_1wo5758_label" transform="translate(-26 252)"><text lineHeight="1.2" class="djs-label" style="font-family: Arial, sans-serif; font-size: 11px; font-weight: normal; fill: black;"><tspan x="0" y="9.899999999999999">Customer Request</tspan></text></g><g class="djs-visual" id="Activity_1bt9l9g" transform="translate(75 330)"><rect x="0" y="0" width="130" height="100" rx="10" ry="10" style="stroke: black; stroke-width: 2px; fill: white; fill-opacity: 0.95;"></rect><text lineHeight="1.2" class="djs-label" style="font-family: Arial, sans-serif; font-size: 12px; font-weight: normal; fill: black;"><tspan x="8.96875" y="46.4">Choose product from </tspan><tspan x="45.4892578125" y="60.8">catalog</tspan></text></g><g class="djs-visual" id="Activity_0x9iuui" transform="translate(75 490)"><rect x="0" y="0" width="130" height="100" rx="10" ry="10" style="stroke: black; stroke-width: 2px; fill: white; fill-opacity: 0.95;"></rect><text lineHeight="1.2" class="djs-label" style="font-family: Arial, sans-serif; font-size: 12px; font-weight: normal; fill: black;"><tspan x="34.8125" y="46.4">Set up new </tspan><tspan x="30.6474609375" y="60.8">arrangement</tspan></text></g><g class="djs-visual" id="Activity_0a83guv" transform="translate(75 650)"><rect x="0" y="0" width="130" height="100" rx="10" ry="10" style="stroke: black; stroke-width: 2px; fill: white; fill-opacity: 0.95;"></rect><text lineHeight="1.2" class="djs-label" style="font-family: Arial, sans-serif; font-size: 12px; font-weight: normal; fill: black;"><tspan x="24.474609375" y="39.2">Decide on auto </tspan><tspan x="14.46875" y="53.6">funding/ settlement </tspan><tspan x="34.6484375" y="68">instructions</tspan></text></g><g class="djs-visual" id="Gateway_08m0fp6" transform="translate(115 805)"><polygon points="25,0 50,25 25,50 0,25" style="stroke: black; stroke-width: 2px; fill: white; fill-opacity: 0.95;"></polygon><path d="m 16,15 7.42857142857143,9.714285714285715 -7.42857142857143,9.714285714285715 3.428571428571429,0 5.714285714285715,-7.464228571428572 5.714285714285715,7.464228571428572 3.428571428571429,0 -7.42857142857143,-9.714285714285715 7.42857142857143,-9.714285714285715 -3.428571428571429,0 -5.714285714285715,7.464228571428572 -5.714285714285715,-7.464228571428572 -3.428571428571429,0 z" style="fill: black; stroke-width: 1px; stroke: black;"></path></g><g class="djs-visual" id="Activity_052mu8i" transform="translate(75 1030)"><rect x="0" y="0" width="130" height="100" rx="10" ry="10" style="stroke: black; stroke-width: 2px; fill: white; fill-opacity: 0.95;"></rect><text lineHeight="1.2" class="djs-label" style="font-family: Arial, sans-serif; font-size: 12px; font-weight: normal; fill: black;"><tspan x="10.95703125" y="46.4">Set up auto funding/ </tspan><tspan x="5.3046875" y="60.8">settlement instructions</tspan></text></g><g class="djs-visual" id="Activity_0xxhz65" transform="translate(75 1210)"><rect x="0" y="0" width="130" height="100" rx="10" ry="10" style="stroke: black; stroke-width: 2px; fill: white; fill-opacity: 0.95;"></rect><text lineHeight="1.2" class="djs-label" style="font-family: Arial, sans-serif; font-size: 12px; font-weight: normal; fill: black;"><tspan x="11.8037109375" y="46.4">Verify and authorise </tspan><tspan x="17.9736328125" y="60.8">new arrangement</tspan></text></g><g class="djs-visual" id="Activity_0kzs9iq" transform="translate(75 1370)"><rect x="0" y="0" width="130" height="100" rx="10" ry="10" style="stroke: black; stroke-width: 2px; fill: white; fill-opacity: 0.95;"></rect><text lineHeight="1.2" class="djs-label" style="font-family: Arial, sans-serif; font-size: 12px; font-weight: normal; fill: black;"><tspan x="15.3095703125" y="46.4">Activate Mudaraba </tspan><tspan x="44.3232421875" y="60.8">Deposit</tspan></text></g><g class="djs-visual" id="Gateway_0cidefq" transform="translate(115 2015)"><polygon points="25,0 50,25 25,50 0,25" style="stroke: black; stroke-width: 2px; fill: white; fill-opacity: 0.95;"></polygon><path d="m 16,15 7.42857142857143,9.714285714285715 -7.42857142857143,9.714285714285715 3.428571428571429,0 5.714285714285715,-7.464228571428572 5.714285714285715,7.464228571428572 3.428571428571429,0 -7.42857142857143,-9.714285714285715 7.42857142857143,-9.714285714285715 -3.428571428571429,0 -5.714285714285715,7.464228571428572 -5.714285714285715,-7.464228571428572 -3.428571428571429,0 z" style="fill: black; stroke-width: 1px; stroke: black;"></path></g><g class="djs-visual" id="Activity_0nva8y7" transform="translate(725 1030)"><rect x="0" y="0" width="130" height="100" rx="10" ry="10" style="stroke: black; stroke-width: 2px; fill: white; fill-opacity: 0.95;"></rect><text lineHeight="1.2" class="djs-label" style="font-family: Arial, sans-serif; font-size: 12px; font-weight: normal; fill: black;"><tspan x="11.8037109375" y="46.4">Verify and authorise </tspan><tspan x="17.9736328125" y="60.8">new arrangement</tspan></text></g><g class="djs-visual" id="Activity_0f6rfqe" transform="translate(725 1210)"><rect x="0" y="0" width="130" height="100" rx="10" ry="10" style="stroke: black; stroke-width: 2px; fill: white; fill-opacity: 0.95;"></rect><text lineHeight="1.2" class="djs-label" style="font-family: Arial, sans-serif; font-size: 12px; font-weight: normal; fill: black;"><tspan x="11.3046875" y="46.4">Authorise Mudaraba </tspan><tspan x="44.3232421875" y="60.8">Deposit</tspan></text></g><g class="djs-visual" id="Activity_06r7tfi" transform="translate(725 1370)"><rect x="0" y="0" width="130" height="100" rx="10" ry="10" style="stroke: black; stroke-width: 2px; fill: white; fill-opacity: 0.95;"></rect><text lineHeight="1.2" class="djs-label" style="font-family: Arial, sans-serif; font-size: 12px; font-weight: normal; fill: black;"><tspan x="11.1357421875" y="46.4">Decide on the mode </tspan><tspan x="17.466796875" y="60.8">of deposit funding</tspan></text></g><g class="djs-visual" id="Gateway_11w7wsu" transform="translate(765 1525)"><polygon points="25,0 50,25 25,50 0,25" style="stroke: black; stroke-width: 2px; fill: white; fill-opacity: 0.95;"></polygon><path d="m 16,15 7.42857142857143,9.714285714285715 -7.42857142857143,9.714285714285715 3.428571428571429,0 5.714285714285715,-7.464228571428572 5.714285714285715,7.464228571428572 3.428571428571429,0 -7.42857142857143,-9.714285714285715 7.42857142857143,-9.714285714285715 -3.428571428571429,0 -5.714285714285715,7.464228571428572 -5.714285714285715,-7.464228571428572 -3.428571428571429,0 z" style="fill: black; stroke-width: 1px; stroke: black;"></path></g><g class="djs-visual" id="Activity_1845a47" transform="translate(725 1640)"><rect x="0" y="0" width="130" height="100" rx="10" ry="10" style="stroke: black; stroke-width: 2px; fill: white; fill-opacity: 0.95;"></rect><text lineHeight="1.2" class="djs-label" style="font-family: Arial, sans-serif; font-size: 12px; font-weight: normal; fill: black;"><tspan x="11.2890625" y="53.599999999999994">Input funding details</tspan></text></g><g class="djs-visual" id="Activity_078gpyg" transform="translate(725 1800)"><rect x="0" y="0" width="130" height="100" rx="10" ry="10" style="stroke: black; stroke-width: 2px; fill: white; fill-opacity: 0.95;"></rect><text lineHeight="1.2" class="djs-label" style="font-family: Arial, sans-serif; font-size: 12px; font-weight: normal; fill: black;"><tspan x="18.8046875" y="46.4">Authorise deposit </tspan><tspan x="45.65234375" y="60.8">funding</tspan></text></g><g class="djs-visual" id="Gateway_123zja7" transform="translate(765 1955)"><polygon points="25,0 50,25 25,50 0,25" style="stroke: black; stroke-width: 2px; fill: white; fill-opacity: 0.95;"></polygon><path d="m 16,15 7.42857142857143,9.714285714285715 -7.42857142857143,9.714285714285715 3.428571428571429,0 5.714285714285715,-7.464228571428572 5.714285714285715,7.464228571428572 3.428571428571429,0 -7.42857142857143,-9.714285714285715 7.42857142857143,-9.714285714285715 -3.428571428571429,0 -5.714285714285715,7.464228571428572 -5.714285714285715,-7.464228571428572 -3.428571428571429,0 z" style="fill: black; stroke-width: 1px; stroke: black;"></path></g><g class="djs-visual" id="Activity_1mhl3bf" transform="translate(75 2130)"><rect x="0" y="0" width="130" height="100" rx="10" ry="10" style="stroke: black; stroke-width: 2px; fill: white; fill-opacity: 0.95;"></rect><text lineHeight="1.2" class="djs-label" style="font-family: Arial, sans-serif; font-size: 12px; font-weight: normal; fill: black;"><tspan x="20.8095703125" y="53.599999999999994">Generate advice</tspan></text></g><g class="djs-visual" id="DataObjectReference_1xz0mtr" transform="translate(242 2155)"><path d="m 0,0 28.23529411764706,0 7.058823529411765,8.196721311475411 0,40.98360655737705 -35.294117647058826,0 0,-49.18032786885246 28.23529411764706,0 0,8.196721311475411 7.058823529411765,0" style="fill: white; stroke-width: 2px; stroke: black; fill-opacity: 0.95;"></path></g><g class="djs-visual" id="DataObjectReference_1xz0mtr_label" transform="translate(224 2212)"><text lineHeight="1.2" class="djs-label" style="font-family: Arial, sans-serif; font-size: 11px; font-weight: normal; fill: black;"><tspan x="0" y="9.899999999999999">Deposit Advice</tspan></text></g><g class="djs-visual" id="Activity_0mhn4hl" transform="translate(75 2290)"><rect x="0" y="0" width="130" height="100" rx="10" ry="10" style="stroke: black; stroke-width: 2px; fill: white; fill-opacity: 0.95;"></rect><text lineHeight="1.2" class="djs-label" style="font-family: Arial, sans-serif; font-size: 12px; font-weight: normal; fill: black;"><tspan x="20.484375" y="46.4">Deliver advice to </tspan><tspan x="38.4912109375" y="60.8">Customer</tspan></text></g><g class="djs-visual" id="DataObjectReference_0gnf43j" transform="translate(242 2315)"><path d="m 0,0 28.23529411764706,0 7.058823529411765,8.196721311475411 0,40.98360655737705 -35.294117647058826,0 0,-49.18032786885246 28.23529411764706,0 0,8.196721311475411 7.058823529411765,0" style="fill: white; stroke-width: 2px; stroke: black; fill-opacity: 0.95;"></path></g><g class="djs-visual" id="DataObjectReference_0gnf43j_label" transform="translate(224 2372)"><text lineHeight="1.2" class="djs-label" style="font-family: Arial, sans-serif; font-size: 11px; font-weight: normal; fill: black;"><tspan x="0" y="9.899999999999999">Deposit Advice</tspan></text></g><g class="djs-visual" id="Event_1kz9z3e" transform="translate(122 2442)"><circle cx="18" cy="18" r="18" style="stroke: black; stroke-width: 4px; fill: white; fill-opacity: 0.95;"></circle></g><g class="djs-visual" id="Event_1kz9z3e_label" transform="translate(95 2488)"><text lineHeight="1.2" class="djs-label" style="font-family: Arial, sans-serif; font-size: 11px; font-weight: normal; fill: black;"><tspan x="0" y="9.899999999999999">Mudaraba Deposit </tspan><tspan x="27.06298828125" y="23.099999999999998">created</tspan></text></g><g class="djs-visual" id="Activity_02j1i0w" transform="translate(1145 1640)"><rect x="0" y="0" width="130" height="100" rx="10" ry="10" style="stroke: black; stroke-width: 2px; fill: white; fill-opacity: 0.95;"></rect><text lineHeight="1.2" class="djs-label" style="font-family: Arial, sans-serif; font-size: 12px; font-weight: normal; fill: black;"><tspan x="11.2890625" y="53.599999999999994">Input funding details</tspan></text></g><g class="djs-visual" id="Activity_0knraox" transform="translate(1145 1800)"><rect x="0" y="0" width="130" height="100" rx="10" ry="10" style="stroke: black; stroke-width: 2px; fill: white; fill-opacity: 0.95;"></rect><text lineHeight="1.2" class="djs-label" style="font-family: Arial, sans-serif; font-size: 12px; font-weight: normal; fill: black;"><tspan x="18.8046875" y="46.4">Authorise deposit </tspan><tspan x="45.65234375" y="60.8">funding</tspan></text></g><g class="djs-visual" id="TextAnnotation_007w7le" transform="translate(280 90)"><rect x="0" y="0" width="230" height="130" rx="0" ry="0" style="stroke: none; stroke-width: 2px; fill: none;"></rect><path d="m 0, 0 m 10,0 l -10,0 l 0,130 l 10,0" style="fill: none; stroke-width: 2px; stroke: black;"></path><text lineHeight="1.2" class="djs-label" style="font-family: Arial, sans-serif; font-size: 12px; font-weight: normal; fill: black;"><tspan x="5" y="15.799999999999999">- 1 month&nbsp;</tspan><tspan x="5" y="30.199999999999996">- 3 months&nbsp;</tspan><tspan x="5" y="44.599999999999994">- 6 months&nbsp;</tspan><tspan x="5" y="58.99999999999999">- 12 months</tspan><tspan x="5" y="73.39999999999999">- 2 years&nbsp; &nbsp; &nbsp;</tspan><tspan x="5" y="87.79999999999998">- Long Term</tspan><tspan x="5" y="102.19999999999999">- Advance Profit Fixed Mudaraba Deposit</tspan><tspan x="5" y="116.6">- Mudaraba Savings Plan</tspan></text></g><g class="djs-visual" id="TextAnnotation_1ug4cxz" transform="translate(280 390)"><rect x="0" y="0" width="380" height="228" rx="0" ry="0" style="stroke: none; stroke-width: 2px; fill: none;"></rect><path d="m 0, 0 m 10,0 l -10,0 l 0,228 l 10,0" style="fill: none; stroke-width: 2px; stroke: black;"></path><text lineHeight="1.2" class="djs-label" style="font-family: Arial, sans-serif; font-size: 12px; font-weight: normal; fill: black;"><tspan x="5" y="15.799999999999999">Input</tspan><tspan x="5" y="30.199999999999996">- Customer Number, Currency</tspan><tspan x="5" y="44.599999999999994">- Branch, Line of Business (optional)</tspan><tspan x="5" y="58.99999999999999">- Deposit amount, Term</tspan><tspan x="5" y="73.39999999999999">- Special HIBA Profit Rate</tspan><tspan x="5" y="87.79999999999998">- Closure Type/ Method</tspan><tspan x="5" y="102.19999999999999">- Profit Pay Method</tspan><tspan x="5" y="116.6">- Pool ID (if not defaulted based on condition)</tspan><tspan x="5" y="131">- Apply PDS Profit Rate (For Fixed Profit Mudaraba Deposits)</tspan><tspan x="5" y="145.4">- Pay Special Profit at Maturity&nbsp;</tspan><tspan x="5" y="159.8">- Profit Capitalisation</tspan><tspan x="5" y="174.20000000000002">- Recalc Profit</tspan><tspan x="5" y="188.60000000000002">Note: Various attributes are defaulted from the product which can be</tspan><tspan x="5" y="203.00000000000003">amended wherever required (e.g. Tax, Alerts etc.) System generates </tspan><tspan x="5" y="217.40000000000003">Arrangement ID automatically</tspan></text></g><g class="djs-visual" id="TextAnnotation_1hrqwpl" transform="translate(280 910)"><rect x="0" y="0" width="390" height="160" rx="0" ry="0" style="stroke: none; stroke-width: 2px; fill: none;"></rect><path d="m 0, 0 m 10,0 l -10,0 l 0,160 l 10,0" style="fill: none; stroke-width: 2px; stroke: black;"></path><text lineHeight="1.2" class="djs-label" style="font-family: Arial, sans-serif; font-size: 12px; font-weight: normal; fill: black;"><tspan x="5" y="15.799999999999999">Auto funding/ Settlement can be performed for AA deposits</tspan><tspan x="5" y="30.199999999999996">The following details are given</tspan><tspan x="5" y="44.599999999999994">- PAYIN.ACCOUNT OR PAYIN.BENEFICIARY</tspan><tspan x="5" y="58.99999999999999">- PAYOUT.ACCOUNT OR PAYOUT.BENEFICIARY</tspan><tspan x="5" y="73.39999999999999">There are three types of auto funding</tspan><tspan x="5" y="87.79999999999998">- Full funding</tspan><tspan x="5" y="102.19999999999999">- Partial funding (deposit to be funded to extent of the funds</tspan><tspan x="5" y="116.6">&nbsp; available in the account)</tspan><tspan x="5" y="131">- None (If the balance is fully sufficient the deposit would be fully</tspan><tspan x="5" y="145.4">&nbsp; funded from the account, else no auto funding would take place)</tspan></text></g><g class="djs-visual" id="TextAnnotation_1e5ensw" transform="translate(280 1150)"><rect x="0" y="0" width="200" height="40" rx="0" ry="0" style="stroke: none; stroke-width: 2px; fill: none;"></rect><path d="m 0, 0 m 10,0 l -10,0 l 0,40 l 10,0" style="fill: none; stroke-width: 2px; stroke: black;"></path><text lineHeight="1.2" class="djs-label" style="font-family: Arial, sans-serif; font-size: 12px; font-weight: normal; fill: black;"><tspan x="5" y="15.799999999999999">Input 'Arrangement ID', verify </tspan><tspan x="5" y="30.199999999999996">particulars of AA and authorise</tspan></text></g><g class="djs-visual" id="TextAnnotation_0iixzwz" transform="translate(910 985)"><rect x="0" y="0" width="180" height="40" rx="0" ry="0" style="stroke: none; stroke-width: 2px; fill: none;"></rect><path d="m 0, 0 m 10,0 l -10,0 l 0,40 l 10,0" style="fill: none; stroke-width: 2px; stroke: black;"></path><text lineHeight="1.2" class="djs-label" style="font-family: Arial, sans-serif; font-size: 12px; font-weight: normal; fill: black;"><tspan x="5" y="15.799999999999999">Input 'Arrangement ID', verify </tspan><tspan x="5" y="30.199999999999996">particulars of AA and authorise</tspan></text></g><g class="djs-visual" id="TextAnnotation_1hqd5yp" transform="translate(910 1140)"><rect x="0" y="0" width="200" height="50" rx="0" ry="0" style="stroke: none; stroke-width: 2px; fill: none;"></rect><path d="m 0, 0 m 10,0 l -10,0 l 0,50 l 10,0" style="fill: none; stroke-width: 2px; stroke: black;"></path><text lineHeight="1.2" class="djs-label" style="font-family: Arial, sans-serif; font-size: 12px; font-weight: normal; fill: black;"><tspan x="5" y="15.799999999999999">Once an AA deposit is authorised. </tspan><tspan x="5" y="30.199999999999996">Due bill is generated which needs </tspan><tspan x="5" y="44.599999999999994">to be funded</tspan></text></g><g class="djs-visual" id="TextAnnotation_1dybucl" transform="translate(910 1297)"><rect x="0" y="0" width="290" height="70" rx="0" ry="0" style="stroke: none; stroke-width: 2px; fill: none;"></rect><path d="m 0, 0 m 10,0 l -10,0 l 0,70 l 10,0" style="fill: none; stroke-width: 2px; stroke: black;"></path><text lineHeight="1.2" class="djs-label" style="font-family: Arial, sans-serif; font-size: 12px; font-weight: normal; fill: black;"><tspan x="5" y="15.799999999999999">Note: Based on pre-defined parameters,</tspan><tspan x="5" y="30.199999999999996">if the funding does not happen before a</tspan><tspan x="5" y="44.599999999999994">fixed number of days defined in the cancel period,</tspan><tspan x="5" y="58.99999999999999">the system automatically cancels the deposit</tspan></text></g><g class="djs-visual" id="TextAnnotation_0xpq9dz" transform="translate(890 1620)"><rect x="0" y="0" width="170" height="84" rx="0" ry="0" style="stroke: none; stroke-width: 2px; fill: none;"></rect><path d="m 0, 0 m 10,0 l -10,0 l 0,84 l 10,0" style="fill: none; stroke-width: 2px; stroke: black;"></path><text lineHeight="1.2" class="djs-label" style="font-family: Arial, sans-serif; font-size: 12px; font-weight: normal; fill: black;"><tspan x="5" y="15.799999999999999">- Arrangement Id</tspan><tspan x="5" y="30.199999999999996">- Credit and Debit Accounts</tspan><tspan x="5" y="44.599999999999994">- Value date</tspan><tspan x="5" y="58.99999999999999">- Treasury rates</tspan><tspan x="5" y="73.39999999999999">- Spread etc.</tspan></text></g><g class="djs-visual" id="TextAnnotation_0ewci7f" transform="translate(1330 1618)"><rect x="0" y="0" width="160" height="88" rx="0" ry="0" style="stroke: none; stroke-width: 2px; fill: none;"></rect><path d="m 0, 0 m 10,0 l -10,0 l 0,88 l 10,0" style="fill: none; stroke-width: 2px; stroke: black;"></path><text lineHeight="1.2" class="djs-label" style="font-family: Arial, sans-serif; font-size: 12px; font-weight: normal; fill: black;"><tspan x="5" y="15.799999999999999">- Customer</tspan><tspan x="5" y="30.199999999999996">- Currency&nbsp;</tspan><tspan x="5" y="44.599999999999994">- Arrangement Id</tspan><tspan x="5" y="58.99999999999999">- Value date</tspan><tspan x="5" y="73.39999999999999">- Cash denomination etc.</tspan></text></g><g class="djs-visual" id="DataInputAssociation_1ygucsc" transform="translate(0 0)"><polyline points="38,220 75,220 " style="fill: none; stroke: black; stroke-width: 2px; stroke-dasharray: 0.5, 5; stroke-linecap: round; stroke-linejoin: round; marker-end: url(&quot;#association-end-white-black-dpbrzsn0tlar7ma4c7n7lk849&quot;);"></polyline></g><g class="djs-visual" id="Flow_166lw3k_label" transform="translate(153 883)"><text lineHeight="1.2" class="djs-label" style="font-family: Arial, sans-serif; font-size: 11px; font-weight: normal; fill: black;"><tspan x="9.191650390625" y="9.899999999999999">Auto funding/ </tspan><tspan x="15.733154296875" y="23.099999999999998">settlement </tspan><tspan x="0" y="36.3">instructions to be </tspan><tspan x="28.4296875" y="49.5">given</tspan></text></g><g class="djs-visual" id="Flow_087a0ay_label" transform="translate(816 896)"><text lineHeight="1.2" class="djs-label" style="font-family: Arial, sans-serif; font-size: 11px; font-weight: normal; fill: black;"><tspan x="0" y="9.899999999999999">Manual funding to </tspan><tspan x="11.0078125" y="23.099999999999998">be performed</tspan></text></g><g class="djs-visual" id="Flow_09p549e_label" transform="translate(799 1586)"><text lineHeight="1.2" class="djs-label" style="font-family: Arial, sans-serif; font-size: 11px; font-weight: normal; fill: black;"><tspan x="0" y="9.899999999999999">Funding through </tspan><tspan x="3.93408203125" y="23.099999999999998">Funds transfer</tspan></text></g><g class="djs-visual" id="DataOutputAssociation_0n7g9bh" transform="translate(0 0)"><polyline points="205,2180 242,2180 " style="fill: none; stroke: black; stroke-width: 2px; stroke-dasharray: 0.5, 5; stroke-linecap: round; stroke-linejoin: round; marker-end: url(&quot;#association-end-white-black-dpbrzsn0tlar7ma4c7n7lk849&quot;);"></polyline></g><g class="djs-visual" id="Flow_1lhwx33_label" transform="translate(149 2080)"><text lineHeight="1.2" class="djs-label" style="font-family: Arial, sans-serif; font-size: 11px; font-weight: normal; fill: black;"><tspan x="0" y="9.899999999999999">Funding details </tspan><tspan x="16.14599609375" y="23.099999999999998">captured</tspan></text></g><g class="djs-visual" id="DataOutputAssociation_0bau1xi" transform="translate(0 0)"><polyline points="205,2340 242,2340 " style="fill: none; stroke: black; stroke-width: 2px; stroke-dasharray: 0.5, 5; stroke-linecap: round; stroke-linejoin: round; marker-end: url(&quot;#association-end-white-black-dpbrzsn0tlar7ma4c7n7lk849&quot;);"></polyline></g><g class="djs-visual" id="Flow_1wh1r8l_label" transform="translate(1229 1586)"><text lineHeight="1.2" class="djs-label" style="font-family: Arial, sans-serif; font-size: 11px; font-weight: normal; fill: black;"><tspan x="0" y="9.899999999999999">Funding through </tspan><tspan x="26.7509765625" y="23.099999999999998">Teller</tspan></text></g><g class="djs-visual" id="Association_1yef6j1" transform="translate(0 0)"><polyline points="205,189 280,150 " style="fill: none; stroke: black; stroke-width: 2px; stroke-dasharray: 0.5, 5; stroke-linecap: round; stroke-linejoin: round;"></polyline></g><g class="djs-visual" id="Association_0q9rjwf" transform="translate(0 0)"><polyline points="205,501 280,458 " style="fill: none; stroke: black; stroke-width: 2px; stroke-dasharray: 0.5, 5; stroke-linecap: round; stroke-linejoin: round;"></polyline></g><g class="djs-visual" id="Association_12ul1iq" transform="translate(0 0)"><polyline points="205,1040 280,993 " style="fill: none; stroke: black; stroke-width: 2px; stroke-dasharray: 0.5, 5; stroke-linecap: round; stroke-linejoin: round;"></polyline></g><g class="djs-visual" id="Association_1r70ykf" transform="translate(0 0)"><polyline points="205,1221 280,1178 " style="fill: none; stroke: black; stroke-width: 2px; stroke-dasharray: 0.5, 5; stroke-linecap: round; stroke-linejoin: round;"></polyline></g><g class="djs-visual" id="Association_1ve8zq5" transform="translate(0 0)"><polyline points="855,1039 910,1005 " style="fill: none; stroke: black; stroke-width: 2px; stroke-dasharray: 0.5, 5; stroke-linecap: round; stroke-linejoin: round;"></polyline></g><g class="djs-visual" id="Association_03nu0zy" transform="translate(0 0)"><polyline points="851,1212 910,1165 " style="fill: none; stroke: black; stroke-width: 2px; stroke-dasharray: 0.5, 5; stroke-linecap: round; stroke-linejoin: round;"></polyline></g><g class="djs-visual" id="Association_1hj6v50" transform="translate(0 0)"><polyline points="852,1373 910,1328 " style="fill: none; stroke: black; stroke-width: 2px; stroke-dasharray: 0.5, 5; stroke-linecap: round; stroke-linejoin: round;"></polyline></g><g class="djs-visual" id="Association_1j4afgo" transform="translate(0 0)"><polyline points="855,1657 890,1640 " style="fill: none; stroke: black; stroke-width: 2px; stroke-dasharray: 0.5, 5; stroke-linecap: round; stroke-linejoin: round;"></polyline></g><g class="djs-visual" id="Association_0xqtegc" transform="translate(0 0)"><polyline points="1275,1661 1330,1639 " style="fill: none; stroke: black; stroke-width: 2px; stroke-dasharray: 0.5, 5; stroke-linecap: round; stroke-linejoin: round;"></polyline></g></g><g><rect class="viewport" x="-2780.676113360324" y="-152.89068825910934" width="7024.291497975709" height="2672.064777327935"></rect></g></svg>