<svg width="100%" height="100%" viewBox="-181, -104, 1835, 1055"><g><g class="djs-visual" id="Flow_00kl1f7" transform="translate(0 0)"><path d="m  -60,780L-60,822 " style="fill: none; stroke-width: 2px; stroke: black; stroke-linejoin: round; marker-end: url(&quot;#sequenceflow-end-white-black-0xyol39c2kadcfdayb6mpru8r&quot;);"></path></g><g class="djs-visual" id="Flow_197douv" transform="translate(0 0)"><path d="m  -60,635L-60,680 " style="fill: none; stroke-width: 2px; stroke: black; stroke-linejoin: round; marker-end: url(&quot;#sequenceflow-end-white-black-0xyol39c2kadcfdayb6mpru8r&quot;);"></path></g><g class="djs-visual" id="Flow_1wzgvtj" transform="translate(0 0)"><path d="m  220,560L220,610 L-35,610 " style="fill: none; stroke-width: 2px; stroke: black; stroke-linejoin: round; marker-end: url(&quot;#sequenceflow-end-white-black-0xyol39c2kadcfdayb6mpru8r&quot;);"></path></g><g class="djs-visual" id="Flow_0drdjsp" transform="translate(0 0)"><path d="m  -60,210L-60,585 " style="fill: none; stroke-width: 2px; stroke: black; stroke-linejoin: round; marker-end: url(&quot;#sequenceflow-end-white-black-0xyol39c2kadcfdayb6mpru8r&quot;);"></path></g><g class="djs-visual" id="Flow_0ee3btu" transform="translate(0 0)"><path d="m  220,380L220,460 " style="fill: none; stroke-width: 2px; stroke: black; stroke-linejoin: round; marker-end: url(&quot;#sequenceflow-end-white-black-0xyol39c2kadcfdayb6mpru8r&quot;);"></path></g><g class="djs-visual" id="Flow_16licpu" transform="translate(0 0)"><path d="m  220,210L220,280 " style="fill: none; stroke-width: 2px; stroke: black; stroke-linejoin: round; marker-end: url(&quot;#sequenceflow-end-white-black-0xyol39c2kadcfdayb6mpru8r&quot;);"></path></g><g class="djs-visual" id="Flow_0awtifq" transform="translate(0 0)"><path d="m  220,38L220,110 " style="fill: none; stroke-width: 2px; stroke: black; stroke-linejoin: round; marker-end: url(&quot;#sequenceflow-end-white-black-0xyol39c2kadcfdayb6mpru8r&quot;);"></path></g><g class="djs-visual" id="Flow_0uptano" transform="translate(0 0)"><path d="m  -60,38L-60,110 " style="fill: none; stroke-width: 2px; stroke: black; stroke-linejoin: round; marker-end: url(&quot;#sequenceflow-end-white-black-0xyol39c2kadcfdayb6mpru8r&quot;);"></path></g><g class="djs-visual" id="StartEvent_1bm324f" transform="translate(-78 2)"><circle cx="18" cy="18" r="18" style="stroke: black; stroke-width: 2px; fill: white; fill-opacity: 0.95;"></circle></g><g class="djs-visual" id="StartEvent_1bm324f_label" transform="translate(-107 -34)"><text lineHeight="1.2" class="djs-label" style="font-family: Arial, sans-serif; font-size: 11px; font-weight: normal; fill: black;"><tspan x="0" y="9.899999999999999">Derivative prices to </tspan><tspan x="12.21875" y="23.099999999999998">be maintained</tspan></text></g><g class="djs-visual" id="Event_1de1fbm" transform="translate(202 2)"><circle cx="18" cy="18" r="18" style="stroke: black; stroke-width: 2px; fill: white; fill-opacity: 0.95;"></circle></g><g class="djs-visual" id="Event_1de1fbm_label" transform="translate(173 -48)"><text lineHeight="1.2" class="djs-label" style="font-family: Arial, sans-serif; font-size: 11px; font-weight: normal; fill: black;"><tspan x="4.296875" y="9.899999999999999">Derivative prices to</tspan><tspan x="0" y="23.099999999999998">be manually updated</tspan></text></g><g class="djs-visual" id="Activity_1ohmxkm" transform="translate(-125 110)"><rect x="0" y="0" width="130" height="100" rx="10" ry="10" style="stroke: black; stroke-width: 2px; fill: white; fill-opacity: 0.95;"></rect><text lineHeight="1.2" class="djs-label" style="font-family: Arial, sans-serif; font-size: 12px; font-weight: normal; fill: black;"><tspan x="14.4814453125" y="46.4">Receive daily price </tspan><tspan x="11.984375" y="60.8">from 3rd Party Feed</tspan></text></g><g class="djs-visual" id="Activity_1q8zpx7" transform="translate(155 110)"><rect x="0" y="0" width="130" height="100" rx="10" ry="10" style="stroke: black; stroke-width: 2px; fill: white; fill-opacity: 0.95;"></rect><text lineHeight="1.2" class="djs-label" style="font-family: Arial, sans-serif; font-size: 12px; font-weight: normal; fill: black;"><tspan x="8.9765625" y="39.2">Check for derivatives</tspan><tspan x="26.4765625" y="53.6">to be manually </tspan><tspan x="43.1484375" y="68">updated</tspan></text></g><g class="djs-visual" id="Activity_1768yg2" transform="translate(155 280)"><rect x="0" y="0" width="130" height="100" rx="10" ry="10" style="stroke: black; stroke-width: 2px; fill: white; fill-opacity: 0.95;"></rect><text lineHeight="1.2" class="djs-label" style="font-family: Arial, sans-serif; font-size: 12px; font-weight: normal; fill: black;"><tspan x="18.9765625" y="46.4">Obtain price from </tspan><tspan x="23.984375" y="60.8">market sources</tspan></text></g><g class="djs-visual" id="Activity_0l0s0p9" transform="translate(155 460)"><rect x="0" y="0" width="130" height="100" rx="10" ry="10" style="stroke: black; stroke-width: 2px; fill: white; fill-opacity: 0.95;"></rect><text lineHeight="1.2" class="djs-label" style="font-family: Arial, sans-serif; font-size: 12px; font-weight: normal; fill: black;"><tspan x="18.1435546875" y="46.4">Update derivative </tspan><tspan x="19.4912109375" y="60.8">master with price</tspan></text></g><g class="djs-visual" id="Activity_1hhj6bi" transform="translate(-125 680)"><rect x="0" y="0" width="130" height="100" rx="10" ry="10" style="stroke: black; stroke-width: 2px; fill: white; fill-opacity: 0.95;"></rect><text lineHeight="1.2" class="djs-label" style="font-family: Arial, sans-serif; font-size: 12px; font-weight: normal; fill: black;"><tspan x="18.1435546875" y="46.4">Update derivative </tspan><tspan x="48.9921875" y="60.8">prices</tspan></text></g><g class="djs-visual" id="Event_16tzcxc" transform="translate(-78 822)"><circle cx="18" cy="18" r="18" style="stroke: black; stroke-width: 4px; fill: white; fill-opacity: 0.95;"></circle></g><g class="djs-visual" id="Event_16tzcxc_label" transform="translate(-100 868)"><text lineHeight="1.2" class="djs-label" style="font-family: Arial, sans-serif; font-size: 11px; font-weight: normal; fill: black;"><tspan x="0" y="9.899999999999999">Derivative prices </tspan><tspan x="21.018310546875" y="23.099999999999998">updated</tspan></text></g><g class="djs-visual" id="Gateway_1n461yu" transform="translate(-85 585)"><polygon points="25,0 50,25 25,50 0,25" style="stroke: black; stroke-width: 2px; fill: white; fill-opacity: 0.95;"></polygon><path d="m 16,15 7.42857142857143,9.714285714285715 -7.42857142857143,9.714285714285715 3.428571428571429,0 5.714285714285715,-7.464228571428572 5.714285714285715,7.464228571428572 3.428571428571429,0 -7.42857142857143,-9.714285714285715 7.42857142857143,-9.714285714285715 -3.428571428571429,0 -5.714285714285715,7.464228571428572 -5.714285714285715,-7.464228571428572 -3.428571428571429,0 z" style="fill: black; stroke-width: 1px; stroke: black;"></path></g><g class="djs-visual" id="TextAnnotation_1s7nuf5" transform="translate(350 390)"><rect x="0" y="0" width="260" height="70" rx="0" ry="0" style="stroke: none; stroke-width: 2px; fill: none;"></rect><path d="m 0, 0 m 10,0 l -10,0 l 0,70 l 10,0" style="fill: none; stroke-width: 2px; stroke: black;"></path><text lineHeight="1.2" class="djs-label" style="font-family: Arial, sans-serif; font-size: 12px; font-weight: normal; fill: black;"><tspan x="5" y="15.799999999999999">-If price is input using DX.CREATE.PRICE on </tspan><tspan x="5" y="30.199999999999996">authorisation of the same, </tspan><tspan x="5" y="44.599999999999994">DX.MARKET.PRICE record will be created </tspan><tspan x="5" y="58.99999999999999">automatically</tspan></text></g><g class="djs-visual" id="Association_0bv00nj" transform="translate(0 0)"><polyline points="284,468 350,425 " style="fill: none; stroke: black; stroke-width: 2px; stroke-dasharray: 0.5, 5; stroke-linecap: round; stroke-linejoin: round;"></polyline></g></g><g><rect class="viewport" x="-1012.891461649783" y="-54.00723589001448" width="2510.8538350217077" height="955.137481910275"></rect></g></svg>