<svg width="100%" height="100%" data-element-id="Process_0gv1hwp"><g class="viewport" transform="matrix(0.735786 0 0 0.735786 552.952 65.485)"><g class="layer-root-1" data-element-id="Process_0gv1hwp"><g class="djs-group"><g class="djs-element djs-connection" data-element-id="Flow_02xjjoo" style="display: block;"><g class="djs-visual"><path d="m  170,480L170,550 " style="fill: none; stroke-width: 2px; stroke: black; stroke-linejoin: round; marker-end: url(&quot;#sequenceflow-end-white-black-esqbfy12o98prc41ogbml2r34&quot;);"></path></g><polyline points="170,480 170,550 " class="djs-hit djs-hit-stroke" style="fill: none; stroke-opacity: 0; stroke: white; stroke-width: 15px;"></polyline><rect x="164" y="474" width="12" height="82" class="djs-outline" style="fill: none;"></rect></g></g><g class="djs-group"><g class="djs-element djs-connection" data-element-id="Flow_1hp84ow" style="display: block;"><g class="djs-visual"><path d="m  170,320L170,380 " style="fill: none; stroke-width: 2px; stroke: black; stroke-linejoin: round; marker-end: url(&quot;#sequenceflow-end-white-black-esqbfy12o98prc41ogbml2r34&quot;);"></path></g><polyline points="170,320 170,380 " class="djs-hit djs-hit-stroke" style="fill: none; stroke-opacity: 0; stroke: white; stroke-width: 15px;"></polyline><rect x="164" y="314" width="12" height="72" class="djs-outline" style="fill: none;"></rect></g></g><g class="djs-group"><g class="djs-element djs-connection" data-element-id="Flow_1lgoikw" style="display: block;"><g class="djs-visual"><path d="m  170,160L170,220 " style="fill: none; stroke-width: 2px; stroke: black; stroke-linejoin: round; marker-end: url(&quot;#sequenceflow-end-white-black-esqbfy12o98prc41ogbml2r34&quot;);"></path></g><polyline points="170,160 170,220 " class="djs-hit djs-hit-stroke" style="fill: none; stroke-opacity: 0; stroke: white; stroke-width: 15px;"></polyline><rect x="164" y="154" width="12" height="72" class="djs-outline" style="fill: none;"></rect></g></g><g class="djs-group"><g class="djs-element djs-connection" data-element-id="Flow_0xpsvvq" style="display: block;"><g class="djs-visual"><path d="m  170,650L170,732 " style="fill: none; stroke-width: 2px; stroke: black; stroke-linejoin: round; marker-end: url(&quot;#sequenceflow-end-white-black-esqbfy12o98prc41ogbml2r34&quot;);"></path></g><polyline points="170,650 170,732 " class="djs-hit djs-hit-stroke" style="fill: none; stroke-opacity: 0; stroke: white; stroke-width: 15px;"></polyline><rect x="164" y="644" width="12" height="94" class="djs-outline" style="fill: none;"></rect></g></g><g class="djs-group"><g class="djs-element djs-connection" data-element-id="Flow_0jeizdn" style="display: block;"><g class="djs-visual"><path d="m  170,-12L170,60 " style="fill: none; stroke-width: 2px; stroke: black; stroke-linejoin: round; marker-end: url(&quot;#sequenceflow-end-white-black-esqbfy12o98prc41ogbml2r34&quot;);"></path></g><polyline points="170,-12 170,60 " class="djs-hit djs-hit-stroke" style="fill: none; stroke-opacity: 0; stroke: white; stroke-width: 15px;"></polyline><rect x="164" y="-18" width="12" height="84" class="djs-outline" style="fill: none;"></rect></g></g><g class="djs-group"><g class="djs-element djs-shape" data-element-id="StartEvent_1bm324f" style="display: block;" transform="matrix(1 0 0 1 152 -48)"><g class="djs-visual"><circle cx="18" cy="18" r="18" style="stroke: black; stroke-width: 2px; fill: white; fill-opacity: 0.95;"></circle></g><rect class="djs-hit djs-hit-all" x="0" y="0" width="36" height="36" style="fill: none; stroke-opacity: 0; stroke: white; stroke-width: 15px;"></rect><rect x="-6" y="-6" width="48" height="48" class="djs-outline" style="fill: none;"></rect></g></g><g class="djs-group"><g class="djs-element djs-shape" data-element-id="StartEvent_1bm324f_label" style="display: block;" transform="matrix(1 0 0 1 122 -83)"><g class="djs-visual"><text lineHeight="1.2" class="djs-label" style="font-family: Arial, sans-serif; font-size: 11px; font-weight: normal; fill: black;"><tspan x="0" y="9.899999999999999">Direct Trade (DX) to </tspan><tspan x="22.296875" y="23.099999999999998">be initiated</tspan></text></g><rect class="djs-hit djs-hit-all" x="0" y="0" width="98" height="27" style="fill: none; stroke-opacity: 0; stroke: white; stroke-width: 15px;"></rect><rect x="-6" y="-6" width="110" height="39" class="djs-outline" style="fill: none;"></rect></g></g><g class="djs-group"><g class="djs-element djs-shape" data-element-id="Activity_1w69i19" style="display: block;" transform="matrix(1 0 0 1 105 60)"><g class="djs-visual"><rect x="0" y="0" width="130" height="100" rx="10" ry="10" style="stroke: black; stroke-width: 2px; fill: white; fill-opacity: 0.95;"></rect><text lineHeight="1.2" class="djs-label" style="font-family: Arial, sans-serif; font-size: 12px; font-weight: normal; fill: black;"><tspan x="9.296875" y="53.599999999999994">Capture&nbsp;trade details</tspan></text></g><rect class="djs-hit djs-hit-all" x="0" y="0" width="130" height="100" style="fill: none; stroke-opacity: 0; stroke: white; stroke-width: 15px;"></rect><rect x="-6" y="-6" width="142" height="112" class="djs-outline" style="fill: none;"></rect></g></g><g class="djs-group"><g class="djs-element djs-shape" data-element-id="Activity_03fkr6a" style="display: block;" transform="matrix(1 0 0 1 105 220)"><g class="djs-visual"><rect x="0" y="0" width="130" height="100" rx="10" ry="10" style="stroke: black; stroke-width: 2px; fill: white; fill-opacity: 0.95;"></rect><text lineHeight="1.2" class="djs-label" style="font-family: Arial, sans-serif; font-size: 12px; font-weight: normal; fill: black;"><tspan x="13.640625" y="53.599999999999994">Perform validations</tspan></text></g><rect class="djs-hit djs-hit-all" x="0" y="0" width="130" height="100" style="fill: none; stroke-opacity: 0; stroke: white; stroke-width: 15px;"></rect><rect x="-6" y="-6" width="142" height="112" class="djs-outline" style="fill: none;"></rect></g></g><g class="djs-group"><g class="djs-element djs-shape" data-element-id="Activity_1nn2svu" style="display: block;" transform="matrix(1 0 0 1 105 380)"><g class="djs-visual"><rect x="0" y="0" width="130" height="100" rx="10" ry="10" style="stroke: black; stroke-width: 2px; fill: white; fill-opacity: 0.95;"></rect><text lineHeight="1.2" class="djs-label" style="font-family: Arial, sans-serif; font-size: 12px; font-weight: normal; fill: black;"><tspan x="5.64453125" y="46.4">Authorise Direct Trade</tspan><tspan x="52.6640625" y="60.8">(DX)</tspan></text></g><rect class="djs-hit djs-hit-all" x="0" y="0" width="130" height="100" style="fill: none; stroke-opacity: 0; stroke: white; stroke-width: 15px;"></rect><rect x="-6" y="-6" width="142" height="112" class="djs-outline" style="fill: none;"></rect></g></g><g class="djs-group"><g class="djs-element djs-shape" data-element-id="Activity_1yb027s" style="display: block;" transform="matrix(1 0 0 1 105 550)"><g class="djs-visual"><rect x="0" y="0" width="130" height="100" rx="10" ry="10" style="stroke: black; stroke-width: 2px; fill: white; fill-opacity: 0.95;"></rect><text lineHeight="1.2" class="djs-label" style="font-family: Arial, sans-serif; font-size: 12px; font-weight: normal; fill: black;"><tspan x="5.4755859375" y="46.4">Generate Direct&nbsp;Trade</tspan><tspan x="52.6640625" y="60.8">(DX)</tspan></text></g><rect class="djs-hit djs-hit-all" x="0" y="0" width="130" height="100" style="fill: none; stroke-opacity: 0; stroke: white; stroke-width: 15px;"></rect><rect x="-6" y="-6" width="142" height="112" class="djs-outline" style="fill: none;"></rect></g></g><g class="djs-group"><g class="djs-element djs-shape" data-element-id="Event_1c2vc4l" style="display: block;" transform="matrix(1 0 0 1 152 732)"><g class="djs-visual"><circle cx="18" cy="18" r="18" style="stroke: black; stroke-width: 4px; fill: white; fill-opacity: 0.95;"></circle></g><rect class="djs-hit djs-hit-all" x="0" y="0" width="36" height="36" style="fill: none; stroke-opacity: 0; stroke: white; stroke-width: 15px;"></rect><rect x="-6" y="-6" width="48" height="48" class="djs-outline" style="fill: none;"></rect></g></g><g class="djs-group"><g class="djs-element djs-shape" data-element-id="Event_1c2vc4l_label" style="display: block;" transform="matrix(1 0 0 1 128 775)"><g class="djs-visual"><text lineHeight="1.2" class="djs-label" style="font-family: Arial, sans-serif; font-size: 11px; font-weight: normal; fill: black;"><tspan x="0" y="9.899999999999999">Direct Trade (DX) </tspan><tspan x="18.18115234375" y="23.099999999999998">generated</tspan></text></g><rect class="djs-hit djs-hit-all" x="0" y="0" width="86" height="27" style="fill: none; stroke-opacity: 0; stroke: white; stroke-width: 15px;"></rect><rect x="-6" y="-6" width="98" height="39" class="djs-outline" style="fill: none;"></rect></g></g><g class="djs-group"><g class="djs-element djs-shape" data-element-id="TextAnnotation_02gp0p6" style="display: block;" transform="matrix(1 0 0 1 290 140)"><g class="djs-visual"><rect x="0" y="0" width="460" height="171" rx="0" ry="0" style="stroke: none; stroke-width: 2px; fill: none;"></rect><path d="m 0, 0 m 10,0 l -10,0 l 0,171 l 10,0" style="fill: none; stroke-width: 2px; stroke: black;"></path><text lineHeight="1.2" class="djs-label" style="font-family: Arial, sans-serif; font-size: 12px; font-weight: normal; fill: black;"><tspan x="5" y="15.799999999999999">- For a Futures trade, contract code, maturity date and price are critical</tspan><tspan x="5" y="30.199999999999996">- For Options, contract code, maturity date, call or put and strike price details are&nbsp;</tspan><tspan x="5" y="44.599999999999994">mandatory</tspan><tspan x="5" y="58.99999999999999">- Cash and positions validations are done as part of this activity</tspan><tspan x="5" y="73.39999999999999">- All Customer and Broker level Commissions and Charges get defaulted based&nbsp;</tspan><tspan x="5" y="87.79999999999998">on Charge Tax Type for Dx.trade activity if set in&nbsp;</tspan><tspan x="5" y="102.19999999999999">SC.CHARGE.TAX.CALC.CREATE else calculated based on DX.COMMISSION&nbsp;</tspan><tspan x="5" y="116.6">or can be a manual input.</tspan><tspan x="5" y="131">- Maturity date validations are done</tspan><tspan x="5" y="145.4">- Maturity date of underlying futures, if applicable, gets defaulted in market price key</tspan></text></g><rect class="djs-hit djs-hit-all" x="0" y="0" width="460" height="171" style="fill: none; stroke-opacity: 0; stroke: white; stroke-width: 15px;"></rect><rect x="-6" y="-6" width="472" height="183" class="djs-outline" style="fill: none;"></rect></g></g><g class="djs-group"><g class="djs-element djs-connection" data-element-id="Association_1rm23tf" style="display: block;"><g class="djs-visual"><polyline points="233,224 290,182 " style="fill: none; stroke: black; stroke-width: 2px; stroke-dasharray: 0.5, 5; stroke-linecap: round; stroke-linejoin: round;"></polyline></g><polyline points="233,224 290,182 " class="djs-hit djs-hit-stroke" style="fill: none; stroke-opacity: 0; stroke: white; stroke-width: 15px;"></polyline><rect x="227" y="176" width="69" height="54" class="djs-outline" style="fill: none;"></rect></g></g></g></g><defs><marker id="sequenceflow-end-white-black-esqbfy12o98prc41ogbml2r34" viewBox="0 0 20 20" refX="11" refY="10" markerWidth="10" markerHeight="10" orient="auto"><path d="M 1 5 L 11 10 L 1 15 Z" style="fill: black; stroke-width: 1px; stroke-linecap: round; stroke-dasharray: 10000, 1; stroke: black;"></path></marker></defs></svg>