<svg width="100%" height="100%" viewBox="-62, -91, 1835, 2079"><g><g class="djs-visual" id="Flow_1bw59qo" transform="translate(0 0)"><path d="m  140,1810L140,1862 " style="fill: none; stroke-width: 2px; stroke: black; stroke-linejoin: round; marker-end: url(&quot;#sequenceflow-end-white-black-0dnmnpnct5u592spluwqlgo8a&quot;);"></path></g><g class="djs-visual" id="Flow_1fhme02" transform="translate(0 0)"><path d="m  165,1620L380,1620 L380,1742 " style="fill: none; stroke-width: 2px; stroke: black; stroke-linejoin: round; marker-end: url(&quot;#sequenceflow-end-white-black-0dnmnpnct5u592spluwqlgo8a&quot;);"></path></g><g class="djs-visual" id="Flow_1cce5ut" transform="translate(0 0)"><path d="m  140,1645L140,1710 " style="fill: none; stroke-width: 2px; stroke: black; stroke-linejoin: round; marker-end: url(&quot;#sequenceflow-end-white-black-0dnmnpnct5u592spluwqlgo8a&quot;);"></path></g><g class="djs-visual" id="Flow_0e26rin" transform="translate(0 0)"><path d="m  140,1530L140,1595 " style="fill: none; stroke-width: 2px; stroke: black; stroke-linejoin: round; marker-end: url(&quot;#sequenceflow-end-white-black-0dnmnpnct5u592spluwqlgo8a&quot;);"></path></g><g class="djs-visual" id="Flow_0n7xjya" transform="translate(0 0)"><path d="m  140,1365L140,1430 " style="fill: none; stroke-width: 2px; stroke: black; stroke-linejoin: round; marker-end: url(&quot;#sequenceflow-end-white-black-0dnmnpnct5u592spluwqlgo8a&quot;);"></path></g><g class="djs-visual" id="Flow_0769i1g" transform="translate(0 0)"><path d="m  630,1230L630,1340 L165,1340 " style="fill: none; stroke-width: 2px; stroke: black; stroke-linejoin: round; marker-end: url(&quot;#sequenceflow-end-white-black-0dnmnpnct5u592spluwqlgo8a&quot;);"></path></g><g class="djs-visual" id="Flow_1im147l" transform="translate(0 0)"><path d="m  630,1050L630,1130 " style="fill: none; stroke-width: 2px; stroke: black; stroke-linejoin: round; marker-end: url(&quot;#sequenceflow-end-white-black-0dnmnpnct5u592spluwqlgo8a&quot;);"></path></g><g class="djs-visual" id="Flow_0q1ho2i" transform="translate(0 0)"><path d="m  630,880L630,950 " style="fill: none; stroke-width: 2px; stroke: black; stroke-linejoin: round; marker-end: url(&quot;#sequenceflow-end-white-black-0dnmnpnct5u592spluwqlgo8a&quot;);"></path></g><g class="djs-visual" id="Flow_0a7jdzq" transform="translate(0 0)"><path d="m  140,1230L140,1315 " style="fill: none; stroke-width: 2px; stroke: black; stroke-linejoin: round; marker-end: url(&quot;#sequenceflow-end-white-black-0dnmnpnct5u592spluwqlgo8a&quot;);"></path></g><g class="djs-visual" id="Flow_02dk6se" transform="translate(0 0)"><path d="m  140,1050L140,1130 " style="fill: none; stroke-width: 2px; stroke: black; stroke-linejoin: round; marker-end: url(&quot;#sequenceflow-end-white-black-0dnmnpnct5u592spluwqlgo8a&quot;);"></path></g><g class="djs-visual" id="Flow_1yd33pn" transform="translate(0 0)"><path d="m  140,880L140,950 " style="fill: none; stroke-width: 2px; stroke: black; stroke-linejoin: round; marker-end: url(&quot;#sequenceflow-end-white-black-0dnmnpnct5u592spluwqlgo8a&quot;);"></path></g><g class="djs-visual" id="Flow_0ua1oop" transform="translate(0 0)"><path d="m  630,710L630,780 " style="fill: none; stroke-width: 2px; stroke: black; stroke-linejoin: round; marker-end: url(&quot;#sequenceflow-end-white-black-0dnmnpnct5u592spluwqlgo8a&quot;);"></path></g><g class="djs-visual" id="Flow_06bokqb" transform="translate(0 0)"><path d="m  140,710L140,780 " style="fill: none; stroke-width: 2px; stroke: black; stroke-linejoin: round; marker-end: url(&quot;#sequenceflow-end-white-black-0dnmnpnct5u592spluwqlgo8a&quot;);"></path></g><g class="djs-visual" id="Flow_115dmga" transform="translate(0 0)"><path d="m  165,480L630,480 L630,610 " style="fill: none; stroke-width: 2px; stroke: black; stroke-linejoin: round; marker-end: url(&quot;#sequenceflow-end-white-black-0dnmnpnct5u592spluwqlgo8a&quot;);"></path></g><g class="djs-visual" id="Flow_03ujdg5" transform="translate(0 0)"><path d="m  140,505L140,610 " style="fill: none; stroke-width: 2px; stroke: black; stroke-linejoin: round; marker-end: url(&quot;#sequenceflow-end-white-black-0dnmnpnct5u592spluwqlgo8a&quot;);"></path></g><g class="djs-visual" id="Flow_09svfy1" transform="translate(0 0)"><path d="m  140,390L140,455 " style="fill: none; stroke-width: 2px; stroke: black; stroke-linejoin: round; marker-end: url(&quot;#sequenceflow-end-white-black-0dnmnpnct5u592spluwqlgo8a&quot;);"></path></g><g class="djs-visual" id="Flow_1atgejd" transform="translate(0 0)"><path d="m  140,225L140,290 " style="fill: none; stroke-width: 2px; stroke: black; stroke-linejoin: round; marker-end: url(&quot;#sequenceflow-end-white-black-0dnmnpnct5u592spluwqlgo8a&quot;);"></path></g><g class="djs-visual" id="Flow_1sgx2dx" transform="translate(0 0)"><path d="m  240,68L240,200 L165,200 " style="fill: none; stroke-width: 2px; stroke: black; stroke-linejoin: round; marker-end: url(&quot;#sequenceflow-end-white-black-0dnmnpnct5u592spluwqlgo8a&quot;);"></path></g><g class="djs-visual" id="Flow_08yp0ge" transform="translate(0 0)"><path d="m  140,68L140,175 " style="fill: none; stroke-width: 2px; stroke: black; stroke-linejoin: round; marker-end: url(&quot;#sequenceflow-end-white-black-0dnmnpnct5u592spluwqlgo8a&quot;);"></path></g><g class="djs-visual" id="Flow_06m0fqr" transform="translate(0 0)"><path d="m  30,68L30,200 L115,200 " style="fill: none; stroke-width: 2px; stroke: black; stroke-linejoin: round; marker-end: url(&quot;#sequenceflow-end-white-black-0dnmnpnct5u592spluwqlgo8a&quot;);"></path></g><g class="djs-visual" id="Event_17enjld" transform="translate(122 32)"><circle cx="18" cy="18" r="18" style="stroke: black; stroke-width: 2px; fill: white; fill-opacity: 0.95;"></circle></g><g class="djs-visual" id="Event_17enjld_label" transform="translate(105 -35)"><text lineHeight="1.2" class="djs-label" style="font-family: Arial, sans-serif; font-size: 11px; font-weight: normal; fill: black;"><tspan x="13.553466796875" y="9.899999999999999">Supplier </tspan><tspan x="0" y="23.099999999999998">Disbursement </tspan><tspan x="9.018310546875" y="36.3">completed</tspan></text></g><g class="djs-visual" id="Event_0811x1d" transform="translate(12 32)"><circle cx="18" cy="18" r="18" style="stroke: black; stroke-width: 2px; fill: white; fill-opacity: 0.95;"></circle></g><g class="djs-visual" id="Event_0811x1d_label" transform="translate(-6 -15)"><text lineHeight="1.2" class="djs-label" style="font-family: Arial, sans-serif; font-size: 11px; font-weight: normal; fill: black;"><tspan x="0" y="9.899999999999999">Cost Payment </tspan><tspan x="14.833740234375" y="23.099999999999998">required</tspan></text></g><g class="djs-visual" id="Event_0kg5gvn" transform="translate(222 32)"><circle cx="18" cy="18" r="18" style="stroke: black; stroke-width: 2px; fill: white; fill-opacity: 0.95;"></circle></g><g class="djs-visual" id="Event_0kg5gvn_label" transform="translate(205 -25)"><text lineHeight="1.2" class="djs-label" style="font-family: Arial, sans-serif; font-size: 11px; font-weight: normal; fill: black;"><tspan x="0" y="9.899999999999999">Disbursement </tspan><tspan x="9.018310546875" y="23.099999999999998">completed</tspan></text></g><g class="djs-visual" id="Gateway_0bv0gaj" transform="translate(115 175)"><polygon points="25,0 50,25 25,50 0,25" style="stroke: black; stroke-width: 2px; fill: white; fill-opacity: 0.95;"></polygon><path d="m 16,15 7.42857142857143,9.714285714285715 -7.42857142857143,9.714285714285715 3.428571428571429,0 5.714285714285715,-7.464228571428572 5.714285714285715,7.464228571428572 3.428571428571429,0 -7.42857142857143,-9.714285714285715 7.42857142857143,-9.714285714285715 -3.428571428571429,0 -5.714285714285715,7.464228571428572 -5.714285714285715,-7.464228571428572 -3.428571428571429,0 z" style="fill: black; stroke-width: 1px; stroke: black;"></path></g><g class="djs-visual" id="Activity_0tt9k3t" transform="translate(75 290)"><rect x="0" y="0" width="130" height="100" rx="10" ry="10" style="stroke: black; stroke-width: 2px; fill: white; fill-opacity: 0.95;"></rect><text lineHeight="1.2" class="djs-label" style="font-family: Arial, sans-serif; font-size: 12px; font-weight: normal; fill: black;"><tspan x="12.3046875" y="46.4">Decide on Payment </tspan><tspan x="44.82421875" y="60.8">method</tspan></text></g><g class="djs-visual" id="Gateway_01qekle" transform="translate(115 455)"><polygon points="25,0 50,25 25,50 0,25" style="stroke: black; stroke-width: 2px; fill: white; fill-opacity: 0.95;"></polygon><path d="m 16,15 7.42857142857143,9.714285714285715 -7.42857142857143,9.714285714285715 3.428571428571429,0 5.714285714285715,-7.464228571428572 5.714285714285715,7.464228571428572 3.428571428571429,0 -7.42857142857143,-9.714285714285715 7.42857142857143,-9.714285714285715 -3.428571428571429,0 -5.714285714285715,7.464228571428572 -5.714285714285715,-7.464228571428572 -3.428571428571429,0 z" style="fill: black; stroke-width: 1px; stroke: black;"></path></g><g class="djs-visual" id="Activity_097xtzy" transform="translate(75 610)"><rect x="0" y="0" width="130" height="100" rx="10" ry="10" style="stroke: black; stroke-width: 2px; fill: white; fill-opacity: 0.95;"></rect><text lineHeight="1.2" class="djs-label" style="font-family: Arial, sans-serif; font-size: 12px; font-weight: normal; fill: black;"><tspan x="17.9765625" y="46.4">Capture Payment </tspan><tspan x="47.65625" y="60.8">details</tspan></text></g><g class="djs-visual" id="Activity_0vgoxmr" transform="translate(565 610)"><rect x="0" y="0" width="130" height="100" rx="10" ry="10" style="stroke: black; stroke-width: 2px; fill: white; fill-opacity: 0.95;"></rect><text lineHeight="1.2" class="djs-label" style="font-family: Arial, sans-serif; font-size: 12px; font-weight: normal; fill: black;"><tspan x="17.9765625" y="46.4">Capture Payment </tspan><tspan x="47.65625" y="60.8">details</tspan></text></g><g class="djs-visual" id="Activity_1cx4hia" transform="translate(75 780)"><rect x="0" y="0" width="130" height="100" rx="10" ry="10" style="stroke: black; stroke-width: 2px; fill: white; fill-opacity: 0.95;"></rect><text lineHeight="1.2" class="djs-label" style="font-family: Arial, sans-serif; font-size: 12px; font-weight: normal; fill: black;"><tspan x="14.474609375" y="46.4">Authorise Payment </tspan><tspan x="47.65625" y="60.8">details</tspan></text></g><g class="djs-visual" id="Activity_1b8sgtt" transform="translate(565 780)"><rect x="0" y="0" width="130" height="100" rx="10" ry="10" style="stroke: black; stroke-width: 2px; fill: white; fill-opacity: 0.95;"></rect><text lineHeight="1.2" class="djs-label" style="font-family: Arial, sans-serif; font-size: 12px; font-weight: normal; fill: black;"><tspan x="14.474609375" y="46.4">Authorise Payment </tspan><tspan x="47.65625" y="60.8">details</tspan></text></g><g class="djs-visual" id="Activity_0hh76zp" transform="translate(78 950)"><rect x="0" y="0" width="124" height="100" rx="10" ry="10" style="stroke: black; stroke-width: 2px; fill: white; fill-opacity: 0.95;"></rect><text lineHeight="1.2" class="djs-label" style="font-family: Arial, sans-serif; font-size: 12px; font-weight: normal; fill: black;"><tspan x="14.642578125" y="53.599999999999994">Execute Payment</tspan></text></g><g class="djs-visual" id="Activity_1b49961" transform="translate(75 1130)"><rect x="0" y="0" width="130" height="100" rx="10" ry="10" style="stroke: black; stroke-width: 2px; fill: white; fill-opacity: 0.95;"></rect><text lineHeight="1.2" class="djs-label" style="font-family: Arial, sans-serif; font-size: 12px; font-weight: normal; fill: black;"><tspan x="9.1318359375" y="46.4">Generate accounting </tspan><tspan x="46.984375" y="60.8">entries</tspan></text></g><g class="djs-visual" id="Gateway_0wc284a" transform="translate(115 1315)"><polygon points="25,0 50,25 25,50 0,25" style="stroke: black; stroke-width: 2px; fill: white; fill-opacity: 0.95;"></polygon><path d="m 16,15 7.42857142857143,9.714285714285715 -7.42857142857143,9.714285714285715 3.428571428571429,0 5.714285714285715,-7.464228571428572 5.714285714285715,7.464228571428572 3.428571428571429,0 -7.42857142857143,-9.714285714285715 7.42857142857143,-9.714285714285715 -3.428571428571429,0 -5.714285714285715,7.464228571428572 -5.714285714285715,-7.464228571428572 -3.428571428571429,0 z" style="fill: black; stroke-width: 1px; stroke: black;"></path></g><g class="djs-visual" id="Activity_1pt289v" transform="translate(565 950)"><rect x="0" y="0" width="123" height="100" rx="10" ry="10" style="stroke: black; stroke-width: 2px; fill: white; fill-opacity: 0.95;"></rect><text lineHeight="1.2" class="djs-label" style="font-family: Arial, sans-serif; font-size: 12px; font-weight: normal; fill: black;"><tspan x="14.142578125" y="53.599999999999994">Execute Payment</tspan></text></g><g class="djs-visual" id="Activity_13601n6" transform="translate(565 1130)"><rect x="0" y="0" width="130" height="100" rx="10" ry="10" style="stroke: black; stroke-width: 2px; fill: white; fill-opacity: 0.95;"></rect><text lineHeight="1.2" class="djs-label" style="font-family: Arial, sans-serif; font-size: 12px; font-weight: normal; fill: black;"><tspan x="9.1318359375" y="46.4">Generate accounting </tspan><tspan x="46.984375" y="60.8">entries</tspan></text></g><g class="djs-visual" id="Activity_1aplkov" transform="translate(75 1430)"><rect x="0" y="0" width="130" height="100" rx="10" ry="10" style="stroke: black; stroke-width: 2px; fill: white; fill-opacity: 0.95;"></rect><text lineHeight="1.2" class="djs-label" style="font-family: Arial, sans-serif; font-size: 12px; font-weight: normal; fill: black;"><tspan x="23.6484375" y="46.4">Check if Sale is </tspan><tspan x="37.154296875" y="60.8">completed</tspan></text></g><g class="djs-visual" id="Activity_1h52ib2" transform="translate(75 1710)"><rect x="0" y="0" width="130" height="100" rx="10" ry="10" style="stroke: black; stroke-width: 2px; fill: white; fill-opacity: 0.95;"></rect><text lineHeight="1.2" class="djs-label" style="font-family: Arial, sans-serif; font-size: 12px; font-weight: normal; fill: black;"><tspan x="5.466796875" y="53.599999999999994">Decide on type of sale</tspan></text></g><g class="djs-visual" id="Gateway_01ivten" transform="translate(115 1595)"><polygon points="25,0 50,25 25,50 0,25" style="stroke: black; stroke-width: 2px; fill: white; fill-opacity: 0.95;"></polygon><path d="m 16,15 7.42857142857143,9.714285714285715 -7.42857142857143,9.714285714285715 3.428571428571429,0 5.714285714285715,-7.464228571428572 5.714285714285715,7.464228571428572 3.428571428571429,0 -7.42857142857143,-9.714285714285715 7.42857142857143,-9.714285714285715 -3.428571428571429,0 -5.714285714285715,7.464228571428572 -5.714285714285715,-7.464228571428572 -3.428571428571429,0 z" style="fill: black; stroke-width: 1px; stroke: black;"></path></g><g class="djs-visual" id="Event_11ulh7j" transform="translate(362 1742)"><circle cx="18" cy="18" r="18" style="stroke: black; stroke-width: 4px; fill: white; fill-opacity: 0.95;"></circle></g><g class="djs-visual" id="Event_11ulh7j_label" transform="translate(342 1785)"><text lineHeight="1.2" class="djs-label" style="font-family: Arial, sans-serif; font-size: 11px; font-weight: normal; fill: black;"><tspan x="0" y="9.899999999999999">Sale completed</tspan></text></g><g class="djs-visual" id="Event_0v2hb7b" transform="translate(122 1862)"><circle cx="18" cy="18" r="18" style="stroke: black; stroke-width: 4px; fill: white; fill-opacity: 0.95;"></circle></g><g class="djs-visual" id="Event_0v2hb7b_label" transform="translate(103 1905)"><text lineHeight="1.2" class="djs-label" style="font-family: Arial, sans-serif; font-size: 11px; font-weight: normal; fill: black;"><tspan x="0" y="9.899999999999999">Ijara Sale to be </tspan><tspan x="18.0390625" y="23.099999999999998">initiated</tspan></text></g><g class="djs-visual" id="TextAnnotation_1jmk688" transform="translate(260 495)"><rect x="0" y="0" width="138" height="120" rx="0" ry="0" style="stroke: none; stroke-width: 2px; fill: none;"></rect><path d="m 0, 0 m 10,0 l -10,0 l 0,120 l 10,0" style="fill: none; stroke-width: 2px; stroke: black;"></path><text lineHeight="1.2" class="djs-label" style="font-family: Arial, sans-serif; font-size: 12px; font-weight: normal; fill: black;"><tspan x="5" y="15.799999999999999">- Cost Counter Party</tspan><tspan x="5" y="30.199999999999996">- Payable Account</tspan><tspan x="5" y="44.599999999999994">- Currency</tspan><tspan x="5" y="58.99999999999999">- Purchase reference</tspan><tspan x="5" y="73.39999999999999">- Cost Reference</tspan><tspan x="5" y="87.79999999999998">- Amount</tspan><tspan x="5" y="102.19999999999999">- Customer</tspan><tspan x="5" y="116.6">- Date</tspan></text></g><g class="djs-visual" id="TextAnnotation_0gd2n6h" transform="translate(755 521)"><rect x="0" y="0" width="130" height="68" rx="0" ry="0" style="stroke: none; stroke-width: 2px; fill: none;"></rect><path d="m 0, 0 m 10,0 l -10,0 l 0,68 l 10,0" style="fill: none; stroke-width: 2px; stroke: black;"></path><text lineHeight="1.2" class="djs-label" style="font-family: Arial, sans-serif; font-size: 12px; font-weight: normal; fill: black;"><tspan x="5" y="15.799999999999999">- Customer</tspan><tspan x="5" y="30.199999999999996">- Purchase reference</tspan><tspan x="5" y="44.599999999999994">- Cost Reference</tspan><tspan x="5" y="58.99999999999999">- Amount</tspan></text></g><g class="djs-visual" id="TextAnnotation_037msz1" transform="translate(260 1060)"><rect x="0" y="0" width="170" height="43" rx="0" ry="0" style="stroke: none; stroke-width: 2px; fill: none;"></rect><path d="m 0, 0 m 10,0 l -10,0 l 0,43 l 10,0" style="fill: none; stroke-width: 2px; stroke: black;"></path><text lineHeight="1.2" class="djs-label" style="font-family: Arial, sans-serif; font-size: 12px; font-weight: normal; fill: black;"><tspan x="5" y="15.799999999999999">Debit multi supplier acct&nbsp;</tspan><tspan x="5" y="30.199999999999996">Credit cost counter party acct</tspan></text></g><g class="djs-visual" id="TextAnnotation_18fhfjd" transform="translate(755 1060)"><rect x="0" y="0" width="145" height="43" rx="0" ry="0" style="stroke: none; stroke-width: 2px; fill: none;"></rect><path d="m 0, 0 m 10,0 l -10,0 l 0,43 l 10,0" style="fill: none; stroke-width: 2px; stroke: black;"></path><text lineHeight="1.2" class="djs-label" style="font-family: Arial, sans-serif; font-size: 12px; font-weight: normal; fill: black;"><tspan x="5" y="15.799999999999999">Debit multi supplier acct</tspan><tspan x="5" y="30.199999999999996">Credit teller acct</tspan></text></g><g class="djs-visual" id="Flow_03ujdg5_label" transform="translate(151 516)"><text lineHeight="1.2" class="djs-label" style="font-family: Arial, sans-serif; font-size: 11px; font-weight: normal; fill: black;"><tspan x="0" y="9.899999999999999">Cost Adhoc </tspan><tspan x="6.201904296875" y="23.099999999999998">Payment</tspan></text></g><g class="djs-visual" id="Flow_115dmga_label" transform="translate(620 516)"><text lineHeight="1.2" class="djs-label" style="font-family: Arial, sans-serif; font-size: 11px; font-weight: normal; fill: black;"><tspan x="0" y="9.899999999999999">Cost Cash Payment</tspan></text></g><g class="djs-visual" id="Flow_0a7jdzq_label" transform="translate(131 1260)"><text lineHeight="1.2" class="djs-label" style="font-family: Arial, sans-serif; font-size: 11px; font-weight: normal; fill: black;"><tspan x="0" y="9.899999999999999">Cost Adhoc Payment </tspan><tspan x="26.4501953125" y="23.099999999999998">completed</tspan></text></g><g class="djs-visual" id="Flow_0769i1g_label" transform="translate(620 1260)"><text lineHeight="1.2" class="djs-label" style="font-family: Arial, sans-serif; font-size: 11px; font-weight: normal; fill: black;"><tspan x="0" y="9.899999999999999">Cost Cash Payment </tspan><tspan x="23.998291015625" y="23.099999999999998">completed</tspan></text></g><g class="djs-visual" id="Flow_1cce5ut_label" transform="translate(150 1661)"><text lineHeight="1.2" class="djs-label" style="font-family: Arial, sans-serif; font-size: 11px; font-weight: normal; fill: black;"><tspan x="0" y="9.899999999999999">Sale not yet </tspan><tspan x="4.135986328125" y="23.099999999999998">completed</tspan></text></g><g class="djs-visual" id="Association_1eoji7w" transform="translate(0 0)"><polyline points="196,610 260,554 " style="fill: none; stroke: black; stroke-width: 2px; stroke-dasharray: 0.5, 5; stroke-linecap: round; stroke-linejoin: round;"></polyline></g><g class="djs-visual" id="Association_13mv4b6" transform="translate(0 0)"><polyline points="689,611 755,556 " style="fill: none; stroke: black; stroke-width: 2px; stroke-dasharray: 0.5, 5; stroke-linecap: round; stroke-linejoin: round;"></polyline></g><g class="djs-visual" id="Association_0ncteez" transform="translate(0 0)"><polyline points="200,1131 260,1083 " style="fill: none; stroke: black; stroke-width: 2px; stroke-dasharray: 0.5, 5; stroke-linecap: round; stroke-linejoin: round;"></polyline></g><g class="djs-visual" id="Association_04lqtcf" transform="translate(0 0)"><polyline points="692,1133 755,1086 " style="fill: none; stroke: black; stroke-width: 2px; stroke-dasharray: 0.5, 5; stroke-linecap: round; stroke-linejoin: round;"></polyline></g></g><g><rect class="viewport" x="-2150.9730538922154" y="-40.940119760479035" width="5194.610778443113" height="1976.0479041916167"></rect></g></svg>