<svg width="100%" height="100%" viewBox="-50, 92, 1835, 3850"><g><g class="djs-visual" id="Flow_1ore89k" transform="translate(0 0)"><path d="m  285,2130L568,2130 L568,2172 " style="fill: none; stroke-width: 2px; stroke: black; stroke-linejoin: round; marker-end: url(&quot;#sequenceflow-end-white-black-9kdlm897bhd61hgjyzr15ekpv&quot;);"></path></g><g class="djs-visual" id="Flow_06mwqm0" transform="translate(0 0)"><path d="m  260,2155L260,2282 " style="fill: none; stroke-width: 2px; stroke: black; stroke-linejoin: round; marker-end: url(&quot;#sequenceflow-end-white-black-9kdlm897bhd61hgjyzr15ekpv&quot;);"></path></g><g class="djs-visual" id="Flow_1p7anqx" transform="translate(0 0)"><path d="m  260,2060L260,2105 " style="fill: none; stroke-width: 2px; stroke: black; stroke-linejoin: round; marker-end: url(&quot;#sequenceflow-end-white-black-9kdlm897bhd61hgjyzr15ekpv&quot;);"></path></g><g class="djs-visual" id="Flow_1apckqv" transform="translate(0 0)"><path d="m  285,1830L568,1830 L568,1942 " style="fill: none; stroke-width: 2px; stroke: black; stroke-linejoin: round; marker-end: url(&quot;#sequenceflow-end-white-black-9kdlm897bhd61hgjyzr15ekpv&quot;);"></path></g><g class="djs-visual" id="Flow_07kwtz3" transform="translate(0 0)"><path d="m  260,1855L260,1960 " style="fill: none; stroke-width: 2px; stroke: black; stroke-linejoin: round; marker-end: url(&quot;#sequenceflow-end-white-black-9kdlm897bhd61hgjyzr15ekpv&quot;);"></path></g><g class="djs-visual" id="Flow_137hssa" transform="translate(0 0)"><path d="m  260,1760L260,1805 " style="fill: none; stroke-width: 2px; stroke: black; stroke-linejoin: round; marker-end: url(&quot;#sequenceflow-end-white-black-9kdlm897bhd61hgjyzr15ekpv&quot;);"></path></g><g class="djs-visual" id="Flow_1kzqs4c" transform="translate(0 0)"><path d="m  285,2460L660,2460 L660,2550 " style="fill: none; stroke-width: 2px; stroke: black; stroke-linejoin: round; marker-end: url(&quot;#sequenceflow-end-white-black-9kdlm897bhd61hgjyzr15ekpv&quot;);"></path></g><g class="djs-visual" id="Flow_0x1ggh4" transform="translate(0 0)"><path d="m  260,3734L260,3816 " style="fill: none; stroke-width: 2px; stroke: black; stroke-linejoin: round; marker-end: url(&quot;#sequenceflow-end-white-black-9kdlm897bhd61hgjyzr15ekpv&quot;);"></path></g><g class="djs-visual" id="Flow_1veop2h" transform="translate(0 0)"><path d="m  260,3544L260,3634 " style="fill: none; stroke-width: 2px; stroke: black; stroke-linejoin: round; marker-end: url(&quot;#sequenceflow-end-white-black-9kdlm897bhd61hgjyzr15ekpv&quot;);"></path></g><g class="djs-visual" id="Flow_0u3n4c2" transform="translate(0 0)"><path d="m  260,3360L260,3444 " style="fill: none; stroke-width: 2px; stroke: black; stroke-linejoin: round; marker-end: url(&quot;#sequenceflow-end-white-black-9kdlm897bhd61hgjyzr15ekpv&quot;);"></path></g><g class="djs-visual" id="Flow_0ws1p9h" transform="translate(0 0)"><path d="m  260,3185L260,3260 " style="fill: none; stroke-width: 2px; stroke: black; stroke-linejoin: round; marker-end: url(&quot;#sequenceflow-end-white-black-9kdlm897bhd61hgjyzr15ekpv&quot;);"></path></g><g class="djs-visual" id="Flow_03o9kz8" transform="translate(0 0)"><path d="m  660,3110L660,3160 L285,3160 " style="fill: none; stroke-width: 2px; stroke: black; stroke-linejoin: round; marker-end: url(&quot;#sequenceflow-end-white-black-9kdlm897bhd61hgjyzr15ekpv&quot;);"></path></g><g class="djs-visual" id="Flow_0plp0m2" transform="translate(0 0)"><path d="m  260,2650L260,3135 " style="fill: none; stroke-width: 2px; stroke: black; stroke-linejoin: round; marker-end: url(&quot;#sequenceflow-end-white-black-9kdlm897bhd61hgjyzr15ekpv&quot;);"></path></g><g class="djs-visual" id="Flow_0txhr6d" transform="translate(0 0)"><path d="m  1040,3110L1040,3197 " style="fill: none; stroke-width: 2px; stroke: black; stroke-linejoin: round; marker-end: url(&quot;#sequenceflow-end-white-black-9kdlm897bhd61hgjyzr15ekpv&quot;);"></path></g><g class="djs-visual" id="Flow_1yx3oo1" transform="translate(0 0)"><path d="m  1040,2930L1040,3010 " style="fill: none; stroke-width: 2px; stroke: black; stroke-linejoin: round; marker-end: url(&quot;#sequenceflow-end-white-black-9kdlm897bhd61hgjyzr15ekpv&quot;);"></path></g><g class="djs-visual" id="Flow_0dk6j93" transform="translate(0 0)"><path d="m  660,2930L660,3010 " style="fill: none; stroke-width: 2px; stroke: black; stroke-linejoin: round; marker-end: url(&quot;#sequenceflow-end-white-black-9kdlm897bhd61hgjyzr15ekpv&quot;);"></path></g><g class="djs-visual" id="Flow_0y1o0vs" transform="translate(0 0)"><path d="m  660,2755L660,2830 " style="fill: none; stroke-width: 2px; stroke: black; stroke-linejoin: round; marker-end: url(&quot;#sequenceflow-end-white-black-9kdlm897bhd61hgjyzr15ekpv&quot;);"></path></g><g class="djs-visual" id="Flow_12g6uwk" transform="translate(0 0)"><path d="m  685,2730L1040,2730 L1040,2830 " style="fill: none; stroke-width: 2px; stroke: black; stroke-linejoin: round; marker-end: url(&quot;#sequenceflow-end-white-black-9kdlm897bhd61hgjyzr15ekpv&quot;);"></path></g><g class="djs-visual" id="Flow_09uek2d" transform="translate(0 0)"><path d="m  660,2650L660,2705 " style="fill: none; stroke-width: 2px; stroke: black; stroke-linejoin: round; marker-end: url(&quot;#sequenceflow-end-white-black-9kdlm897bhd61hgjyzr15ekpv&quot;);"></path></g><g class="djs-visual" id="Flow_1ep7o1x" transform="translate(0 0)"><path d="m  260,2485L260,2550 " style="fill: none; stroke-width: 2px; stroke: black; stroke-linejoin: round; marker-end: url(&quot;#sequenceflow-end-white-black-9kdlm897bhd61hgjyzr15ekpv&quot;);"></path></g><g class="djs-visual" id="Flow_1tmvdds" transform="translate(0 0)"><path d="m  260,2382L260,2435 " style="fill: none; stroke-width: 2px; stroke: black; stroke-linejoin: round; marker-end: url(&quot;#sequenceflow-end-white-black-9kdlm897bhd61hgjyzr15ekpv&quot;);"></path></g><g class="djs-visual" id="Flow_1hqigs8" transform="translate(0 0)"><path d="m  260,1600L260,1660 " style="fill: none; stroke-width: 2px; stroke: black; stroke-linejoin: round; marker-end: url(&quot;#sequenceflow-end-white-black-9kdlm897bhd61hgjyzr15ekpv&quot;);"></path></g><g class="djs-visual" id="Flow_08dt6ig" transform="translate(0 0)"><path d="m  568,1590L568,1662 " style="fill: none; stroke-width: 2px; stroke: black; stroke-linejoin: round; marker-end: url(&quot;#sequenceflow-end-white-black-9kdlm897bhd61hgjyzr15ekpv&quot;);"></path></g><g class="djs-visual" id="Flow_1ir0tul" transform="translate(0 0)"><path d="m  260,1435L260,1500 " style="fill: none; stroke-width: 2px; stroke: black; stroke-linejoin: round; marker-end: url(&quot;#sequenceflow-end-white-black-9kdlm897bhd61hgjyzr15ekpv&quot;);"></path></g><g class="djs-visual" id="Flow_0j88bjv" transform="translate(0 0)"><path d="m  285,1410L568,1410 L568,1490 " style="fill: none; stroke-width: 2px; stroke: black; stroke-linejoin: round; marker-end: url(&quot;#sequenceflow-end-white-black-9kdlm897bhd61hgjyzr15ekpv&quot;);"></path></g><g class="djs-visual" id="Flow_17ajg95" transform="translate(0 0)"><path d="m  260,1330L260,1385 " style="fill: none; stroke-width: 2px; stroke: black; stroke-linejoin: round; marker-end: url(&quot;#sequenceflow-end-white-black-9kdlm897bhd61hgjyzr15ekpv&quot;);"></path></g><g class="djs-visual" id="Flow_1xcrfls" transform="translate(0 0)"><path d="m  260,1165L260,1230 " style="fill: none; stroke-width: 2px; stroke: black; stroke-linejoin: round; marker-end: url(&quot;#sequenceflow-end-white-black-9kdlm897bhd61hgjyzr15ekpv&quot;);"></path></g><g class="djs-visual" id="Flow_0wdm2k4" transform="translate(0 0)"><path d="m  660,1074L660,1140 L285,1140 " style="fill: none; stroke-width: 2px; stroke: black; stroke-linejoin: round; marker-end: url(&quot;#sequenceflow-end-white-black-9kdlm897bhd61hgjyzr15ekpv&quot;);"></path></g><g class="djs-visual" id="Flow_1sxlaei" transform="translate(0 0)"><path d="m  260,900L260,1115 " style="fill: none; stroke-width: 2px; stroke: black; stroke-linejoin: round; marker-end: url(&quot;#sequenceflow-end-white-black-9kdlm897bhd61hgjyzr15ekpv&quot;);"></path></g><g class="djs-visual" id="Flow_1e6sgmd" transform="translate(0 0)"><path d="m  660,900L660,974 " style="fill: none; stroke-width: 2px; stroke: black; stroke-linejoin: round; marker-end: url(&quot;#sequenceflow-end-white-black-9kdlm897bhd61hgjyzr15ekpv&quot;);"></path></g><g class="djs-visual" id="Flow_0d5nuw9" transform="translate(0 0)"><path d="m  260,700L260,800 " style="fill: none; stroke-width: 2px; stroke: black; stroke-linejoin: round; marker-end: url(&quot;#sequenceflow-end-white-black-9kdlm897bhd61hgjyzr15ekpv&quot;);"></path></g><g class="djs-visual" id="Flow_19rytrl" transform="translate(0 0)"><path d="m  285,675L660,675 L660,800 " style="fill: none; stroke-width: 2px; stroke: black; stroke-linejoin: round; marker-end: url(&quot;#sequenceflow-end-white-black-9kdlm897bhd61hgjyzr15ekpv&quot;);"></path></g><g class="djs-visual" id="Flow_073h6ko" transform="translate(0 0)"><path d="m  260,590L260,650 " style="fill: none; stroke-width: 2px; stroke: black; stroke-linejoin: round; marker-end: url(&quot;#sequenceflow-end-white-black-9kdlm897bhd61hgjyzr15ekpv&quot;);"></path></g><g class="djs-visual" id="Flow_1bxbmhl" transform="translate(0 0)"><path d="m  260,420L260,490 " style="fill: none; stroke-width: 2px; stroke: black; stroke-linejoin: round; marker-end: url(&quot;#sequenceflow-end-white-black-9kdlm897bhd61hgjyzr15ekpv&quot;);"></path></g><g class="djs-visual" id="Flow_16x9b6d" transform="translate(0 0)"><path d="m  260,238L260,320 " style="fill: none; stroke-width: 2px; stroke: black; stroke-linejoin: round; marker-end: url(&quot;#sequenceflow-end-white-black-9kdlm897bhd61hgjyzr15ekpv&quot;);"></path></g><g class="djs-visual" id="StartEvent_1bm324f" transform="translate(242 202)"><circle cx="18" cy="18" r="18" style="stroke: black; stroke-width: 2px; fill: white; fill-opacity: 0.95;"></circle></g><g class="djs-visual" id="StartEvent_1bm324f_label" transform="translate(214 148)"><text lineHeight="1.2" class="djs-label" style="font-family: Arial, sans-serif; font-size: 11px; font-weight: normal; fill: black;"><tspan x="0" y="9.899999999999999">Customer wants to </tspan><tspan x="2.8359375" y="23.099999999999998">deposit LCY cash</tspan></text></g><g class="djs-visual" id="Activity_1w2ghtv" transform="translate(195 320)"><rect x="0" y="0" width="130" height="100" rx="10" ry="10" style="stroke: black; stroke-width: 2px; fill: white; fill-opacity: 0.95;"></rect><text lineHeight="1.2" class="djs-label" style="font-family: Arial, sans-serif; font-size: 12px; font-weight: normal; fill: black;"><tspan x="11.3046875" y="46.4">Receive instructions </tspan><tspan x="25.32421875" y="60.8">from Customer</tspan></text></g><g class="djs-visual" id="DataObjectReference_0h0peh5" transform="translate(52 345)"><path d="m 0,0 28.23529411764706,0 7.058823529411765,8.196721311475411 0,40.98360655737705 -35.294117647058826,0 0,-49.18032786885246 28.23529411764706,0 0,8.196721311475411 7.058823529411765,0" style="fill: white; stroke-width: 2px; stroke: black; fill-opacity: 0.95;"></path></g><g class="djs-visual" id="DataObjectReference_0h0peh5_label" transform="translate(26 402)"><text lineHeight="1.2" class="djs-label" style="font-family: Arial, sans-serif; font-size: 11px; font-weight: normal; fill: black;"><tspan x="0" y="9.899999999999999">Cash Deposit Slip</tspan></text></g><g class="djs-visual" id="Activity_1qae9rx" transform="translate(195 490)"><rect x="0" y="0" width="130" height="100" rx="10" ry="10" style="stroke: black; stroke-width: 2px; fill: white; fill-opacity: 0.95;"></rect><text lineHeight="1.2" class="djs-label" style="font-family: Arial, sans-serif; font-size: 12px; font-weight: normal; fill: black;"><tspan x="23.4853515625" y="46.4">Confirm type of </tspan><tspan x="35.9873046875" y="60.8">transaction</tspan></text></g><g class="djs-visual" id="Gateway_1wtmp6s" transform="translate(235 650)"><polygon points="25,0 50,25 25,50 0,25" style="stroke: black; stroke-width: 2px; fill: white; fill-opacity: 0.95;"></polygon><path d="m 16,15 7.42857142857143,9.714285714285715 -7.42857142857143,9.714285714285715 3.428571428571429,0 5.714285714285715,-7.464228571428572 5.714285714285715,7.464228571428572 3.428571428571429,0 -7.42857142857143,-9.714285714285715 7.42857142857143,-9.714285714285715 -3.428571428571429,0 -5.714285714285715,7.464228571428572 -5.714285714285715,-7.464228571428572 -3.428571428571429,0 z" style="fill: black; stroke-width: 1px; stroke: black;"></path></g><g class="djs-visual" id="Activity_0y8wxw5" transform="translate(595 800)"><rect x="0" y="0" width="130" height="100" rx="10" ry="10" style="stroke: black; stroke-width: 2px; fill: white; fill-opacity: 0.95;"></rect><text lineHeight="1.2" class="djs-label" style="font-family: Arial, sans-serif; font-size: 12px; font-weight: normal; fill: black;"><tspan x="17.0771484375" y="39.2">Input LCY deposit </tspan><tspan x="27.154296875" y="53.6">details in FCY </tspan><tspan x="43.65234375" y="68">account</tspan></text></g><g class="djs-visual" id="Activity_0y9noof" transform="translate(195 800)"><rect x="0" y="0" width="130" height="100" rx="10" ry="10" style="stroke: black; stroke-width: 2px; fill: white; fill-opacity: 0.95;"></rect><text lineHeight="1.2" class="djs-label" style="font-family: Arial, sans-serif; font-size: 12px; font-weight: normal; fill: black;"><tspan x="17.0771484375" y="46.4">Input LCY deposit </tspan><tspan x="5.07421875" y="60.8">details in LCY account</tspan></text></g><g class="djs-visual" id="Activity_1h1mzi2" transform="translate(595 974)"><rect x="0" y="0" width="130" height="100" rx="10" ry="10" style="stroke: black; stroke-width: 2px; fill: white; fill-opacity: 0.95;"></rect><text lineHeight="1.2" class="djs-label" style="font-family: Arial, sans-serif; font-size: 12px; font-weight: normal; fill: black;"><tspan x="7.6337890625" y="53.599999999999994">Assign exchange rate</tspan></text></g><g class="djs-visual" id="Gateway_0rds801" transform="translate(235 1115)"><polygon points="25,0 50,25 25,50 0,25" style="stroke: black; stroke-width: 2px; fill: white; fill-opacity: 0.95;"></polygon><path d="m 16,15 7.42857142857143,9.714285714285715 -7.42857142857143,9.714285714285715 3.428571428571429,0 5.714285714285715,-7.464228571428572 5.714285714285715,7.464228571428572 3.428571428571429,0 -7.42857142857143,-9.714285714285715 7.42857142857143,-9.714285714285715 -3.428571428571429,0 -5.714285714285715,7.464228571428572 -5.714285714285715,-7.464228571428572 -3.428571428571429,0 z" style="fill: black; stroke-width: 1px; stroke: black;"></path></g><g class="djs-visual" id="Activity_1j5te5k" transform="translate(195 1230)"><rect x="0" y="0" width="130" height="100" rx="10" ry="10" style="stroke: black; stroke-width: 2px; fill: white; fill-opacity: 0.95;"></rect><text lineHeight="1.2" class="djs-label" style="font-family: Arial, sans-serif; font-size: 12px; font-weight: normal; fill: black;"><tspan x="20.748046875" y="46.4">Validate account </tspan><tspan x="44.154296875" y="60.8">number</tspan></text></g><g class="djs-visual" id="Gateway_19o35gg" transform="translate(235 1385)"><polygon points="25,0 50,25 25,50 0,25" style="stroke: black; stroke-width: 2px; fill: white; fill-opacity: 0.95;"></polygon><path d="m 16,15 7.42857142857143,9.714285714285715 -7.42857142857143,9.714285714285715 3.428571428571429,0 5.714285714285715,-7.464228571428572 5.714285714285715,7.464228571428572 3.428571428571429,0 -7.42857142857143,-9.714285714285715 7.42857142857143,-9.714285714285715 -3.428571428571429,0 -5.714285714285715,7.464228571428572 -5.714285714285715,-7.464228571428572 -3.428571428571429,0 z" style="fill: black; stroke-width: 1px; stroke: black;"></path></g><g class="djs-visual" id="Activity_0fy3xt8" transform="translate(503 1490)"><rect x="0" y="0" width="130" height="100" rx="10" ry="10" style="stroke: black; stroke-width: 2px; fill: white; fill-opacity: 0.95;"></rect><text lineHeight="1.2" class="djs-label" style="font-family: Arial, sans-serif; font-size: 12px; font-weight: normal; fill: black;"><tspan x="19.8203125" y="53.599999999999994">Inform Customer</tspan></text></g><g class="djs-visual" id="Activity_1i254f7" transform="translate(195 1500)"><rect x="0" y="0" width="130" height="100" rx="10" ry="10" style="stroke: black; stroke-width: 2px; fill: white; fill-opacity: 0.95;"></rect><text lineHeight="1.2" class="djs-label" style="font-family: Arial, sans-serif; font-size: 12px; font-weight: normal; fill: black;"><tspan x="17.1513671875" y="46.4">Display Customer </tspan><tspan x="49.828125" y="60.8">name</tspan></text></g><g class="djs-visual" id="Event_0z4p1ev" transform="translate(550 1662)"><circle cx="18" cy="18" r="18" style="stroke: black; stroke-width: 4px; fill: white; fill-opacity: 0.95;"></circle></g><g class="djs-visual" id="Event_0z4p1ev_label" transform="translate(518 1743)"><text lineHeight="1.2" class="djs-label" style="font-family: Arial, sans-serif; font-size: 11px; font-weight: normal; fill: black;"><tspan x="0" y="9.899999999999999">Transaction rejected</tspan></text></g><g class="djs-visual" id="Activity_0k8l2qj" transform="translate(195 2282)"><rect x="0" y="0" width="130" height="100" rx="10" ry="10" style="stroke: black; stroke-width: 2px; fill: white; fill-opacity: 0.95;"></rect><text lineHeight="1.2" class="djs-label" style="font-family: Arial, sans-serif; font-size: 12px; font-weight: normal; fill: black;"><tspan x="10.984375" y="53.599999999999994">Verify teller/ till limits</tspan></text></g><g class="djs-visual" id="Gateway_1ew7f2r" transform="translate(235 2435)"><polygon points="25,0 50,25 25,50 0,25" style="stroke: black; stroke-width: 2px; fill: white; fill-opacity: 0.95;"></polygon><path d="m 16,15 7.42857142857143,9.714285714285715 -7.42857142857143,9.714285714285715 3.428571428571429,0 5.714285714285715,-7.464228571428572 5.714285714285715,7.464228571428572 3.428571428571429,0 -7.42857142857143,-9.714285714285715 7.42857142857143,-9.714285714285715 -3.428571428571429,0 -5.714285714285715,7.464228571428572 -5.714285714285715,-7.464228571428572 -3.428571428571429,0 z" style="fill: black; stroke-width: 1px; stroke: black;"></path></g><g class="djs-visual" id="Activity_03wnp9m" transform="translate(595 2550)"><rect x="0" y="0" width="130" height="100" rx="10" ry="10" style="stroke: black; stroke-width: 2px; fill: white; fill-opacity: 0.95;"></rect><text lineHeight="1.2" class="djs-label" style="font-family: Arial, sans-serif; font-size: 12px; font-weight: normal; fill: black;"><tspan x="16.4765625" y="53.599999999999994">Generate override</tspan></text></g><g class="djs-visual" id="Activity_191j4hg" transform="translate(195 2550)"><rect x="0" y="0" width="130" height="100" rx="10" ry="10" style="stroke: black; stroke-width: 2px; fill: white; fill-opacity: 0.95;"></rect><text lineHeight="1.2" class="djs-label" style="font-family: Arial, sans-serif; font-size: 12px; font-weight: normal; fill: black;"><tspan x="12.4775390625" y="46.4">Move transaction to </tspan><tspan x="12.12890625" y="60.8">authorisation queue</tspan></text></g><g class="djs-visual" id="Gateway_02a8mio" transform="translate(635 2705)"><polygon points="25,0 50,25 25,50 0,25" style="stroke: black; stroke-width: 2px; fill: white; fill-opacity: 0.95;"></polygon><path d="m 16,15 7.42857142857143,9.714285714285715 -7.42857142857143,9.714285714285715 3.428571428571429,0 5.714285714285715,-7.464228571428572 5.714285714285715,7.464228571428572 3.428571428571429,0 -7.42857142857143,-9.714285714285715 7.42857142857143,-9.714285714285715 -3.428571428571429,0 -5.714285714285715,7.464228571428572 -5.714285714285715,-7.464228571428572 -3.428571428571429,0 z" style="fill: black; stroke-width: 1px; stroke: black;"></path></g><g class="djs-visual" id="Activity_0d1dv1u" transform="translate(975 2830)"><rect x="0" y="0" width="130" height="100" rx="10" ry="10" style="stroke: black; stroke-width: 2px; fill: white; fill-opacity: 0.95;"></rect><text lineHeight="1.2" class="djs-label" style="font-family: Arial, sans-serif; font-size: 12px; font-weight: normal; fill: black;"><tspan x="24.486328125" y="53.599999999999994">Reject override</tspan></text></g><g class="djs-visual" id="Activity_0idjeb6" transform="translate(595 2830)"><rect x="0" y="0" width="130" height="100" rx="10" ry="10" style="stroke: black; stroke-width: 2px; fill: white; fill-opacity: 0.95;"></rect><text lineHeight="1.2" class="djs-label" style="font-family: Arial, sans-serif; font-size: 12px; font-weight: normal; fill: black;"><tspan x="23.650390625" y="53.599999999999994">Accept override</tspan></text></g><g class="djs-visual" id="Activity_11s91xn" transform="translate(595 3010)"><rect x="0" y="0" width="130" height="100" rx="10" ry="10" style="stroke: black; stroke-width: 2px; fill: white; fill-opacity: 0.95;"></rect><text lineHeight="1.2" class="djs-label" style="font-family: Arial, sans-serif; font-size: 12px; font-weight: normal; fill: black;"><tspan x="12.4775390625" y="46.4">Move transaction to </tspan><tspan x="12.12890625" y="60.8">authorisation queue</tspan></text></g><g class="djs-visual" id="Activity_08wfwt6" transform="translate(975 3010)"><rect x="0" y="0" width="130" height="100" rx="10" ry="10" style="stroke: black; stroke-width: 2px; fill: white; fill-opacity: 0.95;"></rect><text lineHeight="1.2" class="djs-label" style="font-family: Arial, sans-serif; font-size: 12px; font-weight: normal; fill: black;"><tspan x="15.1435546875" y="53.599999999999994">Cancel transaction</tspan></text></g><g class="djs-visual" id="Event_0nm1itp" transform="translate(1022 3197)"><circle cx="18" cy="18" r="18" style="stroke: black; stroke-width: 4px; fill: white; fill-opacity: 0.95;"></circle></g><g class="djs-visual" id="Event_0nm1itp_label" transform="translate(992 3240)"><text lineHeight="1.2" class="djs-label" style="font-family: Arial, sans-serif; font-size: 11px; font-weight: normal; fill: black;"><tspan x="0" y="9.899999999999999">Transaction aborted</tspan></text></g><g class="djs-visual" id="Gateway_121g3vd" transform="translate(235 3135)"><polygon points="25,0 50,25 25,50 0,25" style="stroke: black; stroke-width: 2px; fill: white; fill-opacity: 0.95;"></polygon><path d="m 16,15 7.42857142857143,9.714285714285715 -7.42857142857143,9.714285714285715 3.428571428571429,0 5.714285714285715,-7.464228571428572 5.714285714285715,7.464228571428572 3.428571428571429,0 -7.42857142857143,-9.714285714285715 7.42857142857143,-9.714285714285715 -3.428571428571429,0 -5.714285714285715,7.464228571428572 -5.714285714285715,-7.464228571428572 -3.428571428571429,0 z" style="fill: black; stroke-width: 1px; stroke: black;"></path></g><g class="djs-visual" id="Activity_1cmeagd" transform="translate(195 3260)"><rect x="0" y="0" width="130" height="100" rx="10" ry="10" style="stroke: black; stroke-width: 2px; fill: white; fill-opacity: 0.95;"></rect><text lineHeight="1.2" class="djs-label" style="font-family: Arial, sans-serif; font-size: 12px; font-weight: normal; fill: black;"><tspan x="11.8037109375" y="46.4">Verify and authorise </tspan><tspan x="21.146484375" y="60.8">cash transaction</tspan></text></g><g class="djs-visual" id="Activity_1mvqaps" transform="translate(195 3444)"><rect x="0" y="0" width="130" height="100" rx="10" ry="10" style="stroke: black; stroke-width: 2px; fill: white; fill-opacity: 0.95;"></rect><text lineHeight="1.2" class="djs-label" style="font-family: Arial, sans-serif; font-size: 12px; font-weight: normal; fill: black;"><tspan x="8.8037109375" y="46.4">Generate transaction </tspan><tspan x="43.984375" y="60.8">receipts</tspan></text></g><g class="djs-visual" id="Activity_1gmi2dd" transform="translate(195 3634)"><rect x="0" y="0" width="130" height="100" rx="10" ry="10" style="stroke: black; stroke-width: 2px; fill: white; fill-opacity: 0.95;"></rect><text lineHeight="1.2" class="djs-label" style="font-family: Arial, sans-serif; font-size: 12px; font-weight: normal; fill: black;"><tspan x="16.142578125" y="46.4">Hand over copy to </tspan><tspan x="38.4912109375" y="60.8">Customer</tspan></text></g><g class="djs-visual" id="DataObjectReference_16p7nxu" transform="translate(417 3659)"><path d="m 0,0 28.23529411764706,0 7.058823529411765,8.196721311475411 0,40.98360655737705 -35.294117647058826,0 0,-49.18032786885246 28.23529411764706,0 0,8.196721311475411 7.058823529411765,0" style="fill: white; stroke-width: 2px; stroke: black; fill-opacity: 0.95;"></path></g><g class="djs-visual" id="DataObjectReference_16p7nxu_label" transform="translate(387 3716)"><text lineHeight="1.2" class="djs-label" style="font-family: Arial, sans-serif; font-size: 11px; font-weight: normal; fill: black;"><tspan x="0" y="9.899999999999999">Transaction Receipt</tspan></text></g><g class="djs-visual" id="Event_1pv3yvo" transform="translate(242 3816)"><circle cx="18" cy="18" r="18" style="stroke: black; stroke-width: 4px; fill: white; fill-opacity: 0.95;"></circle></g><g class="djs-visual" id="Event_1pv3yvo_label" transform="translate(217 3859)"><text lineHeight="1.2" class="djs-label" style="font-family: Arial, sans-serif; font-size: 11px; font-weight: normal; fill: black;"><tspan x="0" y="9.899999999999999">LCY cash deposit </tspan><tspan x="18.09814453125" y="23.099999999999998">completed</tspan></text></g><g class="djs-visual" id="DataObjectReference_0udbk3p" transform="translate(417 3469)"><path d="m 0,0 28.23529411764706,0 7.058823529411765,8.196721311475411 0,40.98360655737705 -35.294117647058826,0 0,-49.18032786885246 28.23529411764706,0 0,8.196721311475411 7.058823529411765,0" style="fill: white; stroke-width: 2px; stroke: black; fill-opacity: 0.95;"></path></g><g class="djs-visual" id="DataObjectReference_0udbk3p_label" transform="translate(387 3526)"><text lineHeight="1.2" class="djs-label" style="font-family: Arial, sans-serif; font-size: 11px; font-weight: normal; fill: black;"><tspan x="0" y="9.899999999999999">Transaction Receipt</tspan></text></g><g class="djs-visual" id="Activity_0dy4tre" transform="translate(195 1660)"><rect x="0" y="0" width="130" height="100" rx="10" ry="10" style="stroke: black; stroke-width: 2px; fill: white; fill-opacity: 0.95;"></rect><text lineHeight="1.2" class="djs-label" style="font-family: Arial, sans-serif; font-size: 12px; font-weight: normal; fill: black;"><tspan x="9.6328125" y="53.599999999999994">Verify account status</tspan></text></g><g class="djs-visual" id="Gateway_1y8e8zu" transform="translate(235 1805)"><polygon points="25,0 50,25 25,50 0,25" style="stroke: black; stroke-width: 2px; fill: white; fill-opacity: 0.95;"></polygon><path d="m 16,15 7.42857142857143,9.714285714285715 -7.42857142857143,9.714285714285715 3.428571428571429,0 5.714285714285715,-7.464228571428572 5.714285714285715,7.464228571428572 3.428571428571429,0 -7.42857142857143,-9.714285714285715 7.42857142857143,-9.714285714285715 -3.428571428571429,0 -5.714285714285715,7.464228571428572 -5.714285714285715,-7.464228571428572 -3.428571428571429,0 z" style="fill: black; stroke-width: 1px; stroke: black;"></path></g><g class="djs-visual" id="Event_01gaog3" transform="translate(550 1942)"><circle cx="18" cy="18" r="18" style="stroke: black; stroke-width: 4px; fill: white; fill-opacity: 0.95;"></circle></g><g class="djs-visual" id="Event_01gaog3_label" transform="translate(517 1996)"><text lineHeight="1.2" class="djs-label" style="font-family: Arial, sans-serif; font-size: 11px; font-weight: normal; fill: black;"><tspan x="0.861083984375" y="9.899999999999999">Account status does </tspan><tspan x="0" y="23.099999999999998">not allow transaction</tspan></text></g><g class="djs-visual" id="Activity_1py0det" transform="translate(195 1960)"><rect x="0" y="0" width="130" height="100" rx="10" ry="10" style="stroke: black; stroke-width: 2px; fill: white; fill-opacity: 0.95;"></rect><text lineHeight="1.2" class="djs-label" style="font-family: Arial, sans-serif; font-size: 12px; font-weight: normal; fill: black;"><tspan x="31.8232421875" y="46.4">Determine if </tspan><tspan x="6.7998046875" y="60.8">authorisation required</tspan></text></g><g class="djs-visual" id="Gateway_07s351u" transform="translate(235 2105)"><polygon points="25,0 50,25 25,50 0,25" style="stroke: black; stroke-width: 2px; fill: white; fill-opacity: 0.95;"></polygon><path d="m 16,15 7.42857142857143,9.714285714285715 -7.42857142857143,9.714285714285715 3.428571428571429,0 5.714285714285715,-7.464228571428572 5.714285714285715,7.464228571428572 3.428571428571429,0 -7.42857142857143,-9.714285714285715 7.42857142857143,-9.714285714285715 -3.428571428571429,0 -5.714285714285715,7.464228571428572 -5.714285714285715,-7.464228571428572 -3.428571428571429,0 z" style="fill: black; stroke-width: 1px; stroke: black;"></path></g><g class="djs-visual" id="Event_1mvamt8" transform="translate(550 2172)"><circle cx="18" cy="18" r="18" style="stroke: black; stroke-width: 4px; fill: white; fill-opacity: 0.95;"></circle></g><g class="djs-visual" id="Event_1mvamt8_label" transform="translate(527 2215)"><text lineHeight="1.2" class="djs-label" style="font-family: Arial, sans-serif; font-size: 11px; font-weight: normal; fill: black;"><tspan x="0" y="9.899999999999999">Authorisation not </tspan><tspan x="21.069091796875" y="23.099999999999998">required</tspan></text></g><g class="djs-visual" id="TextAnnotation_0f313j3" transform="translate(370 240)"><rect x="0" y="0" width="120" height="68" rx="0" ry="0" style="stroke: none; stroke-width: 2px; fill: none;"></rect><path d="m 0, 0 m 10,0 l -10,0 l 0,68 l 10,0" style="fill: none; stroke-width: 2px; stroke: black;"></path><text lineHeight="1.2" class="djs-label" style="font-family: Arial, sans-serif; font-size: 12px; font-weight: normal; fill: black;"><tspan x="5" y="15.799999999999999">- Account number</tspan><tspan x="5" y="30.199999999999996">- Name</tspan><tspan x="5" y="44.599999999999994">- Amount/ Currency</tspan><tspan x="5" y="58.99999999999999">- Passbook</tspan></text></g><g class="djs-visual" id="TextAnnotation_0k321u0" transform="translate(370 410)"><rect x="0" y="0" width="210" height="82" rx="0" ry="0" style="stroke: none; stroke-width: 2px; fill: none;"></rect><path d="m 0, 0 m 10,0 l -10,0 l 0,82 l 10,0" style="fill: none; stroke-width: 2px; stroke: black;"></path><text lineHeight="1.2" class="djs-label" style="font-family: Arial, sans-serif; font-size: 12px; font-weight: normal; fill: black;"><tspan x="5" y="15.799999999999999">LCY in LCY account or FCY account </tspan><tspan x="5" y="30.199999999999996">Cash Deposit:</tspan><tspan x="5" y="44.599999999999994">- Amount</tspan><tspan x="5" y="58.99999999999999">- Currency</tspan><tspan x="5" y="73.39999999999999">- Account number</tspan></text></g><g class="djs-visual" id="TextAnnotation_1jfl7a9" transform="translate(370 3564)"><rect x="0" y="0" width="150" height="50" rx="0" ry="0" style="stroke: none; stroke-width: 2px; fill: none;"></rect><path d="m 0, 0 m 10,0 l -10,0 l 0,50 l 10,0" style="fill: none; stroke-width: 2px; stroke: black;"></path><text lineHeight="1.2" class="djs-label" style="font-family: Arial, sans-serif; font-size: 12px; font-weight: normal; fill: black;"><tspan x="5" y="15.799999999999999">Customer to be informed </tspan><tspan x="5" y="30.199999999999996">to check that amount of </tspan><tspan x="5" y="44.599999999999994">deposit is correct</tspan></text></g><g class="djs-visual" id="TextAnnotation_18da5im" transform="translate(385 1200)"><rect x="0" y="0" width="365" height="69" rx="0" ry="0" style="stroke: none; stroke-width: 2px; fill: none;"></rect><path d="m 0, 0 m 10,0 l -10,0 l 0,69 l 10,0" style="fill: none; stroke-width: 2px; stroke: black;"></path><text lineHeight="1.2" class="djs-label" style="font-family: Arial, sans-serif; font-size: 12px; font-weight: normal; fill: black;"><tspan x="5" y="15.799999999999999">For Multi-Valued Transaction (transaction involving more than one </tspan><tspan x="5" y="30.199999999999996">credit account&nbsp;and different amounts credited to each account)</tspan><tspan x="5" y="44.599999999999994">- Credit account currencies should be same</tspan><tspan x="5" y="58.99999999999999">- Credit accounts belong to same customer</tspan></text></g><g class="djs-visual" id="DataInputAssociation_1ocqs7o" transform="translate(0 0)"><polyline points="88,370 195,370 " style="fill: none; stroke: black; stroke-width: 2px; stroke-dasharray: 0.5, 5; stroke-linecap: round; stroke-linejoin: round; marker-end: url(&quot;#association-end-white-black-9kdlm897bhd61hgjyzr15ekpv&quot;);"></polyline></g><g class="djs-visual" id="Flow_19rytrl_label" transform="translate(677 703)"><text lineHeight="1.2" class="djs-label" style="font-family: Arial, sans-serif; font-size: 11px; font-weight: normal; fill: black;"><tspan x="8.802001953125" y="9.899999999999999">LCY cash deposit in </tspan><tspan x="12.786376953125" y="23.099999999999998">FCY account (E.g. </tspan><tspan x="0" y="36.3">Bank's currency is USD</tspan><tspan x="10.231689453125" y="49.5">and deposit USD in </tspan><tspan x="23.315185546875" y="62.7">GBP account)</tspan></text></g><g class="djs-visual" id="Flow_0d5nuw9_label" transform="translate(265 700)"><text lineHeight="1.2" class="djs-label" style="font-family: Arial, sans-serif; font-size: 11px; font-weight: normal; fill: black;"><tspan x="4.53271484375" y="9.899999999999999">LCY cash deposit in </tspan><tspan x="8.81396484375" y="23.099999999999998">LCY account (E.g. </tspan><tspan x="8.649169921875" y="36.3">Bank's currency is </tspan><tspan x="11.30078125" y="49.5">USD and deposit </tspan><tspan x="0" y="62.7">USD in USD account)</tspan></text></g><g class="djs-visual" id="Flow_1sxlaei_label" transform="translate(267 980)"><text lineHeight="1.2" class="djs-label" style="font-family: Arial, sans-serif; font-size: 11px; font-weight: normal; fill: black;"><tspan x="0" y="9.899999999999999">LCY cash deposit </tspan><tspan x="1.221923828125" y="23.099999999999998">into LCY account </tspan><tspan x="22.07470703125" y="36.3">captured</tspan></text></g><g class="djs-visual" id="Flow_0wdm2k4_label" transform="translate(670 1090)"><text lineHeight="1.2" class="djs-label" style="font-family: Arial, sans-serif; font-size: 11px; font-weight: normal; fill: black;"><tspan x="0" y="9.899999999999999">LCY cash deposit </tspan><tspan x="0.921142578125" y="23.099999999999998">into FCY account </tspan><tspan x="22.07470703125" y="36.3">captured</tspan></text></g><g class="djs-visual" id="Flow_0j88bjv_label" transform="translate(578 1447)"><text lineHeight="1.2" class="djs-label" style="font-family: Arial, sans-serif; font-size: 11px; font-weight: normal; fill: black;"><tspan x="0" y="9.899999999999999">Account number </tspan><tspan x="5.808837890625" y="23.099999999999998">does not exist</tspan></text></g><g class="djs-visual" id="Flow_1ir0tul_label" transform="translate(273 1447)"><text lineHeight="1.2" class="djs-label" style="font-family: Arial, sans-serif; font-size: 11px; font-weight: normal; fill: black;"><tspan x="0" y="9.899999999999999">Account number </tspan><tspan x="25.9091796875" y="23.099999999999998">exists</tspan></text></g><g class="djs-visual" id="Flow_1ep7o1x_label" transform="translate(271 2493)"><text lineHeight="1.2" class="djs-label" style="font-family: Arial, sans-serif; font-size: 11px; font-weight: normal; fill: black;"><tspan x="0" y="9.899999999999999">Within Limit</tspan></text></g><g class="djs-visual" id="Flow_12g6uwk_label" transform="translate(1055 2775)"><text lineHeight="1.2" class="djs-label" style="font-family: Arial, sans-serif; font-size: 11px; font-weight: normal; fill: black;"><tspan x="0" y="9.899999999999999">Override to be </tspan><tspan x="14.359375" y="23.099999999999998">declined</tspan></text></g><g class="djs-visual" id="Flow_0y1o0vs_label" transform="translate(676 2775)"><text lineHeight="1.2" class="djs-label" style="font-family: Arial, sans-serif; font-size: 11px; font-weight: normal; fill: black;"><tspan x="0" y="9.899999999999999">Override to be </tspan><tspan x="12.5234375" y="23.099999999999998">accepted</tspan></text></g><g class="djs-visual" id="Flow_0ws1p9h_label" transform="translate(271 3195)"><text lineHeight="1.2" class="djs-label" style="font-family: Arial, sans-serif; font-size: 11px; font-weight: normal; fill: black;"><tspan x="1.3203125" y="9.899999999999999">Transaction </tspan><tspan x="0" y="23.099999999999998">prompted to </tspan><tspan x="4.225830078125" y="36.3">authoriser</tspan></text></g><g class="djs-visual" id="DataOutputAssociation_02nqhnv" transform="translate(0 0)"><polyline points="325,3494 417,3494 " style="fill: none; stroke: black; stroke-width: 2px; stroke-dasharray: 0.5, 5; stroke-linecap: round; stroke-linejoin: round; marker-end: url(&quot;#association-end-white-black-9kdlm897bhd61hgjyzr15ekpv&quot;);"></polyline></g><g class="djs-visual" id="DataOutputAssociation_0soemcl" transform="translate(0 0)"><polyline points="325,3684 417,3684 " style="fill: none; stroke: black; stroke-width: 2px; stroke-dasharray: 0.5, 5; stroke-linecap: round; stroke-linejoin: round; marker-end: url(&quot;#association-end-white-black-9kdlm897bhd61hgjyzr15ekpv&quot;);"></polyline></g><g class="djs-visual" id="Flow_1kzqs4c_label" transform="translate(677 2493)"><text lineHeight="1.2" class="djs-label" style="font-family: Arial, sans-serif; font-size: 11px; font-weight: normal; fill: black;"><tspan x="0" y="9.899999999999999">Limit exceeded</tspan></text></g><g class="djs-visual" id="Flow_07kwtz3_label" transform="translate(277 1872)"><text lineHeight="1.2" class="djs-label" style="font-family: Arial, sans-serif; font-size: 11px; font-weight: normal; fill: black;"><tspan x="0" y="9.899999999999999">Account status allows </tspan><tspan x="26.230224609375" y="23.099999999999998">transaction</tspan></text></g><g class="djs-visual" id="Flow_06mwqm0_label" transform="translate(268 2176)"><text lineHeight="1.2" class="djs-label" style="font-family: Arial, sans-serif; font-size: 11px; font-weight: normal; fill: black;"><tspan x="0" y="9.899999999999999">Authorisation </tspan><tspan x="11.4296875" y="23.099999999999998">required</tspan></text></g><g class="djs-visual" id="Association_12tx0xe" transform="translate(0 0)"><polyline points="325,329 370,299 " style="fill: none; stroke: black; stroke-width: 2px; stroke-dasharray: 0.5, 5; stroke-linecap: round; stroke-linejoin: round;"></polyline></g><g class="djs-visual" id="Association_0u01n2g" transform="translate(0 0)"><polyline points="323,494 370,460 " style="fill: none; stroke: black; stroke-width: 2px; stroke-dasharray: 0.5, 5; stroke-linecap: round; stroke-linejoin: round;"></polyline></g><g class="djs-visual" id="Association_0ng7x9h" transform="translate(0 0)"><polyline points="323,3638 370,3604 " style="fill: none; stroke: black; stroke-width: 2px; stroke-dasharray: 0.5, 5; stroke-linecap: round; stroke-linejoin: round;"></polyline></g><g class="djs-visual" id="Association_1sk0qnd" transform="translate(0 0)"><polyline points="325,1259 385,1239 " style="fill: none; stroke: black; stroke-width: 2px; stroke-dasharray: 0.5, 5; stroke-linecap: round; stroke-linejoin: round;"></polyline></g></g><g><rect class="viewport" x="-4353.477272727273" y="142" width="9857.954545454546" height="3750"></rect></g></svg>