<svg width="100%" height="100%" viewBox="-196, -333, 1835, 2622"><g><g class="djs-visual" id="Flow_1mhbquz" transform="translate(0 0)"><path d="m  410,580L410,630 " style="fill: none; stroke-width: 2px; stroke: black; stroke-linejoin: round; marker-end: url(&quot;#sequenceflow-end-white-black-70k6ylubobl7xw954brzg139o&quot;);"></path></g><g class="djs-visual" id="Flow_055hxgp" transform="translate(0 0)"><path d="m  65,400L410,400 L410,480 " style="fill: none; stroke-width: 2px; stroke: black; stroke-linejoin: round; marker-end: url(&quot;#sequenceflow-end-white-black-70k6ylubobl7xw954brzg139o&quot;);"></path></g><g class="djs-visual" id="Flow_0bj5ijt" transform="translate(0 0)"><path d="m  40,1820L40,1870 " style="fill: none; stroke-width: 2px; stroke: black; stroke-linejoin: round; marker-end: url(&quot;#sequenceflow-end-white-black-70k6ylubobl7xw954brzg139o&quot;);"></path></g><g class="djs-visual" id="Flow_0ohualx" transform="translate(0 0)"><path d="m  40,1660L40,1720 " style="fill: none; stroke-width: 2px; stroke: black; stroke-linejoin: round; marker-end: url(&quot;#sequenceflow-end-white-black-70k6ylubobl7xw954brzg139o&quot;);"></path></g><g class="djs-visual" id="Flow_1q32aak" transform="translate(0 0)"><path d="m  40,1500L40,1560 " style="fill: none; stroke-width: 2px; stroke: black; stroke-linejoin: round; marker-end: url(&quot;#sequenceflow-end-white-black-70k6ylubobl7xw954brzg139o&quot;);"></path></g><g class="djs-visual" id="Flow_03t4x8q" transform="translate(0 0)"><path d="m  40,1350L40,1400 " style="fill: none; stroke-width: 2px; stroke: black; stroke-linejoin: round; marker-end: url(&quot;#sequenceflow-end-white-black-70k6ylubobl7xw954brzg139o&quot;);"></path></g><g class="djs-visual" id="Flow_03g72ni" transform="translate(0 0)"><path d="m  40,1190L40,1250 " style="fill: none; stroke-width: 2px; stroke: black; stroke-linejoin: round; marker-end: url(&quot;#sequenceflow-end-white-black-70k6ylubobl7xw954brzg139o&quot;);"></path></g><g class="djs-visual" id="Flow_1x1zedw" transform="translate(0 0)"><path d="m  40,1040L40,1090 " style="fill: none; stroke-width: 2px; stroke: black; stroke-linejoin: round; marker-end: url(&quot;#sequenceflow-end-white-black-70k6ylubobl7xw954brzg139o&quot;);"></path></g><g class="djs-visual" id="Flow_1ikntln" transform="translate(0 0)"><path d="m  40,880L40,940 " style="fill: none; stroke-width: 2px; stroke: black; stroke-linejoin: round; marker-end: url(&quot;#sequenceflow-end-white-black-70k6ylubobl7xw954brzg139o&quot;);"></path></g><g class="djs-visual" id="Flow_1uo7si9" transform="translate(0 0)"><path d="m  40,730L40,780 " style="fill: none; stroke-width: 2px; stroke: black; stroke-linejoin: round; marker-end: url(&quot;#sequenceflow-end-white-black-70k6ylubobl7xw954brzg139o&quot;);"></path></g><g class="djs-visual" id="Flow_04p71er" transform="translate(0 0)"><path d="m  40,580L40,630 " style="fill: none; stroke-width: 2px; stroke: black; stroke-linejoin: round; marker-end: url(&quot;#sequenceflow-end-white-black-70k6ylubobl7xw954brzg139o&quot;);"></path></g><g class="djs-visual" id="Flow_0qid0kz" transform="translate(0 0)"><path d="m  40,425L40,480 " style="fill: none; stroke-width: 2px; stroke: black; stroke-linejoin: round; marker-end: url(&quot;#sequenceflow-end-white-black-70k6ylubobl7xw954brzg139o&quot;);"></path></g><g class="djs-visual" id="Flow_1q8rfn4" transform="translate(0 0)"><path d="m  40,170L40,220 " style="fill: none; stroke-width: 2px; stroke: black; stroke-linejoin: round; marker-end: url(&quot;#sequenceflow-end-white-black-70k6ylubobl7xw954brzg139o&quot;);"></path></g><g class="djs-visual" id="Flow_1w25cv5" transform="translate(0 0)"><path d="m  40,20L40,70 " style="fill: none; stroke-width: 2px; stroke: black; stroke-linejoin: round; marker-end: url(&quot;#sequenceflow-end-white-black-70k6ylubobl7xw954brzg139o&quot;);"></path></g><g class="djs-visual" id="Flow_1uo8yb5" transform="translate(0 0)"><path d="m  65,2050L170,2050 L170,2162 " style="fill: none; stroke-width: 2px; stroke: black; stroke-linejoin: round; marker-end: url(&quot;#sequenceflow-end-white-black-70k6ylubobl7xw954brzg139o&quot;);"></path></g><g class="djs-visual" id="Flow_03uubuu" transform="translate(0 0)"><path d="m  40,2075L40,2162 " style="fill: none; stroke-width: 2px; stroke: black; stroke-linejoin: round; marker-end: url(&quot;#sequenceflow-end-white-black-70k6ylubobl7xw954brzg139o&quot;);"></path></g><g class="djs-visual" id="Flow_06a6egz" transform="translate(0 0)"><path d="m  40,1970L40,2025 " style="fill: none; stroke-width: 2px; stroke: black; stroke-linejoin: round; marker-end: url(&quot;#sequenceflow-end-white-black-70k6ylubobl7xw954brzg139o&quot;);"></path></g><g class="djs-visual" id="Flow_0ikkmvv" transform="translate(0 0)"><path d="m  410,730L410,802 " style="fill: none; stroke-width: 2px; stroke: black; stroke-linejoin: round; marker-end: url(&quot;#sequenceflow-end-white-black-70k6ylubobl7xw954brzg139o&quot;);"></path></g><g class="djs-visual" id="Flow_1s7e4v6" transform="translate(0 0)"><path d="m  40,320L40,375 " style="fill: none; stroke-width: 2px; stroke: black; stroke-linejoin: round; marker-end: url(&quot;#sequenceflow-end-white-black-70k6ylubobl7xw954brzg139o&quot;);"></path></g><g class="djs-visual" id="Flow_1kqic3e" transform="translate(0 0)"><path d="m  40,-162L40,-80 " style="fill: none; stroke-width: 2px; stroke: black; stroke-linejoin: round; marker-end: url(&quot;#sequenceflow-end-white-black-70k6ylubobl7xw954brzg139o&quot;);"></path></g><g class="djs-visual" id="StartEvent_1bm324f" transform="translate(22 -198)"><circle cx="18" cy="18" r="18" style="stroke: black; stroke-width: 2px; fill: white; fill-opacity: 0.95;"></circle></g><g class="djs-visual" id="StartEvent_1bm324f_label" transform="translate(-7 -277)"><text lineHeight="1.2" class="djs-label" style="font-family: Arial, sans-serif; font-size: 11px; font-weight: normal; fill: black;"><tspan x="0" y="9.899999999999999">Customer does not </tspan><tspan x="35.1591796875" y="23.099999999999998">exist</tspan></text></g><g class="djs-visual" id="Activity_1fmkagu" transform="translate(-25 -80)"><rect x="0" y="0" width="130" height="100" rx="10" ry="10" style="stroke: black; stroke-width: 2px; fill: white; fill-opacity: 0.95;"></rect><text lineHeight="1.2" class="djs-label" style="font-family: Arial, sans-serif; font-size: 12px; font-weight: normal; fill: black;"><tspan x="21.818359375" y="46.4">Verify Customer </tspan><tspan x="35.6484375" y="60.8">documents</tspan></text></g><g class="djs-visual" id="Activity_1s6aq1m" transform="translate(-25 70)"><rect x="0" y="0" width="130" height="100" rx="10" ry="10" style="stroke: black; stroke-width: 2px; fill: white; fill-opacity: 0.95;"></rect><text lineHeight="1.2" class="djs-label" style="font-family: Arial, sans-serif; font-size: 12px; font-weight: normal; fill: black;"><tspan x="16.8115234375" y="46.4">Capture customer </tspan><tspan x="19.482421875" y="60.8">basic information</tspan></text></g><g class="djs-visual" id="Activity_164mhyg" transform="translate(-25 220)"><rect x="0" y="0" width="130" height="100" rx="10" ry="10" style="stroke: black; stroke-width: 2px; fill: white; fill-opacity: 0.95;"></rect><text lineHeight="1.2" class="djs-label" style="font-family: Arial, sans-serif; font-size: 12px; font-weight: normal; fill: black;"><tspan x="20.3232421875" y="46.4">Perform blacklist </tspan><tspan x="48.826171875" y="60.8">check</tspan></text></g><g class="djs-visual" id="Gateway_1y76fu6" transform="translate(15 375)"><polygon points="25,0 50,25 25,50 0,25" style="stroke: black; stroke-width: 2px; fill: white; fill-opacity: 0.95;"></polygon><path d="m 16,15 7.42857142857143,9.714285714285715 -7.42857142857143,9.714285714285715 3.428571428571429,0 5.714285714285715,-7.464228571428572 5.714285714285715,7.464228571428572 3.428571428571429,0 -7.42857142857143,-9.714285714285715 7.42857142857143,-9.714285714285715 -3.428571428571429,0 -5.714285714285715,7.464228571428572 -5.714285714285715,-7.464228571428572 -3.428571428571429,0 z" style="fill: black; stroke-width: 1px; stroke: black;"></path></g><g class="djs-visual" id="Activity_0fkabbh" transform="translate(-25 480)"><rect x="0" y="0" width="130" height="100" rx="10" ry="10" style="stroke: black; stroke-width: 2px; fill: white; fill-opacity: 0.95;"></rect><text lineHeight="1.2" class="djs-label" style="font-family: Arial, sans-serif; font-size: 12px; font-weight: normal; fill: black;"><tspan x="12.9765625" y="46.4">Confirm documents </tspan><tspan x="42.158203125" y="60.8">received</tspan></text></g><g class="djs-visual" id="Activity_0uly1th" transform="translate(-25 630)"><rect x="0" y="0" width="130" height="100" rx="10" ry="10" style="stroke: black; stroke-width: 2px; fill: white; fill-opacity: 0.95;"></rect><text lineHeight="1.2" class="djs-label" style="font-family: Arial, sans-serif; font-size: 12px; font-weight: normal; fill: black;"><tspan x="22.3095703125" y="46.4">Enter document </tspan><tspan x="23.1474609375" y="60.8">details received</tspan></text></g><g class="djs-visual" id="Activity_1fxc5li" transform="translate(-25 780)"><rect x="0" y="0" width="130" height="100" rx="10" ry="10" style="stroke: black; stroke-width: 2px; fill: white; fill-opacity: 0.95;"></rect><text lineHeight="1.2" class="djs-label" style="font-family: Arial, sans-serif; font-size: 12px; font-weight: normal; fill: black;"><tspan x="6.80859375" y="53.599999999999994">Collect&nbsp;signature card</tspan></text></g><g class="djs-visual" id="Activity_0ue4vvm" transform="translate(-25 940)"><rect x="0" y="0" width="130" height="100" rx="10" ry="10" style="stroke: black; stroke-width: 2px; fill: white; fill-opacity: 0.95;"></rect><text lineHeight="1.2" class="djs-label" style="font-family: Arial, sans-serif; font-size: 12px; font-weight: normal; fill: black;"><tspan x="13.3095703125" y="46.4">Authorise customer </tspan><tspan x="47.830078125" y="60.8">record</tspan></text></g><g class="djs-visual" id="Activity_144bopa" transform="translate(345 480)"><rect x="0" y="0" width="130" height="100" rx="10" ry="10" style="stroke: black; stroke-width: 2px; fill: white; fill-opacity: 0.95;"></rect><text lineHeight="1.2" class="djs-label" style="font-family: Arial, sans-serif; font-size: 12px; font-weight: normal; fill: black;"><tspan x="24.31640625" y="46.4">Abort customer </tspan><tspan x="43.4912109375" y="60.8">creation</tspan></text></g><g class="djs-visual" id="Activity_0fh2l37" transform="translate(345 630)"><rect x="0" y="0" width="130" height="100" rx="10" ry="10" style="stroke: black; stroke-width: 2px; fill: white; fill-opacity: 0.95;"></rect><text lineHeight="1.2" class="djs-label" style="font-family: Arial, sans-serif; font-size: 12px; font-weight: normal; fill: black;"><tspan x="27.3193359375" y="39.2">Store blacklist </tspan><tspan x="14.150390625" y="53.6">Customer matched </tspan><tspan x="44.9921875" y="68">records</tspan></text></g><g class="djs-visual" id="Activity_0su3w5b" transform="translate(-25 1090)"><rect x="0" y="0" width="130" height="100" rx="10" ry="10" style="stroke: black; stroke-width: 2px; fill: white; fill-opacity: 0.95;"></rect><text lineHeight="1.2" class="djs-label" style="font-family: Arial, sans-serif; font-size: 12px; font-weight: normal; fill: black;"><tspan x="18.8154296875" y="46.4">Create Customer </tspan><tspan x="45.4951171875" y="60.8">Record</tspan></text></g><g class="djs-visual" id="Event_1bam8mx" transform="translate(392 802)"><circle cx="18" cy="18" r="18" style="stroke: black; stroke-width: 4px; fill: white; fill-opacity: 0.95;"></circle></g><g class="djs-visual" id="Event_1bam8mx_label" transform="translate(365 845)"><text lineHeight="1.2" class="djs-label" style="font-family: Arial, sans-serif; font-size: 11px; font-weight: normal; fill: black;"><tspan x="0" y="9.899999999999999">Customer creation </tspan><tspan x="19.4453125" y="23.099999999999998">terminated</tspan></text></g><g class="djs-visual" id="Activity_1j04uas" transform="translate(-25 1250)"><rect x="0" y="0" width="130" height="100" rx="10" ry="10" style="stroke: black; stroke-width: 2px; fill: white; fill-opacity: 0.95;"></rect><text lineHeight="1.2" class="djs-label" style="font-family: Arial, sans-serif; font-size: 12px; font-weight: normal; fill: black;"><tspan x="25.810546875" y="46.4">Enquire Single </tspan><tspan x="25.15625" y="60.8">Customer view</tspan></text></g><g class="djs-visual" id="Activity_074ihm4" transform="translate(-25 1400)"><rect x="0" y="0" width="130" height="100" rx="10" ry="10" style="stroke: black; stroke-width: 2px; fill: white; fill-opacity: 0.95;"></rect><text lineHeight="1.2" class="djs-label" style="font-family: Arial, sans-serif; font-size: 12px; font-weight: normal; fill: black;"><tspan x="26.8154296875" y="46.4">Scan received </tspan><tspan x="35.6484375" y="60.8">documents</tspan></text></g><g class="djs-visual" id="Activity_13tkc90" transform="translate(-25 1560)"><rect x="0" y="0" width="130" height="100" rx="10" ry="10" style="stroke: black; stroke-width: 2px; fill: white; fill-opacity: 0.95;"></rect><text lineHeight="1.2" class="djs-label" style="font-family: Arial, sans-serif; font-size: 12px; font-weight: normal; fill: black;"><tspan x="19.1396484375" y="46.4">Capture scanned </tspan><tspan x="48.4951171875" y="60.8">image</tspan></text></g><g class="djs-visual" id="Activity_1mjfkba" transform="translate(-25 1720)"><rect x="0" y="0" width="130" height="100" rx="10" ry="10" style="stroke: black; stroke-width: 2px; fill: white; fill-opacity: 0.95;"></rect><text lineHeight="1.2" class="djs-label" style="font-family: Arial, sans-serif; font-size: 12px; font-weight: normal; fill: black;"><tspan x="18.1435546875" y="46.4">Upload images to </tspan><tspan x="21.4892578125" y="60.8">customer record</tspan></text></g><g class="djs-visual" id="Activity_1cl6nx1" transform="translate(-25 1870)"><rect x="0" y="0" width="130" height="100" rx="10" ry="10" style="stroke: black; stroke-width: 2px; fill: white; fill-opacity: 0.95;"></rect><text lineHeight="1.2" class="djs-label" style="font-family: Arial, sans-serif; font-size: 12px; font-weight: normal; fill: black;"><tspan x="23.4853515625" y="46.4">Confirm type of </tspan><tspan x="44.654296875" y="60.8">request</tspan></text></g><g class="djs-visual" id="Gateway_1983mov" transform="translate(15 2025)"><polygon points="25,0 50,25 25,50 0,25" style="stroke: black; stroke-width: 2px; fill: white; fill-opacity: 0.95;"></polygon><circle cx="25" cy="25" r="13" style="stroke: black; stroke-width: 2.5px; fill: white;"></circle></g><g class="djs-visual" id="Event_1q3zds9" transform="translate(22 2162)"><circle cx="18" cy="18" r="18" style="stroke: black; stroke-width: 4px; fill: white; fill-opacity: 0.95;"></circle></g><g class="djs-visual" id="Event_1q3zds9_label" transform="translate(3 2206)"><text lineHeight="1.2" class="djs-label" style="font-family: Arial, sans-serif; font-size: 11px; font-weight: normal; fill: black;"><tspan x="0" y="9.899999999999999">Product details </tspan><tspan x="19.498291015625" y="23.099999999999998">agreed</tspan></text></g><g class="djs-visual" id="Event_1ozg5j0" transform="translate(152 2162)"><circle cx="18" cy="18" r="18" style="stroke: black; stroke-width: 4px; fill: white; fill-opacity: 0.95;"></circle></g><g class="djs-visual" id="Event_1ozg5j0_label" transform="translate(133 2206)"><text lineHeight="1.2" class="djs-label" style="font-family: Arial, sans-serif; font-size: 11px; font-weight: normal; fill: black;"><tspan x="0" y="9.899999999999999">Product details </tspan><tspan x="19.498291015625" y="23.099999999999998">agreed</tspan></text></g><g class="djs-visual" id="DataObjectReference_1qjgd84" transform="translate(-118 1425)"><path d="m 0,0 28.23529411764706,0 7.058823529411765,8.196721311475411 0,40.98360655737705 -35.294117647058826,0 0,-49.18032786885246 28.23529411764706,0 0,8.196721311475411 7.058823529411765,0" style="fill: white; stroke-width: 2px; stroke: black; fill-opacity: 0.95;"></path></g><g class="djs-visual" id="DataObjectReference_1qjgd84_label" transform="translate(-140 1482)"><text lineHeight="1.2" class="djs-label" style="font-family: Arial, sans-serif; font-size: 11px; font-weight: normal; fill: black;"><tspan x="0.2333984375" y="9.899999999999999">Account opening </tspan><tspan x="3.6083984375" y="23.099999999999998">form; Signature </tspan><tspan x="5.609619140625" y="36.3">Card; Address </tspan><tspan x="0" y="49.5">Proof; Customer </tspan><tspan x="9.8271484375" y="62.7">Identification </tspan><tspan x="12.64306640625" y="75.9">Documents</tspan></text></g><g class="djs-visual" id="TextAnnotation_0tuyzg8" transform="translate(140 -160)"><rect x="0" y="0" width="168" height="84" rx="0" ry="0" style="stroke: none; stroke-width: 2px; fill: none;"></rect><path d="m 0, 0 m 10,0 l -10,0 l 0,84 l 10,0" style="fill: none; stroke-width: 2px; stroke: black;"></path><text lineHeight="1.2" class="djs-label" style="font-family: Arial, sans-serif; font-size: 12px; font-weight: normal; fill: black;"><tspan x="5" y="15.799999999999999">- Proof of Identity</tspan><tspan x="5" y="30.199999999999996">- Type of Identity document</tspan><tspan x="5" y="44.599999999999994">- Proof of address</tspan><tspan x="5" y="58.99999999999999">- Type of Add proof</tspan><tspan x="5" y="73.39999999999999">- Photograph</tspan></text></g><g class="djs-visual" id="TextAnnotation_0eg4vf3" transform="translate(140 30)"><rect x="0" y="0" width="252" height="40" rx="0" ry="0" style="stroke: none; stroke-width: 2px; fill: none;"></rect><path d="m 0, 0 m 10,0 l -10,0 l 0,40 l 10,0" style="fill: none; stroke-width: 2px; stroke: black;"></path><text lineHeight="1.2" class="djs-label" style="font-family: Arial, sans-serif; font-size: 12px; font-weight: normal; fill: black;"><tspan x="5" y="15.799999999999999">Full customer details can be captured as </tspan><tspan x="5" y="30.199999999999996">part of the customer amendment process</tspan></text></g><g class="djs-visual" id="TextAnnotation_0hvu5qv" transform="translate(140 170)"><rect x="0" y="0" width="205" height="55" rx="0" ry="0" style="stroke: none; stroke-width: 2px; fill: none;"></rect><path d="m 0, 0 m 10,0 l -10,0 l 0,55 l 10,0" style="fill: none; stroke-width: 2px; stroke: black;"></path><text lineHeight="1.2" class="djs-label" style="font-family: Arial, sans-serif; font-size: 12px; font-weight: normal; fill: black;"><tspan x="5" y="15.799999999999999">Blacklist customer can be stored </tspan><tspan x="5" y="30.199999999999996">inside Temenos Transact in </tspan><tspan x="5" y="44.599999999999994">EB.BLACKLIST.CUSTOMER Table</tspan></text></g><g class="djs-visual" id="TextAnnotation_1bduqtm" transform="translate(530 580)"><rect x="0" y="0" width="160" height="40" rx="0" ry="0" style="stroke: none; stroke-width: 2px; fill: none;"></rect><path d="m 0, 0 m 10,0 l -10,0 l 0,40 l 10,0" style="fill: none; stroke-width: 2px; stroke: black;"></path><text lineHeight="1.2" class="djs-label" style="font-family: Arial, sans-serif; font-size: 12px; font-weight: normal; fill: black;"><tspan x="5" y="15.799999999999999">Store matched records in</tspan><tspan x="5" y="30.199999999999996">EB.BLACKLIST.REPORT</tspan></text></g><g class="djs-visual" id="TextAnnotation_1lovv4o" transform="translate(140 750)"><rect x="0" y="0" width="140" height="30" rx="0" ry="0" style="stroke: none; stroke-width: 2px; fill: none;"></rect><path d="m 0, 0 m 10,0 l -10,0 l 0,30 l 10,0" style="fill: none; stroke-width: 2px; stroke: black;"></path><text lineHeight="1.2" class="djs-label" style="font-family: Arial, sans-serif; font-size: 12px; font-weight: normal; fill: black;"><tspan x="5" y="15.799999999999999">Image will be captured</tspan></text></g><g class="djs-visual" id="DataInputAssociation_1v4iugn" transform="translate(0 0)"><polyline points="-82,1450 -25,1450 " style="fill: none; stroke: black; stroke-width: 2px; stroke-dasharray: 0.5, 5; stroke-linecap: round; stroke-linejoin: round; marker-end: url(&quot;#association-end-white-black-70k6ylubobl7xw954brzg139o&quot;);"></polyline></g><g class="djs-visual" id="Flow_0qid0kz_label" transform="translate(49 443)"><text lineHeight="1.2" class="djs-label" style="font-family: Arial, sans-serif; font-size: 11px; font-weight: normal; fill: black;"><tspan x="0" y="9.899999999999999">Clean Customer</tspan></text></g><g class="djs-visual" id="Flow_03g72ni_label" transform="translate(56 1217)"><text lineHeight="1.2" class="djs-label" style="font-family: Arial, sans-serif; font-size: 11px; font-weight: normal; fill: black;"><tspan x="0" y="9.899999999999999">Islamic Customer </tspan><tspan x="24.796875" y="23.099999999999998">created</tspan></text></g><g class="djs-visual" id="Flow_055hxgp_label" transform="translate(423 436)"><text lineHeight="1.2" class="djs-label" style="font-family: Arial, sans-serif; font-size: 11px; font-weight: normal; fill: black;"><tspan x="0" y="9.899999999999999">Blacklisted </tspan><tspan x="3.0029296875" y="23.099999999999998">customer</tspan></text></g><g class="djs-visual" id="Association_1uyp27x" transform="translate(0 0)"><polyline points="102,-77 140,-107 " style="fill: none; stroke: black; stroke-width: 2px; stroke-dasharray: 0.5, 5; stroke-linecap: round; stroke-linejoin: round;"></polyline></g><g class="djs-visual" id="Association_0s4i47m" transform="translate(0 0)"><polyline points="104,75 140,50 " style="fill: none; stroke: black; stroke-width: 2px; stroke-dasharray: 0.5, 5; stroke-linecap: round; stroke-linejoin: round;"></polyline></g><g class="djs-visual" id="Association_1rvrlsb" transform="translate(0 0)"><polyline points="101,222 140,193 " style="fill: none; stroke: black; stroke-width: 2px; stroke-dasharray: 0.5, 5; stroke-linecap: round; stroke-linejoin: round;"></polyline></g><g class="djs-visual" id="Association_0y1umt0" transform="translate(0 0)"><polyline points="474,637 530,600 " style="fill: none; stroke: black; stroke-width: 2px; stroke-dasharray: 0.5, 5; stroke-linecap: round; stroke-linejoin: round;"></polyline></g><g class="djs-visual" id="Association_0mg9gry" transform="translate(0 0)"><polyline points="104,788 140,765 " style="fill: none; stroke: black; stroke-width: 2px; stroke-dasharray: 0.5, 5; stroke-linecap: round; stroke-linejoin: round;"></polyline></g></g><g><rect class="viewport" x="-3036.385496183206" y="-282.67175572519085" width="6622.137404580152" height="2519.083969465649"></rect></g></svg>