<svg width="100%" height="100%" viewBox="-114, -116, 1835, 2847"><g><g class="djs-visual" id="Flow_0869e62" transform="translate(0 0)"><path d="m  580,2360L580,2430 L420,2430 L420,1730 L150,1730 " style="fill: none; stroke-width: 2px; stroke: black; stroke-linejoin: round; marker-end: url(&quot;#sequenceflow-end-white-black-6cjyegg4rs2670e8vonvlu8lv&quot;);"></path></g><g class="djs-visual" id="Flow_0e8p3e3" transform="translate(0 0)"><path d="m  820,2530L820,2602 " style="fill: none; stroke-width: 2px; stroke: black; stroke-linejoin: round; marker-end: url(&quot;#sequenceflow-end-white-black-6cjyegg4rs2670e8vonvlu8lv&quot;);"></path></g><g class="djs-visual" id="Flow_0ckxt50" transform="translate(0 0)"><path d="m  820,2360L820,2430 " style="fill: none; stroke-width: 2px; stroke: black; stroke-linejoin: round; marker-end: url(&quot;#sequenceflow-end-white-black-6cjyegg4rs2670e8vonvlu8lv&quot;);"></path></g><g class="djs-visual" id="Flow_1hdoesg" transform="translate(0 0)"><path d="m  605,2160L820,2160 L820,2260 " style="fill: none; stroke-width: 2px; stroke: black; stroke-linejoin: round; marker-end: url(&quot;#sequenceflow-end-white-black-6cjyegg4rs2670e8vonvlu8lv&quot;);"></path></g><g class="djs-visual" id="Flow_1cu6wo9" transform="translate(0 0)"><path d="m  580,2185L580,2260 " style="fill: none; stroke-width: 2px; stroke: black; stroke-linejoin: round; marker-end: url(&quot;#sequenceflow-end-white-black-6cjyegg4rs2670e8vonvlu8lv&quot;);"></path></g><g class="djs-visual" id="Flow_0mwh5p0" transform="translate(0 0)"><path d="m  580,2070L580,2135 " style="fill: none; stroke-width: 2px; stroke: black; stroke-linejoin: round; marker-end: url(&quot;#sequenceflow-end-white-black-6cjyegg4rs2670e8vonvlu8lv&quot;);"></path></g><g class="djs-visual" id="Flow_1icqiie" transform="translate(0 0)"><path d="m  125,2500L125,2572 " style="fill: none; stroke-width: 2px; stroke: black; stroke-linejoin: round; marker-end: url(&quot;#sequenceflow-end-white-black-6cjyegg4rs2670e8vonvlu8lv&quot;);"></path></g><g class="djs-visual" id="Flow_1pk414f" transform="translate(0 0)"><path d="m  580,1880L580,1970 " style="fill: none; stroke-width: 2px; stroke: black; stroke-linejoin: round; marker-end: url(&quot;#sequenceflow-end-white-black-6cjyegg4rs2670e8vonvlu8lv&quot;);"></path></g><g class="djs-visual" id="Flow_0rlth6s" transform="translate(0 0)"><path d="m  125,2310L125,2400 " style="fill: none; stroke-width: 2px; stroke: black; stroke-linejoin: round; marker-end: url(&quot;#sequenceflow-end-white-black-6cjyegg4rs2670e8vonvlu8lv&quot;);"></path></g><g class="djs-visual" id="Flow_0kt7o99" transform="translate(0 0)"><path d="m  125,2120L125,2210 " style="fill: none; stroke-width: 2px; stroke: black; stroke-linejoin: round; marker-end: url(&quot;#sequenceflow-end-white-black-6cjyegg4rs2670e8vonvlu8lv&quot;);"></path></g><g class="djs-visual" id="Flow_11mxa0g" transform="translate(0 0)"><path d="m  125,1930L125,2020 " style="fill: none; stroke-width: 2px; stroke: black; stroke-linejoin: round; marker-end: url(&quot;#sequenceflow-end-white-black-6cjyegg4rs2670e8vonvlu8lv&quot;);"></path></g><g class="djs-visual" id="Flow_178u2q1" transform="translate(0 0)"><path d="m  125,1755L125,1830 " style="fill: none; stroke-width: 2px; stroke: black; stroke-linejoin: round; marker-end: url(&quot;#sequenceflow-end-white-black-6cjyegg4rs2670e8vonvlu8lv&quot;);"></path></g><g class="djs-visual" id="Flow_0gg2put" transform="translate(0 0)"><path d="m  150,1620L580,1620 L580,1780 " style="fill: none; stroke-width: 2px; stroke: black; stroke-linejoin: round; marker-end: url(&quot;#sequenceflow-end-white-black-6cjyegg4rs2670e8vonvlu8lv&quot;);"></path></g><g class="djs-visual" id="Flow_0hseyzk" transform="translate(0 0)"><path d="m  125,1645L125,1705 " style="fill: none; stroke-width: 2px; stroke: black; stroke-linejoin: round; marker-end: url(&quot;#sequenceflow-end-white-black-6cjyegg4rs2670e8vonvlu8lv&quot;);"></path></g><g class="djs-visual" id="Flow_0h784wx" transform="translate(0 0)"><path d="m  125,1440L125,1595 " style="fill: none; stroke-width: 2px; stroke: black; stroke-linejoin: round; marker-end: url(&quot;#sequenceflow-end-white-black-6cjyegg4rs2670e8vonvlu8lv&quot;);"></path></g><g class="djs-visual" id="Flow_071m978" transform="translate(0 0)"><path d="m  580,1440L580,1512 " style="fill: none; stroke-width: 2px; stroke: black; stroke-linejoin: round; marker-end: url(&quot;#sequenceflow-end-white-black-6cjyegg4rs2670e8vonvlu8lv&quot;);"></path></g><g class="djs-visual" id="Flow_0097n2s" transform="translate(0 0)"><path d="m  150,1240L580,1240 L580,1340 " style="fill: none; stroke-width: 2px; stroke: black; stroke-linejoin: round; marker-end: url(&quot;#sequenceflow-end-white-black-6cjyegg4rs2670e8vonvlu8lv&quot;);"></path></g><g class="djs-visual" id="Flow_05h2gh2" transform="translate(0 0)"><path d="m  125,1265L125,1340 " style="fill: none; stroke-width: 2px; stroke: black; stroke-linejoin: round; marker-end: url(&quot;#sequenceflow-end-white-black-6cjyegg4rs2670e8vonvlu8lv&quot;);"></path></g><g class="djs-visual" id="Flow_0pt0b7u" transform="translate(0 0)"><path d="m  125,1080L125,1215 " style="fill: none; stroke-width: 2px; stroke: black; stroke-linejoin: round; marker-end: url(&quot;#sequenceflow-end-white-black-6cjyegg4rs2670e8vonvlu8lv&quot;);"></path></g><g class="djs-visual" id="Flow_0j4d7hs" transform="translate(0 0)"><path d="m  580,1080L580,1142 " style="fill: none; stroke-width: 2px; stroke: black; stroke-linejoin: round; marker-end: url(&quot;#sequenceflow-end-white-black-6cjyegg4rs2670e8vonvlu8lv&quot;);"></path></g><g class="djs-visual" id="Flow_0rc4pss" transform="translate(0 0)"><path d="m  150,880L580,880 L580,980 " style="fill: none; stroke-width: 2px; stroke: black; stroke-linejoin: round; marker-end: url(&quot;#sequenceflow-end-white-black-6cjyegg4rs2670e8vonvlu8lv&quot;);"></path></g><g class="djs-visual" id="Flow_0zfzyum" transform="translate(0 0)"><path d="m  125,905L125,980 " style="fill: none; stroke-width: 2px; stroke: black; stroke-linejoin: round; marker-end: url(&quot;#sequenceflow-end-white-black-6cjyegg4rs2670e8vonvlu8lv&quot;);"></path></g><g class="djs-visual" id="Flow_1tk6zw0" transform="translate(0 0)"><path d="m  125,800L125,855 " style="fill: none; stroke-width: 2px; stroke: black; stroke-linejoin: round; marker-end: url(&quot;#sequenceflow-end-white-black-6cjyegg4rs2670e8vonvlu8lv&quot;);"></path></g><g class="djs-visual" id="Flow_05wf5y5" transform="translate(0 0)"><path d="m  580,640L580,732 " style="fill: none; stroke-width: 2px; stroke: black; stroke-linejoin: round; marker-end: url(&quot;#sequenceflow-end-white-black-6cjyegg4rs2670e8vonvlu8lv&quot;);"></path></g><g class="djs-visual" id="Flow_0uu9rwi" transform="translate(0 0)"><path d="m  150,460L580,460 L580,540 " style="fill: none; stroke-width: 2px; stroke: black; stroke-linejoin: round; marker-end: url(&quot;#sequenceflow-end-white-black-6cjyegg4rs2670e8vonvlu8lv&quot;);"></path></g><g class="djs-visual" id="Flow_1a699jl" transform="translate(0 0)"><path d="m  125,640L125,700 " style="fill: none; stroke-width: 2px; stroke: black; stroke-linejoin: round; marker-end: url(&quot;#sequenceflow-end-white-black-6cjyegg4rs2670e8vonvlu8lv&quot;);"></path></g><g class="djs-visual" id="Flow_1ydph8a" transform="translate(0 0)"><path d="m  125,485L125,540 " style="fill: none; stroke-width: 2px; stroke: black; stroke-linejoin: round; marker-end: url(&quot;#sequenceflow-end-white-black-6cjyegg4rs2670e8vonvlu8lv&quot;);"></path></g><g class="djs-visual" id="Flow_10k314m" transform="translate(0 0)"><path d="m  125,370L125,435 " style="fill: none; stroke-width: 2px; stroke: black; stroke-linejoin: round; marker-end: url(&quot;#sequenceflow-end-white-black-6cjyegg4rs2670e8vonvlu8lv&quot;);"></path></g><g class="djs-visual" id="Flow_0hgzrq4" transform="translate(0 0)"><path d="m  125,220L125,270 " style="fill: none; stroke-width: 2px; stroke: black; stroke-linejoin: round; marker-end: url(&quot;#sequenceflow-end-white-black-6cjyegg4rs2670e8vonvlu8lv&quot;);"></path></g><g class="djs-visual" id="Flow_1mz9xtz" transform="translate(0 0)"><path d="m  125,48L125,120 " style="fill: none; stroke-width: 2px; stroke: black; stroke-linejoin: round; marker-end: url(&quot;#sequenceflow-end-white-black-6cjyegg4rs2670e8vonvlu8lv&quot;);"></path></g><g class="djs-visual" id="StartEvent_1bm324f" transform="translate(107 12)"><circle cx="18" cy="18" r="18" style="stroke: black; stroke-width: 2px; fill: white; fill-opacity: 0.95;"></circle></g><g class="djs-visual" id="StartEvent_1bm324f_label" transform="translate(80 -60)"><text lineHeight="1.2" class="djs-label" style="font-family: Arial, sans-serif; font-size: 11px; font-weight: normal; fill: black;"><tspan x="0" y="9.899999999999999">Awaiting response </tspan><tspan x="13.0546875" y="23.099999999999998">from clearing</tspan></text></g><g class="djs-visual" id="Activity_0q373ug" transform="translate(60 120)"><rect x="0" y="0" width="130" height="100" rx="10" ry="10" style="stroke: black; stroke-width: 2px; fill: white; fill-opacity: 0.95;"></rect><text lineHeight="1.2" class="djs-label" style="font-family: Arial, sans-serif; font-size: 12px; font-weight: normal; fill: black;"><tspan x="17.1474609375" y="46.4">Receive message </tspan><tspan x="30.658203125" y="60.8">from clearing</tspan></text></g><g class="djs-visual" id="Activity_1azctbw" transform="translate(60 270)"><rect x="0" y="0" width="130" height="100" rx="10" ry="10" style="stroke: black; stroke-width: 2px; fill: white; fill-opacity: 0.95;"></rect><text lineHeight="1.2" class="djs-label" style="font-family: Arial, sans-serif; font-size: 12px; font-weight: normal; fill: black;"><tspan x="24.1552734375" y="46.4">Perform syntax </tspan><tspan x="37.1484375" y="60.8">validations</tspan></text></g><g class="djs-visual" id="DataObjectReference_15ctcbp" transform="translate(-28 145)"><path d="m 0,0 28.23529411764706,0 7.058823529411765,8.196721311475411 0,40.98360655737705 -35.294117647058826,0 0,-49.18032786885246 28.23529411764706,0 0,8.196721311475411 7.058823529411765,0" style="fill: white; stroke-width: 2px; stroke: black; fill-opacity: 0.95;"></path></g><g class="djs-visual" id="DataObjectReference_15ctcbp_label" transform="translate(-58 202)"><text lineHeight="1.2" class="djs-label" style="font-family: Arial, sans-serif; font-size: 11px; font-weight: normal; fill: black;"><tspan x="0" y="9.899999999999999">pacs.002; camt.025</tspan></text></g><g class="djs-visual" id="Gateway_0vdgap2" transform="translate(100 435)"><polygon points="25,0 50,25 25,50 0,25" style="stroke: black; stroke-width: 2px; fill: white; fill-opacity: 0.95;"></polygon><path d="m 16,15 7.42857142857143,9.714285714285715 -7.42857142857143,9.714285714285715 3.428571428571429,0 5.714285714285715,-7.464228571428572 5.714285714285715,7.464228571428572 3.428571428571429,0 -7.42857142857143,-9.714285714285715 7.42857142857143,-9.714285714285715 -3.428571428571429,0 -5.714285714285715,7.464228571428572 -5.714285714285715,-7.464228571428572 -3.428571428571429,0 z" style="fill: black; stroke-width: 1px; stroke: black;"></path></g><g class="djs-visual" id="Activity_0okadsd" transform="translate(60 540)"><rect x="0" y="0" width="130" height="100" rx="10" ry="10" style="stroke: black; stroke-width: 2px; fill: white; fill-opacity: 0.95;"></rect><text lineHeight="1.2" class="djs-label" style="font-family: Arial, sans-serif; font-size: 12px; font-weight: normal; fill: black;"><tspan x="15.8115234375" y="53.599999999999994">Create transaction</tspan></text></g><g class="djs-visual" id="Activity_1ogj6q0" transform="translate(60 700)"><rect x="0" y="0" width="130" height="100" rx="10" ry="10" style="stroke: black; stroke-width: 2px; fill: white; fill-opacity: 0.95;"></rect><text lineHeight="1.2" class="djs-label" style="font-family: Arial, sans-serif; font-size: 12px; font-weight: normal; fill: black;"><tspan x="24.4765625" y="46.4">Identify original </tspan><tspan x="35.9873046875" y="60.8">transaction</tspan></text></g><g class="djs-visual" id="Activity_1p2mqrd" transform="translate(515 540)"><rect x="0" y="0" width="130" height="100" rx="10" ry="10" style="stroke: black; stroke-width: 2px; fill: white; fill-opacity: 0.95;"></rect><text lineHeight="1.2" class="djs-label" style="font-family: Arial, sans-serif; font-size: 12px; font-weight: normal; fill: black;"><tspan x="36.8232421875" y="53.599999999999994">Cancel file</tspan></text></g><g class="djs-visual" id="Event_1h7jiot" transform="translate(562 732)"><circle cx="18" cy="18" r="18" style="stroke: black; stroke-width: 4px; fill: white; fill-opacity: 0.95;"></circle></g><g class="djs-visual" id="Event_1h7jiot_label" transform="translate(546 778)"><text lineHeight="1.2" class="djs-label" style="font-family: Arial, sans-serif; font-size: 11px; font-weight: normal; fill: black;"><tspan x="0" y="9.899999999999999">File cancelled</tspan></text></g><g class="djs-visual" id="Gateway_0b7a03l" transform="translate(100 855)"><polygon points="25,0 50,25 25,50 0,25" style="stroke: black; stroke-width: 2px; fill: white; fill-opacity: 0.95;"></polygon><path d="m 16,15 7.42857142857143,9.714285714285715 -7.42857142857143,9.714285714285715 3.428571428571429,0 5.714285714285715,-7.464228571428572 5.714285714285715,7.464228571428572 3.428571428571429,0 -7.42857142857143,-9.714285714285715 7.42857142857143,-9.714285714285715 -3.428571428571429,0 -5.714285714285715,7.464228571428572 -5.714285714285715,-7.464228571428572 -3.428571428571429,0 z" style="fill: black; stroke-width: 1px; stroke: black;"></path></g><g class="djs-visual" id="Activity_1y9okhf" transform="translate(60 980)"><rect x="0" y="0" width="130" height="100" rx="10" ry="10" style="stroke: black; stroke-width: 2px; fill: white; fill-opacity: 0.95;"></rect><text lineHeight="1.2" class="djs-label" style="font-family: Arial, sans-serif; font-size: 12px; font-weight: normal; fill: black;"><tspan x="27.4814453125" y="46.4">Check type of </tspan><tspan x="40.154296875" y="60.8">response</tspan></text></g><g class="djs-visual" id="Activity_0xgoe3o" transform="translate(515 980)"><rect x="0" y="0" width="130" height="100" rx="10" ry="10" style="stroke: black; stroke-width: 2px; fill: white; fill-opacity: 0.95;"></rect><text lineHeight="1.2" class="djs-label" style="font-family: Arial, sans-serif; font-size: 12px; font-weight: normal; fill: black;"><tspan x="15.1435546875" y="53.599999999999994">Cancel transaction</tspan></text></g><g class="djs-visual" id="Event_0w1jrfn" transform="translate(562 1142)"><circle cx="18" cy="18" r="18" style="stroke: black; stroke-width: 4px; fill: white; fill-opacity: 0.95;"></circle></g><g class="djs-visual" id="Event_0w1jrfn_label" transform="translate(552 1187)"><text lineHeight="1.2" class="djs-label" style="font-family: Arial, sans-serif; font-size: 11px; font-weight: normal; fill: black;"><tspan x="0" y="9.899999999999999">Transaction </tspan><tspan x="4.7890625" y="23.099999999999998">cancelled</tspan></text></g><g class="djs-visual" id="Gateway_1nf8vk1" transform="translate(100 1215)"><polygon points="25,0 50,25 25,50 0,25" style="stroke: black; stroke-width: 2px; fill: white; fill-opacity: 0.95;"></polygon><path d="m 16,15 7.42857142857143,9.714285714285715 -7.42857142857143,9.714285714285715 3.428571428571429,0 5.714285714285715,-7.464228571428572 5.714285714285715,7.464228571428572 3.428571428571429,0 -7.42857142857143,-9.714285714285715 7.42857142857143,-9.714285714285715 -3.428571428571429,0 -5.714285714285715,7.464228571428572 -5.714285714285715,-7.464228571428572 -3.428571428571429,0 z" style="fill: black; stroke-width: 1px; stroke: black;"></path></g><g class="djs-visual" id="Activity_0n4dfqe" transform="translate(60 1340)"><rect x="0" y="0" width="130" height="100" rx="10" ry="10" style="stroke: black; stroke-width: 2px; fill: white; fill-opacity: 0.95;"></rect><text lineHeight="1.2" class="djs-label" style="font-family: Arial, sans-serif; font-size: 12px; font-weight: normal; fill: black;"><tspan x="6.8076171875" y="46.4">Check if auto reversal</tspan><tspan x="37.482421875" y="60.8">is enabled</tspan></text></g><g class="djs-visual" id="Activity_12ouyy0" transform="translate(515 1340)"><rect x="0" y="0" width="130" height="100" rx="10" ry="10" style="stroke: black; stroke-width: 2px; fill: white; fill-opacity: 0.95;"></rect><text lineHeight="1.2" class="djs-label" style="font-family: Arial, sans-serif; font-size: 12px; font-weight: normal; fill: black;"><tspan x="27.9765625" y="53.599999999999994">Update status</tspan></text></g><g class="djs-visual" id="Event_0xjnavp" transform="translate(562 1512)"><circle cx="18" cy="18" r="18" style="stroke: black; stroke-width: 4px; fill: white; fill-opacity: 0.95;"></circle></g><g class="djs-visual" id="Event_0xjnavp_label" transform="translate(547 1557)"><text lineHeight="1.2" class="djs-label" style="font-family: Arial, sans-serif; font-size: 11px; font-weight: normal; fill: black;"><tspan x="0" y="9.899999999999999">LTR executed </tspan><tspan x="3.9375" y="23.099999999999998">successfully</tspan></text></g><g class="djs-visual" id="Gateway_16nsk57" transform="translate(100 1595)"><polygon points="25,0 50,25 25,50 0,25" style="stroke: black; stroke-width: 2px; fill: white; fill-opacity: 0.95;"></polygon><path d="m 16,15 7.42857142857143,9.714285714285715 -7.42857142857143,9.714285714285715 3.428571428571429,0 5.714285714285715,-7.464228571428572 5.714285714285715,7.464228571428572 3.428571428571429,0 -7.42857142857143,-9.714285714285715 7.42857142857143,-9.714285714285715 -3.428571428571429,0 -5.714285714285715,7.464228571428572 -5.714285714285715,-7.464228571428572 -3.428571428571429,0 z" style="fill: black; stroke-width: 1px; stroke: black;"></path></g><g class="djs-visual" id="Gateway_1d9uorg" transform="translate(100 1705)"><polygon points="25,0 50,25 25,50 0,25" style="stroke: black; stroke-width: 2px; fill: white; fill-opacity: 0.95;"></polygon><path d="m 16,15 7.42857142857143,9.714285714285715 -7.42857142857143,9.714285714285715 3.428571428571429,0 5.714285714285715,-7.464228571428572 5.714285714285715,7.464228571428572 3.428571428571429,0 -7.42857142857143,-9.714285714285715 7.42857142857143,-9.714285714285715 -3.428571428571429,0 -5.714285714285715,7.464228571428572 -5.714285714285715,-7.464228571428572 -3.428571428571429,0 z" style="fill: black; stroke-width: 1px; stroke: black;"></path></g><g class="djs-visual" id="Activity_0sgbadk" transform="translate(60 1830)"><rect x="0" y="0" width="130" height="100" rx="10" ry="10" style="stroke: black; stroke-width: 2px; fill: white; fill-opacity: 0.95;"></rect><text lineHeight="1.2" class="djs-label" style="font-family: Arial, sans-serif; font-size: 12px; font-weight: normal; fill: black;"><tspan x="24.4736328125" y="46.4">Update original </tspan><tspan x="35.9873046875" y="60.8">transaction</tspan></text></g><g class="djs-visual" id="Activity_1v9lo5p" transform="translate(60 2020)"><rect x="0" y="0" width="130" height="100" rx="10" ry="10" style="stroke: black; stroke-width: 2px; fill: white; fill-opacity: 0.95;"></rect><text lineHeight="1.2" class="djs-label" style="font-family: Arial, sans-serif; font-size: 12px; font-weight: normal; fill: black;"><tspan x="23.8173828125" y="46.4">Create reversal </tspan><tspan x="35.9873046875" y="60.8">transaction</tspan></text></g><g class="djs-visual" id="Activity_0naxcmp" transform="translate(60 2210)"><rect x="0" y="0" width="130" height="100" rx="10" ry="10" style="stroke: black; stroke-width: 2px; fill: white; fill-opacity: 0.95;"></rect><text lineHeight="1.2" class="djs-label" style="font-family: Arial, sans-serif; font-size: 12px; font-weight: normal; fill: black;"><tspan x="9.1318359375" y="46.4">Generate accounting </tspan><tspan x="46.984375" y="60.8">entries</tspan></text></g><g class="djs-visual" id="Activity_0lbdv2p" transform="translate(60 2400)"><rect x="0" y="0" width="130" height="100" rx="10" ry="10" style="stroke: black; stroke-width: 2px; fill: white; fill-opacity: 0.95;"></rect><text lineHeight="1.2" class="djs-label" style="font-family: Arial, sans-serif; font-size: 12px; font-weight: normal; fill: black;"><tspan x="14.47265625" y="53.599999999999994">Update transaction</tspan></text></g><g class="djs-visual" id="Activity_0edlj4h" transform="translate(515 1780)"><rect x="0" y="0" width="130" height="100" rx="10" ry="10" style="stroke: black; stroke-width: 2px; fill: white; fill-opacity: 0.95;"></rect><text lineHeight="1.2" class="djs-label" style="font-family: Arial, sans-serif; font-size: 12px; font-weight: normal; fill: black;"><tspan x="7.470703125" y="46.4">Place transaction into</tspan><tspan x="20.80078125" y="60.8">exception queue</tspan></text></g><g class="djs-visual" id="Activity_03w5bn6" transform="translate(515 1970)"><rect x="0" y="0" width="130" height="100" rx="10" ry="10" style="stroke: black; stroke-width: 2px; fill: white; fill-opacity: 0.95;"></rect><text lineHeight="1.2" class="djs-label" style="font-family: Arial, sans-serif; font-size: 12px; font-weight: normal; fill: black;"><tspan x="12.8037109375" y="39.2">Decide to accept or </tspan><tspan x="23.806640625" y="53.6">ignore negative </tspan><tspan x="15.80859375" y="68">response received</tspan></text></g><g class="djs-visual" id="Event_1lxckk9" transform="translate(107 2572)"><circle cx="18" cy="18" r="18" style="stroke: black; stroke-width: 4px; fill: white; fill-opacity: 0.95;"></circle></g><g class="djs-visual" id="Event_1lxckk9_label" transform="translate(84 2619)"><text lineHeight="1.2" class="djs-label" style="font-family: Arial, sans-serif; font-size: 11px; font-weight: normal; fill: black;"><tspan x="0" y="9.899999999999999">Liquidity transfer </tspan><tspan x="19.623046875" y="23.099999999999998">reversed</tspan></text></g><g class="djs-visual" id="Gateway_0xjypsr" transform="translate(555 2135)"><polygon points="25,0 50,25 25,50 0,25" style="stroke: black; stroke-width: 2px; fill: white; fill-opacity: 0.95;"></polygon><path d="m 16,15 7.42857142857143,9.714285714285715 -7.42857142857143,9.714285714285715 3.428571428571429,0 5.714285714285715,-7.464228571428572 5.714285714285715,7.464228571428572 3.428571428571429,0 -7.42857142857143,-9.714285714285715 7.42857142857143,-9.714285714285715 -3.428571428571429,0 -5.714285714285715,7.464228571428572 -5.714285714285715,-7.464228571428572 -3.428571428571429,0 z" style="fill: black; stroke-width: 1px; stroke: black;"></path></g><g class="djs-visual" id="Activity_1qpcw02" transform="translate(515 2260)"><rect x="0" y="0" width="130" height="100" rx="10" ry="10" style="stroke: black; stroke-width: 2px; fill: white; fill-opacity: 0.95;"></rect><text lineHeight="1.2" class="djs-label" style="font-family: Arial, sans-serif; font-size: 12px; font-weight: normal; fill: black;"><tspan x="15.9775390625" y="53.599999999999994">Accept transaction</tspan></text></g><g class="djs-visual" id="Activity_0icgjva" transform="translate(755 2260)"><rect x="0" y="0" width="130" height="100" rx="10" ry="10" style="stroke: black; stroke-width: 2px; fill: white; fill-opacity: 0.95;"></rect><text lineHeight="1.2" class="djs-label" style="font-family: Arial, sans-serif; font-size: 12px; font-weight: normal; fill: black;"><tspan x="16.8076171875" y="53.599999999999994">Ignore transaction</tspan></text></g><g class="djs-visual" id="Activity_0nfapmn" transform="translate(755 2430)"><rect x="0" y="0" width="130" height="100" rx="10" ry="10" style="stroke: black; stroke-width: 2px; fill: white; fill-opacity: 0.95;"></rect><text lineHeight="1.2" class="djs-label" style="font-family: Arial, sans-serif; font-size: 12px; font-weight: normal; fill: black;"><tspan x="16.8134765625" y="53.599999999999994">Reject transaction</tspan></text></g><g class="djs-visual" id="Event_13lkwea" transform="translate(802 2602)"><circle cx="18" cy="18" r="18" style="stroke: black; stroke-width: 4px; fill: white; fill-opacity: 0.95;"></circle></g><g class="djs-visual" id="Event_13lkwea_label" transform="translate(774 2648)"><text lineHeight="1.2" class="djs-label" style="font-family: Arial, sans-serif; font-size: 11px; font-weight: normal; fill: black;"><tspan x="0" y="9.899999999999999">Negative response </tspan><tspan x="8.5625" y="23.099999999999998">for LTR ignored</tspan></text></g><g class="djs-visual" id="TextAnnotation_07fuxoa" transform="translate(230 1300)"><rect x="0" y="0" width="182" height="40" rx="0" ry="0" style="stroke: none; stroke-width: 2px; fill: none;"></rect><path d="m 0, 0 m 10,0 l -10,0 l 0,40 l 10,0" style="fill: none; stroke-width: 2px; stroke: black;"></path><text lineHeight="1.2" class="djs-label" style="font-family: Arial, sans-serif; font-size: 12px; font-weight: normal; fill: black;"><tspan x="5" y="15.799999999999999">Set in </tspan><tspan x="5" y="30.199999999999996">PP.CLEARING.RETURNCODE</tspan></text></g><g class="djs-visual" id="TextAnnotation_1tdo112" transform="translate(690 1299)"><rect x="0" y="0" width="100" height="41" rx="0" ry="0" style="stroke: none; stroke-width: 2px; fill: none;"></rect><path d="m 0, 0 m 10,0 l -10,0 l 0,41 l 10,0" style="fill: none; stroke-width: 2px; stroke: black;"></path><text lineHeight="1.2" class="djs-label" style="font-family: Arial, sans-serif; font-size: 12px; font-weight: normal; fill: black;"><tspan x="5" y="15.799999999999999">Update EBQA </tspan><tspan x="5" y="30.199999999999996">record</tspan></text></g><g class="djs-visual" id="TextAnnotation_0xiigt5" transform="translate(240 1790)"><rect x="0" y="0" width="150" height="50" rx="0" ry="0" style="stroke: none; stroke-width: 2px; fill: none;"></rect><path d="m 0, 0 m 10,0 l -10,0 l 0,50 l 10,0" style="fill: none; stroke-width: 2px; stroke: black;"></path><text lineHeight="1.2" class="djs-label" style="font-family: Arial, sans-serif; font-size: 12px; font-weight: normal; fill: black;"><tspan x="5" y="15.799999999999999">Status updated as</tspan><tspan x="5" y="30.199999999999996">"Payment completed</tspan><tspan x="5" y="44.599999999999994">&nbsp;with reversal"</tspan></text></g><g class="djs-visual" id="TextAnnotation_0io47e5" transform="translate(240 1960)"><rect x="0" y="0" width="130" height="40" rx="0" ry="0" style="stroke: none; stroke-width: 2px; fill: none;"></rect><path d="m 0, 0 m 10,0 l -10,0 l 0,40 l 10,0" style="fill: none; stroke-width: 2px; stroke: black;"></path><text lineHeight="1.2" class="djs-label" style="font-family: Arial, sans-serif; font-size: 12px; font-weight: normal; fill: black;"><tspan x="5" y="15.799999999999999">Using details from</tspan><tspan x="5" y="30.199999999999996">original transaction</tspan></text></g><g class="djs-visual" id="TextAnnotation_0lzrlid" transform="translate(240 2130)"><rect x="0" y="0" width="150" height="80" rx="0" ry="0" style="stroke: none; stroke-width: 2px; fill: none;"></rect><path d="m 0, 0 m 10,0 l -10,0 l 0,80 l 10,0" style="fill: none; stroke-width: 2px; stroke: black;"></path><text lineHeight="1.2" class="djs-label" style="font-family: Arial, sans-serif; font-size: 12px; font-weight: normal; fill: black;"><tspan x="5" y="15.799999999999999">Dr Nostro account</tspan><tspan x="5" y="30.199999999999996">Cr Nostro account</tspan><tspan x="5" y="44.599999999999994">(Nostro account of</tspan><tspan x="5" y="58.99999999999999">Own/ Indirect Participant/</tspan><tspan x="5" y="73.39999999999999">Other bank)</tspan></text></g><g class="djs-visual" id="TextAnnotation_0fp8zm5" transform="translate(250 2340)"><rect x="0" y="0" width="130" height="60" rx="0" ry="0" style="stroke: none; stroke-width: 2px; fill: none;"></rect><path d="m 0, 0 m 10,0 l -10,0 l 0,60 l 10,0" style="fill: none; stroke-width: 2px; stroke: black;"></path><text lineHeight="1.2" class="djs-label" style="font-family: Arial, sans-serif; font-size: 12px; font-weight: normal; fill: black;"><tspan x="5" y="15.799999999999999">Reversal transaction</tspan><tspan x="5" y="30.199999999999996">status updated as</tspan><tspan x="5" y="44.599999999999994">"Completed"</tspan></text></g><g class="djs-visual" id="TextAnnotation_0f1p2u6" transform="translate(930 2370)"><rect x="0" y="0" width="150" height="60" rx="0" ry="0" style="stroke: none; stroke-width: 2px; fill: none;"></rect><path d="m 0, 0 m 10,0 l -10,0 l 0,60 l 10,0" style="fill: none; stroke-width: 2px; stroke: black;"></path><text lineHeight="1.2" class="djs-label" style="font-family: Arial, sans-serif; font-size: 12px; font-weight: normal; fill: black;"><tspan x="5" y="15.799999999999999">Update reversal </tspan><tspan x="5" y="30.199999999999996">transaction status as </tspan><tspan x="5" y="44.599999999999994">Rejected</tspan></text></g><g class="djs-visual" id="DataInputAssociation_1rsxkdk" transform="translate(0 0)"><polyline points="8,170 60,170 " style="fill: none; stroke: black; stroke-width: 2px; stroke-dasharray: 0.5, 5; stroke-linecap: round; stroke-linejoin: round; marker-end: url(&quot;#association-end-white-black-6cjyegg4rs2670e8vonvlu8lv&quot;);"></polyline></g><g class="djs-visual" id="Flow_1ydph8a_label" transform="translate(144 487)"><text lineHeight="1.2" class="djs-label" style="font-family: Arial, sans-serif; font-size: 11px; font-weight: normal; fill: black;"><tspan x="0" y="9.899999999999999">Validations passed</tspan></text></g><g class="djs-visual" id="Flow_0uu9rwi_label" transform="translate(589 489)"><text lineHeight="1.2" class="djs-label" style="font-family: Arial, sans-serif; font-size: 11px; font-weight: normal; fill: black;"><tspan x="0" y="9.899999999999999">Validations failed</tspan></text></g><g class="djs-visual" id="Flow_0zfzyum_label" transform="translate(142 913)"><text lineHeight="1.2" class="djs-label" style="font-family: Arial, sans-serif; font-size: 11px; font-weight: normal; fill: black;"><tspan x="0" y="9.899999999999999">Original transaction </tspan><tspan x="25.3671875" y="23.099999999999998">identified</tspan></text></g><g class="djs-visual" id="Flow_0rc4pss_label" transform="translate(602 913)"><text lineHeight="1.2" class="djs-label" style="font-family: Arial, sans-serif; font-size: 11px; font-weight: normal; fill: black;"><tspan x="0" y="9.899999999999999">Original transaction </tspan><tspan x="16.1953125" y="23.099999999999998">not identified</tspan></text></g><g class="djs-visual" id="Flow_05h2gh2_label" transform="translate(154 1268)"><text lineHeight="1.2" class="djs-label" style="font-family: Arial, sans-serif; font-size: 11px; font-weight: normal; fill: black;"><tspan x="0" y="9.899999999999999">Negative response</tspan></text></g><g class="djs-visual" id="Flow_0097n2s_label" transform="translate(586 1268)"><text lineHeight="1.2" class="djs-label" style="font-family: Arial, sans-serif; font-size: 11px; font-weight: normal; fill: black;"><tspan x="0" y="9.899999999999999">Positive response</tspan></text></g><g class="djs-visual" id="Flow_0hseyzk_label" transform="translate(135 1661)"><text lineHeight="1.2" class="djs-label" style="font-family: Arial, sans-serif; font-size: 11px; font-weight: normal; fill: black;"><tspan x="0" y="9.899999999999999">Auto reversal </tspan><tspan x="12.603759765625" y="23.099999999999998">enabled</tspan></text></g><g class="djs-visual" id="Flow_0gg2put_label" transform="translate(588 1657)"><text lineHeight="1.2" class="djs-label" style="font-family: Arial, sans-serif; font-size: 11px; font-weight: normal; fill: black;"><tspan x="0" y="9.899999999999999">Auto reversal not </tspan><tspan x="21.971435546875" y="23.099999999999998">enabled</tspan></text></g><g class="djs-visual" id="Flow_1cu6wo9_label" transform="translate(588 2197)"><text lineHeight="1.2" class="djs-label" style="font-family: Arial, sans-serif; font-size: 11px; font-weight: normal; fill: black;"><tspan x="0" y="9.899999999999999">Transaction to be </tspan><tspan x="19.46875" y="23.099999999999998">accepted</tspan></text></g><g class="djs-visual" id="Flow_1hdoesg_label" transform="translate(830 2197)"><text lineHeight="1.2" class="djs-label" style="font-family: Arial, sans-serif; font-size: 11px; font-weight: normal; fill: black;"><tspan x="0" y="9.899999999999999">Transaction to be </tspan><tspan x="23.4453125" y="23.099999999999998">ignored</tspan></text></g><g class="djs-visual" id="Association_0kcrmd0" transform="translate(0 0)"><polyline points="189,1345 230,1316 " style="fill: none; stroke: black; stroke-width: 2px; stroke-dasharray: 0.5, 5; stroke-linecap: round; stroke-linejoin: round;"></polyline></g><g class="djs-visual" id="Association_0z94p5w" transform="translate(0 0)"><polyline points="645,1349 690,1319 " style="fill: none; stroke: black; stroke-width: 2px; stroke-dasharray: 0.5, 5; stroke-linecap: round; stroke-linejoin: round;"></polyline></g><g class="djs-visual" id="Association_1791yho" transform="translate(0 0)"><polyline points="189,1835 240,1799 " style="fill: none; stroke: black; stroke-width: 2px; stroke-dasharray: 0.5, 5; stroke-linecap: round; stroke-linejoin: round;"></polyline></g><g class="djs-visual" id="Association_0wibfbn" transform="translate(0 0)"><polyline points="189,2026 240,1990 " style="fill: none; stroke: black; stroke-width: 2px; stroke-dasharray: 0.5, 5; stroke-linecap: round; stroke-linejoin: round;"></polyline></g><g class="djs-visual" id="Association_10c9fvg" transform="translate(0 0)"><polyline points="189,2216 240,2180 " style="fill: none; stroke: black; stroke-width: 2px; stroke-dasharray: 0.5, 5; stroke-linecap: round; stroke-linejoin: round;"></polyline></g><g class="djs-visual" id="Association_0y4hozi" transform="translate(0 0)"><polyline points="190,2409 250,2370 " style="fill: none; stroke: black; stroke-width: 2px; stroke-dasharray: 0.5, 5; stroke-linecap: round; stroke-linejoin: round;"></polyline></g><g class="djs-visual" id="Association_0c9uc2d" transform="translate(0 0)"><polyline points="883,2434 930,2400 " style="fill: none; stroke: black; stroke-width: 2px; stroke-dasharray: 0.5, 5; stroke-linecap: round; stroke-linejoin: round;"></polyline></g></g><g><rect class="viewport" x="-3103.025" y="-66.07083333333334" width="7229.166666666667" height="2750"></rect></g></svg>