<svg width="100%" height="100%" viewBox="-162, -107, 1835, 2858"><g><g class="djs-visual" id="Flow_0ft6z54" transform="translate(0 0)"><path d="m  80,500L80,560 " style="fill: none; stroke-width: 2px; stroke: black; stroke-linejoin: round; marker-end: url(&quot;#sequenceflow-end-white-black-9m9rfuoah06qldqqzclaso4so&quot;);"></path></g><g class="djs-visual" id="Flow_1sw1e9d" transform="translate(0 0)"><path d="m  80,2135L80,2220 " style="fill: none; stroke-width: 2px; stroke: black; stroke-linejoin: round; marker-end: url(&quot;#sequenceflow-end-white-black-9m9rfuoah06qldqqzclaso4so&quot;);"></path></g><g class="djs-visual" id="Flow_0dwryva" transform="translate(0 0)"><path d="m  80,2320L80,2385 " style="fill: none; stroke-width: 2px; stroke: black; stroke-linejoin: round; marker-end: url(&quot;#sequenceflow-end-white-black-9m9rfuoah06qldqqzclaso4so&quot;);"></path></g><g class="djs-visual" id="Flow_0cuhzhs" transform="translate(0 0)"><path d="m  80,2570L80,2612 " style="fill: none; stroke-width: 2px; stroke: black; stroke-linejoin: round; marker-end: url(&quot;#sequenceflow-end-white-black-9m9rfuoah06qldqqzclaso4so&quot;);"></path></g><g class="djs-visual" id="Flow_162ebu1" transform="translate(0 0)"><path d="m  80,2435L80,2470 " style="fill: none; stroke-width: 2px; stroke: black; stroke-linejoin: round; marker-end: url(&quot;#sequenceflow-end-white-black-9m9rfuoah06qldqqzclaso4so&quot;);"></path></g><g class="djs-visual" id="Flow_0g5zf5s" transform="translate(0 0)"><path d="m  105,2110L280,2110 L280,2410 L105,2410 " style="fill: none; stroke-width: 2px; stroke: black; stroke-linejoin: round; marker-end: url(&quot;#sequenceflow-end-white-black-9m9rfuoah06qldqqzclaso4so&quot;);"></path></g><g class="djs-visual" id="Flow_1c76ybm" transform="translate(0 0)"><path d="m  80,2040L80,2085 " style="fill: none; stroke-width: 2px; stroke: black; stroke-linejoin: round; marker-end: url(&quot;#sequenceflow-end-white-black-9m9rfuoah06qldqqzclaso4so&quot;);"></path></g><g class="djs-visual" id="Flow_009b0gc" transform="translate(0 0)"><path d="m  80,1880L80,1940 " style="fill: none; stroke-width: 2px; stroke: black; stroke-linejoin: round; marker-end: url(&quot;#sequenceflow-end-white-black-9m9rfuoah06qldqqzclaso4so&quot;);"></path></g><g class="djs-visual" id="Flow_1uciype" transform="translate(0 0)"><path d="m  80,1030L80,1290 " style="fill: none; stroke-width: 2px; stroke: black; stroke-linejoin: round; marker-end: url(&quot;#sequenceflow-end-white-black-9m9rfuoah06qldqqzclaso4so&quot;);"></path></g><g class="djs-visual" id="Flow_0acd2pv" transform="translate(0 0)"><path d="m  80,850L80,930 " style="fill: none; stroke-width: 2px; stroke: black; stroke-linejoin: round; marker-end: url(&quot;#sequenceflow-end-white-black-9m9rfuoah06qldqqzclaso4so&quot;);"></path></g><g class="djs-visual" id="Flow_1tmm7fb" transform="translate(0 0)"><path d="m  80,660L80,750 " style="fill: none; stroke-width: 2px; stroke: black; stroke-linejoin: round; marker-end: url(&quot;#sequenceflow-end-white-black-9m9rfuoah06qldqqzclaso4so&quot;);"></path></g><g class="djs-visual" id="Flow_1ujlz4b" transform="translate(0 0)"><path d="m  80,340L80,400 " style="fill: none; stroke-width: 2px; stroke: black; stroke-linejoin: round; marker-end: url(&quot;#sequenceflow-end-white-black-9m9rfuoah06qldqqzclaso4so&quot;);"></path></g><g class="djs-visual" id="Flow_0godc09" transform="translate(0 0)"><path d="m  80,180L80,240 " style="fill: none; stroke-width: 2px; stroke: black; stroke-linejoin: round; marker-end: url(&quot;#sequenceflow-end-white-black-9m9rfuoah06qldqqzclaso4so&quot;);"></path></g><g class="djs-visual" id="Flow_1kti46p" transform="translate(0 0)"><path d="m  80,1730L80,1780 " style="fill: none; stroke-width: 2px; stroke: black; stroke-linejoin: round; marker-end: url(&quot;#sequenceflow-end-white-black-9m9rfuoah06qldqqzclaso4so&quot;);"></path></g><g class="djs-visual" id="Flow_065x7j1" transform="translate(0 0)"><path d="m  80,1570L80,1630 " style="fill: none; stroke-width: 2px; stroke: black; stroke-linejoin: round; marker-end: url(&quot;#sequenceflow-end-white-black-9m9rfuoah06qldqqzclaso4so&quot;);"></path></g><g class="djs-visual" id="Flow_0282fb8" transform="translate(0 0)"><path d="m  80,1390L80,1470 " style="fill: none; stroke-width: 2px; stroke: black; stroke-linejoin: round; marker-end: url(&quot;#sequenceflow-end-white-black-9m9rfuoah06qldqqzclaso4so&quot;);"></path></g><g class="djs-visual" id="Flow_19bkh4r" transform="translate(0 0)"><path d="m  80,38L80,80 " style="fill: none; stroke-width: 2px; stroke: black; stroke-linejoin: round; marker-end: url(&quot;#sequenceflow-end-white-black-9m9rfuoah06qldqqzclaso4so&quot;);"></path></g><g class="djs-visual" id="StartEvent_1bm324f" transform="translate(62 2)"><circle cx="18" cy="18" r="18" style="stroke: black; stroke-width: 2px; fill: white; fill-opacity: 0.95;"></circle></g><g class="djs-visual" id="StartEvent_1bm324f_label" transform="translate(43 -51)"><text lineHeight="1.2" class="djs-label" style="font-family: Arial, sans-serif; font-size: 11px; font-weight: normal; fill: black;"><tspan x="0" y="9.899999999999999">Product details </tspan><tspan x="19.498291015625" y="23.099999999999998">agreed</tspan></text></g><g class="djs-visual" id="Activity_0h8u5az" transform="translate(15 80)"><rect x="0" y="0" width="130" height="100" rx="10" ry="10" style="stroke: black; stroke-width: 2px; fill: white; fill-opacity: 0.95;"></rect><text lineHeight="1.2" class="djs-label" style="font-family: Arial, sans-serif; font-size: 12px; font-weight: normal; fill: black;"><tspan x="7.8076171875" y="39.2">Receive request&nbsp;for a</tspan><tspan x="6.7939453125" y="53.6">standalone Mudaraba </tspan><tspan x="12.810546875" y="68">facility arrangement</tspan></text></g><g class="djs-visual" id="DataObjectReference_0nwj7g6" transform="translate(-78 105)"><path d="m 0,0 28.23529411764706,0 7.058823529411765,8.196721311475411 0,40.98360655737705 -35.294117647058826,0 0,-49.18032786885246 28.23529411764706,0 0,8.196721311475411 7.058823529411765,0" style="fill: white; stroke-width: 2px; stroke: black; fill-opacity: 0.95;"></path></g><g class="djs-visual" id="DataObjectReference_0nwj7g6_label" transform="translate(-106 162)"><text lineHeight="1.2" class="djs-label" style="font-family: Arial, sans-serif; font-size: 11px; font-weight: normal; fill: black;"><tspan x="0" y="9.899999999999999">Customer Request</tspan></text></g><g class="djs-visual" id="Activity_17hk3j4" transform="translate(15 240)"><rect x="0" y="0" width="130" height="100" rx="10" ry="10" style="stroke: black; stroke-width: 2px; fill: white; fill-opacity: 0.95;"></rect><text lineHeight="1.2" class="djs-label" style="font-family: Arial, sans-serif; font-size: 12px; font-weight: normal; fill: black;"><tspan x="15.9169921875" y="46.4">Capture Validation </tspan><tspan x="33.3203125" y="60.8">Limit details</tspan></text></g><g class="djs-visual" id="Activity_1tarngc" transform="translate(15 400)"><rect x="0" y="0" width="130" height="100" rx="10" ry="10" style="stroke: black; stroke-width: 2px; fill: white; fill-opacity: 0.95;"></rect><text lineHeight="1.2" class="djs-label" style="font-family: Arial, sans-serif; font-size: 12px; font-weight: normal; fill: black;"><tspan x="19.25390625" y="46.4">Create Validation </tspan><tspan x="51.9990234375" y="60.8">Limit</tspan></text></g><g class="djs-visual" id="Activity_0g6s7i9" transform="translate(15 560)"><rect x="0" y="0" width="130" height="100" rx="10" ry="10" style="stroke: black; stroke-width: 2px; fill: white; fill-opacity: 0.95;"></rect><text lineHeight="1.2" class="djs-label" style="font-family: Arial, sans-serif; font-size: 12px; font-weight: normal; fill: black;"><tspan x="5.4697265625" y="53.599999999999994">List products&nbsp;available</tspan></text></g><g class="djs-visual" id="Activity_05i23ry" transform="translate(15 750)"><rect x="0" y="0" width="130" height="100" rx="10" ry="10" style="stroke: black; stroke-width: 2px; fill: white; fill-opacity: 0.95;"></rect><text lineHeight="1.2" class="djs-label" style="font-family: Arial, sans-serif; font-size: 12px; font-weight: normal; fill: black;"><tspan x="19.4765625" y="46.4">Select Mudaraba </tspan><tspan x="24.3193359375" y="60.8">Facility&nbsp;product</tspan></text></g><g class="djs-visual" id="Activity_0yhbhgv" transform="translate(15 930)"><rect x="0" y="0" width="130" height="100" rx="10" ry="10" style="stroke: black; stroke-width: 2px; fill: white; fill-opacity: 0.95;"></rect><text lineHeight="1.2" class="djs-label" style="font-family: Arial, sans-serif; font-size: 12px; font-weight: normal; fill: black;"><tspan x="14.806640625" y="39.2">Capture Mudaraba </tspan><tspan x="10.3125" y="53.6">Facility arrangement </tspan><tspan x="24.96875" y="68">account details</tspan></text></g><g class="djs-visual" id="Activity_1o5iltu" transform="translate(15 1290)"><rect x="0" y="0" width="130" height="100" rx="10" ry="10" style="stroke: black; stroke-width: 2px; fill: white; fill-opacity: 0.95;"></rect><text lineHeight="1.2" class="djs-label" style="font-family: Arial, sans-serif; font-size: 12px; font-weight: normal; fill: black;"><tspan x="22.640625" y="39.2">Set up payment </tspan><tspan x="25.4833984375" y="53.6">instructions for </tspan><tspan x="43.6484375" y="68">charges</tspan></text></g><g class="djs-visual" id="Activity_19v2kzq" transform="translate(15 1470)"><rect x="0" y="0" width="130" height="100" rx="10" ry="10" style="stroke: black; stroke-width: 2px; fill: white; fill-opacity: 0.95;"></rect><text lineHeight="1.2" class="djs-label" style="font-family: Arial, sans-serif; font-size: 12px; font-weight: normal; fill: black;"><tspan x="8.8017578125" y="46.4">Route transaction for </tspan><tspan x="30.48046875" y="60.8">authorisation</tspan></text></g><g class="djs-visual" id="Activity_0qu6woy" transform="translate(15 1630)"><rect x="0" y="0" width="130" height="100" rx="10" ry="10" style="stroke: black; stroke-width: 2px; fill: white; fill-opacity: 0.95;"></rect><text lineHeight="1.2" class="djs-label" style="font-family: Arial, sans-serif; font-size: 12px; font-weight: normal; fill: black;"><tspan x="11.3046875" y="39.2">Authorise Mudaraba </tspan><tspan x="12.810546875" y="53.6">facility arrangement </tspan><tspan x="43.65234375" y="68">account</tspan></text></g><g class="djs-visual" id="Activity_0msej16" transform="translate(15 1780)"><rect x="0" y="0" width="130" height="100" rx="10" ry="10" style="stroke: black; stroke-width: 2px; fill: white; fill-opacity: 0.95;"></rect><text lineHeight="1.2" class="djs-label" style="font-family: Arial, sans-serif; font-size: 12px; font-weight: normal; fill: black;"><tspan x="18.1435546875" y="39.2">Create Mudaraba </tspan><tspan x="12.810546875" y="53.6">facility arrangement </tspan><tspan x="43.65234375" y="68">account</tspan></text></g><g class="djs-visual" id="Activity_1mkmnqv" transform="translate(15 1940)"><rect x="0" y="0" width="130" height="100" rx="10" ry="10" style="stroke: black; stroke-width: 2px; fill: white; fill-opacity: 0.95;"></rect><text lineHeight="1.2" class="djs-label" style="font-family: Arial, sans-serif; font-size: 12px; font-weight: normal; fill: black;"><tspan x="12.80859375" y="46.4">Decide if Mudaraba </tspan><tspan x="10.642578125" y="60.8">facility to be secured</tspan></text></g><g class="djs-visual" id="Gateway_1jyklaj" transform="translate(55 2085)"><polygon points="25,0 50,25 25,50 0,25" style="stroke: black; stroke-width: 2px; fill: white; fill-opacity: 0.95;"></polygon><path d="m 16,15 7.42857142857143,9.714285714285715 -7.42857142857143,9.714285714285715 3.428571428571429,0 5.714285714285715,-7.464228571428572 5.714285714285715,7.464228571428572 3.428571428571429,0 -7.42857142857143,-9.714285714285715 7.42857142857143,-9.714285714285715 -3.428571428571429,0 -5.714285714285715,7.464228571428572 -5.714285714285715,-7.464228571428572 -3.428571428571429,0 z" style="fill: black; stroke-width: 1px; stroke: black;"></path></g><g class="djs-visual" id="Gateway_128z4yz" transform="translate(55 2385)"><polygon points="25,0 50,25 25,50 0,25" style="stroke: black; stroke-width: 2px; fill: white; fill-opacity: 0.95;"></polygon><path d="m 16,15 7.42857142857143,9.714285714285715 -7.42857142857143,9.714285714285715 3.428571428571429,0 5.714285714285715,-7.464228571428572 5.714285714285715,7.464228571428572 3.428571428571429,0 -7.42857142857143,-9.714285714285715 7.42857142857143,-9.714285714285715 -3.428571428571429,0 -5.714285714285715,7.464228571428572 -5.714285714285715,-7.464228571428572 -3.428571428571429,0 z" style="fill: black; stroke-width: 1px; stroke: black;"></path></g><g class="djs-visual" id="Activity_09smdp1" transform="translate(15 2470)"><rect x="0" y="0" width="130" height="100" rx="10" ry="10" style="stroke: black; stroke-width: 2px; fill: white; fill-opacity: 0.95;"></rect><text lineHeight="1.2" class="djs-label" style="font-family: Arial, sans-serif; font-size: 12px; font-weight: normal; fill: black;"><tspan x="23.255859375" y="46.4">View Mudaraba </tspan><tspan x="12.810546875" y="60.8">facility arrangement</tspan></text></g><g class="djs-visual" id="Event_05n9jav" transform="translate(62 2612)"><circle cx="18" cy="18" r="18" style="stroke: black; stroke-width: 4px; fill: white; fill-opacity: 0.95;"></circle></g><g class="djs-visual" id="Event_05n9jav_label" transform="translate(39 2655)"><text lineHeight="1.2" class="djs-label" style="font-family: Arial, sans-serif; font-size: 11px; font-weight: normal; fill: black;"><tspan x="0" y="9.899999999999999">Mudaraba facility </tspan><tspan x="11.5" y="23.099999999999998">available for </tspan><tspan x="16.754638671875" y="36.3">drawdown</tspan></text></g><g class="djs-visual" id="Activity_0dqsf97" transform="translate(15 2220)"><rect x="0" y="0" width="130" height="100" rx="10" ry="10" style="stroke: black; stroke-width: 5px; fill: white; fill-opacity: 0.95;"></rect><text lineHeight="1.2" class="djs-label" style="font-family: Arial, sans-serif; font-size: 12px; font-weight: normal; fill: black;"><tspan x="22.1396484375" y="46.4">Create and Link </tspan><tspan x="10.984375" y="60.8">Collateral (IF) (PBA)</tspan></text><rect x="0" y="0" width="14" height="14" rx="0" ry="0" style="stroke: black; stroke-width: 1px; fill: white;" transform="matrix(1 0 0 1 57.5 80)"></rect><path d="m57.5,80 m 7,2 l 0,10 m -5,-5 l 10,0" data-marker="sub-process" style="fill: white; stroke-width: 2px; stroke: black;"></path></g><g class="djs-visual" id="TextAnnotation_16dyr85" transform="translate(180 170)"><rect x="0" y="0" width="150" height="99" rx="0" ry="0" style="stroke: none; stroke-width: 2px; fill: none;"></rect><path d="m 0, 0 m 10,0 l -10,0 l 0,99 l 10,0" style="fill: none; stroke-width: 2px; stroke: black;"></path><text lineHeight="1.2" class="djs-label" style="font-family: Arial, sans-serif; font-size: 12px; font-weight: normal; fill: black;"><tspan x="5" y="15.799999999999999">- Currency</tspan><tspan x="5" y="30.199999999999996">- Limit Product</tspan><tspan x="5" y="44.599999999999994">- Customer Number</tspan><tspan x="5" y="58.99999999999999">- Limit Type</tspan><tspan x="5" y="73.39999999999999">- Internal Amount</tspan><tspan x="5" y="87.79999999999998">- Expiry Date</tspan></text></g><g class="djs-visual" id="TextAnnotation_02sbakr" transform="translate(190 810)"><rect x="0" y="0" width="600" height="444" rx="0" ry="0" style="stroke: none; stroke-width: 2px; fill: none;"></rect><path d="m 0, 0 m 10,0 l -10,0 l 0,444 l 10,0" style="fill: none; stroke-width: 2px; stroke: black;"></path><text lineHeight="1.2" class="djs-label" style="font-family: Arial, sans-serif; font-size: 12px; font-weight: normal; fill: black;"><tspan x="5" y="15.799999999999999">Account details</tspan><tspan x="5" y="30.199999999999996">- Customer Number</tspan><tspan x="5" y="44.599999999999994">- Currency</tspan><tspan x="5" y="58.99999999999999">Drawing Rules:</tspan><tspan x="5" y="73.39999999999999">- Permitted Currencies</tspan><tspan x="5" y="87.79999999999998">- Allowed Product Groups and Products for Drawings</tspan><tspan x="5" y="102.19999999999999">Limit:</tspan><tspan x="5" y="116.6">- Input Validation Limit ID</tspan><tspan x="5" y="131">- Set the Fixed Variable as Variable</tspan><tspan x="5" y="145.4">- Set the Maintain Limit Balance as 'Yes'</tspan><tspan x="5" y="159.8">Facility Commitment:</tspan><tspan x="5" y="174.20000000000002">- Commitment amount</tspan><tspan x="5" y="188.60000000000002">- Commitment term</tspan><tspan x="5" y="203.00000000000003">- Commitment expiry (optional)</tspan><tspan x="5" y="217.40000000000003">- Availability/ Unavailability Schedule</tspan><tspan x="5" y="231.80000000000004">Facility Schedule:</tspan><tspan x="5" y="246.20000000000005">- Set up schedule for repayment of any Charges/ Fees</tspan><tspan x="5" y="260.6">Facility Commitment Amortisation Schedule:</tspan><tspan x="5" y="275">- Payment Type (Valid Record from AA.PAYMENT.TYPE which contains TERM.AMOUNT in Property Class)</tspan><tspan x="5" y="289.4">- Payment Method</tspan><tspan x="5" y="303.79999999999995">- Payment Frequency</tspan><tspan x="5" y="318.19999999999993">- Commitment Property</tspan><tspan x="5" y="332.5999999999999">- Start Date</tspan><tspan x="5" y="346.9999999999999">- End Date</tspan><tspan x="5" y="361.39999999999986">- Amount</tspan><tspan x="5" y="375.79999999999984">- Bill Type</tspan><tspan x="5" y="390.1999999999998">Facility Fee:</tspan><tspan x="5" y="404.5999999999998">- Set Rate</tspan><tspan x="5" y="418.9999999999998">Payoff Rules:</tspan><tspan x="5" y="433.39999999999975">- Payoff Tolerance</tspan></text></g><g class="djs-visual" id="TextAnnotation_0dxa8du" transform="translate(192 1610)"><rect x="0" y="0" width="130" height="30" rx="0" ry="0" style="stroke: none; stroke-width: 2px; fill: none;"></rect><path d="m 0, 0 m 10,0 l -10,0 l 0,30 l 10,0" style="fill: none; stroke-width: 2px; stroke: black;"></path><text lineHeight="1.2" class="djs-label" style="font-family: Arial, sans-serif; font-size: 12px; font-weight: normal; fill: black;"><tspan x="5" y="15.799999999999999">Maker/ Checker</tspan></text></g><g class="djs-visual" id="TextAnnotation_13b29v4" transform="translate(192 1280)"><rect x="0" y="0" width="205" height="30" rx="0" ry="0" style="stroke: none; stroke-width: 2px; fill: none;"></rect><path d="m 0, 0 m 10,0 l -10,0 l 0,30 l 10,0" style="fill: none; stroke-width: 2px; stroke: black;"></path><text lineHeight="1.2" class="djs-label" style="font-family: Arial, sans-serif; font-size: 12px; font-weight: normal; fill: black;"><tspan x="5" y="15.799999999999999">- Payin account/ Payin beneficiary</tspan></text></g><g class="djs-visual" id="DataInputAssociation_00t1x02" transform="translate(0 0)"><polyline points="-42,130 15,130 " style="fill: none; stroke: black; stroke-width: 2px; stroke-dasharray: 0.5, 5; stroke-linecap: round; stroke-linejoin: round; marker-end: url(&quot;#association-end-white-black-9m9rfuoah06qldqqzclaso4so&quot;);"></polyline></g><g class="djs-visual" id="Flow_0g5zf5s_label" transform="translate(283 2150)"><text lineHeight="1.2" class="djs-label" style="font-family: Arial, sans-serif; font-size: 11px; font-weight: normal; fill: black;"><tspan x="0" y="9.899999999999999">Limit/ Collateral set </tspan><tspan x="10.238037109375" y="23.099999999999998">up not required</tspan></text></g><g class="djs-visual" id="Flow_0dwryva_label" transform="translate(87 2343)"><text lineHeight="1.2" class="djs-label" style="font-family: Arial, sans-serif; font-size: 11px; font-weight: normal; fill: black;"><tspan x="0" y="9.899999999999999">Collateral created</tspan></text></g><g class="djs-visual" id="Flow_1sw1e9d_label" transform="translate(84 2156)"><text lineHeight="1.2" class="djs-label" style="font-family: Arial, sans-serif; font-size: 11px; font-weight: normal; fill: black;"><tspan x="0" y="9.899999999999999">Limit/ Collateral set </tspan><tspan x="19.409912109375" y="23.099999999999998">up required</tspan></text></g><g class="djs-visual" id="Association_09fjjz5" transform="translate(0 0)"><polyline points="143,245 180,219 " style="fill: none; stroke: black; stroke-width: 2px; stroke-dasharray: 0.5, 5; stroke-linecap: round; stroke-linejoin: round;"></polyline></g><g class="djs-visual" id="Association_0i619fa" transform="translate(0 0)"><polyline points="145,944 190,920 " style="fill: none; stroke: black; stroke-width: 2px; stroke-dasharray: 0.5, 5; stroke-linecap: round; stroke-linejoin: round;"></polyline></g><g class="djs-visual" id="Association_18lqb3f" transform="translate(0 0)"><polyline points="145,1647 190,1625 " style="fill: none; stroke: black; stroke-width: 2px; stroke-dasharray: 0.5, 5; stroke-linecap: round; stroke-linejoin: round;"></polyline></g><g class="djs-visual" id="Association_1g4m9u1" transform="translate(0 0)"><polyline points="145,1313 190,1295 " style="fill: none; stroke: black; stroke-width: 2px; stroke-dasharray: 0.5, 5; stroke-linecap: round; stroke-linejoin: round;"></polyline></g></g><g><rect class="viewport" x="-3287.271966527197" y="-57.07112970711297" width="7259.414225941423" height="2761.506276150628"></rect></g></svg>