<svg width="100%" height="100%" data-element-id="Process_0gv1hwp"><g class="viewport" transform="matrix(0.240612 0 0 0.240612 772.338 12.0306)"><g class="layer-root-1" data-element-id="Process_0gv1hwp"><g class="djs-group"><g class="djs-element djs-connection" data-element-id="Flow_01lbzw9" style="display: block;"><g class="djs-visual"><path d="m  180,2550L180,2602 " style="fill: none; stroke-width: 2px; stroke: black; stroke-linejoin: round; marker-end: url(&quot;#sequenceflow-end-white-black-6e6gysho3nj4k82x7cwaeo8pl&quot;);"></path></g><polyline points="180,2550 180,2602 " class="djs-hit djs-hit-stroke" style="fill: none; stroke-opacity: 0; stroke: white; stroke-width: 15px;"></polyline><rect x="174" y="2544" width="12" height="64" class="djs-outline" style="fill: none;"></rect></g></g><g class="djs-group"><g class="djs-element djs-connection" data-element-id="Flow_0engfyl" style="display: block;"><g class="djs-visual"><path d="m  180,2390L180,2450 " style="fill: none; stroke-width: 2px; stroke: black; stroke-linejoin: round; marker-end: url(&quot;#sequenceflow-end-white-black-6e6gysho3nj4k82x7cwaeo8pl&quot;);"></path></g><polyline points="180,2390 180,2450 " class="djs-hit djs-hit-stroke" style="fill: none; stroke-opacity: 0; stroke: white; stroke-width: 15px;"></polyline><rect x="174" y="2384" width="12" height="72" class="djs-outline" style="fill: none;"></rect></g></g><g class="djs-group"><g class="djs-element djs-connection" data-element-id="Flow_0cfy5hj" style="display: block;"><g class="djs-visual"><path d="m  180,2230L180,2290 " style="fill: none; stroke-width: 2px; stroke: black; stroke-linejoin: round; marker-end: url(&quot;#sequenceflow-end-white-black-6e6gysho3nj4k82x7cwaeo8pl&quot;);"></path></g><polyline points="180,2230 180,2290 " class="djs-hit djs-hit-stroke" style="fill: none; stroke-opacity: 0; stroke: white; stroke-width: 15px;"></polyline><rect x="174" y="2224" width="12" height="72" class="djs-outline" style="fill: none;"></rect></g></g><g class="djs-group"><g class="djs-element djs-connection" data-element-id="Flow_0254q3e" style="display: block;"><g class="djs-visual"><path d="m  180,2060L180,2130 " style="fill: none; stroke-width: 2px; stroke: black; stroke-linejoin: round; marker-end: url(&quot;#sequenceflow-end-white-black-6e6gysho3nj4k82x7cwaeo8pl&quot;);"></path></g><polyline points="180,2060 180,2130 " class="djs-hit djs-hit-stroke" style="fill: none; stroke-opacity: 0; stroke: white; stroke-width: 15px;"></polyline><rect x="174" y="2054" width="12" height="82" class="djs-outline" style="fill: none;"></rect></g></g><g class="djs-group"><g class="djs-element djs-connection" data-element-id="Flow_0g6vraj" style="display: block;"><g class="djs-visual"><path d="m  180,1900L180,1960 " style="fill: none; stroke-width: 2px; stroke: black; stroke-linejoin: round; marker-end: url(&quot;#sequenceflow-end-white-black-6e6gysho3nj4k82x7cwaeo8pl&quot;);"></path></g><polyline points="180,1900 180,1960 " class="djs-hit djs-hit-stroke" style="fill: none; stroke-opacity: 0; stroke: white; stroke-width: 15px;"></polyline><rect x="174" y="1894" width="12" height="72" class="djs-outline" style="fill: none;"></rect></g></g><g class="djs-group"><g class="djs-element djs-connection" data-element-id="Flow_1hgrrqr" style="display: block;"><g class="djs-visual"><path d="m  180,1665L180,1800 " style="fill: none; stroke-width: 2px; stroke: black; stroke-linejoin: round; marker-end: url(&quot;#sequenceflow-end-white-black-6e6gysho3nj4k82x7cwaeo8pl&quot;);"></path></g><polyline points="180,1665 180,1800 " class="djs-hit djs-hit-stroke" style="fill: none; stroke-opacity: 0; stroke: white; stroke-width: 15px;"></polyline><rect x="174" y="1659" width="12" height="147" class="djs-outline" style="fill: none;"></rect></g></g><g class="djs-group"><g class="djs-element djs-connection" data-element-id="Flow_1a4vi5g" style="display: block;"><g class="djs-visual"><path d="m  445,1510L580,1510 L580,1542 " style="fill: none; stroke-width: 2px; stroke: black; stroke-linejoin: round; marker-end: url(&quot;#sequenceflow-end-white-black-6e6gysho3nj4k82x7cwaeo8pl&quot;);"></path></g><polyline points="445,1510 580,1510 580,1542 " class="djs-hit djs-hit-stroke" style="fill: none; stroke-opacity: 0; stroke: white; stroke-width: 15px;"></polyline><rect x="439" y="1504" width="147" height="44" class="djs-outline" style="fill: none;"></rect></g></g><g class="djs-group"><g class="djs-element djs-connection" data-element-id="Flow_0ushmeq" style="display: block;"><g class="djs-visual"><path d="m  420,1535L420,1640 L205,1640 " style="fill: none; stroke-width: 2px; stroke: black; stroke-linejoin: round; marker-end: url(&quot;#sequenceflow-end-white-black-6e6gysho3nj4k82x7cwaeo8pl&quot;);"></path></g><polyline points="420,1535 420,1640 205,1640 " class="djs-hit djs-hit-stroke" style="fill: none; stroke-opacity: 0; stroke: white; stroke-width: 15px;"></polyline><rect x="199" y="1529" width="227" height="117" class="djs-outline" style="fill: none;"></rect></g></g><g class="djs-group"><g class="djs-element djs-connection" data-element-id="Flow_1ki1thp" style="display: block;"><g class="djs-visual"><path d="m  420,1430L420,1485 " style="fill: none; stroke-width: 2px; stroke: black; stroke-linejoin: round; marker-end: url(&quot;#sequenceflow-end-white-black-6e6gysho3nj4k82x7cwaeo8pl&quot;);"></path></g><polyline points="420,1430 420,1485 " class="djs-hit djs-hit-stroke" style="fill: none; stroke-opacity: 0; stroke: white; stroke-width: 15px;"></polyline><rect x="414" y="1424" width="12" height="67" class="djs-outline" style="fill: none;"></rect></g></g><g class="djs-group"><g class="djs-element djs-connection" data-element-id="Flow_1mzzh9j" style="display: block;"><g class="djs-visual"><path d="m  420,1270L420,1330 " style="fill: none; stroke-width: 2px; stroke: black; stroke-linejoin: round; marker-end: url(&quot;#sequenceflow-end-white-black-6e6gysho3nj4k82x7cwaeo8pl&quot;);"></path></g><polyline points="420,1270 420,1330 " class="djs-hit djs-hit-stroke" style="fill: none; stroke-opacity: 0; stroke: white; stroke-width: 15px;"></polyline><rect x="414" y="1264" width="12" height="72" class="djs-outline" style="fill: none;"></rect></g></g><g class="djs-group"><g class="djs-element djs-connection" data-element-id="Flow_17qiukl" style="display: block;"><g class="djs-visual"><path d="m  420,1100L420,1170 " style="fill: none; stroke-width: 2px; stroke: black; stroke-linejoin: round; marker-end: url(&quot;#sequenceflow-end-white-black-6e6gysho3nj4k82x7cwaeo8pl&quot;);"></path></g><polyline points="420,1100 420,1170 " class="djs-hit djs-hit-stroke" style="fill: none; stroke-opacity: 0; stroke: white; stroke-width: 15px;"></polyline><rect x="414" y="1094" width="12" height="82" class="djs-outline" style="fill: none;"></rect></g></g><g class="djs-group"><g class="djs-element djs-connection" data-element-id="Flow_18ps5xa" style="display: block;"><g class="djs-visual"><path d="m  205,890L420,890 L420,1000 " style="fill: none; stroke-width: 2px; stroke: black; stroke-linejoin: round; marker-end: url(&quot;#sequenceflow-end-white-black-6e6gysho3nj4k82x7cwaeo8pl&quot;);"></path></g><polyline points="205,890 420,890 420,1000 " class="djs-hit djs-hit-stroke" style="fill: none; stroke-opacity: 0; stroke: white; stroke-width: 15px;"></polyline><rect x="199" y="884" width="227" height="122" class="djs-outline" style="fill: none;"></rect></g></g><g class="djs-group"><g class="djs-element djs-connection" data-element-id="Flow_0mex16o" style="display: block;"><g class="djs-visual"><path d="m  180,915L180,1615 " style="fill: none; stroke-width: 2px; stroke: black; stroke-linejoin: round; marker-end: url(&quot;#sequenceflow-end-white-black-6e6gysho3nj4k82x7cwaeo8pl&quot;);"></path></g><polyline points="180,915 180,1615 " class="djs-hit djs-hit-stroke" style="fill: none; stroke-opacity: 0; stroke: white; stroke-width: 15px;"></polyline><rect x="174" y="909" width="12" height="712" class="djs-outline" style="fill: none;"></rect></g></g><g class="djs-group"><g class="djs-element djs-connection" data-element-id="Flow_0xgww7j" style="display: block;"><g class="djs-visual"><path d="m  180,800L180,865 " style="fill: none; stroke-width: 2px; stroke: black; stroke-linejoin: round; marker-end: url(&quot;#sequenceflow-end-white-black-6e6gysho3nj4k82x7cwaeo8pl&quot;);"></path></g><polyline points="180,800 180,865 " class="djs-hit djs-hit-stroke" style="fill: none; stroke-opacity: 0; stroke: white; stroke-width: 15px;"></polyline><rect x="174" y="794" width="12" height="77" class="djs-outline" style="fill: none;"></rect></g></g><g class="djs-group"><g class="djs-element djs-connection" data-element-id="Flow_1iw9qk9" style="display: block;"><g class="djs-visual"><path d="m  180,640L180,700 " style="fill: none; stroke-width: 2px; stroke: black; stroke-linejoin: round; marker-end: url(&quot;#sequenceflow-end-white-black-6e6gysho3nj4k82x7cwaeo8pl&quot;);"></path></g><polyline points="180,640 180,700 " class="djs-hit djs-hit-stroke" style="fill: none; stroke-opacity: 0; stroke: white; stroke-width: 15px;"></polyline><rect x="174" y="634" width="12" height="72" class="djs-outline" style="fill: none;"></rect></g></g><g class="djs-group"><g class="djs-element djs-connection" data-element-id="Flow_14qwkq8" style="display: block;"><g class="djs-visual"><path d="m  420,640L420,702 " style="fill: none; stroke-width: 2px; stroke: black; stroke-linejoin: round; marker-end: url(&quot;#sequenceflow-end-white-black-6e6gysho3nj4k82x7cwaeo8pl&quot;);"></path></g><polyline points="420,640 420,702 " class="djs-hit djs-hit-stroke" style="fill: none; stroke-opacity: 0; stroke: white; stroke-width: 15px;"></polyline><rect x="414" y="634" width="12" height="74" class="djs-outline" style="fill: none;"></rect></g></g><g class="djs-group"><g class="djs-element djs-connection" data-element-id="Flow_0lf02ty" style="display: block;"><g class="djs-visual"><path d="m  205,440L420,440 L420,540 " style="fill: none; stroke-width: 2px; stroke: black; stroke-linejoin: round; marker-end: url(&quot;#sequenceflow-end-white-black-6e6gysho3nj4k82x7cwaeo8pl&quot;);"></path></g><polyline points="205,440 420,440 420,540 " class="djs-hit djs-hit-stroke" style="fill: none; stroke-opacity: 0; stroke: white; stroke-width: 15px;"></polyline><rect x="199" y="434" width="227" height="112" class="djs-outline" style="fill: none;"></rect></g></g><g class="djs-group"><g class="djs-element djs-connection" data-element-id="Flow_1rpsqvw" style="display: block;"><g class="djs-visual"><path d="m  180,465L180,540 " style="fill: none; stroke-width: 2px; stroke: black; stroke-linejoin: round; marker-end: url(&quot;#sequenceflow-end-white-black-6e6gysho3nj4k82x7cwaeo8pl&quot;);"></path></g><polyline points="180,465 180,540 " class="djs-hit djs-hit-stroke" style="fill: none; stroke-opacity: 0; stroke: white; stroke-width: 15px;"></polyline><rect x="174" y="459" width="12" height="87" class="djs-outline" style="fill: none;"></rect></g></g><g class="djs-group"><g class="djs-element djs-connection" data-element-id="Flow_17h4u69" style="display: block;"><g class="djs-visual"><path d="m  180,350L180,415 " style="fill: none; stroke-width: 2px; stroke: black; stroke-linejoin: round; marker-end: url(&quot;#sequenceflow-end-white-black-6e6gysho3nj4k82x7cwaeo8pl&quot;);"></path></g><polyline points="180,350 180,415 " class="djs-hit djs-hit-stroke" style="fill: none; stroke-opacity: 0; stroke: white; stroke-width: 15px;"></polyline><rect x="174" y="344" width="12" height="77" class="djs-outline" style="fill: none;"></rect></g></g><g class="djs-group"><g class="djs-element djs-connection" data-element-id="Flow_1ia76z0" style="display: block;"><g class="djs-visual"><path d="m  180,190L180,250 " style="fill: none; stroke-width: 2px; stroke: black; stroke-linejoin: round; marker-end: url(&quot;#sequenceflow-end-white-black-6e6gysho3nj4k82x7cwaeo8pl&quot;);"></path></g><polyline points="180,190 180,250 " class="djs-hit djs-hit-stroke" style="fill: none; stroke-opacity: 0; stroke: white; stroke-width: 15px;"></polyline><rect x="174" y="184" width="12" height="72" class="djs-outline" style="fill: none;"></rect></g></g><g class="djs-group"><g class="djs-element djs-connection" data-element-id="Flow_0q36mbs" style="display: block;"><g class="djs-visual"><path d="m  180,28L180,90 " style="fill: none; stroke-width: 2px; stroke: black; stroke-linejoin: round; marker-end: url(&quot;#sequenceflow-end-white-black-6e6gysho3nj4k82x7cwaeo8pl&quot;);"></path></g><polyline points="180,28 180,90 " class="djs-hit djs-hit-stroke" style="fill: none; stroke-opacity: 0; stroke: white; stroke-width: 15px;"></polyline><rect x="174" y="22" width="12" height="74" class="djs-outline" style="fill: none;"></rect></g></g><g class="djs-group"><g class="djs-element djs-shape" data-element-id="StartEvent_1bm324f" style="display: block;" transform="matrix(1 0 0 1 162 -8)"><g class="djs-visual"><circle cx="18" cy="18" r="18" style="stroke: black; stroke-width: 2px; fill: white; fill-opacity: 0.95;"></circle></g><rect class="djs-hit djs-hit-all" x="0" y="0" width="36" height="36" style="fill: none; stroke-opacity: 0; stroke: white; stroke-width: 15px;"></rect><rect x="-6" y="-6" width="48" height="48" class="djs-outline" style="fill: none;"></rect></g></g><g class="djs-group"><g class="djs-element djs-shape" data-element-id="StartEvent_1bm324f_label" style="display: block;" transform="matrix(1 0 0 1 137 -44)"><g class="djs-visual"><text lineHeight="1.2" class="djs-label" style="font-family: Arial, sans-serif; font-size: 11px; font-weight: normal; fill: black;"><tspan x="0" y="9.899999999999999">Wakala deposit to </tspan><tspan x="12.4296875" y="23.099999999999998">be amended</tspan></text></g><rect class="djs-hit djs-hit-all" x="0" y="0" width="87" height="27" style="fill: none; stroke-opacity: 0; stroke: white; stroke-width: 15px;"></rect><rect x="-6" y="-6" width="99" height="39" class="djs-outline" style="fill: none;"></rect></g></g><g class="djs-group"><g class="djs-element djs-shape" data-element-id="Activity_01uynr6" style="display: block;" transform="matrix(1 0 0 1 115 90)"><g class="djs-visual"><rect x="0" y="0" width="130" height="100" rx="10" ry="10" style="stroke: black; stroke-width: 2px; fill: white; fill-opacity: 0.95;"></rect><text lineHeight="1.2" class="djs-label" style="font-family: Arial, sans-serif; font-size: 12px; font-weight: normal; fill: black;"><tspan x="15.1474609375" y="39.2">Receive Customer </tspan><tspan x="18.140625" y="53.6">request to amend </tspan><tspan x="24.3681640625" y="68">Wakala deposit</tspan></text></g><rect class="djs-hit djs-hit-all" x="0" y="0" width="130" height="100" style="fill: none; stroke-opacity: 0; stroke: white; stroke-width: 15px;"></rect><rect x="-6" y="-6" width="142" height="112" class="djs-outline" style="fill: none;"></rect></g></g><g class="djs-group"><g class="djs-element djs-shape" data-element-id="DataObjectReference_0dk1qv7" style="display: block;" transform="matrix(1 0 0 1 42 115)"><g class="djs-visual"><path d="m 0,0 28.23529411764706,0 7.058823529411765,8.196721311475411 0,40.98360655737705 -35.294117647058826,0 0,-49.18032786885246 28.23529411764706,0 0,8.196721311475411 7.058823529411765,0" style="fill: white; stroke-width: 2px; stroke: black; fill-opacity: 0.95;"></path></g><rect class="djs-hit djs-hit-all" x="0" y="0" width="36" height="50" style="fill: none; stroke-opacity: 0; stroke: white; stroke-width: 15px;"></rect><rect x="-6" y="-6" width="48" height="62" class="djs-outline" style="fill: none;"></rect></g></g><g class="djs-group"><g class="djs-element djs-shape" data-element-id="DataObjectReference_0dk1qv7_label" style="display: block;" transform="matrix(1 0 0 1 31 172)"><g class="djs-visual"><text lineHeight="1.2" class="djs-label" style="font-family: Arial, sans-serif; font-size: 11px; font-weight: normal; fill: black;"><tspan x="0" y="9.899999999999999">Amendment </tspan><tspan x="8.66845703125" y="23.099999999999998">Request</tspan></text></g><rect class="djs-hit djs-hit-all" x="0" y="0" width="60" height="27" style="fill: none; stroke-opacity: 0; stroke: white; stroke-width: 15px;"></rect><rect x="-6" y="-6" width="72" height="39" class="djs-outline" style="fill: none;"></rect></g></g><g class="djs-group"><g class="djs-element djs-shape" data-element-id="Activity_0ucqn1x" style="display: block;" transform="matrix(1 0 0 1 115 250)"><g class="djs-visual"><rect x="0" y="0" width="130" height="100" rx="10" ry="10" style="stroke: black; stroke-width: 2px; fill: white; fill-opacity: 0.95;"></rect><text lineHeight="1.2" class="djs-label" style="font-family: Arial, sans-serif; font-size: 12px; font-weight: normal; fill: black;"><tspan x="31.9794921875" y="46.4">Authenticate </tspan><tspan x="38.4912109375" y="60.8">Customer</tspan></text></g><rect class="djs-hit djs-hit-all" x="0" y="0" width="130" height="100" style="fill: none; stroke-opacity: 0; stroke: white; stroke-width: 15px;"></rect><rect x="-6" y="-6" width="142" height="112" class="djs-outline" style="fill: none;"></rect></g></g><g class="djs-group"><g class="djs-element djs-shape" data-element-id="Gateway_0xkmpqe" style="display: block;" transform="matrix(1 0 0 1 155 415)"><g class="djs-visual"><polygon points="25,0 50,25 25,50 0,25" style="stroke: black; stroke-width: 2px; fill: white; fill-opacity: 0.95;"></polygon><path d="m 16,15 7.42857142857143,9.714285714285715 -7.42857142857143,9.714285714285715 3.428571428571429,0 5.714285714285715,-7.464228571428572 5.714285714285715,7.464228571428572 3.428571428571429,0 -7.42857142857143,-9.714285714285715 7.42857142857143,-9.714285714285715 -3.428571428571429,0 -5.714285714285715,7.464228571428572 -5.714285714285715,-7.464228571428572 -3.428571428571429,0 z" style="fill: black; stroke-width: 1px; stroke: black;"></path></g><rect class="djs-hit djs-hit-all" x="0" y="0" width="50" height="50" style="fill: none; stroke-opacity: 0; stroke: white; stroke-width: 15px;"></rect><rect x="-6" y="-6" width="62" height="62" class="djs-outline" style="fill: none;"></rect></g></g><g class="djs-group"><g class="djs-element djs-shape" data-element-id="Activity_1x46xg4" style="display: block;" transform="matrix(1 0 0 1 115 540)"><g class="djs-visual"><rect x="0" y="0" width="130" height="100" rx="10" ry="10" style="stroke: black; stroke-width: 2px; fill: white; fill-opacity: 0.95;"></rect><text lineHeight="1.2" class="djs-label" style="font-family: Arial, sans-serif; font-size: 12px; font-weight: normal; fill: black;"><tspan x="5.525390625" y="53.599999999999994">Select Wakala deposit</tspan></text></g><rect class="djs-hit djs-hit-all" x="0" y="0" width="130" height="100" style="fill: none; stroke-opacity: 0; stroke: white; stroke-width: 15px;"></rect><rect x="-6" y="-6" width="142" height="112" class="djs-outline" style="fill: none;"></rect></g></g><g class="djs-group"><g class="djs-element djs-shape" data-element-id="Activity_1f5kl03" style="display: block;" transform="matrix(1 0 0 1 355 540)"><g class="djs-visual"><rect x="0" y="0" width="130" height="100" rx="10" ry="10" style="stroke: black; stroke-width: 2px; fill: white; fill-opacity: 0.95;"></rect><text lineHeight="1.2" class="djs-label" style="font-family: Arial, sans-serif; font-size: 12px; font-weight: normal; fill: black;"><tspan x="19.8203125" y="39.2">Inform Customer </tspan><tspan x="13.466796875" y="53.6">about unsuccessful </tspan><tspan x="27.474609375" y="68">authentication</tspan></text></g><rect class="djs-hit djs-hit-all" x="0" y="0" width="130" height="100" style="fill: none; stroke-opacity: 0; stroke: white; stroke-width: 15px;"></rect><rect x="-6" y="-6" width="142" height="112" class="djs-outline" style="fill: none;"></rect></g></g><g class="djs-group"><g class="djs-element djs-shape" data-element-id="Event_1luffv2" style="display: block;" transform="matrix(1 0 0 1 402 702)"><g class="djs-visual"><circle cx="18" cy="18" r="18" style="stroke: black; stroke-width: 4px; fill: white; fill-opacity: 0.95;"></circle></g><rect class="djs-hit djs-hit-all" x="0" y="0" width="36" height="36" style="fill: none; stroke-opacity: 0; stroke: white; stroke-width: 15px;"></rect><rect x="-6" y="-6" width="48" height="48" class="djs-outline" style="fill: none;"></rect></g></g><g class="djs-group"><g class="djs-element djs-shape" data-element-id="Event_1luffv2_label" style="display: block;" transform="matrix(1 0 0 1 374 749)"><g class="djs-visual"><text lineHeight="1.2" class="djs-label" style="font-family: Arial, sans-serif; font-size: 11px; font-weight: normal; fill: black;"><tspan x="0" y="9.899999999999999">Customer informed </tspan><tspan x="18.328125" y="23.099999999999998">about failed </tspan><tspan x="12.5234375" y="36.3">authentication</tspan></text></g><rect class="djs-hit djs-hit-all" x="0" y="0" width="94" height="40" style="fill: none; stroke-opacity: 0; stroke: white; stroke-width: 15px;"></rect><rect x="-6" y="-6" width="106" height="52" class="djs-outline" style="fill: none;"></rect></g></g><g class="djs-group"><g class="djs-element djs-shape" data-element-id="Activity_176uun7" style="display: block;" transform="matrix(1 0 0 1 115 700)"><g class="djs-visual"><rect x="0" y="0" width="130" height="100" rx="10" ry="10" style="stroke: black; stroke-width: 2px; fill: white; fill-opacity: 0.95;"></rect><text lineHeight="1.2" class="djs-label" style="font-family: Arial, sans-serif; font-size: 12px; font-weight: normal; fill: black;"><tspan x="12.814453125" y="46.4">Decide if simulation </tspan><tspan x="42.8232421875" y="60.8">required</tspan></text></g><rect class="djs-hit djs-hit-all" x="0" y="0" width="130" height="100" style="fill: none; stroke-opacity: 0; stroke: white; stroke-width: 15px;"></rect><rect x="-6" y="-6" width="142" height="112" class="djs-outline" style="fill: none;"></rect></g></g><g class="djs-group"><g class="djs-element djs-shape" data-element-id="Gateway_12pbul6" style="display: block;" transform="matrix(1 0 0 1 155 865)"><g class="djs-visual"><polygon points="25,0 50,25 25,50 0,25" style="stroke: black; stroke-width: 2px; fill: white; fill-opacity: 0.95;"></polygon><path d="m 16,15 7.42857142857143,9.714285714285715 -7.42857142857143,9.714285714285715 3.428571428571429,0 5.714285714285715,-7.464228571428572 5.714285714285715,7.464228571428572 3.428571428571429,0 -7.42857142857143,-9.714285714285715 7.42857142857143,-9.714285714285715 -3.428571428571429,0 -5.714285714285715,7.464228571428572 -5.714285714285715,-7.464228571428572 -3.428571428571429,0 z" style="fill: black; stroke-width: 1px; stroke: black;"></path></g><rect class="djs-hit djs-hit-all" x="0" y="0" width="50" height="50" style="fill: none; stroke-opacity: 0; stroke: white; stroke-width: 15px;"></rect><rect x="-6" y="-6" width="62" height="62" class="djs-outline" style="fill: none;"></rect></g></g><g class="djs-group"><g class="djs-element djs-shape" data-element-id="Gateway_1g9eudf" style="display: block;" transform="matrix(1 0 0 1 155 1615)"><g class="djs-visual"><polygon points="25,0 50,25 25,50 0,25" style="stroke: black; stroke-width: 2px; fill: white; fill-opacity: 0.95;"></polygon><path d="m 16,15 7.42857142857143,9.714285714285715 -7.42857142857143,9.714285714285715 3.428571428571429,0 5.714285714285715,-7.464228571428572 5.714285714285715,7.464228571428572 3.428571428571429,0 -7.42857142857143,-9.714285714285715 7.42857142857143,-9.714285714285715 -3.428571428571429,0 -5.714285714285715,7.464228571428572 -5.714285714285715,-7.464228571428572 -3.428571428571429,0 z" style="fill: black; stroke-width: 1px; stroke: black;"></path></g><rect class="djs-hit djs-hit-all" x="0" y="0" width="50" height="50" style="fill: none; stroke-opacity: 0; stroke: white; stroke-width: 15px;"></rect><rect x="-6" y="-6" width="62" height="62" class="djs-outline" style="fill: none;"></rect></g></g><g class="djs-group"><g class="djs-element djs-shape" data-element-id="Activity_1bhdw3o" style="display: block;" transform="matrix(1 0 0 1 355 1000)"><g class="djs-visual"><rect x="0" y="0" width="130" height="100" rx="10" ry="10" style="stroke: black; stroke-width: 2px; fill: white; fill-opacity: 0.95;"></rect><text lineHeight="1.2" class="djs-label" style="font-family: Arial, sans-serif; font-size: 12px; font-weight: normal; fill: black;"><tspan x="15.47265625" y="46.4">Capture details for </tspan><tspan x="37.8251953125" y="60.8">simulation</tspan></text></g><rect class="djs-hit djs-hit-all" x="0" y="0" width="130" height="100" style="fill: none; stroke-opacity: 0; stroke: white; stroke-width: 15px;"></rect><rect x="-6" y="-6" width="142" height="112" class="djs-outline" style="fill: none;"></rect></g></g><g class="djs-group"><g class="djs-element djs-shape" data-element-id="Activity_1gdk1jb" style="display: block;" transform="matrix(1 0 0 1 355 1170)"><g class="djs-visual"><rect x="0" y="0" width="130" height="100" rx="10" ry="10" style="stroke: black; stroke-width: 2px; fill: white; fill-opacity: 0.95;"></rect><text lineHeight="1.2" class="djs-label" style="font-family: Arial, sans-serif; font-size: 12px; font-weight: normal; fill: black;"><tspan x="14.8212890625" y="53.599999999999994">Perform simulation</tspan></text></g><rect class="djs-hit djs-hit-all" x="0" y="0" width="130" height="100" style="fill: none; stroke-opacity: 0; stroke: white; stroke-width: 15px;"></rect><rect x="-6" y="-6" width="142" height="112" class="djs-outline" style="fill: none;"></rect></g></g><g class="djs-group"><g class="djs-element djs-shape" data-element-id="Activity_137e3gd" style="display: block;" transform="matrix(1 0 0 1 355 1330)"><g class="djs-visual"><rect x="0" y="0" width="130" height="100" rx="10" ry="10" style="stroke: black; stroke-width: 2px; fill: white; fill-opacity: 0.95;"></rect><text lineHeight="1.2" class="djs-label" style="font-family: Arial, sans-serif; font-size: 12px; font-weight: normal; fill: black;"><tspan x="15.4775390625" y="46.4">Enquire simulation </tspan><tspan x="49.9951171875" y="60.8">result</tspan></text></g><rect class="djs-hit djs-hit-all" x="0" y="0" width="130" height="100" style="fill: none; stroke-opacity: 0; stroke: white; stroke-width: 15px;"></rect><rect x="-6" y="-6" width="142" height="112" class="djs-outline" style="fill: none;"></rect></g></g><g class="djs-group"><g class="djs-element djs-shape" data-element-id="Gateway_0i18tym" style="display: block;" transform="matrix(1 0 0 1 395 1485)"><g class="djs-visual"><polygon points="25,0 50,25 25,50 0,25" style="stroke: black; stroke-width: 2px; fill: white; fill-opacity: 0.95;"></polygon><path d="m 16,15 7.42857142857143,9.714285714285715 -7.42857142857143,9.714285714285715 3.428571428571429,0 5.714285714285715,-7.464228571428572 5.714285714285715,7.464228571428572 3.428571428571429,0 -7.42857142857143,-9.714285714285715 7.42857142857143,-9.714285714285715 -3.428571428571429,0 -5.714285714285715,7.464228571428572 -5.714285714285715,-7.464228571428572 -3.428571428571429,0 z" style="fill: black; stroke-width: 1px; stroke: black;"></path></g><rect class="djs-hit djs-hit-all" x="0" y="0" width="50" height="50" style="fill: none; stroke-opacity: 0; stroke: white; stroke-width: 15px;"></rect><rect x="-6" y="-6" width="62" height="62" class="djs-outline" style="fill: none;"></rect></g></g><g class="djs-group"><g class="djs-element djs-shape" data-element-id="Event_0zgnl6f" style="display: block;" transform="matrix(1 0 0 1 562 1542)"><g class="djs-visual"><circle cx="18" cy="18" r="18" style="stroke: black; stroke-width: 4px; fill: white; fill-opacity: 0.95;"></circle></g><rect class="djs-hit djs-hit-all" x="0" y="0" width="36" height="36" style="fill: none; stroke-opacity: 0; stroke: white; stroke-width: 15px;"></rect><rect x="-6" y="-6" width="48" height="48" class="djs-outline" style="fill: none;"></rect></g></g><g class="djs-group"><g class="djs-element djs-shape" data-element-id="Event_0zgnl6f_label" style="display: block;" transform="matrix(1 0 0 1 531 1588)"><g class="djs-visual"><text lineHeight="1.2" class="djs-label" style="font-family: Arial, sans-serif; font-size: 11px; font-weight: normal; fill: black;"><tspan x="0" y="9.899999999999999">Amendment request </tspan><tspan x="17.576904296875" y="23.099999999999998">to be aborted</tspan></text></g><rect class="djs-hit djs-hit-all" x="0" y="0" width="99" height="27" style="fill: none; stroke-opacity: 0; stroke: white; stroke-width: 15px;"></rect><rect x="-6" y="-6" width="111" height="39" class="djs-outline" style="fill: none;"></rect></g></g><g class="djs-group"><g class="djs-element djs-shape" data-element-id="Activity_0mz2f3x" style="display: block;" transform="matrix(1 0 0 1 115 1800)"><g class="djs-visual"><rect x="0" y="0" width="130" height="100" rx="10" ry="10" style="stroke: black; stroke-width: 2px; fill: white; fill-opacity: 0.95;"></rect><text lineHeight="1.2" class="djs-label" style="font-family: Arial, sans-serif; font-size: 12px; font-weight: normal; fill: black;"><tspan x="24.875" y="46.4">Amend Wakala </tspan><tspan x="45.3193359375" y="60.8">deposit</tspan></text></g><rect class="djs-hit djs-hit-all" x="0" y="0" width="130" height="100" style="fill: none; stroke-opacity: 0; stroke: white; stroke-width: 15px;"></rect><rect x="-6" y="-6" width="142" height="112" class="djs-outline" style="fill: none;"></rect></g></g><g class="djs-group"><g class="djs-element djs-shape" data-element-id="Activity_04jzr2k" style="display: block;" transform="matrix(1 0 0 1 115 1960)"><g class="djs-visual"><rect x="0" y="0" width="130" height="100" rx="10" ry="10" style="stroke: black; stroke-width: 2px; fill: white; fill-opacity: 0.95;"></rect><text lineHeight="1.2" class="djs-label" style="font-family: Arial, sans-serif; font-size: 12px; font-weight: normal; fill: black;"><tspan x="19.3115234375" y="39.2">Authorise/ Delete </tspan><tspan x="24.3681640625" y="53.6">Wakala deposit </tspan><tspan x="30.3125" y="68">amendments</tspan></text></g><rect class="djs-hit djs-hit-all" x="0" y="0" width="130" height="100" style="fill: none; stroke-opacity: 0; stroke: white; stroke-width: 15px;"></rect><rect x="-6" y="-6" width="142" height="112" class="djs-outline" style="fill: none;"></rect></g></g><g class="djs-group"><g class="djs-element djs-shape" data-element-id="Activity_1uclqfk" style="display: block;" transform="matrix(1 0 0 1 115 2130)"><g class="djs-visual"><rect x="0" y="0" width="130" height="100" rx="10" ry="10" style="stroke: black; stroke-width: 2px; fill: white; fill-opacity: 0.95;"></rect><text lineHeight="1.2" class="djs-label" style="font-family: Arial, sans-serif; font-size: 12px; font-weight: normal; fill: black;"><tspan x="24.0380859375" y="46.4">Update Wakala </tspan><tspan x="45.3193359375" y="60.8">deposit</tspan></text></g><rect class="djs-hit djs-hit-all" x="0" y="0" width="130" height="100" style="fill: none; stroke-opacity: 0; stroke: white; stroke-width: 15px;"></rect><rect x="-6" y="-6" width="142" height="112" class="djs-outline" style="fill: none;"></rect></g></g><g class="djs-group"><g class="djs-element djs-shape" data-element-id="Activity_1uaiznj" style="display: block;" transform="matrix(1 0 0 1 115 2290)"><g class="djs-visual"><rect x="0" y="0" width="130" height="100" rx="10" ry="10" style="stroke: black; stroke-width: 2px; fill: white; fill-opacity: 0.95;"></rect><text lineHeight="1.2" class="djs-label" style="font-family: Arial, sans-serif; font-size: 12px; font-weight: normal; fill: black;"><tspan x="20.8095703125" y="53.599999999999994">Generate advice</tspan></text></g><rect class="djs-hit djs-hit-all" x="0" y="0" width="130" height="100" style="fill: none; stroke-opacity: 0; stroke: white; stroke-width: 15px;"></rect><rect x="-6" y="-6" width="142" height="112" class="djs-outline" style="fill: none;"></rect></g></g><g class="djs-group"><g class="djs-element djs-shape" data-element-id="DataObjectReference_12nis7f" style="display: block;" transform="matrix(1 0 0 1 282 2315)"><g class="djs-visual"><path d="m 0,0 28.23529411764706,0 7.058823529411765,8.196721311475411 0,40.98360655737705 -35.294117647058826,0 0,-49.18032786885246 28.23529411764706,0 0,8.196721311475411 7.058823529411765,0" style="fill: white; stroke-width: 2px; stroke: black; fill-opacity: 0.95;"></path></g><rect class="djs-hit djs-hit-all" x="0" y="0" width="36" height="50" style="fill: none; stroke-opacity: 0; stroke: white; stroke-width: 15px;"></rect><rect x="-6" y="-6" width="48" height="62" class="djs-outline" style="fill: none;"></rect></g></g><g class="djs-group"><g class="djs-element djs-shape" data-element-id="DataObjectReference_12nis7f_label" style="display: block;" transform="matrix(1 0 0 1 258 2372)"><g class="djs-visual"><text lineHeight="1.2" class="djs-label" style="font-family: Arial, sans-serif; font-size: 11px; font-weight: normal; fill: black;"><tspan x="0" y="9.899999999999999">Customer Advice</tspan></text></g><rect class="djs-hit djs-hit-all" x="0" y="0" width="84" height="14" style="fill: none; stroke-opacity: 0; stroke: white; stroke-width: 15px;"></rect><rect x="-6" y="-6" width="96" height="26" class="djs-outline" style="fill: none;"></rect></g></g><g class="djs-group"><g class="djs-element djs-shape" data-element-id="Activity_0v61fa8" style="display: block;" transform="matrix(1 0 0 1 115 2450)"><g class="djs-visual"><rect x="0" y="0" width="130" height="100" rx="10" ry="10" style="stroke: black; stroke-width: 2px; fill: white; fill-opacity: 0.95;"></rect><text lineHeight="1.2" class="djs-label" style="font-family: Arial, sans-serif; font-size: 12px; font-weight: normal; fill: black;"><tspan x="27.1552734375" y="53.599999999999994">Deliver advice</tspan></text></g><rect class="djs-hit djs-hit-all" x="0" y="0" width="130" height="100" style="fill: none; stroke-opacity: 0; stroke: white; stroke-width: 15px;"></rect><rect x="-6" y="-6" width="142" height="112" class="djs-outline" style="fill: none;"></rect></g></g><g class="djs-group"><g class="djs-element djs-shape" data-element-id="DataObjectReference_18gkasz" style="display: block;" transform="matrix(1 0 0 1 282 2475)"><g class="djs-visual"><path d="m 0,0 28.23529411764706,0 7.058823529411765,8.196721311475411 0,40.98360655737705 -35.294117647058826,0 0,-49.18032786885246 28.23529411764706,0 0,8.196721311475411 7.058823529411765,0" style="fill: white; stroke-width: 2px; stroke: black; fill-opacity: 0.95;"></path></g><rect class="djs-hit djs-hit-all" x="0" y="0" width="36" height="50" style="fill: none; stroke-opacity: 0; stroke: white; stroke-width: 15px;"></rect><rect x="-6" y="-6" width="48" height="62" class="djs-outline" style="fill: none;"></rect></g></g><g class="djs-group"><g class="djs-element djs-shape" data-element-id="DataObjectReference_18gkasz_label" style="display: block;" transform="matrix(1 0 0 1 258 2532)"><g class="djs-visual"><text lineHeight="1.2" class="djs-label" style="font-family: Arial, sans-serif; font-size: 11px; font-weight: normal; fill: black;"><tspan x="0" y="9.899999999999999">Customer Advice</tspan></text></g><rect class="djs-hit djs-hit-all" x="0" y="0" width="84" height="14" style="fill: none; stroke-opacity: 0; stroke: white; stroke-width: 15px;"></rect><rect x="-6" y="-6" width="96" height="26" class="djs-outline" style="fill: none;"></rect></g></g><g class="djs-group"><g class="djs-element djs-shape" data-element-id="Event_1oyqjg5" style="display: block;" transform="matrix(1 0 0 1 162 2602)"><g class="djs-visual"><circle cx="18" cy="18" r="18" style="stroke: black; stroke-width: 4px; fill: white; fill-opacity: 0.95;"></circle></g><rect class="djs-hit djs-hit-all" x="0" y="0" width="36" height="36" style="fill: none; stroke-opacity: 0; stroke: white; stroke-width: 15px;"></rect><rect x="-6" y="-6" width="48" height="48" class="djs-outline" style="fill: none;"></rect></g></g><g class="djs-group"><g class="djs-element djs-shape" data-element-id="Event_1oyqjg5_label" style="display: block;" transform="matrix(1 0 0 1 143 2647)"><g class="djs-visual"><text lineHeight="1.2" class="djs-label" style="font-family: Arial, sans-serif; font-size: 11px; font-weight: normal; fill: black;"><tspan x="0" y="9.899999999999999">Wakala deposit </tspan><tspan x="7.854736328125" y="23.099999999999998">amendment </tspan><tspan x="11.988037109375" y="36.3">completed</tspan></text></g><rect class="djs-hit djs-hit-all" x="0" y="0" width="75" height="40" style="fill: none; stroke-opacity: 0; stroke: white; stroke-width: 15px;"></rect><rect x="-6" y="-6" width="87" height="52" class="djs-outline" style="fill: none;"></rect></g></g><g class="djs-group"><g class="djs-element djs-shape" data-element-id="TextAnnotation_1vtcq2m" style="display: block;" transform="matrix(1 0 0 1 318 200)"><g class="djs-visual"><rect x="0" y="0" width="144" height="30" rx="0" ry="0" style="stroke: none; stroke-width: 2px; fill: none;"></rect><path d="m 0, 0 m 10,0 l -10,0 l 0,30 l 10,0" style="fill: none; stroke-width: 2px; stroke: black;"></path><text lineHeight="1.2" class="djs-label" style="font-family: Arial, sans-serif; font-size: 12px; font-weight: normal; fill: black;"><tspan x="5" y="15.799999999999999">Mandates/ Signatories</tspan></text></g><rect class="djs-hit djs-hit-all" x="0" y="0" width="144" height="30" style="fill: none; stroke-opacity: 0; stroke: white; stroke-width: 15px;"></rect><rect x="-6" y="-6" width="156" height="42" class="djs-outline" style="fill: none;"></rect></g></g><g class="djs-group"><g class="djs-element djs-shape" data-element-id="TextAnnotation_1r9yarf" style="display: block;" transform="matrix(1 0 0 1 550 940)"><g class="djs-visual"><rect x="0" y="0" width="210" height="84" rx="0" ry="0" style="stroke: none; stroke-width: 2px; fill: none;"></rect><path d="m 0, 0 m 10,0 l -10,0 l 0,84 l 10,0" style="fill: none; stroke-width: 2px; stroke: black;"></path><text lineHeight="1.2" class="djs-label" style="font-family: Arial, sans-serif; font-size: 12px; font-weight: normal; fill: black;"><tspan x="5" y="15.799999999999999">Details captured</tspan><tspan x="5" y="30.199999999999996">- Term of the deposit</tspan><tspan x="5" y="44.599999999999994">- Profit Rate&nbsp; &nbsp;</tspan><tspan x="5" y="58.99999999999999">- Profit payment schedule frequency</tspan><tspan x="5" y="73.39999999999999">- Special HIBA Profit Rate</tspan></text></g><rect class="djs-hit djs-hit-all" x="0" y="0" width="210" height="84" style="fill: none; stroke-opacity: 0; stroke: white; stroke-width: 15px;"></rect><rect x="-6" y="-6" width="222" height="96" class="djs-outline" style="fill: none;"></rect></g></g><g class="djs-group"><g class="djs-element djs-shape" data-element-id="TextAnnotation_0hnw757" style="display: block;" transform="matrix(1 0 0 1 318 1690)"><g class="djs-visual"><rect x="0" y="0" width="280" height="157" rx="0" ry="0" style="stroke: none; stroke-width: 2px; fill: none;"></rect><path d="m 0, 0 m 10,0 l -10,0 l 0,157 l 10,0" style="fill: none; stroke-width: 2px; stroke: black;"></path><text lineHeight="1.2" class="djs-label" style="font-family: Arial, sans-serif; font-size: 12px; font-weight: normal; fill: black;"><tspan x="5" y="15.799999999999999">Amendment can be done for</tspan><tspan x="5" y="30.199999999999996">- Term of the deposit</tspan><tspan x="5" y="44.599999999999994">- Profit Rate</tspan><tspan x="5" y="58.99999999999999">- Special HIBA Profit Rate</tspan><tspan x="5" y="73.39999999999999">- Profit payment schedule frequency</tspan><tspan x="5" y="87.79999999999998">- Settlement instructions (Manual/ auto)&nbsp; &nbsp;</tspan><tspan x="5" y="102.19999999999999">- Mark Arrangement Dormant</tspan><tspan x="5" y="116.6">- Branch and Line of Business&nbsp;</tspan><tspan x="5" y="131">- Pool ID&nbsp; &nbsp;</tspan><tspan x="5" y="145.4">- Maturity date</tspan></text></g><rect class="djs-hit djs-hit-all" x="0" y="0" width="280" height="157" style="fill: none; stroke-opacity: 0; stroke: white; stroke-width: 15px;"></rect><rect x="-6" y="-6" width="292" height="169" class="djs-outline" style="fill: none;"></rect></g></g><g class="djs-group"><g class="djs-element djs-connection" data-element-id="DataInputAssociation_1n03g5w" style="display: block;"><g class="djs-visual"><polyline points="78,140 115,140 " style="fill: none; stroke: black; stroke-width: 2px; stroke-dasharray: 0.5, 5; stroke-linecap: round; stroke-linejoin: round; marker-end: url(&quot;#association-end-white-black-6e6gysho3nj4k82x7cwaeo8pl&quot;);"></polyline></g><polyline points="78,140 115,140 " class="djs-hit djs-hit-stroke" style="fill: none; stroke-opacity: 0; stroke: white; stroke-width: 15px;"></polyline><rect x="72" y="134" width="49" height="12" class="djs-outline" style="fill: none;"></rect></g></g><g class="djs-group"><g class="djs-element djs-shape" data-element-id="Flow_1rpsqvw_label" style="display: block;" transform="matrix(1 0 0 1 190 487)"><g class="djs-visual"><text lineHeight="1.2" class="djs-label" style="font-family: Arial, sans-serif; font-size: 11px; font-weight: normal; fill: black;"><tspan x="8.523193359375" y="9.899999999999999">Customer </tspan><tspan x="0" y="23.099999999999998">authenticated</tspan></text></g><rect class="djs-hit djs-hit-all" x="0" y="0" width="67" height="27" style="fill: none; stroke-opacity: 0; stroke: white; stroke-width: 15px;"></rect><rect x="-6" y="-6" width="79" height="39" class="djs-outline" style="fill: none;"></rect></g></g><g class="djs-group"><g class="djs-element djs-shape" data-element-id="Flow_0lf02ty_label" style="display: block;" transform="matrix(1 0 0 1 429 484)"><g class="djs-visual"><text lineHeight="1.2" class="djs-label" style="font-family: Arial, sans-serif; font-size: 11px; font-weight: normal; fill: black;"><tspan x="0" y="9.899999999999999">Customer not </tspan><tspan x="0.4541015625" y="23.099999999999998">authenticated</tspan></text></g><rect class="djs-hit djs-hit-all" x="0" y="0" width="67" height="27" style="fill: none; stroke-opacity: 0; stroke: white; stroke-width: 15px;"></rect><rect x="-6" y="-6" width="79" height="39" class="djs-outline" style="fill: none;"></rect></g></g><g class="djs-group"><g class="djs-element djs-shape" data-element-id="Flow_0mex16o_label" style="display: block;" transform="matrix(1 0 0 1 187 936)"><g class="djs-visual"><text lineHeight="1.2" class="djs-label" style="font-family: Arial, sans-serif; font-size: 11px; font-weight: normal; fill: black;"><tspan x="0" y="9.899999999999999">Simulation not </tspan><tspan x="15.145263671875" y="23.099999999999998">required</tspan></text></g><rect class="djs-hit djs-hit-all" x="0" y="0" width="71" height="27" style="fill: none; stroke-opacity: 0; stroke: white; stroke-width: 15px;"></rect><rect x="-6" y="-6" width="83" height="39" class="djs-outline" style="fill: none;"></rect></g></g><g class="djs-group"><g class="djs-element djs-shape" data-element-id="Flow_18ps5xa_label" style="display: block;" transform="matrix(1 0 0 1 240 856)"><g class="djs-visual"><text lineHeight="1.2" class="djs-label" style="font-family: Arial, sans-serif; font-size: 11px; font-weight: normal; fill: black;"><tspan x="0" y="9.899999999999999">Simulation to be </tspan><tspan x="12.988037109375" y="23.099999999999998">carried out</tspan></text></g><rect class="djs-hit djs-hit-all" x="0" y="0" width="79" height="27" style="fill: none; stroke-opacity: 0; stroke: white; stroke-width: 15px;"></rect><rect x="-6" y="-6" width="91" height="39" class="djs-outline" style="fill: none;"></rect></g></g><g class="djs-group"><g class="djs-element djs-shape" data-element-id="Flow_0ushmeq_label" style="display: block;" transform="matrix(1 0 0 1 411 1550)"><g class="djs-visual"><text lineHeight="1.2" class="djs-label" style="font-family: Arial, sans-serif; font-size: 11px; font-weight: normal; fill: black;"><tspan x="0" y="9.899999999999999">Amendment request </tspan><tspan x="19.115966796875" y="23.099999999999998">to be fulfilled</tspan></text></g><rect class="djs-hit djs-hit-all" x="0" y="0" width="99" height="27" style="fill: none; stroke-opacity: 0; stroke: white; stroke-width: 15px;"></rect><rect x="-6" y="-6" width="111" height="39" class="djs-outline" style="fill: none;"></rect></g></g><g class="djs-group"><g class="djs-element djs-connection" data-element-id="DataOutputAssociation_0mz81tr" style="display: block;"><g class="djs-visual"><polyline points="245,2340 282,2340 " style="fill: none; stroke: black; stroke-width: 2px; stroke-dasharray: 0.5, 5; stroke-linecap: round; stroke-linejoin: round; marker-end: url(&quot;#association-end-white-black-6e6gysho3nj4k82x7cwaeo8pl&quot;);"></polyline></g><polyline points="245,2340 282,2340 " class="djs-hit djs-hit-stroke" style="fill: none; stroke-opacity: 0; stroke: white; stroke-width: 15px;"></polyline><rect x="239" y="2334" width="49" height="12" class="djs-outline" style="fill: none;"></rect></g></g><g class="djs-group"><g class="djs-element djs-connection" data-element-id="DataOutputAssociation_114qnou" style="display: block;"><g class="djs-visual"><polyline points="245,2500 282,2500 " style="fill: none; stroke: black; stroke-width: 2px; stroke-dasharray: 0.5, 5; stroke-linecap: round; stroke-linejoin: round; marker-end: url(&quot;#association-end-white-black-6e6gysho3nj4k82x7cwaeo8pl&quot;);"></polyline></g><polyline points="245,2500 282,2500 " class="djs-hit djs-hit-stroke" style="fill: none; stroke-opacity: 0; stroke: white; stroke-width: 15px;"></polyline><rect x="239" y="2494" width="49" height="12" class="djs-outline" style="fill: none;"></rect></g></g><g class="djs-group"><g class="djs-element djs-connection" data-element-id="Association_1tjftwx" style="display: block;"><g class="djs-visual"><polyline points="245,261 318,216 " style="fill: none; stroke: black; stroke-width: 2px; stroke-dasharray: 0.5, 5; stroke-linecap: round; stroke-linejoin: round;"></polyline></g><polyline points="245,261 318,216 " class="djs-hit djs-hit-stroke" style="fill: none; stroke-opacity: 0; stroke: white; stroke-width: 15px;"></polyline><rect x="239" y="210" width="85" height="57" class="djs-outline" style="fill: none;"></rect></g></g><g class="djs-group"><g class="djs-element djs-connection" data-element-id="Association_0ivla5s" style="display: block;"><g class="djs-visual"><polyline points="484,1005 550,958 " style="fill: none; stroke: black; stroke-width: 2px; stroke-dasharray: 0.5, 5; stroke-linecap: round; stroke-linejoin: round;"></polyline></g><polyline points="484,1005 550,958 " class="djs-hit djs-hit-stroke" style="fill: none; stroke-opacity: 0; stroke: white; stroke-width: 15px;"></polyline><rect x="478" y="952" width="78" height="59" class="djs-outline" style="fill: none;"></rect></g></g><g class="djs-group"><g class="djs-element djs-connection" data-element-id="Association_0nqxoyx" style="display: block;"><g class="djs-visual"><polyline points="245,1809 318,1761 " style="fill: none; stroke: black; stroke-width: 2px; stroke-dasharray: 0.5, 5; stroke-linecap: round; stroke-linejoin: round;"></polyline></g><polyline points="245,1809 318,1761 " class="djs-hit djs-hit-stroke" style="fill: none; stroke-opacity: 0; stroke: white; stroke-width: 15px;"></polyline><rect x="239" y="1755" width="85" height="60" class="djs-outline" style="fill: none;"></rect></g></g></g></g><defs><marker id="association-end-white-black-6e6gysho3nj4k82x7cwaeo8pl" viewBox="0 0 20 20" refX="12" refY="10" markerWidth="10" markerHeight="10" orient="auto"><path d="M 1 5 L 11 10 L 1 15" style="fill: none; stroke-width: 1.5px; stroke-linecap: round; stroke-dasharray: 10000, 1; stroke: black;"></path></marker><marker id="sequenceflow-end-white-black-6e6gysho3nj4k82x7cwaeo8pl" viewBox="0 0 20 20" refX="11" refY="10" markerWidth="10" markerHeight="10" orient="auto"><path d="M 1 5 L 11 10 L 1 15 Z" style="fill: black; stroke-width: 1px; stroke-linecap: round; stroke-dasharray: 10000, 1; stroke: black;"></path></marker></defs></svg>