<svg width="100%" height="100%" viewBox="-50, -196, 1835, 2210"><g><g class="djs-visual" id="Flow_1cp2x6h" transform="translate(0 0)"><path d="m  245,260L920,260 L920,840 L795,840 " style="fill: none; stroke-width: 2px; stroke: black; stroke-linejoin: round; marker-end: url(&quot;#sequenceflow-end-white-black-dibz21qh3tx6gxq6wfhstqzfi&quot;);"></path></g><g class="djs-visual" id="Flow_0menjq5" transform="translate(0 0)"><path d="m  1160,1800L1160,1872 " style="fill: none; stroke-width: 2px; stroke: black; stroke-linejoin: round; marker-end: url(&quot;#sequenceflow-end-white-black-dibz21qh3tx6gxq6wfhstqzfi&quot;);"></path></g><g class="djs-visual" id="Flow_1ryzghe" transform="translate(0 0)"><path d="m  1160,1630L1160,1700 " style="fill: none; stroke-width: 2px; stroke: black; stroke-linejoin: round; marker-end: url(&quot;#sequenceflow-end-white-black-dibz21qh3tx6gxq6wfhstqzfi&quot;);"></path></g><g class="djs-visual" id="Flow_1m7pdwg" transform="translate(0 0)"><path d="m  1160,1460L1160,1530 " style="fill: none; stroke-width: 2px; stroke: black; stroke-linejoin: round; marker-end: url(&quot;#sequenceflow-end-white-black-dibz21qh3tx6gxq6wfhstqzfi&quot;);"></path></g><g class="djs-visual" id="Flow_1ww9sjv" transform="translate(0 0)"><path d="m  795,1260L1160,1260 L1160,1360 " style="fill: none; stroke-width: 2px; stroke: black; stroke-linejoin: round; marker-end: url(&quot;#sequenceflow-end-white-black-dibz21qh3tx6gxq6wfhstqzfi&quot;);"></path></g><g class="djs-visual" id="Flow_02d9r3f" transform="translate(0 0)"><path d="m  770,1800L770,1860 L30,1860 L30,390 L195,390 " style="fill: none; stroke-width: 2px; stroke: black; stroke-linejoin: round; marker-end: url(&quot;#sequenceflow-end-white-black-dibz21qh3tx6gxq6wfhstqzfi&quot;);"></path></g><g class="djs-visual" id="Flow_1t1gfjq" transform="translate(0 0)"><path d="m  770,1630L770,1700 " style="fill: none; stroke-width: 2px; stroke: black; stroke-linejoin: round; marker-end: url(&quot;#sequenceflow-end-white-black-dibz21qh3tx6gxq6wfhstqzfi&quot;);"></path></g><g class="djs-visual" id="Flow_075uldg" transform="translate(0 0)"><path d="m  770,1460L770,1530 " style="fill: none; stroke-width: 2px; stroke: black; stroke-linejoin: round; marker-end: url(&quot;#sequenceflow-end-white-black-dibz21qh3tx6gxq6wfhstqzfi&quot;);"></path></g><g class="djs-visual" id="Flow_13cc412" transform="translate(0 0)"><path d="m  770,1285L770,1360 " style="fill: none; stroke-width: 2px; stroke: black; stroke-linejoin: round; marker-end: url(&quot;#sequenceflow-end-white-black-dibz21qh3tx6gxq6wfhstqzfi&quot;);"></path></g><g class="djs-visual" id="Flow_18fvaej" transform="translate(0 0)"><path d="m  770,1190L770,1235 " style="fill: none; stroke-width: 2px; stroke: black; stroke-linejoin: round; marker-end: url(&quot;#sequenceflow-end-white-black-dibz21qh3tx6gxq6wfhstqzfi&quot;);"></path></g><g class="djs-visual" id="Flow_01mbvpd" transform="translate(0 0)"><path d="m  770,1030L770,1090 " style="fill: none; stroke-width: 2px; stroke: black; stroke-linejoin: round; marker-end: url(&quot;#sequenceflow-end-white-black-dibz21qh3tx6gxq6wfhstqzfi&quot;);"></path></g><g class="djs-visual" id="Flow_1jchwlc" transform="translate(0 0)"><path d="m  770,865L770,930 " style="fill: none; stroke-width: 2px; stroke: black; stroke-linejoin: round; marker-end: url(&quot;#sequenceflow-end-white-black-dibz21qh3tx6gxq6wfhstqzfi&quot;);"></path></g><g class="djs-visual" id="Flow_0424o4m" transform="translate(0 0)"><path d="m  245,710L770,710 L770,815 " style="fill: none; stroke-width: 2px; stroke: black; stroke-linejoin: round; marker-end: url(&quot;#sequenceflow-end-white-black-dibz21qh3tx6gxq6wfhstqzfi&quot;);"></path></g><g class="djs-visual" id="Flow_19jmuxu" transform="translate(0 0)"><path d="m  220,1410L220,1480 " style="fill: none; stroke-width: 2px; stroke: black; stroke-linejoin: round; marker-end: url(&quot;#sequenceflow-end-white-black-dibz21qh3tx6gxq6wfhstqzfi&quot;);"></path></g><g class="djs-visual" id="Flow_08834qh" transform="translate(0 0)"><path d="m  220,1250L220,1310 " style="fill: none; stroke-width: 2px; stroke: black; stroke-linejoin: round; marker-end: url(&quot;#sequenceflow-end-white-black-dibz21qh3tx6gxq6wfhstqzfi&quot;);"></path></g><g class="djs-visual" id="Flow_1ffqegz" transform="translate(0 0)"><path d="m  220,1580L220,1632 " style="fill: none; stroke-width: 2px; stroke: black; stroke-linejoin: round; marker-end: url(&quot;#sequenceflow-end-white-black-dibz21qh3tx6gxq6wfhstqzfi&quot;);"></path></g><g class="djs-visual" id="Flow_0u8kq3r" transform="translate(0 0)"><path d="m  220,1080L220,1150 " style="fill: none; stroke-width: 2px; stroke: black; stroke-linejoin: round; marker-end: url(&quot;#sequenceflow-end-white-black-dibz21qh3tx6gxq6wfhstqzfi&quot;);"></path></g><g class="djs-visual" id="Flow_0x6tn11" transform="translate(0 0)"><path d="m  220,910L220,980 " style="fill: none; stroke-width: 2px; stroke: black; stroke-linejoin: round; marker-end: url(&quot;#sequenceflow-end-white-black-dibz21qh3tx6gxq6wfhstqzfi&quot;);"></path></g><g class="djs-visual" id="Flow_0b4zzyg" transform="translate(0 0)"><path d="m  220,735L220,810 " style="fill: none; stroke-width: 2px; stroke: black; stroke-linejoin: round; marker-end: url(&quot;#sequenceflow-end-white-black-dibz21qh3tx6gxq6wfhstqzfi&quot;);"></path></g><g class="djs-visual" id="Flow_0iylrl1" transform="translate(0 0)"><path d="m  220,600L220,685 " style="fill: none; stroke-width: 2px; stroke: black; stroke-linejoin: round; marker-end: url(&quot;#sequenceflow-end-white-black-dibz21qh3tx6gxq6wfhstqzfi&quot;);"></path></g><g class="djs-visual" id="Flow_1b6dhyl" transform="translate(0 0)"><path d="m  220,415L220,500 " style="fill: none; stroke-width: 2px; stroke: black; stroke-linejoin: round; marker-end: url(&quot;#sequenceflow-end-white-black-dibz21qh3tx6gxq6wfhstqzfi&quot;);"></path></g><g class="djs-visual" id="Flow_0gnahya" transform="translate(0 0)"><path d="m  220,285L220,365 " style="fill: none; stroke-width: 2px; stroke: black; stroke-linejoin: round; marker-end: url(&quot;#sequenceflow-end-white-black-dibz21qh3tx6gxq6wfhstqzfi&quot;);"></path></g><g class="djs-visual" id="Flow_15g3eyh" transform="translate(0 0)"><path d="m  220,185L220,235 " style="fill: none; stroke-width: 2px; stroke: black; stroke-linejoin: round; marker-end: url(&quot;#sequenceflow-end-white-black-dibz21qh3tx6gxq6wfhstqzfi&quot;);"></path></g><g class="djs-visual" id="Flow_0wrwlhq" transform="translate(0 0)"><path d="m  220,-22L220,85 " style="fill: none; stroke-width: 2px; stroke: black; stroke-linejoin: round; marker-end: url(&quot;#sequenceflow-end-white-black-dibz21qh3tx6gxq6wfhstqzfi&quot;);"></path></g><g class="djs-visual" id="StartEvent_1bm324f" transform="translate(202 -58)"><circle cx="18" cy="18" r="18" style="stroke: black; stroke-width: 2px; fill: white; fill-opacity: 0.95;"></circle></g><g class="djs-visual" id="StartEvent_1bm324f_label" transform="translate(176 -140)"><text lineHeight="1.2" class="djs-label" style="font-family: Arial, sans-serif; font-size: 11px; font-weight: normal; fill: black;"><tspan x="0" y="9.899999999999999">Return of outward </tspan><tspan x="4.28125" y="23.099999999999998">remittance to be </tspan><tspan x="18.3359375" y="36.3">processed</tspan></text></g><g class="djs-visual" id="Activity_1b14gd5" transform="translate(155 85)"><rect x="0" y="0" width="130" height="100" rx="10" ry="10" style="stroke: black; stroke-width: 2px; fill: white; fill-opacity: 0.95;"></rect><text lineHeight="1.2" class="djs-label" style="font-family: Arial, sans-serif; font-size: 12px; font-weight: normal; fill: black;"><tspan x="24.4765625" y="46.4">Identify original </tspan><tspan x="35.9873046875" y="60.8">transaction</tspan></text></g><g class="djs-visual" id="Gateway_0fyrrm7" transform="translate(195 235)"><polygon points="25,0 50,25 25,50 0,25" style="stroke: black; stroke-width: 2px; fill: white; fill-opacity: 0.95;"></polygon><path d="m 16,15 7.42857142857143,9.714285714285715 -7.42857142857143,9.714285714285715 3.428571428571429,0 5.714285714285715,-7.464228571428572 5.714285714285715,7.464228571428572 3.428571428571429,0 -7.42857142857143,-9.714285714285715 7.42857142857143,-9.714285714285715 -3.428571428571429,0 -5.714285714285715,7.464228571428572 -5.714285714285715,-7.464228571428572 -3.428571428571429,0 z" style="fill: black; stroke-width: 1px; stroke: black;"></path></g><g class="djs-visual" id="Gateway_17dbpra" transform="translate(195 365)"><polygon points="25,0 50,25 25,50 0,25" style="stroke: black; stroke-width: 2px; fill: white; fill-opacity: 0.95;"></polygon><path d="m 16,15 7.42857142857143,9.714285714285715 -7.42857142857143,9.714285714285715 3.428571428571429,0 5.714285714285715,-7.464228571428572 5.714285714285715,7.464228571428572 3.428571428571429,0 -7.42857142857143,-9.714285714285715 7.42857142857143,-9.714285714285715 -3.428571428571429,0 -5.714285714285715,7.464228571428572 -5.714285714285715,-7.464228571428572 -3.428571428571429,0 z" style="fill: black; stroke-width: 1px; stroke: black;"></path></g><g class="djs-visual" id="Activity_1ayniac" transform="translate(155 500)"><rect x="0" y="0" width="130" height="100" rx="10" ry="10" style="stroke: black; stroke-width: 2px; fill: white; fill-opacity: 0.95;"></rect><text lineHeight="1.2" class="djs-label" style="font-family: Arial, sans-serif; font-size: 12px; font-weight: normal; fill: black;"><tspan x="13.640625" y="53.599999999999994">Perform validations</tspan></text></g><g class="djs-visual" id="Gateway_1cu8fxe" transform="translate(195 685)"><polygon points="25,0 50,25 25,50 0,25" style="stroke: black; stroke-width: 2px; fill: white; fill-opacity: 0.95;"></polygon><path d="m 16,15 7.42857142857143,9.714285714285715 -7.42857142857143,9.714285714285715 3.428571428571429,0 5.714285714285715,-7.464228571428572 5.714285714285715,7.464228571428572 3.428571428571429,0 -7.42857142857143,-9.714285714285715 7.42857142857143,-9.714285714285715 -3.428571428571429,0 -5.714285714285715,7.464228571428572 -5.714285714285715,-7.464228571428572 -3.428571428571429,0 z" style="fill: black; stroke-width: 1px; stroke: black;"></path></g><g class="djs-visual" id="Activity_1ij6v7h" transform="translate(155 810)"><rect x="0" y="0" width="130" height="100" rx="10" ry="10" style="stroke: black; stroke-width: 2px; fill: white; fill-opacity: 0.95;"></rect><text lineHeight="1.2" class="djs-label" style="font-family: Arial, sans-serif; font-size: 12px; font-weight: normal; fill: black;"><tspan x="24.4736328125" y="46.4">Update original </tspan><tspan x="35.9873046875" y="60.8">transaction</tspan></text></g><g class="djs-visual" id="Activity_1r0zonk" transform="translate(155 980)"><rect x="0" y="0" width="130" height="100" rx="10" ry="10" style="stroke: black; stroke-width: 2px; fill: white; fill-opacity: 0.95;"></rect><text lineHeight="1.2" class="djs-label" style="font-family: Arial, sans-serif; font-size: 12px; font-weight: normal; fill: black;"><tspan x="29.4873046875" y="46.4">Create return </tspan><tspan x="35.9873046875" y="60.8">transaction</tspan></text></g><g class="djs-visual" id="Activity_1dvxk2z" transform="translate(155 1150)"><rect x="0" y="0" width="130" height="100" rx="10" ry="10" style="stroke: black; stroke-width: 2px; fill: white; fill-opacity: 0.95;"></rect><text lineHeight="1.2" class="djs-label" style="font-family: Arial, sans-serif; font-size: 12px; font-weight: normal; fill: black;"><tspan x="9.1318359375" y="46.4">Generate accounting </tspan><tspan x="46.984375" y="60.8">entries</tspan></text></g><g class="djs-visual" id="Activity_0pmsh0s" transform="translate(155 1310)"><rect x="0" y="0" width="130" height="100" rx="10" ry="10" style="stroke: black; stroke-width: 2px; fill: white; fill-opacity: 0.95;"></rect><text lineHeight="1.2" class="djs-label" style="font-family: Arial, sans-serif; font-size: 12px; font-weight: normal; fill: black;"><tspan x="14.47265625" y="53.599999999999994">Update transaction</tspan></text></g><g class="djs-visual" id="Activity_1wzmlbp" transform="translate(155 1480)"><rect x="0" y="0" width="130" height="100" rx="10" ry="10" style="stroke: black; stroke-width: 2px; fill: white; fill-opacity: 0.95;"></rect><text lineHeight="1.2" class="djs-label" style="font-family: Arial, sans-serif; font-size: 12px; font-weight: normal; fill: black;"><tspan x="11.8037109375" y="46.4">Generate alerts and </tspan><tspan x="18.4755859375" y="60.8">send to customer</tspan></text></g><g class="djs-visual" id="Event_13i6zau" transform="translate(202 1632)"><circle cx="18" cy="18" r="18" style="stroke: black; stroke-width: 4px; fill: white; fill-opacity: 0.95;"></circle></g><g class="djs-visual" id="Event_13i6zau_label" transform="translate(176 1678)"><text lineHeight="1.2" class="djs-label" style="font-family: Arial, sans-serif; font-size: 11px; font-weight: normal; fill: black;"><tspan x="0" y="9.899999999999999">Return of outward </tspan><tspan x="18.0390625" y="23.099999999999998">remittance </tspan><tspan x="18.3359375" y="36.3">processed</tspan></text></g><g class="djs-visual" id="DataObjectReference_0pz75l3" transform="translate(362 1505)"><path d="m 0,0 28.23529411764706,0 7.058823529411765,8.196721311475411 0,40.98360655737705 -35.294117647058826,0 0,-49.18032786885246 28.23529411764706,0 0,8.196721311475411 7.058823529411765,0" style="fill: white; stroke-width: 2px; stroke: black; fill-opacity: 0.95;"></path></g><g class="djs-visual" id="DataObjectReference_0pz75l3_label" transform="translate(334 1562)"><text lineHeight="1.2" class="djs-label" style="font-family: Arial, sans-serif; font-size: 11px; font-weight: normal; fill: black;"><tspan x="0" y="9.899999999999999">E-mail alerts; SMS </tspan><tspan x="32.16845703125" y="23.099999999999998">alerts</tspan></text></g><g class="djs-visual" id="Gateway_0enhu7k" transform="translate(745 815)"><polygon points="25,0 50,25 25,50 0,25" style="stroke: black; stroke-width: 2px; fill: white; fill-opacity: 0.95;"></polygon><path d="m 16,15 7.42857142857143,9.714285714285715 -7.42857142857143,9.714285714285715 3.428571428571429,0 5.714285714285715,-7.464228571428572 5.714285714285715,7.464228571428572 3.428571428571429,0 -7.42857142857143,-9.714285714285715 7.42857142857143,-9.714285714285715 -3.428571428571429,0 -5.714285714285715,7.464228571428572 -5.714285714285715,-7.464228571428572 -3.428571428571429,0 z" style="fill: black; stroke-width: 1px; stroke: black;"></path></g><g class="djs-visual" id="Activity_1nw4mcm" transform="translate(705 930)"><rect x="0" y="0" width="130" height="100" rx="10" ry="10" style="stroke: black; stroke-width: 2px; fill: white; fill-opacity: 0.95;"></rect><text lineHeight="1.2" class="djs-label" style="font-family: Arial, sans-serif; font-size: 12px; font-weight: normal; fill: black;"><tspan x="12.474609375" y="46.4">Place transaction in </tspan><tspan x="31.1455078125" y="60.8">repair queue</tspan></text></g><g class="djs-visual" id="Activity_0kh843x" transform="translate(705 1090)"><rect x="0" y="0" width="130" height="100" rx="10" ry="10" style="stroke: black; stroke-width: 2px; fill: white; fill-opacity: 0.95;"></rect><text lineHeight="1.2" class="djs-label" style="font-family: Arial, sans-serif; font-size: 12px; font-weight: normal; fill: black;"><tspan x="15.1416015625" y="46.4">Decide to repair or </tspan><tspan x="47.4892578125" y="60.8">cancel</tspan></text></g><g class="djs-visual" id="Gateway_05m4fp6" transform="translate(745 1235)"><polygon points="25,0 50,25 25,50 0,25" style="stroke: black; stroke-width: 2px; fill: white; fill-opacity: 0.95;"></polygon><path d="m 16,15 7.42857142857143,9.714285714285715 -7.42857142857143,9.714285714285715 3.428571428571429,0 5.714285714285715,-7.464228571428572 5.714285714285715,7.464228571428572 3.428571428571429,0 -7.42857142857143,-9.714285714285715 7.42857142857143,-9.714285714285715 -3.428571428571429,0 -5.714285714285715,7.464228571428572 -5.714285714285715,-7.464228571428572 -3.428571428571429,0 z" style="fill: black; stroke-width: 1px; stroke: black;"></path></g><g class="djs-visual" id="Activity_0iwco1a" transform="translate(705 1360)"><rect x="0" y="0" width="130" height="100" rx="10" ry="10" style="stroke: black; stroke-width: 2px; fill: white; fill-opacity: 0.95;"></rect><text lineHeight="1.2" class="djs-label" style="font-family: Arial, sans-serif; font-size: 12px; font-weight: normal; fill: black;"><tspan x="15.3095703125" y="53.599999999999994">Amend transaction</tspan></text></g><g class="djs-visual" id="Activity_1utu5eb" transform="translate(705 1530)"><rect x="0" y="0" width="130" height="100" rx="10" ry="10" style="stroke: black; stroke-width: 2px; fill: white; fill-opacity: 0.95;"></rect><text lineHeight="1.2" class="djs-label" style="font-family: Arial, sans-serif; font-size: 12px; font-weight: normal; fill: black;"><tspan x="6.4677734375" y="53.599999999999994">Authorise amendment</tspan></text></g><g class="djs-visual" id="Activity_17vpl80" transform="translate(705 1700)"><rect x="0" y="0" width="130" height="100" rx="10" ry="10" style="stroke: black; stroke-width: 2px; fill: white; fill-opacity: 0.95;"></rect><text lineHeight="1.2" class="djs-label" style="font-family: Arial, sans-serif; font-size: 12px; font-weight: normal; fill: black;"><tspan x="14.47265625" y="53.599999999999994">Update transaction</tspan></text></g><g class="djs-visual" id="Activity_0mrzu6z" transform="translate(1095 1360)"><rect x="0" y="0" width="130" height="100" rx="10" ry="10" style="stroke: black; stroke-width: 2px; fill: white; fill-opacity: 0.95;"></rect><text lineHeight="1.2" class="djs-label" style="font-family: Arial, sans-serif; font-size: 12px; font-weight: normal; fill: black;"><tspan x="15.1435546875" y="53.599999999999994">Cancel transaction</tspan></text></g><g class="djs-visual" id="Activity_1eyypvm" transform="translate(1095 1530)"><rect x="0" y="0" width="130" height="100" rx="10" ry="10" style="stroke: black; stroke-width: 2px; fill: white; fill-opacity: 0.95;"></rect><text lineHeight="1.2" class="djs-label" style="font-family: Arial, sans-serif; font-size: 12px; font-weight: normal; fill: black;"><tspan x="6.634765625" y="53.599999999999994">Authorise cancellation</tspan></text></g><g class="djs-visual" id="Activity_1grco8a" transform="translate(1095 1700)"><rect x="0" y="0" width="130" height="100" rx="10" ry="10" style="stroke: black; stroke-width: 2px; fill: white; fill-opacity: 0.95;"></rect><text lineHeight="1.2" class="djs-label" style="font-family: Arial, sans-serif; font-size: 12px; font-weight: normal; fill: black;"><tspan x="15.1435546875" y="53.599999999999994">Cancel transaction</tspan></text></g><g class="djs-visual" id="Event_1x4vt97" transform="translate(1142 1872)"><circle cx="18" cy="18" r="18" style="stroke: black; stroke-width: 4px; fill: white; fill-opacity: 0.95;"></circle></g><g class="djs-visual" id="Event_1x4vt97_label" transform="translate(1130 1918)"><text lineHeight="1.2" class="djs-label" style="font-family: Arial, sans-serif; font-size: 11px; font-weight: normal; fill: black;"><tspan x="1.8671875" y="9.899999999999999">Transaction </tspan><tspan x="6.65625" y="23.099999999999998">cancelled </tspan><tspan x="0" y="36.3">successfully</tspan></text></g><g class="djs-visual" id="TextAnnotation_1unz9le" transform="translate(330 410)"><rect x="0" y="0" width="200" height="90" rx="0" ry="0" style="stroke: none; stroke-width: 2px; fill: none;"></rect><path d="m 0, 0 m 10,0 l -10,0 l 0,90 l 10,0" style="fill: none; stroke-width: 2px; stroke: black;"></path><text lineHeight="1.2" class="djs-label" style="font-family: Arial, sans-serif; font-size: 12px; font-weight: normal; fill: black;"><tspan x="5" y="15.799999999999999">- Product determination</tspan><tspan x="5" y="30.199999999999996">- Bank Conditions (e.g. value date)</tspan><tspan x="5" y="44.599999999999994">- Direction</tspan><tspan x="5" y="58.99999999999999">- Routing and Settlement</tspan><tspan x="5" y="73.39999999999999">- Dates calculation</tspan><tspan x="5" y="87.79999999999998">- Duplicate Check</tspan></text></g><g class="djs-visual" id="TextAnnotation_0qfslkb" transform="translate(330 750)"><rect x="0" y="0" width="145" height="50" rx="0" ry="0" style="stroke: none; stroke-width: 2px; fill: none;"></rect><path d="m 0, 0 m 10,0 l -10,0 l 0,50 l 10,0" style="fill: none; stroke-width: 2px; stroke: black;"></path><text lineHeight="1.2" class="djs-label" style="font-family: Arial, sans-serif; font-size: 12px; font-weight: normal; fill: black;"><tspan x="5" y="15.799999999999999">Status updated as</tspan><tspan x="5" y="30.199999999999996">"Payment completed</tspan><tspan x="5" y="44.599999999999994">&nbsp;with return"</tspan></text></g><g class="djs-visual" id="TextAnnotation_082j75d" transform="translate(330 920)"><rect x="0" y="0" width="140" height="40" rx="0" ry="0" style="stroke: none; stroke-width: 2px; fill: none;"></rect><path d="m 0, 0 m 10,0 l -10,0 l 0,40 l 10,0" style="fill: none; stroke-width: 2px; stroke: black;"></path><text lineHeight="1.2" class="djs-label" style="font-family: Arial, sans-serif; font-size: 12px; font-weight: normal; fill: black;"><tspan x="5" y="15.799999999999999">Using details from</tspan><tspan x="5" y="30.199999999999996">original transaction</tspan></text></g><g class="djs-visual" id="TextAnnotation_0g28nro" transform="translate(330 1100)"><rect x="0" y="0" width="140" height="40" rx="0" ry="0" style="stroke: none; stroke-width: 2px; fill: none;"></rect><path d="m 0, 0 m 10,0 l -10,0 l 0,40 l 10,0" style="fill: none; stroke-width: 2px; stroke: black;"></path><text lineHeight="1.2" class="djs-label" style="font-family: Arial, sans-serif; font-size: 12px; font-weight: normal; fill: black;"><tspan x="5" y="15.799999999999999">Dr Nostro account</tspan><tspan x="5" y="30.199999999999996">Cr Customer account</tspan></text></g><g class="djs-visual" id="TextAnnotation_1pctww4" transform="translate(330 1260)"><rect x="0" y="0" width="137" height="40" rx="0" ry="0" style="stroke: none; stroke-width: 2px; fill: none;"></rect><path d="m 0, 0 m 10,0 l -10,0 l 0,40 l 10,0" style="fill: none; stroke-width: 2px; stroke: black;"></path><text lineHeight="1.2" class="djs-label" style="font-family: Arial, sans-serif; font-size: 12px; font-weight: normal; fill: black;"><tspan x="5" y="15.799999999999999">Status updated as</tspan><tspan x="5" y="30.199999999999996">"Completed"</tspan></text></g><g class="djs-visual" id="TextAnnotation_10cm94i" transform="translate(330 -110)"><rect x="0" y="0" width="100" height="40" rx="0" ry="0" style="stroke: none; stroke-width: 2px; fill: none;"></rect><path d="m 0, 0 m 10,0 l -10,0 l 0,40 l 10,0" style="fill: none; stroke-width: 2px; stroke: black;"></path><text lineHeight="1.2" class="djs-label" style="font-family: Arial, sans-serif; font-size: 12px; font-weight: normal; fill: black;"><tspan x="5" y="15.799999999999999">Receipt of </tspan><tspan x="5" y="30.199999999999996">pacs.004</tspan></text></g><g class="djs-visual" id="Flow_0gnahya_label" transform="translate(209 298)"><text lineHeight="1.2" class="djs-label" style="font-family: Arial, sans-serif; font-size: 11px; font-weight: normal; fill: black;"><tspan x="0" y="9.899999999999999">Original transaction </tspan><tspan x="25.3671875" y="23.099999999999998">identified</tspan></text></g><g class="djs-visual" id="Flow_0b4zzyg_label" transform="translate(213 747)"><text lineHeight="1.2" class="djs-label" style="font-family: Arial, sans-serif; font-size: 11px; font-weight: normal; fill: black;"><tspan x="0" y="9.899999999999999">Transaction correct</tspan></text></g><g class="djs-visual" id="DataOutputAssociation_1allk7e" transform="translate(0 0)"><polyline points="285,1530 362,1530 " style="fill: none; stroke: black; stroke-width: 2px; stroke-dasharray: 0.5, 5; stroke-linecap: round; stroke-linejoin: round; marker-end: url(&quot;#association-end-white-black-dibz21qh3tx6gxq6wfhstqzfi&quot;);"></polyline></g><g class="djs-visual" id="Flow_0424o4m_label" transform="translate(781 747)"><text lineHeight="1.2" class="djs-label" style="font-family: Arial, sans-serif; font-size: 11px; font-weight: normal; fill: black;"><tspan x="0" y="9.899999999999999">Transaction </tspan><tspan x="6.4697265625" y="23.099999999999998">incorrect</tspan></text></g><g class="djs-visual" id="Flow_13cc412_label" transform="translate(782 1301)"><text lineHeight="1.2" class="djs-label" style="font-family: Arial, sans-serif; font-size: 11px; font-weight: normal; fill: black;"><tspan x="0" y="9.899999999999999">Transaction to be </tspan><tspan x="21.6171875" y="23.099999999999998">repaired</tspan></text></g><g class="djs-visual" id="Flow_1ww9sjv_label" transform="translate(1172 1301)"><text lineHeight="1.2" class="djs-label" style="font-family: Arial, sans-serif; font-size: 11px; font-weight: normal; fill: black;"><tspan x="0" y="9.899999999999999">Transaction to be </tspan><tspan x="18.5546875" y="23.099999999999998">cancelled</tspan></text></g><g class="djs-visual" id="Flow_1cp2x6h_label" transform="translate(338 210)"><text lineHeight="1.2" class="djs-label" style="font-family: Arial, sans-serif; font-size: 11px; font-weight: normal; fill: black;"><tspan x="0" y="9.899999999999999">Original transaction </tspan><tspan x="16.1953125" y="23.099999999999998">not identified</tspan></text></g><g class="djs-visual" id="Association_1parmkx" transform="translate(0 0)"><polyline points="277,501 330,455 " style="fill: none; stroke: black; stroke-width: 2px; stroke-dasharray: 0.5, 5; stroke-linecap: round; stroke-linejoin: round;"></polyline></g><g class="djs-visual" id="Association_0gi11n5" transform="translate(0 0)"><polyline points="282,813 330,778 " style="fill: none; stroke: black; stroke-width: 2px; stroke-dasharray: 0.5, 5; stroke-linecap: round; stroke-linejoin: round;"></polyline></g><g class="djs-visual" id="Association_092q5pr" transform="translate(0 0)"><polyline points="281,982 330,945 " style="fill: none; stroke: black; stroke-width: 2px; stroke-dasharray: 0.5, 5; stroke-linecap: round; stroke-linejoin: round;"></polyline></g><g class="djs-visual" id="Association_10sagio" transform="translate(0 0)"><polyline points="284,1156 330,1124 " style="fill: none; stroke: black; stroke-width: 2px; stroke-dasharray: 0.5, 5; stroke-linecap: round; stroke-linejoin: round;"></polyline></g><g class="djs-visual" id="Association_1jh4au6" transform="translate(0 0)"><polyline points="284,1316 330,1284 " style="fill: none; stroke: black; stroke-width: 2px; stroke-dasharray: 0.5, 5; stroke-linecap: round; stroke-linejoin: round;"></polyline></g><g class="djs-visual" id="Association_12k7s38" transform="translate(0 0)"><polyline points="236,-47 330,-90 " style="fill: none; stroke: black; stroke-width: 2px; stroke-dasharray: 0.5, 5; stroke-linecap: round; stroke-linejoin: round;"></polyline></g></g><g><rect class="viewport" x="-2128.9840255591052" y="-145.9041533546326" width="5543.130990415336" height="2108.6261980830673"></rect></g></svg>