<svg width="100%" height="100%" viewBox="-131, -520, 2200, 2618"><g><g class="djs-visual" id="Flow_0u2hlvp" transform="translate(0 0)"><path d="m  1110,1710L1110,1762 " style="fill: none; stroke-width: 2px; stroke: black; stroke-linejoin: round; marker-end: url(&quot;#sequenceflow-end-white-black-304olf8sqtbd9m8w8sh9uzuee&quot;);"></path></g><g class="djs-visual" id="Flow_0l1f9ur" transform="translate(0 0)"><path d="m  1110,1552L1110,1610 " style="fill: none; stroke-width: 2px; stroke: black; stroke-linejoin: round; marker-end: url(&quot;#sequenceflow-end-white-black-304olf8sqtbd9m8w8sh9uzuee&quot;);"></path></g><g class="djs-visual" id="Flow_1566weu" transform="translate(0 0)"><path d="m  975,1370L1110,1370 L1110,1452 " style="fill: none; stroke-width: 2px; stroke: black; stroke-linejoin: round; marker-end: url(&quot;#sequenceflow-end-white-black-304olf8sqtbd9m8w8sh9uzuee&quot;);"></path></g><g class="djs-visual" id="Flow_0kseexy" transform="translate(0 0)"><path d="m  950,1395L950,1450 L810,1450 L810,1260 L595,1260 " style="fill: none; stroke-width: 2px; stroke: black; stroke-linejoin: round; marker-end: url(&quot;#sequenceflow-end-white-black-304olf8sqtbd9m8w8sh9uzuee&quot;);"></path></g><g class="djs-visual" id="Flow_15s7dcg" transform="translate(0 0)"><path d="m  950,1310L950,1345 " style="fill: none; stroke-width: 2px; stroke: black; stroke-linejoin: round; marker-end: url(&quot;#sequenceflow-end-white-black-304olf8sqtbd9m8w8sh9uzuee&quot;);"></path></g><g class="djs-visual" id="Flow_0ddvsqe" transform="translate(0 0)"><path d="m  595,1130L950,1130 L950,1210 " style="fill: none; stroke-width: 2px; stroke: black; stroke-linejoin: round; marker-end: url(&quot;#sequenceflow-end-white-black-304olf8sqtbd9m8w8sh9uzuee&quot;);"></path></g><g class="djs-visual" id="Flow_1aztiae" transform="translate(0 0)"><path d="m  570,1155L570,1235 " style="fill: none; stroke-width: 2px; stroke: black; stroke-linejoin: round; marker-end: url(&quot;#sequenceflow-end-white-black-304olf8sqtbd9m8w8sh9uzuee&quot;);"></path></g><g class="djs-visual" id="Flow_1tss3ao" transform="translate(0 0)"><path d="m  570,1285L570,1400 " style="fill: none; stroke-width: 2px; stroke: black; stroke-linejoin: round; marker-end: url(&quot;#sequenceflow-end-white-black-304olf8sqtbd9m8w8sh9uzuee&quot;);"></path></g><g class="djs-visual" id="Flow_1u6ogr6" transform="translate(0 0)"><path d="m  570,1080L570,1105 " style="fill: none; stroke-width: 2px; stroke: black; stroke-linejoin: round; marker-end: url(&quot;#sequenceflow-end-white-black-304olf8sqtbd9m8w8sh9uzuee&quot;);"></path></g><g class="djs-visual" id="Flow_0h3km9v" transform="translate(0 0)"><path d="m  1733,1552L1733,1910 L135,1910 " style="fill: none; stroke-width: 2px; stroke: black; stroke-linejoin: round; marker-end: url(&quot;#sequenceflow-end-white-black-304olf8sqtbd9m8w8sh9uzuee&quot;);"></path></g><g class="djs-visual" id="Flow_1nh5x74" transform="translate(0 0)"><path d="m  1410,1552L1410,1910 L135,1910 " style="fill: none; stroke-width: 2px; stroke: black; stroke-linejoin: round; marker-end: url(&quot;#sequenceflow-end-white-black-304olf8sqtbd9m8w8sh9uzuee&quot;);"></path></g><g class="djs-visual" id="Flow_16nyry7" transform="translate(0 0)"><path d="m  1733,1372L1733,1452 " style="fill: none; stroke-width: 2px; stroke: black; stroke-linejoin: round; marker-end: url(&quot;#sequenceflow-end-white-black-304olf8sqtbd9m8w8sh9uzuee&quot;);"></path></g><g class="djs-visual" id="Flow_1d2uu6p" transform="translate(0 0)"><path d="m  1733,1190L1733,1272 " style="fill: none; stroke-width: 2px; stroke: black; stroke-linejoin: round; marker-end: url(&quot;#sequenceflow-end-white-black-304olf8sqtbd9m8w8sh9uzuee&quot;);"></path></g><g class="djs-visual" id="Flow_1pspapj" transform="translate(0 0)"><path d="m  1435,1000L1733,1000 L1733,1090 " style="fill: none; stroke-width: 2px; stroke: black; stroke-linejoin: round; marker-end: url(&quot;#sequenceflow-end-white-black-304olf8sqtbd9m8w8sh9uzuee&quot;);"></path></g><g class="djs-visual" id="Flow_1007qyk" transform="translate(0 0)"><path d="m  1410,1372L1410,1452 " style="fill: none; stroke-width: 2px; stroke: black; stroke-linejoin: round; marker-end: url(&quot;#sequenceflow-end-white-black-304olf8sqtbd9m8w8sh9uzuee&quot;);"></path></g><g class="djs-visual" id="Flow_09f0sd7" transform="translate(0 0)"><path d="m  1410,1190L1410,1272 " style="fill: none; stroke-width: 2px; stroke: black; stroke-linejoin: round; marker-end: url(&quot;#sequenceflow-end-white-black-304olf8sqtbd9m8w8sh9uzuee&quot;);"></path></g><g class="djs-visual" id="Flow_11lxruj" transform="translate(0 0)"><path d="m  1410,1025L1410,1090 " style="fill: none; stroke-width: 2px; stroke: black; stroke-linejoin: round; marker-end: url(&quot;#sequenceflow-end-white-black-304olf8sqtbd9m8w8sh9uzuee&quot;);"></path></g><g class="djs-visual" id="Flow_1cw5yul" transform="translate(0 0)"><path d="m  1410,937L1410,975 " style="fill: none; stroke-width: 2px; stroke: black; stroke-linejoin: round; marker-end: url(&quot;#sequenceflow-end-white-black-304olf8sqtbd9m8w8sh9uzuee&quot;);"></path></g><g class="djs-visual" id="Flow_1bmw7ca" transform="translate(0 0)"><path d="m  135,759L1410,759 L1410,837 " style="fill: none; stroke-width: 2px; stroke: black; stroke-linejoin: round; marker-end: url(&quot;#sequenceflow-end-white-black-304olf8sqtbd9m8w8sh9uzuee&quot;);"></path></g><g class="djs-visual" id="Flow_1ndnkoi" transform="translate(0 0)"><path d="m  570,1680L570,1910 L135,1910 " style="fill: none; stroke-width: 2px; stroke: black; stroke-linejoin: round; marker-end: url(&quot;#sequenceflow-end-white-black-304olf8sqtbd9m8w8sh9uzuee&quot;);"></path></g><g class="djs-visual" id="Flow_1ructo8" transform="translate(0 0)"><path d="m  570,1500L570,1580 " style="fill: none; stroke-width: 2px; stroke: black; stroke-linejoin: round; marker-end: url(&quot;#sequenceflow-end-white-black-304olf8sqtbd9m8w8sh9uzuee&quot;);"></path></g><g class="djs-visual" id="Flow_136yx40" transform="translate(0 0)"><path d="m  570,937L570,980 " style="fill: none; stroke-width: 2px; stroke: black; stroke-linejoin: round; marker-end: url(&quot;#sequenceflow-end-white-black-304olf8sqtbd9m8w8sh9uzuee&quot;);"></path></g><g class="djs-visual" id="Flow_1eacuoh" transform="translate(0 0)"><path d="m  135,759L570,759 L570,837 " style="fill: none; stroke-width: 2px; stroke: black; stroke-linejoin: round; marker-end: url(&quot;#sequenceflow-end-white-black-304olf8sqtbd9m8w8sh9uzuee&quot;);"></path></g><g class="djs-visual" id="Flow_0292vfx" transform="translate(0 0)"><path d="m  110,1935L110,1972 " style="fill: none; stroke-width: 2px; stroke: black; stroke-linejoin: round; marker-end: url(&quot;#sequenceflow-end-white-black-304olf8sqtbd9m8w8sh9uzuee&quot;);"></path></g><g class="djs-visual" id="Flow_17x9rpb" transform="translate(0 0)"><path d="m  110,1127L110,1885 " style="fill: none; stroke-width: 2px; stroke: black; stroke-linejoin: round; marker-end: url(&quot;#sequenceflow-end-white-black-304olf8sqtbd9m8w8sh9uzuee&quot;);"></path></g><g class="djs-visual" id="Flow_0jz3qo9" transform="translate(0 0)"><path d="m  110,937L110,1027 " style="fill: none; stroke-width: 2px; stroke: black; stroke-linejoin: round; marker-end: url(&quot;#sequenceflow-end-white-black-304olf8sqtbd9m8w8sh9uzuee&quot;);"></path></g><g class="djs-visual" id="Flow_1owojkp" transform="translate(0 0)"><path d="m  110,784L110,837 " style="fill: none; stroke-width: 2px; stroke: black; stroke-linejoin: round; marker-end: url(&quot;#sequenceflow-end-white-black-304olf8sqtbd9m8w8sh9uzuee&quot;);"></path></g><g class="djs-visual" id="Flow_1qg39zt" transform="translate(0 0)"><path d="m  110,685L110,734 " style="fill: none; stroke-width: 2px; stroke: black; stroke-linejoin: round; marker-end: url(&quot;#sequenceflow-end-white-black-304olf8sqtbd9m8w8sh9uzuee&quot;);"></path></g><g class="djs-visual" id="Flow_1flgewq" transform="translate(0 0)"><path d="m  110,521L110,585 " style="fill: none; stroke-width: 2px; stroke: black; stroke-linejoin: round; marker-end: url(&quot;#sequenceflow-end-white-black-304olf8sqtbd9m8w8sh9uzuee&quot;);"></path></g><g class="djs-visual" id="Flow_0tykgyj" transform="translate(0 0)"><path d="m  110,360L110,421 " style="fill: none; stroke-width: 2px; stroke: black; stroke-linejoin: round; marker-end: url(&quot;#sequenceflow-end-white-black-304olf8sqtbd9m8w8sh9uzuee&quot;);"></path></g><g class="djs-visual" id="Flow_15cq58d" transform="translate(0 0)"><path d="m  110,178L110,260 " style="fill: none; stroke-width: 2px; stroke: black; stroke-linejoin: round; marker-end: url(&quot;#sequenceflow-end-white-black-304olf8sqtbd9m8w8sh9uzuee&quot;);"></path></g><g class="djs-visual" id="Flow_0qsveh7" transform="translate(0 0)"><path d="m  507,178L507,212 " style="fill: none; stroke-width: 2px; stroke: black; stroke-linejoin: round; marker-end: url(&quot;#sequenceflow-end-white-black-304olf8sqtbd9m8w8sh9uzuee&quot;);"></path></g><g class="djs-visual" id="Flow_06fsp16" transform="translate(0 0)"><path d="m  135,0L507,0 L507,78 " style="fill: none; stroke-width: 2px; stroke: black; stroke-linejoin: round; marker-end: url(&quot;#sequenceflow-end-white-black-304olf8sqtbd9m8w8sh9uzuee&quot;);"></path></g><g class="djs-visual" id="Flow_1usjzuw" transform="translate(0 0)"><path d="m  110,25L110,78 " style="fill: none; stroke-width: 2px; stroke: black; stroke-linejoin: round; marker-end: url(&quot;#sequenceflow-end-white-black-304olf8sqtbd9m8w8sh9uzuee&quot;);"></path></g><g class="djs-visual" id="Flow_10ajiik" transform="translate(0 0)"><path d="m  110,-76L110,-25 " style="fill: none; stroke-width: 2px; stroke: black; stroke-linejoin: round; marker-end: url(&quot;#sequenceflow-end-white-black-304olf8sqtbd9m8w8sh9uzuee&quot;);"></path></g><g class="djs-visual" id="Flow_166twpk" transform="translate(0 0)"><path d="m  110,-230L110,-176 " style="fill: none; stroke-width: 2px; stroke: black; stroke-linejoin: round; marker-end: url(&quot;#sequenceflow-end-white-black-304olf8sqtbd9m8w8sh9uzuee&quot;);"></path></g><g class="djs-visual" id="Flow_1g3mols" transform="translate(0 0)"><path d="m  110,-382L110,-330 " style="fill: none; stroke-width: 2px; stroke: black; stroke-linejoin: round; marker-end: url(&quot;#sequenceflow-end-white-black-304olf8sqtbd9m8w8sh9uzuee&quot;);"></path></g><g class="djs-visual" id="StartEvent_1bm324f" transform="translate(92 -418)"><circle cx="18" cy="18" r="18" style="stroke: black; stroke-width: 2px; fill: white; fill-opacity: 0.95;"></circle></g><g class="djs-visual" id="StartEvent_1bm324f_label" transform="translate(74 -464)"><text lineHeight="1.2" class="djs-label" style="font-family: Arial, sans-serif; font-size: 11px; font-weight: normal; fill: black;"><tspan x="3.293212890625" y="9.899999999999999">Deposit to be </tspan><tspan x="0" y="23.099999999999998">matured (early </tspan><tspan x="14.1484375" y="36.3">maturity)</tspan></text></g><g class="djs-visual" id="Activity_1cez5w5" transform="translate(45 -330)"><rect x="0" y="0" width="130" height="100" rx="10" ry="10" style="stroke: black; stroke-width: 2px; fill: white; fill-opacity: 0.95;"></rect><text lineHeight="1.2" class="djs-label" style="font-family: Arial, sans-serif; font-size: 12px; font-weight: normal; fill: black;"><tspan x="12.4736328125" y="32">Receive and review </tspan><tspan x="31.318359375" y="46.4">request from </tspan><tspan x="15.6484375" y="60.8">Customer for early </tspan><tspan x="45.4951171875" y="75.19999999999999">closure</tspan></text></g><g class="djs-visual" id="DataObjectReference_1w4suj3" transform="translate(-48 -305)"><path d="m 0,0 28.23529411764706,0 7.058823529411765,8.196721311475411 0,40.98360655737705 -35.294117647058826,0 0,-49.18032786885246 28.23529411764706,0 0,8.196721311475411 7.058823529411765,0" style="fill: white; stroke-width: 2px; stroke: black; fill-opacity: 0.95;"></path></g><g class="djs-visual" id="DataObjectReference_1w4suj3_label" transform="translate(-75 -248)"><text lineHeight="1.2" class="djs-label" style="font-family: Arial, sans-serif; font-size: 11px; font-weight: normal; fill: black;"><tspan x="0" y="9.899999999999999">Request Letter for </tspan><tspan x="11.677001953125" y="23.099999999999998">Early Closure</tspan></text></g><g class="djs-visual" id="Activity_0yokz4t" transform="translate(45 -176)"><rect x="0" y="0" width="130" height="100" rx="10" ry="10" style="stroke: black; stroke-width: 2px; fill: white; fill-opacity: 0.95;"></rect><text lineHeight="1.2" class="djs-label" style="font-family: Arial, sans-serif; font-size: 12px; font-weight: normal; fill: black;"><tspan x="31.9794921875" y="46.4">Authenticate </tspan><tspan x="38.4912109375" y="60.8">Customer</tspan></text></g><g class="djs-visual" id="Gateway_1aivcyf" transform="translate(85 -25)"><polygon points="25,0 50,25 25,50 0,25" style="stroke: black; stroke-width: 2px; fill: white; fill-opacity: 0.95;"></polygon><path d="m 16,15 7.42857142857143,9.714285714285715 -7.42857142857143,9.714285714285715 3.428571428571429,0 5.714285714285715,-7.464228571428572 5.714285714285715,7.464228571428572 3.428571428571429,0 -7.42857142857143,-9.714285714285715 7.42857142857143,-9.714285714285715 -3.428571428571429,0 -5.714285714285715,7.464228571428572 -5.714285714285715,-7.464228571428572 -3.428571428571429,0 z" style="fill: black; stroke-width: 1px; stroke: black;"></path></g><g class="djs-visual" id="Activity_04f7j1t" transform="translate(45 78)"><rect x="0" y="0" width="130" height="100" rx="10" ry="10" style="stroke: black; stroke-width: 2px; fill: white; fill-opacity: 0.95;"></rect><text lineHeight="1.2" class="djs-label" style="font-family: Arial, sans-serif; font-size: 12px; font-weight: normal; fill: black;"><tspan x="12.134765625" y="46.4">Select deposit to be </tspan><tspan x="42.826171875" y="60.8">matured</tspan></text></g><g class="djs-visual" id="Activity_03x7jnk" transform="translate(445 78)"><rect x="0" y="0" width="130" height="100" rx="10" ry="10" style="stroke: black; stroke-width: 2px; fill: white; fill-opacity: 0.95;"></rect><text lineHeight="1.2" class="djs-label" style="font-family: Arial, sans-serif; font-size: 12px; font-weight: normal; fill: black;"><tspan x="19.8203125" y="39.2">Inform Customer </tspan><tspan x="13.466796875" y="53.6">about unsuccessful </tspan><tspan x="27.474609375" y="68">authentication</tspan></text></g><g class="djs-visual" id="Event_1kd2xbu" transform="translate(489 212)"><circle cx="18" cy="18" r="18" style="stroke: black; stroke-width: 4px; fill: white; fill-opacity: 0.95;"></circle></g><g class="djs-visual" id="Event_1kd2xbu_label" transform="translate(461 255)"><text lineHeight="1.2" class="djs-label" style="font-family: Arial, sans-serif; font-size: 11px; font-weight: normal; fill: black;"><tspan x="0" y="9.899999999999999">Customer informed </tspan><tspan x="18.328125" y="23.099999999999998">about failed </tspan><tspan x="12.5234375" y="36.3">authentication</tspan></text></g><g class="djs-visual" id="Activity_17h9v3g" transform="translate(45 260)"><rect x="0" y="0" width="130" height="100" rx="10" ry="10" style="stroke: black; stroke-width: 2px; fill: white; fill-opacity: 0.95;"></rect><text lineHeight="1.2" class="djs-label" style="font-family: Arial, sans-serif; font-size: 12px; font-weight: normal; fill: black;"><tspan x="15.47265625" y="46.4">Capture details for </tspan><tspan x="37.8251953125" y="60.8">simulation</tspan></text></g><g class="djs-visual" id="Activity_02og7gc" transform="translate(45 421)"><rect x="0" y="0" width="130" height="100" rx="10" ry="10" style="stroke: black; stroke-width: 2px; fill: white; fill-opacity: 0.95;"></rect><text lineHeight="1.2" class="djs-label" style="font-family: Arial, sans-serif; font-size: 12px; font-weight: normal; fill: black;"><tspan x="14.8212890625" y="53.599999999999994">Perform simulation</tspan></text></g><g class="djs-visual" id="Activity_0n6zw2s" transform="translate(45 585)"><rect x="0" y="0" width="130" height="100" rx="10" ry="10" style="stroke: black; stroke-width: 2px; fill: white; fill-opacity: 0.95;"></rect><text lineHeight="1.2" class="djs-label" style="font-family: Arial, sans-serif; font-size: 12px; font-weight: normal; fill: black;"><tspan x="17.9208984375" y="46.4">View Redemption </tspan><tspan x="37.318359375" y="60.8">Statement</tspan></text></g><g class="djs-visual" id="Gateway_05qkv3n" transform="translate(85 734)"><polygon points="25,0 50,25 25,50 0,25" style="stroke: black; stroke-width: 2px; fill: white; fill-opacity: 0.95;"></polygon><path d="m 16,15 7.42857142857143,9.714285714285715 -7.42857142857143,9.714285714285715 3.428571428571429,0 5.714285714285715,-7.464228571428572 5.714285714285715,7.464228571428572 3.428571428571429,0 -7.42857142857143,-9.714285714285715 7.42857142857143,-9.714285714285715 -3.428571428571429,0 -5.714285714285715,7.464228571428572 -5.714285714285715,-7.464228571428572 -3.428571428571429,0 z" style="fill: black; stroke-width: 1px; stroke: black;"></path></g><g class="djs-visual" id="Activity_1kzs32f" transform="translate(45 837)"><rect x="0" y="0" width="130" height="100" rx="10" ry="10" style="stroke: black; stroke-width: 2px; fill: white; fill-opacity: 0.95;"></rect><text lineHeight="1.2" class="djs-label" style="font-family: Arial, sans-serif; font-size: 12px; font-weight: normal; fill: black;"><tspan x="12.97265625" y="46.4">Capture Settlement </tspan><tspan x="43.4873046875" y="60.8">Account</tspan></text></g><g class="djs-visual" id="Activity_1guheb0" transform="translate(45 1027)"><rect x="0" y="0" width="130" height="100" rx="10" ry="10" style="stroke: black; stroke-width: 2px; fill: white; fill-opacity: 0.95;"></rect><text lineHeight="1.2" class="djs-label" style="font-family: Arial, sans-serif; font-size: 12px; font-weight: normal; fill: black;"><tspan x="9.1318359375" y="46.4">Generate accounting </tspan><tspan x="46.984375" y="60.8">entries</tspan></text></g><g class="djs-visual" id="Gateway_0a36hvo" transform="translate(85 1885)"><polygon points="25,0 50,25 25,50 0,25" style="stroke: black; stroke-width: 2px; fill: white; fill-opacity: 0.95;"></polygon><path d="m 16,15 7.42857142857143,9.714285714285715 -7.42857142857143,9.714285714285715 3.428571428571429,0 5.714285714285715,-7.464228571428572 5.714285714285715,7.464228571428572 3.428571428571429,0 -7.42857142857143,-9.714285714285715 7.42857142857143,-9.714285714285715 -3.428571428571429,0 -5.714285714285715,7.464228571428572 -5.714285714285715,-7.464228571428572 -3.428571428571429,0 z" style="fill: black; stroke-width: 1px; stroke: black;"></path></g><g class="djs-visual" id="Event_0ulsmt8" transform="translate(92 1972)"><circle cx="18" cy="18" r="18" style="stroke: black; stroke-width: 4px; fill: white; fill-opacity: 0.95;"></circle></g><g class="djs-visual" id="Event_0ulsmt8_label" transform="translate(62 2015)"><text lineHeight="1.2" class="djs-label" style="font-family: Arial, sans-serif; font-size: 11px; font-weight: normal; fill: black;"><tspan x="13.82763671875" y="9.899999999999999">Early maturity </tspan><tspan x="0" y="23.099999999999998">payment performed</tspan></text></g><g class="djs-visual" id="Activity_0ngqi64" transform="translate(505 837)"><rect x="0" y="0" width="130" height="100" rx="10" ry="10" style="stroke: black; stroke-width: 2px; fill: white; fill-opacity: 0.95;"></rect><text lineHeight="1.2" class="djs-label" style="font-family: Arial, sans-serif; font-size: 12px; font-weight: normal; fill: black;"><tspan x="12.3046875" y="46.4">Capture Beneficiary </tspan><tspan x="47.65625" y="60.8">details</tspan></text></g><g class="djs-visual" id="Activity_0r12dtf" transform="translate(505 1400)"><rect x="0" y="0" width="130" height="100" rx="10" ry="10" style="stroke: black; stroke-width: 2px; fill: white; fill-opacity: 0.95;"></rect><text lineHeight="1.2" class="djs-label" style="font-family: Arial, sans-serif; font-size: 12px; font-weight: normal; fill: black;"><tspan x="21.3134765625" y="46.4">Create Payment </tspan><tspan x="49.1611328125" y="60.8">Order</tspan></text></g><g class="djs-visual" id="Activity_17o23fg" transform="translate(505 1580)"><rect x="0" y="0" width="130" height="100" rx="10" ry="10" style="stroke: black; stroke-width: 2px; fill: white; fill-opacity: 0.95;"></rect><text lineHeight="1.2" class="djs-label" style="font-family: Arial, sans-serif; font-size: 12px; font-weight: normal; fill: black;"><tspan x="9.466796875" y="39.2">Send Payment order </tspan><tspan x="15.97265625" y="53.6">details to payment </tspan><tspan x="45.9921875" y="68">system</tspan></text></g><g class="djs-visual" id="Activity_15vomdi" transform="translate(1345 837)"><rect x="0" y="0" width="130" height="100" rx="10" ry="10" style="stroke: black; stroke-width: 2px; fill: white; fill-opacity: 0.95;"></rect><text lineHeight="1.2" class="djs-label" style="font-family: Arial, sans-serif; font-size: 12px; font-weight: normal; fill: black;"><tspan x="21.6416015625" y="46.4">Proceed without </tspan><tspan x="12.9697265625" y="60.8">Settlement Account</tspan></text></g><g class="djs-visual" id="Gateway_19xk3he" transform="translate(1385 975)"><polygon points="25,0 50,25 25,50 0,25" style="stroke: black; stroke-width: 2px; fill: white; fill-opacity: 0.95;"></polygon><path d="m 16,15 7.42857142857143,9.714285714285715 -7.42857142857143,9.714285714285715 3.428571428571429,0 5.714285714285715,-7.464228571428572 5.714285714285715,7.464228571428572 3.428571428571429,0 -7.42857142857143,-9.714285714285715 7.42857142857143,-9.714285714285715 -3.428571428571429,0 -5.714285714285715,7.464228571428572 -5.714285714285715,-7.464228571428572 -3.428571428571429,0 z" style="fill: black; stroke-width: 1px; stroke: black;"></path></g><g class="djs-visual" id="Activity_0omlqod" transform="translate(1345 1090)"><rect x="0" y="0" width="130" height="100" rx="10" ry="10" style="stroke: black; stroke-width: 2px; fill: white; fill-opacity: 0.95;"></rect><text lineHeight="1.2" class="djs-label" style="font-family: Arial, sans-serif; font-size: 12px; font-weight: normal; fill: black;"><tspan x="33.15234375" y="53.599999999999994">Repay cash</tspan></text></g><g class="djs-visual" id="Activity_0faul35" transform="translate(1345 1272)"><rect x="0" y="0" width="130" height="100" rx="10" ry="10" style="stroke: black; stroke-width: 2px; fill: white; fill-opacity: 0.95;"></rect><text lineHeight="1.2" class="djs-label" style="font-family: Arial, sans-serif; font-size: 12px; font-weight: normal; fill: black;"><tspan x="25.6484375" y="46.4">Authorise cash </tspan><tspan x="36.3193359375" y="60.8">repayment</tspan></text></g><g class="djs-visual" id="Activity_0ylipe3" transform="translate(1345 1452)"><rect x="0" y="0" width="130" height="100" rx="10" ry="10" style="stroke: black; stroke-width: 2px; fill: white; fill-opacity: 0.95;"></rect><text lineHeight="1.2" class="djs-label" style="font-family: Arial, sans-serif; font-size: 12px; font-weight: normal; fill: black;"><tspan x="9.1318359375" y="46.4">Generate accounting </tspan><tspan x="46.984375" y="60.8">entries</tspan></text></g><g class="djs-visual" id="Activity_1f10ae3" transform="translate(1668 1090)"><rect x="0" y="0" width="130" height="100" rx="10" ry="10" style="stroke: black; stroke-width: 2px; fill: white; fill-opacity: 0.95;"></rect><text lineHeight="1.2" class="djs-label" style="font-family: Arial, sans-serif; font-size: 12px; font-weight: normal; fill: black;"><tspan x="26.5390625" y="53.599999999999994">Transfer funds</tspan></text></g><g class="djs-visual" id="Activity_0luvdpm" transform="translate(1668 1272)"><rect x="0" y="0" width="130" height="100" rx="10" ry="10" style="stroke: black; stroke-width: 2px; fill: white; fill-opacity: 0.95;"></rect><text lineHeight="1.2" class="djs-label" style="font-family: Arial, sans-serif; font-size: 12px; font-weight: normal; fill: black;"><tspan x="23.8046875" y="46.4">Authorise funds </tspan><tspan x="14.8115234375" y="60.8">transfer repayment</tspan></text></g><g class="djs-visual" id="Activity_0e9jjap" transform="translate(1668 1452)"><rect x="0" y="0" width="130" height="100" rx="10" ry="10" style="stroke: black; stroke-width: 2px; fill: white; fill-opacity: 0.95;"></rect><text lineHeight="1.2" class="djs-label" style="font-family: Arial, sans-serif; font-size: 12px; font-weight: normal; fill: black;"><tspan x="9.1318359375" y="46.4">Generate accounting </tspan><tspan x="46.984375" y="60.8">entries</tspan></text></g><g class="djs-visual" id="Activity_05v10sk" transform="translate(505 980)"><rect x="0" y="0" width="130" height="100" rx="10" ry="10" style="stroke: black; stroke-width: 2px; fill: white; fill-opacity: 0.95;"></rect><text lineHeight="1.2" class="djs-label" style="font-family: Arial, sans-serif; font-size: 12px; font-weight: normal; fill: black;"><tspan x="6.96875" y="46.4">Check if Counterparty </tspan><tspan x="22.9892578125" y="60.8">restriction is set</tspan></text></g><g class="djs-visual" id="Gateway_094flv7" transform="translate(545 1235)"><polygon points="25,0 50,25 25,50 0,25" style="stroke: black; stroke-width: 2px; fill: white; fill-opacity: 0.95;"></polygon><path d="m 16,15 7.42857142857143,9.714285714285715 -7.42857142857143,9.714285714285715 3.428571428571429,0 5.714285714285715,-7.464228571428572 5.714285714285715,7.464228571428572 3.428571428571429,0 -7.42857142857143,-9.714285714285715 7.42857142857143,-9.714285714285715 -3.428571428571429,0 -5.714285714285715,7.464228571428572 -5.714285714285715,-7.464228571428572 -3.428571428571429,0 z" style="fill: black; stroke-width: 1px; stroke: black;"></path></g><g class="djs-visual" id="Gateway_0dp4vde" transform="translate(545 1105)"><polygon points="25,0 50,25 25,50 0,25" style="stroke: black; stroke-width: 2px; fill: white; fill-opacity: 0.95;"></polygon><path d="m 16,15 7.42857142857143,9.714285714285715 -7.42857142857143,9.714285714285715 3.428571428571429,0 5.714285714285715,-7.464228571428572 5.714285714285715,7.464228571428572 3.428571428571429,0 -7.42857142857143,-9.714285714285715 7.42857142857143,-9.714285714285715 -3.428571428571429,0 -5.714285714285715,7.464228571428572 -5.714285714285715,-7.464228571428572 -3.428571428571429,0 z" style="fill: black; stroke-width: 1px; stroke: black;"></path></g><g class="djs-visual" id="Activity_134vb6f" transform="translate(885 1210)"><rect x="0" y="0" width="130" height="100" rx="10" ry="10" style="stroke: black; stroke-width: 2px; fill: white; fill-opacity: 0.95;"></rect><text lineHeight="1.2" class="djs-label" style="font-family: Arial, sans-serif; font-size: 12px; font-weight: normal; fill: black;"><tspan x="16.640625" y="46.4">Check Beneficiary </tspan><tspan x="47.65625" y="60.8">details</tspan></text></g><g class="djs-visual" id="Gateway_0929k35" transform="translate(925 1345)"><polygon points="25,0 50,25 25,50 0,25" style="stroke: black; stroke-width: 2px; fill: white; fill-opacity: 0.95;"></polygon><path d="m 16,15 7.42857142857143,9.714285714285715 -7.42857142857143,9.714285714285715 3.428571428571429,0 5.714285714285715,-7.464228571428572 5.714285714285715,7.464228571428572 3.428571428571429,0 -7.42857142857143,-9.714285714285715 7.42857142857143,-9.714285714285715 -3.428571428571429,0 -5.714285714285715,7.464228571428572 -5.714285714285715,-7.464228571428572 -3.428571428571429,0 z" style="fill: black; stroke-width: 1px; stroke: black;"></path></g><g class="djs-visual" id="Activity_1wk1y7m" transform="translate(1045 1452)"><rect x="0" y="0" width="130" height="100" rx="10" ry="10" style="stroke: black; stroke-width: 2px; fill: white; fill-opacity: 0.95;"></rect><text lineHeight="1.2" class="djs-label" style="font-family: Arial, sans-serif; font-size: 12px; font-weight: normal; fill: black;"><tspan x="30.490234375" y="53.599999999999994">Display error</tspan></text></g><g class="djs-visual" id="Activity_0mrzhi9" transform="translate(1045 1610)"><rect x="0" y="0" width="130" height="100" rx="10" ry="10" style="stroke: black; stroke-width: 2px; fill: white; fill-opacity: 0.95;"></rect><text lineHeight="1.2" class="djs-label" style="font-family: Arial, sans-serif; font-size: 12px; font-weight: normal; fill: black;"><tspan x="19.8203125" y="53.599999999999994">Inform Customer</tspan></text></g><g class="djs-visual" id="Event_00t75se" transform="translate(1092 1762)"><circle cx="18" cy="18" r="18" style="stroke: black; stroke-width: 4px; fill: white; fill-opacity: 0.95;"></circle></g><g class="djs-visual" id="Event_00t75se_label" transform="translate(1061 1807)"><text lineHeight="1.2" class="djs-label" style="font-family: Arial, sans-serif; font-size: 11px; font-weight: normal; fill: black;"><tspan x="20.4921875" y="9.899999999999999">Pre-closure </tspan><tspan x="0" y="23.099999999999998">unsuccessful due to </tspan><tspan x="17.794921875" y="36.3">counterparty </tspan><tspan x="9.7890625" y="49.5">restriction in the </tspan><tspan x="30.409912109375" y="62.7">deposit</tspan></text></g><g class="djs-visual" id="TextAnnotation_0o30s6o" transform="translate(197 -220)"><rect x="0" y="0" width="162" height="30" rx="0" ry="0" style="stroke: none; stroke-width: 2px; fill: none;"></rect><path d="m 0, 0 m 10,0 l -10,0 l 0,30 l 10,0" style="fill: none; stroke-width: 2px; stroke: black;"></path><text lineHeight="1.2" class="djs-label" style="font-family: Arial, sans-serif; font-size: 12px; font-weight: normal; fill: black;"><tspan x="5" y="15.799999999999999">Incl. Mandates/ Signatories</tspan></text></g><g class="djs-visual" id="TextAnnotation_1qecwkx" transform="translate(197 220)"><rect x="0" y="0" width="248" height="38" rx="0" ry="0" style="stroke: none; stroke-width: 2px; fill: none;"></rect><path d="m 0, 0 m 10,0 l -10,0 l 0,38 l 10,0" style="fill: none; stroke-width: 2px; stroke: black;"></path><text lineHeight="1.2" class="djs-label" style="font-family: Arial, sans-serif; font-size: 12px; font-weight: normal; fill: black;"><tspan x="5" y="15.799999999999999">Capture Redemption Date (effective date) </tspan><tspan x="5" y="30.199999999999996">can be a future date also</tspan></text></g><g class="djs-visual" id="TextAnnotation_1pqo6p8" transform="translate(197 1000)"><rect x="0" y="0" width="223" height="110" rx="0" ry="0" style="stroke: none; stroke-width: 2px; fill: none;"></rect><path d="m 0, 0 m 10,0 l -10,0 l 0,110 l 10,0" style="fill: none; stroke-width: 2px; stroke: black;"></path><text lineHeight="1.2" class="djs-label" style="font-family: Arial, sans-serif; font-size: 12px; font-weight: normal; fill: black;"><tspan x="5" y="15.799999999999999">Dr Deposit account</tspan><tspan x="5" y="30.199999999999996">Cr Customer account</tspan><tspan x="5" y="44.599999999999994">Cr P&amp;L account (For charges like</tspan><tspan x="5" y="58.99999999999999">Break Cost fee if any)</tspan><tspan x="5" y="73.39999999999999"></tspan><tspan x="5" y="87.79999999999998">Interest and Charges subject to Cooling</tspan><tspan x="5" y="102.19999999999999">Period as defined in Product condition</tspan></text></g><g class="djs-visual" id="TextAnnotation_0en2nll" transform="translate(670 1500)"><rect x="0" y="0" width="220" height="156" rx="0" ry="0" style="stroke: none; stroke-width: 2px; fill: none;"></rect><path d="m 0, 0 m 10,0 l -10,0 l 0,156 l 10,0" style="fill: none; stroke-width: 2px; stroke: black;"></path><text lineHeight="1.2" class="djs-label" style="font-family: Arial, sans-serif; font-size: 12px; font-weight: normal; fill: black;"><tspan x="5" y="15.799999999999999">Pre-Closure Payment will be through </tspan><tspan x="5" y="30.199999999999996">TPH/ other payment system</tspan><tspan x="5" y="44.599999999999994">Dr Arrangement</tspan><tspan x="5" y="58.99999999999999">Cr Liquidation account</tspan><tspan x="5" y="73.39999999999999">Cr P&amp;L account (For charges like</tspan><tspan x="5" y="87.79999999999998">Break Cost fee if any)</tspan><tspan x="5" y="102.19999999999999"></tspan><tspan x="5" y="116.6">Interest and Charges subject to </tspan><tspan x="5" y="131">Cooling Period as defined in Product </tspan><tspan x="5" y="145.4">condition</tspan></text></g><g class="djs-visual" id="TextAnnotation_148fovq" transform="translate(1503 1402)"><rect x="0" y="0" width="150" height="156" rx="0" ry="0" style="stroke: none; stroke-width: 2px; fill: none;"></rect><path d="m 0, 0 m 10,0 l -10,0 l 0,156 l 10,0" style="fill: none; stroke-width: 2px; stroke: black;"></path><text lineHeight="1.2" class="djs-label" style="font-family: Arial, sans-serif; font-size: 12px; font-weight: normal; fill: black;"><tspan x="5" y="15.799999999999999">Dr Cash</tspan><tspan x="5" y="30.199999999999996">Cr Customer account</tspan><tspan x="5" y="44.599999999999994">Cr&nbsp;P&amp;L account (For</tspan><tspan x="5" y="58.99999999999999">charges like Break Cost</tspan><tspan x="5" y="73.39999999999999">fee if any)</tspan><tspan x="5" y="87.79999999999998"></tspan><tspan x="5" y="102.19999999999999">Interest and Charges </tspan><tspan x="5" y="116.6">subject to Cooling Period </tspan><tspan x="5" y="131">as defined in Product </tspan><tspan x="5" y="145.4">condition</tspan></text></g><g class="djs-visual" id="TextAnnotation_04ye3o3" transform="translate(1843 1390)"><rect x="0" y="0" width="170" height="142" rx="0" ry="0" style="stroke: none; stroke-width: 2px; fill: none;"></rect><path d="m 0, 0 m 10,0 l -10,0 l 0,142 l 10,0" style="fill: none; stroke-width: 2px; stroke: black;"></path><text lineHeight="1.2" class="djs-label" style="font-family: Arial, sans-serif; font-size: 12px; font-weight: normal; fill: black;"><tspan x="5" y="15.799999999999999">Dr Deposit account</tspan><tspan x="5" y="30.199999999999996">Cr Customer account</tspan><tspan x="5" y="44.599999999999994">Cr&nbsp;P&amp;L account (For</tspan><tspan x="5" y="58.99999999999999">charges like Break Cost</tspan><tspan x="5" y="73.39999999999999">fee if any)</tspan><tspan x="5" y="87.79999999999998"></tspan><tspan x="5" y="102.19999999999999">Interest and Charges subject </tspan><tspan x="5" y="116.6">to Cooling Period as defined </tspan><tspan x="5" y="131">in Product condition</tspan></text></g><g class="djs-visual" id="TextAnnotation_1o8o9t4" transform="translate(670 950)"><rect x="0" y="0" width="150" height="50" rx="0" ry="0" style="stroke: none; stroke-width: 2px; fill: none;"></rect><path d="m 0, 0 m 10,0 l -10,0 l 0,50 l 10,0" style="fill: none; stroke-width: 2px; stroke: black;"></path><text lineHeight="1.2" class="djs-label" style="font-family: Arial, sans-serif; font-size: 12px; font-weight: normal; fill: black;"><tspan x="5" y="15.799999999999999">Counterparty restriction</tspan><tspan x="5" y="30.199999999999996">set in AA.ARR.ACCOUNT</tspan></text></g><g class="djs-visual" id="DataInputAssociation_0i7eww2" transform="translate(0 0)"><polyline points="-12,-280 45,-280 " style="fill: none; stroke: black; stroke-width: 2px; stroke-dasharray: 0.5, 5; stroke-linecap: round; stroke-linejoin: round; marker-end: url(&quot;#association-end-white-black-304olf8sqtbd9m8w8sh9uzuee&quot;);"></polyline></g><g class="djs-visual" id="Flow_1usjzuw_label" transform="translate(116 33)"><text lineHeight="1.2" class="djs-label" style="font-family: Arial, sans-serif; font-size: 11px; font-weight: normal; fill: black;"><tspan x="8.523193359375" y="9.899999999999999">Customer </tspan><tspan x="0" y="23.099999999999998">authenticated</tspan></text></g><g class="djs-visual" id="Flow_06fsp16_label" transform="translate(256 -34)"><text lineHeight="1.2" class="djs-label" style="font-family: Arial, sans-serif; font-size: 11px; font-weight: normal; fill: black;"><tspan x="0" y="9.899999999999999">Customer not </tspan><tspan x="0.4541015625" y="23.099999999999998">authenticated</tspan></text></g><g class="djs-visual" id="Flow_11lxruj_label" transform="translate(1418 1046)"><text lineHeight="1.2" class="djs-label" style="font-family: Arial, sans-serif; font-size: 11px; font-weight: normal; fill: black;"><tspan x="0" y="9.899999999999999">Cash (Teller) </tspan><tspan x="9.775390625" y="23.099999999999998">payment</tspan></text></g><g class="djs-visual" id="Flow_1pspapj_label" transform="translate(1747 1053)"><text lineHeight="1.2" class="djs-label" style="font-family: Arial, sans-serif; font-size: 11px; font-weight: normal; fill: black;"><tspan x="0" y="9.899999999999999">Funds transfer</tspan></text></g><g class="djs-visual" id="Flow_1u6ogr6_label" transform="translate(581 1160)"><text lineHeight="1.2" class="djs-label" style="font-family: Arial, sans-serif; font-size: 11px; font-weight: normal; fill: black;"><tspan x="9.46923828125" y="9.899999999999999">Counterpart</tspan><tspan x="0" y="23.099999999999998">restriction is not</tspan><tspan x="31.176513671875" y="36.3">set</tspan></text></g><g class="djs-visual" id="Flow_0ddvsqe_label" transform="translate(962 1160)"><text lineHeight="1.2" class="djs-label" style="font-family: Arial, sans-serif; font-size: 11px; font-weight: normal; fill: black;"><tspan x="9.160400390625" y="9.899999999999999">Counterpart</tspan><tspan x="0" y="23.099999999999998">restriction is&nbsp;set</tspan></text></g><g class="djs-visual" id="Flow_0kseexy_label" transform="translate(838 1417)"><text lineHeight="1.2" class="djs-label" style="font-family: Arial, sans-serif; font-size: 11px; font-weight: normal; fill: black;"><tspan x="0" y="9.899999999999999">Beneficiary is set </tspan><tspan x="2.6630859375" y="23.099999999999998">as Counterparty</tspan></text></g><g class="djs-visual" id="Flow_1566weu_label" transform="translate(1111 1380)"><text lineHeight="1.2" class="djs-label" style="font-family: Arial, sans-serif; font-size: 11px; font-weight: normal; fill: black;"><tspan x="0" y="9.899999999999999">Beneficiary is not set</tspan><tspan x="11.8369140625" y="23.099999999999998">as Counterparty</tspan></text></g><g class="djs-visual" id="Association_0oho6pc" transform="translate(0 0)"><polyline points="166,-176 197,-202 " style="fill: none; stroke: black; stroke-width: 2px; stroke-dasharray: 0.5, 5; stroke-linecap: round; stroke-linejoin: round;"></polyline></g><g class="djs-visual" id="Association_1u15baf" transform="translate(0 0)"><polyline points="171,262 197,241 " style="fill: none; stroke: black; stroke-width: 2px; stroke-dasharray: 0.5, 5; stroke-linecap: round; stroke-linejoin: round;"></polyline></g><g class="djs-visual" id="Association_1gee2mo" transform="translate(0 0)"><polyline points="175,1045 197,1033 " style="fill: none; stroke: black; stroke-width: 2px; stroke-dasharray: 0.5, 5; stroke-linecap: round; stroke-linejoin: round;"></polyline></g><g class="djs-visual" id="Association_0flor90" transform="translate(0 0)"><polyline points="634,1585 670,1560 " style="fill: none; stroke: black; stroke-width: 2px; stroke-dasharray: 0.5, 5; stroke-linecap: round; stroke-linejoin: round;"></polyline></g><g class="djs-visual" id="Association_0w34v0q" transform="translate(0 0)"><polyline points="1475,1461 1503,1442 " style="fill: none; stroke: black; stroke-width: 2px; stroke-dasharray: 0.5, 5; stroke-linecap: round; stroke-linejoin: round;"></polyline></g><g class="djs-visual" id="Association_17thba3" transform="translate(0 0)"><polyline points="1798,1470 1843,1447 " style="fill: none; stroke: black; stroke-width: 2px; stroke-dasharray: 0.5, 5; stroke-linecap: round; stroke-linejoin: round;"></polyline></g><g class="djs-visual" id="Association_1v8ovyr" transform="translate(0 0)"><polyline points="635,1002 670,987 " style="fill: none; stroke: black; stroke-width: 2px; stroke-dasharray: 0.5, 5; stroke-linecap: round; stroke-linejoin: round;"></polyline></g></g><g><rect class="viewport" x="-2341.6526717557254" y="-470.2022900763358" width="6622.137404580152" height="2519.083969465649"></rect></g></svg>