<svg width="100%" height="100%" viewBox="-176, -173, 1835, 1737"><g><g class="djs-visual" id="Flow_1xv1bva" transform="translate(0 0)"><path d="m  50,1210L50,1260 " style="fill: none; stroke-width: 2px; stroke: black; stroke-linejoin: round; marker-end: url(&quot;#sequenceflow-end-white-black-3t64te5886rvnv8u6i05ahae3&quot;);"></path></g><g class="djs-visual" id="Flow_1o8618l" transform="translate(0 0)"><path d="m  50,1040L50,1110 " style="fill: none; stroke-width: 2px; stroke: black; stroke-linejoin: round; marker-end: url(&quot;#sequenceflow-end-white-black-3t64te5886rvnv8u6i05ahae3&quot;);"></path></g><g class="djs-visual" id="Flow_00v130b" transform="translate(0 0)"><path d="m  50,850L50,940 " style="fill: none; stroke-width: 2px; stroke: black; stroke-linejoin: round; marker-end: url(&quot;#sequenceflow-end-white-black-3t64te5886rvnv8u6i05ahae3&quot;);"></path></g><g class="djs-visual" id="Flow_1grz3v9" transform="translate(0 0)"><path d="m  50,690L50,750 " style="fill: none; stroke-width: 2px; stroke: black; stroke-linejoin: round; marker-end: url(&quot;#sequenceflow-end-white-black-3t64te5886rvnv8u6i05ahae3&quot;);"></path></g><g class="djs-visual" id="Flow_0blgtnh" transform="translate(0 0)"><path d="m  50,555L50,590 " style="fill: none; stroke-width: 2px; stroke: black; stroke-linejoin: round; marker-end: url(&quot;#sequenceflow-end-white-black-3t64te5886rvnv8u6i05ahae3&quot;);"></path></g><g class="djs-visual" id="Flow_0f9whts" transform="translate(0 0)"><path d="m  50,1360L50,1412 " style="fill: none; stroke-width: 2px; stroke: black; stroke-linejoin: round; marker-end: url(&quot;#sequenceflow-end-white-black-3t64te5886rvnv8u6i05ahae3&quot;);"></path></g><g class="djs-visual" id="Flow_1hyi7h5" transform="translate(0 0)"><path d="m  370,580L370,622 " style="fill: none; stroke-width: 2px; stroke: black; stroke-linejoin: round; marker-end: url(&quot;#sequenceflow-end-white-black-3t64te5886rvnv8u6i05ahae3&quot;);"></path></g><g class="djs-visual" id="Flow_10ii2q2" transform="translate(0 0)"><path d="m  75,390L370,390 L370,480 " style="fill: none; stroke-width: 2px; stroke: black; stroke-linejoin: round; marker-end: url(&quot;#sequenceflow-end-white-black-3t64te5886rvnv8u6i05ahae3&quot;);"></path></g><g class="djs-visual" id="Flow_1dvu9o9" transform="translate(0 0)"><path d="m  210,488L210,530 L75,530 " style="fill: none; stroke-width: 2px; stroke: black; stroke-linejoin: round; marker-end: url(&quot;#sequenceflow-end-white-black-3t64te5886rvnv8u6i05ahae3&quot;);"></path></g><g class="djs-visual" id="Flow_1x6i4as" transform="translate(0 0)"><path d="m  50,415L50,505 " style="fill: none; stroke-width: 2px; stroke: black; stroke-linejoin: round; marker-end: url(&quot;#sequenceflow-end-white-black-3t64te5886rvnv8u6i05ahae3&quot;);"></path></g><g class="djs-visual" id="Flow_0dck5xf" transform="translate(0 0)"><path d="m  50,140L50,210 " style="fill: none; stroke-width: 2px; stroke: black; stroke-linejoin: round; marker-end: url(&quot;#sequenceflow-end-white-black-3t64te5886rvnv8u6i05ahae3&quot;);"></path></g><g class="djs-visual" id="Flow_1v6e98e" transform="translate(0 0)"><path d="m  50,310L50,365 " style="fill: none; stroke-width: 2px; stroke: black; stroke-linejoin: round; marker-end: url(&quot;#sequenceflow-end-white-black-3t64te5886rvnv8u6i05ahae3&quot;);"></path></g><g class="djs-visual" id="Flow_0l53b1i" transform="translate(0 0)"><path d="m  50,-22L50,40 " style="fill: none; stroke-width: 2px; stroke: black; stroke-linejoin: round; marker-end: url(&quot;#sequenceflow-end-white-black-3t64te5886rvnv8u6i05ahae3&quot;);"></path></g><g class="djs-visual" id="StartEvent_1bm324f" transform="translate(32 -58)"><circle cx="18" cy="18" r="18" style="stroke: black; stroke-width: 2px; fill: white; fill-opacity: 0.95;"></circle></g><g class="djs-visual" id="StartEvent_1bm324f_label" transform="translate(8 -117)"><text lineHeight="1.2" class="djs-label" style="font-family: Arial, sans-serif; font-size: 11px; font-weight: normal; fill: black;"><tspan x="0" y="9.899999999999999">Mudaraba facility</tspan><tspan x="10.16845703125" y="23.099999999999998">arrangement </tspan><tspan x="8.793701171875" y="36.3">account to be </tspan><tspan x="18.887451171875" y="49.5">amended</tspan></text></g><g class="djs-visual" id="Activity_1a1s724" transform="translate(-15 40)"><rect x="0" y="0" width="130" height="100" rx="10" ry="10" style="stroke: black; stroke-width: 2px; fill: white; fill-opacity: 0.95;"></rect><text lineHeight="1.2" class="djs-label" style="font-family: Arial, sans-serif; font-size: 12px; font-weight: normal; fill: black;"><tspan x="15.1474609375" y="32">Receive Customer </tspan><tspan x="18.140625" y="46.4">request to amend </tspan><tspan x="19.640625" y="60.8">Mudaraba facility </tspan><tspan x="30.6474609375" y="75.19999999999999">arrangement</tspan></text></g><g class="djs-visual" id="Activity_1hbtofp" transform="translate(-15 210)"><rect x="0" y="0" width="130" height="100" rx="10" ry="10" style="stroke: black; stroke-width: 2px; fill: white; fill-opacity: 0.95;"></rect><text lineHeight="1.2" class="djs-label" style="font-family: Arial, sans-serif; font-size: 12px; font-weight: normal; fill: black;"><tspan x="31.9794921875" y="46.4">Authenticate </tspan><tspan x="38.4912109375" y="60.8">Customer</tspan></text></g><g class="djs-visual" id="Gateway_0s9uj3i" transform="translate(25 365)"><polygon points="25,0 50,25 25,50 0,25" style="stroke: black; stroke-width: 2px; fill: white; fill-opacity: 0.95;"></polygon><path d="m 16,15 7.42857142857143,9.714285714285715 -7.42857142857143,9.714285714285715 3.428571428571429,0 5.714285714285715,-7.464228571428572 5.714285714285715,7.464228571428572 3.428571428571429,0 -7.42857142857143,-9.714285714285715 7.42857142857143,-9.714285714285715 -3.428571428571429,0 -5.714285714285715,7.464228571428572 -5.714285714285715,-7.464228571428572 -3.428571428571429,0 z" style="fill: black; stroke-width: 1px; stroke: black;"></path></g><g class="djs-visual" id="Gateway_0poxroc" transform="translate(25 505)"><polygon points="25,0 50,25 25,50 0,25" style="stroke: black; stroke-width: 2px; fill: white; fill-opacity: 0.95;"></polygon><path d="m 16,15 7.42857142857143,9.714285714285715 -7.42857142857143,9.714285714285715 3.428571428571429,0 5.714285714285715,-7.464228571428572 5.714285714285715,7.464228571428572 3.428571428571429,0 -7.42857142857143,-9.714285714285715 7.42857142857143,-9.714285714285715 -3.428571428571429,0 -5.714285714285715,7.464228571428572 -5.714285714285715,-7.464228571428572 -3.428571428571429,0 z" style="fill: black; stroke-width: 1px; stroke: black;"></path></g><g class="djs-visual" id="Event_051gjc4" transform="translate(192 452)"><circle cx="18" cy="18" r="18" style="stroke: black; stroke-width: 2px; fill: white; fill-opacity: 0.95;"></circle></g><g class="djs-visual" id="Event_051gjc4_label" transform="translate(176 418)"><text lineHeight="1.2" class="djs-label" style="font-family: Arial, sans-serif; font-size: 11px; font-weight: normal; fill: black;"><tspan x="0" y="9.899999999999999">Bank initiated</tspan><tspan x="3.50732421875" y="23.099999999999998">amendment</tspan></text></g><g class="djs-visual" id="Activity_0txltcs" transform="translate(305 480)"><rect x="0" y="0" width="130" height="100" rx="10" ry="10" style="stroke: black; stroke-width: 2px; fill: white; fill-opacity: 0.95;"></rect><text lineHeight="1.2" class="djs-label" style="font-family: Arial, sans-serif; font-size: 12px; font-weight: normal; fill: black;"><tspan x="19.8203125" y="39.2">Inform Customer </tspan><tspan x="13.466796875" y="53.6">about unsuccessful </tspan><tspan x="27.474609375" y="68">authentication</tspan></text></g><g class="djs-visual" id="Event_1uc2e3e" transform="translate(352 622)"><circle cx="18" cy="18" r="18" style="stroke: black; stroke-width: 4px; fill: white; fill-opacity: 0.95;"></circle></g><g class="djs-visual" id="Event_1uc2e3e_label" transform="translate(324 665)"><text lineHeight="1.2" class="djs-label" style="font-family: Arial, sans-serif; font-size: 11px; font-weight: normal; fill: black;"><tspan x="0" y="9.899999999999999">Customer informed </tspan><tspan x="18.328125" y="23.099999999999998">about failed </tspan><tspan x="12.5234375" y="36.3">authentication</tspan></text></g><g class="djs-visual" id="Activity_0uoqihs" transform="translate(-15 590)"><rect x="0" y="0" width="130" height="100" rx="10" ry="10" style="stroke: black; stroke-width: 2px; fill: white; fill-opacity: 0.95;"></rect><text lineHeight="1.2" class="djs-label" style="font-family: Arial, sans-serif; font-size: 12px; font-weight: normal; fill: black;"><tspan x="19.4765625" y="39.2">Select Mudaraba </tspan><tspan x="11.4765625" y="53.6">facility arrangement&nbsp;</tspan><tspan x="43.65234375" y="68">account</tspan></text></g><g class="djs-visual" id="Activity_0zwe9ic" transform="translate(-15 750)"><rect x="0" y="0" width="130" height="100" rx="10" ry="10" style="stroke: black; stroke-width: 2px; fill: white; fill-opacity: 0.95;"></rect><text lineHeight="1.2" class="djs-label" style="font-family: Arial, sans-serif; font-size: 12px; font-weight: normal; fill: black;"><tspan x="15.640625" y="53.599999999999994">Select new&nbsp;activity</tspan></text></g><g class="djs-visual" id="Activity_13fxtux" transform="translate(-15 940)"><rect x="0" y="0" width="130" height="100" rx="10" ry="10" style="stroke: black; stroke-width: 2px; fill: white; fill-opacity: 0.95;"></rect><text lineHeight="1.2" class="djs-label" style="font-family: Arial, sans-serif; font-size: 12px; font-weight: normal; fill: black;"><tspan x="23.474609375" y="46.4">Amend account </tspan><tspan x="47.65625" y="60.8">details</tspan></text></g><g class="djs-visual" id="Activity_14edpqw" transform="translate(-15 1110)"><rect x="0" y="0" width="130" height="100" rx="10" ry="10" style="stroke: black; stroke-width: 2px; fill: white; fill-opacity: 0.95;"></rect><text lineHeight="1.2" class="djs-label" style="font-family: Arial, sans-serif; font-size: 12px; font-weight: normal; fill: black;"><tspan x="11.3046875" y="39.2">Authorise Mudaraba </tspan><tspan x="12.810546875" y="53.6">facility arrangement </tspan><tspan x="7.6328125" y="68">account amendments</tspan></text></g><g class="djs-visual" id="Activity_16nwmke" transform="translate(-15 1260)"><rect x="0" y="0" width="130" height="100" rx="10" ry="10" style="stroke: black; stroke-width: 2px; fill: white; fill-opacity: 0.95;"></rect><text lineHeight="1.2" class="djs-label" style="font-family: Arial, sans-serif; font-size: 12px; font-weight: normal; fill: black;"><tspan x="9.6328125" y="46.4">Update arrangement </tspan><tspan x="43.65234375" y="60.8">account</tspan></text></g><g class="djs-visual" id="Event_1u2d3bx" transform="translate(32 1412)"><circle cx="18" cy="18" r="18" style="stroke: black; stroke-width: 4px; fill: white; fill-opacity: 0.95;"></circle></g><g class="djs-visual" id="Event_1u2d3bx_label" transform="translate(9 1455)"><text lineHeight="1.2" class="djs-label" style="font-family: Arial, sans-serif; font-size: 11px; font-weight: normal; fill: black;"><tspan x="0" y="9.899999999999999">Mudaraba facility</tspan><tspan x="10.16845703125" y="23.099999999999998">arrangement </tspan><tspan x="12.308837890625" y="36.3">amendment </tspan><tspan x="16.442138671875" y="49.5">completed</tspan></text></g><g class="djs-visual" id="DataObjectReference_0o2js31" transform="translate(-108 65)"><path d="m 0,0 28.23529411764706,0 7.058823529411765,8.196721311475411 0,40.98360655737705 -35.294117647058826,0 0,-49.18032786885246 28.23529411764706,0 0,8.196721311475411 7.058823529411765,0" style="fill: white; stroke-width: 2px; stroke: black; fill-opacity: 0.95;"></path></g><g class="djs-visual" id="DataObjectReference_0o2js31_label" transform="translate(-120 122)"><text lineHeight="1.2" class="djs-label" style="font-family: Arial, sans-serif; font-size: 11px; font-weight: normal; fill: black;"><tspan x="0" y="9.899999999999999">Amendment </tspan><tspan x="8.66845703125" y="23.099999999999998">Request</tspan></text></g><g class="djs-visual" id="TextAnnotation_1mocim1" transform="translate(150 890)"><rect x="0" y="0" width="280" height="142" rx="0" ry="0" style="stroke: none; stroke-width: 2px; fill: none;"></rect><path d="m 0, 0 m 10,0 l -10,0 l 0,142 l 10,0" style="fill: none; stroke-width: 2px; stroke: black;"></path><text lineHeight="1.2" class="djs-label" style="font-family: Arial, sans-serif; font-size: 12px; font-weight: normal; fill: black;"><tspan x="5" y="15.799999999999999">General Arrangement Amendments:</tspan><tspan x="5" y="30.199999999999996">- Inclusion/ removal of allowed products (drawing)</tspan><tspan x="5" y="44.599999999999994">- Renegotiate Arrangement</tspan><tspan x="5" y="58.99999999999999">- Update Account Details and Posting Restrictions</tspan><tspan x="5" y="73.39999999999999">- Adjust Balances and Bills</tspan><tspan x="5" y="87.79999999999998">- Change Customer</tspan><tspan x="5" y="102.19999999999999">- Change Charges</tspan><tspan x="5" y="116.6">- Change Profit</tspan><tspan x="5" y="131">- Update Limit Link</tspan></text></g><g class="djs-visual" id="TextAnnotation_1n2c007" transform="translate(150 1090)"><rect x="0" y="0" width="100" height="30" rx="0" ry="0" style="stroke: none; stroke-width: 2px; fill: none;"></rect><path d="m 0, 0 m 10,0 l -10,0 l 0,30 l 10,0" style="fill: none; stroke-width: 2px; stroke: black;"></path><text lineHeight="1.2" class="djs-label" style="font-family: Arial, sans-serif; font-size: 12px; font-weight: normal; fill: black;"><tspan x="5" y="15.799999999999999">Maker/ Checker</tspan></text></g><g class="djs-visual" id="DataInputAssociation_00hs7wi" transform="translate(0 0)"><polyline points="-72,90 -15,90 " style="fill: none; stroke: black; stroke-width: 2px; stroke-dasharray: 0.5, 5; stroke-linecap: round; stroke-linejoin: round; marker-end: url(&quot;#association-end-white-black-3t64te5886rvnv8u6i05ahae3&quot;);"></polyline></g><g class="djs-visual" id="Flow_1x6i4as_label" transform="translate(57 422)"><text lineHeight="1.2" class="djs-label" style="font-family: Arial, sans-serif; font-size: 11px; font-weight: normal; fill: black;"><tspan x="8.523193359375" y="9.899999999999999">Customer </tspan><tspan x="0" y="23.099999999999998">authenticated</tspan></text></g><g class="djs-visual" id="Flow_10ii2q2_label" transform="translate(378 422)"><text lineHeight="1.2" class="djs-label" style="font-family: Arial, sans-serif; font-size: 11px; font-weight: normal; fill: black;"><tspan x="0" y="9.899999999999999">Customer not </tspan><tspan x="0.4541015625" y="23.099999999999998">authenticated</tspan></text></g><g class="djs-visual" id="Association_029g45w" transform="translate(0 0)"><polyline points="115,949 150,927 " style="fill: none; stroke: black; stroke-width: 2px; stroke-dasharray: 0.5, 5; stroke-linecap: round; stroke-linejoin: round;"></polyline></g><g class="djs-visual" id="Association_1k55t3i" transform="translate(0 0)"><polyline points="115,1121 150,1100 " style="fill: none; stroke: black; stroke-width: 2px; stroke-dasharray: 0.5, 5; stroke-linecap: round; stroke-linejoin: round;"></polyline></g></g><g><rect class="viewport" x="-1990.0347394540943" y="-123.0545905707196" width="4305.210918114144" height="1637.7171215880892"></rect></g></svg>