<svg width="100%" height="100%" viewBox="-71, -136, 1835, 1574"><g><g class="djs-visual" id="Flow_0a7vxio" transform="translate(0 0)"><path d="m  50,1055L50,1110 " style="fill: none; stroke-width: 2px; stroke: black; stroke-linejoin: round; marker-end: url(&quot;#sequenceflow-end-white-black-0rsjnnasmnffjockftsd41itc&quot;);"></path></g><g class="djs-visual" id="Flow_1osn61b" transform="translate(0 0)"><path d="m  295,960L410,960 L410,1012 " style="fill: none; stroke-width: 2px; stroke: black; stroke-linejoin: round; marker-end: url(&quot;#sequenceflow-end-white-black-0rsjnnasmnffjockftsd41itc&quot;);"></path></g><g class="djs-visual" id="Flow_0t5wzny" transform="translate(0 0)"><path d="m  75,700L270,700 L270,790 " style="fill: none; stroke-width: 2px; stroke: black; stroke-linejoin: round; marker-end: url(&quot;#sequenceflow-end-white-black-0rsjnnasmnffjockftsd41itc&quot;);"></path></g><g class="djs-visual" id="Flow_1rdc5ia" transform="translate(0 0)"><path d="m  50,470L50,530 " style="fill: none; stroke-width: 2px; stroke: black; stroke-linejoin: round; marker-end: url(&quot;#sequenceflow-end-white-black-0rsjnnasmnffjockftsd41itc&quot;);"></path></g><g class="djs-visual" id="Flow_08j9nhq" transform="translate(0 0)"><path d="m  50,315L50,370 " style="fill: none; stroke-width: 2px; stroke: black; stroke-linejoin: round; marker-end: url(&quot;#sequenceflow-end-white-black-0rsjnnasmnffjockftsd41itc&quot;);"></path></g><g class="djs-visual" id="Flow_1qorafj" transform="translate(0 0)"><path d="m  380,18L380,290 L75,290 " style="fill: none; stroke-width: 2px; stroke: black; stroke-linejoin: round; marker-end: url(&quot;#sequenceflow-end-white-black-0rsjnnasmnffjockftsd41itc&quot;);"></path></g><g class="djs-visual" id="Flow_1feifm0" transform="translate(0 0)"><path d="m  50,1210L50,1312 " style="fill: none; stroke-width: 2px; stroke: black; stroke-linejoin: round; marker-end: url(&quot;#sequenceflow-end-white-black-0rsjnnasmnffjockftsd41itc&quot;);"></path></g><g class="djs-visual" id="Flow_1frs3yn" transform="translate(0 0)"><path d="m  270,985L270,1030 L75,1030 " style="fill: none; stroke-width: 2px; stroke: black; stroke-linejoin: round; marker-end: url(&quot;#sequenceflow-end-white-black-0rsjnnasmnffjockftsd41itc&quot;);"></path></g><g class="djs-visual" id="Flow_06yihyb" transform="translate(0 0)"><path d="m  50,725L50,1005 " style="fill: none; stroke-width: 2px; stroke: black; stroke-linejoin: round; marker-end: url(&quot;#sequenceflow-end-white-black-0rsjnnasmnffjockftsd41itc&quot;);"></path></g><g class="djs-visual" id="Flow_15pa6af" transform="translate(0 0)"><path d="m  270,890L270,935 " style="fill: none; stroke-width: 2px; stroke: black; stroke-linejoin: round; marker-end: url(&quot;#sequenceflow-end-white-black-0rsjnnasmnffjockftsd41itc&quot;);"></path></g><g class="djs-visual" id="Flow_0sqs9lz" transform="translate(0 0)"><path d="m  50,630L50,675 " style="fill: none; stroke-width: 2px; stroke: black; stroke-linejoin: round; marker-end: url(&quot;#sequenceflow-end-white-black-0rsjnnasmnffjockftsd41itc&quot;);"></path></g><g class="djs-visual" id="Flow_0n8hul6" transform="translate(0 0)"><path d="m  50,190L50,265 " style="fill: none; stroke-width: 2px; stroke: black; stroke-linejoin: round; marker-end: url(&quot;#sequenceflow-end-white-black-0rsjnnasmnffjockftsd41itc&quot;);"></path></g><g class="djs-visual" id="Flow_119uxin" transform="translate(0 0)"><path d="m  50,18L50,90 " style="fill: none; stroke-width: 2px; stroke: black; stroke-linejoin: round; marker-end: url(&quot;#sequenceflow-end-white-black-0rsjnnasmnffjockftsd41itc&quot;);"></path></g><g class="djs-visual" id="StartEvent_1bm324f" transform="translate(32 -18)"><circle cx="18" cy="18" r="18" style="stroke: black; stroke-width: 2px; fill: white; fill-opacity: 0.95;"></circle></g><g class="djs-visual" id="StartEvent_1bm324f_label" transform="translate(4 -74)"><text lineHeight="1.2" class="djs-label" style="font-family: Arial, sans-serif; font-size: 11px; font-weight: normal; fill: black;"><tspan x="0" y="9.899999999999999">Transaction details </tspan><tspan x="27.660888671875" y="23.099999999999998">defined</tspan></text></g><g class="djs-visual" id="Activity_0rpc7y2" transform="translate(-15 90)"><rect x="0" y="0" width="130" height="100" rx="10" ry="10" style="stroke: black; stroke-width: 2px; fill: white; fill-opacity: 0.95;"></rect><text lineHeight="1.2" class="djs-label" style="font-family: Arial, sans-serif; font-size: 12px; font-weight: normal; fill: black;"><tspan x="7.478515625" y="46.4">Enquire customer&nbsp;DX </tspan><tspan x="44.15625" y="60.8">position</tspan></text></g><g class="djs-visual" id="Gateway_08odw8a" transform="translate(25 265)"><polygon points="25,0 50,25 25,50 0,25" style="stroke: black; stroke-width: 2px; fill: white; fill-opacity: 0.95;"></polygon><path d="m 16,15 7.42857142857143,9.714285714285715 -7.42857142857143,9.714285714285715 3.428571428571429,0 5.714285714285715,-7.464228571428572 5.714285714285715,7.464228571428572 3.428571428571429,0 -7.42857142857143,-9.714285714285715 7.42857142857143,-9.714285714285715 -3.428571428571429,0 -5.714285714285715,7.464228571428572 -5.714285714285715,-7.464228571428572 -3.428571428571429,0 z" style="fill: black; stroke-width: 1px; stroke: black;"></path></g><g class="djs-visual" id="Activity_10s4kbl" transform="translate(-15 370)"><rect x="0" y="0" width="130" height="100" rx="10" ry="10" style="stroke: black; stroke-width: 2px; fill: white; fill-opacity: 0.95;"></rect><text lineHeight="1.2" class="djs-label" style="font-family: Arial, sans-serif; font-size: 12px; font-weight: normal; fill: black;"><tspan x="8.96875" y="46.4">Capture order details </tspan><tspan x="31.3271484375" y="60.8">(Derivatives)</tspan></text></g><g class="djs-visual" id="Activity_1nliort" transform="translate(-15 530)"><rect x="0" y="0" width="130" height="100" rx="10" ry="10" style="stroke: black; stroke-width: 2px; fill: white; fill-opacity: 0.95;"></rect><text lineHeight="1.2" class="djs-label" style="font-family: Arial, sans-serif; font-size: 12px; font-weight: normal; fill: black;"><tspan x="13.640625" y="53.599999999999994">Perform validations</tspan></text></g><g class="djs-visual" id="Gateway_0y2ickx" transform="translate(25 675)"><polygon points="25,0 50,25 25,50 0,25" style="stroke: black; stroke-width: 2px; fill: white; fill-opacity: 0.95;"></polygon><path d="m 16,15 7.42857142857143,9.714285714285715 -7.42857142857143,9.714285714285715 3.428571428571429,0 5.714285714285715,-7.464228571428572 5.714285714285715,7.464228571428572 3.428571428571429,0 -7.42857142857143,-9.714285714285715 7.42857142857143,-9.714285714285715 -3.428571428571429,0 -5.714285714285715,7.464228571428572 -5.714285714285715,-7.464228571428572 -3.428571428571429,0 z" style="fill: black; stroke-width: 1px; stroke: black;"></path></g><g class="djs-visual" id="Activity_06gfzdf" transform="translate(205 790)"><rect x="0" y="0" width="130" height="100" rx="10" ry="10" style="stroke: black; stroke-width: 2px; fill: white; fill-opacity: 0.95;"></rect><text lineHeight="1.2" class="djs-label" style="font-family: Arial, sans-serif; font-size: 12px; font-weight: normal; fill: black;"><tspan x="22.478515625" y="39.2">Accept warning/ </tspan><tspan x="7.1455078125" y="53.6">override for derivative</tspan><tspan x="29.150390625" y="68">order capture</tspan></text></g><g class="djs-visual" id="Gateway_0s61ttk" transform="translate(245 935)"><polygon points="25,0 50,25 25,50 0,25" style="stroke: black; stroke-width: 2px; fill: white; fill-opacity: 0.95;"></polygon><path d="m 16,15 7.42857142857143,9.714285714285715 -7.42857142857143,9.714285714285715 3.428571428571429,0 5.714285714285715,-7.464228571428572 5.714285714285715,7.464228571428572 3.428571428571429,0 -7.42857142857143,-9.714285714285715 7.42857142857143,-9.714285714285715 -3.428571428571429,0 -5.714285714285715,7.464228571428572 -5.714285714285715,-7.464228571428572 -3.428571428571429,0 z" style="fill: black; stroke-width: 1px; stroke: black;"></path></g><g class="djs-visual" id="Gateway_06h2hpk" transform="translate(25 1005)"><polygon points="25,0 50,25 25,50 0,25" style="stroke: black; stroke-width: 2px; fill: white; fill-opacity: 0.95;"></polygon><path d="m 16,15 7.42857142857143,9.714285714285715 -7.42857142857143,9.714285714285715 3.428571428571429,0 5.714285714285715,-7.464228571428572 5.714285714285715,7.464228571428572 3.428571428571429,0 -7.42857142857143,-9.714285714285715 7.42857142857143,-9.714285714285715 -3.428571428571429,0 -5.714285714285715,7.464228571428572 -5.714285714285715,-7.464228571428572 -3.428571428571429,0 z" style="fill: black; stroke-width: 1px; stroke: black;"></path></g><g class="djs-visual" id="Activity_1tqvi7i" transform="translate(-15 1110)"><rect x="0" y="0" width="130" height="100" rx="10" ry="10" style="stroke: black; stroke-width: 2px; fill: white; fill-opacity: 0.95;"></rect><text lineHeight="1.2" class="djs-label" style="font-family: Arial, sans-serif; font-size: 12px; font-weight: normal; fill: black;"><tspan x="23.6484375" y="46.4">Perform cash &amp; </tspan><tspan x="20.4755859375" y="60.8">position blocking</tspan></text></g><g class="djs-visual" id="Event_075u9c9" transform="translate(32 1312)"><circle cx="18" cy="18" r="18" style="stroke: black; stroke-width: 4px; fill: white; fill-opacity: 0.95;"></circle></g><g class="djs-visual" id="Event_075u9c9_label" transform="translate(8 1355)"><text lineHeight="1.2" class="djs-label" style="font-family: Arial, sans-serif; font-size: 11px; font-weight: normal; fill: black;"><tspan x="0" y="9.899999999999999">Derivatives order </tspan><tspan x="23.277099609375" y="23.099999999999998">initiated</tspan></text></g><g class="djs-visual" id="Event_0mxz9ys" transform="translate(362 -18)"><circle cx="18" cy="18" r="18" style="stroke: black; stroke-width: 2px; fill: white; fill-opacity: 0.95;"></circle></g><g class="djs-visual" id="Event_0mxz9ys_label" transform="translate(338 -80)"><text lineHeight="1.2" class="djs-label" style="font-family: Arial, sans-serif; font-size: 11px; font-weight: normal; fill: black;"><tspan x="0" y="9.899999999999999">Order placement </tspan><tspan x="10.401123046875" y="23.099999999999998">(Derivatives) </tspan><tspan x="22.4736328125" y="36.3">initiated</tspan></text></g><g class="djs-visual" id="Event_16mfixf" transform="translate(392 1012)"><circle cx="18" cy="18" r="18" style="stroke: black; stroke-width: 4px; fill: white; fill-opacity: 0.95;"></circle></g><g class="djs-visual" id="Event_16mfixf_label" transform="translate(361 1055)"><text lineHeight="1.2" class="djs-label" style="font-family: Arial, sans-serif; font-size: 11px; font-weight: normal; fill: black;"><tspan x="0" y="9.899999999999999">Transaction rejected</tspan></text></g><g class="djs-visual" id="TextAnnotation_1it064x" transform="translate(170 310)"><rect x="0" y="0" width="690" height="130" rx="0" ry="0" style="stroke: none; stroke-width: 2px; fill: none;"></rect><path d="m 0, 0 m 10,0 l -10,0 l 0,130 l 10,0" style="fill: none; stroke-width: 2px; stroke: black;"></path><text lineHeight="1.2" class="djs-label" style="font-family: Arial, sans-serif; font-size: 12px; font-weight: normal; fill: black;"><tspan x="5" y="15.799999999999999">- The ticker information which provides details of premiums/margins associated with the derivatives deals can be captured</tspan><tspan x="5" y="30.199999999999996">- If Parameterised, automated Trade Authorisation will be enabled</tspan><tspan x="5" y="44.599999999999994">- Possible to place FXOTC Orders by using Single Generic Master created for FXOTC Contracts</tspan><tspan x="5" y="58.99999999999999">- Commission will be calculated at Order level based on Charge Tax Type for Dx.trade activity if set in&nbsp;</tspan><tspan x="5" y="73.39999999999999">SC.CHARGE.TAX.CALC.CREATE else calculated based on DX.COMMISSION and defaulted to the order or can be a manual </tspan><tspan x="5" y="87.79999999999998">input</tspan><tspan x="5" y="102.19999999999999">- Possible to input automatic close out details to off-set an existing position and system would automatically close out the two.</tspan><tspan x="5" y="116.6">- For option with underlying future, maturity date for underlying future can be defined</tspan></text></g><g class="djs-visual" id="TextAnnotation_02jlnvg" transform="translate(170 490)"><rect x="0" y="0" width="165" height="69" rx="0" ry="0" style="stroke: none; stroke-width: 2px; fill: none;"></rect><path d="m 0, 0 m 10,0 l -10,0 l 0,69 l 10,0" style="fill: none; stroke-width: 2px; stroke: black;"></path><text lineHeight="1.2" class="djs-label" style="font-family: Arial, sans-serif; font-size: 12px; font-weight: normal; fill: black;"><tspan x="5" y="15.799999999999999">- Stock Availability</tspan><tspan x="5" y="30.199999999999996">- Cash Availability</tspan><tspan x="5" y="44.599999999999994">- Limit checks</tspan><tspan x="5" y="58.99999999999999">- Restrictions</tspan></text></g><g class="djs-visual" id="Flow_0n8hul6_label" transform="translate(55 216)"><text lineHeight="1.2" class="djs-label" style="font-family: Arial, sans-serif; font-size: 11px; font-weight: normal; fill: black;"><tspan x="0" y="9.899999999999999">Order details to be </tspan><tspan x="23.84375" y="23.099999999999998">captured</tspan></text></g><g class="djs-visual" id="Flow_06yihyb_label" transform="translate(57 743)"><text lineHeight="1.2" class="djs-label" style="font-family: Arial, sans-serif; font-size: 11px; font-weight: normal; fill: black;"><tspan x="0" y="9.899999999999999">No errors</tspan></text></g><g class="djs-visual" id="Flow_1frs3yn_label" transform="translate(281 996)"><text lineHeight="1.2" class="djs-label" style="font-family: Arial, sans-serif; font-size: 11px; font-weight: normal; fill: black;"><tspan x="0" y="9.899999999999999">Transaction </tspan><tspan x="5.703125" y="23.099999999999998">accepted</tspan></text></g><g class="djs-visual" id="Flow_0t5wzny_label" transform="translate(117 673)"><text lineHeight="1.2" class="djs-label" style="font-family: Arial, sans-serif; font-size: 11px; font-weight: normal; fill: black;"><tspan x="0" y="9.899999999999999">Warning/Override</tspan></text></g><g class="djs-visual" id="Association_0pug7te" transform="translate(0 0)"><polyline points="115,392 170,369 " style="fill: none; stroke: black; stroke-width: 2px; stroke-dasharray: 0.5, 5; stroke-linecap: round; stroke-linejoin: round;"></polyline></g><g class="djs-visual" id="Association_0hqto3c" transform="translate(0 0)"><polyline points="115,542 170,510 " style="fill: none; stroke: black; stroke-width: 2px; stroke-dasharray: 0.5, 5; stroke-linecap: round; stroke-linejoin: round;"></polyline></g></g><g><rect class="viewport" x="-1514.109375" y="-85.953125" width="3872.767857142857" height="1473.2142857142858"></rect></g></svg>