<svg width="100%" height="100%" viewBox="-72, -5146, 1835, 2358"><g><g class="djs-visual" id="Flow_01mj8m2" transform="translate(0 0)"><path d="m  172,-3690L172,-3640 " style="fill: none; stroke-width: 2px; stroke: black; stroke-linejoin: round; marker-end: url(&quot;#sequenceflow-end-white-black-5rhlmha5lrci9sgymimb2v0z0&quot;);"></path></g><g class="djs-visual" id="Flow_18uw54y" transform="translate(0 0)"><path d="m  172,-3855L172,-3790 " style="fill: none; stroke-width: 2px; stroke: black; stroke-linejoin: round; marker-end: url(&quot;#sequenceflow-end-white-black-5rhlmha5lrci9sgymimb2v0z0&quot;);"></path></g><g class="djs-visual" id="Flow_0mg3wjf" transform="translate(0 0)"><path d="m  172,-3950L172,-3905 " style="fill: none; stroke-width: 2px; stroke: black; stroke-linejoin: round; marker-end: url(&quot;#sequenceflow-end-white-black-5rhlmha5lrci9sgymimb2v0z0&quot;);"></path></g><g class="djs-visual" id="Flow_0ho2jkn" transform="translate(0 0)"><path d="m  172,-4860L172,-4810 " style="fill: none; stroke-width: 2px; stroke: black; stroke-linejoin: round; marker-end: url(&quot;#sequenceflow-end-white-black-5rhlmha5lrci9sgymimb2v0z0&quot;);"></path></g><g class="djs-visual" id="Flow_07ndt1c" transform="translate(0 0)"><path d="m  172,-3540L172,-3495 " style="fill: none; stroke-width: 2px; stroke: black; stroke-linejoin: round; marker-end: url(&quot;#sequenceflow-end-white-black-5rhlmha5lrci9sgymimb2v0z0&quot;);"></path></g><g class="djs-visual" id="Flow_0qpzixs" transform="translate(0 0)"><path d="m  500,-3950L500,-3880 L197,-3880 " style="fill: none; stroke-width: 2px; stroke: black; stroke-linejoin: round; marker-end: url(&quot;#sequenceflow-end-white-black-5rhlmha5lrci9sgymimb2v0z0&quot;);"></path></g><g class="djs-visual" id="Flow_007rrup" transform="translate(0 0)"><path d="m  197,-4160L500,-4160 L500,-4050 " style="fill: none; stroke-width: 2px; stroke: black; stroke-linejoin: round; marker-end: url(&quot;#sequenceflow-end-white-black-5rhlmha5lrci9sgymimb2v0z0&quot;);"></path></g><g class="djs-visual" id="Flow_0oe9l5e" transform="translate(0 0)"><path d="m  172,-4135L172,-4050 " style="fill: none; stroke-width: 2px; stroke: black; stroke-linejoin: round; marker-end: url(&quot;#sequenceflow-end-white-black-5rhlmha5lrci9sgymimb2v0z0&quot;);"></path></g><g class="djs-visual" id="Flow_0uc2lc4" transform="translate(0 0)"><path d="m  172,-3150L172,-3090 " style="fill: none; stroke-width: 2px; stroke: black; stroke-linejoin: round; marker-end: url(&quot;#sequenceflow-end-white-black-5rhlmha5lrci9sgymimb2v0z0&quot;);"></path></g><g class="djs-visual" id="Flow_08gka1u" transform="translate(0 0)"><path d="m  440,-3300L440,-3264 " style="fill: none; stroke-width: 2px; stroke: black; stroke-linejoin: round; marker-end: url(&quot;#sequenceflow-end-white-black-5rhlmha5lrci9sgymimb2v0z0&quot;);"></path></g><g class="djs-visual" id="Flow_1eblst5" transform="translate(0 0)"><path d="m  172,-4230L172,-4185 " style="fill: none; stroke-width: 2px; stroke: black; stroke-linejoin: round; marker-end: url(&quot;#sequenceflow-end-white-black-5rhlmha5lrci9sgymimb2v0z0&quot;);"></path></g><g class="djs-visual" id="Flow_0yu4ja3" transform="translate(0 0)"><path d="m  172,-4540L172,-4490 " style="fill: none; stroke-width: 2px; stroke: black; stroke-linejoin: round; marker-end: url(&quot;#sequenceflow-end-white-black-5rhlmha5lrci9sgymimb2v0z0&quot;);"></path></g><g class="djs-visual" id="Flow_0twv23x" transform="translate(0 0)"><path d="m  172,-3300L172,-3250 " style="fill: none; stroke-width: 2px; stroke: black; stroke-linejoin: round; marker-end: url(&quot;#sequenceflow-end-white-black-5rhlmha5lrci9sgymimb2v0z0&quot;);"></path></g><g class="djs-visual" id="Flow_057hsh2" transform="translate(0 0)"><path d="m  172,-3445L172,-3400 " style="fill: none; stroke-width: 2px; stroke: black; stroke-linejoin: round; marker-end: url(&quot;#sequenceflow-end-white-black-5rhlmha5lrci9sgymimb2v0z0&quot;);"></path></g><g class="djs-visual" id="Flow_04rce8e" transform="translate(0 0)"><path d="m  172,-4390L172,-4330 " style="fill: none; stroke-width: 2px; stroke: black; stroke-linejoin: round; marker-end: url(&quot;#sequenceflow-end-white-black-5rhlmha5lrci9sgymimb2v0z0&quot;);"></path></g><g class="djs-visual" id="Flow_0psqgzv" transform="translate(0 0)"><path d="m  172,-4710L172,-4640 " style="fill: none; stroke-width: 2px; stroke: black; stroke-linejoin: round; marker-end: url(&quot;#sequenceflow-end-white-black-5rhlmha5lrci9sgymimb2v0z0&quot;);"></path></g><g class="djs-visual" id="Flow_0ya7j25" transform="translate(0 0)"><path d="m  172,-2990L172,-2948 " style="fill: none; stroke-width: 2px; stroke: black; stroke-linejoin: round; marker-end: url(&quot;#sequenceflow-end-white-black-5rhlmha5lrci9sgymimb2v0z0&quot;);"></path></g><g class="djs-visual" id="Flow_0jretc8" transform="translate(0 0)"><path d="m  172,-5002L172,-4960 " style="fill: none; stroke-width: 2px; stroke: black; stroke-linejoin: round; marker-end: url(&quot;#sequenceflow-end-white-black-5rhlmha5lrci9sgymimb2v0z0&quot;);"></path></g><g class="djs-visual" id="Flow_0vcb63v" transform="translate(0 0)"><path d="m  197,-3470L440,-3470 L440,-3400 " style="fill: none; stroke-width: 2px; stroke: black; stroke-linejoin: round; marker-end: url(&quot;#sequenceflow-end-white-black-5rhlmha5lrci9sgymimb2v0z0&quot;);"></path></g><g class="djs-visual" id="Event_0tpantj" transform="translate(154 -2948)"><circle cx="18" cy="18" r="18" style="stroke: black; stroke-width: 4px; fill: white; fill-opacity: 0.95;"></circle></g><g class="djs-visual" id="Event_0tpantj_label" transform="translate(138 -2897)"><text lineHeight="1.2" class="djs-label" style="font-family: Arial, sans-serif; font-size: 11px; font-weight: normal; fill: black;"><tspan x="0" y="9.899999999999999">Asset Finance </tspan><tspan x="1.9453125" y="23.099999999999998">amount/ term </tspan><tspan x="11.4140625" y="36.3">amended </tspan><tspan x="4.453125" y="49.5">successfully</tspan></text></g><g class="djs-visual" id="Activity_0b1pth6" transform="translate(107 -3250)"><rect x="0" y="0" width="130" height="100" rx="10" ry="10" style="stroke: black; stroke-width: 2px; fill: white; fill-opacity: 0.95;"></rect><text lineHeight="1.2" class="djs-label" style="font-family: Arial, sans-serif; font-size: 12px; font-weight: normal; fill: black;"><tspan x="11.8037109375" y="39.2">Verify and authorise</tspan><tspan x="25.8115234375" y="53.6">amendment of </tspan><tspan x="30.6474609375" y="68">arrangement</tspan></text></g><g class="djs-visual" id="Gateway_0sm43jp" transform="translate(147 -3495)"><polygon points="25,0 50,25 25,50 0,25" style="stroke: black; stroke-width: 2px; fill: white; fill-opacity: 0.95;"></polygon><path d="m 16,15 7.42857142857143,9.714285714285715 -7.42857142857143,9.714285714285715 3.428571428571429,0 5.714285714285715,-7.464228571428572 5.714285714285715,7.464228571428572 3.428571428571429,0 -7.42857142857143,-9.714285714285715 7.42857142857143,-9.714285714285715 -3.428571428571429,0 -5.714285714285715,7.464228571428572 -5.714285714285715,-7.464228571428572 -3.428571428571429,0 z" style="fill: black; stroke-width: 1px; stroke: black;"></path></g><g class="djs-visual" id="Activity_0fyacv1" transform="translate(107 -3400)"><rect x="0" y="0" width="130" height="100" rx="10" ry="10" style="stroke: black; stroke-width: 2px; fill: white; fill-opacity: 0.95;"></rect><text lineHeight="1.2" class="djs-label" style="font-family: Arial, sans-serif; font-size: 12px; font-weight: normal; fill: black;"><tspan x="12.4775390625" y="46.4">Move transaction to </tspan><tspan x="12.12890625" y="60.8">authorisation queue</tspan></text></g><g class="djs-visual" id="Event_1sqrm58" transform="translate(422 -3264)"><circle cx="18" cy="18" r="18" style="stroke: black; stroke-width: 4px; fill: white; fill-opacity: 0.95;"></circle></g><g class="djs-visual" id="Event_1sqrm58_label" transform="translate(391 -3221)"><text lineHeight="1.2" class="djs-label" style="font-family: Arial, sans-serif; font-size: 11px; font-weight: normal; fill: black;"><tspan x="8.713134765625" y="9.899999999999999">Finance amount </tspan><tspan x="0" y="23.099999999999998">cannot be amended</tspan></text></g><g class="djs-visual" id="Event_1l5nlpj" transform="translate(154 -5038)"><circle cx="18" cy="18" r="18" style="stroke: black; stroke-width: 2px; fill: white; fill-opacity: 0.95;"></circle></g><g class="djs-visual" id="Event_1l5nlpj_label" transform="translate(126 -5090)"><text lineHeight="1.2" class="djs-label" style="font-family: Arial, sans-serif; font-size: 11px; font-weight: normal; fill: black;"><tspan x="13.640625" y="9.899999999999999">Asset finance </tspan><tspan x="0" y="23.099999999999998">amount/ term to be</tspan><tspan x="23.2265625" y="36.3">amended</tspan></text></g><g class="djs-visual" id="Activity_0n81g7c" transform="translate(107 -3090)"><rect x="0" y="0" width="130" height="100" rx="10" ry="10" style="stroke: black; stroke-width: 2px; fill: white; fill-opacity: 0.95;"></rect><text lineHeight="1.2" class="djs-label" style="font-family: Arial, sans-serif; font-size: 12px; font-weight: normal; fill: black;"><tspan x="9.6328125" y="53.599999999999994">Update arrangement</tspan></text></g><g class="djs-visual" id="Activity_1ozv070" transform="translate(107 -4810)"><rect x="0" y="0" width="130" height="100" rx="10" ry="10" style="stroke: black; stroke-width: 2px; fill: white; fill-opacity: 0.95;"></rect><text lineHeight="1.2" class="djs-label" style="font-family: Arial, sans-serif; font-size: 12px; font-weight: normal; fill: black;"><tspan x="30.1494140625" y="46.4">List available </tspan><tspan x="30.6474609375" y="60.8">arrangement</tspan></text></g><g class="djs-visual" id="Activity_1rsiq23" transform="translate(107 -4490)"><rect x="0" y="0" width="130" height="100" rx="10" ry="10" style="stroke: black; stroke-width: 2px; fill: white; fill-opacity: 0.95;"></rect><text lineHeight="1.2" class="djs-label" style="font-family: Arial, sans-serif; font-size: 12px; font-weight: normal; fill: black;"><tspan x="5.306640625" y="53.599999999999994">Arrangement overview</tspan></text></g><g class="djs-visual" id="Activity_0zxqhze" transform="translate(107 -3790)"><rect x="0" y="0" width="130" height="100" rx="10" ry="10" style="stroke: black; stroke-width: 2px; fill: white; fill-opacity: 0.95;"></rect><text lineHeight="1.2" class="djs-label" style="font-family: Arial, sans-serif; font-size: 12px; font-weight: normal; fill: black;"><tspan x="11.5458984375" y="46.4">Trigger commitment </tspan><tspan x="46.65625" y="60.8">activity</tspan></text></g><g class="djs-visual" id="Activity_1m2oq1f" transform="translate(107 -4640)"><rect x="0" y="0" width="130" height="100" rx="10" ry="10" style="stroke: black; stroke-width: 2px; fill: white; fill-opacity: 0.95;"></rect><text lineHeight="1.2" class="djs-label" style="font-family: Arial, sans-serif; font-size: 12px; font-weight: normal; fill: black;"><tspan x="12.3046875" y="39.2">Select arrangement </tspan><tspan x="15.96875" y="53.6">to amend financed </tspan><tspan x="44.654296875" y="68">amount</tspan></text></g><g class="djs-visual" id="Activity_0lhfd1o" transform="translate(107 -4330)"><rect x="0" y="0" width="130" height="100" rx="10" ry="10" style="stroke: black; stroke-width: 2px; fill: white; fill-opacity: 0.95;"></rect><text lineHeight="1.2" class="djs-label" style="font-family: Arial, sans-serif; font-size: 12px; font-weight: normal; fill: black;"><tspan x="14.3125" y="53.599999999999994">Select New Activity</tspan></text></g><g class="djs-visual" id="Activity_02hlawl" transform="translate(375 -3400)"><rect x="0" y="0" width="130" height="100" rx="10" ry="10" style="stroke: black; stroke-width: 2px; fill: white; fill-opacity: 0.95;"></rect><text lineHeight="1.2" class="djs-label" style="font-family: Arial, sans-serif; font-size: 12px; font-weight: normal; fill: black;"><tspan x="30.490234375" y="53.599999999999994">Display error</tspan></text></g><g class="djs-visual" id="Gateway_1vud91j" transform="translate(147 -4185)"><polygon points="25,0 50,25 25,50 0,25" style="stroke: black; stroke-width: 2px; fill: white; fill-opacity: 0.95;"></polygon><path d="m 16,15 7.42857142857143,9.714285714285715 -7.42857142857143,9.714285714285715 3.428571428571429,0 5.714285714285715,-7.464228571428572 5.714285714285715,7.464228571428572 3.428571428571429,0 -7.42857142857143,-9.714285714285715 7.42857142857143,-9.714285714285715 -3.428571428571429,0 -5.714285714285715,7.464228571428572 -5.714285714285715,-7.464228571428572 -3.428571428571429,0 z" style="fill: black; stroke-width: 1px; stroke: black;"></path></g><g class="djs-visual" id="Activity_0olyi4m" transform="translate(107 -4050)"><rect x="0" y="0" width="130" height="100" rx="10" ry="10" style="stroke: black; stroke-width: 2px; fill: white; fill-opacity: 0.95;"></rect><text lineHeight="1.2" class="djs-label" style="font-family: Arial, sans-serif; font-size: 12px; font-weight: normal; fill: black;"><tspan x="8.2412109375" y="53.599999999999994">Update effective date</tspan></text></g><g class="djs-visual" id="Activity_0l3o9ln" transform="translate(435 -4050)"><rect x="0" y="0" width="130" height="100" rx="10" ry="10" style="stroke: black; stroke-width: 2px; fill: white; fill-opacity: 0.95;"></rect><text lineHeight="1.2" class="djs-label" style="font-family: Arial, sans-serif; font-size: 12px; font-weight: normal; fill: black;"><tspan x="6.2431640625" y="53.599999999999994">Capture effective date</tspan></text></g><g class="djs-visual" id="Gateway_1f6glix" transform="translate(147 -3905)"><polygon points="25,0 50,25 25,50 0,25" style="stroke: black; stroke-width: 2px; fill: white; fill-opacity: 0.95;"></polygon><path d="m 16,15 7.42857142857143,9.714285714285715 -7.42857142857143,9.714285714285715 3.428571428571429,0 5.714285714285715,-7.464228571428572 5.714285714285715,7.464228571428572 3.428571428571429,0 -7.42857142857143,-9.714285714285715 7.42857142857143,-9.714285714285715 -3.428571428571429,0 -5.714285714285715,7.464228571428572 -5.714285714285715,-7.464228571428572 -3.428571428571429,0 z" style="fill: black; stroke-width: 1px; stroke: black;"></path></g><g class="djs-visual" id="Activity_0m7sjcy" transform="translate(107 -3640)"><rect x="0" y="0" width="130" height="100" rx="10" ry="10" style="stroke: black; stroke-width: 2px; fill: white; fill-opacity: 0.95;"></rect><text lineHeight="1.2" class="djs-label" style="font-family: Arial, sans-serif; font-size: 12px; font-weight: normal; fill: black;"><tspan x="19.40625" y="53.599999999999994">Validate changes</tspan></text></g><g class="djs-visual" id="Activity_09djawx" transform="translate(107 -4960)"><rect x="0" y="0" width="130" height="100" rx="10" ry="10" style="stroke: black; stroke-width: 2px; fill: white; fill-opacity: 0.95;"></rect><text lineHeight="1.2" class="djs-label" style="font-family: Arial, sans-serif; font-size: 12px; font-weight: normal; fill: black;"><tspan x="14.8095703125" y="32">Receive request to </tspan><tspan x="9.638671875" y="46.4">amend amount/ term </tspan><tspan x="14.4697265625" y="60.8">of an asset finance </tspan><tspan x="30.6474609375" y="75.19999999999999">arrangement</tspan></text></g><g class="djs-visual" id="DataObjectReference_1ojj0z8" transform="translate(12 -4935)"><path d="m 0,0 28.23529411764706,0 7.058823529411765,8.196721311475411 0,40.98360655737705 -35.294117647058826,0 0,-49.18032786885246 28.23529411764706,0 0,8.196721311475411 7.058823529411765,0" style="fill: white; stroke-width: 2px; stroke: black; fill-opacity: 0.95;"></path></g><g class="djs-visual" id="DataObjectReference_1ojj0z8_label" transform="translate(-16 -4885)"><text lineHeight="1.2" class="djs-label" style="font-family: Arial, sans-serif; font-size: 11px; font-weight: normal; fill: black;"><tspan x="0" y="9.899999999999999">Customer Request</tspan></text></g><g class="djs-visual" id="TextAnnotation_177ch0s" transform="translate(260 -3260)"><rect x="0" y="0" width="120" height="27" rx="0" ry="0" style="stroke: none; stroke-width: 2px; fill: none;"></rect><path d="m 0, 0 m 10,0 l -10,0 l 0,27 l 10,0" style="fill: none; stroke-width: 2px; stroke: black;"></path><text lineHeight="1.2" class="djs-label" style="font-family: Arial, sans-serif; font-size: 12px; font-weight: normal; fill: black;"><tspan x="5" y="15.799999999999999">Arrangement ID</tspan></text></g><g class="djs-visual" id="TextAnnotation_1oe5ksw" transform="translate(260 -4640)"><rect x="0" y="0" width="110" height="26" rx="0" ry="0" style="stroke: none; stroke-width: 2px; fill: none;"></rect><path d="m 0, 0 m 10,0 l -10,0 l 0,26 l 10,0" style="fill: none; stroke-width: 2px; stroke: black;"></path><text lineHeight="1.2" class="djs-label" style="font-family: Arial, sans-serif; font-size: 12px; font-weight: normal; fill: black;"><tspan x="5" y="15.799999999999999">Arrangement ID</tspan></text></g><g class="djs-visual" id="TextAnnotation_0sr9kcq" transform="translate(540 -3410)"><rect x="0" y="0" width="120" height="41" rx="0" ry="0" style="stroke: none; stroke-width: 2px; fill: none;"></rect><path d="m 0, 0 m 10,0 l -10,0 l 0,41 l 10,0" style="fill: none; stroke-width: 2px; stroke: black;"></path><text lineHeight="1.2" class="djs-label" style="font-family: Arial, sans-serif; font-size: 12px; font-weight: normal; fill: black;"><tspan x="5" y="15.799999999999999">Amend activity </tspan><tspan x="5" y="30.199999999999996">unsuccessful</tspan></text></g><g class="djs-visual" id="TextAnnotation_01klggk" transform="translate(260 -4060)"><rect x="0" y="0" width="135" height="40" rx="0" ry="0" style="stroke: none; stroke-width: 2px; fill: none;"></rect><path d="m 0, 0 m 10,0 l -10,0 l 0,40 l 10,0" style="fill: none; stroke-width: 2px; stroke: black;"></path><text lineHeight="1.2" class="djs-label" style="font-family: Arial, sans-serif; font-size: 12px; font-weight: normal; fill: black;"><tspan x="5" y="15.799999999999999">Today's date defaulted </tspan><tspan x="5" y="30.199999999999996">as effective date</tspan></text></g><g class="djs-visual" id="TextAnnotation_0dsy4h3" transform="translate(260 -3820)"><rect x="0" y="0" width="312" height="70" rx="0" ry="0" style="stroke: none; stroke-width: 2px; fill: none;"></rect><path d="m 0, 0 m 10,0 l -10,0 l 0,70 l 10,0" style="fill: none; stroke-width: 2px; stroke: black;"></path><text lineHeight="1.2" class="djs-label" style="font-family: Arial, sans-serif; font-size: 12px; font-weight: normal; fill: black;"><tspan x="5" y="15.799999999999999">Fields to be updated:</tspan><tspan x="5" y="30.199999999999996">- Change amount (decrease/ increase)</tspan><tspan x="5" y="44.599999999999994">- Term</tspan><tspan x="5" y="58.99999999999999">- On Maturity</tspan></text></g><g class="djs-visual" id="TextAnnotation_0uqy2yq" transform="translate(260 -4350)"><rect x="0" y="0" width="340" height="40" rx="0" ry="0" style="stroke: none; stroke-width: 2px; fill: none;"></rect><path d="m 0, 0 m 10,0 l -10,0 l 0,40 l 10,0" style="fill: none; stroke-width: 2px; stroke: black;"></path><text lineHeight="1.2" class="djs-label" style="font-family: Arial, sans-serif; font-size: 12px; font-weight: normal; fill: black;"><tspan x="5" y="15.799999999999999">"Change term commitment and term" activity triggered</tspan><tspan x="5" y="30.199999999999996">ASSET.FINANCE-INCREASE-LEASECOMMITMENT</tspan></text></g><g class="djs-visual" id="Flow_0vcb63v_label" transform="translate(448 -3444)"><text lineHeight="1.2" class="djs-label" style="font-family: Arial, sans-serif; font-size: 11px; font-weight: normal; fill: black;"><tspan x="8.822265625" y="9.899999999999999">Validation </tspan><tspan x="0" y="23.099999999999998">unsuccessful</tspan></text></g><g class="djs-visual" id="Flow_057hsh2_label" transform="translate(184 -3444)"><text lineHeight="1.2" class="djs-label" style="font-family: Arial, sans-serif; font-size: 11px; font-weight: normal; fill: black;"><tspan x="2.70458984375" y="9.899999999999999">Validation </tspan><tspan x="0" y="23.099999999999998">successful</tspan></text></g><g class="djs-visual" id="Flow_0oe9l5e_label" transform="translate(181 -4125)"><text lineHeight="1.2" class="djs-label" style="font-family: Arial, sans-serif; font-size: 11px; font-weight: normal; fill: black;"><tspan x="0" y="9.899999999999999">'Do activity today' to </tspan><tspan x="20.4375" y="23.099999999999998">be selected</tspan></text></g><g class="djs-visual" id="Flow_007rrup_label" transform="translate(509 -4131)"><text lineHeight="1.2" class="djs-label" style="font-family: Arial, sans-serif; font-size: 11px; font-weight: normal; fill: black;"><tspan x="0" y="9.899999999999999">'Do activity' to be </tspan><tspan x="20.7421875" y="23.099999999999998">selected</tspan></text></g><g class="djs-visual" id="DataInputAssociation_1e0ktqf" transform="translate(0 0)"><polyline points="48,-4910 107,-4910 " style="fill: none; stroke: black; stroke-width: 2px; stroke-dasharray: 0.5, 5; stroke-linecap: round; stroke-linejoin: round; marker-end: url(&quot;#association-end-white-black-5rhlmha5lrci9sgymimb2v0z0&quot;);"></polyline></g><g class="djs-visual" id="Association_1wzgb2s" transform="translate(0 0)"><polyline points="237,-3231 260,-3243 " style="fill: none; stroke: black; stroke-width: 2px; stroke-dasharray: 0.5, 5; stroke-linecap: round; stroke-linejoin: round;"></polyline></g><g class="djs-visual" id="Association_12sqrv4" transform="translate(0 0)"><polyline points="237,-4616 260,-4624 " style="fill: none; stroke: black; stroke-width: 2px; stroke-dasharray: 0.5, 5; stroke-linecap: round; stroke-linejoin: round;"></polyline></g><g class="djs-visual" id="Association_0vc3ty9" transform="translate(0 0)"><polyline points="505,-3369 540,-3380 " style="fill: none; stroke: black; stroke-width: 2px; stroke-dasharray: 0.5, 5; stroke-linecap: round; stroke-linejoin: round;"></polyline></g><g class="djs-visual" id="Association_1anewmy" transform="translate(0 0)"><polyline points="237,-4022 260,-4029 " style="fill: none; stroke: black; stroke-width: 2px; stroke-dasharray: 0.5, 5; stroke-linecap: round; stroke-linejoin: round;"></polyline></g><g class="djs-visual" id="Association_1b2vzc1" transform="translate(0 0)"><polyline points="237,-3764 260,-3774 " style="fill: none; stroke: black; stroke-width: 2px; stroke-dasharray: 0.5, 5; stroke-linecap: round; stroke-linejoin: round;"></polyline></g><g class="djs-visual" id="Association_009l01o" transform="translate(0 0)"><polyline points="237,-4303 260,-4311 " style="fill: none; stroke: black; stroke-width: 2px; stroke-dasharray: 0.5, 5; stroke-linecap: round; stroke-linejoin: round;"></polyline></g></g><g><rect class="viewport" x="-2648.5650684931506" y="-5101.1335616438355" width="5941.780821917809" height="2260.27397260274"></rect></g></svg>