<svg width="100%" height="100%" viewBox="-121, -164, 1835, 2466"><g><g class="djs-visual" id="Flow_1vbc13q" transform="translate(0 0)"><path d="m  670,590L670,642 " style="fill: none; stroke-width: 2px; stroke: black; stroke-linejoin: round; marker-end: url(&quot;#sequenceflow-end-white-black-0fnwz3wddsb8jscgn12jtfdcy&quot;);"></path></g><g class="djs-visual" id="Flow_1uu83zt" transform="translate(0 0)"><path d="m  135,380L670,380 L670,490 " style="fill: none; stroke-width: 2px; stroke: black; stroke-linejoin: round; marker-end: url(&quot;#sequenceflow-end-white-black-0fnwz3wddsb8jscgn12jtfdcy&quot;);"></path></g><g class="djs-visual" id="Flow_1wvru1g" transform="translate(0 0)"><path d="m  800,2040L800,2090 L135,2090 " style="fill: none; stroke-width: 2px; stroke: black; stroke-linejoin: round; marker-end: url(&quot;#sequenceflow-end-white-black-0fnwz3wddsb8jscgn12jtfdcy&quot;);"></path></g><g class="djs-visual" id="Flow_1uuowbd" transform="translate(0 0)"><path d="m  800,1870L800,1940 " style="fill: none; stroke-width: 2px; stroke: black; stroke-linejoin: round; marker-end: url(&quot;#sequenceflow-end-white-black-0fnwz3wddsb8jscgn12jtfdcy&quot;);"></path></g><g class="djs-visual" id="Flow_1105gu4" transform="translate(0 0)"><path d="m  800,1700L800,1770 " style="fill: none; stroke-width: 2px; stroke: black; stroke-linejoin: round; marker-end: url(&quot;#sequenceflow-end-white-black-0fnwz3wddsb8jscgn12jtfdcy&quot;);"></path></g><g class="djs-visual" id="Flow_1igz8aw" transform="translate(0 0)"><path d="m  135,1470L800,1470 L800,1600 " style="fill: none; stroke-width: 2px; stroke: black; stroke-linejoin: round; marker-end: url(&quot;#sequenceflow-end-white-black-0fnwz3wddsb8jscgn12jtfdcy&quot;);"></path></g><g class="djs-visual" id="Flow_0waonkq" transform="translate(0 0)"><path d="m  450,2040L450,2090 L135,2090 " style="fill: none; stroke-width: 2px; stroke: black; stroke-linejoin: round; marker-end: url(&quot;#sequenceflow-end-white-black-0fnwz3wddsb8jscgn12jtfdcy&quot;);"></path></g><g class="djs-visual" id="Flow_1fzj7k8" transform="translate(0 0)"><path d="m  450,1870L450,1940 " style="fill: none; stroke-width: 2px; stroke: black; stroke-linejoin: round; marker-end: url(&quot;#sequenceflow-end-white-black-0fnwz3wddsb8jscgn12jtfdcy&quot;);"></path></g><g class="djs-visual" id="Flow_0qbg261" transform="translate(0 0)"><path d="m  450,1700L450,1770 " style="fill: none; stroke-width: 2px; stroke: black; stroke-linejoin: round; marker-end: url(&quot;#sequenceflow-end-white-black-0fnwz3wddsb8jscgn12jtfdcy&quot;);"></path></g><g class="djs-visual" id="Flow_11rfyvb" transform="translate(0 0)"><path d="m  135,1470L450,1470 L450,1600 " style="fill: none; stroke-width: 2px; stroke: black; stroke-linejoin: round; marker-end: url(&quot;#sequenceflow-end-white-black-0fnwz3wddsb8jscgn12jtfdcy&quot;);"></path></g><g class="djs-visual" id="Flow_0j6hag4" transform="translate(0 0)"><path d="m  110,2115L110,2172 " style="fill: none; stroke-width: 2px; stroke: black; stroke-linejoin: round; marker-end: url(&quot;#sequenceflow-end-white-black-0fnwz3wddsb8jscgn12jtfdcy&quot;);"></path></g><g class="djs-visual" id="Flow_09sp2z8" transform="translate(0 0)"><path d="m  110,1870L110,2065 " style="fill: none; stroke-width: 2px; stroke: black; stroke-linejoin: round; marker-end: url(&quot;#sequenceflow-end-white-black-0fnwz3wddsb8jscgn12jtfdcy&quot;);"></path></g><g class="djs-visual" id="Flow_1t5yq3q" transform="translate(0 0)"><path d="m  110,1700L110,1770 " style="fill: none; stroke-width: 2px; stroke: black; stroke-linejoin: round; marker-end: url(&quot;#sequenceflow-end-white-black-0fnwz3wddsb8jscgn12jtfdcy&quot;);"></path></g><g class="djs-visual" id="Flow_1ys4rk1" transform="translate(0 0)"><path d="m  110,1495L110,1600 " style="fill: none; stroke-width: 2px; stroke: black; stroke-linejoin: round; marker-end: url(&quot;#sequenceflow-end-white-black-0fnwz3wddsb8jscgn12jtfdcy&quot;);"></path></g><g class="djs-visual" id="Flow_1y051yv" transform="translate(0 0)"><path d="m  110,1380L110,1445 " style="fill: none; stroke-width: 2px; stroke: black; stroke-linejoin: round; marker-end: url(&quot;#sequenceflow-end-white-black-0fnwz3wddsb8jscgn12jtfdcy&quot;);"></path></g><g class="djs-visual" id="Flow_0nfks74" transform="translate(0 0)"><path d="m  135,1160L380,1160 L380,1312 " style="fill: none; stroke-width: 2px; stroke: black; stroke-linejoin: round; marker-end: url(&quot;#sequenceflow-end-white-black-0fnwz3wddsb8jscgn12jtfdcy&quot;);"></path></g><g class="djs-visual" id="Flow_14pnt4p" transform="translate(0 0)"><path d="m  110,1185L110,1280 " style="fill: none; stroke-width: 2px; stroke: black; stroke-linejoin: round; marker-end: url(&quot;#sequenceflow-end-white-black-0fnwz3wddsb8jscgn12jtfdcy&quot;);"></path></g><g class="djs-visual" id="Flow_1xi47lb" transform="translate(0 0)"><path d="m  110,1070L110,1135 " style="fill: none; stroke-width: 2px; stroke: black; stroke-linejoin: round; marker-end: url(&quot;#sequenceflow-end-white-black-0fnwz3wddsb8jscgn12jtfdcy&quot;);"></path></g><g class="djs-visual" id="Flow_06zhx0p" transform="translate(0 0)"><path d="m  110,900L110,970 " style="fill: none; stroke-width: 2px; stroke: black; stroke-linejoin: round; marker-end: url(&quot;#sequenceflow-end-white-black-0fnwz3wddsb8jscgn12jtfdcy&quot;);"></path></g><g class="djs-visual" id="Flow_0hztw36" transform="translate(0 0)"><path d="m  110,740L110,800 " style="fill: none; stroke-width: 2px; stroke: black; stroke-linejoin: round; marker-end: url(&quot;#sequenceflow-end-white-black-0fnwz3wddsb8jscgn12jtfdcy&quot;);"></path></g><g class="djs-visual" id="Flow_12p9f2t" transform="translate(0 0)"><path d="m  110,580L110,640 " style="fill: none; stroke-width: 2px; stroke: black; stroke-linejoin: round; marker-end: url(&quot;#sequenceflow-end-white-black-0fnwz3wddsb8jscgn12jtfdcy&quot;);"></path></g><g class="djs-visual" id="Flow_127ffsc" transform="translate(0 0)"><path d="m  110,405L110,480 " style="fill: none; stroke-width: 2px; stroke: black; stroke-linejoin: round; marker-end: url(&quot;#sequenceflow-end-white-black-0fnwz3wddsb8jscgn12jtfdcy&quot;);"></path></g><g class="djs-visual" id="Flow_0mfq6nm" transform="translate(0 0)"><path d="m  110,290L110,355 " style="fill: none; stroke-width: 2px; stroke: black; stroke-linejoin: round; marker-end: url(&quot;#sequenceflow-end-white-black-0fnwz3wddsb8jscgn12jtfdcy&quot;);"></path></g><g class="djs-visual" id="Flow_15u8kr3" transform="translate(0 0)"><path d="m  110,130L110,190 " style="fill: none; stroke-width: 2px; stroke: black; stroke-linejoin: round; marker-end: url(&quot;#sequenceflow-end-white-black-0fnwz3wddsb8jscgn12jtfdcy&quot;);"></path></g><g class="djs-visual" id="Flow_1ktcr2h" transform="translate(0 0)"><path d="m  110,-22L110,30 " style="fill: none; stroke-width: 2px; stroke: black; stroke-linejoin: round; marker-end: url(&quot;#sequenceflow-end-white-black-0fnwz3wddsb8jscgn12jtfdcy&quot;);"></path></g><g class="djs-visual" id="StartEvent_1bm324f" transform="translate(92 -58)"><circle cx="18" cy="18" r="18" style="stroke: black; stroke-width: 2px; fill: white; fill-opacity: 0.95;"></circle></g><g class="djs-visual" id="StartEvent_1bm324f_label" transform="translate(61 -108)"><text lineHeight="1.2" class="djs-label" style="font-family: Arial, sans-serif; font-size: 11px; font-weight: normal; fill: black;"><tspan x="0" y="9.899999999999999">Mudaraba deposit to </tspan><tspan x="6.79541015625" y="23.099999999999998">be matured (early </tspan><tspan x="28.589599609375" y="36.3">maturity)</tspan></text></g><g class="djs-visual" id="Activity_0r4sk71" transform="translate(45 30)"><rect x="0" y="0" width="130" height="100" rx="10" ry="10" style="stroke: black; stroke-width: 2px; fill: white; fill-opacity: 0.95;"></rect><text lineHeight="1.2" class="djs-label" style="font-family: Arial, sans-serif; font-size: 12px; font-weight: normal; fill: black;"><tspan x="18.482421875" y="32">Receive &amp; review </tspan><tspan x="31.318359375" y="46.4">request from </tspan><tspan x="15.6484375" y="60.8">Customer for early </tspan><tspan x="45.4951171875" y="75.19999999999999">closure</tspan></text></g><g class="djs-visual" id="DataObjectReference_1khmh9i" transform="translate(-38 55)"><path d="m 0,0 28.23529411764706,0 7.058823529411765,8.196721311475411 0,40.98360655737705 -35.294117647058826,0 0,-49.18032786885246 28.23529411764706,0 0,8.196721311475411 7.058823529411765,0" style="fill: white; stroke-width: 2px; stroke: black; fill-opacity: 0.95;"></path></g><g class="djs-visual" id="DataObjectReference_1khmh9i_label" transform="translate(-65 115)"><text lineHeight="1.2" class="djs-label" style="font-family: Arial, sans-serif; font-size: 11px; font-weight: normal; fill: black;"><tspan x="0" y="9.899999999999999">Request Letter for </tspan><tspan x="11.677001953125" y="23.099999999999998">Early Closure</tspan></text></g><g class="djs-visual" id="Activity_03as7c3" transform="translate(45 190)"><rect x="0" y="0" width="130" height="100" rx="10" ry="10" style="stroke: black; stroke-width: 2px; fill: white; fill-opacity: 0.95;"></rect><text lineHeight="1.2" class="djs-label" style="font-family: Arial, sans-serif; font-size: 12px; font-weight: normal; fill: black;"><tspan x="31.9794921875" y="46.4">Authenticate </tspan><tspan x="38.4912109375" y="60.8">Customer</tspan></text></g><g class="djs-visual" id="Gateway_0tj05y5" transform="translate(85 355)"><polygon points="25,0 50,25 25,50 0,25" style="stroke: black; stroke-width: 2px; fill: white; fill-opacity: 0.95;"></polygon><path d="m 16,15 7.42857142857143,9.714285714285715 -7.42857142857143,9.714285714285715 3.428571428571429,0 5.714285714285715,-7.464228571428572 5.714285714285715,7.464228571428572 3.428571428571429,0 -7.42857142857143,-9.714285714285715 7.42857142857143,-9.714285714285715 -3.428571428571429,0 -5.714285714285715,7.464228571428572 -5.714285714285715,-7.464228571428572 -3.428571428571429,0 z" style="fill: black; stroke-width: 1px; stroke: black;"></path></g><g class="djs-visual" id="Activity_0dkqhgt" transform="translate(45 480)"><rect x="0" y="0" width="130" height="100" rx="10" ry="10" style="stroke: black; stroke-width: 2px; fill: white; fill-opacity: 0.95;"></rect><text lineHeight="1.2" class="djs-label" style="font-family: Arial, sans-serif; font-size: 12px; font-weight: normal; fill: black;"><tspan x="19.4765625" y="46.4">Select Mudaraba </tspan><tspan x="6.7998046875" y="60.8">deposit to be matured</tspan></text></g><g class="djs-visual" id="Activity_0ao3yau" transform="translate(45 640)"><rect x="0" y="0" width="130" height="100" rx="10" ry="10" style="stroke: black; stroke-width: 2px; fill: white; fill-opacity: 0.95;"></rect><text lineHeight="1.2" class="djs-label" style="font-family: Arial, sans-serif; font-size: 12px; font-weight: normal; fill: black;"><tspan x="15.47265625" y="46.4">Capture details for </tspan><tspan x="37.8251953125" y="60.8">simulation</tspan></text></g><g class="djs-visual" id="Activity_0ki4tuj" transform="translate(45 800)"><rect x="0" y="0" width="130" height="100" rx="10" ry="10" style="stroke: black; stroke-width: 2px; fill: white; fill-opacity: 0.95;"></rect><text lineHeight="1.2" class="djs-label" style="font-family: Arial, sans-serif; font-size: 12px; font-weight: normal; fill: black;"><tspan x="14.8212890625" y="53.599999999999994">Perform simulation</tspan></text></g><g class="djs-visual" id="Activity_1gf2bqv" transform="translate(45 970)"><rect x="0" y="0" width="130" height="100" rx="10" ry="10" style="stroke: black; stroke-width: 2px; fill: white; fill-opacity: 0.95;"></rect><text lineHeight="1.2" class="djs-label" style="font-family: Arial, sans-serif; font-size: 12px; font-weight: normal; fill: black;"><tspan x="15.4775390625" y="46.4">Enquire simulation </tspan><tspan x="49.9951171875" y="60.8">result</tspan></text></g><g class="djs-visual" id="Gateway_0ugwsy9" transform="translate(85 1135)"><polygon points="25,0 50,25 25,50 0,25" style="stroke: black; stroke-width: 2px; fill: white; fill-opacity: 0.95;"></polygon><path d="m 16,15 7.42857142857143,9.714285714285715 -7.42857142857143,9.714285714285715 3.428571428571429,0 5.714285714285715,-7.464228571428572 5.714285714285715,7.464228571428572 3.428571428571429,0 -7.42857142857143,-9.714285714285715 7.42857142857143,-9.714285714285715 -3.428571428571429,0 -5.714285714285715,7.464228571428572 -5.714285714285715,-7.464228571428572 -3.428571428571429,0 z" style="fill: black; stroke-width: 1px; stroke: black;"></path></g><g class="djs-visual" id="Activity_1is2use" transform="translate(45 1280)"><rect x="0" y="0" width="130" height="100" rx="10" ry="10" style="stroke: black; stroke-width: 2px; fill: white; fill-opacity: 0.95;"></rect><text lineHeight="1.2" class="djs-label" style="font-family: Arial, sans-serif; font-size: 12px; font-weight: normal; fill: black;"><tspan x="17.9208984375" y="46.4">View Redemption </tspan><tspan x="37.318359375" y="60.8">Statement</tspan></text></g><g class="djs-visual" id="Event_15f2fpl" transform="translate(362 1312)"><circle cx="18" cy="18" r="18" style="stroke: black; stroke-width: 4px; fill: white; fill-opacity: 0.95;"></circle></g><g class="djs-visual" id="Event_15f2fpl_label" transform="translate(340 1358)"><text lineHeight="1.2" class="djs-label" style="font-family: Arial, sans-serif; font-size: 11px; font-weight: normal; fill: black;"><tspan x="0" y="9.899999999999999">Early withdrawal </tspan><tspan x="8.210205078125" y="23.099999999999998">request to be </tspan><tspan x="21.663330078125" y="36.3">aborted</tspan></text></g><g class="djs-visual" id="Gateway_1ptdt19" transform="translate(85 1445)"><polygon points="25,0 50,25 25,50 0,25" style="stroke: black; stroke-width: 2px; fill: white; fill-opacity: 0.95;"></polygon><path d="m 16,15 7.42857142857143,9.714285714285715 -7.42857142857143,9.714285714285715 3.428571428571429,0 5.714285714285715,-7.464228571428572 5.714285714285715,7.464228571428572 3.428571428571429,0 -7.42857142857143,-9.714285714285715 7.42857142857143,-9.714285714285715 -3.428571428571429,0 -5.714285714285715,7.464228571428572 -5.714285714285715,-7.464228571428572 -3.428571428571429,0 z" style="fill: black; stroke-width: 1px; stroke: black;"></path></g><g class="djs-visual" id="Activity_03cf9n3" transform="translate(45 1600)"><rect x="0" y="0" width="130" height="100" rx="10" ry="10" style="stroke: black; stroke-width: 2px; fill: white; fill-opacity: 0.95;"></rect><text lineHeight="1.2" class="djs-label" style="font-family: Arial, sans-serif; font-size: 12px; font-weight: normal; fill: black;"><tspan x="12.97265625" y="46.4">Capture Settlement </tspan><tspan x="43.4873046875" y="60.8">Account</tspan></text></g><g class="djs-visual" id="Activity_1gxtk9s" transform="translate(45 1770)"><rect x="0" y="0" width="130" height="100" rx="10" ry="10" style="stroke: black; stroke-width: 2px; fill: white; fill-opacity: 0.95;"></rect><text lineHeight="1.2" class="djs-label" style="font-family: Arial, sans-serif; font-size: 12px; font-weight: normal; fill: black;"><tspan x="9.1318359375" y="46.4">Generate accounting </tspan><tspan x="46.984375" y="60.8">entries</tspan></text></g><g class="djs-visual" id="Gateway_02e7mow" transform="translate(85 2065)"><polygon points="25,0 50,25 25,50 0,25" style="stroke: black; stroke-width: 2px; fill: white; fill-opacity: 0.95;"></polygon><path d="m 16,15 7.42857142857143,9.714285714285715 -7.42857142857143,9.714285714285715 3.428571428571429,0 5.714285714285715,-7.464228571428572 5.714285714285715,7.464228571428572 3.428571428571429,0 -7.42857142857143,-9.714285714285715 7.42857142857143,-9.714285714285715 -3.428571428571429,0 -5.714285714285715,7.464228571428572 -5.714285714285715,-7.464228571428572 -3.428571428571429,0 z" style="fill: black; stroke-width: 1px; stroke: black;"></path></g><g class="djs-visual" id="Event_04zfn7e" transform="translate(92 2172)"><circle cx="18" cy="18" r="18" style="stroke: black; stroke-width: 4px; fill: white; fill-opacity: 0.95;"></circle></g><g class="djs-visual" id="Event_04zfn7e_label" transform="translate(63 2219)"><text lineHeight="1.2" class="djs-label" style="font-family: Arial, sans-serif; font-size: 11px; font-weight: normal; fill: black;"><tspan x="13.82763671875" y="9.899999999999999">Early maturity </tspan><tspan x="0" y="23.099999999999998">payment performed</tspan></text></g><g class="djs-visual" id="Activity_0ufxf2z" transform="translate(385 1600)"><rect x="0" y="0" width="130" height="100" rx="10" ry="10" style="stroke: black; stroke-width: 2px; fill: white; fill-opacity: 0.95;"></rect><text lineHeight="1.2" class="djs-label" style="font-family: Arial, sans-serif; font-size: 12px; font-weight: normal; fill: black;"><tspan x="33.15234375" y="53.599999999999994">Repay cash</tspan></text></g><g class="djs-visual" id="Activity_1mk72qs" transform="translate(385 1770)"><rect x="0" y="0" width="130" height="100" rx="10" ry="10" style="stroke: black; stroke-width: 2px; fill: white; fill-opacity: 0.95;"></rect><text lineHeight="1.2" class="djs-label" style="font-family: Arial, sans-serif; font-size: 12px; font-weight: normal; fill: black;"><tspan x="25.6484375" y="46.4">Authorise cash </tspan><tspan x="36.3193359375" y="60.8">repayment</tspan></text></g><g class="djs-visual" id="Activity_0o2r6s8" transform="translate(385 1940)"><rect x="0" y="0" width="130" height="100" rx="10" ry="10" style="stroke: black; stroke-width: 2px; fill: white; fill-opacity: 0.95;"></rect><text lineHeight="1.2" class="djs-label" style="font-family: Arial, sans-serif; font-size: 12px; font-weight: normal; fill: black;"><tspan x="9.1318359375" y="46.4">Generate accounting </tspan><tspan x="46.984375" y="60.8">entries</tspan></text></g><g class="djs-visual" id="Activity_1wc414v" transform="translate(735 1600)"><rect x="0" y="0" width="130" height="100" rx="10" ry="10" style="stroke: black; stroke-width: 2px; fill: white; fill-opacity: 0.95;"></rect><text lineHeight="1.2" class="djs-label" style="font-family: Arial, sans-serif; font-size: 12px; font-weight: normal; fill: black;"><tspan x="26.5390625" y="53.599999999999994">Transfer funds</tspan></text></g><g class="djs-visual" id="Activity_0k7e89z" transform="translate(735 1770)"><rect x="0" y="0" width="130" height="100" rx="10" ry="10" style="stroke: black; stroke-width: 2px; fill: white; fill-opacity: 0.95;"></rect><text lineHeight="1.2" class="djs-label" style="font-family: Arial, sans-serif; font-size: 12px; font-weight: normal; fill: black;"><tspan x="23.8046875" y="46.4">Authorise funds </tspan><tspan x="14.8115234375" y="60.8">transfer repayment</tspan></text></g><g class="djs-visual" id="Activity_1m3qugd" transform="translate(735 1940)"><rect x="0" y="0" width="130" height="100" rx="10" ry="10" style="stroke: black; stroke-width: 2px; fill: white; fill-opacity: 0.95;"></rect><text lineHeight="1.2" class="djs-label" style="font-family: Arial, sans-serif; font-size: 12px; font-weight: normal; fill: black;"><tspan x="9.1318359375" y="46.4">Generate accounting </tspan><tspan x="46.984375" y="60.8">entries</tspan></text></g><g class="djs-visual" id="Activity_1mr2dab" transform="translate(605 490)"><rect x="0" y="0" width="130" height="100" rx="10" ry="10" style="stroke: black; stroke-width: 2px; fill: white; fill-opacity: 0.95;"></rect><text lineHeight="1.2" class="djs-label" style="font-family: Arial, sans-serif; font-size: 12px; font-weight: normal; fill: black;"><tspan x="19.8203125" y="39.2">Inform Customer </tspan><tspan x="13.466796875" y="53.6">about unsuccessful </tspan><tspan x="27.474609375" y="68">authentication</tspan></text></g><g class="djs-visual" id="Event_18olyx6" transform="translate(652 642)"><circle cx="18" cy="18" r="18" style="stroke: black; stroke-width: 4px; fill: white; fill-opacity: 0.95;"></circle></g><g class="djs-visual" id="Event_18olyx6_label" transform="translate(623 689)"><text lineHeight="1.2" class="djs-label" style="font-family: Arial, sans-serif; font-size: 11px; font-weight: normal; fill: black;"><tspan x="0" y="9.899999999999999">Customer informed </tspan><tspan x="18.328125" y="23.099999999999998">about failed </tspan><tspan x="12.5234375" y="36.3">authentication</tspan></text></g><g class="djs-visual" id="TextAnnotation_064g9jv" transform="translate(200 190)"><rect x="0" y="0" width="168" height="30" rx="0" ry="0" style="stroke: none; stroke-width: 2px; fill: none;"></rect><path d="m 0, 0 m 10,0 l -10,0 l 0,30 l 10,0" style="fill: none; stroke-width: 2px; stroke: black;"></path><text lineHeight="1.2" class="djs-label" style="font-family: Arial, sans-serif; font-size: 12px; font-weight: normal; fill: black;"><tspan x="5" y="15.799999999999999">Incl. Mandates/ Signatories</tspan></text></g><g class="djs-visual" id="TextAnnotation_1nfewc7" transform="translate(240 520)"><rect x="0" y="0" width="330" height="214" rx="0" ry="0" style="stroke: none; stroke-width: 2px; fill: none;"></rect><path d="m 0, 0 m 10,0 l -10,0 l 0,214 l 10,0" style="fill: none; stroke-width: 2px; stroke: black;"></path><text lineHeight="1.2" class="djs-label" style="font-family: Arial, sans-serif; font-size: 12px; font-weight: normal; fill: black;"><tspan x="5" y="15.799999999999999">Details captured:</tspan><tspan x="5" y="30.199999999999996">- Capture Redemption Date (effective date)</tspan><tspan x="5" y="44.599999999999994">can be a future date also</tspan><tspan x="5" y="58.99999999999999">- Manual Profit Rate or Auto Profit Recalculation</tspan><tspan x="5" y="73.39999999999999">(Auto Profit recalculation to be set as "Yes",</tspan><tspan x="5" y="87.79999999999998">If ID.PRECLOSE.CUSTOMISE is configured)</tspan><tspan x="5" y="102.19999999999999">- Recalc Profit (If set to Yes capture below additional fields)</tspan><tspan x="5" y="116.6">- Recalc From</tspan><tspan x="5" y="131">- Recalc To</tspan><tspan x="5" y="145.4">- Include Last Period Profit</tspan><tspan x="5" y="159.8">- Recalc Rate Type</tspan><tspan x="5" y="174.20000000000002">- Recalc Profit Method</tspan><tspan x="5" y="188.60000000000002">- Apply Broken EM Deposit Rate</tspan><tspan x="5" y="203.00000000000003">(Can be configured in ID.PDS.WEIGHT table)</tspan></text></g><g class="djs-visual" id="TextAnnotation_199onpa" transform="translate(200 1730)"><rect x="0" y="0" width="142" height="40" rx="0" ry="0" style="stroke: none; stroke-width: 2px; fill: none;"></rect><path d="m 0, 0 m 10,0 l -10,0 l 0,40 l 10,0" style="fill: none; stroke-width: 2px; stroke: black;"></path><text lineHeight="1.2" class="djs-label" style="font-family: Arial, sans-serif; font-size: 12px; font-weight: normal; fill: black;"><tspan x="5" y="15.799999999999999">Dr Deposit account</tspan><tspan x="5" y="30.199999999999996">Cr Customer account</tspan></text></g><g class="djs-visual" id="TextAnnotation_0cn9afm" transform="translate(550 1910)"><rect x="0" y="0" width="140" height="41" rx="0" ry="0" style="stroke: none; stroke-width: 2px; fill: none;"></rect><path d="m 0, 0 m 10,0 l -10,0 l 0,41 l 10,0" style="fill: none; stroke-width: 2px; stroke: black;"></path><text lineHeight="1.2" class="djs-label" style="font-family: Arial, sans-serif; font-size: 12px; font-weight: normal; fill: black;"><tspan x="5" y="15.799999999999999">Dr Cash&nbsp;</tspan><tspan x="5" y="30.199999999999996">Cr Customer account</tspan></text></g><g class="djs-visual" id="TextAnnotation_0vb5jvp" transform="translate(900 1914)"><rect x="0" y="0" width="130" height="34" rx="0" ry="0" style="stroke: none; stroke-width: 2px; fill: none;"></rect><path d="m 0, 0 m 10,0 l -10,0 l 0,34 l 10,0" style="fill: none; stroke-width: 2px; stroke: black;"></path><text lineHeight="1.2" class="djs-label" style="font-family: Arial, sans-serif; font-size: 12px; font-weight: normal; fill: black;"><tspan x="5" y="15.799999999999999">Dr Deposit account </tspan><tspan x="5" y="30.199999999999996">Cr Customer account</tspan></text></g><g class="djs-visual" id="DataInputAssociation_1vo6wsl" transform="translate(0 0)"><polyline points="-2,80 45,80 " style="fill: none; stroke: black; stroke-width: 2px; stroke-dasharray: 0.5, 5; stroke-linecap: round; stroke-linejoin: round; marker-end: url(&quot;#association-end-white-black-0fnwz3wddsb8jscgn12jtfdcy&quot;);"></polyline></g><g class="djs-visual" id="Flow_127ffsc_label" transform="translate(119 423)"><text lineHeight="1.2" class="djs-label" style="font-family: Arial, sans-serif; font-size: 11px; font-weight: normal; fill: black;"><tspan x="8.523193359375" y="9.899999999999999">Customer </tspan><tspan x="0" y="23.099999999999998">authenticated</tspan></text></g><g class="djs-visual" id="Flow_14pnt4p_label" transform="translate(121 1209)"><text lineHeight="1.2" class="djs-label" style="font-family: Arial, sans-serif; font-size: 11px; font-weight: normal; fill: black;"><tspan x="0" y="9.899999999999999">Early withdrawal </tspan><tspan x="8.210205078125" y="23.099999999999998">request to be </tspan><tspan x="23.694580078125" y="36.3">fulfilled</tspan></text></g><g class="djs-visual" id="Flow_1ys4rk1_label" transform="translate(131 1518)"><text lineHeight="1.2" class="djs-label" style="font-family: Arial, sans-serif; font-size: 11px; font-weight: normal; fill: black;"><tspan x="0" y="9.899999999999999">Repayment through </tspan><tspan x="0.451416015625" y="23.099999999999998">Settlement Account</tspan></text></g><g class="djs-visual" id="Flow_11rfyvb_label" transform="translate(458 1518)"><text lineHeight="1.2" class="djs-label" style="font-family: Arial, sans-serif; font-size: 11px; font-weight: normal; fill: black;"><tspan x="0" y="9.899999999999999">Cash (Teller) </tspan><tspan x="9.775390625" y="23.099999999999998">payment</tspan></text></g><g class="djs-visual" id="Flow_1igz8aw_label" transform="translate(810 1533)"><text lineHeight="1.2" class="djs-label" style="font-family: Arial, sans-serif; font-size: 11px; font-weight: normal; fill: black;"><tspan x="0" y="9.899999999999999">Funds transfer</tspan></text></g><g class="djs-visual" id="Flow_1uu83zt_label" transform="translate(686 423)"><text lineHeight="1.2" class="djs-label" style="font-family: Arial, sans-serif; font-size: 11px; font-weight: normal; fill: black;"><tspan x="0" y="9.899999999999999">Customer not </tspan><tspan x="0.4541015625" y="23.099999999999998">authenticated</tspan></text></g><g class="djs-visual" id="Association_0mz6c5k" transform="translate(0 0)"><polyline points="175,218 200,209 " style="fill: none; stroke: black; stroke-width: 2px; stroke-dasharray: 0.5, 5; stroke-linecap: round; stroke-linejoin: round;"></polyline></g><g class="djs-visual" id="Association_0w6qatd" transform="translate(0 0)"><polyline points="175,651 240,613 " style="fill: none; stroke: black; stroke-width: 2px; stroke-dasharray: 0.5, 5; stroke-linecap: round; stroke-linejoin: round;"></polyline></g><g class="djs-visual" id="Association_1ubav6o" transform="translate(0 0)"><polyline points="172,1773 200,1751 " style="fill: none; stroke: black; stroke-width: 2px; stroke-dasharray: 0.5, 5; stroke-linecap: round; stroke-linejoin: round;"></polyline></g><g class="djs-visual" id="Association_0w3u47b" transform="translate(0 0)"><polyline points="865,1950 900,1928 " style="fill: none; stroke: black; stroke-width: 2px; stroke-dasharray: 0.5, 5; stroke-linecap: round; stroke-linejoin: round;"></polyline></g><g class="djs-visual" id="Association_1w2kk3j" transform="translate(0 0)"><polyline points="514,1947 550,1924 " style="fill: none; stroke: black; stroke-width: 2px; stroke-dasharray: 0.5, 5; stroke-linecap: round; stroke-linejoin: round;"></polyline></g></g><g><rect class="viewport" x="-2626.9032258064512" y="-113.98207885304657" width="6218.637992831541" height="2365.5913978494623"></rect></g></svg>