<svg width="100%" height="100%" viewBox="-167, -104, 1835, 2403"><g><g class="djs-visual" id="Flow_0revg60" transform="translate(0 0)"><path d="m  640,1730L640,1790 " style="fill: none; stroke-width: 2px; stroke: black; stroke-linejoin: round; marker-end: url(&quot;#sequenceflow-end-white-black-9uj9tq0hrxrh0tgejq4456ga4&quot;);"></path></g><g class="djs-visual" id="Flow_06hodgw" transform="translate(0 0)"><path d="m  640,1580L640,1630 " style="fill: none; stroke-width: 2px; stroke: black; stroke-linejoin: round; marker-end: url(&quot;#sequenceflow-end-white-black-9uj9tq0hrxrh0tgejq4456ga4&quot;);"></path></g><g class="djs-visual" id="Flow_09t5j7m" transform="translate(0 0)"><path d="m  60,1175L60,1220 " style="fill: none; stroke-width: 2px; stroke: black; stroke-linejoin: round; marker-end: url(&quot;#sequenceflow-end-white-black-9uj9tq0hrxrh0tgejq4456ga4&quot;);"></path></g><g class="djs-visual" id="Flow_10y38jn" transform="translate(0 0)"><path d="m  640,900L640,950 " style="fill: none; stroke-width: 2px; stroke: black; stroke-linejoin: round; marker-end: url(&quot;#sequenceflow-end-white-black-9uj9tq0hrxrh0tgejq4456ga4&quot;);"></path></g><g class="djs-visual" id="Flow_00pun0o" transform="translate(0 0)"><path d="m  640,760L640,800 " style="fill: none; stroke-width: 2px; stroke: black; stroke-linejoin: round; marker-end: url(&quot;#sequenceflow-end-white-black-9uj9tq0hrxrh0tgejq4456ga4&quot;);"></path></g><g class="djs-visual" id="Flow_0rqrh7r" transform="translate(0 0)"><path d="m  340,760L340,810 " style="fill: none; stroke-width: 2px; stroke: black; stroke-linejoin: round; marker-end: url(&quot;#sequenceflow-end-white-black-9uj9tq0hrxrh0tgejq4456ga4&quot;);"></path></g><g class="djs-visual" id="Flow_0ieey81" transform="translate(0 0)"><path d="m  85,2060L320,2060 L320,2162 " style="fill: none; stroke-width: 2px; stroke: black; stroke-linejoin: round; marker-end: url(&quot;#sequenceflow-end-white-black-9uj9tq0hrxrh0tgejq4456ga4&quot;);"></path></g><g class="djs-visual" id="Flow_0isrkcx" transform="translate(0 0)"><path d="m  85,2060L190,2060 L190,2162 " style="fill: none; stroke-width: 2px; stroke: black; stroke-linejoin: round; marker-end: url(&quot;#sequenceflow-end-white-black-9uj9tq0hrxrh0tgejq4456ga4&quot;);"></path></g><g class="djs-visual" id="Flow_0dm7n0d" transform="translate(0 0)"><path d="m  60,2085L60,2162 " style="fill: none; stroke-width: 2px; stroke: black; stroke-linejoin: round; marker-end: url(&quot;#sequenceflow-end-white-black-9uj9tq0hrxrh0tgejq4456ga4&quot;);"></path></g><g class="djs-visual" id="Flow_1xjmgzv" transform="translate(0 0)"><path d="m  60,1860L60,2035 " style="fill: none; stroke-width: 2px; stroke: black; stroke-linejoin: round; marker-end: url(&quot;#sequenceflow-end-white-black-9uj9tq0hrxrh0tgejq4456ga4&quot;);"></path></g><g class="djs-visual" id="Flow_0kw3gfa" transform="translate(0 0)"><path d="m  60,1675L60,1760 " style="fill: none; stroke-width: 2px; stroke: black; stroke-linejoin: round; marker-end: url(&quot;#sequenceflow-end-white-black-9uj9tq0hrxrh0tgejq4456ga4&quot;);"></path></g><g class="djs-visual" id="Flow_11xyk23" transform="translate(0 0)"><path d="m  85,1650L460,1650 L460,1792 " style="fill: none; stroke-width: 2px; stroke: black; stroke-linejoin: round; marker-end: url(&quot;#sequenceflow-end-white-black-9uj9tq0hrxrh0tgejq4456ga4&quot;);"></path></g><g class="djs-visual" id="Flow_07xgbfw" transform="translate(0 0)"><path d="m  60,1425L60,1480 " style="fill: none; stroke-width: 2px; stroke: black; stroke-linejoin: round; marker-end: url(&quot;#sequenceflow-end-white-black-9uj9tq0hrxrh0tgejq4456ga4&quot;);"></path></g><g class="djs-visual" id="Flow_1kge4ev" transform="translate(0 0)"><path d="m  85,1400L640,1400 L640,1480 " style="fill: none; stroke-width: 2px; stroke: black; stroke-linejoin: round; marker-end: url(&quot;#sequenceflow-end-white-black-9uj9tq0hrxrh0tgejq4456ga4&quot;);"></path></g><g class="djs-visual" id="Flow_0nlraxx" transform="translate(0 0)"><path d="m  640,1890L640,1962 " style="fill: none; stroke-width: 2px; stroke: black; stroke-linejoin: round; marker-end: url(&quot;#sequenceflow-end-white-black-9uj9tq0hrxrh0tgejq4456ga4&quot;);"></path></g><g class="djs-visual" id="Flow_10wus3t" transform="translate(0 0)"><path d="m  60,1580L60,1625 " style="fill: none; stroke-width: 2px; stroke: black; stroke-linejoin: round; marker-end: url(&quot;#sequenceflow-end-white-black-9uj9tq0hrxrh0tgejq4456ga4&quot;);"></path></g><g class="djs-visual" id="Flow_1m0ic5e" transform="translate(0 0)"><path d="m  60,1320L60,1375 " style="fill: none; stroke-width: 2px; stroke: black; stroke-linejoin: round; marker-end: url(&quot;#sequenceflow-end-white-black-9uj9tq0hrxrh0tgejq4456ga4&quot;);"></path></g><g class="djs-visual" id="Flow_0tvmoqc" transform="translate(0 0)"><path d="m  640,1050L640,1150 L85,1150 " style="fill: none; stroke-width: 2px; stroke: black; stroke-linejoin: round; marker-end: url(&quot;#sequenceflow-end-white-black-9uj9tq0hrxrh0tgejq4456ga4&quot;);"></path></g><g class="djs-visual" id="Flow_17h3c32" transform="translate(0 0)"><path d="m  340,910L340,1150 L85,1150 " style="fill: none; stroke-width: 2px; stroke: black; stroke-linejoin: round; marker-end: url(&quot;#sequenceflow-end-white-black-9uj9tq0hrxrh0tgejq4456ga4&quot;);"></path></g><g class="djs-visual" id="Flow_091uwd8" transform="translate(0 0)"><path d="m  60,760L60,1125 " style="fill: none; stroke-width: 2px; stroke: black; stroke-linejoin: round; marker-end: url(&quot;#sequenceflow-end-white-black-9uj9tq0hrxrh0tgejq4456ga4&quot;);"></path></g><g class="djs-visual" id="Flow_0zp77sm" transform="translate(0 0)"><path d="m  85,580L640,580 L640,660 " style="fill: none; stroke-width: 2px; stroke: black; stroke-linejoin: round; marker-end: url(&quot;#sequenceflow-end-white-black-9uj9tq0hrxrh0tgejq4456ga4&quot;);"></path></g><g class="djs-visual" id="Flow_1xy6pm3" transform="translate(0 0)"><path d="m  85,580L340,580 L340,660 " style="fill: none; stroke-width: 2px; stroke: black; stroke-linejoin: round; marker-end: url(&quot;#sequenceflow-end-white-black-9uj9tq0hrxrh0tgejq4456ga4&quot;);"></path></g><g class="djs-visual" id="Flow_0sbp9e8" transform="translate(0 0)"><path d="m  60,605L60,660 " style="fill: none; stroke-width: 2px; stroke: black; stroke-linejoin: round; marker-end: url(&quot;#sequenceflow-end-white-black-9uj9tq0hrxrh0tgejq4456ga4&quot;);"></path></g><g class="djs-visual" id="Flow_0p86z46" transform="translate(0 0)"><path d="m  60,510L60,555 " style="fill: none; stroke-width: 2px; stroke: black; stroke-linejoin: round; marker-end: url(&quot;#sequenceflow-end-white-black-9uj9tq0hrxrh0tgejq4456ga4&quot;);"></path></g><g class="djs-visual" id="Flow_1nmbazf" transform="translate(0 0)"><path d="m  60,340L60,410 " style="fill: none; stroke-width: 2px; stroke: black; stroke-linejoin: round; marker-end: url(&quot;#sequenceflow-end-white-black-9uj9tq0hrxrh0tgejq4456ga4&quot;);"></path></g><g class="djs-visual" id="Flow_074uw51" transform="translate(0 0)"><path d="m  60,190L60,240 " style="fill: none; stroke-width: 2px; stroke: black; stroke-linejoin: round; marker-end: url(&quot;#sequenceflow-end-white-black-9uj9tq0hrxrh0tgejq4456ga4&quot;);"></path></g><g class="djs-visual" id="Flow_1dazvug" transform="translate(0 0)"><path d="m  60,18L60,90 " style="fill: none; stroke-width: 2px; stroke: black; stroke-linejoin: round; marker-end: url(&quot;#sequenceflow-end-white-black-9uj9tq0hrxrh0tgejq4456ga4&quot;);"></path></g><g class="djs-visual" id="StartEvent_1bm324f" transform="translate(42 -18)"><circle cx="18" cy="18" r="18" style="stroke: black; stroke-width: 2px; fill: white; fill-opacity: 0.95;"></circle></g><g class="djs-visual" id="StartEvent_1bm324f_label" transform="translate(15 -48)"><text lineHeight="1.2" class="djs-label" style="font-family: Arial, sans-serif; font-size: 11px; font-weight: normal; fill: black;"><tspan x="0" y="9.899999999999999">Customer walks in </tspan><tspan x="17.90625" y="23.099999999999998">to a branch</tspan></text></g><g class="djs-visual" id="Activity_1arowom" transform="translate(-5 90)"><rect x="0" y="0" width="130" height="100" rx="10" ry="10" style="stroke: black; stroke-width: 2px; fill: white; fill-opacity: 0.95;"></rect><text lineHeight="1.2" class="djs-label" style="font-family: Arial, sans-serif; font-size: 12px; font-weight: normal; fill: black;"><tspan x="17.4794921875" y="46.4">Identify Customer </tspan><tspan x="48.6484375" y="60.8">needs</tspan></text></g><g class="djs-visual" id="Activity_1npmfba" transform="translate(-5 240)"><rect x="0" y="0" width="130" height="100" rx="10" ry="10" style="stroke: black; stroke-width: 2px; fill: white; fill-opacity: 0.95;"></rect><text lineHeight="1.2" class="djs-label" style="font-family: Arial, sans-serif; font-size: 12px; font-weight: normal; fill: black;"><tspan x="12.3046875" y="46.4">Receive&nbsp;documents </tspan><tspan x="23.3134765625" y="60.8">for identification</tspan></text></g><g class="djs-visual" id="Activity_0mgtk31" transform="translate(-5 410)"><rect x="0" y="0" width="130" height="100" rx="10" ry="10" style="stroke: black; stroke-width: 2px; fill: white; fill-opacity: 0.95;"></rect><text lineHeight="1.2" class="djs-label" style="font-family: Arial, sans-serif; font-size: 12px; font-weight: normal; fill: black;"><tspan x="21.15234375" y="46.4">Check if existing </tspan><tspan x="8.142578125" y="60.8">prospect or&nbsp;customer</tspan></text></g><g class="djs-visual" id="Gateway_1fmuv5p" transform="translate(35 555)"><polygon points="25,0 50,25 25,50 0,25" style="stroke: black; stroke-width: 2px; fill: white; fill-opacity: 0.95;"></polygon><path d="m 16,15 7.42857142857143,9.714285714285715 -7.42857142857143,9.714285714285715 3.428571428571429,0 5.714285714285715,-7.464228571428572 5.714285714285715,7.464228571428572 3.428571428571429,0 -7.42857142857143,-9.714285714285715 7.42857142857143,-9.714285714285715 -3.428571428571429,0 -5.714285714285715,7.464228571428572 -5.714285714285715,-7.464228571428572 -3.428571428571429,0 z" style="fill: black; stroke-width: 1px; stroke: black;"></path></g><g class="djs-visual" id="Activity_0r4ym2n" transform="translate(-5 660)"><rect x="0" y="0" width="130" height="100" rx="10" ry="10" style="stroke: black; stroke-width: 2px; fill: white; fill-opacity: 0.95;"></rect><text lineHeight="1.2" class="djs-label" style="font-family: Arial, sans-serif; font-size: 12px; font-weight: normal; fill: black;"><tspan x="5.466796875" y="53.599999999999994">Capture prospect&nbsp;data</tspan></text></g><g class="djs-visual" id="Activity_18qsvv8" transform="translate(275 660)"><rect x="0" y="0" width="130" height="100" rx="10" ry="10" style="stroke: black; stroke-width: 2px; fill: white; fill-opacity: 0.95;"></rect><text lineHeight="1.2" class="djs-label" style="font-family: Arial, sans-serif; font-size: 12px; font-weight: normal; fill: black;"><tspan x="20.302734375" y="46.4">Launch prospect </tspan><tspan x="47.830078125" y="60.8">record</tspan></text></g><g class="djs-visual" id="Activity_1bz5kbo" transform="translate(575 660)"><rect x="0" y="0" width="130" height="100" rx="10" ry="10" style="stroke: black; stroke-width: 2px; fill: white; fill-opacity: 0.95;"></rect><text lineHeight="1.2" class="djs-label" style="font-family: Arial, sans-serif; font-size: 12px; font-weight: normal; fill: black;"><tspan x="17.1396484375" y="46.4">Launch Customer </tspan><tspan x="47.830078125" y="60.8">record</tspan></text></g><g class="djs-visual" id="Activity_0gj9kez" transform="translate(575 950)"><rect x="0" y="0" width="130" height="100" rx="10" ry="10" style="stroke: black; stroke-width: 2px; fill: white; fill-opacity: 0.95;"></rect><text lineHeight="1.2" class="djs-label" style="font-family: Arial, sans-serif; font-size: 12px; font-weight: normal; fill: black;"><tspan x="10.8134765625" y="46.4">Identify cross selling </tspan><tspan x="30.640625" y="60.8">opportunities</tspan></text></g><g class="djs-visual" id="Activity_117ib9p" transform="translate(275 810)"><rect x="0" y="0" width="130" height="100" rx="10" ry="10" style="stroke: black; stroke-width: 2px; fill: white; fill-opacity: 0.95;"></rect><text lineHeight="1.2" class="djs-label" style="font-family: Arial, sans-serif; font-size: 12px; font-weight: normal; fill: black;"><tspan x="20.314453125" y="46.4">Display prospect </tspan><tspan x="47.830078125" y="60.8">record</tspan></text></g><g class="djs-visual" id="Activity_0pz3co3" transform="translate(575 800)"><rect x="0" y="0" width="130" height="100" rx="10" ry="10" style="stroke: black; stroke-width: 2px; fill: white; fill-opacity: 0.95;"></rect><text lineHeight="1.2" class="djs-label" style="font-family: Arial, sans-serif; font-size: 12px; font-weight: normal; fill: black;"><tspan x="17.1513671875" y="46.4">Display Customer </tspan><tspan x="47.830078125" y="60.8">record</tspan></text></g><g class="djs-visual" id="Gateway_05ewkzl" transform="translate(35 1125)"><polygon points="25,0 50,25 25,50 0,25" style="stroke: black; stroke-width: 2px; fill: white; fill-opacity: 0.95;"></polygon><path d="m 16,15 7.42857142857143,9.714285714285715 -7.42857142857143,9.714285714285715 3.428571428571429,0 5.714285714285715,-7.464228571428572 5.714285714285715,7.464228571428572 3.428571428571429,0 -7.42857142857143,-9.714285714285715 7.42857142857143,-9.714285714285715 -3.428571428571429,0 -5.714285714285715,7.464228571428572 -5.714285714285715,-7.464228571428572 -3.428571428571429,0 z" style="fill: black; stroke-width: 1px; stroke: black;"></path></g><g class="djs-visual" id="Activity_1shs0c4" transform="translate(-5 1220)"><rect x="0" y="0" width="130" height="100" rx="10" ry="10" style="stroke: black; stroke-width: 2px; fill: white; fill-opacity: 0.95;"></rect><text lineHeight="1.2" class="djs-label" style="font-family: Arial, sans-serif; font-size: 12px; font-weight: normal; fill: black;"><tspan x="19.1484375" y="46.4">Confirm type&nbsp;and </tspan><tspan x="18.97265625" y="60.8">details of&nbsp;request</tspan></text></g><g class="djs-visual" id="Gateway_1j2krna" transform="translate(35 1375)"><polygon points="25,0 50,25 25,50 0,25" style="stroke: black; stroke-width: 2px; fill: white; fill-opacity: 0.95;"></polygon><path d="m 16,15 7.42857142857143,9.714285714285715 -7.42857142857143,9.714285714285715 3.428571428571429,0 5.714285714285715,-7.464228571428572 5.714285714285715,7.464228571428572 3.428571428571429,0 -7.42857142857143,-9.714285714285715 7.42857142857143,-9.714285714285715 -3.428571428571429,0 -5.714285714285715,7.464228571428572 -5.714285714285715,-7.464228571428572 -3.428571428571429,0 z" style="fill: black; stroke-width: 1px; stroke: black;"></path></g><g class="djs-visual" id="Activity_0unbmvj" transform="translate(-5 1480)"><rect x="0" y="0" width="130" height="100" rx="10" ry="10" style="stroke: black; stroke-width: 2px; fill: white; fill-opacity: 0.95;"></rect><text lineHeight="1.2" class="djs-label" style="font-family: Arial, sans-serif; font-size: 12px; font-weight: normal; fill: black;"><tspan x="6.1435546875" y="39.2">Confirm if background</tspan><tspan x="16.3046875" y="53.6">checks or updates </tspan><tspan x="42.8232421875" y="68">required</tspan></text></g><g class="djs-visual" id="Gateway_1iqxsoi" transform="translate(35 1625)"><polygon points="25,0 50,25 25,50 0,25" style="stroke: black; stroke-width: 2px; fill: white; fill-opacity: 0.95;"></polygon><path d="m 16,15 7.42857142857143,9.714285714285715 -7.42857142857143,9.714285714285715 3.428571428571429,0 5.714285714285715,-7.464228571428572 5.714285714285715,7.464228571428572 3.428571428571429,0 -7.42857142857143,-9.714285714285715 7.42857142857143,-9.714285714285715 -3.428571428571429,0 -5.714285714285715,7.464228571428572 -5.714285714285715,-7.464228571428572 -3.428571428571429,0 z" style="fill: black; stroke-width: 1px; stroke: black;"></path></g><g class="djs-visual" id="Activity_06pspob" transform="translate(575 1480)"><rect x="0" y="0" width="130" height="100" rx="10" ry="10" style="stroke: black; stroke-width: 2px; fill: white; fill-opacity: 0.95;"></rect><text lineHeight="1.2" class="djs-label" style="font-family: Arial, sans-serif; font-size: 12px; font-weight: normal; fill: black;"><tspan x="31.8134765625" y="39.2">Prepare and </tspan><tspan x="16.13671875" y="53.6">handover required </tspan><tspan x="35.15625" y="68">information</tspan></text></g><g class="djs-visual" id="Activity_0vb2xop" transform="translate(575 1630)"><rect x="0" y="0" width="130" height="100" rx="10" ry="10" style="stroke: black; stroke-width: 2px; fill: white; fill-opacity: 0.95;"></rect><text lineHeight="1.2" class="djs-label" style="font-family: Arial, sans-serif; font-size: 12px; font-weight: normal; fill: black;"><tspan x="23.970703125" y="46.4">Launch contact </tspan><tspan x="29.6455078125" y="60.8">management</tspan></text></g><g class="djs-visual" id="Activity_1wlr44d" transform="translate(575 1790)"><rect x="0" y="0" width="130" height="100" rx="10" ry="10" style="stroke: black; stroke-width: 2px; fill: white; fill-opacity: 0.95;"></rect><text lineHeight="1.2" class="djs-label" style="font-family: Arial, sans-serif; font-size: 12px; font-weight: normal; fill: black;"><tspan x="33.8203125" y="53.599999999999994">Create task</tspan></text></g><g class="djs-visual" id="Event_064frn8" transform="translate(622 1962)"><circle cx="18" cy="18" r="18" style="stroke: black; stroke-width: 4px; fill: white; fill-opacity: 0.95;"></circle></g><g class="djs-visual" id="Event_064frn8_label" transform="translate(596 2005)"><text lineHeight="1.2" class="djs-label" style="font-family: Arial, sans-serif; font-size: 11px; font-weight: normal; fill: black;"><tspan x="24.909423828125" y="9.899999999999999">Contact </tspan><tspan x="0" y="23.099999999999998">management data </tspan><tspan x="22.9296875" y="36.3">captured</tspan></text></g><g class="djs-visual" id="Activity_02hnk5a" transform="translate(-5 1760)"><rect x="0" y="0" width="130" height="100" rx="10" ry="10" style="stroke: black; stroke-width: 2px; fill: white; fill-opacity: 0.95;"></rect><text lineHeight="1.2" class="djs-label" style="font-family: Arial, sans-serif; font-size: 12px; font-weight: normal; fill: black;"><tspan x="22.3134765625" y="39.2">Agree with retail </tspan><tspan x="8.6396484375" y="53.6">Customer on product </tspan><tspan x="47.65625" y="68">details</tspan></text></g><g class="djs-visual" id="Event_0a6zma5" transform="translate(442 1792)"><circle cx="18" cy="18" r="18" style="stroke: black; stroke-width: 4px; fill: white; fill-opacity: 0.95;"></circle></g><g class="djs-visual" id="Event_0a6zma5_label" transform="translate(413 1846)"><text lineHeight="1.2" class="djs-label" style="font-family: Arial, sans-serif; font-size: 11px; font-weight: normal; fill: black;"><tspan x="0" y="9.899999999999999">Customer does not </tspan><tspan x="35.1591796875" y="23.099999999999998">exist</tspan></text></g><g class="djs-visual" id="Gateway_1ddq09e" transform="translate(35 2035)"><polygon points="25,0 50,25 25,50 0,25" style="stroke: black; stroke-width: 2px; fill: white; fill-opacity: 0.95;"></polygon><circle cx="25" cy="25" r="13" style="stroke: black; stroke-width: 2.5px; fill: white;"></circle></g><g class="djs-visual" id="Event_1sk4u9i" transform="translate(42 2162)"><circle cx="18" cy="18" r="18" style="stroke: black; stroke-width: 4px; fill: white; fill-opacity: 0.95;"></circle></g><g class="djs-visual" id="Event_1sk4u9i_label" transform="translate(23 2216)"><text lineHeight="1.2" class="djs-label" style="font-family: Arial, sans-serif; font-size: 11px; font-weight: normal; fill: black;"><tspan x="0" y="9.899999999999999">Product details </tspan><tspan x="19.498291015625" y="23.099999999999998">agreed</tspan></text></g><g class="djs-visual" id="Event_1my5trl" transform="translate(172 2162)"><circle cx="18" cy="18" r="18" style="stroke: black; stroke-width: 4px; fill: white; fill-opacity: 0.95;"></circle></g><g class="djs-visual" id="Event_1my5trl_label" transform="translate(153 2216)"><text lineHeight="1.2" class="djs-label" style="font-family: Arial, sans-serif; font-size: 11px; font-weight: normal; fill: black;"><tspan x="0" y="9.899999999999999">Product details </tspan><tspan x="19.498291015625" y="23.099999999999998">agreed</tspan></text></g><g class="djs-visual" id="Event_19v33y5" transform="translate(302 2162)"><circle cx="18" cy="18" r="18" style="stroke: black; stroke-width: 4px; fill: white; fill-opacity: 0.95;"></circle></g><g class="djs-visual" id="Event_19v33y5_label" transform="translate(283 2216)"><text lineHeight="1.2" class="djs-label" style="font-family: Arial, sans-serif; font-size: 11px; font-weight: normal; fill: black;"><tspan x="0" y="9.899999999999999">Product details </tspan><tspan x="19.498291015625" y="23.099999999999998">agreed</tspan></text></g><g class="djs-visual" id="DataObjectReference_1lwjat2" transform="translate(-98 265)"><path d="m 0,0 28.23529411764706,0 7.058823529411765,8.196721311475411 0,40.98360655737705 -35.294117647058826,0 0,-49.18032786885246 28.23529411764706,0 0,8.196721311475411 7.058823529411765,0" style="fill: white; stroke-width: 2px; stroke: black; fill-opacity: 0.95;"></path></g><g class="djs-visual" id="DataObjectReference_1lwjat2_label" transform="translate(-111 322)"><text lineHeight="1.2" class="djs-label" style="font-family: Arial, sans-serif; font-size: 11px; font-weight: normal; fill: black;"><tspan x="6.374755859375" y="9.899999999999999">Customer </tspan><tspan x="0" y="23.099999999999998">Identification</tspan><tspan x="2.81591796875" y="36.3">Documents</tspan></text></g><g class="djs-visual" id="TextAnnotation_1mpaa3i" transform="translate(160 40)"><rect x="0" y="0" width="245" height="40" rx="0" ry="0" style="stroke: none; stroke-width: 2px; fill: none;"></rect><path d="m 0, 0 m 10,0 l -10,0 l 0,40 l 10,0" style="fill: none; stroke-width: 2px; stroke: black;"></path><text lineHeight="1.2" class="djs-label" style="font-family: Arial, sans-serif; font-size: 12px; font-weight: normal; fill: black;"><tspan x="5" y="15.799999999999999">- Standard Interview Process</tspan><tspan x="5" y="30.199999999999996">- Product/ Service/ Information request</tspan></text></g><g class="djs-visual" id="TextAnnotation_1ry0wsv" transform="translate(155 200)"><rect x="0" y="0" width="180" height="55" rx="0" ry="0" style="stroke: none; stroke-width: 2px; fill: none;"></rect><path d="m 0, 0 m 10,0 l -10,0 l 0,55 l 10,0" style="fill: none; stroke-width: 2px; stroke: black;"></path><text lineHeight="1.2" class="djs-label" style="font-family: Arial, sans-serif; font-size: 12px; font-weight: normal; fill: black;"><tspan x="5" y="15.799999999999999">- Passport</tspan><tspan x="5" y="30.199999999999996">- Driving License</tspan><tspan x="5" y="44.599999999999994">- Address proof, utility bills, etc.</tspan></text></g><g class="djs-visual" id="TextAnnotation_1grn33c" transform="translate(155 370)"><rect x="0" y="0" width="100" height="30" rx="0" ry="0" style="stroke: none; stroke-width: 2px; fill: none;"></rect><path d="m 0, 0 m 10,0 l -10,0 l 0,30 l 10,0" style="fill: none; stroke-width: 2px; stroke: black;"></path><text lineHeight="1.2" class="djs-label" style="font-family: Arial, sans-serif; font-size: 12px; font-weight: normal; fill: black;"><tspan x="5" y="15.799999999999999">- Name</tspan></text></g><g class="djs-visual" id="TextAnnotation_0ueg4mg" transform="translate(155 1180)"><rect x="0" y="0" width="243" height="40" rx="0" ry="0" style="stroke: none; stroke-width: 2px; fill: none;"></rect><path d="m 0, 0 m 10,0 l -10,0 l 0,40 l 10,0" style="fill: none; stroke-width: 2px; stroke: black;"></path><text lineHeight="1.2" class="djs-label" style="font-family: Arial, sans-serif; font-size: 12px; font-weight: normal; fill: black;"><tspan x="5" y="15.799999999999999">- Product/ Service/ Information request</tspan><tspan x="5" y="30.199999999999996">- Product/ Service details</tspan></text></g><g class="djs-visual" id="TextAnnotation_07acyh0" transform="translate(152 1748)"><rect x="0" y="0" width="262" height="70" rx="0" ry="0" style="stroke: none; stroke-width: 2px; fill: none;"></rect><path d="m 0, 0 m 10,0 l -10,0 l 0,70 l 10,0" style="fill: none; stroke-width: 2px; stroke: black;"></path><text lineHeight="1.2" class="djs-label" style="font-family: Arial, sans-serif; font-size: 12px; font-weight: normal; fill: black;"><tspan x="5" y="15.799999999999999">Product/ Service type:</tspan><tspan x="5" y="30.199999999999996">- Amount/ Profit Rate/ Currency</tspan><tspan x="5" y="44.599999999999994">- Source of funds (e.g. cash, account transfer)</tspan><tspan x="5" y="58.99999999999999">- Passbook/ Checkbook, ATM Card</tspan></text></g><g class="djs-visual" id="TextAnnotation_1l6xt1k" transform="translate(750 1430)"><rect x="0" y="0" width="230" height="40" rx="0" ry="0" style="stroke: none; stroke-width: 2px; fill: none;"></rect><path d="m 0, 0 m 10,0 l -10,0 l 0,40 l 10,0" style="fill: none; stroke-width: 2px; stroke: black;"></path><text lineHeight="1.2" class="djs-label" style="font-family: Arial, sans-serif; font-size: 12px; font-weight: normal; fill: black;"><tspan x="5" y="15.799999999999999">- Product Information</tspan><tspan x="5" y="30.199999999999996">- Application Forms</tspan></text></g><g class="djs-visual" id="TextAnnotation_15709n1" transform="translate(750 1748)"><rect x="0" y="0" width="230" height="40" rx="0" ry="0" style="stroke: none; stroke-width: 2px; fill: none;"></rect><path d="m 0, 0 m 10,0 l -10,0 l 0,40 l 10,0" style="fill: none; stroke-width: 2px; stroke: black;"></path><text lineHeight="1.2" class="djs-label" style="font-family: Arial, sans-serif; font-size: 12px; font-weight: normal; fill: black;"><tspan x="5" y="15.799999999999999">- Record Information provided</tspan><tspan x="5" y="30.199999999999996">- Capture follow up tasks</tspan></text></g><g class="djs-visual" id="DataInputAssociation_0aud8ps" transform="translate(0 0)"><polyline points="-62,290 -5,290 " style="fill: none; stroke: black; stroke-width: 2px; stroke-dasharray: 0.5, 5; stroke-linecap: round; stroke-linejoin: round; marker-end: url(&quot;#association-end-white-black-9uj9tq0hrxrh0tgejq4456ga4&quot;);"></polyline></g><g class="djs-visual" id="Flow_0sbp9e8_label" transform="translate(65 616)"><text lineHeight="1.2" class="djs-label" style="font-family: Arial, sans-serif; font-size: 11px; font-weight: normal; fill: black;"><tspan x="0" y="9.899999999999999">Prospect does not </tspan><tspan x="33.024169921875" y="23.099999999999998">exist</tspan></text></g><g class="djs-visual" id="Flow_1xy6pm3_label" transform="translate(347 616)"><text lineHeight="1.2" class="djs-label" style="font-family: Arial, sans-serif; font-size: 11px; font-weight: normal; fill: black;"><tspan x="9.375732421875" y="9.899999999999999">Existing retail </tspan><tspan x="0" y="23.099999999999998">banking prospect</tspan></text></g><g class="djs-visual" id="Flow_0zp77sm_label" transform="translate(635 610)"><text lineHeight="1.2" class="djs-label" style="font-family: Arial, sans-serif; font-size: 11px; font-weight: normal; fill: black;"><tspan x="12.31689453125" y="9.899999999999999">Existing retail </tspan><tspan x="0" y="23.099999999999998">banking Customer</tspan></text></g><g class="djs-visual" id="Flow_091uwd8_label" transform="translate(76 1086)"><text lineHeight="1.2" class="djs-label" style="font-family: Arial, sans-serif; font-size: 11px; font-weight: normal; fill: black;"><tspan x="0" y="9.899999999999999">Prospect data </tspan><tspan x="12.53125" y="23.099999999999998">captured</tspan></text></g><g class="djs-visual" id="Flow_17h3c32_label" transform="translate(351 1086)"><text lineHeight="1.2" class="djs-label" style="font-family: Arial, sans-serif; font-size: 11px; font-weight: normal; fill: black;"><tspan x="0" y="9.899999999999999">Prospect record </tspan><tspan x="15.5859375" y="23.099999999999998">displayed</tspan></text></g><g class="djs-visual" id="Flow_0tvmoqc_label" transform="translate(648 1080)"><text lineHeight="1.2" class="djs-label" style="font-family: Arial, sans-serif; font-size: 11px; font-weight: normal; fill: black;"><tspan x="0.259033203125" y="9.899999999999999">Cross selling </tspan><tspan x="0" y="23.099999999999998">opportunities </tspan><tspan x="9.719970703125" y="36.3">identified</tspan></text></g><g class="djs-visual" id="Flow_1kge4ev_label" transform="translate(659 1436)"><text lineHeight="1.2" class="djs-label" style="font-family: Arial, sans-serif; font-size: 11px; font-weight: normal; fill: black;"><tspan x="0" y="9.899999999999999">Only information </tspan><tspan x="19.8671875" y="23.099999999999998">required</tspan></text></g><g class="djs-visual" id="Flow_07xgbfw_label" transform="translate(68 1436)"><text lineHeight="1.2" class="djs-label" style="font-family: Arial, sans-serif; font-size: 11px; font-weight: normal; fill: black;"><tspan x="0" y="9.899999999999999">Specific product/ </tspan><tspan x="3.364990234375" y="23.099999999999998">service request</tspan></text></g><g class="djs-visual" id="Flow_0kw3gfa_label" transform="translate(74 1683)"><text lineHeight="1.2" class="djs-label" style="font-family: Arial, sans-serif; font-size: 11px; font-weight: normal; fill: black;"><tspan x="0" y="9.899999999999999">Existing Customer</tspan></text></g><g class="djs-visual" id="Association_1onmw5q" transform="translate(0 0)"><polyline points="123,94 160,67 " style="fill: none; stroke: black; stroke-width: 2px; stroke-dasharray: 0.5, 5; stroke-linecap: round; stroke-linejoin: round;"></polyline></g><g class="djs-visual" id="Association_1ie3a47" transform="translate(0 0)"><polyline points="125,250 155,231 " style="fill: none; stroke: black; stroke-width: 2px; stroke-dasharray: 0.5, 5; stroke-linecap: round; stroke-linejoin: round;"></polyline></g><g class="djs-visual" id="Association_18ke33k" transform="translate(0 0)"><polyline points="122,413 155,389 " style="fill: none; stroke: black; stroke-width: 2px; stroke-dasharray: 0.5, 5; stroke-linecap: round; stroke-linejoin: round;"></polyline></g><g class="djs-visual" id="Association_1o0ikqn" transform="translate(0 0)"><polyline points="125,1230 155,1211 " style="fill: none; stroke: black; stroke-width: 2px; stroke-dasharray: 0.5, 5; stroke-linecap: round; stroke-linejoin: round;"></polyline></g><g class="djs-visual" id="Association_1qebi2r" transform="translate(0 0)"><polyline points="125,1780 152,1769 " style="fill: none; stroke: black; stroke-width: 2px; stroke-dasharray: 0.5, 5; stroke-linecap: round; stroke-linejoin: round;"></polyline></g><g class="djs-visual" id="Association_1g1mwj1" transform="translate(0 0)"><polyline points="703,1484 750,1450 " style="fill: none; stroke: black; stroke-width: 2px; stroke-dasharray: 0.5, 5; stroke-linecap: round; stroke-linejoin: round;"></polyline></g><g class="djs-visual" id="Association_12thj6v" transform="translate(0 0)"><polyline points="704,1798 750,1768 " style="fill: none; stroke: black; stroke-width: 2px; stroke-dasharray: 0.5, 5; stroke-linecap: round; stroke-linejoin: round;"></polyline></g></g><g><rect class="viewport" x="-2588.7804878048782" y="-53.919860627177705" width="6045.2961672473875" height="2299.651567944251"></rect></g></svg>