<svg width="100%" height="100%" data-element-id="Process_0gv1hwp"><g class="viewport" transform="matrix(0.230608 0 0 0.230608 694.083 2.9979)"><g class="layer-root-1" data-element-id="Process_0gv1hwp"><g class="djs-group"><g class="djs-element djs-connection" data-element-id="Flow_0qqtvob" style="display: block;"><g class="djs-visual"><path d="m  270,1735L270,1780 " style="fill: none; stroke-width: 2px; stroke: black; stroke-linejoin: round; marker-end: url(&quot;#sequenceflow-end-white-black-5v5xa86gxcqk93sdiejf9wr20&quot;);"></path></g><polyline points="270,1735 270,1780 " class="djs-hit djs-hit-stroke" style="fill: none; stroke-opacity: 0; stroke: white; stroke-width: 15px;"></polyline><rect x="264" y="1729" width="12" height="57" class="djs-outline" style="fill: none;"></rect></g></g><g class="djs-group"><g class="djs-element djs-connection" data-element-id="Flow_0uq601m" style="display: block;"><g class="djs-visual"><path d="m  270,1465L270,1685 " style="fill: none; stroke-width: 2px; stroke: black; stroke-linejoin: round; marker-end: url(&quot;#sequenceflow-end-white-black-5v5xa86gxcqk93sdiejf9wr20&quot;);"></path></g><polyline points="270,1465 270,1685 " class="djs-hit djs-hit-stroke" style="fill: none; stroke-opacity: 0; stroke: white; stroke-width: 15px;"></polyline><rect x="264" y="1459" width="12" height="232" class="djs-outline" style="fill: none;"></rect></g></g><g class="djs-group"><g class="djs-element djs-connection" data-element-id="Flow_1epfk98" style="display: block;"><g class="djs-visual"><path d="m  1060,1620L1060,1710 L295,1710 " style="fill: none; stroke-width: 2px; stroke: black; stroke-linejoin: round; marker-end: url(&quot;#sequenceflow-end-white-black-5v5xa86gxcqk93sdiejf9wr20&quot;);"></path></g><polyline points="1060,1620 1060,1710 295,1710 " class="djs-hit djs-hit-stroke" style="fill: none; stroke-opacity: 0; stroke: white; stroke-width: 15px;"></polyline><rect x="289" y="1614" width="777" height="102" class="djs-outline" style="fill: none;"></rect></g></g><g class="djs-group"><g class="djs-element djs-connection" data-element-id="Flow_1tcl5k6" style="display: block;"><g class="djs-visual"><path d="m  295,1440L1060,1440 L1060,1520 " style="fill: none; stroke-width: 2px; stroke: black; stroke-linejoin: round; marker-end: url(&quot;#sequenceflow-end-white-black-5v5xa86gxcqk93sdiejf9wr20&quot;);"></path></g><polyline points="295,1440 1060,1440 1060,1520 " class="djs-hit djs-hit-stroke" style="fill: none; stroke-opacity: 0; stroke: white; stroke-width: 15px;"></polyline><rect x="289" y="1434" width="777" height="92" class="djs-outline" style="fill: none;"></rect></g></g><g class="djs-group"><g class="djs-element djs-connection" data-element-id="Flow_0d7agyq" style="display: block;"><g class="djs-visual"><path d="m  610,1620L610,1710 L295,1710 " style="fill: none; stroke-width: 2px; stroke: black; stroke-linejoin: round; marker-end: url(&quot;#sequenceflow-end-white-black-5v5xa86gxcqk93sdiejf9wr20&quot;);"></path></g><polyline points="610,1620 610,1710 295,1710 " class="djs-hit djs-hit-stroke" style="fill: none; stroke-opacity: 0; stroke: white; stroke-width: 15px;"></polyline><rect x="289" y="1614" width="327" height="102" class="djs-outline" style="fill: none;"></rect></g></g><g class="djs-group"><g class="djs-element djs-connection" data-element-id="Flow_08icv0o" style="display: block;"><g class="djs-visual"><path d="m  295,1440L610,1440 L610,1520 " style="fill: none; stroke-width: 2px; stroke: black; stroke-linejoin: round; marker-end: url(&quot;#sequenceflow-end-white-black-5v5xa86gxcqk93sdiejf9wr20&quot;);"></path></g><polyline points="295,1440 610,1440 610,1520 " class="djs-hit djs-hit-stroke" style="fill: none; stroke-opacity: 0; stroke: white; stroke-width: 15px;"></polyline><rect x="289" y="1434" width="327" height="92" class="djs-outline" style="fill: none;"></rect></g></g><g class="djs-group"><g class="djs-element djs-connection" data-element-id="Flow_0jgor6f" style="display: block;"><g class="djs-visual"><path d="m  270,1360L270,1415 " style="fill: none; stroke-width: 2px; stroke: black; stroke-linejoin: round; marker-end: url(&quot;#sequenceflow-end-white-black-5v5xa86gxcqk93sdiejf9wr20&quot;);"></path></g><polyline points="270,1360 270,1415 " class="djs-hit djs-hit-stroke" style="fill: none; stroke-opacity: 0; stroke: white; stroke-width: 15px;"></polyline><rect x="264" y="1354" width="12" height="67" class="djs-outline" style="fill: none;"></rect></g></g><g class="djs-group"><g class="djs-element djs-connection" data-element-id="Flow_0khevf2" style="display: block;"><g class="djs-visual"><path d="m  270,2730L270,2762 " style="fill: none; stroke-width: 2px; stroke: black; stroke-linejoin: round; marker-end: url(&quot;#sequenceflow-end-white-black-5v5xa86gxcqk93sdiejf9wr20&quot;);"></path></g><polyline points="270,2730 270,2762 " class="djs-hit djs-hit-stroke" style="fill: none; stroke-opacity: 0; stroke: white; stroke-width: 15px;"></polyline><rect x="264" y="2724" width="12" height="44" class="djs-outline" style="fill: none;"></rect></g></g><g class="djs-group"><g class="djs-element djs-connection" data-element-id="Flow_0yc4z7r" style="display: block;"><g class="djs-visual"><path d="m  490,2270L490,2300 L295,2300 " style="fill: none; stroke-width: 2px; stroke: black; stroke-linejoin: round; marker-end: url(&quot;#sequenceflow-end-white-black-5v5xa86gxcqk93sdiejf9wr20&quot;);"></path></g><polyline points="490,2270 490,2300 295,2300 " class="djs-hit djs-hit-stroke" style="fill: none; stroke-opacity: 0; stroke: white; stroke-width: 15px;"></polyline><rect x="289" y="2264" width="207" height="42" class="djs-outline" style="fill: none;"></rect></g></g><g class="djs-group"><g class="djs-element djs-connection" data-element-id="Flow_162srkl" style="display: block;"><g class="djs-visual"><path d="m  270,2325L270,2360 " style="fill: none; stroke-width: 2px; stroke: black; stroke-linejoin: round; marker-end: url(&quot;#sequenceflow-end-white-black-5v5xa86gxcqk93sdiejf9wr20&quot;);"></path></g><polyline points="270,2325 270,2360 " class="djs-hit djs-hit-stroke" style="fill: none; stroke-opacity: 0; stroke: white; stroke-width: 15px;"></polyline><rect x="264" y="2319" width="12" height="47" class="djs-outline" style="fill: none;"></rect></g></g><g class="djs-group"><g class="djs-element djs-connection" data-element-id="Flow_1xktqto" style="display: block;"><g class="djs-visual"><path d="m  270,680L270,850 " style="fill: none; stroke-width: 2px; stroke: black; stroke-linejoin: round; marker-end: url(&quot;#sequenceflow-end-white-black-5v5xa86gxcqk93sdiejf9wr20&quot;);"></path></g><polyline points="270,680 270,850 " class="djs-hit djs-hit-stroke" style="fill: none; stroke-opacity: 0; stroke: white; stroke-width: 15px;"></polyline><rect x="264" y="674" width="12" height="182" class="djs-outline" style="fill: none;"></rect></g></g><g class="djs-group"><g class="djs-element djs-connection" data-element-id="Flow_03nm46e" style="display: block;"><g class="djs-visual"><path d="m  490,2130L490,2170 " style="fill: none; stroke-width: 2px; stroke: black; stroke-linejoin: round; marker-end: url(&quot;#sequenceflow-end-white-black-5v5xa86gxcqk93sdiejf9wr20&quot;);"></path></g><polyline points="490,2130 490,2170 " class="djs-hit djs-hit-stroke" style="fill: none; stroke-opacity: 0; stroke: white; stroke-width: 15px;"></polyline><rect x="484" y="2124" width="12" height="52" class="djs-outline" style="fill: none;"></rect></g></g><g class="djs-group"><g class="djs-element djs-connection" data-element-id="Flow_0snoda9" style="display: block;"><g class="djs-visual"><path d="m  295,1940L490,1940 L490,2030 " style="fill: none; stroke-width: 2px; stroke: black; stroke-linejoin: round; marker-end: url(&quot;#sequenceflow-end-white-black-5v5xa86gxcqk93sdiejf9wr20&quot;);"></path></g><polyline points="295,1940 490,1940 490,2030 " class="djs-hit djs-hit-stroke" style="fill: none; stroke-opacity: 0; stroke: white; stroke-width: 15px;"></polyline><rect x="289" y="1934" width="207" height="102" class="djs-outline" style="fill: none;"></rect></g></g><g class="djs-group"><g class="djs-element djs-connection" data-element-id="Flow_1jnpzhj" style="display: block;"><g class="djs-visual"><path d="m  270,1965L270,2275 " style="fill: none; stroke-width: 2px; stroke: black; stroke-linejoin: round; marker-end: url(&quot;#sequenceflow-end-white-black-5v5xa86gxcqk93sdiejf9wr20&quot;);"></path></g><polyline points="270,1965 270,2275 " class="djs-hit djs-hit-stroke" style="fill: none; stroke-opacity: 0; stroke: white; stroke-width: 15px;"></polyline><rect x="264" y="1959" width="12" height="322" class="djs-outline" style="fill: none;"></rect></g></g><g class="djs-group"><g class="djs-element djs-connection" data-element-id="Flow_0gwyr89" style="display: block;"><g class="djs-visual"><path d="m  270,1880L270,1915 " style="fill: none; stroke-width: 2px; stroke: black; stroke-linejoin: round; marker-end: url(&quot;#sequenceflow-end-white-black-5v5xa86gxcqk93sdiejf9wr20&quot;);"></path></g><polyline points="270,1880 270,1915 " class="djs-hit djs-hit-stroke" style="fill: none; stroke-opacity: 0; stroke: white; stroke-width: 15px;"></polyline><rect x="264" y="1874" width="12" height="47" class="djs-outline" style="fill: none;"></rect></g></g><g class="djs-group"><g class="djs-element djs-connection" data-element-id="Flow_18k9m2e" style="display: block;"><g class="djs-visual"><path d="m  270,380L270,430 " style="fill: none; stroke-width: 2px; stroke: black; stroke-linejoin: round; marker-end: url(&quot;#sequenceflow-end-white-black-5v5xa86gxcqk93sdiejf9wr20&quot;);"></path></g><polyline points="270,380 270,430 " class="djs-hit djs-hit-stroke" style="fill: none; stroke-opacity: 0; stroke: white; stroke-width: 15px;"></polyline><rect x="264" y="374" width="12" height="62" class="djs-outline" style="fill: none;"></rect></g></g><g class="djs-group"><g class="djs-element djs-connection" data-element-id="Flow_19rmb54" style="display: block;"><g class="djs-visual"><path d="m  270,230L270,280 " style="fill: none; stroke-width: 2px; stroke: black; stroke-linejoin: round; marker-end: url(&quot;#sequenceflow-end-white-black-5v5xa86gxcqk93sdiejf9wr20&quot;);"></path></g><polyline points="270,230 270,280 " class="djs-hit djs-hit-stroke" style="fill: none; stroke-opacity: 0; stroke: white; stroke-width: 15px;"></polyline><rect x="264" y="224" width="12" height="62" class="djs-outline" style="fill: none;"></rect></g></g><g class="djs-group"><g class="djs-element djs-connection" data-element-id="Flow_0tiwa9r" style="display: block;"><g class="djs-visual"><path d="m  270,2590L270,2630 " style="fill: none; stroke-width: 2px; stroke: black; stroke-linejoin: round; marker-end: url(&quot;#sequenceflow-end-white-black-5v5xa86gxcqk93sdiejf9wr20&quot;);"></path></g><polyline points="270,2590 270,2630 " class="djs-hit djs-hit-stroke" style="fill: none; stroke-opacity: 0; stroke: white; stroke-width: 15px;"></polyline><rect x="264" y="2584" width="12" height="52" class="djs-outline" style="fill: none;"></rect></g></g><g class="djs-group"><g class="djs-element djs-connection" data-element-id="Flow_1noid4b" style="display: block;"><g class="djs-visual"><path d="m  270,2460L270,2490 " style="fill: none; stroke-width: 2px; stroke: black; stroke-linejoin: round; marker-end: url(&quot;#sequenceflow-end-white-black-5v5xa86gxcqk93sdiejf9wr20&quot;);"></path></g><polyline points="270,2460 270,2490 " class="djs-hit djs-hit-stroke" style="fill: none; stroke-opacity: 0; stroke: white; stroke-width: 15px;"></polyline><rect x="264" y="2454" width="12" height="42" class="djs-outline" style="fill: none;"></rect></g></g><g class="djs-group"><g class="djs-element djs-connection" data-element-id="Flow_15kxvam" style="display: block;"><g class="djs-visual"><path d="m  270,950L270,1260 " style="fill: none; stroke-width: 2px; stroke: black; stroke-linejoin: round; marker-end: url(&quot;#sequenceflow-end-white-black-5v5xa86gxcqk93sdiejf9wr20&quot;);"></path></g><polyline points="270,950 270,1260 " class="djs-hit djs-hit-stroke" style="fill: none; stroke-opacity: 0; stroke: white; stroke-width: 15px;"></polyline><rect x="264" y="944" width="12" height="322" class="djs-outline" style="fill: none;"></rect></g></g><g class="djs-group"><g class="djs-element djs-connection" data-element-id="Flow_0vpsvtf" style="display: block;"><g class="djs-visual"><path d="m  270,530L270,580 " style="fill: none; stroke-width: 2px; stroke: black; stroke-linejoin: round; marker-end: url(&quot;#sequenceflow-end-white-black-5v5xa86gxcqk93sdiejf9wr20&quot;);"></path></g><polyline points="270,530 270,580 " class="djs-hit djs-hit-stroke" style="fill: none; stroke-opacity: 0; stroke: white; stroke-width: 15px;"></polyline><rect x="264" y="524" width="12" height="62" class="djs-outline" style="fill: none;"></rect></g></g><g class="djs-group"><g class="djs-element djs-connection" data-element-id="Flow_1obtzef" style="display: block;"><g class="djs-visual"><path d="m  270,88L270,130 " style="fill: none; stroke-width: 2px; stroke: black; stroke-linejoin: round; marker-end: url(&quot;#sequenceflow-end-white-black-5v5xa86gxcqk93sdiejf9wr20&quot;);"></path></g><polyline points="270,88 270,130 " class="djs-hit djs-hit-stroke" style="fill: none; stroke-opacity: 0; stroke: white; stroke-width: 15px;"></polyline><rect x="264" y="82" width="12" height="54" class="djs-outline" style="fill: none;"></rect></g></g><g class="djs-group"><g class="djs-element djs-shape" data-element-id="StartEvent_1bm324f" style="display: block;" transform="matrix(1 0 0 1 252 52)"><g class="djs-visual"><circle cx="18" cy="18" r="18" style="stroke: black; stroke-width: 2px; fill: white; fill-opacity: 0.95;"></circle></g><rect class="djs-hit djs-hit-all" x="0" y="0" width="36" height="36" style="fill: none; stroke-opacity: 0; stroke: white; stroke-width: 15px;"></rect><rect x="-6" y="-6" width="48" height="48" class="djs-outline" style="fill: none;"></rect></g></g><g class="djs-group"><g class="djs-element djs-shape" data-element-id="StartEvent_1bm324f_label" style="display: block;" transform="matrix(1 0 0 1 226 -7)"><g class="djs-visual"><text lineHeight="1.2" class="djs-label" style="font-family: Arial, sans-serif; font-size: 11px; font-weight: normal; fill: black;"><tspan x="4.2734375" y="9.899999999999999">Operating Lease </tspan><tspan x="0" y="23.099999999999998">arrangement to be </tspan><tspan x="26.59375" y="36.3">created</tspan></text></g><rect class="djs-hit djs-hit-all" x="0" y="0" width="90" height="40" style="fill: none; stroke-opacity: 0; stroke: white; stroke-width: 15px;"></rect><rect x="-6" y="-6" width="102" height="52" class="djs-outline" style="fill: none;"></rect></g></g><g class="djs-group"><g class="djs-element djs-shape" data-element-id="Activity_0136l04" style="display: block;" transform="matrix(1 0 0 1 205 430)"><g class="djs-visual"><rect x="0" y="0" width="130" height="100" rx="10" ry="10" style="stroke: black; stroke-width: 2px; fill: white; fill-opacity: 0.95;"></rect><text lineHeight="1.2" class="djs-label" style="font-family: Arial, sans-serif; font-size: 12px; font-weight: normal; fill: black;"><tspan x="7.634765625" y="46.4">Capture arrangement </tspan><tspan x="47.65625" y="60.8">details</tspan></text></g><rect class="djs-hit djs-hit-all" x="0" y="0" width="130" height="100" style="fill: none; stroke-opacity: 0; stroke: white; stroke-width: 15px;"></rect><rect x="-6" y="-6" width="142" height="112" class="djs-outline" style="fill: none;"></rect></g></g><g class="djs-group"><g class="djs-element djs-shape" data-element-id="Activity_0t0k4v4" style="display: block;" transform="matrix(1 0 0 1 205 850)"><g class="djs-visual"><rect x="0" y="0" width="130" height="100" rx="10" ry="10" style="stroke: black; stroke-width: 2px; fill: white; fill-opacity: 0.95;"></rect><text lineHeight="1.2" class="djs-label" style="font-family: Arial, sans-serif; font-size: 12px; font-weight: normal; fill: black;"><tspan x="16.1328125" y="46.4">Capture additional </tspan><tspan x="47.65625" y="60.8">details</tspan></text></g><rect class="djs-hit djs-hit-all" x="0" y="0" width="130" height="100" style="fill: none; stroke-opacity: 0; stroke: white; stroke-width: 15px;"></rect><rect x="-6" y="-6" width="142" height="112" class="djs-outline" style="fill: none;"></rect></g></g><g class="djs-group"><g class="djs-element djs-shape" data-element-id="Activity_165cmxe" style="display: block;" transform="matrix(1 0 0 1 205 2360)"><g class="djs-visual"><rect x="0" y="0" width="130" height="100" rx="10" ry="10" style="stroke: black; stroke-width: 2px; fill: white; fill-opacity: 0.95;"></rect><text lineHeight="1.2" class="djs-label" style="font-family: Arial, sans-serif; font-size: 12px; font-weight: normal; fill: black;"><tspan x="9.5830078125" y="46.4">View arrangement to </tspan><tspan x="28.4765625" y="60.8">be authorised</tspan></text></g><rect class="djs-hit djs-hit-all" x="0" y="0" width="130" height="100" style="fill: none; stroke-opacity: 0; stroke: white; stroke-width: 15px;"></rect><rect x="-6" y="-6" width="142" height="112" class="djs-outline" style="fill: none;"></rect></g></g><g class="djs-group"><g class="djs-element djs-shape" data-element-id="Event_0q92l2c" style="display: block;" transform="matrix(1 0 0 1 252 2762)"><g class="djs-visual"><circle cx="18" cy="18" r="18" style="stroke: black; stroke-width: 4px; fill: white; fill-opacity: 0.95;"></circle></g><rect class="djs-hit djs-hit-all" x="0" y="0" width="36" height="36" style="fill: none; stroke-opacity: 0; stroke: white; stroke-width: 15px;"></rect><rect x="-6" y="-6" width="48" height="48" class="djs-outline" style="fill: none;"></rect></g></g><g class="djs-group"><g class="djs-element djs-shape" data-element-id="Event_0q92l2c_label" style="display: block;" transform="matrix(1 0 0 1 227 2803)"><g class="djs-visual"><text lineHeight="1.2" class="djs-label" style="font-family: Arial, sans-serif; font-size: 11px; font-weight: normal; fill: black;"><tspan x="4.2734375" y="9.899999999999999">Operating Lease </tspan><tspan x="0" y="23.099999999999998">arrangement to be </tspan><tspan x="22.9296875" y="36.3">activated</tspan></text></g><rect class="djs-hit djs-hit-all" x="0" y="0" width="90" height="40" style="fill: none; stroke-opacity: 0; stroke: white; stroke-width: 15px;"></rect><rect x="-6" y="-6" width="102" height="52" class="djs-outline" style="fill: none;"></rect></g></g><g class="djs-group"><g class="djs-element djs-shape" data-element-id="Activity_1taiwsy" style="display: block;" transform="matrix(1 0 0 1 205 2490)"><g class="djs-visual"><rect x="0" y="0" width="130" height="100" rx="10" ry="10" style="stroke: black; stroke-width: 2px; fill: white; fill-opacity: 0.95;"></rect><text lineHeight="1.2" class="djs-label" style="font-family: Arial, sans-serif; font-size: 12px; font-weight: normal; fill: black;"><tspan x="39.9892578125" y="46.4">Authorise </tspan><tspan x="30.6474609375" y="60.8">arrangement</tspan></text></g><rect class="djs-hit djs-hit-all" x="0" y="0" width="130" height="100" style="fill: none; stroke-opacity: 0; stroke: white; stroke-width: 15px;"></rect><rect x="-6" y="-6" width="142" height="112" class="djs-outline" style="fill: none;"></rect></g></g><g class="djs-group"><g class="djs-element djs-shape" data-element-id="Activity_1y7ejnz" style="display: block;" transform="matrix(1 0 0 1 205 280)"><g class="djs-visual"><rect x="0" y="0" width="130" height="100" rx="10" ry="10" style="stroke: black; stroke-width: 2px; fill: white; fill-opacity: 0.95;"></rect><text lineHeight="1.2" class="djs-label" style="font-family: Arial, sans-serif; font-size: 12px; font-weight: normal; fill: black;"><tspan x="7.4736328125" y="46.4">Select Product Group</tspan><tspan x="32.3115234375" y="60.8">and Product</tspan></text></g><rect class="djs-hit djs-hit-all" x="0" y="0" width="130" height="100" style="fill: none; stroke-opacity: 0; stroke: white; stroke-width: 15px;"></rect><rect x="-6" y="-6" width="142" height="112" class="djs-outline" style="fill: none;"></rect></g></g><g class="djs-group"><g class="djs-element djs-shape" data-element-id="Activity_1o9tiwl" style="display: block;" transform="matrix(1 0 0 1 205 130)"><g class="djs-visual"><rect x="0" y="0" width="130" height="100" rx="10" ry="10" style="stroke: black; stroke-width: 2px; fill: white; fill-opacity: 0.95;"></rect><text lineHeight="1.2" class="djs-label" style="font-family: Arial, sans-serif; font-size: 12px; font-weight: normal; fill: black;"><tspan x="21.310546875" y="53.599999999999994">Receive request</tspan></text></g><rect class="djs-hit djs-hit-all" x="0" y="0" width="130" height="100" style="fill: none; stroke-opacity: 0; stroke: white; stroke-width: 15px;"></rect><rect x="-6" y="-6" width="142" height="112" class="djs-outline" style="fill: none;"></rect></g></g><g class="djs-group"><g class="djs-element djs-shape" data-element-id="DataObjectReference_1svlolt" style="display: block;" transform="matrix(1 0 0 1 112 155)"><g class="djs-visual"><path d="m 0,0 28.23529411764706,0 7.058823529411765,8.196721311475411 0,40.98360655737705 -35.294117647058826,0 0,-49.18032786885246 28.23529411764706,0 0,8.196721311475411 7.058823529411765,0" style="fill: white; stroke-width: 2px; stroke: black; fill-opacity: 0.95;"></path></g><rect class="djs-hit djs-hit-all" x="0" y="0" width="36" height="50" style="fill: none; stroke-opacity: 0; stroke: white; stroke-width: 15px;"></rect><rect x="-6" y="-6" width="48" height="62" class="djs-outline" style="fill: none;"></rect></g></g><g class="djs-group"><g class="djs-element djs-shape" data-element-id="DataObjectReference_1svlolt_label" style="display: block;" transform="matrix(1 0 0 1 84 205)"><g class="djs-visual"><text lineHeight="1.2" class="djs-label" style="font-family: Arial, sans-serif; font-size: 11px; font-weight: normal; fill: black;"><tspan x="0" y="9.899999999999999">Customer Request</tspan></text></g><rect class="djs-hit djs-hit-all" x="0" y="0" width="93" height="14" style="fill: none; stroke-opacity: 0; stroke: white; stroke-width: 15px;"></rect><rect x="-6" y="-6" width="105" height="26" class="djs-outline" style="fill: none;"></rect></g></g><g class="djs-group"><g class="djs-element djs-shape" data-element-id="Activity_08jd9xw" style="display: block;" transform="matrix(1 0 0 1 205 1780)"><g class="djs-visual"><rect x="0" y="0" width="130" height="100" rx="10" ry="10" style="stroke: black; stroke-width: 2px; fill: white; fill-opacity: 0.95;"></rect><text lineHeight="1.2" class="djs-label" style="font-family: Arial, sans-serif; font-size: 12px; font-weight: normal; fill: black;"><tspan x="15.92578125" y="53.599999999999994">Perform Validation</tspan></text></g><rect class="djs-hit djs-hit-all" x="0" y="0" width="130" height="100" style="fill: none; stroke-opacity: 0; stroke: white; stroke-width: 15px;"></rect><rect x="-6" y="-6" width="142" height="112" class="djs-outline" style="fill: none;"></rect></g></g><g class="djs-group"><g class="djs-element djs-shape" data-element-id="Gateway_0ixeakb" style="display: block;" transform="matrix(1 0 0 1 245 1915)"><g class="djs-visual"><polygon points="25,0 50,25 25,50 0,25" style="stroke: black; stroke-width: 2px; fill: white; fill-opacity: 0.95;"></polygon><path d="m 16,15 7.42857142857143,9.714285714285715 -7.42857142857143,9.714285714285715 3.428571428571429,0 5.714285714285715,-7.464228571428572 5.714285714285715,7.464228571428572 3.428571428571429,0 -7.42857142857143,-9.714285714285715 7.42857142857143,-9.714285714285715 -3.428571428571429,0 -5.714285714285715,7.464228571428572 -5.714285714285715,-7.464228571428572 -3.428571428571429,0 z" style="fill: black; stroke-width: 1px; stroke: black;"></path></g><rect class="djs-hit djs-hit-all" x="0" y="0" width="50" height="50" style="fill: none; stroke-opacity: 0; stroke: white; stroke-width: 15px;"></rect><rect x="-6" y="-6" width="62" height="62" class="djs-outline" style="fill: none;"></rect></g></g><g class="djs-group"><g class="djs-element djs-shape" data-element-id="Activity_1ymklnq" style="display: block;" transform="matrix(1 0 0 1 425 2030)"><g class="djs-visual"><rect x="0" y="0" width="130" height="100" rx="10" ry="10" style="stroke: black; stroke-width: 2px; fill: white; fill-opacity: 0.95;"></rect><text lineHeight="1.2" class="djs-label" style="font-family: Arial, sans-serif; font-size: 12px; font-weight: normal; fill: black;"><tspan x="18.9765625" y="53.599999999999994">Display overrides</tspan></text></g><rect class="djs-hit djs-hit-all" x="0" y="0" width="130" height="100" style="fill: none; stroke-opacity: 0; stroke: white; stroke-width: 15px;"></rect><rect x="-6" y="-6" width="142" height="112" class="djs-outline" style="fill: none;"></rect></g></g><g class="djs-group"><g class="djs-element djs-shape" data-element-id="Activity_1064aa2" style="display: block;" transform="matrix(1 0 0 1 425 2170)"><g class="djs-visual"><rect x="0" y="0" width="130" height="100" rx="10" ry="10" style="stroke: black; stroke-width: 2px; fill: white; fill-opacity: 0.95;"></rect><text lineHeight="1.2" class="djs-label" style="font-family: Arial, sans-serif; font-size: 12px; font-weight: normal; fill: black;"><tspan x="20.8125" y="53.599999999999994">Accept overrides</tspan></text></g><rect class="djs-hit djs-hit-all" x="0" y="0" width="130" height="100" style="fill: none; stroke-opacity: 0; stroke: white; stroke-width: 15px;"></rect><rect x="-6" y="-6" width="142" height="112" class="djs-outline" style="fill: none;"></rect></g></g><g class="djs-group"><g class="djs-element djs-shape" data-element-id="Activity_0he2ds4" style="display: block;" transform="matrix(1 0 0 1 205 580)"><g class="djs-visual"><rect x="0" y="0" width="130" height="100" rx="10" ry="10" style="stroke: black; stroke-width: 2px; fill: white; fill-opacity: 0.95;"></rect><text lineHeight="1.2" class="djs-label" style="font-family: Arial, sans-serif; font-size: 12px; font-weight: normal; fill: black;"><tspan x="10.9716796875" y="53.599999999999994">Create arrangement</tspan></text></g><rect class="djs-hit djs-hit-all" x="0" y="0" width="130" height="100" style="fill: none; stroke-opacity: 0; stroke: white; stroke-width: 15px;"></rect><rect x="-6" y="-6" width="142" height="112" class="djs-outline" style="fill: none;"></rect></g></g><g class="djs-group"><g class="djs-element djs-shape" data-element-id="Gateway_1kwk2sq" style="display: block;" transform="matrix(1 0 0 1 245 2275)"><g class="djs-visual"><polygon points="25,0 50,25 25,50 0,25" style="stroke: black; stroke-width: 2px; fill: white; fill-opacity: 0.95;"></polygon><path d="m 16,15 7.42857142857143,9.714285714285715 -7.42857142857143,9.714285714285715 3.428571428571429,0 5.714285714285715,-7.464228571428572 5.714285714285715,7.464228571428572 3.428571428571429,0 -7.42857142857143,-9.714285714285715 7.42857142857143,-9.714285714285715 -3.428571428571429,0 -5.714285714285715,7.464228571428572 -5.714285714285715,-7.464228571428572 -3.428571428571429,0 z" style="fill: black; stroke-width: 1px; stroke: black;"></path></g><rect class="djs-hit djs-hit-all" x="0" y="0" width="50" height="50" style="fill: none; stroke-opacity: 0; stroke: white; stroke-width: 15px;"></rect><rect x="-6" y="-6" width="62" height="62" class="djs-outline" style="fill: none;"></rect></g></g><g class="djs-group"><g class="djs-element djs-shape" data-element-id="Activity_1ftt1wb" style="display: block;" transform="matrix(1 0 0 1 205 2630)"><g class="djs-visual"><rect x="0" y="0" width="130" height="100" rx="10" ry="10" style="stroke: black; stroke-width: 2px; fill: white; fill-opacity: 0.95;"></rect><text lineHeight="1.2" class="djs-label" style="font-family: Arial, sans-serif; font-size: 12px; font-weight: normal; fill: black;"><tspan x="9.6328125" y="53.599999999999994">Update arrangement</tspan></text></g><rect class="djs-hit djs-hit-all" x="0" y="0" width="130" height="100" style="fill: none; stroke-opacity: 0; stroke: white; stroke-width: 15px;"></rect><rect x="-6" y="-6" width="142" height="112" class="djs-outline" style="fill: none;"></rect></g></g><g class="djs-group"><g class="djs-element djs-shape" data-element-id="Activity_0n9at5v" style="display: block;" transform="matrix(1 0 0 1 205 1260)"><g class="djs-visual"><rect x="0" y="0" width="130" height="100" rx="10" ry="10" style="stroke: black; stroke-width: 2px; fill: white; fill-opacity: 0.95;"></rect><text lineHeight="1.2" class="djs-label" style="font-family: Arial, sans-serif; font-size: 12px; font-weight: normal; fill: black;"><tspan x="8.302734375" y="46.4">Decide on settlement </tspan><tspan x="53.99609375" y="60.8">type</tspan></text></g><rect class="djs-hit djs-hit-all" x="0" y="0" width="130" height="100" style="fill: none; stroke-opacity: 0; stroke: white; stroke-width: 15px;"></rect><rect x="-6" y="-6" width="142" height="112" class="djs-outline" style="fill: none;"></rect></g></g><g class="djs-group"><g class="djs-element djs-shape" data-element-id="Gateway_02qy3d1" style="display: block;" transform="matrix(1 0 0 1 245 1415)"><g class="djs-visual"><polygon points="25,0 50,25 25,50 0,25" style="stroke: black; stroke-width: 2px; fill: white; fill-opacity: 0.95;"></polygon><path d="m 16,15 7.42857142857143,9.714285714285715 -7.42857142857143,9.714285714285715 3.428571428571429,0 5.714285714285715,-7.464228571428572 5.714285714285715,7.464228571428572 3.428571428571429,0 -7.42857142857143,-9.714285714285715 7.42857142857143,-9.714285714285715 -3.428571428571429,0 -5.714285714285715,7.464228571428572 -5.714285714285715,-7.464228571428572 -3.428571428571429,0 z" style="fill: black; stroke-width: 1px; stroke: black;"></path></g><rect class="djs-hit djs-hit-all" x="0" y="0" width="50" height="50" style="fill: none; stroke-opacity: 0; stroke: white; stroke-width: 15px;"></rect><rect x="-6" y="-6" width="62" height="62" class="djs-outline" style="fill: none;"></rect></g></g><g class="djs-group"><g class="djs-element djs-shape" data-element-id="Activity_1i9ldfw" style="display: block;" transform="matrix(1 0 0 1 545 1520)"><g class="djs-visual"><rect x="0" y="0" width="130" height="100" rx="10" ry="10" style="stroke: black; stroke-width: 2px; fill: white; fill-opacity: 0.95;"></rect><text lineHeight="1.2" class="djs-label" style="font-family: Arial, sans-serif; font-size: 12px; font-weight: normal; fill: black;"><tspan x="30.146484375" y="32">Capture auto </tspan><tspan x="36.9873046875" y="46.4">settlement </tspan><tspan x="21.48046875" y="60.8">instruction using </tspan><tspan x="15.978515625" y="75.19999999999999">Customer account</tspan></text></g><rect class="djs-hit djs-hit-all" x="0" y="0" width="130" height="100" style="fill: none; stroke-opacity: 0; stroke: white; stroke-width: 15px;"></rect><rect x="-6" y="-6" width="142" height="112" class="djs-outline" style="fill: none;"></rect></g></g><g class="djs-group"><g class="djs-element djs-shape" data-element-id="Activity_1jvfvzp" style="display: block;" transform="matrix(1 0 0 1 995 1520)"><g class="djs-visual"><rect x="0" y="0" width="130" height="100" rx="10" ry="10" style="stroke: black; stroke-width: 2px; fill: white; fill-opacity: 0.95;"></rect><text lineHeight="1.2" class="djs-label" style="font-family: Arial, sans-serif; font-size: 12px; font-weight: normal; fill: black;"><tspan x="30.146484375" y="32">Capture auto </tspan><tspan x="36.9873046875" y="46.4">settlement </tspan><tspan x="21.48046875" y="60.8">instruction using </tspan><tspan x="23.81640625" y="75.19999999999999">Payment Order</tspan></text></g><rect class="djs-hit djs-hit-all" x="0" y="0" width="130" height="100" style="fill: none; stroke-opacity: 0; stroke: white; stroke-width: 15px;"></rect><rect x="-6" y="-6" width="142" height="112" class="djs-outline" style="fill: none;"></rect></g></g><g class="djs-group"><g class="djs-element djs-shape" data-element-id="Gateway_1fiwdf6" style="display: block;" transform="matrix(1 0 0 1 245 1685)"><g class="djs-visual"><polygon points="25,0 50,25 25,50 0,25" style="stroke: black; stroke-width: 2px; fill: white; fill-opacity: 0.95;"></polygon><path d="m 16,15 7.42857142857143,9.714285714285715 -7.42857142857143,9.714285714285715 3.428571428571429,0 5.714285714285715,-7.464228571428572 5.714285714285715,7.464228571428572 3.428571428571429,0 -7.42857142857143,-9.714285714285715 7.42857142857143,-9.714285714285715 -3.428571428571429,0 -5.714285714285715,7.464228571428572 -5.714285714285715,-7.464228571428572 -3.428571428571429,0 z" style="fill: black; stroke-width: 1px; stroke: black;"></path></g><rect class="djs-hit djs-hit-all" x="0" y="0" width="50" height="50" style="fill: none; stroke-opacity: 0; stroke: white; stroke-width: 15px;"></rect><rect x="-6" y="-6" width="62" height="62" class="djs-outline" style="fill: none;"></rect></g></g><g class="djs-group"><g class="djs-element djs-shape" data-element-id="TextAnnotation_1u4cyv3" style="display: block;" transform="matrix(1 0 0 1 400 400)"><g class="djs-visual"><rect x="0" y="0" width="110" height="55" rx="0" ry="0" style="stroke: none; stroke-width: 2px; fill: none;"></rect><path d="m 0, 0 m 10,0 l -10,0 l 0,55 l 10,0" style="fill: none; stroke-width: 2px; stroke: black;"></path><text lineHeight="1.2" class="djs-label" style="font-family: Arial, sans-serif; font-size: 12px; font-weight: normal; fill: black;"><tspan x="5" y="15.799999999999999">- Customer</tspan><tspan x="5" y="30.199999999999996">- Currency</tspan><tspan x="5" y="44.599999999999994">- Effective Date</tspan></text></g><rect class="djs-hit djs-hit-all" x="0" y="0" width="110" height="55" style="fill: none; stroke-opacity: 0; stroke: white; stroke-width: 15px;"></rect><rect x="-6" y="-6" width="122" height="67" class="djs-outline" style="fill: none;"></rect></g></g><g class="djs-group"><g class="djs-element djs-shape" data-element-id="TextAnnotation_0ted5ya" style="display: block;" transform="matrix(1 0 0 1 400 660)"><g class="djs-visual"><rect x="0" y="0" width="530" height="602" rx="0" ry="0" style="stroke: none; stroke-width: 2px; fill: none;"></rect><path d="m 0, 0 m 10,0 l -10,0 l 0,602 l 10,0" style="fill: none; stroke-width: 2px; stroke: black;"></path><text lineHeight="1.2" class="djs-label" style="font-family: Arial, sans-serif; font-size: 12px; font-weight: normal; fill: black;"><tspan x="5" y="15.799999999999999">- Account</tspan><tspan x="5" y="30.199999999999996">&nbsp; &nbsp;- Asset Reference</tspan><tspan x="5" y="44.599999999999994">- Commitment and Term</tspan><tspan x="5" y="58.99999999999999">&nbsp; &nbsp;- Amount</tspan><tspan x="5" y="73.39999999999999">&nbsp; &nbsp;- Term</tspan><tspan x="5" y="87.79999999999998">&nbsp; &nbsp;- On Maturity</tspan><tspan x="5" y="102.19999999999999">&nbsp; &nbsp;- Adv Payment Type</tspan><tspan x="5" y="116.6">&nbsp; &nbsp;- Adv Type Value</tspan><tspan x="5" y="131">- Extensions</tspan><tspan x="5" y="145.4">&nbsp; &nbsp;- Change Date Type</tspan><tspan x="5" y="159.8">&nbsp; &nbsp;- Change Period</tspan><tspan x="5" y="174.20000000000002">- Lease Interest</tspan><tspan x="5" y="188.60000000000002">&nbsp; &nbsp;- Interest Type &amp; Rate Grid/ Fixed Rate/ Floating Index/ Periodic Index &amp; Spread Type/</tspan><tspan x="5" y="203.00000000000003">&nbsp; &nbsp; &nbsp;Spread Oper/ Spread Rate &amp; Cust Margin Grid &amp; Margin Type &amp; Margin Oper/ Margin Reset</tspan><tspan x="5" y="217.40000000000003">- Arrangement Fee</tspan><tspan x="5" y="231.80000000000004">&nbsp; &nbsp;- Type</tspan><tspan x="5" y="246.20000000000005">&nbsp; &nbsp;- Currency</tspan><tspan x="5" y="260.6">&nbsp; &nbsp;- Rate</tspan><tspan x="5" y="275">&nbsp; &nbsp;- Grid Reset Method</tspan><tspan x="5" y="289.4">- Document Fee</tspan><tspan x="5" y="303.79999999999995">&nbsp; &nbsp; - Flat Charge</tspan><tspan x="5" y="318.19999999999993">- Vat</tspan><tspan x="5" y="332.5999999999999">&nbsp; &nbsp;- Tax Property</tspan><tspan x="5" y="346.9999999999999">&nbsp; &nbsp;- Tax Condition</tspan><tspan x="5" y="361.39999999999986">&nbsp; &nbsp;- Tax code</tspan><tspan x="5" y="375.79999999999984">&nbsp; &nbsp;- Payment Method</tspan><tspan x="5" y="390.1999999999998">- Subscription Services</tspan><tspan x="5" y="404.5999999999998">&nbsp; &nbsp;- Subscription</tspan><tspan x="5" y="418.9999999999998">&nbsp; &nbsp;- Variation</tspan><tspan x="5" y="433.39999999999975">&nbsp; &nbsp;- Payment Mode</tspan><tspan x="5" y="447.7999999999997">&nbsp; &nbsp;- Start Date</tspan><tspan x="5" y="462.1999999999997">&nbsp; &nbsp;- Term</tspan><tspan x="5" y="476.5999999999997">&nbsp; &nbsp;- Expiry Date</tspan><tspan x="5" y="490.99999999999966">&nbsp; &nbsp;- Frequency</tspan><tspan x="5" y="505.39999999999964">&nbsp; &nbsp;- Bill Produced</tspan><tspan x="5" y="519.7999999999996">- Schedule</tspan><tspan x="5" y="534.1999999999996">&nbsp; &nbsp;- Payments</tspan><tspan x="5" y="548.5999999999996">&nbsp; &nbsp;- Payment Type</tspan><tspan x="5" y="562.9999999999995">&nbsp; &nbsp;- Amount/ Percentage/ No of payments</tspan><tspan x="5" y="577.3999999999995">- Residual Details</tspan><tspan x="5" y="591.7999999999995">&nbsp; &nbsp;- Residual Amount/ Residual Percentage</tspan></text></g><rect class="djs-hit djs-hit-all" x="0" y="0" width="530" height="602" style="fill: none; stroke-opacity: 0; stroke: white; stroke-width: 15px;"></rect><rect x="-6" y="-6" width="542" height="614" class="djs-outline" style="fill: none;"></rect></g></g><g class="djs-group"><g class="djs-element djs-shape" data-element-id="TextAnnotation_02rjxho" style="display: block;" transform="matrix(1 0 0 1 400 260)"><g class="djs-visual"><rect x="0" y="0" width="210" height="55" rx="0" ry="0" style="stroke: none; stroke-width: 2px; fill: none;"></rect><path d="m 0, 0 m 10,0 l -10,0 l 0,55 l 10,0" style="fill: none; stroke-width: 2px; stroke: black;"></path><text lineHeight="1.2" class="djs-label" style="font-family: Arial, sans-serif; font-size: 12px; font-weight: normal; fill: black;"><tspan x="5" y="15.799999999999999">Contract Hire</tspan><tspan x="5" y="30.199999999999996">&nbsp;- Contract Hire (Technology)</tspan><tspan x="5" y="44.599999999999994">&nbsp;- Contract Hire (Trucks)</tspan></text></g><rect class="djs-hit djs-hit-all" x="0" y="0" width="210" height="55" style="fill: none; stroke-opacity: 0; stroke: white; stroke-width: 15px;"></rect><rect x="-6" y="-6" width="222" height="67" class="djs-outline" style="fill: none;"></rect></g></g><g class="djs-group"><g class="djs-element djs-shape" data-element-id="TextAnnotation_0ylvm68" style="display: block;" transform="matrix(1 0 0 1 400 550)"><g class="djs-visual"><rect x="0" y="0" width="170" height="40" rx="0" ry="0" style="stroke: none; stroke-width: 2px; fill: none;"></rect><path d="m 0, 0 m 10,0 l -10,0 l 0,40 l 10,0" style="fill: none; stroke-width: 2px; stroke: black;"></path><text lineHeight="1.2" class="djs-label" style="font-family: Arial, sans-serif; font-size: 12px; font-weight: normal; fill: black;"><tspan x="5" y="15.799999999999999">- Arrangement ID generated</tspan><tspan x="5" y="30.199999999999996">- Status set as Unauthorised</tspan></text></g><rect class="djs-hit djs-hit-all" x="0" y="0" width="170" height="40" style="fill: none; stroke-opacity: 0; stroke: white; stroke-width: 15px;"></rect><rect x="-6" y="-6" width="182" height="52" class="djs-outline" style="fill: none;"></rect></g></g><g class="djs-group"><g class="djs-element djs-shape" data-element-id="TextAnnotation_1haen1u" style="display: block;" transform="matrix(1 0 0 1 710 1520)"><g class="djs-visual"><rect x="0" y="0" width="250" height="40" rx="0" ry="0" style="stroke: none; stroke-width: 2px; fill: none;"></rect><path d="m 0, 0 m 10,0 l -10,0 l 0,40 l 10,0" style="fill: none; stroke-width: 2px; stroke: black;"></path><text lineHeight="1.2" class="djs-label" style="font-family: Arial, sans-serif; font-size: 12px; font-weight: normal; fill: black;"><tspan x="5" y="15.799999999999999">- PAYIN.SETTLEMENT attribute set as Yes</tspan><tspan x="5" y="30.199999999999996">- Account (Customer Account number)</tspan></text></g><rect class="djs-hit djs-hit-all" x="0" y="0" width="250" height="40" style="fill: none; stroke-opacity: 0; stroke: white; stroke-width: 15px;"></rect><rect x="-6" y="-6" width="262" height="52" class="djs-outline" style="fill: none;"></rect></g></g><g class="djs-group"><g class="djs-element djs-shape" data-element-id="TextAnnotation_09u7d05" style="display: block;" transform="matrix(1 0 0 1 1170 1519)"><g class="djs-visual"><rect x="0" y="0" width="250" height="41" rx="0" ry="0" style="stroke: none; stroke-width: 2px; fill: none;"></rect><path d="m 0, 0 m 10,0 l -10,0 l 0,41 l 10,0" style="fill: none; stroke-width: 2px; stroke: black;"></path><text lineHeight="1.2" class="djs-label" style="font-family: Arial, sans-serif; font-size: 12px; font-weight: normal; fill: black;"><tspan x="5" y="15.799999999999999">- PAYIN.SETTLEMENT attribute Set&nbsp; as Yes</tspan><tspan x="5" y="30.199999999999996">- Beneficiary details</tspan></text></g><rect class="djs-hit djs-hit-all" x="0" y="0" width="250" height="41" style="fill: none; stroke-opacity: 0; stroke: white; stroke-width: 15px;"></rect><rect x="-6" y="-6" width="262" height="53" class="djs-outline" style="fill: none;"></rect></g></g><g class="djs-group"><g class="djs-element djs-connection" data-element-id="DataInputAssociation_0x57uup" style="display: block;"><g class="djs-visual"><polyline points="148,180 205,180 " style="fill: none; stroke: black; stroke-width: 2px; stroke-dasharray: 0.5, 5; stroke-linecap: round; stroke-linejoin: round; marker-end: url(&quot;#association-end-white-black-5v5xa86gxcqk93sdiejf9wr20&quot;);"></polyline></g><polyline points="148,180 205,180 " class="djs-hit djs-hit-stroke" style="fill: none; stroke-opacity: 0; stroke: white; stroke-width: 15px;"></polyline><rect x="142" y="174" width="69" height="12" class="djs-outline" style="fill: none;"></rect></g></g><g class="djs-group"><g class="djs-element djs-shape" data-element-id="Flow_1jnpzhj_label" style="display: block;" transform="matrix(1 0 0 1 284 1968)"><g class="djs-visual"><text lineHeight="1.2" class="djs-label" style="font-family: Arial, sans-serif; font-size: 11px; font-weight: normal; fill: black;"><tspan x="2.70458984375" y="9.899999999999999">Validation </tspan><tspan x="0" y="23.099999999999998">successful</tspan></text></g><rect class="djs-hit djs-hit-all" x="0" y="0" width="52" height="27" style="fill: none; stroke-opacity: 0; stroke: white; stroke-width: 15px;"></rect><rect x="-6" y="-6" width="64" height="39" class="djs-outline" style="fill: none;"></rect></g></g><g class="djs-group"><g class="djs-element djs-shape" data-element-id="Flow_0snoda9_label" style="display: block;" transform="matrix(1 0 0 1 498 1975)"><g class="djs-visual"><text lineHeight="1.2" class="djs-label" style="font-family: Arial, sans-serif; font-size: 11px; font-weight: normal; fill: black;"><tspan x="8.822265625" y="9.899999999999999">Validation </tspan><tspan x="0" y="23.099999999999998">unsuccessful</tspan></text></g><rect class="djs-hit djs-hit-all" x="0" y="0" width="65" height="27" style="fill: none; stroke-opacity: 0; stroke: white; stroke-width: 15px;"></rect><rect x="-6" y="-6" width="77" height="39" class="djs-outline" style="fill: none;"></rect></g></g><g class="djs-group"><g class="djs-element djs-shape" data-element-id="Flow_08icv0o_label" style="display: block;" transform="matrix(1 0 0 1 619 1474)"><g class="djs-visual"><text lineHeight="1.2" class="djs-label" style="font-family: Arial, sans-serif; font-size: 11px; font-weight: normal; fill: black;"><tspan x="0" y="9.899999999999999">Internal settlement</tspan></text></g><rect class="djs-hit djs-hit-all" x="0" y="0" width="92" height="14" style="fill: none; stroke-opacity: 0; stroke: white; stroke-width: 15px;"></rect><rect x="-6" y="-6" width="104" height="26" class="djs-outline" style="fill: none;"></rect></g></g><g class="djs-group"><g class="djs-element djs-shape" data-element-id="Flow_1tcl5k6_label" style="display: block;" transform="matrix(1 0 0 1 1072 1474)"><g class="djs-visual"><text lineHeight="1.2" class="djs-label" style="font-family: Arial, sans-serif; font-size: 11px; font-weight: normal; fill: black;"><tspan x="0" y="9.899999999999999">External settlement</tspan></text></g><rect class="djs-hit djs-hit-all" x="0" y="0" width="96" height="14" style="fill: none; stroke-opacity: 0; stroke: white; stroke-width: 15px;"></rect><rect x="-6" y="-6" width="108" height="26" class="djs-outline" style="fill: none;"></rect></g></g><g class="djs-group"><g class="djs-element djs-shape" data-element-id="Flow_0uq601m_label" style="display: block;" transform="matrix(1 0 0 1 282 1461)"><g class="djs-visual"><text lineHeight="1.2" class="djs-label" style="font-family: Arial, sans-serif; font-size: 11px; font-weight: normal; fill: black;"><tspan x="0" y="9.899999999999999">Manual Repayment </tspan><tspan x="2.364990234375" y="23.099999999999998">(Settlement details </tspan><tspan x="15.89306640625" y="36.3">not provided)</tspan></text></g><rect class="djs-hit djs-hit-all" x="0" y="0" width="97" height="40" style="fill: none; stroke-opacity: 0; stroke: white; stroke-width: 15px;"></rect><rect x="-6" y="-6" width="109" height="52" class="djs-outline" style="fill: none;"></rect></g></g><g class="djs-group"><g class="djs-element djs-connection" data-element-id="Association_007ct6m" style="display: block;"><g class="djs-visual"><polyline points="335,457 400,432 " style="fill: none; stroke: black; stroke-width: 2px; stroke-dasharray: 0.5, 5; stroke-linecap: round; stroke-linejoin: round;"></polyline></g><polyline points="335,457 400,432 " class="djs-hit djs-hit-stroke" style="fill: none; stroke-opacity: 0; stroke: white; stroke-width: 15px;"></polyline><rect x="329" y="426" width="77" height="37" class="djs-outline" style="fill: none;"></rect></g></g><g class="djs-group"><g class="djs-element djs-connection" data-element-id="Association_0e9c0v7" style="display: block;"><g class="djs-visual"><polyline points="335,317 400,304 " style="fill: none; stroke: black; stroke-width: 2px; stroke-dasharray: 0.5, 5; stroke-linecap: round; stroke-linejoin: round;"></polyline></g><polyline points="335,317 400,304 " class="djs-hit djs-hit-stroke" style="fill: none; stroke-opacity: 0; stroke: white; stroke-width: 15px;"></polyline><rect x="329" y="298" width="77" height="25" class="djs-outline" style="fill: none;"></rect></g></g><g class="djs-group"><g class="djs-element djs-connection" data-element-id="Association_0tej2n2" style="display: block;"><g class="djs-visual"><polyline points="335,602 400,570 " style="fill: none; stroke: black; stroke-width: 2px; stroke-dasharray: 0.5, 5; stroke-linecap: round; stroke-linejoin: round;"></polyline></g><polyline points="335,602 400,570 " class="djs-hit djs-hit-stroke" style="fill: none; stroke-opacity: 0; stroke: white; stroke-width: 15px;"></polyline><rect x="329" y="564" width="77" height="44" class="djs-outline" style="fill: none;"></rect></g></g><g class="djs-group"><g class="djs-element djs-connection" data-element-id="Association_1ol30nq" style="display: block;"><g class="djs-visual"><polyline points="675,1551 710,1541 " style="fill: none; stroke: black; stroke-width: 2px; stroke-dasharray: 0.5, 5; stroke-linecap: round; stroke-linejoin: round;"></polyline></g><polyline points="675,1551 710,1541 " class="djs-hit djs-hit-stroke" style="fill: none; stroke-opacity: 0; stroke: white; stroke-width: 15px;"></polyline><rect x="669" y="1535" width="47" height="22" class="djs-outline" style="fill: none;"></rect></g></g><g class="djs-group"><g class="djs-element djs-connection" data-element-id="Association_1ccjtg2" style="display: block;"><g class="djs-visual"><polyline points="1125,1549 1170,1537 " style="fill: none; stroke: black; stroke-width: 2px; stroke-dasharray: 0.5, 5; stroke-linecap: round; stroke-linejoin: round;"></polyline></g><polyline points="1125,1549 1170,1537 " class="djs-hit djs-hit-stroke" style="fill: none; stroke-opacity: 0; stroke: white; stroke-width: 15px;"></polyline><rect x="1119" y="1531" width="57" height="24" class="djs-outline" style="fill: none;"></rect></g></g><g class="djs-group"><g class="djs-element djs-connection" data-element-id="Association_1x27ncz" style="display: block;"><g class="djs-visual"><polyline points="335,862 400,824 " style="fill: none; stroke: black; stroke-width: 2px; stroke-dasharray: 0.5, 5; stroke-linecap: round; stroke-linejoin: round;"></polyline></g><polyline points="335,862 400,824 " class="djs-hit djs-hit-stroke" style="fill: none; stroke-opacity: 0; stroke: white; stroke-width: 15px;"></polyline><rect x="329" y="818" width="77" height="50" class="djs-outline" style="fill: none;"></rect></g></g></g></g><defs><marker id="sequenceflow-end-white-black-5v5xa86gxcqk93sdiejf9wr20" viewBox="0 0 20 20" refX="11" refY="10" markerWidth="10" markerHeight="10" orient="auto"><path d="M 1 5 L 11 10 L 1 15 Z" style="fill: black; stroke-width: 1px; stroke-linecap: round; stroke-dasharray: 10000, 1; stroke: black;"></path></marker><marker id="association-end-white-black-5v5xa86gxcqk93sdiejf9wr20" viewBox="0 0 20 20" refX="12" refY="10" markerWidth="10" markerHeight="10" orient="auto"><path d="M 1 5 L 11 10 L 1 15" style="fill: none; stroke-width: 1.5px; stroke-linecap: round; stroke-dasharray: 10000, 1; stroke: black;"></path></marker></defs></svg>