<svg width="100%" height="100%" viewBox="-50, -26, 1835, 3784"><g><g class="djs-visual" id="Flow_0oyafji" transform="translate(0 0)"><path d="m  255,2040L540,2040 L540,2102 " style="fill: none; stroke-width: 2px; stroke: black; stroke-linejoin: round; marker-end: url(&quot;#sequenceflow-end-white-black-bq2vvchylcl7cbvye21th1xqv&quot;);"></path></g><g class="djs-visual" id="Flow_1xshfoo" transform="translate(0 0)"><path d="m  230,2065L230,2160 " style="fill: none; stroke-width: 2px; stroke: black; stroke-linejoin: round; marker-end: url(&quot;#sequenceflow-end-white-black-bq2vvchylcl7cbvye21th1xqv&quot;);"></path></g><g class="djs-visual" id="Flow_0x9t15z" transform="translate(0 0)"><path d="m  230,1970L230,2015 " style="fill: none; stroke-width: 2px; stroke: black; stroke-linejoin: round; marker-end: url(&quot;#sequenceflow-end-white-black-bq2vvchylcl7cbvye21th1xqv&quot;);"></path></g><g class="djs-visual" id="Flow_0c22yho" transform="translate(0 0)"><path d="m  255,1750L540,1750 L540,1802 " style="fill: none; stroke-width: 2px; stroke: black; stroke-linejoin: round; marker-end: url(&quot;#sequenceflow-end-white-black-bq2vvchylcl7cbvye21th1xqv&quot;);"></path></g><g class="djs-visual" id="Flow_07z6279" transform="translate(0 0)"><path d="m  230,1775L230,1870 " style="fill: none; stroke-width: 2px; stroke: black; stroke-linejoin: round; marker-end: url(&quot;#sequenceflow-end-white-black-bq2vvchylcl7cbvye21th1xqv&quot;);"></path></g><g class="djs-visual" id="Flow_000snya" transform="translate(0 0)"><path d="m  230,1680L230,1725 " style="fill: none; stroke-width: 2px; stroke: black; stroke-linejoin: round; marker-end: url(&quot;#sequenceflow-end-white-black-bq2vvchylcl7cbvye21th1xqv&quot;);"></path></g><g class="djs-visual" id="Flow_0w4zdx4" transform="translate(0 0)"><path d="m  230,3576L230,3632 " style="fill: none; stroke-width: 2px; stroke: black; stroke-linejoin: round; marker-end: url(&quot;#sequenceflow-end-white-black-bq2vvchylcl7cbvye21th1xqv&quot;);"></path></g><g class="djs-visual" id="Flow_12ydk97" transform="translate(0 0)"><path d="m  230,3382L230,3476 " style="fill: none; stroke-width: 2px; stroke: black; stroke-linejoin: round; marker-end: url(&quot;#sequenceflow-end-white-black-bq2vvchylcl7cbvye21th1xqv&quot;);"></path></g><g class="djs-visual" id="Flow_1ix73n8" transform="translate(0 0)"><path d="m  230,3194L230,3282 " style="fill: none; stroke-width: 2px; stroke: black; stroke-linejoin: round; marker-end: url(&quot;#sequenceflow-end-white-black-bq2vvchylcl7cbvye21th1xqv&quot;);"></path></g><g class="djs-visual" id="Flow_1qc5t1s" transform="translate(0 0)"><path d="m  230,3011L230,3094 " style="fill: none; stroke-width: 2px; stroke: black; stroke-linejoin: round; marker-end: url(&quot;#sequenceflow-end-white-black-bq2vvchylcl7cbvye21th1xqv&quot;);"></path></g><g class="djs-visual" id="Flow_0xzgibc" transform="translate(0 0)"><path d="m  540,2950L540,2986 L255,2986 " style="fill: none; stroke-width: 2px; stroke: black; stroke-linejoin: round; marker-end: url(&quot;#sequenceflow-end-white-black-bq2vvchylcl7cbvye21th1xqv&quot;);"></path></g><g class="djs-visual" id="Flow_015vcbq" transform="translate(0 0)"><path d="m  230,2506L230,2961 " style="fill: none; stroke-width: 2px; stroke: black; stroke-linejoin: round; marker-end: url(&quot;#sequenceflow-end-white-black-bq2vvchylcl7cbvye21th1xqv&quot;);"></path></g><g class="djs-visual" id="Flow_0ar6nep" transform="translate(0 0)"><path d="m  845,2950L845,3022 " style="fill: none; stroke-width: 2px; stroke: black; stroke-linejoin: round; marker-end: url(&quot;#sequenceflow-end-white-black-bq2vvchylcl7cbvye21th1xqv&quot;);"></path></g><g class="djs-visual" id="Flow_1xnyo5p" transform="translate(0 0)"><path d="m  845,2766L845,2850 " style="fill: none; stroke-width: 2px; stroke: black; stroke-linejoin: round; marker-end: url(&quot;#sequenceflow-end-white-black-bq2vvchylcl7cbvye21th1xqv&quot;);"></path></g><g class="djs-visual" id="Flow_1wea1r3" transform="translate(0 0)"><path d="m  565,2586L845,2586 L845,2666 " style="fill: none; stroke-width: 2px; stroke: black; stroke-linejoin: round; marker-end: url(&quot;#sequenceflow-end-white-black-bq2vvchylcl7cbvye21th1xqv&quot;);"></path></g><g class="djs-visual" id="Flow_1dvyeek" transform="translate(0 0)"><path d="m  540,2766L540,2850 " style="fill: none; stroke-width: 2px; stroke: black; stroke-linejoin: round; marker-end: url(&quot;#sequenceflow-end-white-black-bq2vvchylcl7cbvye21th1xqv&quot;);"></path></g><g class="djs-visual" id="Flow_153bits" transform="translate(0 0)"><path d="m  540,2611L540,2666 " style="fill: none; stroke-width: 2px; stroke: black; stroke-linejoin: round; marker-end: url(&quot;#sequenceflow-end-white-black-bq2vvchylcl7cbvye21th1xqv&quot;);"></path></g><g class="djs-visual" id="Flow_0r8wrwc" transform="translate(0 0)"><path d="m  540,2506L540,2561 " style="fill: none; stroke-width: 2px; stroke: black; stroke-linejoin: round; marker-end: url(&quot;#sequenceflow-end-white-black-bq2vvchylcl7cbvye21th1xqv&quot;);"></path></g><g class="djs-visual" id="Flow_1pv1itd" transform="translate(0 0)"><path d="m  255,2330L540,2330 L540,2406 " style="fill: none; stroke-width: 2px; stroke: black; stroke-linejoin: round; marker-end: url(&quot;#sequenceflow-end-white-black-bq2vvchylcl7cbvye21th1xqv&quot;);"></path></g><g class="djs-visual" id="Flow_1tz0nm9" transform="translate(0 0)"><path d="m  230,2355L230,2406 " style="fill: none; stroke-width: 2px; stroke: black; stroke-linejoin: round; marker-end: url(&quot;#sequenceflow-end-white-black-bq2vvchylcl7cbvye21th1xqv&quot;);"></path></g><g class="djs-visual" id="Flow_1y3h0jb" transform="translate(0 0)"><path d="m  230,2260L230,2305 " style="fill: none; stroke-width: 2px; stroke: black; stroke-linejoin: round; marker-end: url(&quot;#sequenceflow-end-white-black-bq2vvchylcl7cbvye21th1xqv&quot;);"></path></g><g class="djs-visual" id="Flow_1bnrbjt" transform="translate(0 0)"><path d="m  230,1525L230,1580 " style="fill: none; stroke-width: 2px; stroke: black; stroke-linejoin: round; marker-end: url(&quot;#sequenceflow-end-white-black-bq2vvchylcl7cbvye21th1xqv&quot;);"></path></g><g class="djs-visual" id="Flow_0dua9fe" transform="translate(0 0)"><path d="m  230,1413L230,1475 " style="fill: none; stroke-width: 2px; stroke: black; stroke-linejoin: round; marker-end: url(&quot;#sequenceflow-end-white-black-bq2vvchylcl7cbvye21th1xqv&quot;);"></path></g><g class="djs-visual" id="Flow_02cfgb2" transform="translate(0 0)"><path d="m  255,1210L540,1210 L540,1500 L255,1500 " style="fill: none; stroke-width: 2px; stroke: black; stroke-linejoin: round; marker-end: url(&quot;#sequenceflow-end-white-black-bq2vvchylcl7cbvye21th1xqv&quot;);"></path></g><g class="djs-visual" id="Flow_160s7cr" transform="translate(0 0)"><path d="m  230,1235L230,1313 " style="fill: none; stroke-width: 2px; stroke: black; stroke-linejoin: round; marker-end: url(&quot;#sequenceflow-end-white-black-bq2vvchylcl7cbvye21th1xqv&quot;);"></path></g><g class="djs-visual" id="Flow_05k8wd8" transform="translate(0 0)"><path d="m  230,1110L230,1185 " style="fill: none; stroke-width: 2px; stroke: black; stroke-linejoin: round; marker-end: url(&quot;#sequenceflow-end-white-black-bq2vvchylcl7cbvye21th1xqv&quot;);"></path></g><g class="djs-visual" id="Flow_0imf7p4" transform="translate(0 0)"><path d="m  540,940L540,1042 " style="fill: none; stroke-width: 2px; stroke: black; stroke-linejoin: round; marker-end: url(&quot;#sequenceflow-end-white-black-bq2vvchylcl7cbvye21th1xqv&quot;);"></path></g><g class="djs-visual" id="Flow_0tc9g4u" transform="translate(0 0)"><path d="m  230,940L230,1010 " style="fill: none; stroke-width: 2px; stroke: black; stroke-linejoin: round; marker-end: url(&quot;#sequenceflow-end-white-black-bq2vvchylcl7cbvye21th1xqv&quot;);"></path></g><g class="djs-visual" id="Flow_02f8n1u" transform="translate(0 0)"><path d="m  255,740L540,740 L540,840 " style="fill: none; stroke-width: 2px; stroke: black; stroke-linejoin: round; marker-end: url(&quot;#sequenceflow-end-white-black-bq2vvchylcl7cbvye21th1xqv&quot;);"></path></g><g class="djs-visual" id="Flow_0u1yxnz" transform="translate(0 0)"><path d="m  230,765L230,840 " style="fill: none; stroke-width: 2px; stroke: black; stroke-linejoin: round; marker-end: url(&quot;#sequenceflow-end-white-black-bq2vvchylcl7cbvye21th1xqv&quot;);"></path></g><g class="djs-visual" id="Flow_154iwir" transform="translate(0 0)"><path d="m  230,650L230,715 " style="fill: none; stroke-width: 2px; stroke: black; stroke-linejoin: round; marker-end: url(&quot;#sequenceflow-end-white-black-bq2vvchylcl7cbvye21th1xqv&quot;);"></path></g><g class="djs-visual" id="Flow_1cm36vk" transform="translate(0 0)"><path d="m  230,460L230,550 " style="fill: none; stroke-width: 2px; stroke: black; stroke-linejoin: round; marker-end: url(&quot;#sequenceflow-end-white-black-bq2vvchylcl7cbvye21th1xqv&quot;);"></path></g><g class="djs-visual" id="Flow_1jokv0b" transform="translate(0 0)"><path d="m  230,290L230,360 " style="fill: none; stroke-width: 2px; stroke: black; stroke-linejoin: round; marker-end: url(&quot;#sequenceflow-end-white-black-bq2vvchylcl7cbvye21th1xqv&quot;);"></path></g><g class="djs-visual" id="Flow_07egy86" transform="translate(0 0)"><path d="m  230,118L230,190 " style="fill: none; stroke-width: 2px; stroke: black; stroke-linejoin: round; marker-end: url(&quot;#sequenceflow-end-white-black-bq2vvchylcl7cbvye21th1xqv&quot;);"></path></g><g class="djs-visual" id="StartEvent_1bm324f" transform="translate(212 82)"><circle cx="18" cy="18" r="18" style="stroke: black; stroke-width: 2px; fill: white; fill-opacity: 0.95;"></circle></g><g class="djs-visual" id="StartEvent_1bm324f_label" transform="translate(184 30)"><text lineHeight="1.2" class="djs-label" style="font-family: Arial, sans-serif; font-size: 11px; font-weight: normal; fill: black;"><tspan x="0" y="9.899999999999999">Customer wants to </tspan><tspan x="2.5390625" y="23.099999999999998">deposit FCY cash</tspan></text></g><g class="djs-visual" id="Activity_0f7bpi9" transform="translate(165 190)"><rect x="0" y="0" width="130" height="100" rx="10" ry="10" style="stroke: black; stroke-width: 2px; fill: white; fill-opacity: 0.95;"></rect><text lineHeight="1.2" class="djs-label" style="font-family: Arial, sans-serif; font-size: 12px; font-weight: normal; fill: black;"><tspan x="11.3046875" y="46.4">Receive instructions </tspan><tspan x="25.32421875" y="60.8">from Customer</tspan></text></g><g class="djs-visual" id="DataObjectReference_1if7esd" transform="translate(62 215)"><path d="m 0,0 28.23529411764706,0 7.058823529411765,8.196721311475411 0,40.98360655737705 -35.294117647058826,0 0,-49.18032786885246 28.23529411764706,0 0,8.196721311475411 7.058823529411765,0" style="fill: white; stroke-width: 2px; stroke: black; fill-opacity: 0.95;"></path></g><g class="djs-visual" id="DataObjectReference_1if7esd_label" transform="translate(36 272)"><text lineHeight="1.2" class="djs-label" style="font-family: Arial, sans-serif; font-size: 11px; font-weight: normal; fill: black;"><tspan x="0" y="9.899999999999999">Cash Deposit Slip </tspan><tspan x="29.324951171875" y="23.099999999999998">(FCY)</tspan></text></g><g class="djs-visual" id="Activity_13madn4" transform="translate(165 360)"><rect x="0" y="0" width="130" height="100" rx="10" ry="10" style="stroke: black; stroke-width: 2px; fill: white; fill-opacity: 0.95;"></rect><text lineHeight="1.2" class="djs-label" style="font-family: Arial, sans-serif; font-size: 12px; font-weight: normal; fill: black;"><tspan x="12.4853515625" y="53.599999999999994">Deposit cash - FCY</tspan></text></g><g class="djs-visual" id="Activity_0yag3m9" transform="translate(165 550)"><rect x="0" y="0" width="130" height="100" rx="10" ry="10" style="stroke: black; stroke-width: 2px; fill: white; fill-opacity: 0.95;"></rect><text lineHeight="1.2" class="djs-label" style="font-family: Arial, sans-serif; font-size: 12px; font-weight: normal; fill: black;"><tspan x="20.748046875" y="46.4">Validate account </tspan><tspan x="44.154296875" y="60.8">number</tspan></text></g><g class="djs-visual" id="Gateway_0w9k82e" transform="translate(205 715)"><polygon points="25,0 50,25 25,50 0,25" style="stroke: black; stroke-width: 2px; fill: white; fill-opacity: 0.95;"></polygon><path d="m 16,15 7.42857142857143,9.714285714285715 -7.42857142857143,9.714285714285715 3.428571428571429,0 5.714285714285715,-7.464228571428572 5.714285714285715,7.464228571428572 3.428571428571429,0 -7.42857142857143,-9.714285714285715 7.42857142857143,-9.714285714285715 -3.428571428571429,0 -5.714285714285715,7.464228571428572 -5.714285714285715,-7.464228571428572 -3.428571428571429,0 z" style="fill: black; stroke-width: 1px; stroke: black;"></path></g><g class="djs-visual" id="Activity_06p3hqh" transform="translate(165 840)"><rect x="0" y="0" width="130" height="100" rx="10" ry="10" style="stroke: black; stroke-width: 2px; fill: white; fill-opacity: 0.95;"></rect><text lineHeight="1.2" class="djs-label" style="font-family: Arial, sans-serif; font-size: 12px; font-weight: normal; fill: black;"><tspan x="17.1513671875" y="46.4">Display Customer </tspan><tspan x="49.828125" y="60.8">name</tspan></text></g><g class="djs-visual" id="Activity_0v1v7km" transform="translate(475 840)"><rect x="0" y="0" width="130" height="100" rx="10" ry="10" style="stroke: black; stroke-width: 2px; fill: white; fill-opacity: 0.95;"></rect><text lineHeight="1.2" class="djs-label" style="font-family: Arial, sans-serif; font-size: 12px; font-weight: normal; fill: black;"><tspan x="12.818359375" y="39.2">Inform Customer of </tspan><tspan x="5.298828125" y="53.6">Account number being </tspan><tspan x="32.3115234375" y="68">non existent</tspan></text></g><g class="djs-visual" id="Activity_0yd54s4" transform="translate(165 1010)"><rect x="0" y="0" width="130" height="100" rx="10" ry="10" style="stroke: black; stroke-width: 2px; fill: white; fill-opacity: 0.95;"></rect><text lineHeight="1.2" class="djs-label" style="font-family: Arial, sans-serif; font-size: 12px; font-weight: normal; fill: black;"><tspan x="24.978515625" y="46.4">Check account </tspan><tspan x="41.9921875" y="60.8">currency</tspan></text></g><g class="djs-visual" id="Event_1gnv94l" transform="translate(522 1042)"><circle cx="18" cy="18" r="18" style="stroke: black; stroke-width: 4px; fill: white; fill-opacity: 0.95;"></circle></g><g class="djs-visual" id="Event_1gnv94l_label" transform="translate(491 1085)"><text lineHeight="1.2" class="djs-label" style="font-family: Arial, sans-serif; font-size: 11px; font-weight: normal; fill: black;"><tspan x="0" y="9.899999999999999">Transaction rejected</tspan></text></g><g class="djs-visual" id="Gateway_1bxks41" transform="translate(205 1185)"><polygon points="25,0 50,25 25,50 0,25" style="stroke: black; stroke-width: 2px; fill: white; fill-opacity: 0.95;"></polygon><path d="m 16,15 7.42857142857143,9.714285714285715 -7.42857142857143,9.714285714285715 3.428571428571429,0 5.714285714285715,-7.464228571428572 5.714285714285715,7.464228571428572 3.428571428571429,0 -7.42857142857143,-9.714285714285715 7.42857142857143,-9.714285714285715 -3.428571428571429,0 -5.714285714285715,7.464228571428572 -5.714285714285715,-7.464228571428572 -3.428571428571429,0 z" style="fill: black; stroke-width: 1px; stroke: black;"></path></g><g class="djs-visual" id="Activity_1o853zq" transform="translate(165 1313)"><rect x="0" y="0" width="130" height="100" rx="10" ry="10" style="stroke: black; stroke-width: 2px; fill: white; fill-opacity: 0.95;"></rect><text lineHeight="1.2" class="djs-label" style="font-family: Arial, sans-serif; font-size: 12px; font-weight: normal; fill: black;"><tspan x="7.6337890625" y="53.599999999999994">Assign exchange rate</tspan></text></g><g class="djs-visual" id="Gateway_1nzdsbo" transform="translate(205 1475)"><polygon points="25,0 50,25 25,50 0,25" style="stroke: black; stroke-width: 2px; fill: white; fill-opacity: 0.95;"></polygon><path d="m 16,15 7.42857142857143,9.714285714285715 -7.42857142857143,9.714285714285715 3.428571428571429,0 5.714285714285715,-7.464228571428572 5.714285714285715,7.464228571428572 3.428571428571429,0 -7.42857142857143,-9.714285714285715 7.42857142857143,-9.714285714285715 -3.428571428571429,0 -5.714285714285715,7.464228571428572 -5.714285714285715,-7.464228571428572 -3.428571428571429,0 z" style="fill: black; stroke-width: 1px; stroke: black;"></path></g><g class="djs-visual" id="Activity_1mej7uv" transform="translate(165 2160)"><rect x="0" y="0" width="130" height="100" rx="10" ry="10" style="stroke: black; stroke-width: 2px; fill: white; fill-opacity: 0.95;"></rect><text lineHeight="1.2" class="djs-label" style="font-family: Arial, sans-serif; font-size: 12px; font-weight: normal; fill: black;"><tspan x="10.984375" y="53.599999999999994">Verify teller/ till limits</tspan></text></g><g class="djs-visual" id="Gateway_1jolmp8" transform="translate(205 2305)"><polygon points="25,0 50,25 25,50 0,25" style="stroke: black; stroke-width: 2px; fill: white; fill-opacity: 0.95;"></polygon><path d="m 16,15 7.42857142857143,9.714285714285715 -7.42857142857143,9.714285714285715 3.428571428571429,0 5.714285714285715,-7.464228571428572 5.714285714285715,7.464228571428572 3.428571428571429,0 -7.42857142857143,-9.714285714285715 7.42857142857143,-9.714285714285715 -3.428571428571429,0 -5.714285714285715,7.464228571428572 -5.714285714285715,-7.464228571428572 -3.428571428571429,0 z" style="fill: black; stroke-width: 1px; stroke: black;"></path></g><g class="djs-visual" id="Activity_111lryx" transform="translate(475 2406)"><rect x="0" y="0" width="130" height="100" rx="10" ry="10" style="stroke: black; stroke-width: 2px; fill: white; fill-opacity: 0.95;"></rect><text lineHeight="1.2" class="djs-label" style="font-family: Arial, sans-serif; font-size: 12px; font-weight: normal; fill: black;"><tspan x="16.4765625" y="53.599999999999994">Generate override</tspan></text></g><g class="djs-visual" id="Activity_1h7x5v1" transform="translate(165 2406)"><rect x="0" y="0" width="130" height="100" rx="10" ry="10" style="stroke: black; stroke-width: 2px; fill: white; fill-opacity: 0.95;"></rect><text lineHeight="1.2" class="djs-label" style="font-family: Arial, sans-serif; font-size: 12px; font-weight: normal; fill: black;"><tspan x="12.4775390625" y="46.4">Move transaction to </tspan><tspan x="12.12890625" y="60.8">authorisation queue</tspan></text></g><g class="djs-visual" id="Gateway_0xsktv5" transform="translate(515 2561)"><polygon points="25,0 50,25 25,50 0,25" style="stroke: black; stroke-width: 2px; fill: white; fill-opacity: 0.95;"></polygon><path d="m 16,15 7.42857142857143,9.714285714285715 -7.42857142857143,9.714285714285715 3.428571428571429,0 5.714285714285715,-7.464228571428572 5.714285714285715,7.464228571428572 3.428571428571429,0 -7.42857142857143,-9.714285714285715 7.42857142857143,-9.714285714285715 -3.428571428571429,0 -5.714285714285715,7.464228571428572 -5.714285714285715,-7.464228571428572 -3.428571428571429,0 z" style="fill: black; stroke-width: 1px; stroke: black;"></path></g><g class="djs-visual" id="Activity_1sp5nee" transform="translate(475 2666)"><rect x="0" y="0" width="130" height="100" rx="10" ry="10" style="stroke: black; stroke-width: 2px; fill: white; fill-opacity: 0.95;"></rect><text lineHeight="1.2" class="djs-label" style="font-family: Arial, sans-serif; font-size: 12px; font-weight: normal; fill: black;"><tspan x="23.650390625" y="53.599999999999994">Accept override</tspan></text></g><g class="djs-visual" id="Activity_1fg2478" transform="translate(475 2850)"><rect x="0" y="0" width="130" height="100" rx="10" ry="10" style="stroke: black; stroke-width: 2px; fill: white; fill-opacity: 0.95;"></rect><text lineHeight="1.2" class="djs-label" style="font-family: Arial, sans-serif; font-size: 12px; font-weight: normal; fill: black;"><tspan x="12.4775390625" y="46.4">Move transaction to </tspan><tspan x="12.12890625" y="60.8">authorisation queue</tspan></text></g><g class="djs-visual" id="Activity_0lu2nt4" transform="translate(780 2666)"><rect x="0" y="0" width="130" height="100" rx="10" ry="10" style="stroke: black; stroke-width: 2px; fill: white; fill-opacity: 0.95;"></rect><text lineHeight="1.2" class="djs-label" style="font-family: Arial, sans-serif; font-size: 12px; font-weight: normal; fill: black;"><tspan x="23.15625" y="53.599999999999994">Reject Override</tspan></text></g><g class="djs-visual" id="Activity_199tq9j" transform="translate(780 2850)"><rect x="0" y="0" width="130" height="100" rx="10" ry="10" style="stroke: black; stroke-width: 2px; fill: white; fill-opacity: 0.95;"></rect><text lineHeight="1.2" class="djs-label" style="font-family: Arial, sans-serif; font-size: 12px; font-weight: normal; fill: black;"><tspan x="13.4765625" y="53.599999999999994">Cancel Transaction</tspan></text></g><g class="djs-visual" id="Event_0ovqnuo" transform="translate(827 3022)"><circle cx="18" cy="18" r="18" style="stroke: black; stroke-width: 4px; fill: white; fill-opacity: 0.95;"></circle></g><g class="djs-visual" id="Event_0ovqnuo_label" transform="translate(797 3065)"><text lineHeight="1.2" class="djs-label" style="font-family: Arial, sans-serif; font-size: 11px; font-weight: normal; fill: black;"><tspan x="0" y="9.899999999999999">Transaction aborted</tspan></text></g><g class="djs-visual" id="Gateway_1arfobk" transform="translate(205 2961)"><polygon points="25,0 50,25 25,50 0,25" style="stroke: black; stroke-width: 2px; fill: white; fill-opacity: 0.95;"></polygon><path d="m 16,15 7.42857142857143,9.714285714285715 -7.42857142857143,9.714285714285715 3.428571428571429,0 5.714285714285715,-7.464228571428572 5.714285714285715,7.464228571428572 3.428571428571429,0 -7.42857142857143,-9.714285714285715 7.42857142857143,-9.714285714285715 -3.428571428571429,0 -5.714285714285715,7.464228571428572 -5.714285714285715,-7.464228571428572 -3.428571428571429,0 z" style="fill: black; stroke-width: 1px; stroke: black;"></path></g><g class="djs-visual" id="Activity_1llrcj8" transform="translate(165 3094)"><rect x="0" y="0" width="130" height="100" rx="10" ry="10" style="stroke: black; stroke-width: 2px; fill: white; fill-opacity: 0.95;"></rect><text lineHeight="1.2" class="djs-label" style="font-family: Arial, sans-serif; font-size: 12px; font-weight: normal; fill: black;"><tspan x="11.8037109375" y="46.4">Verify and authorise </tspan><tspan x="21.146484375" y="60.8">cash transaction</tspan></text></g><g class="djs-visual" id="Activity_0xs3eh1" transform="translate(165 3282)"><rect x="0" y="0" width="130" height="100" rx="10" ry="10" style="stroke: black; stroke-width: 2px; fill: white; fill-opacity: 0.95;"></rect><text lineHeight="1.2" class="djs-label" style="font-family: Arial, sans-serif; font-size: 12px; font-weight: normal; fill: black;"><tspan x="8.8037109375" y="46.4">Generate transaction </tspan><tspan x="43.984375" y="60.8">receipts</tspan></text></g><g class="djs-visual" id="DataObjectReference_1cc7yx2" transform="translate(362 3307)"><path d="m 0,0 28.23529411764706,0 7.058823529411765,8.196721311475411 0,40.98360655737705 -35.294117647058826,0 0,-49.18032786885246 28.23529411764706,0 0,8.196721311475411 7.058823529411765,0" style="fill: white; stroke-width: 2px; stroke: black; fill-opacity: 0.95;"></path></g><g class="djs-visual" id="DataObjectReference_1cc7yx2_label" transform="translate(332 3364)"><text lineHeight="1.2" class="djs-label" style="font-family: Arial, sans-serif; font-size: 11px; font-weight: normal; fill: black;"><tspan x="0" y="9.899999999999999">Transaction Receipt</tspan></text></g><g class="djs-visual" id="Activity_17uce4p" transform="translate(165 3476)"><rect x="0" y="0" width="130" height="100" rx="10" ry="10" style="stroke: black; stroke-width: 2px; fill: white; fill-opacity: 0.95;"></rect><text lineHeight="1.2" class="djs-label" style="font-family: Arial, sans-serif; font-size: 12px; font-weight: normal; fill: black;"><tspan x="16.142578125" y="46.4">Hand over copy to </tspan><tspan x="38.4912109375" y="60.8">Customer</tspan></text></g><g class="djs-visual" id="DataObjectReference_020y4am" transform="translate(362 3501)"><path d="m 0,0 28.23529411764706,0 7.058823529411765,8.196721311475411 0,40.98360655737705 -35.294117647058826,0 0,-49.18032786885246 28.23529411764706,0 0,8.196721311475411 7.058823529411765,0" style="fill: white; stroke-width: 2px; stroke: black; fill-opacity: 0.95;"></path></g><g class="djs-visual" id="DataObjectReference_020y4am_label" transform="translate(332 3558)"><text lineHeight="1.2" class="djs-label" style="font-family: Arial, sans-serif; font-size: 11px; font-weight: normal; fill: black;"><tspan x="0" y="9.899999999999999">Transaction Receipt</tspan></text></g><g class="djs-visual" id="Event_1x0a6mx" transform="translate(212 3632)"><circle cx="18" cy="18" r="18" style="stroke: black; stroke-width: 4px; fill: white; fill-opacity: 0.95;"></circle></g><g class="djs-visual" id="Event_1x0a6mx_label" transform="translate(187 3675)"><text lineHeight="1.2" class="djs-label" style="font-family: Arial, sans-serif; font-size: 11px; font-weight: normal; fill: black;"><tspan x="0" y="9.899999999999999">FCY cash deposit </tspan><tspan x="18.39892578125" y="23.099999999999998">completed</tspan></text></g><g class="djs-visual" id="Activity_0ba1fya" transform="translate(165 1580)"><rect x="0" y="0" width="130" height="100" rx="10" ry="10" style="stroke: black; stroke-width: 2px; fill: white; fill-opacity: 0.95;"></rect><text lineHeight="1.2" class="djs-label" style="font-family: Arial, sans-serif; font-size: 12px; font-weight: normal; fill: black;"><tspan x="9.6328125" y="53.599999999999994">Verify account status</tspan></text></g><g class="djs-visual" id="Gateway_07ezlga" transform="translate(205 1725)"><polygon points="25,0 50,25 25,50 0,25" style="stroke: black; stroke-width: 2px; fill: white; fill-opacity: 0.95;"></polygon><path d="m 16,15 7.42857142857143,9.714285714285715 -7.42857142857143,9.714285714285715 3.428571428571429,0 5.714285714285715,-7.464228571428572 5.714285714285715,7.464228571428572 3.428571428571429,0 -7.42857142857143,-9.714285714285715 7.42857142857143,-9.714285714285715 -3.428571428571429,0 -5.714285714285715,7.464228571428572 -5.714285714285715,-7.464228571428572 -3.428571428571429,0 z" style="fill: black; stroke-width: 1px; stroke: black;"></path></g><g class="djs-visual" id="Event_1xgoi8r" transform="translate(522 1802)"><circle cx="18" cy="18" r="18" style="stroke: black; stroke-width: 4px; fill: white; fill-opacity: 0.95;"></circle></g><g class="djs-visual" id="Event_1xgoi8r_label" transform="translate(490 1845)"><text lineHeight="1.2" class="djs-label" style="font-family: Arial, sans-serif; font-size: 11px; font-weight: normal; fill: black;"><tspan x="0.861083984375" y="9.899999999999999">Account status does </tspan><tspan x="0" y="23.099999999999998">not allow transaction</tspan></text></g><g class="djs-visual" id="Activity_0fryelz" transform="translate(165 1870)"><rect x="0" y="0" width="130" height="100" rx="10" ry="10" style="stroke: black; stroke-width: 2px; fill: white; fill-opacity: 0.95;"></rect><text lineHeight="1.2" class="djs-label" style="font-family: Arial, sans-serif; font-size: 12px; font-weight: normal; fill: black;"><tspan x="31.8232421875" y="46.4">Determine if </tspan><tspan x="6.7998046875" y="60.8">authorisation required</tspan></text></g><g class="djs-visual" id="Gateway_1ssbu6g" transform="translate(205 2015)"><polygon points="25,0 50,25 25,50 0,25" style="stroke: black; stroke-width: 2px; fill: white; fill-opacity: 0.95;"></polygon><path d="m 16,15 7.42857142857143,9.714285714285715 -7.42857142857143,9.714285714285715 3.428571428571429,0 5.714285714285715,-7.464228571428572 5.714285714285715,7.464228571428572 3.428571428571429,0 -7.42857142857143,-9.714285714285715 7.42857142857143,-9.714285714285715 -3.428571428571429,0 -5.714285714285715,7.464228571428572 -5.714285714285715,-7.464228571428572 -3.428571428571429,0 z" style="fill: black; stroke-width: 1px; stroke: black;"></path></g><g class="djs-visual" id="Event_1gctcal" transform="translate(522 2102)"><circle cx="18" cy="18" r="18" style="stroke: black; stroke-width: 4px; fill: white; fill-opacity: 0.95;"></circle></g><g class="djs-visual" id="Event_1gctcal_label" transform="translate(499 2145)"><text lineHeight="1.2" class="djs-label" style="font-family: Arial, sans-serif; font-size: 11px; font-weight: normal; fill: black;"><tspan x="0" y="9.899999999999999">Authorisation not </tspan><tspan x="21.069091796875" y="23.099999999999998">required</tspan></text></g><g class="djs-visual" id="TextAnnotation_189ws02" transform="translate(340 110)"><rect x="0" y="0" width="125" height="70" rx="0" ry="0" style="stroke: none; stroke-width: 2px; fill: none;"></rect><path d="m 0, 0 m 10,0 l -10,0 l 0,70 l 10,0" style="fill: none; stroke-width: 2px; stroke: black;"></path><text lineHeight="1.2" class="djs-label" style="font-family: Arial, sans-serif; font-size: 12px; font-weight: normal; fill: black;"><tspan x="5" y="15.799999999999999">- Account number</tspan><tspan x="5" y="30.199999999999996">- Name</tspan><tspan x="5" y="44.599999999999994">- Amount/ Currency</tspan><tspan x="5" y="58.99999999999999">- Passbook</tspan></text></g><g class="djs-visual" id="TextAnnotation_0guh4nm" transform="translate(340 290)"><rect x="0" y="0" width="123" height="70" rx="0" ry="0" style="stroke: none; stroke-width: 2px; fill: none;"></rect><path d="m 0, 0 m 10,0 l -10,0 l 0,70 l 10,0" style="fill: none; stroke-width: 2px; stroke: black;"></path><text lineHeight="1.2" class="djs-label" style="font-family: Arial, sans-serif; font-size: 12px; font-weight: normal; fill: black;"><tspan x="5" y="15.799999999999999">Cash Deposit:</tspan><tspan x="5" y="30.199999999999996">- Amount</tspan><tspan x="5" y="44.599999999999994">- Currency</tspan><tspan x="5" y="58.99999999999999">- Account number</tspan></text></g><g class="djs-visual" id="TextAnnotation_0rok9qz" transform="translate(340 1250)"><rect x="0" y="0" width="128" height="40" rx="0" ry="0" style="stroke: none; stroke-width: 2px; fill: none;"></rect><path d="m 0, 0 m 10,0 l -10,0 l 0,40 l 10,0" style="fill: none; stroke-width: 2px; stroke: black;"></path><text lineHeight="1.2" class="djs-label" style="font-family: Arial, sans-serif; font-size: 12px; font-weight: normal; fill: black;"><tspan x="5" y="15.799999999999999">Convert amount into </tspan><tspan x="5" y="30.199999999999996">local currency</tspan></text></g><g class="djs-visual" id="TextAnnotation_0fwezur" transform="translate(340 3406)"><rect x="0" y="0" width="155" height="50" rx="0" ry="0" style="stroke: none; stroke-width: 2px; fill: none;"></rect><path d="m 0, 0 m 10,0 l -10,0 l 0,50 l 10,0" style="fill: none; stroke-width: 2px; stroke: black;"></path><text lineHeight="1.2" class="djs-label" style="font-family: Arial, sans-serif; font-size: 12px; font-weight: normal; fill: black;"><tspan x="5" y="15.799999999999999">Customer to be informed </tspan><tspan x="5" y="30.199999999999996">to check that amount of </tspan><tspan x="5" y="44.599999999999994">deposit is correct</tspan></text></g><g class="djs-visual" id="TextAnnotation_03zwvni" transform="translate(340 510)"><rect x="0" y="0" width="380" height="70" rx="0" ry="0" style="stroke: none; stroke-width: 2px; fill: none;"></rect><path d="m 0, 0 m 10,0 l -10,0 l 0,70 l 10,0" style="fill: none; stroke-width: 2px; stroke: black;"></path><text lineHeight="1.2" class="djs-label" style="font-family: Arial, sans-serif; font-size: 12px; font-weight: normal; fill: black;"><tspan x="5" y="15.799999999999999">For Multi-Valued Transaction (transaction involving more than one </tspan><tspan x="5" y="30.199999999999996">credit account&nbsp;and different amounts credited to each account)</tspan><tspan x="5" y="44.599999999999994">- Credit account currencies should be same</tspan><tspan x="5" y="58.99999999999999">- Credit accounts belong to same customer</tspan></text></g><g class="djs-visual" id="DataInputAssociation_1wjrg7o" transform="translate(0 0)"><polyline points="98,240 165,240 " style="fill: none; stroke: black; stroke-width: 2px; stroke-dasharray: 0.5, 5; stroke-linecap: round; stroke-linejoin: round; marker-end: url(&quot;#association-end-white-black-bq2vvchylcl7cbvye21th1xqv&quot;);"></polyline></g><g class="djs-visual" id="Flow_0u1yxnz_label" transform="translate(239 775)"><text lineHeight="1.2" class="djs-label" style="font-family: Arial, sans-serif; font-size: 11px; font-weight: normal; fill: black;"><tspan x="0" y="9.899999999999999">Account number </tspan><tspan x="25.9091796875" y="23.099999999999998">exists</tspan></text></g><g class="djs-visual" id="Flow_02f8n1u_label" transform="translate(550 775)"><text lineHeight="1.2" class="djs-label" style="font-family: Arial, sans-serif; font-size: 11px; font-weight: normal; fill: black;"><tspan x="0" y="9.899999999999999">Account number </tspan><tspan x="5.808837890625" y="23.099999999999998">does not exist</tspan></text></g><g class="djs-visual" id="Flow_160s7cr_label" transform="translate(237 1250)"><text lineHeight="1.2" class="djs-label" style="font-family: Arial, sans-serif; font-size: 11px; font-weight: normal; fill: black;"><tspan x="0" y="9.899999999999999">Account currency </tspan><tspan x="21.9951171875" y="23.099999999999998">different</tspan></text></g><g class="djs-visual" id="Flow_02cfgb2_label" transform="translate(557 1250)"><text lineHeight="1.2" class="djs-label" style="font-family: Arial, sans-serif; font-size: 11px; font-weight: normal; fill: black;"><tspan x="0" y="9.899999999999999">Account currency </tspan><tspan x="28.78759765625" y="23.099999999999998">same</tspan></text></g><g class="djs-visual" id="Flow_0dua9fe_label" transform="translate(244 1435)"><text lineHeight="1.2" class="djs-label" style="font-family: Arial, sans-serif; font-size: 11px; font-weight: normal; fill: black;"><tspan x="0" y="9.899999999999999">Exchange rate </tspan><tspan x="13.4453125" y="23.099999999999998">assigned</tspan></text></g><g class="djs-visual" id="Flow_1tz0nm9_label" transform="translate(241 2362)"><text lineHeight="1.2" class="djs-label" style="font-family: Arial, sans-serif; font-size: 11px; font-weight: normal; fill: black;"><tspan x="0" y="9.899999999999999">Within Limit</tspan></text></g><g class="djs-visual" id="Flow_1pv1itd_label" transform="translate(563 2362)"><text lineHeight="1.2" class="djs-label" style="font-family: Arial, sans-serif; font-size: 11px; font-weight: normal; fill: black;"><tspan x="0" y="9.899999999999999">Limit exceeded</tspan></text></g><g class="djs-visual" id="Flow_153bits_label" transform="translate(555 2623)"><text lineHeight="1.2" class="djs-label" style="font-family: Arial, sans-serif; font-size: 11px; font-weight: normal; fill: black;"><tspan x="0" y="9.899999999999999">Override to be </tspan><tspan x="12.5234375" y="23.099999999999998">accepted</tspan></text></g><g class="djs-visual" id="Flow_1wea1r3_label" transform="translate(865 2623)"><text lineHeight="1.2" class="djs-label" style="font-family: Arial, sans-serif; font-size: 11px; font-weight: normal; fill: black;"><tspan x="0" y="9.899999999999999">Override to be </tspan><tspan x="14.359375" y="23.099999999999998">declined</tspan></text></g><g class="djs-visual" id="Flow_1qc5t1s_label" transform="translate(240 3033)"><text lineHeight="1.2" class="djs-label" style="font-family: Arial, sans-serif; font-size: 11px; font-weight: normal; fill: black;"><tspan x="1.3203125" y="9.899999999999999">Transaction </tspan><tspan x="0" y="23.099999999999998">prompted to </tspan><tspan x="4.225830078125" y="36.3">authoriser</tspan></text></g><g class="djs-visual" id="DataOutputAssociation_1v9e8mx" transform="translate(0 0)"><polyline points="295,3332 362,3332 " style="fill: none; stroke: black; stroke-width: 2px; stroke-dasharray: 0.5, 5; stroke-linecap: round; stroke-linejoin: round; marker-end: url(&quot;#association-end-white-black-bq2vvchylcl7cbvye21th1xqv&quot;);"></polyline></g><g class="djs-visual" id="DataOutputAssociation_0orh2f7" transform="translate(0 0)"><polyline points="295,3528 362,3530 " style="fill: none; stroke: black; stroke-width: 2px; stroke-dasharray: 0.5, 5; stroke-linecap: round; stroke-linejoin: round; marker-end: url(&quot;#association-end-white-black-bq2vvchylcl7cbvye21th1xqv&quot;);"></polyline></g><g class="djs-visual" id="Flow_07z6279_label" transform="translate(246 1796)"><text lineHeight="1.2" class="djs-label" style="font-family: Arial, sans-serif; font-size: 11px; font-weight: normal; fill: black;"><tspan x="7.893798828125" y="9.899999999999999">Account status </tspan><tspan x="0" y="23.099999999999998">allows transaction</tspan></text></g><g class="djs-visual" id="Flow_1xshfoo_label" transform="translate(238 2086)"><text lineHeight="1.2" class="djs-label" style="font-family: Arial, sans-serif; font-size: 11px; font-weight: normal; fill: black;"><tspan x="0" y="9.899999999999999">Authorisation </tspan><tspan x="11.4296875" y="23.099999999999998">required</tspan></text></g><g class="djs-visual" id="Association_1iqsquy" transform="translate(0 0)"><polyline points="287,191 340,145 " style="fill: none; stroke: black; stroke-width: 2px; stroke-dasharray: 0.5, 5; stroke-linecap: round; stroke-linejoin: round;"></polyline></g><g class="djs-visual" id="Association_0m7aj7c" transform="translate(0 0)"><polyline points="294,368 340,337 " style="fill: none; stroke: black; stroke-width: 2px; stroke-dasharray: 0.5, 5; stroke-linecap: round; stroke-linejoin: round;"></polyline></g><g class="djs-visual" id="Association_14579br" transform="translate(0 0)"><polyline points="292,1316 340,1280 " style="fill: none; stroke: black; stroke-width: 2px; stroke-dasharray: 0.5, 5; stroke-linecap: round; stroke-linejoin: round;"></polyline></g><g class="djs-visual" id="Association_065mstw" transform="translate(0 0)"><polyline points="291,3478 340,3440 " style="fill: none; stroke: black; stroke-width: 2px; stroke-dasharray: 0.5, 5; stroke-linecap: round; stroke-linejoin: round;"></polyline></g><g class="djs-visual" id="Association_0kn3mlh" transform="translate(0 0)"><polyline points="295,566 340,543 " style="fill: none; stroke: black; stroke-width: 2px; stroke-dasharray: 0.5, 5; stroke-linecap: round; stroke-linejoin: round;"></polyline></g></g><g><rect class="viewport" x="-4360.45251396648" y="24.022346368715084" width="9692.737430167597" height="3687.150837988827"></rect></g></svg>