<svg width="100%" height="100%" viewBox="-103, -10, 1835, 2466"><g><g class="djs-visual" id="Flow_11xlfeo" transform="translate(0 0)"><path d="m  120,2130L120,2170 " style="fill: none; stroke-width: 2px; stroke: black; stroke-linejoin: round; marker-end: url(&quot;#sequenceflow-end-white-black-5knd2lz4pwluasvax1fe7szse&quot;);"></path></g><g class="djs-visual" id="Flow_0dx8gme" transform="translate(0 0)"><path d="m  120,300L120,360 " style="fill: none; stroke-width: 2px; stroke: black; stroke-linejoin: round; marker-end: url(&quot;#sequenceflow-end-white-black-5knd2lz4pwluasvax1fe7szse&quot;);"></path></g><g class="djs-visual" id="Flow_0c81hyo" transform="translate(0 0)"><path d="m  120,2270L120,2312 " style="fill: none; stroke-width: 2px; stroke: black; stroke-linejoin: round; marker-end: url(&quot;#sequenceflow-end-white-black-5knd2lz4pwluasvax1fe7szse&quot;);"></path></g><g class="djs-visual" id="Flow_0640izw" transform="translate(0 0)"><path d="m  120,1990L120,2030 " style="fill: none; stroke-width: 2px; stroke: black; stroke-linejoin: round; marker-end: url(&quot;#sequenceflow-end-white-black-5knd2lz4pwluasvax1fe7szse&quot;);"></path></g><g class="djs-visual" id="Flow_0hbv4zq" transform="translate(0 0)"><path d="m  120,1850L120,1890 " style="fill: none; stroke-width: 2px; stroke: black; stroke-linejoin: round; marker-end: url(&quot;#sequenceflow-end-white-black-5knd2lz4pwluasvax1fe7szse&quot;);"></path></g><g class="djs-visual" id="Flow_0attama" transform="translate(0 0)"><path d="m  120,1710L120,1750 " style="fill: none; stroke-width: 2px; stroke: black; stroke-linejoin: round; marker-end: url(&quot;#sequenceflow-end-white-black-5knd2lz4pwluasvax1fe7szse&quot;);"></path></g><g class="djs-visual" id="Flow_12swl5c" transform="translate(0 0)"><path d="m  120,1520L120,1610 " style="fill: none; stroke-width: 2px; stroke: black; stroke-linejoin: round; marker-end: url(&quot;#sequenceflow-end-white-black-5knd2lz4pwluasvax1fe7szse&quot;);"></path></g><g class="djs-visual" id="Flow_0ehgew0" transform="translate(0 0)"><path d="m  120,1340L120,1420 " style="fill: none; stroke-width: 2px; stroke: black; stroke-linejoin: round; marker-end: url(&quot;#sequenceflow-end-white-black-5knd2lz4pwluasvax1fe7szse&quot;);"></path></g><g class="djs-visual" id="Flow_1d6rf1n" transform="translate(0 0)"><path d="m  120,1190L120,1240 " style="fill: none; stroke-width: 2px; stroke: black; stroke-linejoin: round; marker-end: url(&quot;#sequenceflow-end-white-black-5knd2lz4pwluasvax1fe7szse&quot;);"></path></g><g class="djs-visual" id="Flow_1yevz7v" transform="translate(0 0)"><path d="m  145,950L380,950 L380,830 L515,830 " style="fill: none; stroke-width: 2px; stroke: black; stroke-linejoin: round; marker-end: url(&quot;#sequenceflow-end-white-black-5knd2lz4pwluasvax1fe7szse&quot;);"></path></g><g class="djs-visual" id="Flow_0sy437j" transform="translate(0 0)"><path d="m  120,975L120,1090 " style="fill: none; stroke-width: 2px; stroke: black; stroke-linejoin: round; marker-end: url(&quot;#sequenceflow-end-white-black-5knd2lz4pwluasvax1fe7szse&quot;);"></path></g><g class="djs-visual" id="Flow_0pf67wi" transform="translate(0 0)"><path d="m  120,870L120,925 " style="fill: none; stroke-width: 2px; stroke: black; stroke-linejoin: round; marker-end: url(&quot;#sequenceflow-end-white-black-5knd2lz4pwluasvax1fe7szse&quot;);"></path></g><g class="djs-visual" id="Flow_0l6cl1u" transform="translate(0 0)"><path d="m  540,1000L540,1022 " style="fill: none; stroke-width: 2px; stroke: black; stroke-linejoin: round; marker-end: url(&quot;#sequenceflow-end-white-black-5knd2lz4pwluasvax1fe7szse&quot;);"></path></g><g class="djs-visual" id="Flow_1hsp7jq" transform="translate(0 0)"><path d="m  540,855L540,900 " style="fill: none; stroke-width: 2px; stroke: black; stroke-linejoin: round; marker-end: url(&quot;#sequenceflow-end-white-black-5knd2lz4pwluasvax1fe7szse&quot;);"></path></g><g class="djs-visual" id="Flow_16cjv37" transform="translate(0 0)"><path d="m  145,680L540,680 L540,805 " style="fill: none; stroke-width: 2px; stroke: black; stroke-linejoin: round; marker-end: url(&quot;#sequenceflow-end-white-black-5knd2lz4pwluasvax1fe7szse&quot;);"></path></g><g class="djs-visual" id="Flow_15tgijj" transform="translate(0 0)"><path d="m  120,705L120,770 " style="fill: none; stroke-width: 2px; stroke: black; stroke-linejoin: round; marker-end: url(&quot;#sequenceflow-end-white-black-5knd2lz4pwluasvax1fe7szse&quot;);"></path></g><g class="djs-visual" id="Flow_1w9yuqm" transform="translate(0 0)"><path d="m  120,610L120,655 " style="fill: none; stroke-width: 2px; stroke: black; stroke-linejoin: round; marker-end: url(&quot;#sequenceflow-end-white-black-5knd2lz4pwluasvax1fe7szse&quot;);"></path></g><g class="djs-visual" id="Flow_0uc3yok" transform="translate(0 0)"><path d="m  120,460L120,510 " style="fill: none; stroke-width: 2px; stroke: black; stroke-linejoin: round; marker-end: url(&quot;#sequenceflow-end-white-black-5knd2lz4pwluasvax1fe7szse&quot;);"></path></g><g class="djs-visual" id="Flow_1y5tiu1" transform="translate(0 0)"><path d="m  120,148L120,200 " style="fill: none; stroke-width: 2px; stroke: black; stroke-linejoin: round; marker-end: url(&quot;#sequenceflow-end-white-black-5knd2lz4pwluasvax1fe7szse&quot;);"></path></g><g class="djs-visual" id="StartEvent_1bm324f" transform="translate(102 112)"><circle cx="18" cy="18" r="18" style="stroke: black; stroke-width: 2px; fill: white; fill-opacity: 0.95;"></circle></g><g class="djs-visual" id="StartEvent_1bm324f_label" transform="translate(76 46)"><text lineHeight="1.2" class="djs-label" style="font-family: Arial, sans-serif; font-size: 11px; font-weight: normal; fill: black;"><tspan x="0" y="9.899999999999999">Mudaraba Facility </tspan><tspan x="13.33154296875" y="23.099999999999998">available for </tspan><tspan x="18.586181640625" y="36.3">drawdown</tspan></text></g><g class="djs-visual" id="Activity_0tr5fei" transform="translate(55 200)"><rect x="0" y="0" width="130" height="100" rx="10" ry="10" style="stroke: black; stroke-width: 2px; fill: white; fill-opacity: 0.95;"></rect><text lineHeight="1.2" class="djs-label" style="font-family: Arial, sans-serif; font-size: 12px; font-weight: normal; fill: black;"><tspan x="21.310546875" y="53.599999999999994">Receive request</tspan></text></g><g class="djs-visual" id="Activity_0384jtj" transform="translate(55 360)"><rect x="0" y="0" width="130" height="100" rx="10" ry="10" style="stroke: black; stroke-width: 2px; fill: white; fill-opacity: 0.95;"></rect><text lineHeight="1.2" class="djs-label" style="font-family: Arial, sans-serif; font-size: 12px; font-weight: normal; fill: black;"><tspan x="46.65625" y="39.2">Select&nbsp;</tspan><tspan x="17.640625" y="53.6">Mudaraba Facility </tspan><tspan x="7.9658203125" y="68">arrangement account</tspan></text></g><g class="djs-visual" id="Activity_096eyge" transform="translate(55 510)"><rect x="0" y="0" width="130" height="100" rx="10" ry="10" style="stroke: black; stroke-width: 2px; fill: white; fill-opacity: 0.95;"></rect><text lineHeight="1.2" class="djs-label" style="font-family: Arial, sans-serif; font-size: 12px; font-weight: normal; fill: black;"><tspan x="14.478515625" y="39.2">Check if Mudaraba </tspan><tspan x="10.3125" y="53.6">Facility arrangement </tspan><tspan x="38.15625" y="68">is blocked</tspan></text></g><g class="djs-visual" id="Gateway_090pk6x" transform="translate(95 655)"><polygon points="25,0 50,25 25,50 0,25" style="stroke: black; stroke-width: 2px; fill: white; fill-opacity: 0.95;"></polygon><path d="m 16,15 7.42857142857143,9.714285714285715 -7.42857142857143,9.714285714285715 3.428571428571429,0 5.714285714285715,-7.464228571428572 5.714285714285715,7.464228571428572 3.428571428571429,0 -7.42857142857143,-9.714285714285715 7.42857142857143,-9.714285714285715 -3.428571428571429,0 -5.714285714285715,7.464228571428572 -5.714285714285715,-7.464228571428572 -3.428571428571429,0 z" style="fill: black; stroke-width: 1px; stroke: black;"></path></g><g class="djs-visual" id="Activity_1ya0c9v" transform="translate(55 770)"><rect x="0" y="0" width="130" height="100" rx="10" ry="10" style="stroke: black; stroke-width: 2px; fill: white; fill-opacity: 0.95;"></rect><text lineHeight="1.2" class="djs-label" style="font-family: Arial, sans-serif; font-size: 12px; font-weight: normal; fill: black;"><tspan x="14.478515625" y="32">Check if Mudaraba </tspan><tspan x="34.984375" y="46.4">Facility has </tspan><tspan x="6.7587890625" y="60.8">sufficient commitment</tspan><tspan x="43.8193359375" y="75.19999999999999">balance</tspan></text></g><g class="djs-visual" id="Activity_1b5fmfb" transform="translate(475 900)"><rect x="0" y="0" width="130" height="100" rx="10" ry="10" style="stroke: black; stroke-width: 2px; fill: white; fill-opacity: 0.95;"></rect><text lineHeight="1.2" class="djs-label" style="font-family: Arial, sans-serif; font-size: 12px; font-weight: normal; fill: black;"><tspan x="17.9765625" y="46.4">Reject and inform </tspan><tspan x="39.82421875" y="60.8">customer</tspan></text></g><g class="djs-visual" id="Gateway_1kqqr57" transform="translate(515 805)"><polygon points="25,0 50,25 25,50 0,25" style="stroke: black; stroke-width: 2px; fill: white; fill-opacity: 0.95;"></polygon><path d="m 16,15 7.42857142857143,9.714285714285715 -7.42857142857143,9.714285714285715 3.428571428571429,0 5.714285714285715,-7.464228571428572 5.714285714285715,7.464228571428572 3.428571428571429,0 -7.42857142857143,-9.714285714285715 7.42857142857143,-9.714285714285715 -3.428571428571429,0 -5.714285714285715,7.464228571428572 -5.714285714285715,-7.464228571428572 -3.428571428571429,0 z" style="fill: black; stroke-width: 1px; stroke: black;"></path></g><g class="djs-visual" id="Event_1lggqo0" transform="translate(522 1022)"><circle cx="18" cy="18" r="18" style="stroke: black; stroke-width: 4px; fill: white; fill-opacity: 0.95;"></circle></g><g class="djs-visual" id="Event_1lggqo0_label" transform="translate(494 1065)"><text lineHeight="1.2" class="djs-label" style="font-family: Arial, sans-serif; font-size: 11px; font-weight: normal; fill: black;"><tspan x="0" y="9.899999999999999">Mudaraba Drawing </tspan><tspan x="13.511474609375" y="23.099999999999998">under Facility </tspan><tspan x="7.0234375" y="36.3">request rejected</tspan></text></g><g class="djs-visual" id="Gateway_1ij9u15" transform="translate(95 925)"><polygon points="25,0 50,25 25,50 0,25" style="stroke: black; stroke-width: 2px; fill: white; fill-opacity: 0.95;"></polygon><path d="m 16,15 7.42857142857143,9.714285714285715 -7.42857142857143,9.714285714285715 3.428571428571429,0 5.714285714285715,-7.464228571428572 5.714285714285715,7.464228571428572 3.428571428571429,0 -7.42857142857143,-9.714285714285715 7.42857142857143,-9.714285714285715 -3.428571428571429,0 -5.714285714285715,7.464228571428572 -5.714285714285715,-7.464228571428572 -3.428571428571429,0 z" style="fill: black; stroke-width: 1px; stroke: black;"></path></g><g class="djs-visual" id="Activity_19cbpp1" transform="translate(55 1090)"><rect x="0" y="0" width="130" height="100" rx="10" ry="10" style="stroke: black; stroke-width: 2px; fill: white; fill-opacity: 0.95;"></rect><text lineHeight="1.2" class="djs-label" style="font-family: Arial, sans-serif; font-size: 12px; font-weight: normal; fill: black;"><tspan x="5.4697265625" y="53.599999999999994">List products available</tspan></text></g><g class="djs-visual" id="Activity_0ndpkw8" transform="translate(55 1240)"><rect x="0" y="0" width="130" height="100" rx="10" ry="10" style="stroke: black; stroke-width: 2px; fill: white; fill-opacity: 0.95;"></rect><text lineHeight="1.2" class="djs-label" style="font-family: Arial, sans-serif; font-size: 12px; font-weight: normal; fill: black;"><tspan x="21.4814453125" y="39.2">Select customer </tspan><tspan x="9.134765625" y="53.6">requested drawdown </tspan><tspan x="44.654296875" y="68">product</tspan></text></g><g class="djs-visual" id="Activity_1llzycv" transform="translate(55 1420)"><rect x="0" y="0" width="130" height="100" rx="10" ry="10" style="stroke: black; stroke-width: 2px; fill: white; fill-opacity: 0.95;"></rect><text lineHeight="1.2" class="djs-label" style="font-family: Arial, sans-serif; font-size: 12px; font-weight: normal; fill: black;"><tspan x="22.4765625" y="46.4">Capture finance </tspan><tspan x="47.65625" y="60.8">details</tspan></text></g><g class="djs-visual" id="Activity_13niai7" transform="translate(55 1610)"><rect x="0" y="0" width="130" height="100" rx="10" ry="10" style="stroke: black; stroke-width: 2px; fill: white; fill-opacity: 0.95;"></rect><text lineHeight="1.2" class="djs-label" style="font-family: Arial, sans-serif; font-size: 12px; font-weight: normal; fill: black;"><tspan x="17.3056640625" y="46.4">Set up repayment </tspan><tspan x="12.9765625" y="60.8">instructions for fees</tspan></text></g><g class="djs-visual" id="Activity_0ekaewt" transform="translate(55 1750)"><rect x="0" y="0" width="130" height="100" rx="10" ry="10" style="stroke: black; stroke-width: 2px; fill: white; fill-opacity: 0.95;"></rect><text lineHeight="1.2" class="djs-label" style="font-family: Arial, sans-serif; font-size: 12px; font-weight: normal; fill: black;"><tspan x="11.8037109375" y="46.4">Verify and authorise </tspan><tspan x="10.1328125" y="60.8">finance arrangement</tspan></text></g><g class="djs-visual" id="Activity_0ithl0s" transform="translate(55 1890)"><rect x="0" y="0" width="130" height="100" rx="10" ry="10" style="stroke: black; stroke-width: 2px; fill: white; fill-opacity: 0.95;"></rect><text lineHeight="1.2" class="djs-label" style="font-family: Arial, sans-serif; font-size: 12px; font-weight: normal; fill: black;"><tspan x="18.1435546875" y="39.2">Create Mudaraba </tspan><tspan x="39.9921875" y="53.6">Drawings </tspan><tspan x="30.6474609375" y="68">arrangement</tspan></text></g><g class="djs-visual" id="Activity_1b7uk5p" transform="translate(55 2030)"><rect x="0" y="0" width="130" height="100" rx="10" ry="10" style="stroke: black; stroke-width: 2px; fill: white; fill-opacity: 0.95;"></rect><text lineHeight="1.2" class="djs-label" style="font-family: Arial, sans-serif; font-size: 12px; font-weight: normal; fill: black;"><tspan x="17.8125" y="46.4">Update Utilisation </tspan><tspan x="51.9990234375" y="60.8">Limit</tspan></text></g><g class="djs-visual" id="Event_1a2dxqt" transform="translate(102 2312)"><circle cx="18" cy="18" r="18" style="stroke: black; stroke-width: 4px; fill: white; fill-opacity: 0.95;"></circle></g><g class="djs-visual" id="Event_1a2dxqt_label" transform="translate(71 2360)"><text lineHeight="1.2" class="djs-label" style="font-family: Arial, sans-serif; font-size: 11px; font-weight: normal; fill: black;"><tspan x="8.951904296875" y="9.899999999999999">Disbursement of </tspan><tspan x="0" y="23.099999999999998">Mudaraba Drawings </tspan><tspan x="10.530517578125" y="36.3">to be Performed</tspan></text></g><g class="djs-visual" id="Activity_0hpgbtd" transform="translate(55 2170)"><rect x="0" y="0" width="130" height="100" rx="10" ry="10" style="stroke: black; stroke-width: 2px; fill: white; fill-opacity: 0.95;"></rect><text lineHeight="1.2" class="djs-label" style="font-family: Arial, sans-serif; font-size: 12px; font-weight: normal; fill: black;"><tspan x="30.92578125" y="53.599999999999994">View finance</tspan></text></g><g class="djs-visual" id="DataObjectReference_1353e1t" transform="translate(-18 225)"><path d="m 0,0 28.23529411764706,0 7.058823529411765,8.196721311475411 0,40.98360655737705 -35.294117647058826,0 0,-49.18032786885246 28.23529411764706,0 0,8.196721311475411 7.058823529411765,0" style="fill: white; stroke-width: 2px; stroke: black; fill-opacity: 0.95;"></path></g><g class="djs-visual" id="DataObjectReference_1353e1t_label" transform="translate(-47 286)"><text lineHeight="1.2" class="djs-label" style="font-family: Arial, sans-serif; font-size: 11px; font-weight: normal; fill: black;"><tspan x="0" y="9.899999999999999">Customer Request</tspan></text></g><g class="djs-visual" id="TextAnnotation_14f8i3r" transform="translate(210 1230)"><rect x="0" y="0" width="140" height="40" rx="0" ry="0" style="stroke: none; stroke-width: 2px; fill: none;"></rect><path d="m 0, 0 m 10,0 l -10,0 l 0,40 l 10,0" style="fill: none; stroke-width: 2px; stroke: black;"></path><text lineHeight="1.2" class="djs-label" style="font-family: Arial, sans-serif; font-size: 12px; font-weight: normal; fill: black;"><tspan x="5" y="15.799999999999999">Choose Mudaraba </tspan><tspan x="5" y="30.199999999999996">Drawings product</tspan></text></g><g class="djs-visual" id="TextAnnotation_0nu7r8e" transform="translate(210 1310)"><rect x="0" y="0" width="360" height="286" rx="0" ry="0" style="stroke: none; stroke-width: 2px; fill: none;"></rect><path d="m 0, 0 m 10,0 l -10,0 l 0,286 l 10,0" style="fill: none; stroke-width: 2px; stroke: black;"></path><text lineHeight="1.2" class="djs-label" style="font-family: Arial, sans-serif; font-size: 12px; font-weight: normal; fill: black;"><tspan x="5" y="15.799999999999999">Account details:</tspan><tspan x="5" y="30.199999999999996">- Customer Number</tspan><tspan x="5" y="44.599999999999994">- Currency</tspan><tspan x="5" y="58.99999999999999">Commitment Details:</tspan><tspan x="5" y="73.39999999999999">- Commitment amount</tspan><tspan x="5" y="87.79999999999998">&nbsp; (Multiple drawings can be created with the sum of commitment</tspan><tspan x="5" y="102.19999999999999">&nbsp; amounts not exceeding the Facility commitment amount)</tspan><tspan x="5" y="116.6">- Commitment term</tspan><tspan x="5" y="131">- Commitment expiry (optional)</tspan><tspan x="5" y="145.4">Mudaraba Drawings</tspan><tspan x="5" y="159.8">- Mudarib Profit Share %</tspan><tspan x="5" y="174.20000000000002">- IS Product ID</tspan><tspan x="5" y="188.60000000000002">Payment Schedule:</tspan><tspan x="5" y="203.00000000000003">- Set up schedule for repayment of any Charges/Fees</tspan><tspan x="5" y="217.40000000000003">- Set up Schedule for Disbursement(Optional)</tspan><tspan x="5" y="231.80000000000004">Payoff Rules:</tspan><tspan x="5" y="246.20000000000005">- Payoff Tolerance</tspan><tspan x="5" y="260.6">Settlement Instructions:</tspan><tspan x="5" y="275">- Setup Payout Account/ Payout Beneficiary</tspan></text></g><g class="djs-visual" id="TextAnnotation_08sh5e5" transform="translate(210 1610)"><rect x="0" y="0" width="205" height="30" rx="0" ry="0" style="stroke: none; stroke-width: 2px; fill: none;"></rect><path d="m 0, 0 m 10,0 l -10,0 l 0,30 l 10,0" style="fill: none; stroke-width: 2px; stroke: black;"></path><text lineHeight="1.2" class="djs-label" style="font-family: Arial, sans-serif; font-size: 12px; font-weight: normal; fill: black;"><tspan x="5" y="15.799999999999999">- Payin account/ Payin beneficiary</tspan></text></g><g class="djs-visual" id="TextAnnotation_1fk4245" transform="translate(210 1760)"><rect x="0" y="0" width="100" height="30" rx="0" ry="0" style="stroke: none; stroke-width: 2px; fill: none;"></rect><path d="m 0, 0 m 10,0 l -10,0 l 0,30 l 10,0" style="fill: none; stroke-width: 2px; stroke: black;"></path><text lineHeight="1.2" class="djs-label" style="font-family: Arial, sans-serif; font-size: 12px; font-weight: normal; fill: black;"><tspan x="5" y="15.799999999999999">Maker/ Checker</tspan></text></g><g class="djs-visual" id="DataInputAssociation_0gqsozm" transform="translate(0 0)"><polyline points="18,250 55,250 " style="fill: none; stroke: black; stroke-width: 2px; stroke-dasharray: 0.5, 5; stroke-linecap: round; stroke-linejoin: round; marker-end: url(&quot;#association-end-white-black-5knd2lz4pwluasvax1fe7szse&quot;);"></polyline></g><g class="djs-visual" id="Flow_15tgijj_label" transform="translate(134 702)"><text lineHeight="1.2" class="djs-label" style="font-family: Arial, sans-serif; font-size: 11px; font-weight: normal; fill: black;"><tspan x="2.673828125" y="9.899999999999999">Mudaraba Facility </tspan><tspan x="0" y="23.099999999999998">arrangement is not </tspan><tspan x="27.369384765625" y="36.3">blocked</tspan></text></g><g class="djs-visual" id="Flow_16cjv37_label" transform="translate(556 702)"><text lineHeight="1.2" class="djs-label" style="font-family: Arial, sans-serif; font-size: 11px; font-weight: normal; fill: black;"><tspan x="0" y="9.899999999999999">Mudaraba Facility </tspan><tspan x="6.721923828125" y="23.099999999999998">arrangement is </tspan><tspan x="24.695556640625" y="36.3">blocked</tspan></text></g><g class="djs-visual" id="Flow_0sy437j_label" transform="translate(127 989)"><text lineHeight="1.2" class="djs-label" style="font-family: Arial, sans-serif; font-size: 11px; font-weight: normal; fill: black;"><tspan x="0" y="9.899999999999999">Mudaraba Facility </tspan><tspan x="11.18359375" y="23.099999999999998">has sufficient </tspan><tspan x="13.2353515625" y="36.3">commitment </tspan><tspan x="24.383056640625" y="49.5">balance</tspan></text></g><g class="djs-visual" id="Flow_1yevz7v_label" transform="translate(276 883)"><text lineHeight="1.2" class="djs-label" style="font-family: Arial, sans-serif; font-size: 11px; font-weight: normal; fill: black;"><tspan x="0" y="9.899999999999999">Mudaraba Facility </tspan><tspan x="6.90283203125" y="23.099999999999998">has insufficient </tspan><tspan x="13.2353515625" y="36.3">commitment </tspan><tspan x="24.383056640625" y="49.5">balance</tspan></text></g><g class="djs-visual" id="Association_1jpaqns" transform="translate(0 0)"><polyline points="185,1445 210,1435 " style="fill: none; stroke: black; stroke-width: 2px; stroke-dasharray: 0.5, 5; stroke-linecap: round; stroke-linejoin: round;"></polyline></g><g class="djs-visual" id="Association_1qujgj5" transform="translate(0 0)"><polyline points="185,1778 210,1770 " style="fill: none; stroke: black; stroke-width: 2px; stroke-dasharray: 0.5, 5; stroke-linecap: round; stroke-linejoin: round;"></polyline></g><g class="djs-visual" id="Association_1x3p74s" transform="translate(0 0)"><polyline points="185,1639 210,1631 " style="fill: none; stroke: black; stroke-width: 2px; stroke-dasharray: 0.5, 5; stroke-linecap: round; stroke-linejoin: round;"></polyline></g><g class="djs-visual" id="Association_11vzzbp" transform="translate(0 0)"><polyline points="185,1266 210,1257 " style="fill: none; stroke: black; stroke-width: 2px; stroke-dasharray: 0.5, 5; stroke-linecap: round; stroke-linejoin: round;"></polyline></g></g><g><rect class="viewport" x="-2810.870967741935" y="39.992831541218635" width="6218.637992831541" height="2365.5913978494623"></rect></g></svg>