<svg width="100%" height="100%" data-element-id="Process_0gv1hwp"><g class="viewport" transform="matrix(0.279543 0 0 0.279543 699.774 -44.7268)"><g class="layer-root-1" data-element-id="Process_0gv1hwp"><g class="djs-group"><g class="djs-element djs-connection" data-element-id="Flow_0t46rdf" style="display: block;"><g class="djs-visual"><path d="m  260,2360L260,2432 " style="fill: none; stroke-width: 2px; stroke: black; stroke-linejoin: round; marker-end: url(&quot;#sequenceflow-end-white-black-dxgn80108q7xe90btqj26kh6l&quot;);"></path></g><polyline points="260,2360 260,2432 " class="djs-hit djs-hit-stroke" style="fill: none; stroke-opacity: 0; stroke: white; stroke-width: 15px;"></polyline><rect x="254" y="2354" width="12" height="84" class="djs-outline" style="fill: none;"></rect></g></g><g class="djs-group"><g class="djs-element djs-connection" data-element-id="Flow_093l99y" style="display: block;"><g class="djs-visual"><path d="m  260,2180L260,2260 " style="fill: none; stroke-width: 2px; stroke: black; stroke-linejoin: round; marker-end: url(&quot;#sequenceflow-end-white-black-dxgn80108q7xe90btqj26kh6l&quot;);"></path></g><polyline points="260,2180 260,2260 " class="djs-hit djs-hit-stroke" style="fill: none; stroke-opacity: 0; stroke: white; stroke-width: 15px;"></polyline><rect x="254" y="2174" width="12" height="92" class="djs-outline" style="fill: none;"></rect></g></g><g class="djs-group"><g class="djs-element djs-connection" data-element-id="Flow_1fnl60a" style="display: block;"><g class="djs-visual"><path d="m  260,2010L260,2080 " style="fill: none; stroke-width: 2px; stroke: black; stroke-linejoin: round; marker-end: url(&quot;#sequenceflow-end-white-black-dxgn80108q7xe90btqj26kh6l&quot;);"></path></g><polyline points="260,2010 260,2080 " class="djs-hit djs-hit-stroke" style="fill: none; stroke-opacity: 0; stroke: white; stroke-width: 15px;"></polyline><rect x="254" y="2004" width="12" height="82" class="djs-outline" style="fill: none;"></rect></g></g><g class="djs-group"><g class="djs-element djs-connection" data-element-id="Flow_127jhl5" style="display: block;"><g class="djs-visual"><path d="m  260,1835L260,1910 " style="fill: none; stroke-width: 2px; stroke: black; stroke-linejoin: round; marker-end: url(&quot;#sequenceflow-end-white-black-dxgn80108q7xe90btqj26kh6l&quot;);"></path></g><polyline points="260,1835 260,1910 " class="djs-hit djs-hit-stroke" style="fill: none; stroke-opacity: 0; stroke: white; stroke-width: 15px;"></polyline><rect x="254" y="1829" width="12" height="87" class="djs-outline" style="fill: none;"></rect></g></g><g class="djs-group"><g class="djs-element djs-connection" data-element-id="Flow_17bqrdn" style="display: block;"><g class="djs-visual"><path d="m  610,1740L610,1810 L285,1810 " style="fill: none; stroke-width: 2px; stroke: black; stroke-linejoin: round; marker-end: url(&quot;#sequenceflow-end-white-black-dxgn80108q7xe90btqj26kh6l&quot;);"></path></g><polyline points="610,1740 610,1810 285,1810 " class="djs-hit djs-hit-stroke" style="fill: none; stroke-opacity: 0; stroke: white; stroke-width: 15px;"></polyline><rect x="279" y="1734" width="337" height="82" class="djs-outline" style="fill: none;"></rect></g></g><g class="djs-group"><g class="djs-element djs-connection" data-element-id="Flow_1mhyd20" style="display: block;"><g class="djs-visual"><path d="m  260,1260L260,1785 " style="fill: none; stroke-width: 2px; stroke: black; stroke-linejoin: round; marker-end: url(&quot;#sequenceflow-end-white-black-dxgn80108q7xe90btqj26kh6l&quot;);"></path></g><polyline points="260,1260 260,1785 " class="djs-hit djs-hit-stroke" style="fill: none; stroke-opacity: 0; stroke: white; stroke-width: 15px;"></polyline><rect x="254" y="1254" width="12" height="537" class="djs-outline" style="fill: none;"></rect></g></g><g class="djs-group"><g class="djs-element djs-connection" data-element-id="Flow_13za80y" style="display: block;"><g class="djs-visual"><path d="m  940,1740L940,1822 " style="fill: none; stroke-width: 2px; stroke: black; stroke-linejoin: round; marker-end: url(&quot;#sequenceflow-end-white-black-dxgn80108q7xe90btqj26kh6l&quot;);"></path></g><polyline points="940,1740 940,1822 " class="djs-hit djs-hit-stroke" style="fill: none; stroke-opacity: 0; stroke: white; stroke-width: 15px;"></polyline><rect x="934" y="1734" width="12" height="94" class="djs-outline" style="fill: none;"></rect></g></g><g class="djs-group"><g class="djs-element djs-connection" data-element-id="Flow_12rwjk6" style="display: block;"><g class="djs-visual"><path d="m  940,1560L940,1640 " style="fill: none; stroke-width: 2px; stroke: black; stroke-linejoin: round; marker-end: url(&quot;#sequenceflow-end-white-black-dxgn80108q7xe90btqj26kh6l&quot;);"></path></g><polyline points="940,1560 940,1640 " class="djs-hit djs-hit-stroke" style="fill: none; stroke-opacity: 0; stroke: white; stroke-width: 15px;"></polyline><rect x="934" y="1554" width="12" height="92" class="djs-outline" style="fill: none;"></rect></g></g><g class="djs-group"><g class="djs-element djs-connection" data-element-id="Flow_1bo06og" style="display: block;"><g class="djs-visual"><path d="m  635,1366L940,1366 L940,1460 " style="fill: none; stroke-width: 2px; stroke: black; stroke-linejoin: round; marker-end: url(&quot;#sequenceflow-end-white-black-dxgn80108q7xe90btqj26kh6l&quot;);"></path></g><polyline points="635,1366 940,1366 940,1460 " class="djs-hit djs-hit-stroke" style="fill: none; stroke-opacity: 0; stroke: white; stroke-width: 15px;"></polyline><rect x="629" y="1360" width="317" height="106" class="djs-outline" style="fill: none;"></rect></g></g><g class="djs-group"><g class="djs-element djs-connection" data-element-id="Flow_0c3d9yr" style="display: block;"><g class="djs-visual"><path d="m  610,1560L610,1640 " style="fill: none; stroke-width: 2px; stroke: black; stroke-linejoin: round; marker-end: url(&quot;#sequenceflow-end-white-black-dxgn80108q7xe90btqj26kh6l&quot;);"></path></g><polyline points="610,1560 610,1640 " class="djs-hit djs-hit-stroke" style="fill: none; stroke-opacity: 0; stroke: white; stroke-width: 15px;"></polyline><rect x="604" y="1554" width="12" height="92" class="djs-outline" style="fill: none;"></rect></g></g><g class="djs-group"><g class="djs-element djs-connection" data-element-id="Flow_0qyrpe1" style="display: block;"><g class="djs-visual"><path d="m  610,1391L610,1460 " style="fill: none; stroke-width: 2px; stroke: black; stroke-linejoin: round; marker-end: url(&quot;#sequenceflow-end-white-black-dxgn80108q7xe90btqj26kh6l&quot;);"></path></g><polyline points="610,1391 610,1460 " class="djs-hit djs-hit-stroke" style="fill: none; stroke-opacity: 0; stroke: white; stroke-width: 15px;"></polyline><rect x="604" y="1385" width="12" height="81" class="djs-outline" style="fill: none;"></rect></g></g><g class="djs-group"><g class="djs-element djs-connection" data-element-id="Flow_0waj8nd" style="display: block;"><g class="djs-visual"><path d="m  610,1260L610,1341 " style="fill: none; stroke-width: 2px; stroke: black; stroke-linejoin: round; marker-end: url(&quot;#sequenceflow-end-white-black-dxgn80108q7xe90btqj26kh6l&quot;);"></path></g><polyline points="610,1260 610,1341 " class="djs-hit djs-hit-stroke" style="fill: none; stroke-opacity: 0; stroke: white; stroke-width: 15px;"></polyline><rect x="604" y="1254" width="12" height="93" class="djs-outline" style="fill: none;"></rect></g></g><g class="djs-group"><g class="djs-element djs-connection" data-element-id="Flow_172nr2k" style="display: block;"><g class="djs-visual"><path d="m  260,1085L260,1160 " style="fill: none; stroke-width: 2px; stroke: black; stroke-linejoin: round; marker-end: url(&quot;#sequenceflow-end-white-black-dxgn80108q7xe90btqj26kh6l&quot;);"></path></g><polyline points="260,1085 260,1160 " class="djs-hit djs-hit-stroke" style="fill: none; stroke-opacity: 0; stroke: white; stroke-width: 15px;"></polyline><rect x="254" y="1079" width="12" height="87" class="djs-outline" style="fill: none;"></rect></g></g><g class="djs-group"><g class="djs-element djs-connection" data-element-id="Flow_14t7ppn" style="display: block;"><g class="djs-visual"><path d="m  285,1060L610,1060 L610,1160 " style="fill: none; stroke-width: 2px; stroke: black; stroke-linejoin: round; marker-end: url(&quot;#sequenceflow-end-white-black-dxgn80108q7xe90btqj26kh6l&quot;);"></path></g><polyline points="285,1060 610,1060 610,1160 " class="djs-hit djs-hit-stroke" style="fill: none; stroke-opacity: 0; stroke: white; stroke-width: 15px;"></polyline><rect x="279" y="1054" width="337" height="112" class="djs-outline" style="fill: none;"></rect></g></g><g class="djs-group"><g class="djs-element djs-connection" data-element-id="Flow_1eip672" style="display: block;"><g class="djs-visual"><path d="m  260,960L260,1035 " style="fill: none; stroke-width: 2px; stroke: black; stroke-linejoin: round; marker-end: url(&quot;#sequenceflow-end-white-black-dxgn80108q7xe90btqj26kh6l&quot;);"></path></g><polyline points="260,960 260,1035 " class="djs-hit djs-hit-stroke" style="fill: none; stroke-opacity: 0; stroke: white; stroke-width: 15px;"></polyline><rect x="254" y="954" width="12" height="87" class="djs-outline" style="fill: none;"></rect></g></g><g class="djs-group"><g class="djs-element djs-connection" data-element-id="Flow_048lsx2" style="display: block;"><g class="djs-visual"><path d="m  260,776L260,860 " style="fill: none; stroke-width: 2px; stroke: black; stroke-linejoin: round; marker-end: url(&quot;#sequenceflow-end-white-black-dxgn80108q7xe90btqj26kh6l&quot;);"></path></g><polyline points="260,776 260,860 " class="djs-hit djs-hit-stroke" style="fill: none; stroke-opacity: 0; stroke: white; stroke-width: 15px;"></polyline><rect x="254" y="770" width="12" height="96" class="djs-outline" style="fill: none;"></rect></g></g><g class="djs-group"><g class="djs-element djs-connection" data-element-id="Flow_0irzvr8" style="display: block;"><g class="djs-visual"><path d="m  260,600L260,676 " style="fill: none; stroke-width: 2px; stroke: black; stroke-linejoin: round; marker-end: url(&quot;#sequenceflow-end-white-black-dxgn80108q7xe90btqj26kh6l&quot;);"></path></g><polyline points="260,600 260,676 " class="djs-hit djs-hit-stroke" style="fill: none; stroke-opacity: 0; stroke: white; stroke-width: 15px;"></polyline><rect x="254" y="594" width="12" height="88" class="djs-outline" style="fill: none;"></rect></g></g><g class="djs-group"><g class="djs-element djs-connection" data-element-id="Flow_0yrne6q" style="display: block;"><g class="djs-visual"><path d="m  260,430L260,500 " style="fill: none; stroke-width: 2px; stroke: black; stroke-linejoin: round; marker-end: url(&quot;#sequenceflow-end-white-black-dxgn80108q7xe90btqj26kh6l&quot;);"></path></g><polyline points="260,430 260,500 " class="djs-hit djs-hit-stroke" style="fill: none; stroke-opacity: 0; stroke: white; stroke-width: 15px;"></polyline><rect x="254" y="424" width="12" height="82" class="djs-outline" style="fill: none;"></rect></g></g><g class="djs-group"><g class="djs-element djs-connection" data-element-id="Flow_0n90a71" style="display: block;"><g class="djs-visual"><path d="m  260,248L260,330 " style="fill: none; stroke-width: 2px; stroke: black; stroke-linejoin: round; marker-end: url(&quot;#sequenceflow-end-white-black-dxgn80108q7xe90btqj26kh6l&quot;);"></path></g><polyline points="260,248 260,330 " class="djs-hit djs-hit-stroke" style="fill: none; stroke-opacity: 0; stroke: white; stroke-width: 15px;"></polyline><rect x="254" y="242" width="12" height="94" class="djs-outline" style="fill: none;"></rect></g></g><g class="djs-group"><g class="djs-element djs-shape" data-element-id="StartEvent_1bm324f" style="display: block;" transform="matrix(1 0 0 1 242 212)"><g class="djs-visual"><circle cx="18" cy="18" r="18" style="stroke: black; stroke-width: 2px; fill: white; fill-opacity: 0.95;"></circle></g><rect class="djs-hit djs-hit-all" x="0" y="0" width="36" height="36" style="fill: none; stroke-opacity: 0; stroke: white; stroke-width: 15px;"></rect><rect x="-6" y="-6" width="48" height="48" class="djs-outline" style="fill: none;"></rect></g></g><g class="djs-group"><g class="djs-element djs-shape" data-element-id="StartEvent_1bm324f_label" style="display: block;" transform="matrix(1 0 0 1 212 166)"><g class="djs-visual"><text lineHeight="1.2" class="djs-label" style="font-family: Arial, sans-serif; font-size: 11px; font-weight: normal; fill: black;"><tspan x="0" y="9.899999999999999">FCY purchase to be </tspan><tspan x="26.4921875" y="23.099999999999998">executed</tspan></text></g><rect class="djs-hit djs-hit-all" x="0" y="0" width="98" height="27" style="fill: none; stroke-opacity: 0; stroke: white; stroke-width: 15px;"></rect><rect x="-6" y="-6" width="110" height="39" class="djs-outline" style="fill: none;"></rect></g></g><g class="djs-group"><g class="djs-element djs-shape" data-element-id="Activity_1p9ffn5" style="display: block;" transform="matrix(1 0 0 1 195 330)"><g class="djs-visual"><rect x="0" y="0" width="130" height="100" rx="10" ry="10" style="stroke: black; stroke-width: 2px; fill: white; fill-opacity: 0.95;"></rect><text lineHeight="1.2" class="djs-label" style="font-family: Arial, sans-serif; font-size: 12px; font-weight: normal; fill: black;"><tspan x="15.591796875" y="46.4">Capture FCY cash </tspan><tspan x="47.65625" y="60.8">details</tspan></text></g><rect class="djs-hit djs-hit-all" x="0" y="0" width="130" height="100" style="fill: none; stroke-opacity: 0; stroke: white; stroke-width: 15px;"></rect><rect x="-6" y="-6" width="142" height="112" class="djs-outline" style="fill: none;"></rect></g></g><g class="djs-group"><g class="djs-element djs-shape" data-element-id="Activity_0c2btbf" style="display: block;" transform="matrix(1 0 0 1 195 500)"><g class="djs-visual"><rect x="0" y="0" width="130" height="100" rx="10" ry="10" style="stroke: black; stroke-width: 2px; fill: white; fill-opacity: 0.95;"></rect><text lineHeight="1.2" class="djs-label" style="font-family: Arial, sans-serif; font-size: 12px; font-weight: normal; fill: black;"><tspan x="7.6337890625" y="53.599999999999994">Assign exchange rate</tspan></text></g><rect class="djs-hit djs-hit-all" x="0" y="0" width="130" height="100" style="fill: none; stroke-opacity: 0; stroke: white; stroke-width: 15px;"></rect><rect x="-6" y="-6" width="142" height="112" class="djs-outline" style="fill: none;"></rect></g></g><g class="djs-group"><g class="djs-element djs-shape" data-element-id="Activity_06plw61" style="display: block;" transform="matrix(1 0 0 1 195 676)"><g class="djs-visual"><rect x="0" y="0" width="130" height="100" rx="10" ry="10" style="stroke: black; stroke-width: 2px; fill: white; fill-opacity: 0.95;"></rect><text lineHeight="1.2" class="djs-label" style="font-family: Arial, sans-serif; font-size: 12px; font-weight: normal; fill: black;"><tspan x="37.818359375" y="39.2">Input LCY </tspan><tspan x="5.953125" y="53.6">denomination and pay</tspan><tspan x="52.1630859375" y="68">cash</tspan></text></g><rect class="djs-hit djs-hit-all" x="0" y="0" width="130" height="100" style="fill: none; stroke-opacity: 0; stroke: white; stroke-width: 15px;"></rect><rect x="-6" y="-6" width="142" height="112" class="djs-outline" style="fill: none;"></rect></g></g><g class="djs-group"><g class="djs-element djs-shape" data-element-id="Activity_0iq9jky" style="display: block;" transform="matrix(1 0 0 1 195 860)"><g class="djs-visual"><rect x="0" y="0" width="130" height="100" rx="10" ry="10" style="stroke: black; stroke-width: 2px; fill: white; fill-opacity: 0.95;"></rect><text lineHeight="1.2" class="djs-label" style="font-family: Arial, sans-serif; font-size: 12px; font-weight: normal; fill: black;"><tspan x="10.984375" y="53.599999999999994">Verify teller/ till limits</tspan></text></g><rect class="djs-hit djs-hit-all" x="0" y="0" width="130" height="100" style="fill: none; stroke-opacity: 0; stroke: white; stroke-width: 15px;"></rect><rect x="-6" y="-6" width="142" height="112" class="djs-outline" style="fill: none;"></rect></g></g><g class="djs-group"><g class="djs-element djs-shape" data-element-id="Gateway_0y4u560" style="display: block;" transform="matrix(1 0 0 1 235 1035)"><g class="djs-visual"><polygon points="25,0 50,25 25,50 0,25" style="stroke: black; stroke-width: 2px; fill: white; fill-opacity: 0.95;"></polygon><path d="m 16,15 7.42857142857143,9.714285714285715 -7.42857142857143,9.714285714285715 3.428571428571429,0 5.714285714285715,-7.464228571428572 5.714285714285715,7.464228571428572 3.428571428571429,0 -7.42857142857143,-9.714285714285715 7.42857142857143,-9.714285714285715 -3.428571428571429,0 -5.714285714285715,7.464228571428572 -5.714285714285715,-7.464228571428572 -3.428571428571429,0 z" style="fill: black; stroke-width: 1px; stroke: black;"></path></g><rect class="djs-hit djs-hit-all" x="0" y="0" width="50" height="50" style="fill: none; stroke-opacity: 0; stroke: white; stroke-width: 15px;"></rect><rect x="-6" y="-6" width="62" height="62" class="djs-outline" style="fill: none;"></rect></g></g><g class="djs-group"><g class="djs-element djs-shape" data-element-id="Activity_1bwu1p1" style="display: block;" transform="matrix(1 0 0 1 545 1160)"><g class="djs-visual"><rect x="0" y="0" width="130" height="100" rx="10" ry="10" style="stroke: black; stroke-width: 2px; fill: white; fill-opacity: 0.95;"></rect><text lineHeight="1.2" class="djs-label" style="font-family: Arial, sans-serif; font-size: 12px; font-weight: normal; fill: black;"><tspan x="16.4765625" y="53.599999999999994">Generate override</tspan></text></g><rect class="djs-hit djs-hit-all" x="0" y="0" width="130" height="100" style="fill: none; stroke-opacity: 0; stroke: white; stroke-width: 15px;"></rect><rect x="-6" y="-6" width="142" height="112" class="djs-outline" style="fill: none;"></rect></g></g><g class="djs-group"><g class="djs-element djs-shape" data-element-id="Activity_0ulwy5e" style="display: block;" transform="matrix(1 0 0 1 195 1160)"><g class="djs-visual"><rect x="0" y="0" width="130" height="100" rx="10" ry="10" style="stroke: black; stroke-width: 2px; fill: white; fill-opacity: 0.95;"></rect><text lineHeight="1.2" class="djs-label" style="font-family: Arial, sans-serif; font-size: 12px; font-weight: normal; fill: black;"><tspan x="12.4775390625" y="46.4">Move transaction to </tspan><tspan x="12.12890625" y="60.8">authorisation queue</tspan></text></g><rect class="djs-hit djs-hit-all" x="0" y="0" width="130" height="100" style="fill: none; stroke-opacity: 0; stroke: white; stroke-width: 15px;"></rect><rect x="-6" y="-6" width="142" height="112" class="djs-outline" style="fill: none;"></rect></g></g><g class="djs-group"><g class="djs-element djs-shape" data-element-id="Gateway_169937n" style="display: block;" transform="matrix(1 0 0 1 585 1341)"><g class="djs-visual"><polygon points="25,0 50,25 25,50 0,25" style="stroke: black; stroke-width: 2px; fill: white; fill-opacity: 0.95;"></polygon><path d="m 16,15 7.42857142857143,9.714285714285715 -7.42857142857143,9.714285714285715 3.428571428571429,0 5.714285714285715,-7.464228571428572 5.714285714285715,7.464228571428572 3.428571428571429,0 -7.42857142857143,-9.714285714285715 7.42857142857143,-9.714285714285715 -3.428571428571429,0 -5.714285714285715,7.464228571428572 -5.714285714285715,-7.464228571428572 -3.428571428571429,0 z" style="fill: black; stroke-width: 1px; stroke: black;"></path></g><rect class="djs-hit djs-hit-all" x="0" y="0" width="50" height="50" style="fill: none; stroke-opacity: 0; stroke: white; stroke-width: 15px;"></rect><rect x="-6" y="-6" width="62" height="62" class="djs-outline" style="fill: none;"></rect></g></g><g class="djs-group"><g class="djs-element djs-shape" data-element-id="Activity_1gsp9fg" style="display: block;" transform="matrix(1 0 0 1 545 1460)"><g class="djs-visual"><rect x="0" y="0" width="130" height="100" rx="10" ry="10" style="stroke: black; stroke-width: 2px; fill: white; fill-opacity: 0.95;"></rect><text lineHeight="1.2" class="djs-label" style="font-family: Arial, sans-serif; font-size: 12px; font-weight: normal; fill: black;"><tspan x="23.650390625" y="53.599999999999994">Accept override</tspan></text></g><rect class="djs-hit djs-hit-all" x="0" y="0" width="130" height="100" style="fill: none; stroke-opacity: 0; stroke: white; stroke-width: 15px;"></rect><rect x="-6" y="-6" width="142" height="112" class="djs-outline" style="fill: none;"></rect></g></g><g class="djs-group"><g class="djs-element djs-shape" data-element-id="Activity_1bcfeah" style="display: block;" transform="matrix(1 0 0 1 545 1640)"><g class="djs-visual"><rect x="0" y="0" width="130" height="100" rx="10" ry="10" style="stroke: black; stroke-width: 2px; fill: white; fill-opacity: 0.95;"></rect><text lineHeight="1.2" class="djs-label" style="font-family: Arial, sans-serif; font-size: 12px; font-weight: normal; fill: black;"><tspan x="12.4775390625" y="46.4">Move transaction to </tspan><tspan x="12.12890625" y="60.8">authorisation queue</tspan></text></g><rect class="djs-hit djs-hit-all" x="0" y="0" width="130" height="100" style="fill: none; stroke-opacity: 0; stroke: white; stroke-width: 15px;"></rect><rect x="-6" y="-6" width="142" height="112" class="djs-outline" style="fill: none;"></rect></g></g><g class="djs-group"><g class="djs-element djs-shape" data-element-id="Activity_17wmf93" style="display: block;" transform="matrix(1 0 0 1 875 1460)"><g class="djs-visual"><rect x="0" y="0" width="130" height="100" rx="10" ry="10" style="stroke: black; stroke-width: 2px; fill: white; fill-opacity: 0.95;"></rect><text lineHeight="1.2" class="djs-label" style="font-family: Arial, sans-serif; font-size: 12px; font-weight: normal; fill: black;"><tspan x="23.15625" y="53.599999999999994">Reject Override</tspan></text></g><rect class="djs-hit djs-hit-all" x="0" y="0" width="130" height="100" style="fill: none; stroke-opacity: 0; stroke: white; stroke-width: 15px;"></rect><rect x="-6" y="-6" width="142" height="112" class="djs-outline" style="fill: none;"></rect></g></g><g class="djs-group"><g class="djs-element djs-shape" data-element-id="Activity_1bibahv" style="display: block;" transform="matrix(1 0 0 1 875 1640)"><g class="djs-visual"><rect x="0" y="0" width="130" height="100" rx="10" ry="10" style="stroke: black; stroke-width: 2px; fill: white; fill-opacity: 0.95;"></rect><text lineHeight="1.2" class="djs-label" style="font-family: Arial, sans-serif; font-size: 12px; font-weight: normal; fill: black;"><tspan x="13.4765625" y="53.599999999999994">Cancel Transaction</tspan></text></g><rect class="djs-hit djs-hit-all" x="0" y="0" width="130" height="100" style="fill: none; stroke-opacity: 0; stroke: white; stroke-width: 15px;"></rect><rect x="-6" y="-6" width="142" height="112" class="djs-outline" style="fill: none;"></rect></g></g><g class="djs-group"><g class="djs-element djs-shape" data-element-id="Event_1gsymho" style="display: block;" transform="matrix(1 0 0 1 922 1822)"><g class="djs-visual"><circle cx="18" cy="18" r="18" style="stroke: black; stroke-width: 4px; fill: white; fill-opacity: 0.95;"></circle></g><rect class="djs-hit djs-hit-all" x="0" y="0" width="36" height="36" style="fill: none; stroke-opacity: 0; stroke: white; stroke-width: 15px;"></rect><rect x="-6" y="-6" width="48" height="48" class="djs-outline" style="fill: none;"></rect></g></g><g class="djs-group"><g class="djs-element djs-shape" data-element-id="Event_1gsymho_label" style="display: block;" transform="matrix(1 0 0 1 892 1865)"><g class="djs-visual"><text lineHeight="1.2" class="djs-label" style="font-family: Arial, sans-serif; font-size: 11px; font-weight: normal; fill: black;"><tspan x="0" y="9.899999999999999">Transaction aborted</tspan></text></g><rect class="djs-hit djs-hit-all" x="0" y="0" width="97" height="14" style="fill: none; stroke-opacity: 0; stroke: white; stroke-width: 15px;"></rect><rect x="-6" y="-6" width="109" height="26" class="djs-outline" style="fill: none;"></rect></g></g><g class="djs-group"><g class="djs-element djs-shape" data-element-id="Gateway_1kdc01a" style="display: block;" transform="matrix(1 0 0 1 235 1785)"><g class="djs-visual"><polygon points="25,0 50,25 25,50 0,25" style="stroke: black; stroke-width: 2px; fill: white; fill-opacity: 0.95;"></polygon><path d="m 16,15 7.42857142857143,9.714285714285715 -7.42857142857143,9.714285714285715 3.428571428571429,0 5.714285714285715,-7.464228571428572 5.714285714285715,7.464228571428572 3.428571428571429,0 -7.42857142857143,-9.714285714285715 7.42857142857143,-9.714285714285715 -3.428571428571429,0 -5.714285714285715,7.464228571428572 -5.714285714285715,-7.464228571428572 -3.428571428571429,0 z" style="fill: black; stroke-width: 1px; stroke: black;"></path></g><rect class="djs-hit djs-hit-all" x="0" y="0" width="50" height="50" style="fill: none; stroke-opacity: 0; stroke: white; stroke-width: 15px;"></rect><rect x="-6" y="-6" width="62" height="62" class="djs-outline" style="fill: none;"></rect></g></g><g class="djs-group"><g class="djs-element djs-shape" data-element-id="Activity_0gb62px" style="display: block;" transform="matrix(1 0 0 1 195 1910)"><g class="djs-visual"><rect x="0" y="0" width="130" height="100" rx="10" ry="10" style="stroke: black; stroke-width: 2px; fill: white; fill-opacity: 0.95;"></rect><text lineHeight="1.2" class="djs-label" style="font-family: Arial, sans-serif; font-size: 12px; font-weight: normal; fill: black;"><tspan x="11.8037109375" y="46.4">Verify and authorise </tspan><tspan x="14.1416015625" y="60.8">currency exchange</tspan></text></g><rect class="djs-hit djs-hit-all" x="0" y="0" width="130" height="100" style="fill: none; stroke-opacity: 0; stroke: white; stroke-width: 15px;"></rect><rect x="-6" y="-6" width="142" height="112" class="djs-outline" style="fill: none;"></rect></g></g><g class="djs-group"><g class="djs-element djs-shape" data-element-id="Activity_0o0if5w" style="display: block;" transform="matrix(1 0 0 1 195 2080)"><g class="djs-visual"><rect x="0" y="0" width="130" height="100" rx="10" ry="10" style="stroke: black; stroke-width: 2px; fill: white; fill-opacity: 0.95;"></rect><text lineHeight="1.2" class="djs-label" style="font-family: Arial, sans-serif; font-size: 12px; font-weight: normal; fill: black;"><tspan x="8.8037109375" y="46.4">Generate transaction </tspan><tspan x="43.984375" y="60.8">receipts</tspan></text></g><rect class="djs-hit djs-hit-all" x="0" y="0" width="130" height="100" style="fill: none; stroke-opacity: 0; stroke: white; stroke-width: 15px;"></rect><rect x="-6" y="-6" width="142" height="112" class="djs-outline" style="fill: none;"></rect></g></g><g class="djs-group"><g class="djs-element djs-shape" data-element-id="DataObjectReference_1ij3na2" style="display: block;" transform="matrix(1 0 0 1 457 2105)"><g class="djs-visual"><path d="m 0,0 28.23529411764706,0 7.058823529411765,8.196721311475411 0,40.98360655737705 -35.294117647058826,0 0,-49.18032786885246 28.23529411764706,0 0,8.196721311475411 7.058823529411765,0" style="fill: white; stroke-width: 2px; stroke: black; fill-opacity: 0.95;"></path></g><rect class="djs-hit djs-hit-all" x="0" y="0" width="36" height="50" style="fill: none; stroke-opacity: 0; stroke: white; stroke-width: 15px;"></rect><rect x="-6" y="-6" width="48" height="62" class="djs-outline" style="fill: none;"></rect></g></g><g class="djs-group"><g class="djs-element djs-shape" data-element-id="DataObjectReference_1ij3na2_label" style="display: block;" transform="matrix(1 0 0 1 427 2162)"><g class="djs-visual"><text lineHeight="1.2" class="djs-label" style="font-family: Arial, sans-serif; font-size: 11px; font-weight: normal; fill: black;"><tspan x="0" y="9.899999999999999">Transaction Receipt</tspan></text></g><rect class="djs-hit djs-hit-all" x="0" y="0" width="98" height="14" style="fill: none; stroke-opacity: 0; stroke: white; stroke-width: 15px;"></rect><rect x="-6" y="-6" width="110" height="26" class="djs-outline" style="fill: none;"></rect></g></g><g class="djs-group"><g class="djs-element djs-shape" data-element-id="Activity_0zp9tlp" style="display: block;" transform="matrix(1 0 0 1 195 2260)"><g class="djs-visual"><rect x="0" y="0" width="130" height="100" rx="10" ry="10" style="stroke: black; stroke-width: 2px; fill: white; fill-opacity: 0.95;"></rect><text lineHeight="1.2" class="djs-label" style="font-family: Arial, sans-serif; font-size: 12px; font-weight: normal; fill: black;"><tspan x="13.4765625" y="46.4">Prepare &amp; disburse </tspan><tspan x="52.1630859375" y="60.8">cash</tspan></text></g><rect class="djs-hit djs-hit-all" x="0" y="0" width="130" height="100" style="fill: none; stroke-opacity: 0; stroke: white; stroke-width: 15px;"></rect><rect x="-6" y="-6" width="142" height="112" class="djs-outline" style="fill: none;"></rect></g></g><g class="djs-group"><g class="djs-element djs-shape" data-element-id="DataObjectReference_0ql44bx" style="display: block;" transform="matrix(1 0 0 1 457 2285)"><g class="djs-visual"><path d="m 0,0 28.23529411764706,0 7.058823529411765,8.196721311475411 0,40.98360655737705 -35.294117647058826,0 0,-49.18032786885246 28.23529411764706,0 0,8.196721311475411 7.058823529411765,0" style="fill: white; stroke-width: 2px; stroke: black; fill-opacity: 0.95;"></path></g><rect class="djs-hit djs-hit-all" x="0" y="0" width="36" height="50" style="fill: none; stroke-opacity: 0; stroke: white; stroke-width: 15px;"></rect><rect x="-6" y="-6" width="48" height="62" class="djs-outline" style="fill: none;"></rect></g></g><g class="djs-group"><g class="djs-element djs-shape" data-element-id="DataObjectReference_0ql44bx_label" style="display: block;" transform="matrix(1 0 0 1 427 2342)"><g class="djs-visual"><text lineHeight="1.2" class="djs-label" style="font-family: Arial, sans-serif; font-size: 11px; font-weight: normal; fill: black;"><tspan x="0" y="9.899999999999999">Transaction Receipt</tspan></text></g><rect class="djs-hit djs-hit-all" x="0" y="0" width="98" height="14" style="fill: none; stroke-opacity: 0; stroke: white; stroke-width: 15px;"></rect><rect x="-6" y="-6" width="110" height="26" class="djs-outline" style="fill: none;"></rect></g></g><g class="djs-group"><g class="djs-element djs-shape" data-element-id="Event_0omk6f2" style="display: block;" transform="matrix(1 0 0 1 242 2432)"><g class="djs-visual"><circle cx="18" cy="18" r="18" style="stroke: black; stroke-width: 4px; fill: white; fill-opacity: 0.95;"></circle></g><rect class="djs-hit djs-hit-all" x="0" y="0" width="36" height="36" style="fill: none; stroke-opacity: 0; stroke: white; stroke-width: 15px;"></rect><rect x="-6" y="-6" width="48" height="48" class="djs-outline" style="fill: none;"></rect></g></g><g class="djs-group"><g class="djs-element djs-shape" data-element-id="Event_0omk6f2_label" style="display: block;" transform="matrix(1 0 0 1 218 2475)"><g class="djs-visual"><text lineHeight="1.2" class="djs-label" style="font-family: Arial, sans-serif; font-size: 11px; font-weight: normal; fill: black;"><tspan x="0" y="9.899999999999999">Buy FCY against </tspan><tspan x="17.891357421875" y="23.099999999999998">LCY cash </tspan><tspan x="16.258544921875" y="36.3">completed</tspan></text></g><rect class="djs-hit djs-hit-all" x="0" y="0" width="84" height="40" style="fill: none; stroke-opacity: 0; stroke: white; stroke-width: 15px;"></rect><rect x="-6" y="-6" width="96" height="52" class="djs-outline" style="fill: none;"></rect></g></g><g class="djs-group"><g class="djs-element djs-shape" data-element-id="TextAnnotation_0tp4s7r" style="display: block;" transform="matrix(1 0 0 1 370 270)"><g class="djs-visual"><rect x="0" y="0" width="210" height="50" rx="0" ry="0" style="stroke: none; stroke-width: 2px; fill: none;"></rect><path d="m 0, 0 m 10,0 l -10,0 l 0,50 l 10,0" style="fill: none; stroke-width: 2px; stroke: black;"></path><text lineHeight="1.2" class="djs-label" style="font-family: Arial, sans-serif; font-size: 12px; font-weight: normal; fill: black;"><tspan x="5" y="15.799999999999999">- Amount</tspan><tspan x="5" y="30.199999999999996">- Currency</tspan><tspan x="5" y="44.599999999999994">- Cash received and denomination</tspan></text></g><rect class="djs-hit djs-hit-all" x="0" y="0" width="210" height="50" style="fill: none; stroke-opacity: 0; stroke: white; stroke-width: 15px;"></rect><rect x="-6" y="-6" width="222" height="62" class="djs-outline" style="fill: none;"></rect></g></g><g class="djs-group"><g class="djs-element djs-shape" data-element-id="TextAnnotation_0tvmgp3" style="display: block;" transform="matrix(1 0 0 1 370 450)"><g class="djs-visual"><rect x="0" y="0" width="130" height="40" rx="0" ry="0" style="stroke: none; stroke-width: 2px; fill: none;"></rect><path d="m 0, 0 m 10,0 l -10,0 l 0,40 l 10,0" style="fill: none; stroke-width: 2px; stroke: black;"></path><text lineHeight="1.2" class="djs-label" style="font-family: Arial, sans-serif; font-size: 12px; font-weight: normal; fill: black;"><tspan x="5" y="15.799999999999999">Convert amount into </tspan><tspan x="5" y="30.199999999999996">local currency</tspan></text></g><rect class="djs-hit djs-hit-all" x="0" y="0" width="130" height="40" style="fill: none; stroke-opacity: 0; stroke: white; stroke-width: 15px;"></rect><rect x="-6" y="-6" width="142" height="52" class="djs-outline" style="fill: none;"></rect></g></g><g class="djs-group"><g class="djs-element djs-shape" data-element-id="TextAnnotation_0wmid4v" style="display: block;" transform="matrix(1 0 0 1 370 620)"><g class="djs-visual"><rect x="0" y="0" width="185" height="50" rx="0" ry="0" style="stroke: none; stroke-width: 2px; fill: none;"></rect><path d="m 0, 0 m 10,0 l -10,0 l 0,50 l 10,0" style="fill: none; stroke-width: 2px; stroke: black;"></path><text lineHeight="1.2" class="djs-label" style="font-family: Arial, sans-serif; font-size: 12px; font-weight: normal; fill: black;"><tspan x="5" y="15.799999999999999">- Amount</tspan><tspan x="5" y="30.199999999999996">- Currency</tspan><tspan x="5" y="44.599999999999994">- Cash paid and denomination</tspan></text></g><rect class="djs-hit djs-hit-all" x="0" y="0" width="185" height="50" style="fill: none; stroke-opacity: 0; stroke: white; stroke-width: 15px;"></rect><rect x="-6" y="-6" width="197" height="62" class="djs-outline" style="fill: none;"></rect></g></g><g class="djs-group"><g class="djs-element djs-shape" data-element-id="Flow_14t7ppn_label" style="display: block;" transform="matrix(1 0 0 1 391 1039)"><g class="djs-visual"><text lineHeight="1.2" class="djs-label" style="font-family: Arial, sans-serif; font-size: 11px; font-weight: normal; fill: black;"><tspan x="0" y="9.899999999999999">Limit exceeded</tspan></text></g><rect class="djs-hit djs-hit-all" x="0" y="0" width="74" height="14" style="fill: none; stroke-opacity: 0; stroke: white; stroke-width: 15px;"></rect><rect x="-6" y="-6" width="86" height="26" class="djs-outline" style="fill: none;"></rect></g></g><g class="djs-group"><g class="djs-element djs-shape" data-element-id="Flow_172nr2k_label" style="display: block;" transform="matrix(1 0 0 1 267 1113)"><g class="djs-visual"><text lineHeight="1.2" class="djs-label" style="font-family: Arial, sans-serif; font-size: 11px; font-weight: normal; fill: black;"><tspan x="0" y="9.899999999999999">Within Limit</tspan></text></g><rect class="djs-hit djs-hit-all" x="0" y="0" width="57" height="14" style="fill: none; stroke-opacity: 0; stroke: white; stroke-width: 15px;"></rect><rect x="-6" y="-6" width="69" height="26" class="djs-outline" style="fill: none;"></rect></g></g><g class="djs-group"><g class="djs-element djs-shape" data-element-id="Flow_0qyrpe1_label" style="display: block;" transform="matrix(1 0 0 1 625 1410)"><g class="djs-visual"><text lineHeight="1.2" class="djs-label" style="font-family: Arial, sans-serif; font-size: 11px; font-weight: normal; fill: black;"><tspan x="0" y="9.899999999999999">Override to be </tspan><tspan x="12.5234375" y="23.099999999999998">accepted</tspan></text></g><rect class="djs-hit djs-hit-all" x="0" y="0" width="70" height="27" style="fill: none; stroke-opacity: 0; stroke: white; stroke-width: 15px;"></rect><rect x="-6" y="-6" width="82" height="39" class="djs-outline" style="fill: none;"></rect></g></g><g class="djs-group"><g class="djs-element djs-shape" data-element-id="Flow_1bo06og_label" style="display: block;" transform="matrix(1 0 0 1 748 1332)"><g class="djs-visual"><text lineHeight="1.2" class="djs-label" style="font-family: Arial, sans-serif; font-size: 11px; font-weight: normal; fill: black;"><tspan x="0" y="9.899999999999999">Override to be </tspan><tspan x="14.359375" y="23.099999999999998">declined</tspan></text></g><rect class="djs-hit djs-hit-all" x="0" y="0" width="70" height="27" style="fill: none; stroke-opacity: 0; stroke: white; stroke-width: 15px;"></rect><rect x="-6" y="-6" width="82" height="39" class="djs-outline" style="fill: none;"></rect></g></g><g class="djs-group"><g class="djs-element djs-shape" data-element-id="Flow_127jhl5_label" style="display: block;" transform="matrix(1 0 0 1 270 1853)"><g class="djs-visual"><text lineHeight="1.2" class="djs-label" style="font-family: Arial, sans-serif; font-size: 11px; font-weight: normal; fill: black;"><tspan x="1.3203125" y="9.899999999999999">Transaction </tspan><tspan x="0" y="23.099999999999998">prompted to </tspan><tspan x="4.225830078125" y="36.3">authoriser</tspan></text></g><rect class="djs-hit djs-hit-all" x="0" y="0" width="59" height="40" style="fill: none; stroke-opacity: 0; stroke: white; stroke-width: 15px;"></rect><rect x="-6" y="-6" width="71" height="52" class="djs-outline" style="fill: none;"></rect></g></g><g class="djs-group"><g class="djs-element djs-connection" data-element-id="DataOutputAssociation_0negt8f" style="display: block;"><g class="djs-visual"><polyline points="325,2130 457,2130 " style="fill: none; stroke: black; stroke-width: 2px; stroke-dasharray: 0.5, 5; stroke-linecap: round; stroke-linejoin: round; marker-end: url(&quot;#association-end-white-black-dxgn80108q7xe90btqj26kh6l&quot;);"></polyline></g><polyline points="325,2130 457,2130 " class="djs-hit djs-hit-stroke" style="fill: none; stroke-opacity: 0; stroke: white; stroke-width: 15px;"></polyline><rect x="319" y="2124" width="144" height="12" class="djs-outline" style="fill: none;"></rect></g></g><g class="djs-group"><g class="djs-element djs-connection" data-element-id="DataOutputAssociation_02zim24" style="display: block;"><g class="djs-visual"><polyline points="325,2310 457,2310 " style="fill: none; stroke: black; stroke-width: 2px; stroke-dasharray: 0.5, 5; stroke-linecap: round; stroke-linejoin: round; marker-end: url(&quot;#association-end-white-black-dxgn80108q7xe90btqj26kh6l&quot;);"></polyline></g><polyline points="325,2310 457,2310 " class="djs-hit djs-hit-stroke" style="fill: none; stroke-opacity: 0; stroke: white; stroke-width: 15px;"></polyline><rect x="319" y="2304" width="144" height="12" class="djs-outline" style="fill: none;"></rect></g></g><g class="djs-group"><g class="djs-element djs-connection" data-element-id="Association_13hayiy" style="display: block;"><g class="djs-visual"><polyline points="321,333 370,295 " style="fill: none; stroke: black; stroke-width: 2px; stroke-dasharray: 0.5, 5; stroke-linecap: round; stroke-linejoin: round;"></polyline></g><polyline points="321,333 370,295 " class="djs-hit djs-hit-stroke" style="fill: none; stroke-opacity: 0; stroke: white; stroke-width: 15px;"></polyline><rect x="315" y="289" width="61" height="50" class="djs-outline" style="fill: none;"></rect></g></g><g class="djs-group"><g class="djs-element djs-connection" data-element-id="Association_1xa0pix" style="display: block;"><g class="djs-visual"><polyline points="323,504 370,470 " style="fill: none; stroke: black; stroke-width: 2px; stroke-dasharray: 0.5, 5; stroke-linecap: round; stroke-linejoin: round;"></polyline></g><polyline points="323,504 370,470 " class="djs-hit djs-hit-stroke" style="fill: none; stroke-opacity: 0; stroke: white; stroke-width: 15px;"></polyline><rect x="317" y="464" width="59" height="46" class="djs-outline" style="fill: none;"></rect></g></g><g class="djs-group"><g class="djs-element djs-connection" data-element-id="Association_1mgr0jc" style="display: block;"><g class="djs-visual"><polyline points="322,680 370,645 " style="fill: none; stroke: black; stroke-width: 2px; stroke-dasharray: 0.5, 5; stroke-linecap: round; stroke-linejoin: round;"></polyline></g><polyline points="322,680 370,645 " class="djs-hit djs-hit-stroke" style="fill: none; stroke-opacity: 0; stroke: white; stroke-width: 15px;"></polyline><rect x="316" y="639" width="60" height="47" class="djs-outline" style="fill: none;"></rect></g></g></g></g><defs><marker id="sequenceflow-end-white-black-dxgn80108q7xe90btqj26kh6l" viewBox="0 0 20 20" refX="11" refY="10" markerWidth="10" markerHeight="10" orient="auto"><path d="M 1 5 L 11 10 L 1 15 Z" style="fill: black; stroke-width: 1px; stroke-linecap: round; stroke-dasharray: 10000, 1; stroke: black;"></path></marker><marker id="association-end-white-black-dxgn80108q7xe90btqj26kh6l" viewBox="0 0 20 20" refX="12" refY="10" markerWidth="10" markerHeight="10" orient="auto"><path d="M 1 5 L 11 10 L 1 15" style="fill: none; stroke-width: 1.5px; stroke-linecap: round; stroke-dasharray: 10000, 1; stroke: black;"></path></marker></defs></svg>