<svg width="100%" height="100%" viewBox="-50, 110, 1835, 2461"><g><g class="djs-visual" id="Flow_0t46rdf" transform="translate(0 0)"><path d="m  260,2360L260,2432 " style="fill: none; stroke-width: 2px; stroke: black; stroke-linejoin: round; marker-end: url(&quot;#sequenceflow-end-white-black-dxgn80108q7xe90btqj26kh6l&quot;);"></path></g><g class="djs-visual" id="Flow_093l99y" transform="translate(0 0)"><path d="m  260,2180L260,2260 " style="fill: none; stroke-width: 2px; stroke: black; stroke-linejoin: round; marker-end: url(&quot;#sequenceflow-end-white-black-dxgn80108q7xe90btqj26kh6l&quot;);"></path></g><g class="djs-visual" id="Flow_1fnl60a" transform="translate(0 0)"><path d="m  260,2010L260,2080 " style="fill: none; stroke-width: 2px; stroke: black; stroke-linejoin: round; marker-end: url(&quot;#sequenceflow-end-white-black-dxgn80108q7xe90btqj26kh6l&quot;);"></path></g><g class="djs-visual" id="Flow_127jhl5" transform="translate(0 0)"><path d="m  260,1835L260,1910 " style="fill: none; stroke-width: 2px; stroke: black; stroke-linejoin: round; marker-end: url(&quot;#sequenceflow-end-white-black-dxgn80108q7xe90btqj26kh6l&quot;);"></path></g><g class="djs-visual" id="Flow_17bqrdn" transform="translate(0 0)"><path d="m  610,1740L610,1810 L285,1810 " style="fill: none; stroke-width: 2px; stroke: black; stroke-linejoin: round; marker-end: url(&quot;#sequenceflow-end-white-black-dxgn80108q7xe90btqj26kh6l&quot;);"></path></g><g class="djs-visual" id="Flow_1mhyd20" transform="translate(0 0)"><path d="m  260,1260L260,1785 " style="fill: none; stroke-width: 2px; stroke: black; stroke-linejoin: round; marker-end: url(&quot;#sequenceflow-end-white-black-dxgn80108q7xe90btqj26kh6l&quot;);"></path></g><g class="djs-visual" id="Flow_13za80y" transform="translate(0 0)"><path d="m  940,1740L940,1822 " style="fill: none; stroke-width: 2px; stroke: black; stroke-linejoin: round; marker-end: url(&quot;#sequenceflow-end-white-black-dxgn80108q7xe90btqj26kh6l&quot;);"></path></g><g class="djs-visual" id="Flow_12rwjk6" transform="translate(0 0)"><path d="m  940,1560L940,1640 " style="fill: none; stroke-width: 2px; stroke: black; stroke-linejoin: round; marker-end: url(&quot;#sequenceflow-end-white-black-dxgn80108q7xe90btqj26kh6l&quot;);"></path></g><g class="djs-visual" id="Flow_1bo06og" transform="translate(0 0)"><path d="m  635,1366L940,1366 L940,1460 " style="fill: none; stroke-width: 2px; stroke: black; stroke-linejoin: round; marker-end: url(&quot;#sequenceflow-end-white-black-dxgn80108q7xe90btqj26kh6l&quot;);"></path></g><g class="djs-visual" id="Flow_0c3d9yr" transform="translate(0 0)"><path d="m  610,1560L610,1640 " style="fill: none; stroke-width: 2px; stroke: black; stroke-linejoin: round; marker-end: url(&quot;#sequenceflow-end-white-black-dxgn80108q7xe90btqj26kh6l&quot;);"></path></g><g class="djs-visual" id="Flow_0qyrpe1" transform="translate(0 0)"><path d="m  610,1391L610,1460 " style="fill: none; stroke-width: 2px; stroke: black; stroke-linejoin: round; marker-end: url(&quot;#sequenceflow-end-white-black-dxgn80108q7xe90btqj26kh6l&quot;);"></path></g><g class="djs-visual" id="Flow_0waj8nd" transform="translate(0 0)"><path d="m  610,1260L610,1341 " style="fill: none; stroke-width: 2px; stroke: black; stroke-linejoin: round; marker-end: url(&quot;#sequenceflow-end-white-black-dxgn80108q7xe90btqj26kh6l&quot;);"></path></g><g class="djs-visual" id="Flow_172nr2k" transform="translate(0 0)"><path d="m  260,1085L260,1160 " style="fill: none; stroke-width: 2px; stroke: black; stroke-linejoin: round; marker-end: url(&quot;#sequenceflow-end-white-black-dxgn80108q7xe90btqj26kh6l&quot;);"></path></g><g class="djs-visual" id="Flow_14t7ppn" transform="translate(0 0)"><path d="m  285,1060L610,1060 L610,1160 " style="fill: none; stroke-width: 2px; stroke: black; stroke-linejoin: round; marker-end: url(&quot;#sequenceflow-end-white-black-dxgn80108q7xe90btqj26kh6l&quot;);"></path></g><g class="djs-visual" id="Flow_1eip672" transform="translate(0 0)"><path d="m  260,960L260,1035 " style="fill: none; stroke-width: 2px; stroke: black; stroke-linejoin: round; marker-end: url(&quot;#sequenceflow-end-white-black-dxgn80108q7xe90btqj26kh6l&quot;);"></path></g><g class="djs-visual" id="Flow_048lsx2" transform="translate(0 0)"><path d="m  260,776L260,860 " style="fill: none; stroke-width: 2px; stroke: black; stroke-linejoin: round; marker-end: url(&quot;#sequenceflow-end-white-black-dxgn80108q7xe90btqj26kh6l&quot;);"></path></g><g class="djs-visual" id="Flow_0irzvr8" transform="translate(0 0)"><path d="m  260,600L260,676 " style="fill: none; stroke-width: 2px; stroke: black; stroke-linejoin: round; marker-end: url(&quot;#sequenceflow-end-white-black-dxgn80108q7xe90btqj26kh6l&quot;);"></path></g><g class="djs-visual" id="Flow_0yrne6q" transform="translate(0 0)"><path d="m  260,430L260,500 " style="fill: none; stroke-width: 2px; stroke: black; stroke-linejoin: round; marker-end: url(&quot;#sequenceflow-end-white-black-dxgn80108q7xe90btqj26kh6l&quot;);"></path></g><g class="djs-visual" id="Flow_0n90a71" transform="translate(0 0)"><path d="m  260,248L260,330 " style="fill: none; stroke-width: 2px; stroke: black; stroke-linejoin: round; marker-end: url(&quot;#sequenceflow-end-white-black-dxgn80108q7xe90btqj26kh6l&quot;);"></path></g><g class="djs-visual" id="StartEvent_1bm324f" transform="translate(242 212)"><circle cx="18" cy="18" r="18" style="stroke: black; stroke-width: 2px; fill: white; fill-opacity: 0.95;"></circle></g><g class="djs-visual" id="StartEvent_1bm324f_label" transform="translate(212 166)"><text lineHeight="1.2" class="djs-label" style="font-family: Arial, sans-serif; font-size: 11px; font-weight: normal; fill: black;"><tspan x="0" y="9.899999999999999">FCY purchase to be </tspan><tspan x="26.4921875" y="23.099999999999998">executed</tspan></text></g><g class="djs-visual" id="Activity_1p9ffn5" transform="translate(195 330)"><rect x="0" y="0" width="130" height="100" rx="10" ry="10" style="stroke: black; stroke-width: 2px; fill: white; fill-opacity: 0.95;"></rect><text lineHeight="1.2" class="djs-label" style="font-family: Arial, sans-serif; font-size: 12px; font-weight: normal; fill: black;"><tspan x="15.591796875" y="46.4">Capture FCY cash </tspan><tspan x="47.65625" y="60.8">details</tspan></text></g><g class="djs-visual" id="Activity_0c2btbf" transform="translate(195 500)"><rect x="0" y="0" width="130" height="100" rx="10" ry="10" style="stroke: black; stroke-width: 2px; fill: white; fill-opacity: 0.95;"></rect><text lineHeight="1.2" class="djs-label" style="font-family: Arial, sans-serif; font-size: 12px; font-weight: normal; fill: black;"><tspan x="7.6337890625" y="53.599999999999994">Assign exchange rate</tspan></text></g><g class="djs-visual" id="Activity_06plw61" transform="translate(195 676)"><rect x="0" y="0" width="130" height="100" rx="10" ry="10" style="stroke: black; stroke-width: 2px; fill: white; fill-opacity: 0.95;"></rect><text lineHeight="1.2" class="djs-label" style="font-family: Arial, sans-serif; font-size: 12px; font-weight: normal; fill: black;"><tspan x="37.818359375" y="39.2">Input LCY </tspan><tspan x="5.953125" y="53.6">denomination and pay</tspan><tspan x="52.1630859375" y="68">cash</tspan></text></g><g class="djs-visual" id="Activity_0iq9jky" transform="translate(195 860)"><rect x="0" y="0" width="130" height="100" rx="10" ry="10" style="stroke: black; stroke-width: 2px; fill: white; fill-opacity: 0.95;"></rect><text lineHeight="1.2" class="djs-label" style="font-family: Arial, sans-serif; font-size: 12px; font-weight: normal; fill: black;"><tspan x="10.984375" y="53.599999999999994">Verify teller/ till limits</tspan></text></g><g class="djs-visual" id="Gateway_0y4u560" transform="translate(235 1035)"><polygon points="25,0 50,25 25,50 0,25" style="stroke: black; stroke-width: 2px; fill: white; fill-opacity: 0.95;"></polygon><path d="m 16,15 7.42857142857143,9.714285714285715 -7.42857142857143,9.714285714285715 3.428571428571429,0 5.714285714285715,-7.464228571428572 5.714285714285715,7.464228571428572 3.428571428571429,0 -7.42857142857143,-9.714285714285715 7.42857142857143,-9.714285714285715 -3.428571428571429,0 -5.714285714285715,7.464228571428572 -5.714285714285715,-7.464228571428572 -3.428571428571429,0 z" style="fill: black; stroke-width: 1px; stroke: black;"></path></g><g class="djs-visual" id="Activity_1bwu1p1" transform="translate(545 1160)"><rect x="0" y="0" width="130" height="100" rx="10" ry="10" style="stroke: black; stroke-width: 2px; fill: white; fill-opacity: 0.95;"></rect><text lineHeight="1.2" class="djs-label" style="font-family: Arial, sans-serif; font-size: 12px; font-weight: normal; fill: black;"><tspan x="16.4765625" y="53.599999999999994">Generate override</tspan></text></g><g class="djs-visual" id="Activity_0ulwy5e" transform="translate(195 1160)"><rect x="0" y="0" width="130" height="100" rx="10" ry="10" style="stroke: black; stroke-width: 2px; fill: white; fill-opacity: 0.95;"></rect><text lineHeight="1.2" class="djs-label" style="font-family: Arial, sans-serif; font-size: 12px; font-weight: normal; fill: black;"><tspan x="12.4775390625" y="46.4">Move transaction to </tspan><tspan x="12.12890625" y="60.8">authorisation queue</tspan></text></g><g class="djs-visual" id="Gateway_169937n" transform="translate(585 1341)"><polygon points="25,0 50,25 25,50 0,25" style="stroke: black; stroke-width: 2px; fill: white; fill-opacity: 0.95;"></polygon><path d="m 16,15 7.42857142857143,9.714285714285715 -7.42857142857143,9.714285714285715 3.428571428571429,0 5.714285714285715,-7.464228571428572 5.714285714285715,7.464228571428572 3.428571428571429,0 -7.42857142857143,-9.714285714285715 7.42857142857143,-9.714285714285715 -3.428571428571429,0 -5.714285714285715,7.464228571428572 -5.714285714285715,-7.464228571428572 -3.428571428571429,0 z" style="fill: black; stroke-width: 1px; stroke: black;"></path></g><g class="djs-visual" id="Activity_1gsp9fg" transform="translate(545 1460)"><rect x="0" y="0" width="130" height="100" rx="10" ry="10" style="stroke: black; stroke-width: 2px; fill: white; fill-opacity: 0.95;"></rect><text lineHeight="1.2" class="djs-label" style="font-family: Arial, sans-serif; font-size: 12px; font-weight: normal; fill: black;"><tspan x="23.650390625" y="53.599999999999994">Accept override</tspan></text></g><g class="djs-visual" id="Activity_1bcfeah" transform="translate(545 1640)"><rect x="0" y="0" width="130" height="100" rx="10" ry="10" style="stroke: black; stroke-width: 2px; fill: white; fill-opacity: 0.95;"></rect><text lineHeight="1.2" class="djs-label" style="font-family: Arial, sans-serif; font-size: 12px; font-weight: normal; fill: black;"><tspan x="12.4775390625" y="46.4">Move transaction to </tspan><tspan x="12.12890625" y="60.8">authorisation queue</tspan></text></g><g class="djs-visual" id="Activity_17wmf93" transform="translate(875 1460)"><rect x="0" y="0" width="130" height="100" rx="10" ry="10" style="stroke: black; stroke-width: 2px; fill: white; fill-opacity: 0.95;"></rect><text lineHeight="1.2" class="djs-label" style="font-family: Arial, sans-serif; font-size: 12px; font-weight: normal; fill: black;"><tspan x="23.15625" y="53.599999999999994">Reject Override</tspan></text></g><g class="djs-visual" id="Activity_1bibahv" transform="translate(875 1640)"><rect x="0" y="0" width="130" height="100" rx="10" ry="10" style="stroke: black; stroke-width: 2px; fill: white; fill-opacity: 0.95;"></rect><text lineHeight="1.2" class="djs-label" style="font-family: Arial, sans-serif; font-size: 12px; font-weight: normal; fill: black;"><tspan x="13.4765625" y="53.599999999999994">Cancel Transaction</tspan></text></g><g class="djs-visual" id="Event_1gsymho" transform="translate(922 1822)"><circle cx="18" cy="18" r="18" style="stroke: black; stroke-width: 4px; fill: white; fill-opacity: 0.95;"></circle></g><g class="djs-visual" id="Event_1gsymho_label" transform="translate(892 1865)"><text lineHeight="1.2" class="djs-label" style="font-family: Arial, sans-serif; font-size: 11px; font-weight: normal; fill: black;"><tspan x="0" y="9.899999999999999">Transaction aborted</tspan></text></g><g class="djs-visual" id="Gateway_1kdc01a" transform="translate(235 1785)"><polygon points="25,0 50,25 25,50 0,25" style="stroke: black; stroke-width: 2px; fill: white; fill-opacity: 0.95;"></polygon><path d="m 16,15 7.42857142857143,9.714285714285715 -7.42857142857143,9.714285714285715 3.428571428571429,0 5.714285714285715,-7.464228571428572 5.714285714285715,7.464228571428572 3.428571428571429,0 -7.42857142857143,-9.714285714285715 7.42857142857143,-9.714285714285715 -3.428571428571429,0 -5.714285714285715,7.464228571428572 -5.714285714285715,-7.464228571428572 -3.428571428571429,0 z" style="fill: black; stroke-width: 1px; stroke: black;"></path></g><g class="djs-visual" id="Activity_0gb62px" transform="translate(195 1910)"><rect x="0" y="0" width="130" height="100" rx="10" ry="10" style="stroke: black; stroke-width: 2px; fill: white; fill-opacity: 0.95;"></rect><text lineHeight="1.2" class="djs-label" style="font-family: Arial, sans-serif; font-size: 12px; font-weight: normal; fill: black;"><tspan x="11.8037109375" y="46.4">Verify and authorise </tspan><tspan x="14.1416015625" y="60.8">currency exchange</tspan></text></g><g class="djs-visual" id="Activity_0o0if5w" transform="translate(195 2080)"><rect x="0" y="0" width="130" height="100" rx="10" ry="10" style="stroke: black; stroke-width: 2px; fill: white; fill-opacity: 0.95;"></rect><text lineHeight="1.2" class="djs-label" style="font-family: Arial, sans-serif; font-size: 12px; font-weight: normal; fill: black;"><tspan x="8.8037109375" y="46.4">Generate transaction </tspan><tspan x="43.984375" y="60.8">receipts</tspan></text></g><g class="djs-visual" id="DataObjectReference_1ij3na2" transform="translate(457 2105)"><path d="m 0,0 28.23529411764706,0 7.058823529411765,8.196721311475411 0,40.98360655737705 -35.294117647058826,0 0,-49.18032786885246 28.23529411764706,0 0,8.196721311475411 7.058823529411765,0" style="fill: white; stroke-width: 2px; stroke: black; fill-opacity: 0.95;"></path></g><g class="djs-visual" id="DataObjectReference_1ij3na2_label" transform="translate(427 2162)"><text lineHeight="1.2" class="djs-label" style="font-family: Arial, sans-serif; font-size: 11px; font-weight: normal; fill: black;"><tspan x="0" y="9.899999999999999">Transaction Receipt</tspan></text></g><g class="djs-visual" id="Activity_0zp9tlp" transform="translate(195 2260)"><rect x="0" y="0" width="130" height="100" rx="10" ry="10" style="stroke: black; stroke-width: 2px; fill: white; fill-opacity: 0.95;"></rect><text lineHeight="1.2" class="djs-label" style="font-family: Arial, sans-serif; font-size: 12px; font-weight: normal; fill: black;"><tspan x="13.4765625" y="46.4">Prepare &amp; disburse </tspan><tspan x="52.1630859375" y="60.8">cash</tspan></text></g><g class="djs-visual" id="DataObjectReference_0ql44bx" transform="translate(457 2285)"><path d="m 0,0 28.23529411764706,0 7.058823529411765,8.196721311475411 0,40.98360655737705 -35.294117647058826,0 0,-49.18032786885246 28.23529411764706,0 0,8.196721311475411 7.058823529411765,0" style="fill: white; stroke-width: 2px; stroke: black; fill-opacity: 0.95;"></path></g><g class="djs-visual" id="DataObjectReference_0ql44bx_label" transform="translate(427 2342)"><text lineHeight="1.2" class="djs-label" style="font-family: Arial, sans-serif; font-size: 11px; font-weight: normal; fill: black;"><tspan x="0" y="9.899999999999999">Transaction Receipt</tspan></text></g><g class="djs-visual" id="Event_0omk6f2" transform="translate(242 2432)"><circle cx="18" cy="18" r="18" style="stroke: black; stroke-width: 4px; fill: white; fill-opacity: 0.95;"></circle></g><g class="djs-visual" id="Event_0omk6f2_label" transform="translate(218 2475)"><text lineHeight="1.2" class="djs-label" style="font-family: Arial, sans-serif; font-size: 11px; font-weight: normal; fill: black;"><tspan x="0" y="9.899999999999999">Buy FCY against </tspan><tspan x="17.891357421875" y="23.099999999999998">LCY cash </tspan><tspan x="16.258544921875" y="36.3">completed</tspan></text></g><g class="djs-visual" id="TextAnnotation_0tp4s7r" transform="translate(370 270)"><rect x="0" y="0" width="210" height="50" rx="0" ry="0" style="stroke: none; stroke-width: 2px; fill: none;"></rect><path d="m 0, 0 m 10,0 l -10,0 l 0,50 l 10,0" style="fill: none; stroke-width: 2px; stroke: black;"></path><text lineHeight="1.2" class="djs-label" style="font-family: Arial, sans-serif; font-size: 12px; font-weight: normal; fill: black;"><tspan x="5" y="15.799999999999999">- Amount</tspan><tspan x="5" y="30.199999999999996">- Currency</tspan><tspan x="5" y="44.599999999999994">- Cash received and denomination</tspan></text></g><g class="djs-visual" id="TextAnnotation_0tvmgp3" transform="translate(370 450)"><rect x="0" y="0" width="130" height="40" rx="0" ry="0" style="stroke: none; stroke-width: 2px; fill: none;"></rect><path d="m 0, 0 m 10,0 l -10,0 l 0,40 l 10,0" style="fill: none; stroke-width: 2px; stroke: black;"></path><text lineHeight="1.2" class="djs-label" style="font-family: Arial, sans-serif; font-size: 12px; font-weight: normal; fill: black;"><tspan x="5" y="15.799999999999999">Convert amount into </tspan><tspan x="5" y="30.199999999999996">local currency</tspan></text></g><g class="djs-visual" id="TextAnnotation_0wmid4v" transform="translate(370 620)"><rect x="0" y="0" width="185" height="50" rx="0" ry="0" style="stroke: none; stroke-width: 2px; fill: none;"></rect><path d="m 0, 0 m 10,0 l -10,0 l 0,50 l 10,0" style="fill: none; stroke-width: 2px; stroke: black;"></path><text lineHeight="1.2" class="djs-label" style="font-family: Arial, sans-serif; font-size: 12px; font-weight: normal; fill: black;"><tspan x="5" y="15.799999999999999">- Amount</tspan><tspan x="5" y="30.199999999999996">- Currency</tspan><tspan x="5" y="44.599999999999994">- Cash paid and denomination</tspan></text></g><g class="djs-visual" id="Flow_14t7ppn_label" transform="translate(391 1039)"><text lineHeight="1.2" class="djs-label" style="font-family: Arial, sans-serif; font-size: 11px; font-weight: normal; fill: black;"><tspan x="0" y="9.899999999999999">Limit exceeded</tspan></text></g><g class="djs-visual" id="Flow_172nr2k_label" transform="translate(267 1113)"><text lineHeight="1.2" class="djs-label" style="font-family: Arial, sans-serif; font-size: 11px; font-weight: normal; fill: black;"><tspan x="0" y="9.899999999999999">Within Limit</tspan></text></g><g class="djs-visual" id="Flow_0qyrpe1_label" transform="translate(625 1410)"><text lineHeight="1.2" class="djs-label" style="font-family: Arial, sans-serif; font-size: 11px; font-weight: normal; fill: black;"><tspan x="0" y="9.899999999999999">Override to be </tspan><tspan x="12.5234375" y="23.099999999999998">accepted</tspan></text></g><g class="djs-visual" id="Flow_1bo06og_label" transform="translate(748 1332)"><text lineHeight="1.2" class="djs-label" style="font-family: Arial, sans-serif; font-size: 11px; font-weight: normal; fill: black;"><tspan x="0" y="9.899999999999999">Override to be </tspan><tspan x="14.359375" y="23.099999999999998">declined</tspan></text></g><g class="djs-visual" id="Flow_127jhl5_label" transform="translate(270 1853)"><text lineHeight="1.2" class="djs-label" style="font-family: Arial, sans-serif; font-size: 11px; font-weight: normal; fill: black;"><tspan x="1.3203125" y="9.899999999999999">Transaction </tspan><tspan x="0" y="23.099999999999998">prompted to </tspan><tspan x="4.225830078125" y="36.3">authoriser</tspan></text></g><g class="djs-visual" id="DataOutputAssociation_0negt8f" transform="translate(0 0)"><polyline points="325,2130 457,2130 " style="fill: none; stroke: black; stroke-width: 2px; stroke-dasharray: 0.5, 5; stroke-linecap: round; stroke-linejoin: round; marker-end: url(&quot;#association-end-white-black-dxgn80108q7xe90btqj26kh6l&quot;);"></polyline></g><g class="djs-visual" id="DataOutputAssociation_02zim24" transform="translate(0 0)"><polyline points="325,2310 457,2310 " style="fill: none; stroke: black; stroke-width: 2px; stroke-dasharray: 0.5, 5; stroke-linecap: round; stroke-linejoin: round; marker-end: url(&quot;#association-end-white-black-dxgn80108q7xe90btqj26kh6l&quot;);"></polyline></g><g class="djs-visual" id="Association_13hayiy" transform="translate(0 0)"><polyline points="321,333 370,295 " style="fill: none; stroke: black; stroke-width: 2px; stroke-dasharray: 0.5, 5; stroke-linecap: round; stroke-linejoin: round;"></polyline></g><g class="djs-visual" id="Association_1xa0pix" transform="translate(0 0)"><polyline points="323,504 370,470 " style="fill: none; stroke: black; stroke-width: 2px; stroke-dasharray: 0.5, 5; stroke-linecap: round; stroke-linejoin: round;"></polyline></g><g class="djs-visual" id="Association_1mgr0jc" transform="translate(0 0)"><polyline points="322,680 370,645 " style="fill: none; stroke: black; stroke-width: 2px; stroke-dasharray: 0.5, 5; stroke-linecap: round; stroke-linejoin: round;"></polyline></g></g><g><rect class="viewport" x="-2499.192857142857" y="159.7392857142857" width="6196.428571428571" height="2357.142857142857"></rect></g></svg>