<svg width="100%" height="100%" viewBox="-50, 64, 1835, 2801"><g><g class="djs-visual" id="Flow_1nhwffn" transform="translate(0 0)"><path d="m  260,2690L260,2752 " style="fill: none; stroke-width: 2px; stroke: black; stroke-linejoin: round; marker-end: url(&quot;#sequenceflow-end-white-black-2c2etjosjoh7rcsi23t0q7ihj&quot;);"></path></g><g class="djs-visual" id="Flow_17ekior" transform="translate(0 0)"><path d="m  260,2520L260,2590 " style="fill: none; stroke-width: 2px; stroke: black; stroke-linejoin: round; marker-end: url(&quot;#sequenceflow-end-white-black-2c2etjosjoh7rcsi23t0q7ihj&quot;);"></path></g><g class="djs-visual" id="Flow_03smh67" transform="translate(0 0)"><path d="m  260,2350L260,2420 " style="fill: none; stroke-width: 2px; stroke: black; stroke-linejoin: round; marker-end: url(&quot;#sequenceflow-end-white-black-2c2etjosjoh7rcsi23t0q7ihj&quot;);"></path></g><g class="djs-visual" id="Flow_0jjn92j" transform="translate(0 0)"><path d="m  260,2180L260,2250 " style="fill: none; stroke-width: 2px; stroke: black; stroke-linejoin: round; marker-end: url(&quot;#sequenceflow-end-white-black-2c2etjosjoh7rcsi23t0q7ihj&quot;);"></path></g><g class="djs-visual" id="Flow_0mx32xd" transform="translate(0 0)"><path d="m  260,2010L260,2080 " style="fill: none; stroke-width: 2px; stroke: black; stroke-linejoin: round; marker-end: url(&quot;#sequenceflow-end-white-black-2c2etjosjoh7rcsi23t0q7ihj&quot;);"></path></g><g class="djs-visual" id="Flow_0kntuge" transform="translate(0 0)"><path d="m  260,1840L260,1910 " style="fill: none; stroke-width: 2px; stroke: black; stroke-linejoin: round; marker-end: url(&quot;#sequenceflow-end-white-black-2c2etjosjoh7rcsi23t0q7ihj&quot;);"></path></g><g class="djs-visual" id="Flow_1owo4im" transform="translate(0 0)"><path d="m  260,1660L260,1740 " style="fill: none; stroke-width: 2px; stroke: black; stroke-linejoin: round; marker-end: url(&quot;#sequenceflow-end-white-black-2c2etjosjoh7rcsi23t0q7ihj&quot;);"></path></g><g class="djs-visual" id="Flow_13tiqky" transform="translate(0 0)"><path d="m  260,1490L260,1560 " style="fill: none; stroke-width: 2px; stroke: black; stroke-linejoin: round; marker-end: url(&quot;#sequenceflow-end-white-black-2c2etjosjoh7rcsi23t0q7ihj&quot;);"></path></g><g class="djs-visual" id="Flow_1n4ilfj" transform="translate(0 0)"><path d="m  260,1325L260,1390 " style="fill: none; stroke-width: 2px; stroke: black; stroke-linejoin: round; marker-end: url(&quot;#sequenceflow-end-white-black-2c2etjosjoh7rcsi23t0q7ihj&quot;);"></path></g><g class="djs-visual" id="Flow_0vyd9ow" transform="translate(0 0)"><path d="m  285,660L440,660 L440,1300 L285,1300 " style="fill: none; stroke-width: 2px; stroke: black; stroke-linejoin: round; marker-end: url(&quot;#sequenceflow-end-white-black-2c2etjosjoh7rcsi23t0q7ihj&quot;);"></path></g><g class="djs-visual" id="Flow_12x855q" transform="translate(0 0)"><path d="m  260,1190L260,1275 " style="fill: none; stroke-width: 2px; stroke: black; stroke-linejoin: round; marker-end: url(&quot;#sequenceflow-end-white-black-2c2etjosjoh7rcsi23t0q7ihj&quot;);"></path></g><g class="djs-visual" id="Flow_03nj9ne" transform="translate(0 0)"><path d="m  260,1020L260,1090 " style="fill: none; stroke-width: 2px; stroke: black; stroke-linejoin: round; marker-end: url(&quot;#sequenceflow-end-white-black-2c2etjosjoh7rcsi23t0q7ihj&quot;);"></path></g><g class="djs-visual" id="Flow_0l9oe21" transform="translate(0 0)"><path d="m  260,850L260,920 " style="fill: none; stroke-width: 2px; stroke: black; stroke-linejoin: round; marker-end: url(&quot;#sequenceflow-end-white-black-2c2etjosjoh7rcsi23t0q7ihj&quot;);"></path></g><g class="djs-visual" id="Flow_1gqr3yd" transform="translate(0 0)"><path d="m  260,685L260,750 " style="fill: none; stroke-width: 2px; stroke: black; stroke-linejoin: round; marker-end: url(&quot;#sequenceflow-end-white-black-2c2etjosjoh7rcsi23t0q7ihj&quot;);"></path></g><g class="djs-visual" id="Flow_1fstt58" transform="translate(0 0)"><path d="m  260,560L260,635 " style="fill: none; stroke-width: 2px; stroke: black; stroke-linejoin: round; marker-end: url(&quot;#sequenceflow-end-white-black-2c2etjosjoh7rcsi23t0q7ihj&quot;);"></path></g><g class="djs-visual" id="Flow_09amvfm" transform="translate(0 0)"><path d="m  260,390L260,460 " style="fill: none; stroke-width: 2px; stroke: black; stroke-linejoin: round; marker-end: url(&quot;#sequenceflow-end-white-black-2c2etjosjoh7rcsi23t0q7ihj&quot;);"></path></g><g class="djs-visual" id="Flow_04oc4tr" transform="translate(0 0)"><path d="m  260,220L260,290 " style="fill: none; stroke-width: 2px; stroke: black; stroke-linejoin: round; marker-end: url(&quot;#sequenceflow-end-white-black-2c2etjosjoh7rcsi23t0q7ihj&quot;);"></path></g><g class="djs-visual" id="StartEvent_1bm324f" transform="translate(242 184)"><circle cx="18" cy="18" r="18" style="stroke: black; stroke-width: 2px; fill: white; fill-opacity: 0.95;"></circle></g><g class="djs-visual" id="StartEvent_1bm324f_label" transform="translate(224 120)"><text lineHeight="1.2" class="djs-label" style="font-family: Arial, sans-serif; font-size: 11px; font-weight: normal; fill: black;"><tspan x="0" y="9.899999999999999">Past due to be </tspan><tspan x="11.76171875" y="23.099999999999998">written off</tspan></text></g><g class="djs-visual" id="Activity_035fi2u" transform="translate(195 290)"><rect x="0" y="0" width="130" height="100" rx="10" ry="10" style="stroke: black; stroke-width: 2px; fill: white; fill-opacity: 0.95;"></rect><text lineHeight="1.2" class="djs-label" style="font-family: Arial, sans-serif; font-size: 12px; font-weight: normal; fill: black;"><tspan x="10.8017578125" y="46.4">Enquire for past due </tspan><tspan x="48.9921875" y="60.8">status</tspan></text></g><g class="djs-visual" id="Activity_0pekmq0" transform="translate(195 460)"><rect x="0" y="0" width="130" height="100" rx="10" ry="10" style="stroke: black; stroke-width: 2px; fill: white; fill-opacity: 0.95;"></rect><text lineHeight="1.2" class="djs-label" style="font-family: Arial, sans-serif; font-size: 12px; font-weight: normal; fill: black;"><tspan x="12.814453125" y="46.4">Decide if simulation </tspan><tspan x="42.8232421875" y="60.8">required</tspan></text></g><g class="djs-visual" id="Gateway_050dwd9" transform="translate(235 635)"><polygon points="25,0 50,25 25,50 0,25" style="stroke: black; stroke-width: 2px; fill: white; fill-opacity: 0.95;"></polygon><path d="m 16,15 7.42857142857143,9.714285714285715 -7.42857142857143,9.714285714285715 3.428571428571429,0 5.714285714285715,-7.464228571428572 5.714285714285715,7.464228571428572 3.428571428571429,0 -7.42857142857143,-9.714285714285715 7.42857142857143,-9.714285714285715 -3.428571428571429,0 -5.714285714285715,7.464228571428572 -5.714285714285715,-7.464228571428572 -3.428571428571429,0 z" style="fill: black; stroke-width: 1px; stroke: black;"></path></g><g class="djs-visual" id="Activity_0uf91h3" transform="translate(195 750)"><rect x="0" y="0" width="130" height="100" rx="10" ry="10" style="stroke: black; stroke-width: 2px; fill: white; fill-opacity: 0.95;"></rect><text lineHeight="1.2" class="djs-label" style="font-family: Arial, sans-serif; font-size: 12px; font-weight: normal; fill: black;"><tspan x="15.47265625" y="46.4">Capture details for </tspan><tspan x="37.8251953125" y="60.8">simulation</tspan></text></g><g class="djs-visual" id="Activity_1ay06ge" transform="translate(195 920)"><rect x="0" y="0" width="130" height="100" rx="10" ry="10" style="stroke: black; stroke-width: 2px; fill: white; fill-opacity: 0.95;"></rect><text lineHeight="1.2" class="djs-label" style="font-family: Arial, sans-serif; font-size: 12px; font-weight: normal; fill: black;"><tspan x="14.8212890625" y="53.599999999999994">Perform simulation</tspan></text></g><g class="djs-visual" id="Activity_0y3gbmp" transform="translate(195 1090)"><rect x="0" y="0" width="130" height="100" rx="10" ry="10" style="stroke: black; stroke-width: 2px; fill: white; fill-opacity: 0.95;"></rect><text lineHeight="1.2" class="djs-label" style="font-family: Arial, sans-serif; font-size: 12px; font-weight: normal; fill: black;"><tspan x="15.4775390625" y="46.4">Enquire simulation </tspan><tspan x="49.9951171875" y="60.8">result</tspan></text></g><g class="djs-visual" id="Gateway_1kc908h" transform="translate(235 1275)"><polygon points="25,0 50,25 25,50 0,25" style="stroke: black; stroke-width: 2px; fill: white; fill-opacity: 0.95;"></polygon><path d="m 16,15 7.42857142857143,9.714285714285715 -7.42857142857143,9.714285714285715 3.428571428571429,0 5.714285714285715,-7.464228571428572 5.714285714285715,7.464228571428572 3.428571428571429,0 -7.42857142857143,-9.714285714285715 7.42857142857143,-9.714285714285715 -3.428571428571429,0 -5.714285714285715,7.464228571428572 -5.714285714285715,-7.464228571428572 -3.428571428571429,0 z" style="fill: black; stroke-width: 1px; stroke: black;"></path></g><g class="djs-visual" id="Activity_0rq1i45" transform="translate(195 1390)"><rect x="0" y="0" width="130" height="100" rx="10" ry="10" style="stroke: black; stroke-width: 2px; fill: white; fill-opacity: 0.95;"></rect><text lineHeight="1.2" class="djs-label" style="font-family: Arial, sans-serif; font-size: 12px; font-weight: normal; fill: black;"><tspan x="18.8046875" y="39.2">Prepare approval </tspan><tspan x="5.9765625" y="53.6">memorandum for past </tspan><tspan x="37.1484375" y="68">due action</tspan></text></g><g class="djs-visual" id="DataObjectReference_1qu0vgl" transform="translate(402 1415)"><path d="m 0,0 28.23529411764706,0 7.058823529411765,8.196721311475411 0,40.98360655737705 -35.294117647058826,0 0,-49.18032786885246 28.23529411764706,0 0,8.196721311475411 7.058823529411765,0" style="fill: white; stroke-width: 2px; stroke: black; fill-opacity: 0.95;"></path></g><g class="djs-visual" id="DataObjectReference_1qu0vgl_label" transform="translate(386 1472)"><text lineHeight="1.2" class="djs-label" style="font-family: Arial, sans-serif; font-size: 11px; font-weight: normal; fill: black;"><tspan x="12.4443359375" y="9.899999999999999">Approval </tspan><tspan x="0" y="23.099999999999998">Memorandum</tspan></text></g><g class="djs-visual" id="Activity_153lo2f" transform="translate(195 1560)"><rect x="0" y="0" width="130" height="100" rx="10" ry="10" style="stroke: black; stroke-width: 2px; fill: white; fill-opacity: 0.95;"></rect><text lineHeight="1.2" class="djs-label" style="font-family: Arial, sans-serif; font-size: 12px; font-weight: normal; fill: black;"><tspan x="5.14453125" y="46.4">Review recommended </tspan><tspan x="48.826171875" y="60.8">action</tspan></text></g><g class="djs-visual" id="DataObjectReference_001ooxm" transform="translate(72 1585)"><path d="m 0,0 28.23529411764706,0 7.058823529411765,8.196721311475411 0,40.98360655737705 -35.294117647058826,0 0,-49.18032786885246 28.23529411764706,0 0,8.196721311475411 7.058823529411765,0" style="fill: white; stroke-width: 2px; stroke: black; fill-opacity: 0.95;"></path></g><g class="djs-visual" id="DataObjectReference_001ooxm_label" transform="translate(56 1642)"><text lineHeight="1.2" class="djs-label" style="font-family: Arial, sans-serif; font-size: 11px; font-weight: normal; fill: black;"><tspan x="12.4443359375" y="9.899999999999999">Approval </tspan><tspan x="0" y="23.099999999999998">Memorandum</tspan></text></g><g class="djs-visual" id="DataObjectReference_0bf02xz" transform="translate(72 1765)"><path d="m 0,0 28.23529411764706,0 7.058823529411765,8.196721311475411 0,40.98360655737705 -35.294117647058826,0 0,-49.18032786885246 28.23529411764706,0 0,8.196721311475411 7.058823529411765,0" style="fill: white; stroke-width: 2px; stroke: black; fill-opacity: 0.95;"></path></g><g class="djs-visual" id="DataObjectReference_0bf02xz_label" transform="translate(56 1822)"><text lineHeight="1.2" class="djs-label" style="font-family: Arial, sans-serif; font-size: 11px; font-weight: normal; fill: black;"><tspan x="12.4443359375" y="9.899999999999999">Approval </tspan><tspan x="0" y="23.099999999999998">Memorandum</tspan></text></g><g class="djs-visual" id="Activity_02domea" transform="translate(195 1740)"><rect x="0" y="0" width="130" height="100" rx="10" ry="10" style="stroke: black; stroke-width: 2px; fill: white; fill-opacity: 0.95;"></rect><text lineHeight="1.2" class="djs-label" style="font-family: Arial, sans-serif; font-size: 12px; font-weight: normal; fill: black;"><tspan x="12.4677734375" y="39.2">Hand over approval </tspan><tspan x="21.15234375" y="53.6">memorandum to </tspan><tspan x="23.59375" y="68">recovery officer</tspan></text></g><g class="djs-visual" id="Activity_0qyei3r" transform="translate(195 1910)"><rect x="0" y="0" width="130" height="100" rx="10" ry="10" style="stroke: black; stroke-width: 2px; fill: white; fill-opacity: 0.95;"></rect><text lineHeight="1.2" class="djs-label" style="font-family: Arial, sans-serif; font-size: 12px; font-weight: normal; fill: black;"><tspan x="16.1435546875" y="46.4">Select contract for </tspan><tspan x="24.140625" y="60.8">past due action</tspan></text></g><g class="djs-visual" id="Activity_0p2j2ag" transform="translate(195 2080)"><rect x="0" y="0" width="130" height="100" rx="10" ry="10" style="stroke: black; stroke-width: 2px; fill: white; fill-opacity: 0.95;"></rect><text lineHeight="1.2" class="djs-label" style="font-family: Arial, sans-serif; font-size: 12px; font-weight: normal; fill: black;"><tspan x="20.6396484375" y="46.4">Change contract </tspan><tspan x="47.65625" y="60.8">details</tspan></text></g><g class="djs-visual" id="Activity_1yi10ld" transform="translate(195 2250)"><rect x="0" y="0" width="130" height="100" rx="10" ry="10" style="stroke: black; stroke-width: 2px; fill: white; fill-opacity: 0.95;"></rect><text lineHeight="1.2" class="djs-label" style="font-family: Arial, sans-serif; font-size: 12px; font-weight: normal; fill: black;"><tspan x="16.8095703125" y="46.4">Authorise contract </tspan><tspan x="22.8046875" y="60.8">details changed</tspan></text></g><g class="djs-visual" id="Activity_0e2h9ys" transform="translate(195 2420)"><rect x="0" y="0" width="130" height="100" rx="10" ry="10" style="stroke: black; stroke-width: 2px; fill: white; fill-opacity: 0.95;"></rect><text lineHeight="1.2" class="djs-label" style="font-family: Arial, sans-serif; font-size: 12px; font-weight: normal; fill: black;"><tspan x="9.1318359375" y="46.4">Generate accounting </tspan><tspan x="46.984375" y="60.8">entries</tspan></text></g><g class="djs-visual" id="Activity_1sdybs0" transform="translate(195 2590)"><rect x="0" y="0" width="130" height="100" rx="10" ry="10" style="stroke: black; stroke-width: 2px; fill: white; fill-opacity: 0.95;"></rect><text lineHeight="1.2" class="djs-label" style="font-family: Arial, sans-serif; font-size: 12px; font-weight: normal; fill: black;"><tspan x="20.484375" y="46.4">Deliver advice to </tspan><tspan x="38.4912109375" y="60.8">Customer</tspan></text></g><g class="djs-visual" id="DataObjectReference_1oid7op" transform="translate(402 2615)"><path d="m 0,0 28.23529411764706,0 7.058823529411765,8.196721311475411 0,40.98360655737705 -35.294117647058826,0 0,-49.18032786885246 28.23529411764706,0 0,8.196721311475411 7.058823529411765,0" style="fill: white; stroke-width: 2px; stroke: black; fill-opacity: 0.95;"></path></g><g class="djs-visual" id="DataObjectReference_1oid7op_label" transform="translate(374 2672)"><text lineHeight="1.2" class="djs-label" style="font-family: Arial, sans-serif; font-size: 11px; font-weight: normal; fill: black;"><tspan x="4.53759765625" y="9.899999999999999">Finance Contract </tspan><tspan x="0" y="23.099999999999998">Amendment Advice</tspan></text></g><g class="djs-visual" id="Event_10wki9a" transform="translate(242 2752)"><circle cx="18" cy="18" r="18" style="stroke: black; stroke-width: 4px; fill: white; fill-opacity: 0.95;"></circle></g><g class="djs-visual" id="Event_10wki9a_label" transform="translate(214 2795)"><text lineHeight="1.2" class="djs-label" style="font-family: Arial, sans-serif; font-size: 11px; font-weight: normal; fill: black;"><tspan x="0" y="9.899999999999999">Past due managed</tspan></text></g><g class="djs-visual" id="TextAnnotation_1oc5mb1" transform="translate(370 1340)"><rect x="0" y="0" width="250" height="40" rx="0" ry="0" style="stroke: none; stroke-width: 2px; fill: none;"></rect><path d="m 0, 0 m 10,0 l -10,0 l 0,40 l 10,0" style="fill: none; stroke-width: 2px; stroke: black;"></path><text lineHeight="1.2" class="djs-label" style="font-family: Arial, sans-serif; font-size: 12px; font-weight: normal; fill: black;"><tspan x="5" y="15.799999999999999">Simulation result details can be captured </tspan><tspan x="5" y="30.199999999999996">in the approval memorandum</tspan></text></g><g class="djs-visual" id="TextAnnotation_0bl909g" transform="translate(370 2030)"><rect x="0" y="0" width="170" height="40" rx="0" ry="0" style="stroke: none; stroke-width: 2px; fill: none;"></rect><path d="m 0, 0 m 10,0 l -10,0 l 0,40 l 10,0" style="fill: none; stroke-width: 2px; stroke: black;"></path><text lineHeight="1.2" class="djs-label" style="font-family: Arial, sans-serif; font-size: 12px; font-weight: normal; fill: black;"><tspan x="5" y="15.799999999999999">"New Activity" tab to be used </tspan><tspan x="5" y="30.199999999999996">to input write-off amount</tspan></text></g><g class="djs-visual" id="TextAnnotation_1erfesx" transform="translate(370 2360)"><rect x="0" y="0" width="230" height="40" rx="0" ry="0" style="stroke: none; stroke-width: 2px; fill: none;"></rect><path d="m 0, 0 m 10,0 l -10,0 l 0,40 l 10,0" style="fill: none; stroke-width: 2px; stroke: black;"></path><text lineHeight="1.2" class="djs-label" style="font-family: Arial, sans-serif; font-size: 12px; font-weight: normal; fill: black;"><tspan x="5" y="15.799999999999999">Dr Write-Off PL</tspan><tspan x="5" y="30.199999999999996">Cr Overdue Principal/ Declared Profit</tspan></text></g><g class="djs-visual" id="Flow_1gqr3yd_label" transform="translate(269 701)"><text lineHeight="1.2" class="djs-label" style="font-family: Arial, sans-serif; font-size: 11px; font-weight: normal; fill: black;"><tspan x="0" y="9.899999999999999">Simulation to be </tspan><tspan x="12.988037109375" y="23.099999999999998">carried out</tspan></text></g><g class="djs-visual" id="Flow_12x855q_label" transform="translate(259 1215)"><text lineHeight="1.2" class="djs-label" style="font-family: Arial, sans-serif; font-size: 11px; font-weight: normal; fill: black;"><tspan x="26.2099609375" y="9.899999999999999">Approval </tspan><tspan x="0" y="23.099999999999998">memorandum to be </tspan><tspan x="25.671875" y="36.3">prepared</tspan></text></g><g class="djs-visual" id="Flow_0vyd9ow_label" transform="translate(449 701)"><text lineHeight="1.2" class="djs-label" style="font-family: Arial, sans-serif; font-size: 11px; font-weight: normal; fill: black;"><tspan x="0" y="9.899999999999999">Simulation not </tspan><tspan x="15.145263671875" y="23.099999999999998">required</tspan></text></g><g class="djs-visual" id="DataOutputAssociation_1rugkjb" transform="translate(0 0)"><polyline points="325,1440 402,1440 " style="fill: none; stroke: black; stroke-width: 2px; stroke-dasharray: 0.5, 5; stroke-linecap: round; stroke-linejoin: round; marker-end: url(&quot;#association-end-white-black-2c2etjosjoh7rcsi23t0q7ihj&quot;);"></polyline></g><g class="djs-visual" id="DataInputAssociation_18m8qc9" transform="translate(0 0)"><polyline points="108,1610 195,1610 " style="fill: none; stroke: black; stroke-width: 2px; stroke-dasharray: 0.5, 5; stroke-linecap: round; stroke-linejoin: round; marker-end: url(&quot;#association-end-white-black-2c2etjosjoh7rcsi23t0q7ihj&quot;);"></polyline></g><g class="djs-visual" id="DataInputAssociation_0dsylig" transform="translate(0 0)"><polyline points="108,1790 195,1790 " style="fill: none; stroke: black; stroke-width: 2px; stroke-dasharray: 0.5, 5; stroke-linecap: round; stroke-linejoin: round; marker-end: url(&quot;#association-end-white-black-2c2etjosjoh7rcsi23t0q7ihj&quot;);"></polyline></g><g class="djs-visual" id="DataOutputAssociation_01knim7" transform="translate(0 0)"><polyline points="325,2640 402,2640 " style="fill: none; stroke: black; stroke-width: 2px; stroke-dasharray: 0.5, 5; stroke-linecap: round; stroke-linejoin: round; marker-end: url(&quot;#association-end-white-black-2c2etjosjoh7rcsi23t0q7ihj&quot;);"></polyline></g><g class="djs-visual" id="Association_1edy3ye" transform="translate(0 0)"><polyline points="324,1397 370,1367 " style="fill: none; stroke: black; stroke-width: 2px; stroke-dasharray: 0.5, 5; stroke-linecap: round; stroke-linejoin: round;"></polyline></g><g class="djs-visual" id="Association_081y5s8" transform="translate(0 0)"><polyline points="323,2084 370,2050 " style="fill: none; stroke: black; stroke-width: 2px; stroke-dasharray: 0.5, 5; stroke-linecap: round; stroke-linejoin: round;"></polyline></g><g class="djs-visual" id="Association_0nv9bq7" transform="translate(0 0)"><polyline points="323,2424 370,2390 " style="fill: none; stroke: black; stroke-width: 2px; stroke-dasharray: 0.5, 5; stroke-linecap: round; stroke-linejoin: round;"></polyline></g></g><g><rect class="viewport" x="-3216.8360655737706" y="114.16393442622952" width="7110.6557377049185" height="2704.9180327868853"></rect></g></svg>