<svg width="100%" height="100%" viewBox="-50, -76, 1835, 1914"><g><g class="djs-visual" id="Flow_103d66m" transform="translate(0 0)"><path d="m  185,1610L300,1610 L300,1722 " style="fill: none; stroke-width: 2px; stroke: black; stroke-linejoin: round; marker-end: url(&quot;#sequenceflow-end-white-black-brfzidb4gcugqzp5jwtqgp0f4&quot;);"></path></g><g class="djs-visual" id="Flow_0mnn778" transform="translate(0 0)"><path d="m  185,1610L440,1610 L440,1722 " style="fill: none; stroke-width: 2px; stroke: black; stroke-linejoin: round; marker-end: url(&quot;#sequenceflow-end-white-black-brfzidb4gcugqzp5jwtqgp0f4&quot;);"></path></g><g class="djs-visual" id="Flow_0nb75vf" transform="translate(0 0)"><path d="m  160,1635L160,1722 " style="fill: none; stroke-width: 2px; stroke: black; stroke-linejoin: round; marker-end: url(&quot;#sequenceflow-end-white-black-brfzidb4gcugqzp5jwtqgp0f4&quot;);"></path></g><g class="djs-visual" id="Flow_0x5iqsw" transform="translate(0 0)"><path d="m  160,1530L160,1585 " style="fill: none; stroke-width: 2px; stroke: black; stroke-linejoin: round; marker-end: url(&quot;#sequenceflow-end-white-black-brfzidb4gcugqzp5jwtqgp0f4&quot;);"></path></g><g class="djs-visual" id="Flow_0y4oxmq" transform="translate(0 0)"><path d="m  160,1360L160,1430 " style="fill: none; stroke-width: 2px; stroke: black; stroke-linejoin: round; marker-end: url(&quot;#sequenceflow-end-white-black-brfzidb4gcugqzp5jwtqgp0f4&quot;);"></path></g><g class="djs-visual" id="Flow_1wb4zuv" transform="translate(0 0)"><path d="m  160,1190L160,1260 " style="fill: none; stroke-width: 2px; stroke: black; stroke-linejoin: round; marker-end: url(&quot;#sequenceflow-end-white-black-brfzidb4gcugqzp5jwtqgp0f4&quot;);"></path></g><g class="djs-visual" id="Flow_0pfxiox" transform="translate(0 0)"><path d="m  160,1010L160,1090 " style="fill: none; stroke-width: 2px; stroke: black; stroke-linejoin: round; marker-end: url(&quot;#sequenceflow-end-white-black-brfzidb4gcugqzp5jwtqgp0f4&quot;);"></path></g><g class="djs-visual" id="Flow_05j87kw" transform="translate(0 0)"><path d="m  160,850L160,910 " style="fill: none; stroke-width: 2px; stroke: black; stroke-linejoin: round; marker-end: url(&quot;#sequenceflow-end-white-black-brfzidb4gcugqzp5jwtqgp0f4&quot;);"></path></g><g class="djs-visual" id="Flow_1m6m5gr" transform="translate(0 0)"><path d="m  160,680L160,750 " style="fill: none; stroke-width: 2px; stroke: black; stroke-linejoin: round; marker-end: url(&quot;#sequenceflow-end-white-black-brfzidb4gcugqzp5jwtqgp0f4&quot;);"></path></g><g class="djs-visual" id="Flow_1bvl0hm" transform="translate(0 0)"><path d="m  160,513L160,580 " style="fill: none; stroke-width: 2px; stroke: black; stroke-linejoin: round; marker-end: url(&quot;#sequenceflow-end-white-black-brfzidb4gcugqzp5jwtqgp0f4&quot;);"></path></g><g class="djs-visual" id="Flow_1k6xp8z" transform="translate(0 0)"><path d="m  160,185L160,250 " style="fill: none; stroke-width: 2px; stroke: black; stroke-linejoin: round; marker-end: url(&quot;#sequenceflow-end-white-black-brfzidb4gcugqzp5jwtqgp0f4&quot;);"></path></g><g class="djs-visual" id="Flow_0rf69cz" transform="translate(0 0)"><path d="m  160,350L160,413 " style="fill: none; stroke-width: 2px; stroke: black; stroke-linejoin: round; marker-end: url(&quot;#sequenceflow-end-white-black-brfzidb4gcugqzp5jwtqgp0f4&quot;);"></path></g><g class="djs-visual" id="Flow_0jd1f6v" transform="translate(0 0)"><path d="m  440,68L440,160 L185,160 " style="fill: none; stroke-width: 2px; stroke: black; stroke-linejoin: round; marker-end: url(&quot;#sequenceflow-end-white-black-brfzidb4gcugqzp5jwtqgp0f4&quot;);"></path></g><g class="djs-visual" id="Flow_1venb8o" transform="translate(0 0)"><path d="m  300,68L300,160 L185,160 " style="fill: none; stroke-width: 2px; stroke: black; stroke-linejoin: round; marker-end: url(&quot;#sequenceflow-end-white-black-brfzidb4gcugqzp5jwtqgp0f4&quot;);"></path></g><g class="djs-visual" id="Flow_0reftr8" transform="translate(0 0)"><path d="m  160,68L160,135 " style="fill: none; stroke-width: 2px; stroke: black; stroke-linejoin: round; marker-end: url(&quot;#sequenceflow-end-white-black-brfzidb4gcugqzp5jwtqgp0f4&quot;);"></path></g><g class="djs-visual" id="Event_0mkm8xn" transform="translate(142 32)"><circle cx="18" cy="18" r="18" style="stroke: black; stroke-width: 2px; fill: white; fill-opacity: 0.95;"></circle></g><g class="djs-visual" id="Event_0mkm8xn_label" transform="translate(112 -20)"><text lineHeight="1.2" class="djs-label" style="font-family: Arial, sans-serif; font-size: 11px; font-weight: normal; fill: black;"><tspan x="0" y="9.899999999999999">Limit/ Collateral set </tspan><tspan x="19.409912109375" y="23.099999999999998">up required</tspan></text></g><g class="djs-visual" id="Event_0ft7n9d" transform="translate(282 32)"><circle cx="18" cy="18" r="18" style="stroke: black; stroke-width: 2px; fill: white; fill-opacity: 0.95;"></circle></g><g class="djs-visual" id="Event_0ft7n9d_label" transform="translate(252 -20)"><text lineHeight="1.2" class="djs-label" style="font-family: Arial, sans-serif; font-size: 11px; font-weight: normal; fill: black;"><tspan x="0" y="9.899999999999999">Limit/ Collateral set </tspan><tspan x="19.409912109375" y="23.099999999999998">up required</tspan></text></g><g class="djs-visual" id="Event_1d7hqcm" transform="translate(422 32)"><circle cx="18" cy="18" r="18" style="stroke: black; stroke-width: 2px; fill: white; fill-opacity: 0.95;"></circle></g><g class="djs-visual" id="Event_1d7hqcm_label" transform="translate(392 -20)"><text lineHeight="1.2" class="djs-label" style="font-family: Arial, sans-serif; font-size: 11px; font-weight: normal; fill: black;"><tspan x="0" y="9.899999999999999">Limit/ Collateral set </tspan><tspan x="19.409912109375" y="23.099999999999998">up required</tspan></text></g><g class="djs-visual" id="Gateway_07n52lf" transform="translate(135 135)"><polygon points="25,0 50,25 25,50 0,25" style="stroke: black; stroke-width: 2px; fill: white; fill-opacity: 0.95;"></polygon><path d="m 16,15 7.42857142857143,9.714285714285715 -7.42857142857143,9.714285714285715 3.428571428571429,0 5.714285714285715,-7.464228571428572 5.714285714285715,7.464228571428572 3.428571428571429,0 -7.42857142857143,-9.714285714285715 7.42857142857143,-9.714285714285715 -3.428571428571429,0 -5.714285714285715,7.464228571428572 -5.714285714285715,-7.464228571428572 -3.428571428571429,0 z" style="fill: black; stroke-width: 1px; stroke: black;"></path></g><g class="djs-visual" id="Activity_0sua3lw" transform="translate(95 250)"><rect x="0" y="0" width="130" height="100" rx="10" ry="10" style="stroke: black; stroke-width: 2px; fill: white; fill-opacity: 0.95;"></rect><text lineHeight="1.2" class="djs-label" style="font-family: Arial, sans-serif; font-size: 12px; font-weight: normal; fill: black;"><tspan x="17.9169921875" y="46.4">Validate collateral </tspan><tspan x="47.65625" y="60.8">details</tspan></text></g><g class="djs-visual" id="DataObjectReference_12bt2nx" transform="translate(22 275)"><path d="m 0,0 28.23529411764706,0 7.058823529411765,8.196721311475411 0,40.98360655737705 -35.294117647058826,0 0,-49.18032786885246 28.23529411764706,0 0,8.196721311475411 7.058823529411765,0" style="fill: white; stroke-width: 2px; stroke: black; fill-opacity: 0.95;"></path></g><g class="djs-visual" id="DataObjectReference_12bt2nx_label" transform="translate(12 332)"><text lineHeight="1.2" class="djs-label" style="font-family: Arial, sans-serif; font-size: 11px; font-weight: normal; fill: black;"><tspan x="4.55615234375" y="9.899999999999999">Collateral </tspan><tspan x="0" y="23.099999999999998">Documents</tspan></text></g><g class="djs-visual" id="Activity_023m18c" transform="translate(95 413)"><rect x="0" y="0" width="130" height="100" rx="10" ry="10" style="stroke: black; stroke-width: 2px; fill: white; fill-opacity: 0.95;"></rect><text lineHeight="1.2" class="djs-label" style="font-family: Arial, sans-serif; font-size: 12px; font-weight: normal; fill: black;"><tspan x="8.9794921875" y="53.599999999999994">Link collateral to limit</tspan></text></g><g class="djs-visual" id="Activity_14sky4c" transform="translate(95 580)"><rect x="0" y="0" width="130" height="100" rx="10" ry="10" style="stroke: black; stroke-width: 2px; fill: white; fill-opacity: 0.95;"></rect><text lineHeight="1.2" class="djs-label" style="font-family: Arial, sans-serif; font-size: 12px; font-weight: normal; fill: black;"><tspan x="7.640625" y="46.4">Select Collateral right</tspan><tspan x="22.3056640625" y="60.8">to be authorised</tspan></text></g><g class="djs-visual" id="Activity_0g7xf4r" transform="translate(95 750)"><rect x="0" y="0" width="130" height="100" rx="10" ry="10" style="stroke: black; stroke-width: 2px; fill: white; fill-opacity: 0.95;"></rect><text lineHeight="1.2" class="djs-label" style="font-family: Arial, sans-serif; font-size: 12px; font-weight: normal; fill: black;"><tspan x="14.306640625" y="46.4">Authorise collateral </tspan><tspan x="47.8271484375" y="60.8">linking</tspan></text></g><g class="djs-visual" id="Activity_1seeiud" transform="translate(95 910)"><rect x="0" y="0" width="130" height="100" rx="10" ry="10" style="stroke: black; stroke-width: 2px; fill: white; fill-opacity: 0.95;"></rect><text lineHeight="1.2" class="djs-label" style="font-family: Arial, sans-serif; font-size: 12px; font-weight: normal; fill: black;"><tspan x="29.8115234375" y="46.4">Define actual </tspan><tspan x="40.8212890625" y="60.8">collateral</tspan></text></g><g class="djs-visual" id="Activity_1en8fr3" transform="translate(95 1090)"><rect x="0" y="0" width="130" height="100" rx="10" ry="10" style="stroke: black; stroke-width: 2px; fill: white; fill-opacity: 0.95;"></rect><text lineHeight="1.2" class="djs-label" style="font-family: Arial, sans-serif; font-size: 12px; font-weight: normal; fill: black;"><tspan x="7.470703125" y="46.4">Select collateral to be</tspan><tspan x="36.8173828125" y="60.8">authorised</tspan></text></g><g class="djs-visual" id="Activity_0olwhsc" transform="translate(95 1260)"><rect x="0" y="0" width="130" height="100" rx="10" ry="10" style="stroke: black; stroke-width: 2px; fill: white; fill-opacity: 0.95;"></rect><text lineHeight="1.2" class="djs-label" style="font-family: Arial, sans-serif; font-size: 12px; font-weight: normal; fill: black;"><tspan x="14.306640625" y="53.599999999999994">Authorise collateral</tspan></text></g><g class="djs-visual" id="Activity_0wtgcsb" transform="translate(95 1430)"><rect x="0" y="0" width="130" height="100" rx="10" ry="10" style="stroke: black; stroke-width: 2px; fill: white; fill-opacity: 0.95;"></rect><text lineHeight="1.2" class="djs-label" style="font-family: Arial, sans-serif; font-size: 12px; font-weight: normal; fill: black;"><tspan x="21.8076171875" y="53.599999999999994">Set up collateral</tspan></text></g><g class="djs-visual" id="Gateway_0kukuom" transform="translate(135 1585)"><polygon points="25,0 50,25 25,50 0,25" style="stroke: black; stroke-width: 2px; fill: white; fill-opacity: 0.95;"></polygon><path d="m 16,15 7.42857142857143,9.714285714285715 -7.42857142857143,9.714285714285715 3.428571428571429,0 5.714285714285715,-7.464228571428572 5.714285714285715,7.464228571428572 3.428571428571429,0 -7.42857142857143,-9.714285714285715 7.42857142857143,-9.714285714285715 -3.428571428571429,0 -5.714285714285715,7.464228571428572 -5.714285714285715,-7.464228571428572 -3.428571428571429,0 z" style="fill: black; stroke-width: 1px; stroke: black;"></path></g><g class="djs-visual" id="Event_07vawzw" transform="translate(142 1722)"><circle cx="18" cy="18" r="18" style="stroke: black; stroke-width: 4px; fill: white; fill-opacity: 0.95;"></circle></g><g class="djs-visual" id="Event_07vawzw_label" transform="translate(117 1768)"><text lineHeight="1.2" class="djs-label" style="font-family: Arial, sans-serif; font-size: 11px; font-weight: normal; fill: black;"><tspan x="0" y="9.899999999999999">Collateral created</tspan></text></g><g class="djs-visual" id="Event_1dp41zz" transform="translate(422 1722)"><circle cx="18" cy="18" r="18" style="stroke: black; stroke-width: 4px; fill: white; fill-opacity: 0.95;"></circle></g><g class="djs-visual" id="Event_1dp41zz_label" transform="translate(397 1767)"><text lineHeight="1.2" class="djs-label" style="font-family: Arial, sans-serif; font-size: 11px; font-weight: normal; fill: black;"><tspan x="0" y="9.899999999999999">Collateral created</tspan></text></g><g class="djs-visual" id="Event_0zyosnh" transform="translate(282 1722)"><circle cx="18" cy="18" r="18" style="stroke: black; stroke-width: 4px; fill: white; fill-opacity: 0.95;"></circle></g><g class="djs-visual" id="Event_0zyosnh_label" transform="translate(257 1767)"><text lineHeight="1.2" class="djs-label" style="font-family: Arial, sans-serif; font-size: 11px; font-weight: normal; fill: black;"><tspan x="0" y="9.899999999999999">Collateral created</tspan></text></g><g class="djs-visual" id="TextAnnotation_047crd3" transform="translate(280 680)"><rect x="0" y="0" width="220" height="55" rx="0" ry="0" style="stroke: none; stroke-width: 2px; fill: none;"></rect><path d="m 0, 0 m 10,0 l -10,0 l 0,55 l 10,0" style="fill: none; stroke-width: 2px; stroke: black;"></path><text lineHeight="1.2" class="djs-label" style="font-family: Arial, sans-serif; font-size: 12px; font-weight: normal; fill: black;"><tspan x="5" y="15.799999999999999">- Collateral is linked to the limit</tspan><tspan x="5" y="30.199999999999996">- Amount of collateral that needs to be </tspan><tspan x="5" y="44.599999999999994">blocked for this limit, is mentioned here</tspan></text></g><g class="djs-visual" id="TextAnnotation_14jw41o" transform="translate(280 860)"><rect x="0" y="0" width="300" height="40" rx="0" ry="0" style="stroke: none; stroke-width: 2px; fill: none;"></rect><path d="m 0, 0 m 10,0 l -10,0 l 0,40 l 10,0" style="fill: none; stroke-width: 2px; stroke: black;"></path><text lineHeight="1.2" class="djs-label" style="font-family: Arial, sans-serif; font-size: 12px; font-weight: normal; fill: black;"><tspan x="5" y="15.799999999999999">in case collateral is created "stand-alone", this </tspan><tspan x="5" y="30.199999999999996">will be started from ENQ CUSTOMER.SCV.CO</tspan></text></g><g class="djs-visual" id="DataInputAssociation_0fhvfuo" transform="translate(0 0)"><polyline points="58,300 95,300 " style="fill: none; stroke: black; stroke-width: 2px; stroke-dasharray: 0.5, 5; stroke-linecap: round; stroke-linejoin: round; marker-end: url(&quot;#association-end-white-black-brfzidb4gcugqzp5jwtqgp0f4&quot;);"></polyline></g><g class="djs-visual" id="Association_0oo8gxg" transform="translate(0 0)"><polyline points="222,753 280,708 " style="fill: none; stroke: black; stroke-width: 2px; stroke-dasharray: 0.5, 5; stroke-linecap: round; stroke-linejoin: round;"></polyline></g><g class="djs-visual" id="Association_10f31fy" transform="translate(0 0)"><polyline points="224,918 280,880 " style="fill: none; stroke: black; stroke-width: 2px; stroke-dasharray: 0.5, 5; stroke-linecap: round; stroke-linejoin: round;"></polyline></g></g><g><rect class="viewport" x="-2087.3736263736264" y="-25.989010989010993" width="4766.483516483517" height="1813.1868131868132"></rect></g></svg>