<svg width="100%" height="100%" data-element-id="Process_0gv1hwp"><g class="viewport" transform="matrix(0.331325 0 0 0.331325 759.157 1748.07)"><g class="layer-root-1" data-element-id="Process_0gv1hwp"><g class="djs-group"><g class="djs-element djs-connection" data-element-id="Flow_041gcqo" style="display: block;"><g class="djs-visual"><path d="m  430,-3620L430,-3558 " style="fill: none; stroke-width: 2px; stroke: black; stroke-linejoin: round; marker-end: url(&quot;#sequenceflow-end-white-black-b8hiatrgk1k9oudgyvyu19ucc&quot;);"></path></g><polyline points="430,-3620 430,-3558 " class="djs-hit djs-hit-stroke" style="fill: none; stroke-opacity: 0; stroke: white; stroke-width: 15px;"></polyline><rect x="424" y="-3626" width="12" height="74" class="djs-outline" style="fill: none;"></rect></g></g><g class="djs-group"><g class="djs-element djs-connection" data-element-id="Flow_1affqut" style="display: block;"><g class="djs-visual"><path d="m  172,-5010L172,-4940 " style="fill: none; stroke-width: 2px; stroke: black; stroke-linejoin: round; marker-end: url(&quot;#sequenceflow-end-white-black-b8hiatrgk1k9oudgyvyu19ucc&quot;);"></path></g><polyline points="172,-5010 172,-4940 " class="djs-hit djs-hit-stroke" style="fill: none; stroke-opacity: 0; stroke: white; stroke-width: 15px;"></polyline><rect x="166" y="-5016" width="12" height="82" class="djs-outline" style="fill: none;"></rect></g></g><g class="djs-group"><g class="djs-element djs-connection" data-element-id="Flow_0uc2lc4" style="display: block;"><g class="djs-visual"><path d="m  167,-3620L167,-3540 " style="fill: none; stroke-width: 2px; stroke: black; stroke-linejoin: round; marker-end: url(&quot;#sequenceflow-end-white-black-b8hiatrgk1k9oudgyvyu19ucc&quot;);"></path></g><polyline points="167,-3620 167,-3540 " class="djs-hit djs-hit-stroke" style="fill: none; stroke-opacity: 0; stroke: white; stroke-width: 15px;"></polyline><rect x="161" y="-3626" width="12" height="92" class="djs-outline" style="fill: none;"></rect></g></g><g class="djs-group"><g class="djs-element djs-connection" data-element-id="Flow_08gka1u" style="display: block;"><g class="djs-visual"><path d="m  430,-3800L430,-3720 " style="fill: none; stroke-width: 2px; stroke: black; stroke-linejoin: round; marker-end: url(&quot;#sequenceflow-end-white-black-b8hiatrgk1k9oudgyvyu19ucc&quot;);"></path></g><polyline points="430,-3800 430,-3720 " class="djs-hit djs-hit-stroke" style="fill: none; stroke-opacity: 0; stroke: white; stroke-width: 15px;"></polyline><rect x="424" y="-3806" width="12" height="92" class="djs-outline" style="fill: none;"></rect></g></g><g class="djs-group"><g class="djs-element djs-connection" data-element-id="Flow_0wf8r7i" style="display: block;"><g class="djs-visual"><path d="m  167,-4060L167,-4015 " style="fill: none; stroke-width: 2px; stroke: black; stroke-linejoin: round; marker-end: url(&quot;#sequenceflow-end-white-black-b8hiatrgk1k9oudgyvyu19ucc&quot;);"></path></g><polyline points="167,-4060 167,-4015 " class="djs-hit djs-hit-stroke" style="fill: none; stroke-opacity: 0; stroke: white; stroke-width: 15px;"></polyline><rect x="161" y="-4066" width="12" height="57" class="djs-outline" style="fill: none;"></rect></g></g><g class="djs-group"><g class="djs-element djs-connection" data-element-id="Flow_1eblst5" style="display: block;"><g class="djs-visual"><path d="m  172,-4370L172,-4310 " style="fill: none; stroke-width: 2px; stroke: black; stroke-linejoin: round; marker-end: url(&quot;#sequenceflow-end-white-black-b8hiatrgk1k9oudgyvyu19ucc&quot;);"></path></g><polyline points="172,-4370 172,-4310 " class="djs-hit djs-hit-stroke" style="fill: none; stroke-opacity: 0; stroke: white; stroke-width: 15px;"></polyline><rect x="166" y="-4376" width="12" height="72" class="djs-outline" style="fill: none;"></rect></g></g><g class="djs-group"><g class="djs-element djs-connection" data-element-id="Flow_0yu4ja3" style="display: block;"><g class="djs-visual"><path d="m  172,-4670L172,-4620 " style="fill: none; stroke-width: 2px; stroke: black; stroke-linejoin: round; marker-end: url(&quot;#sequenceflow-end-white-black-b8hiatrgk1k9oudgyvyu19ucc&quot;);"></path></g><polyline points="172,-4670 172,-4620 " class="djs-hit djs-hit-stroke" style="fill: none; stroke-opacity: 0; stroke: white; stroke-width: 15px;"></polyline><rect x="166" y="-4676" width="12" height="62" class="djs-outline" style="fill: none;"></rect></g></g><g class="djs-group"><g class="djs-element djs-connection" data-element-id="Flow_0twv23x" style="display: block;"><g class="djs-visual"><path d="m  167,-3800L167,-3720 " style="fill: none; stroke-width: 2px; stroke: black; stroke-linejoin: round; marker-end: url(&quot;#sequenceflow-end-white-black-b8hiatrgk1k9oudgyvyu19ucc&quot;);"></path></g><polyline points="167,-3800 167,-3720 " class="djs-hit djs-hit-stroke" style="fill: none; stroke-opacity: 0; stroke: white; stroke-width: 15px;"></polyline><rect x="161" y="-3806" width="12" height="92" class="djs-outline" style="fill: none;"></rect></g></g><g class="djs-group"><g class="djs-element djs-connection" data-element-id="Flow_057hsh2" style="display: block;"><g class="djs-visual"><path d="m  167,-3965L167,-3900 " style="fill: none; stroke-width: 2px; stroke: black; stroke-linejoin: round; marker-end: url(&quot;#sequenceflow-end-white-black-b8hiatrgk1k9oudgyvyu19ucc&quot;);"></path></g><polyline points="167,-3965 167,-3900 " class="djs-hit djs-hit-stroke" style="fill: none; stroke-opacity: 0; stroke: white; stroke-width: 15px;"></polyline><rect x="161" y="-3971" width="12" height="77" class="djs-outline" style="fill: none;"></rect></g></g><g class="djs-group"><g class="djs-element djs-connection" data-element-id="Flow_1724tzo" style="display: block;"><g class="djs-visual"><path d="m  167,-4210L167,-4160 " style="fill: none; stroke-width: 2px; stroke: black; stroke-linejoin: round; marker-end: url(&quot;#sequenceflow-end-white-black-b8hiatrgk1k9oudgyvyu19ucc&quot;);"></path></g><polyline points="167,-4210 167,-4160 " class="djs-hit djs-hit-stroke" style="fill: none; stroke-opacity: 0; stroke: white; stroke-width: 15px;"></polyline><rect x="161" y="-4216" width="12" height="62" class="djs-outline" style="fill: none;"></rect></g></g><g class="djs-group"><g class="djs-element djs-connection" data-element-id="Flow_04rce8e" style="display: block;"><g class="djs-visual"><path d="m  172,-4520L172,-4470 " style="fill: none; stroke-width: 2px; stroke: black; stroke-linejoin: round; marker-end: url(&quot;#sequenceflow-end-white-black-b8hiatrgk1k9oudgyvyu19ucc&quot;);"></path></g><polyline points="172,-4520 172,-4470 " class="djs-hit djs-hit-stroke" style="fill: none; stroke-opacity: 0; stroke: white; stroke-width: 15px;"></polyline><rect x="166" y="-4526" width="12" height="62" class="djs-outline" style="fill: none;"></rect></g></g><g class="djs-group"><g class="djs-element djs-connection" data-element-id="Flow_0psqgzv" style="display: block;"><g class="djs-visual"><path d="m  172,-4840L172,-4770 " style="fill: none; stroke-width: 2px; stroke: black; stroke-linejoin: round; marker-end: url(&quot;#sequenceflow-end-white-black-b8hiatrgk1k9oudgyvyu19ucc&quot;);"></path></g><polyline points="172,-4840 172,-4770 " class="djs-hit djs-hit-stroke" style="fill: none; stroke-opacity: 0; stroke: white; stroke-width: 15px;"></polyline><rect x="166" y="-4846" width="12" height="82" class="djs-outline" style="fill: none;"></rect></g></g><g class="djs-group"><g class="djs-element djs-connection" data-element-id="Flow_0ya7j25" style="display: block;"><g class="djs-visual"><path d="m  167,-3440L167,-3388 " style="fill: none; stroke-width: 2px; stroke: black; stroke-linejoin: round; marker-end: url(&quot;#sequenceflow-end-white-black-b8hiatrgk1k9oudgyvyu19ucc&quot;);"></path></g><polyline points="167,-3440 167,-3388 " class="djs-hit djs-hit-stroke" style="fill: none; stroke-opacity: 0; stroke: white; stroke-width: 15px;"></polyline><rect x="161" y="-3446" width="12" height="64" class="djs-outline" style="fill: none;"></rect></g></g><g class="djs-group"><g class="djs-element djs-connection" data-element-id="Flow_0jretc8" style="display: block;"><g class="djs-visual"><path d="m  172,-5172L172,-5110 " style="fill: none; stroke-width: 2px; stroke: black; stroke-linejoin: round; marker-end: url(&quot;#sequenceflow-end-white-black-b8hiatrgk1k9oudgyvyu19ucc&quot;);"></path></g><polyline points="172,-5172 172,-5110 " class="djs-hit djs-hit-stroke" style="fill: none; stroke-opacity: 0; stroke: white; stroke-width: 15px;"></polyline><rect x="166" y="-5178" width="12" height="74" class="djs-outline" style="fill: none;"></rect></g></g><g class="djs-group"><g class="djs-element djs-connection" data-element-id="Flow_0vcb63v" style="display: block;"><g class="djs-visual"><path d="m  192,-3990L430,-3990 L430,-3900 " style="fill: none; stroke-width: 2px; stroke: black; stroke-linejoin: round; marker-end: url(&quot;#sequenceflow-end-white-black-b8hiatrgk1k9oudgyvyu19ucc&quot;);"></path></g><polyline points="192,-3990 430,-3990 430,-3900 " class="djs-hit djs-hit-stroke" style="fill: none; stroke-opacity: 0; stroke: white; stroke-width: 15px;"></polyline><rect x="186" y="-3996" width="250" height="102" class="djs-outline" style="fill: none;"></rect></g></g><g class="djs-group"><g class="djs-element djs-shape" data-element-id="Event_0tpantj" style="display: block;" transform="matrix(1 0 0 1 149 -3388)"><g class="djs-visual"><circle cx="18" cy="18" r="18" style="stroke: black; stroke-width: 4px; fill: white; fill-opacity: 0.95;"></circle></g><rect class="djs-hit djs-hit-all" x="0" y="0" width="36" height="36" style="fill: none; stroke-opacity: 0; stroke: white; stroke-width: 15px;"></rect><rect x="-6" y="-6" width="48" height="48" class="djs-outline" style="fill: none;"></rect></g></g><g class="djs-group"><g class="djs-element djs-shape" data-element-id="Event_0tpantj_label" style="display: block;" transform="matrix(1 0 0 1 134 -3330)"><g class="djs-visual"><text lineHeight="1.2" class="djs-label" style="font-family: Arial, sans-serif; font-size: 11px; font-weight: normal; fill: black;"><tspan x="0" y="9.899999999999999">Asset Finance </tspan><tspan x="2.695068359375" y="23.099999999999998">arrangement </tspan><tspan x="11.109375" y="36.3">cancelled</tspan></text></g><rect class="djs-hit djs-hit-all" x="0" y="0" width="69" height="40" style="fill: none; stroke-opacity: 0; stroke: white; stroke-width: 15px;"></rect><rect x="-6" y="-6" width="81" height="52" class="djs-outline" style="fill: none;"></rect></g></g><g class="djs-group"><g class="djs-element djs-shape" data-element-id="Activity_0b1pth6" style="display: block;" transform="matrix(1 0 0 1 102 -3720)"><g class="djs-visual"><rect x="0" y="0" width="130" height="100" rx="10" ry="10" style="stroke: black; stroke-width: 2px; fill: white; fill-opacity: 0.95;"></rect><text lineHeight="1.2" class="djs-label" style="font-family: Arial, sans-serif; font-size: 12px; font-weight: normal; fill: black;"><tspan x="11.8037109375" y="39.2">Verify and authorise </tspan><tspan x="25.80859375" y="53.6">cancellation of </tspan><tspan x="30.6474609375" y="68">arrangement</tspan></text></g><rect class="djs-hit djs-hit-all" x="0" y="0" width="130" height="100" style="fill: none; stroke-opacity: 0; stroke: white; stroke-width: 15px;"></rect><rect x="-6" y="-6" width="142" height="112" class="djs-outline" style="fill: none;"></rect></g></g><g class="djs-group"><g class="djs-element djs-shape" data-element-id="Gateway_0sm43jp" style="display: block;" transform="matrix(1 0 0 1 142 -4015)"><g class="djs-visual"><polygon points="25,0 50,25 25,50 0,25" style="stroke: black; stroke-width: 2px; fill: white; fill-opacity: 0.95;"></polygon><path d="m 16,15 7.42857142857143,9.714285714285715 -7.42857142857143,9.714285714285715 3.428571428571429,0 5.714285714285715,-7.464228571428572 5.714285714285715,7.464228571428572 3.428571428571429,0 -7.42857142857143,-9.714285714285715 7.42857142857143,-9.714285714285715 -3.428571428571429,0 -5.714285714285715,7.464228571428572 -5.714285714285715,-7.464228571428572 -3.428571428571429,0 z" style="fill: black; stroke-width: 1px; stroke: black;"></path></g><rect class="djs-hit djs-hit-all" x="0" y="0" width="50" height="50" style="fill: none; stroke-opacity: 0; stroke: white; stroke-width: 15px;"></rect><rect x="-6" y="-6" width="62" height="62" class="djs-outline" style="fill: none;"></rect></g></g><g class="djs-group"><g class="djs-element djs-shape" data-element-id="Activity_0fyacv1" style="display: block;" transform="matrix(1 0 0 1 102 -3900)"><g class="djs-visual"><rect x="0" y="0" width="130" height="100" rx="10" ry="10" style="stroke: black; stroke-width: 2px; fill: white; fill-opacity: 0.95;"></rect><text lineHeight="1.2" class="djs-label" style="font-family: Arial, sans-serif; font-size: 12px; font-weight: normal; fill: black;"><tspan x="12.474609375" y="46.4">Place transaction in </tspan><tspan x="12.12890625" y="60.8">authorisation queue</tspan></text></g><rect class="djs-hit djs-hit-all" x="0" y="0" width="130" height="100" style="fill: none; stroke-opacity: 0; stroke: white; stroke-width: 15px;"></rect><rect x="-6" y="-6" width="142" height="112" class="djs-outline" style="fill: none;"></rect></g></g><g class="djs-group"><g class="djs-element djs-shape" data-element-id="Event_1sqrm58" style="display: block;" transform="matrix(1 0 0 1 412 -3558)"><g class="djs-visual"><circle cx="18" cy="18" r="18" style="stroke: black; stroke-width: 4px; fill: white; fill-opacity: 0.95;"></circle></g><rect class="djs-hit djs-hit-all" x="0" y="0" width="36" height="36" style="fill: none; stroke-opacity: 0; stroke: white; stroke-width: 15px;"></rect><rect x="-6" y="-6" width="48" height="48" class="djs-outline" style="fill: none;"></rect></g></g><g class="djs-group"><g class="djs-element djs-shape" data-element-id="Event_1sqrm58_label" style="display: block;" transform="matrix(1 0 0 1 393 -3514)"><g class="djs-visual"><text lineHeight="1.2" class="djs-label" style="font-family: Arial, sans-serif; font-size: 11px; font-weight: normal; fill: black;"><tspan x="0" y="9.899999999999999">Cancellation of </tspan><tspan x="4.441650390625" y="23.099999999999998">asset finance </tspan><tspan x="5.19921875" y="36.3">arrangement </tspan><tspan x="4.783447265625" y="49.5">unsuccessful</tspan></text></g><rect class="djs-hit djs-hit-all" x="0" y="0" width="74" height="53" style="fill: none; stroke-opacity: 0; stroke: white; stroke-width: 15px;"></rect><rect x="-6" y="-6" width="86" height="65" class="djs-outline" style="fill: none;"></rect></g></g><g class="djs-group"><g class="djs-element djs-shape" data-element-id="Event_1l5nlpj" style="display: block;" transform="matrix(1 0 0 1 154 -5208)"><g class="djs-visual"><circle cx="18" cy="18" r="18" style="stroke: black; stroke-width: 2px; fill: white; fill-opacity: 0.95;"></circle></g><rect class="djs-hit djs-hit-all" x="0" y="0" width="36" height="36" style="fill: none; stroke-opacity: 0; stroke: white; stroke-width: 15px;"></rect><rect x="-6" y="-6" width="48" height="48" class="djs-outline" style="fill: none;"></rect></g></g><g class="djs-group"><g class="djs-element djs-shape" data-element-id="Event_1l5nlpj_label" style="display: block;" transform="matrix(1 0 0 1 125 -5270)"><g class="djs-visual"><text lineHeight="1.2" class="djs-label" style="font-family: Arial, sans-serif; font-size: 11px; font-weight: normal; fill: black;"><tspan x="12.67529296875" y="9.899999999999999">Asset Finance </tspan><tspan x="2.08154296875" y="23.099999999999998">arrangement to be </tspan><tspan x="0" y="36.3">cancelled manually</tspan></text></g><rect class="djs-hit djs-hit-all" x="0" y="0" width="95" height="40" style="fill: none; stroke-opacity: 0; stroke: white; stroke-width: 15px;"></rect><rect x="-6" y="-6" width="107" height="52" class="djs-outline" style="fill: none;"></rect></g></g><g class="djs-group"><g class="djs-element djs-shape" data-element-id="Activity_0n81g7c" style="display: block;" transform="matrix(1 0 0 1 102 -3540)"><g class="djs-visual"><rect x="0" y="0" width="130" height="100" rx="10" ry="10" style="stroke: black; stroke-width: 2px; fill: white; fill-opacity: 0.95;"></rect><text lineHeight="1.2" class="djs-label" style="font-family: Arial, sans-serif; font-size: 12px; font-weight: normal; fill: black;"><tspan x="18.806640625" y="46.4">Update status for </tspan><tspan x="11.8037109375" y="60.8">manual cancellation</tspan></text></g><rect class="djs-hit djs-hit-all" x="0" y="0" width="130" height="100" style="fill: none; stroke-opacity: 0; stroke: white; stroke-width: 15px;"></rect><rect x="-6" y="-6" width="142" height="112" class="djs-outline" style="fill: none;"></rect></g></g><g class="djs-group"><g class="djs-element djs-shape" data-element-id="Activity_1ozv070" style="display: block;" transform="matrix(1 0 0 1 107 -4940)"><g class="djs-visual"><rect x="0" y="0" width="130" height="100" rx="10" ry="10" style="stroke: black; stroke-width: 2px; fill: white; fill-opacity: 0.95;"></rect><text lineHeight="1.2" class="djs-label" style="font-family: Arial, sans-serif; font-size: 12px; font-weight: normal; fill: black;"><tspan x="30.1494140625" y="46.4">List available </tspan><tspan x="30.6474609375" y="60.8">arrangement</tspan></text></g><rect class="djs-hit djs-hit-all" x="0" y="0" width="130" height="100" style="fill: none; stroke-opacity: 0; stroke: white; stroke-width: 15px;"></rect><rect x="-6" y="-6" width="142" height="112" class="djs-outline" style="fill: none;"></rect></g></g><g class="djs-group"><g class="djs-element djs-shape" data-element-id="Activity_1rsiq23" style="display: block;" transform="matrix(1 0 0 1 107 -4620)"><g class="djs-visual"><rect x="0" y="0" width="130" height="100" rx="10" ry="10" style="stroke: black; stroke-width: 2px; fill: white; fill-opacity: 0.95;"></rect><text lineHeight="1.2" class="djs-label" style="font-family: Arial, sans-serif; font-size: 12px; font-weight: normal; fill: black;"><tspan x="5.306640625" y="53.599999999999994">Arrangement overview</tspan></text></g><rect class="djs-hit djs-hit-all" x="0" y="0" width="130" height="100" style="fill: none; stroke-opacity: 0; stroke: white; stroke-width: 15px;"></rect><rect x="-6" y="-6" width="142" height="112" class="djs-outline" style="fill: none;"></rect></g></g><g class="djs-group"><g class="djs-element djs-shape" data-element-id="Activity_0zxqhze" style="display: block;" transform="matrix(1 0 0 1 102 -4310)"><g class="djs-visual"><rect x="0" y="0" width="130" height="100" rx="10" ry="10" style="stroke: black; stroke-width: 2px; fill: white; fill-opacity: 0.95;"></rect><text lineHeight="1.2" class="djs-label" style="font-family: Arial, sans-serif; font-size: 12px; font-weight: normal; fill: black;"><tspan x="10.3037109375" y="53.599999999999994">Cancel arrangement</tspan></text></g><rect class="djs-hit djs-hit-all" x="0" y="0" width="130" height="100" style="fill: none; stroke-opacity: 0; stroke: white; stroke-width: 15px;"></rect><rect x="-6" y="-6" width="142" height="112" class="djs-outline" style="fill: none;"></rect></g></g><g class="djs-group"><g class="djs-element djs-shape" data-element-id="Activity_1m2oq1f" style="display: block;" transform="matrix(1 0 0 1 107 -4770)"><g class="djs-visual"><rect x="0" y="0" width="130" height="100" rx="10" ry="10" style="stroke: black; stroke-width: 2px; fill: white; fill-opacity: 0.95;"></rect><text lineHeight="1.2" class="djs-label" style="font-family: Arial, sans-serif; font-size: 12px; font-weight: normal; fill: black;"><tspan x="5.8037109375" y="46.4">Select arrangement to</tspan><tspan x="31.1455078125" y="60.8">be cancelled</tspan></text></g><rect class="djs-hit djs-hit-all" x="0" y="0" width="130" height="100" style="fill: none; stroke-opacity: 0; stroke: white; stroke-width: 15px;"></rect><rect x="-6" y="-6" width="142" height="112" class="djs-outline" style="fill: none;"></rect></g></g><g class="djs-group"><g class="djs-element djs-shape" data-element-id="Activity_0lhfd1o" style="display: block;" transform="matrix(1 0 0 1 107 -4470)"><g class="djs-visual"><rect x="0" y="0" width="130" height="100" rx="10" ry="10" style="stroke: black; stroke-width: 2px; fill: white; fill-opacity: 0.95;"></rect><text lineHeight="1.2" class="djs-label" style="font-family: Arial, sans-serif; font-size: 12px; font-weight: normal; fill: black;"><tspan x="15.640625" y="53.599999999999994">Select new activity</tspan></text></g><rect class="djs-hit djs-hit-all" x="0" y="0" width="130" height="100" style="fill: none; stroke-opacity: 0; stroke: white; stroke-width: 15px;"></rect><rect x="-6" y="-6" width="142" height="112" class="djs-outline" style="fill: none;"></rect></g></g><g class="djs-group"><g class="djs-element djs-shape" data-element-id="Activity_1kr3dvm" style="display: block;" transform="matrix(1 0 0 1 102 -4160)"><g class="djs-visual"><rect x="0" y="0" width="130" height="100" rx="10" ry="10" style="stroke: black; stroke-width: 2px; fill: white; fill-opacity: 0.95;"></rect><text lineHeight="1.2" class="djs-label" style="font-family: Arial, sans-serif; font-size: 12px; font-weight: normal; fill: black;"><tspan x="16.482421875" y="53.599999999999994">Perform validation</tspan></text></g><rect class="djs-hit djs-hit-all" x="0" y="0" width="130" height="100" style="fill: none; stroke-opacity: 0; stroke: white; stroke-width: 15px;"></rect><rect x="-6" y="-6" width="142" height="112" class="djs-outline" style="fill: none;"></rect></g></g><g class="djs-group"><g class="djs-element djs-shape" data-element-id="Activity_02hlawl" style="display: block;" transform="matrix(1 0 0 1 365 -3900)"><g class="djs-visual"><rect x="0" y="0" width="130" height="100" rx="10" ry="10" style="stroke: black; stroke-width: 2px; fill: white; fill-opacity: 0.95;"></rect><text lineHeight="1.2" class="djs-label" style="font-family: Arial, sans-serif; font-size: 12px; font-weight: normal; fill: black;"><tspan x="30.490234375" y="53.599999999999994">Display error</tspan></text></g><rect class="djs-hit djs-hit-all" x="0" y="0" width="130" height="100" style="fill: none; stroke-opacity: 0; stroke: white; stroke-width: 15px;"></rect><rect x="-6" y="-6" width="142" height="112" class="djs-outline" style="fill: none;"></rect></g></g><g class="djs-group"><g class="djs-element djs-shape" data-element-id="Activity_1ok12js" style="display: block;" transform="matrix(1 0 0 1 107 -5110)"><g class="djs-visual"><rect x="0" y="0" width="130" height="100" rx="10" ry="10" style="stroke: black; stroke-width: 2px; fill: white; fill-opacity: 0.95;"></rect><text lineHeight="1.2" class="djs-label" style="font-family: Arial, sans-serif; font-size: 12px; font-weight: normal; fill: black;"><tspan x="12.47265625" y="39.2">Receive request for </tspan><tspan x="33.1494140625" y="53.6">cancellation </tspan><tspan x="30.6474609375" y="68">arrangement</tspan></text></g><rect class="djs-hit djs-hit-all" x="0" y="0" width="130" height="100" style="fill: none; stroke-opacity: 0; stroke: white; stroke-width: 15px;"></rect><rect x="-6" y="-6" width="142" height="112" class="djs-outline" style="fill: none;"></rect></g></g><g class="djs-group"><g class="djs-element djs-shape" data-element-id="DataObjectReference_1urz60t" style="display: block;" transform="matrix(1 0 0 1 22 -5085)"><g class="djs-visual"><path d="m 0,0 28.23529411764706,0 7.058823529411765,8.196721311475411 0,40.98360655737705 -35.294117647058826,0 0,-49.18032786885246 28.23529411764706,0 0,8.196721311475411 7.058823529411765,0" style="fill: white; stroke-width: 2px; stroke: black; fill-opacity: 0.95;"></path></g><rect class="djs-hit djs-hit-all" x="0" y="0" width="36" height="50" style="fill: none; stroke-opacity: 0; stroke: white; stroke-width: 15px;"></rect><rect x="-6" y="-6" width="48" height="62" class="djs-outline" style="fill: none;"></rect></g></g><g class="djs-group"><g class="djs-element djs-shape" data-element-id="DataObjectReference_1urz60t_label" style="display: block;" transform="matrix(1 0 0 1 -6 -5035)"><g class="djs-visual"><text lineHeight="1.2" class="djs-label" style="font-family: Arial, sans-serif; font-size: 11px; font-weight: normal; fill: black;"><tspan x="0" y="9.899999999999999">Customer Request</tspan></text></g><rect class="djs-hit djs-hit-all" x="0" y="0" width="93" height="14" style="fill: none; stroke-opacity: 0; stroke: white; stroke-width: 15px;"></rect><rect x="-6" y="-6" width="105" height="26" class="djs-outline" style="fill: none;"></rect></g></g><g class="djs-group"><g class="djs-element djs-shape" data-element-id="Activity_1r92ni1" style="display: block;" transform="matrix(1 0 0 1 365 -3720)"><g class="djs-visual"><rect x="0" y="0" width="130" height="100" rx="10" ry="10" style="stroke: black; stroke-width: 2px; fill: white; fill-opacity: 0.95;"></rect><text lineHeight="1.2" class="djs-label" style="font-family: Arial, sans-serif; font-size: 12px; font-weight: normal; fill: black;"><tspan x="21.1533203125" y="53.599999999999994">Inform customer</tspan></text></g><rect class="djs-hit djs-hit-all" x="0" y="0" width="130" height="100" style="fill: none; stroke-opacity: 0; stroke: white; stroke-width: 15px;"></rect><rect x="-6" y="-6" width="142" height="112" class="djs-outline" style="fill: none;"></rect></g></g><g class="djs-group"><g class="djs-element djs-shape" data-element-id="TextAnnotation_177ch0s" style="display: block;" transform="matrix(1 0 0 1 250 -3740)"><g class="djs-visual"><rect x="0" y="0" width="120" height="27" rx="0" ry="0" style="stroke: none; stroke-width: 2px; fill: none;"></rect><path d="m 0, 0 m 10,0 l -10,0 l 0,27 l 10,0" style="fill: none; stroke-width: 2px; stroke: black;"></path><text lineHeight="1.2" class="djs-label" style="font-family: Arial, sans-serif; font-size: 12px; font-weight: normal; fill: black;"><tspan x="5" y="15.799999999999999">Arrangement ID</tspan></text></g><rect class="djs-hit djs-hit-all" x="0" y="0" width="120" height="27" style="fill: none; stroke-opacity: 0; stroke: white; stroke-width: 15px;"></rect><rect x="-6" y="-6" width="132" height="39" class="djs-outline" style="fill: none;"></rect></g></g><g class="djs-group"><g class="djs-element djs-shape" data-element-id="TextAnnotation_1oe5ksw" style="display: block;" transform="matrix(1 0 0 1 285 -4770)"><g class="djs-visual"><rect x="0" y="0" width="110" height="26" rx="0" ry="0" style="stroke: none; stroke-width: 2px; fill: none;"></rect><path d="m 0, 0 m 10,0 l -10,0 l 0,26 l 10,0" style="fill: none; stroke-width: 2px; stroke: black;"></path><text lineHeight="1.2" class="djs-label" style="font-family: Arial, sans-serif; font-size: 12px; font-weight: normal; fill: black;"><tspan x="5" y="15.799999999999999">Arrangement ID</tspan></text></g><rect class="djs-hit djs-hit-all" x="0" y="0" width="110" height="26" style="fill: none; stroke-opacity: 0; stroke: white; stroke-width: 15px;"></rect><rect x="-6" y="-6" width="122" height="38" class="djs-outline" style="fill: none;"></rect></g></g><g class="djs-group"><g class="djs-element djs-shape" data-element-id="TextAnnotation_13461fr" style="display: block;" transform="matrix(1 0 0 1 280 -4500)"><g class="djs-visual"><rect x="0" y="0" width="140" height="26" rx="0" ry="0" style="stroke: none; stroke-width: 2px; fill: none;"></rect><path d="m 0, 0 m 10,0 l -10,0 l 0,26 l 10,0" style="fill: none; stroke-width: 2px; stroke: black;"></path><text lineHeight="1.2" class="djs-label" style="font-family: Arial, sans-serif; font-size: 12px; font-weight: normal; fill: black;"><tspan x="5" y="15.799999999999999">'Do Activity Today'</tspan></text></g><rect class="djs-hit djs-hit-all" x="0" y="0" width="140" height="26" style="fill: none; stroke-opacity: 0; stroke: white; stroke-width: 15px;"></rect><rect x="-6" y="-6" width="152" height="38" class="djs-outline" style="fill: none;"></rect></g></g><g class="djs-group"><g class="djs-element djs-shape" data-element-id="TextAnnotation_0k1aj23" style="display: block;" transform="matrix(1 0 0 1 250 -3560)"><g class="djs-visual"><rect x="0" y="0" width="155" height="40" rx="0" ry="0" style="stroke: none; stroke-width: 2px; fill: none;"></rect><path d="m 0, 0 m 10,0 l -10,0 l 0,40 l 10,0" style="fill: none; stroke-width: 2px; stroke: black;"></path><text lineHeight="1.2" class="djs-label" style="font-family: Arial, sans-serif; font-size: 12px; font-weight: normal; fill: black;"><tspan x="5" y="15.799999999999999">Arrangement status </tspan><tspan x="5" y="30.199999999999996">updated as 'Cancelled'</tspan></text></g><rect class="djs-hit djs-hit-all" x="0" y="0" width="155" height="40" style="fill: none; stroke-opacity: 0; stroke: white; stroke-width: 15px;"></rect><rect x="-6" y="-6" width="167" height="52" class="djs-outline" style="fill: none;"></rect></g></g><g class="djs-group"><g class="djs-element djs-shape" data-element-id="TextAnnotation_0sr9kcq" style="display: block;" transform="matrix(1 0 0 1 540 -3910)"><g class="djs-visual"><rect x="0" y="0" width="120" height="70" rx="0" ry="0" style="stroke: none; stroke-width: 2px; fill: none;"></rect><path d="m 0, 0 m 10,0 l -10,0 l 0,70 l 10,0" style="fill: none; stroke-width: 2px; stroke: black;"></path><text lineHeight="1.2" class="djs-label" style="font-family: Arial, sans-serif; font-size: 12px; font-weight: normal; fill: black;"><tspan x="5" y="15.799999999999999">'Cancellation not </tspan><tspan x="5" y="30.199999999999996">allowed post </tspan><tspan x="5" y="44.599999999999994">activation of </tspan><tspan x="5" y="58.99999999999999">arrangement'</tspan></text></g><rect class="djs-hit djs-hit-all" x="0" y="0" width="120" height="70" style="fill: none; stroke-opacity: 0; stroke: white; stroke-width: 15px;"></rect><rect x="-6" y="-6" width="132" height="82" class="djs-outline" style="fill: none;"></rect></g></g><g class="djs-group"><g class="djs-element djs-shape" data-element-id="TextAnnotation_0uxfaw1" style="display: block;" transform="matrix(1 0 0 1 278 -4170)"><g class="djs-visual"><rect x="0" y="0" width="162" height="41" rx="0" ry="0" style="stroke: none; stroke-width: 2px; fill: none;"></rect><path d="m 0, 0 m 10,0 l -10,0 l 0,41 l 10,0" style="fill: none; stroke-width: 2px; stroke: black;"></path><text lineHeight="1.2" class="djs-label" style="font-family: Arial, sans-serif; font-size: 12px; font-weight: normal; fill: black;"><tspan x="5" y="15.799999999999999">Arrangement status </tspan><tspan x="5" y="30.199999999999996">(Activated/ Not activated)</tspan></text></g><rect class="djs-hit djs-hit-all" x="0" y="0" width="162" height="41" style="fill: none; stroke-opacity: 0; stroke: white; stroke-width: 15px;"></rect><rect x="-6" y="-6" width="174" height="53" class="djs-outline" style="fill: none;"></rect></g></g><g class="djs-group"><g class="djs-element djs-shape" data-element-id="Flow_0vcb63v_label" style="display: block;" transform="matrix(1 0 0 1 430 -3967)"><g class="djs-visual"><text lineHeight="1.2" class="djs-label" style="font-family: Arial, sans-serif; font-size: 11px; font-weight: normal; fill: black;"><tspan x="1.935791015625" y="9.899999999999999">Arrangement status </tspan><tspan x="0" y="23.099999999999998">- Current (Activated)</tspan></text></g><rect class="djs-hit djs-hit-all" x="0" y="0" width="100" height="27" style="fill: none; stroke-opacity: 0; stroke: white; stroke-width: 15px;"></rect><rect x="-6" y="-6" width="112" height="39" class="djs-outline" style="fill: none;"></rect></g></g><g class="djs-group"><g class="djs-element djs-shape" data-element-id="Flow_057hsh2_label" style="display: block;" transform="matrix(1 0 0 1 171 -3967)"><g class="djs-visual"><text lineHeight="1.2" class="djs-label" style="font-family: Arial, sans-serif; font-size: 11px; font-weight: normal; fill: black;"><tspan x="3.8876953125" y="9.899999999999999">Arrangement status </tspan><tspan x="0" y="23.099999999999998">- Authorised (Not acti</tspan><tspan x="36.67919921875" y="36.3">vated)</tspan></text></g><rect class="djs-hit djs-hit-all" x="0" y="0" width="98" height="40" style="fill: none; stroke-opacity: 0; stroke: white; stroke-width: 15px;"></rect><rect x="-6" y="-6" width="110" height="52" class="djs-outline" style="fill: none;"></rect></g></g><g class="djs-group"><g class="djs-element djs-connection" data-element-id="DataInputAssociation_1s6fou7" style="display: block;"><g class="djs-visual"><polyline points="58,-5060 107,-5060 " style="fill: none; stroke: black; stroke-width: 2px; stroke-dasharray: 0.5, 5; stroke-linecap: round; stroke-linejoin: round; marker-end: url(&quot;#association-end-white-black-b8hiatrgk1k9oudgyvyu19ucc&quot;);"></polyline></g><polyline points="58,-5060 107,-5060 " class="djs-hit djs-hit-stroke" style="fill: none; stroke-opacity: 0; stroke: white; stroke-width: 15px;"></polyline><rect x="52" y="-5066" width="61" height="12" class="djs-outline" style="fill: none;"></rect></g></g><g class="djs-group"><g class="djs-element djs-connection" data-element-id="Association_1wzgb2s" style="display: block;"><g class="djs-visual"><polyline points="232,-3707 250,-3719 " style="fill: none; stroke: black; stroke-width: 2px; stroke-dasharray: 0.5, 5; stroke-linecap: round; stroke-linejoin: round;"></polyline></g><polyline points="232,-3707 250,-3719 " class="djs-hit djs-hit-stroke" style="fill: none; stroke-opacity: 0; stroke: white; stroke-width: 15px;"></polyline><rect x="226" y="-3725" width="30" height="24" class="djs-outline" style="fill: none;"></rect></g></g><g class="djs-group"><g class="djs-element djs-connection" data-element-id="Association_07agent" style="display: block;"><g class="djs-visual"><polyline points="237,-4457 280,-4483 " style="fill: none; stroke: black; stroke-width: 2px; stroke-dasharray: 0.5, 5; stroke-linecap: round; stroke-linejoin: round;"></polyline></g><polyline points="237,-4457 280,-4483 " class="djs-hit djs-hit-stroke" style="fill: none; stroke-opacity: 0; stroke: white; stroke-width: 15px;"></polyline><rect x="231" y="-4489" width="55" height="38" class="djs-outline" style="fill: none;"></rect></g></g><g class="djs-group"><g class="djs-element djs-connection" data-element-id="Association_1ms34f4" style="display: block;"><g class="djs-visual"><polyline points="232,-3518 250,-3526 " style="fill: none; stroke: black; stroke-width: 2px; stroke-dasharray: 0.5, 5; stroke-linecap: round; stroke-linejoin: round;"></polyline></g><polyline points="232,-3518 250,-3526 " class="djs-hit djs-hit-stroke" style="fill: none; stroke-opacity: 0; stroke: white; stroke-width: 15px;"></polyline><rect x="226" y="-3532" width="30" height="20" class="djs-outline" style="fill: none;"></rect></g></g><g class="djs-group"><g class="djs-element djs-connection" data-element-id="Association_12sqrv4" style="display: block;"><g class="djs-visual"><polyline points="237,-4742 285,-4757 " style="fill: none; stroke: black; stroke-width: 2px; stroke-dasharray: 0.5, 5; stroke-linecap: round; stroke-linejoin: round;"></polyline></g><polyline points="237,-4742 285,-4757 " class="djs-hit djs-hit-stroke" style="fill: none; stroke-opacity: 0; stroke: white; stroke-width: 15px;"></polyline><rect x="231" y="-4763" width="60" height="27" class="djs-outline" style="fill: none;"></rect></g></g><g class="djs-group"><g class="djs-element djs-connection" data-element-id="Association_0vc3ty9" style="display: block;"><g class="djs-visual"><polyline points="495,-3868 540,-3881 " style="fill: none; stroke: black; stroke-width: 2px; stroke-dasharray: 0.5, 5; stroke-linecap: round; stroke-linejoin: round;"></polyline></g><polyline points="495,-3868 540,-3881 " class="djs-hit djs-hit-stroke" style="fill: none; stroke-opacity: 0; stroke: white; stroke-width: 15px;"></polyline><rect x="489" y="-3887" width="57" height="25" class="djs-outline" style="fill: none;"></rect></g></g><g class="djs-group"><g class="djs-element djs-connection" data-element-id="Association_0yfjtoq" style="display: block;"><g class="djs-visual"><polyline points="232,-4128 278,-4141 " style="fill: none; stroke: black; stroke-width: 2px; stroke-dasharray: 0.5, 5; stroke-linecap: round; stroke-linejoin: round;"></polyline></g><polyline points="232,-4128 278,-4141 " class="djs-hit djs-hit-stroke" style="fill: none; stroke-opacity: 0; stroke: white; stroke-width: 15px;"></polyline><rect x="226" y="-4147" width="58" height="25" class="djs-outline" style="fill: none;"></rect></g></g></g></g><defs><marker id="sequenceflow-end-white-black-b8hiatrgk1k9oudgyvyu19ucc" viewBox="0 0 20 20" refX="11" refY="10" markerWidth="10" markerHeight="10" orient="auto"><path d="M 1 5 L 11 10 L 1 15 Z" style="fill: black; stroke-width: 1px; stroke-linecap: round; stroke-dasharray: 10000, 1; stroke: black;"></path></marker><marker id="association-end-white-black-b8hiatrgk1k9oudgyvyu19ucc" viewBox="0 0 20 20" refX="12" refY="10" markerWidth="10" markerHeight="10" orient="auto"><path d="M 1 5 L 11 10 L 1 15" style="fill: none; stroke-width: 1.5px; stroke-linecap: round; stroke-dasharray: 10000, 1; stroke: black;"></path></marker></defs></svg>