<svg width="100%" height="100%" viewBox="-50, -422, 1835, 3087"><g><g class="djs-visual" id="Flow_07aiedc" transform="translate(0 0)"><path d="m  210,245L210,310 " style="fill: none; stroke-width: 2px; stroke: black; stroke-linejoin: round; marker-end: url(&quot;#sequenceflow-end-white-black-7f70vagg7f8ecq2dlfnhc5pf1&quot;);"></path></g><g class="djs-visual" id="Flow_0eh49v7" transform="translate(0 0)"><path d="m  610,120L610,220 L235,220 " style="fill: none; stroke-width: 2px; stroke: black; stroke-linejoin: round; marker-end: url(&quot;#sequenceflow-end-white-black-7f70vagg7f8ecq2dlfnhc5pf1&quot;);"></path></g><g class="djs-visual" id="Flow_0m58d2n" transform="translate(0 0)"><path d="m  235,-110L610,-110 L610,20 " style="fill: none; stroke-width: 2px; stroke: black; stroke-linejoin: round; marker-end: url(&quot;#sequenceflow-end-white-black-7f70vagg7f8ecq2dlfnhc5pf1&quot;);"></path></g><g class="djs-visual" id="Flow_1dk6igc" transform="translate(0 0)"><path d="m  210,-85L210,20 " style="fill: none; stroke-width: 2px; stroke: black; stroke-linejoin: round; marker-end: url(&quot;#sequenceflow-end-white-black-7f70vagg7f8ecq2dlfnhc5pf1&quot;);"></path></g><g class="djs-visual" id="Flow_0i6ycjq" transform="translate(0 0)"><path d="m  210,2490L210,2552 " style="fill: none; stroke-width: 2px; stroke: black; stroke-linejoin: round; marker-end: url(&quot;#sequenceflow-end-white-black-7f70vagg7f8ecq2dlfnhc5pf1&quot;);"></path></g><g class="djs-visual" id="Flow_0fmz5kx" transform="translate(0 0)"><path d="m  210,2240L210,2390 " style="fill: none; stroke-width: 2px; stroke: black; stroke-linejoin: round; marker-end: url(&quot;#sequenceflow-end-white-black-7f70vagg7f8ecq2dlfnhc5pf1&quot;);"></path></g><g class="djs-visual" id="Flow_0kf9j2m" transform="translate(0 0)"><path d="m  210,2070L210,2140 " style="fill: none; stroke-width: 2px; stroke: black; stroke-linejoin: round; marker-end: url(&quot;#sequenceflow-end-white-black-7f70vagg7f8ecq2dlfnhc5pf1&quot;);"></path></g><g class="djs-visual" id="Flow_1hhqz4q" transform="translate(0 0)"><path d="m  210,1900L210,1970 " style="fill: none; stroke-width: 2px; stroke: black; stroke-linejoin: round; marker-end: url(&quot;#sequenceflow-end-white-black-7f70vagg7f8ecq2dlfnhc5pf1&quot;);"></path></g><g class="djs-visual" id="Flow_183anfs" transform="translate(0 0)"><path d="m  235,1710L620,1710 L620,1120 L235,1120 " style="fill: none; stroke-width: 2px; stroke: black; stroke-linejoin: round; marker-end: url(&quot;#sequenceflow-end-white-black-7f70vagg7f8ecq2dlfnhc5pf1&quot;);"></path></g><g class="djs-visual" id="Flow_0awdhvj" transform="translate(0 0)"><path d="m  210,1735L210,1800 " style="fill: none; stroke-width: 2px; stroke: black; stroke-linejoin: round; marker-end: url(&quot;#sequenceflow-end-white-black-7f70vagg7f8ecq2dlfnhc5pf1&quot;);"></path></g><g class="djs-visual" id="Flow_1x2axfi" transform="translate(0 0)"><path d="m  210,1630L210,1685 " style="fill: none; stroke-width: 2px; stroke: black; stroke-linejoin: round; marker-end: url(&quot;#sequenceflow-end-white-black-7f70vagg7f8ecq2dlfnhc5pf1&quot;);"></path></g><g class="djs-visual" id="Flow_1ueeie9" transform="translate(0 0)"><path d="m  210,1460L210,1530 " style="fill: none; stroke-width: 2px; stroke: black; stroke-linejoin: round; marker-end: url(&quot;#sequenceflow-end-white-black-7f70vagg7f8ecq2dlfnhc5pf1&quot;);"></path></g><g class="djs-visual" id="Flow_056z17f" transform="translate(0 0)"><path d="m  210,1300L210,1360 " style="fill: none; stroke-width: 2px; stroke: black; stroke-linejoin: round; marker-end: url(&quot;#sequenceflow-end-white-black-7f70vagg7f8ecq2dlfnhc5pf1&quot;);"></path></g><g class="djs-visual" id="Flow_19l9pjb" transform="translate(0 0)"><path d="m  210,1145L210,1200 " style="fill: none; stroke-width: 2px; stroke: black; stroke-linejoin: round; marker-end: url(&quot;#sequenceflow-end-white-black-7f70vagg7f8ecq2dlfnhc5pf1&quot;);"></path></g><g class="djs-visual" id="Flow_0wygs45" transform="translate(0 0)"><path d="m  210,1040L210,1095 " style="fill: none; stroke-width: 2px; stroke: black; stroke-linejoin: round; marker-end: url(&quot;#sequenceflow-end-white-black-7f70vagg7f8ecq2dlfnhc5pf1&quot;);"></path></g><g class="djs-visual" id="Flow_0ab9vko" transform="translate(0 0)"><path d="m  210,940L210,840 L930,840 L930,-210 L235,-210 " style="fill: none; stroke-width: 2px; stroke: black; stroke-linejoin: round; marker-end: url(&quot;#sequenceflow-end-white-black-7f70vagg7f8ecq2dlfnhc5pf1&quot;);"></path></g><g class="djs-visual" id="Flow_1rkd5rd" transform="translate(0 0)"><path d="m  210,865L210,940 " style="fill: none; stroke-width: 2px; stroke: black; stroke-linejoin: round; marker-end: url(&quot;#sequenceflow-end-white-black-7f70vagg7f8ecq2dlfnhc5pf1&quot;);"></path></g><g class="djs-visual" id="Flow_0vj2xws" transform="translate(0 0)"><path d="m  210,750L210,815 " style="fill: none; stroke-width: 2px; stroke: black; stroke-linejoin: round; marker-end: url(&quot;#sequenceflow-end-white-black-7f70vagg7f8ecq2dlfnhc5pf1&quot;);"></path></g><g class="djs-visual" id="Flow_0vwden0" transform="translate(0 0)"><path d="m  210,580L210,650 " style="fill: none; stroke-width: 2px; stroke: black; stroke-linejoin: round; marker-end: url(&quot;#sequenceflow-end-white-black-7f70vagg7f8ecq2dlfnhc5pf1&quot;);"></path></g><g class="djs-visual" id="Flow_1hhyp82" transform="translate(0 0)"><path d="m  210,410L210,480 " style="fill: none; stroke-width: 2px; stroke: black; stroke-linejoin: round; marker-end: url(&quot;#sequenceflow-end-white-black-7f70vagg7f8ecq2dlfnhc5pf1&quot;);"></path></g><g class="djs-visual" id="Flow_0p0pjj8" transform="translate(0 0)"><path d="m  210,120L210,195 " style="fill: none; stroke-width: 2px; stroke: black; stroke-linejoin: round; marker-end: url(&quot;#sequenceflow-end-white-black-7f70vagg7f8ecq2dlfnhc5pf1&quot;);"></path></g><g class="djs-visual" id="Flow_1uppojb" transform="translate(0 0)"><path d="m  210,-185L210,-135 " style="fill: none; stroke-width: 2px; stroke: black; stroke-linejoin: round; marker-end: url(&quot;#sequenceflow-end-white-black-7f70vagg7f8ecq2dlfnhc5pf1&quot;);"></path></g><g class="djs-visual" id="Flow_0d0fd80" transform="translate(0 0)"><path d="m  210,-282L210,-235 " style="fill: none; stroke-width: 2px; stroke: black; stroke-linejoin: round; marker-end: url(&quot;#sequenceflow-end-white-black-7f70vagg7f8ecq2dlfnhc5pf1&quot;);"></path></g><g class="djs-visual" id="StartEvent_1bm324f" transform="translate(192 -318)"><circle cx="18" cy="18" r="18" style="stroke: black; stroke-width: 2px; fill: white; fill-opacity: 0.95;"></circle></g><g class="djs-visual" id="StartEvent_1bm324f_label" transform="translate(175 -366)"><text lineHeight="1.2" class="djs-label" style="font-family: Arial, sans-serif; font-size: 11px; font-weight: normal; fill: black;"><tspan x="0" y="9.899999999999999">Distribution of </tspan><tspan x="8.10546875" y="23.099999999999998">profit to be </tspan><tspan x="9.02734375" y="36.3">performed</tspan></text></g><g class="djs-visual" id="Gateway_0a3gr7a" transform="translate(185 -235)"><polygon points="25,0 50,25 25,50 0,25" style="stroke: black; stroke-width: 2px; fill: white; fill-opacity: 0.95;"></polygon><path d="m 16,15 7.42857142857143,9.714285714285715 -7.42857142857143,9.714285714285715 3.428571428571429,0 5.714285714285715,-7.464228571428572 5.714285714285715,7.464228571428572 3.428571428571429,0 -7.42857142857143,-9.714285714285715 7.42857142857143,-9.714285714285715 -3.428571428571429,0 -5.714285714285715,7.464228571428572 -5.714285714285715,-7.464228571428572 -3.428571428571429,0 z" style="fill: black; stroke-width: 1px; stroke: black;"></path></g><g class="djs-visual" id="Activity_06yhssh" transform="translate(145 20)"><rect x="0" y="0" width="130" height="100" rx="10" ry="10" style="stroke: black; stroke-width: 2px; fill: white; fill-opacity: 0.95;"></rect><text lineHeight="1.2" class="djs-label" style="font-family: Arial, sans-serif; font-size: 12px; font-weight: normal; fill: black;"><tspan x="15.47265625" y="46.4">Capture details for </tspan><tspan x="37.8251953125" y="60.8">simulation</tspan></text></g><g class="djs-visual" id="Activity_188zhby" transform="translate(145 310)"><rect x="0" y="0" width="130" height="100" rx="10" ry="10" style="stroke: black; stroke-width: 2px; fill: white; fill-opacity: 0.95;"></rect><text lineHeight="1.2" class="djs-label" style="font-family: Arial, sans-serif; font-size: 12px; font-weight: normal; fill: black;"><tspan x="21.140625" y="53.599999999999994">Authorise details</tspan></text></g><g class="djs-visual" id="Activity_00br5gc" transform="translate(145 480)"><rect x="0" y="0" width="130" height="100" rx="10" ry="10" style="stroke: black; stroke-width: 2px; fill: white; fill-opacity: 0.95;"></rect><text lineHeight="1.2" class="djs-label" style="font-family: Arial, sans-serif; font-size: 12px; font-weight: normal; fill: black;"><tspan x="14.8212890625" y="53.599999999999994">Perform simulation</tspan></text></g><g class="djs-visual" id="Activity_1wu45f9" transform="translate(145 650)"><rect x="0" y="0" width="130" height="100" rx="10" ry="10" style="stroke: black; stroke-width: 2px; fill: white; fill-opacity: 0.95;"></rect><text lineHeight="1.2" class="djs-label" style="font-family: Arial, sans-serif; font-size: 12px; font-weight: normal; fill: black;"><tspan x="24.5947265625" y="46.4">View simulated </tspan><tspan x="17.3046875" y="60.8">calculation results</tspan></text></g><g class="djs-visual" id="Gateway_0tgabhc" transform="translate(185 815)"><polygon points="25,0 50,25 25,50 0,25" style="stroke: black; stroke-width: 2px; fill: white; fill-opacity: 0.95;"></polygon><path d="m 16,15 7.42857142857143,9.714285714285715 -7.42857142857143,9.714285714285715 3.428571428571429,0 5.714285714285715,-7.464228571428572 5.714285714285715,7.464228571428572 3.428571428571429,0 -7.42857142857143,-9.714285714285715 7.42857142857143,-9.714285714285715 -3.428571428571429,0 -5.714285714285715,7.464228571428572 -5.714285714285715,-7.464228571428572 -3.428571428571429,0 z" style="fill: black; stroke-width: 1px; stroke: black;"></path></g><g class="djs-visual" id="Activity_10bmcp3" transform="translate(145 940)"><rect x="0" y="0" width="130" height="100" rx="10" ry="10" style="stroke: black; stroke-width: 2px; fill: white; fill-opacity: 0.95;"></rect><text lineHeight="1.2" class="djs-label" style="font-family: Arial, sans-serif; font-size: 12px; font-weight: normal; fill: black;"><tspan x="18.1435546875" y="46.4">Initiate target rate </tspan><tspan x="46.4853515625" y="60.8">update</tspan></text></g><g class="djs-visual" id="Gateway_0tw516w" transform="translate(185 1095)"><polygon points="25,0 50,25 25,50 0,25" style="stroke: black; stroke-width: 2px; fill: white; fill-opacity: 0.95;"></polygon><path d="m 16,15 7.42857142857143,9.714285714285715 -7.42857142857143,9.714285714285715 3.428571428571429,0 5.714285714285715,-7.464228571428572 5.714285714285715,7.464228571428572 3.428571428571429,0 -7.42857142857143,-9.714285714285715 7.42857142857143,-9.714285714285715 -3.428571428571429,0 -5.714285714285715,7.464228571428572 -5.714285714285715,-7.464228571428572 -3.428571428571429,0 z" style="fill: black; stroke-width: 1px; stroke: black;"></path></g><g class="djs-visual" id="Activity_1o7a1h3" transform="translate(145 1200)"><rect x="0" y="0" width="130" height="100" rx="10" ry="10" style="stroke: black; stroke-width: 2px; fill: white; fill-opacity: 0.95;"></rect><text lineHeight="1.2" class="djs-label" style="font-family: Arial, sans-serif; font-size: 12px; font-weight: normal; fill: black;"><tspan x="19.8017578125" y="39.2">Input spread and </tspan><tspan x="18.806640625" y="53.6">special spread or </tspan><tspan x="37.98828125" y="68">target rate</tspan></text></g><g class="djs-visual" id="Activity_045ge2e" transform="translate(145 1360)"><rect x="0" y="0" width="130" height="100" rx="10" ry="10" style="stroke: black; stroke-width: 2px; fill: white; fill-opacity: 0.95;"></rect><text lineHeight="1.2" class="djs-label" style="font-family: Arial, sans-serif; font-size: 12px; font-weight: normal; fill: black;"><tspan x="11.314453125" y="46.4">Perform target profit </tspan><tspan x="34.4794921875" y="60.8">rate update</tspan></text></g><g class="djs-visual" id="Activity_006x7h3" transform="translate(145 1530)"><rect x="0" y="0" width="130" height="100" rx="10" ry="10" style="stroke: black; stroke-width: 2px; fill: white; fill-opacity: 0.95;"></rect><text lineHeight="1.2" class="djs-label" style="font-family: Arial, sans-serif; font-size: 12px; font-weight: normal; fill: black;"><tspan x="17.9208984375" y="46.4">View recalculated </tspan><tspan x="18.6484375" y="60.8">simulation results</tspan></text></g><g class="djs-visual" id="Gateway_0566wa0" transform="translate(185 1685)"><polygon points="25,0 50,25 25,50 0,25" style="stroke: black; stroke-width: 2px; fill: white; fill-opacity: 0.95;"></polygon><path d="m 16,15 7.42857142857143,9.714285714285715 -7.42857142857143,9.714285714285715 3.428571428571429,0 5.714285714285715,-7.464228571428572 5.714285714285715,7.464228571428572 3.428571428571429,0 -7.42857142857143,-9.714285714285715 7.42857142857143,-9.714285714285715 -3.428571428571429,0 -5.714285714285715,7.464228571428572 -5.714285714285715,-7.464228571428572 -3.428571428571429,0 z" style="fill: black; stroke-width: 1px; stroke: black;"></path></g><g class="djs-visual" id="Activity_1fi3ytk" transform="translate(145 1800)"><rect x="0" y="0" width="130" height="100" rx="10" ry="10" style="stroke: black; stroke-width: 2px; fill: white; fill-opacity: 0.95;"></rect><text lineHeight="1.2" class="djs-label" style="font-family: Arial, sans-serif; font-size: 12px; font-weight: normal; fill: black;"><tspan x="16.4765625" y="53.599999999999994">Initiate distribution</tspan></text></g><g class="djs-visual" id="Activity_1dgppu1" transform="translate(145 1970)"><rect x="0" y="0" width="130" height="100" rx="10" ry="10" style="stroke: black; stroke-width: 2px; fill: white; fill-opacity: 0.95;"></rect><text lineHeight="1.2" class="djs-label" style="font-family: Arial, sans-serif; font-size: 12px; font-weight: normal; fill: black;"><tspan x="9.306640625" y="53.599999999999994">Authorise distribution</tspan></text></g><g class="djs-visual" id="Activity_1s929kb" transform="translate(145 2140)"><rect x="0" y="0" width="130" height="100" rx="10" ry="10" style="stroke: black; stroke-width: 2px; fill: white; fill-opacity: 0.95;"></rect><text lineHeight="1.2" class="djs-label" style="font-family: Arial, sans-serif; font-size: 12px; font-weight: normal; fill: black;"><tspan x="12.8173828125" y="53.599999999999994">Perform distribution</tspan></text></g><g class="djs-visual" id="Activity_04et2ev" transform="translate(145 2390)"><rect x="0" y="0" width="130" height="100" rx="10" ry="10" style="stroke: black; stroke-width: 2px; fill: white; fill-opacity: 0.95;"></rect><text lineHeight="1.2" class="djs-label" style="font-family: Arial, sans-serif; font-size: 12px; font-weight: normal; fill: black;"><tspan x="9.1318359375" y="46.4">Generate accounting </tspan><tspan x="46.984375" y="60.8">entries</tspan></text></g><g class="djs-visual" id="Event_0i9qfwh" transform="translate(192 2552)"><circle cx="18" cy="18" r="18" style="stroke: black; stroke-width: 4px; fill: white; fill-opacity: 0.95;"></circle></g><g class="djs-visual" id="Event_0i9qfwh_label" transform="translate(170 2595)"><text lineHeight="1.2" class="djs-label" style="font-family: Arial, sans-serif; font-size: 11px; font-weight: normal; fill: black;"><tspan x="0" y="9.899999999999999">Profit distributed</tspan></text></g><g class="djs-visual" id="Activity_1osdw4g" transform="translate(545 20)"><rect x="0" y="0" width="130" height="100" rx="10" ry="10" style="stroke: black; stroke-width: 2px; fill: white; fill-opacity: 0.95;"></rect><text lineHeight="1.2" class="djs-label" style="font-family: Arial, sans-serif; font-size: 12px; font-weight: normal; fill: black;"><tspan x="15.47265625" y="46.4">Capture details for </tspan><tspan x="37.8251953125" y="60.8">simulation</tspan></text></g><g class="djs-visual" id="Gateway_0efl90m" transform="translate(185 -135)"><polygon points="25,0 50,25 25,50 0,25" style="stroke: black; stroke-width: 2px; fill: white; fill-opacity: 0.95;"></polygon><path d="m 16,15 7.42857142857143,9.714285714285715 -7.42857142857143,9.714285714285715 3.428571428571429,0 5.714285714285715,-7.464228571428572 5.714285714285715,7.464228571428572 3.428571428571429,0 -7.42857142857143,-9.714285714285715 7.42857142857143,-9.714285714285715 -3.428571428571429,0 -5.714285714285715,7.464228571428572 -5.714285714285715,-7.464228571428572 -3.428571428571429,0 z" style="fill: black; stroke-width: 1px; stroke: black;"></path></g><g class="djs-visual" id="Gateway_0zkhcdl" transform="translate(185 195)"><polygon points="25,0 50,25 25,50 0,25" style="stroke: black; stroke-width: 2px; fill: white; fill-opacity: 0.95;"></polygon><path d="m 16,15 7.42857142857143,9.714285714285715 -7.42857142857143,9.714285714285715 3.428571428571429,0 5.714285714285715,-7.464228571428572 5.714285714285715,7.464228571428572 3.428571428571429,0 -7.42857142857143,-9.714285714285715 7.42857142857143,-9.714285714285715 -3.428571428571429,0 -5.714285714285715,7.464228571428572 -5.714285714285715,-7.464228571428572 -3.428571428571429,0 z" style="fill: black; stroke-width: 1px; stroke: black;"></path></g><g class="djs-visual" id="TextAnnotation_16fufh7" transform="translate(330 35)"><rect x="0" y="0" width="170" height="70" rx="0" ry="0" style="stroke: none; stroke-width: 2px; fill: none;"></rect><path d="m 0, 0 m 10,0 l -10,0 l 0,70 l 10,0" style="fill: none; stroke-width: 2px; stroke: black;"></path><text lineHeight="1.2" class="djs-label" style="font-family: Arial, sans-serif; font-size: 12px; font-weight: normal; fill: black;"><tspan x="5" y="15.799999999999999">- Pool ID (upto13 characters)&nbsp; </tspan><tspan x="5" y="30.199999999999996">- Start Date&nbsp; &nbsp; &nbsp; &nbsp; &nbsp; &nbsp; &nbsp; &nbsp; &nbsp; &nbsp; &nbsp; &nbsp; &nbsp;</tspan><tspan x="5" y="44.599999999999994">- End Date&nbsp; &nbsp; &nbsp; &nbsp; &nbsp; &nbsp; &nbsp; &nbsp; &nbsp; &nbsp; &nbsp; &nbsp; &nbsp; </tspan><tspan x="5" y="58.99999999999999">- Action 'Simulation'</tspan></text></g><g class="djs-visual" id="TextAnnotation_0qefy9l" transform="translate(330 400)"><rect x="0" y="0" width="200" height="74" rx="0" ry="0" style="stroke: none; stroke-width: 2px; fill: none;"></rect><path d="m 0, 0 m 10,0 l -10,0 l 0,74 l 10,0" style="fill: none; stroke-width: 2px; stroke: black;"></path><text lineHeight="1.2" class="djs-label" style="font-family: Arial, sans-serif; font-size: 12px; font-weight: normal; fill: black;"><tspan x="5" y="15.799999999999999">Initiate TSA services for simulation</tspan><tspan x="5" y="30.199999999999996">- ID.PROFIT.CALCULATION&nbsp; &nbsp; &nbsp; &nbsp; &nbsp; &nbsp; </tspan><tspan x="5" y="44.599999999999994">- ID.POOL.BALANCES&nbsp; &nbsp; &nbsp; &nbsp; &nbsp; &nbsp; &nbsp; &nbsp; </tspan><tspan x="5" y="58.99999999999999">- ID.SIMULATION.CALC</tspan></text></g><g class="djs-visual" id="TextAnnotation_1yq5kqh" transform="translate(330 1290)"><rect x="0" y="0" width="180" height="60" rx="0" ry="0" style="stroke: none; stroke-width: 2px; fill: none;"></rect><path d="m 0, 0 m 10,0 l -10,0 l 0,60 l 10,0" style="fill: none; stroke-width: 2px; stroke: black;"></path><text lineHeight="1.2" class="djs-label" style="font-family: Arial, sans-serif; font-size: 12px; font-weight: normal; fill: black;"><tspan x="5" y="15.799999999999999">Initiate TSA services </tspan><tspan x="5" y="30.199999999999996">ID.TARGET.UPDATE for target </tspan><tspan x="5" y="44.599999999999994">updation</tspan></text></g><g class="djs-visual" id="TextAnnotation_1duxk3n" transform="translate(330 2190)"><rect x="0" y="0" width="470" height="213" rx="0" ry="0" style="stroke: none; stroke-width: 2px; fill: none;"></rect><path d="m 0, 0 m 10,0 l -10,0 l 0,213 l 10,0" style="fill: none; stroke-width: 2px; stroke: black;"></path><text lineHeight="1.2" class="djs-label" style="font-family: Arial, sans-serif; font-size: 12px; font-weight: normal; fill: black;"><tspan x="5" y="15.799999999999999">If the funds are moved to PER/ IRR/ Shareholder Expenses account</tspan><tspan x="5" y="30.199999999999996">Dr Profit &amp; Loss account (Profit Expenses)</tspan><tspan x="5" y="44.599999999999994">Cr Profit reserve account (PER)/ Profit reserve account (IRR)/ Shareholder expenses </tspan><tspan x="5" y="58.99999999999999">account</tspan><tspan x="5" y="73.39999999999999">If the funds are moved from PER/ IRR/ Shareholder Expenses account</tspan><tspan x="5" y="87.79999999999998">Dr Profit reserve account (PER)/ Profit reserve account (IRR)/ Shareholder expenses </tspan><tspan x="5" y="102.19999999999999">account</tspan><tspan x="5" y="116.6">Cr Profit &amp; Loss account (Profit Expenses)</tspan><tspan x="5" y="131">For special incentive paid to depositors</tspan><tspan x="5" y="145.4">Dr HIBA Payable account</tspan><tspan x="5" y="159.8">Cr Profit &amp; Loss account (Profit Expenses)</tspan><tspan x="5" y="174.20000000000002">For Mudarib share</tspan><tspan x="5" y="188.60000000000002">Dr Profit &amp; Loss account (Profit Expenses)</tspan><tspan x="5" y="203.00000000000003">Cr Mudarib Fee account</tspan></text></g><g class="djs-visual" id="TextAnnotation_14c89rz" transform="translate(330 2060)"><rect x="0" y="0" width="260" height="50" rx="0" ry="0" style="stroke: none; stroke-width: 2px; fill: none;"></rect><path d="m 0, 0 m 10,0 l -10,0 l 0,50 l 10,0" style="fill: none; stroke-width: 2px; stroke: black;"></path><text lineHeight="1.2" class="djs-label" style="font-family: Arial, sans-serif; font-size: 12px; font-weight: normal; fill: black;"><tspan x="5" y="15.799999999999999">Initiate TSA services </tspan><tspan x="5" y="30.199999999999996">ID.PROFIT.DISTRIBUTION for Profit </tspan><tspan x="5" y="44.599999999999994">Distribution</tspan></text></g><g class="djs-visual" id="TextAnnotation_0gcsygt" transform="translate(350 900)"><rect x="0" y="0" width="130" height="36" rx="0" ry="0" style="stroke: none; stroke-width: 2px; fill: none;"></rect><path d="m 0, 0 m 10,0 l -10,0 l 0,36 l 10,0" style="fill: none; stroke-width: 2px; stroke: black;"></path><text lineHeight="1.2" class="djs-label" style="font-family: Arial, sans-serif; font-size: 12px; font-weight: normal; fill: black;"><tspan x="5" y="15.799999999999999">- Action 'TargetUpdate'</tspan></text></g><g class="djs-visual" id="TextAnnotation_1418sgp" transform="translate(730 35)"><rect x="0" y="0" width="170" height="69" rx="0" ry="0" style="stroke: none; stroke-width: 2px; fill: none;"></rect><path d="m 0, 0 m 10,0 l -10,0 l 0,69 l 10,0" style="fill: none; stroke-width: 2px; stroke: black;"></path><text lineHeight="1.2" class="djs-label" style="font-family: Arial, sans-serif; font-size: 12px; font-weight: normal; fill: black;"><tspan x="5" y="15.799999999999999">- Pool ID (upto13 characters) </tspan><tspan x="5" y="30.199999999999996">- Start Date&nbsp; &nbsp; &nbsp; &nbsp; &nbsp; &nbsp; &nbsp; &nbsp; &nbsp; &nbsp; &nbsp; &nbsp; &nbsp;</tspan><tspan x="5" y="44.599999999999994">- End Date&nbsp; &nbsp; &nbsp; &nbsp; &nbsp; &nbsp; &nbsp; &nbsp; &nbsp; &nbsp; &nbsp; &nbsp; &nbsp;</tspan><tspan x="5" y="58.99999999999999">- Action 'PMSimulation'</tspan></text></g><g class="djs-visual" id="Flow_1rkd5rd_label" transform="translate(221 880)"><text lineHeight="1.2" class="djs-label" style="font-family: Arial, sans-serif; font-size: 11px; font-weight: normal; fill: black;"><tspan x="0.70458984375" y="9.899999999999999">Confirm profit </tspan><tspan x="0" y="23.099999999999998">distribution as </tspan><tspan x="10.6455078125" y="36.3">simulated</tspan></text></g><g class="djs-visual" id="Flow_0ab9vko_label" transform="translate(358 796)"><text lineHeight="1.2" class="djs-label" style="font-family: Arial, sans-serif; font-size: 11px; font-weight: normal; fill: black;"><tspan x="0" y="9.899999999999999">Resimulation </tspan><tspan x="11.6171875" y="23.099999999999998">required</tspan></text></g><g class="djs-visual" id="Flow_0awdhvj_label" transform="translate(216 1746)"><text lineHeight="1.2" class="djs-label" style="font-family: Arial, sans-serif; font-size: 11px; font-weight: normal; fill: black;"><tspan x="0" y="9.899999999999999">Proceed with profit </tspan><tspan x="19.419921875" y="23.099999999999998">distribution</tspan></text></g><g class="djs-visual" id="Flow_183anfs_label" transform="translate(286 1673)"><text lineHeight="1.2" class="djs-label" style="font-family: Arial, sans-serif; font-size: 11px; font-weight: normal; fill: black;"><tspan x="0" y="9.899999999999999">Re-perform target </tspan><tspan x="27.047607421875" y="23.099999999999998">update</tspan></text></g><g class="djs-visual" id="Flow_1dk6igc_label" transform="translate(223 -27)"><text lineHeight="1.2" class="djs-label" style="font-family: Arial, sans-serif; font-size: 11px; font-weight: normal; fill: black;"><tspan x="0" y="9.899999999999999">Core Simulation</tspan></text></g><g class="djs-visual" id="Flow_0m58d2n_label" transform="translate(611 -73)"><text lineHeight="1.2" class="djs-label" style="font-family: Arial, sans-serif; font-size: 11px; font-weight: normal; fill: black;"><tspan x="21.954345703125" y="9.899999999999999">Customised </tspan><tspan x="0" y="23.099999999999998">Simulation to comply </tspan><tspan x="19.087158203125" y="36.3">with Pakistan </tspan><tspan x="24.696533203125" y="49.5">Regulation</tspan></text></g><g class="djs-visual" id="Association_1qdr1yo" transform="translate(0 0)"><polyline points="275,55 330,44 " style="fill: none; stroke: black; stroke-width: 2px; stroke-dasharray: 0.5, 5; stroke-linecap: round; stroke-linejoin: round;"></polyline></g><g class="djs-visual" id="Association_0kfiqfa" transform="translate(0 0)"><polyline points="274,487 330,449 " style="fill: none; stroke: black; stroke-width: 2px; stroke-dasharray: 0.5, 5; stroke-linecap: round; stroke-linejoin: round;"></polyline></g><g class="djs-visual" id="Association_1e4mvij" transform="translate(0 0)"><polyline points="275,1369 330,1335 " style="fill: none; stroke: black; stroke-width: 2px; stroke-dasharray: 0.5, 5; stroke-linecap: round; stroke-linejoin: round;"></polyline></g><g class="djs-visual" id="Association_0nw4vvn" transform="translate(0 0)"><polyline points="272,2394 330,2351 " style="fill: none; stroke: black; stroke-width: 2px; stroke-dasharray: 0.5, 5; stroke-linecap: round; stroke-linejoin: round;"></polyline></g><g class="djs-visual" id="Association_140ipbi" transform="translate(0 0)"><polyline points="274,2145 330,2107 " style="fill: none; stroke: black; stroke-width: 2px; stroke-dasharray: 0.5, 5; stroke-linecap: round; stroke-linejoin: round;"></polyline></g><g class="djs-visual" id="Association_0pkd6e8" transform="translate(0 0)"><polyline points="275,963 350,931 " style="fill: none; stroke: black; stroke-width: 2px; stroke-dasharray: 0.5, 5; stroke-linecap: round; stroke-linejoin: round;"></polyline></g><g class="djs-visual" id="Association_1agmjft" transform="translate(0 0)"><polyline points="675,59 730,48 " style="fill: none; stroke: black; stroke-width: 2px; stroke-dasharray: 0.5, 5; stroke-linecap: round; stroke-linejoin: round;"></polyline></g></g><g><rect class="viewport" x="-3387.9411764705883" y="-371.92760180995475" width="7850.678733031674" height="2986.425339366516"></rect></g></svg>