<svg width="100%" height="100%" viewBox="-50, -250, 1835, 1878"><g><g class="djs-visual" id="Flow_1fx21jm" transform="translate(0 0)"><path d="m  479,1450L479,1502 " style="fill: none; stroke-width: 2px; stroke: black; stroke-linejoin: round; marker-end: url(&quot;#sequenceflow-end-white-black-04obhlvzh797vk7q1et3r9aog&quot;);"></path></g><g class="djs-visual" id="Flow_1ikc9qq" transform="translate(0 0)"><path d="m  504,1250L690,1250 L690,1382 " style="fill: none; stroke-width: 2px; stroke: black; stroke-linejoin: round; marker-end: url(&quot;#sequenceflow-end-white-black-04obhlvzh797vk7q1et3r9aog&quot;);"></path></g><g class="djs-visual" id="Flow_0c67ckd" transform="translate(0 0)"><path d="m  479,1275L479,1350 " style="fill: none; stroke-width: 2px; stroke: black; stroke-linejoin: round; marker-end: url(&quot;#sequenceflow-end-white-black-04obhlvzh797vk7q1et3r9aog&quot;);"></path></g><g class="djs-visual" id="Flow_0fee6mh" transform="translate(0 0)"><path d="m  479,1160L479,1225 " style="fill: none; stroke-width: 2px; stroke: black; stroke-linejoin: round; marker-end: url(&quot;#sequenceflow-end-white-black-04obhlvzh797vk7q1et3r9aog&quot;);"></path></g><g class="djs-visual" id="Flow_0tztvnv" transform="translate(0 0)"><path d="m  479,990L479,1060 " style="fill: none; stroke-width: 2px; stroke: black; stroke-linejoin: round; marker-end: url(&quot;#sequenceflow-end-white-black-04obhlvzh797vk7q1et3r9aog&quot;);"></path></g><g class="djs-visual" id="Flow_18hhk3k" transform="translate(0 0)"><path d="m  479,810L479,890 " style="fill: none; stroke-width: 2px; stroke: black; stroke-linejoin: round; marker-end: url(&quot;#sequenceflow-end-white-black-04obhlvzh797vk7q1et3r9aog&quot;);"></path></g><g class="djs-visual" id="Flow_1fhycz0" transform="translate(0 0)"><path d="m  479,640L479,710 " style="fill: none; stroke-width: 2px; stroke: black; stroke-linejoin: round; marker-end: url(&quot;#sequenceflow-end-white-black-04obhlvzh797vk7q1et3r9aog&quot;);"></path></g><g class="djs-visual" id="Flow_1rgpl90" transform="translate(0 0)"><path d="m  479,470L479,540 " style="fill: none; stroke-width: 2px; stroke: black; stroke-linejoin: round; marker-end: url(&quot;#sequenceflow-end-white-black-04obhlvzh797vk7q1et3r9aog&quot;);"></path></g><g class="djs-visual" id="Flow_0qb5fj5" transform="translate(0 0)"><path d="m  479,235L479,370 " style="fill: none; stroke-width: 2px; stroke: black; stroke-linejoin: round; marker-end: url(&quot;#sequenceflow-end-white-black-04obhlvzh797vk7q1et3r9aog&quot;);"></path></g><g class="djs-visual" id="Flow_1kisbqm" transform="translate(0 0)"><path d="m  919,88L919,210 L504,210 " style="fill: none; stroke-width: 2px; stroke: black; stroke-linejoin: round; marker-end: url(&quot;#sequenceflow-end-white-black-04obhlvzh797vk7q1et3r9aog&quot;);"></path></g><g class="djs-visual" id="Flow_08wjvxb" transform="translate(0 0)"><path d="m  779,-102L779,210 L504,210 " style="fill: none; stroke-width: 2px; stroke: black; stroke-linejoin: round; marker-end: url(&quot;#sequenceflow-end-white-black-04obhlvzh797vk7q1et3r9aog&quot;);"></path></g><g class="djs-visual" id="Flow_1ywb1hj" transform="translate(0 0)"><path d="m  629,88L629,210 L504,210 " style="fill: none; stroke-width: 2px; stroke: black; stroke-linejoin: round; marker-end: url(&quot;#sequenceflow-end-white-black-04obhlvzh797vk7q1et3r9aog&quot;);"></path></g><g class="djs-visual" id="Flow_1assj7g" transform="translate(0 0)"><path d="m  479,-102L479,185 " style="fill: none; stroke-width: 2px; stroke: black; stroke-linejoin: round; marker-end: url(&quot;#sequenceflow-end-white-black-04obhlvzh797vk7q1et3r9aog&quot;);"></path></g><g class="djs-visual" id="Event_12gxtpe" transform="translate(461 -138)"><circle cx="18" cy="18" r="18" style="stroke: black; stroke-width: 2px; fill: white; fill-opacity: 0.95;"></circle></g><g class="djs-visual" id="Event_12gxtpe_label" transform="translate(444 -184)"><text lineHeight="1.2" class="djs-label" style="font-family: Arial, sans-serif; font-size: 11px; font-weight: normal; fill: black;"><tspan x="0" y="9.899999999999999">Disbursement </tspan><tspan x="9.018310546875" y="23.099999999999998">completed</tspan></text></g><g class="djs-visual" id="Event_14teuvv" transform="translate(611 52)"><circle cx="18" cy="18" r="18" style="stroke: black; stroke-width: 2px; fill: white; fill-opacity: 0.95;"></circle></g><g class="djs-visual" id="Event_14teuvv_label" transform="translate(594 -15)"><text lineHeight="1.2" class="djs-label" style="font-family: Arial, sans-serif; font-size: 11px; font-weight: normal; fill: black;"><tspan x="13.553466796875" y="9.899999999999999">Supplier </tspan><tspan x="0" y="23.099999999999998">Disbursement </tspan><tspan x="9.018310546875" y="36.3">completed</tspan></text></g><g class="djs-visual" id="Event_1rgb3x9" transform="translate(761 -138)"><circle cx="18" cy="18" r="18" style="stroke: black; stroke-width: 2px; fill: white; fill-opacity: 0.95;"></circle></g><g class="djs-visual" id="Event_1rgb3x9_label" transform="translate(732 -194)"><text lineHeight="1.2" class="djs-label" style="font-family: Arial, sans-serif; font-size: 11px; font-weight: normal; fill: black;"><tspan x="0" y="9.899999999999999">Reviewer Payment </tspan><tspan x="26.44873046875" y="23.099999999999998">required</tspan></text></g><g class="djs-visual" id="Event_0iwabpd" transform="translate(901 52)"><circle cx="18" cy="18" r="18" style="stroke: black; stroke-width: 2px; fill: white; fill-opacity: 0.95;"></circle></g><g class="djs-visual" id="Event_0iwabpd_label" transform="translate(885 -15)"><text lineHeight="1.2" class="djs-label" style="font-family: Arial, sans-serif; font-size: 11px; font-weight: normal; fill: black;"><tspan x="0" y="9.899999999999999">Asset Review </tspan><tspan x="7.962158203125" y="23.099999999999998">completed </tspan><tspan x="3.446533203125" y="36.3">successfully</tspan></text></g><g class="djs-visual" id="Gateway_0tqlmmx" transform="translate(454 185)"><polygon points="25,0 50,25 25,50 0,25" style="stroke: black; stroke-width: 2px; fill: white; fill-opacity: 0.95;"></polygon><path d="m 16,15 7.42857142857143,9.714285714285715 -7.42857142857143,9.714285714285715 3.428571428571429,0 5.714285714285715,-7.464228571428572 5.714285714285715,7.464228571428572 3.428571428571429,0 -7.42857142857143,-9.714285714285715 7.42857142857143,-9.714285714285715 -3.428571428571429,0 -5.714285714285715,7.464228571428572 -5.714285714285715,-7.464228571428572 -3.428571428571429,0 z" style="fill: black; stroke-width: 1px; stroke: black;"></path></g><g class="djs-visual" id="Activity_0d6hkbp" transform="translate(414 370)"><rect x="0" y="0" width="130" height="100" rx="10" ry="10" style="stroke: black; stroke-width: 2px; fill: white; fill-opacity: 0.95;"></rect><text lineHeight="1.2" class="djs-label" style="font-family: Arial, sans-serif; font-size: 12px; font-weight: normal; fill: black;"><tspan x="17.9765625" y="46.4">Capture Payment </tspan><tspan x="47.65625" y="60.8">details</tspan></text></g><g class="djs-visual" id="Activity_1mdlwzi" transform="translate(414 540)"><rect x="0" y="0" width="130" height="100" rx="10" ry="10" style="stroke: black; stroke-width: 2px; fill: white; fill-opacity: 0.95;"></rect><text lineHeight="1.2" class="djs-label" style="font-family: Arial, sans-serif; font-size: 12px; font-weight: normal; fill: black;"><tspan x="14.474609375" y="46.4">Authorise Payment </tspan><tspan x="47.65625" y="60.8">details</tspan></text></g><g class="djs-visual" id="Activity_15kwpp5" transform="translate(414 710)"><rect x="0" y="0" width="130" height="100" rx="10" ry="10" style="stroke: black; stroke-width: 2px; fill: white; fill-opacity: 0.95;"></rect><text lineHeight="1.2" class="djs-label" style="font-family: Arial, sans-serif; font-size: 12px; font-weight: normal; fill: black;"><tspan x="17.642578125" y="53.599999999999994">Execute Payment</tspan></text></g><g class="djs-visual" id="Activity_1jpg2u6" transform="translate(414 890)"><rect x="0" y="0" width="130" height="100" rx="10" ry="10" style="stroke: black; stroke-width: 2px; fill: white; fill-opacity: 0.95;"></rect><text lineHeight="1.2" class="djs-label" style="font-family: Arial, sans-serif; font-size: 12px; font-weight: normal; fill: black;"><tspan x="9.1318359375" y="46.4">Generate accounting </tspan><tspan x="46.984375" y="60.8">entries</tspan></text></g><g class="djs-visual" id="Activity_1ijfoy4" transform="translate(414 1060)"><rect x="0" y="0" width="130" height="100" rx="10" ry="10" style="stroke: black; stroke-width: 2px; fill: white; fill-opacity: 0.95;"></rect><text lineHeight="1.2" class="djs-label" style="font-family: Arial, sans-serif; font-size: 12px; font-weight: normal; fill: black;"><tspan x="23.6484375" y="46.4">Check if Sale is </tspan><tspan x="37.154296875" y="60.8">completed</tspan></text></g><g class="djs-visual" id="Activity_0w5la7y" transform="translate(414 1350)"><rect x="0" y="0" width="130" height="100" rx="10" ry="10" style="stroke: black; stroke-width: 2px; fill: white; fill-opacity: 0.95;"></rect><text lineHeight="1.2" class="djs-label" style="font-family: Arial, sans-serif; font-size: 12px; font-weight: normal; fill: black;"><tspan x="5.466796875" y="53.599999999999994">Decide on type of sale</tspan></text></g><g class="djs-visual" id="Gateway_19vda06" transform="translate(454 1225)"><polygon points="25,0 50,25 25,50 0,25" style="stroke: black; stroke-width: 2px; fill: white; fill-opacity: 0.95;"></polygon><path d="m 16,15 7.42857142857143,9.714285714285715 -7.42857142857143,9.714285714285715 3.428571428571429,0 5.714285714285715,-7.464228571428572 5.714285714285715,7.464228571428572 3.428571428571429,0 -7.42857142857143,-9.714285714285715 7.42857142857143,-9.714285714285715 -3.428571428571429,0 -5.714285714285715,7.464228571428572 -5.714285714285715,-7.464228571428572 -3.428571428571429,0 z" style="fill: black; stroke-width: 1px; stroke: black;"></path></g><g class="djs-visual" id="Event_1fq3yf6" transform="translate(672 1382)"><circle cx="18" cy="18" r="18" style="stroke: black; stroke-width: 4px; fill: white; fill-opacity: 0.95;"></circle></g><g class="djs-visual" id="Event_1fq3yf6_label" transform="translate(652 1425)"><text lineHeight="1.2" class="djs-label" style="font-family: Arial, sans-serif; font-size: 11px; font-weight: normal; fill: black;"><tspan x="0" y="9.899999999999999">Sale completed</tspan></text></g><g class="djs-visual" id="Event_0lyz6g6" transform="translate(461 1502)"><circle cx="18" cy="18" r="18" style="stroke: black; stroke-width: 4px; fill: white; fill-opacity: 0.95;"></circle></g><g class="djs-visual" id="Event_0lyz6g6_label" transform="translate(442 1545)"><text lineHeight="1.2" class="djs-label" style="font-family: Arial, sans-serif; font-size: 11px; font-weight: normal; fill: black;"><tspan x="0" y="9.899999999999999">Ijara Sale to be </tspan><tspan x="18.0390625" y="23.099999999999998">initiated</tspan></text></g><g class="djs-visual" id="TextAnnotation_0w51e27" transform="translate(600 240)"><rect x="0" y="0" width="130" height="110" rx="0" ry="0" style="stroke: none; stroke-width: 2px; fill: none;"></rect><path d="m 0, 0 m 10,0 l -10,0 l 0,110 l 10,0" style="fill: none; stroke-width: 2px; stroke: black;"></path><text lineHeight="1.2" class="djs-label" style="font-family: Arial, sans-serif; font-size: 12px; font-weight: normal; fill: black;"><tspan x="5" y="15.799999999999999">- Reviewer</tspan><tspan x="5" y="30.199999999999996">- Reviewer Account</tspan><tspan x="5" y="44.599999999999994">- Payment Currency</tspan><tspan x="5" y="58.99999999999999">- Purchase Reference</tspan><tspan x="5" y="73.39999999999999">- Review Reference</tspan><tspan x="5" y="87.79999999999998">- Payment Date</tspan><tspan x="5" y="102.19999999999999">- Payment Amount</tspan></text></g><g class="djs-visual" id="TextAnnotation_06mevl6" transform="translate(600 820)"><rect x="0" y="0" width="160" height="40" rx="0" ry="0" style="stroke: none; stroke-width: 2px; fill: none;"></rect><path d="m 0, 0 m 10,0 l -10,0 l 0,40 l 10,0" style="fill: none; stroke-width: 2px; stroke: black;"></path><text lineHeight="1.2" class="djs-label" style="font-family: Arial, sans-serif; font-size: 12px; font-weight: normal; fill: black;"><tspan x="5" y="15.799999999999999">- Debit Reviewer Wash Acc </tspan><tspan x="5" y="30.199999999999996">- Credit Reviewer Acc</tspan></text></g><g class="djs-visual" id="Flow_0tztvnv_label" transform="translate(468 1008)"><text lineHeight="1.2" class="djs-label" style="font-family: Arial, sans-serif; font-size: 11px; font-weight: normal; fill: black;"><tspan x="0" y="9.899999999999999">Reviewer Payment </tspan><tspan x="21.24560546875" y="23.099999999999998">completed</tspan></text></g><g class="djs-visual" id="Flow_0c67ckd_label" transform="translate(490 1296)"><text lineHeight="1.2" class="djs-label" style="font-family: Arial, sans-serif; font-size: 11px; font-weight: normal; fill: black;"><tspan x="0" y="9.899999999999999">Sale not yet </tspan><tspan x="4.135986328125" y="23.099999999999998">completed</tspan></text></g><g class="djs-visual" id="Association_1i4vw7o" transform="translate(0 0)"><polyline points="538,371 600,320 " style="fill: none; stroke: black; stroke-width: 2px; stroke-dasharray: 0.5, 5; stroke-linecap: round; stroke-linejoin: round;"></polyline></g><g class="djs-visual" id="Association_1d5sr6g" transform="translate(0 0)"><polyline points="538,891 600,840 " style="fill: none; stroke: black; stroke-width: 2px; stroke-dasharray: 0.5, 5; stroke-linecap: round; stroke-linejoin: round;"></polyline></g></g><g><rect class="viewport" x="-1654.900269541779" y="-200.11051212938006" width="4676.549865229111" height="1778.9757412398922"></rect></g></svg>