<svg width="100%" height="100%" data-element-id="Process_0gv1hwp"><g class="viewport" transform="matrix(0.403423 0 0 0.403423 697.054 40.7457)"><g class="layer-root-1" data-element-id="Process_0gv1hwp"><g class="djs-group"><g class="djs-element djs-connection" data-element-id="Flow_1cmwhl8" style="display: block;"><g class="djs-visual"><path d="m  460,600L460,680 L95,680 " style="fill: none; stroke-width: 2px; stroke: black; stroke-linejoin: round; marker-end: url(&quot;#sequenceflow-end-white-black-6y75b579sqkbhu6y2zfxxmjhy&quot;);"></path></g><polyline points="460,600 460,680 95,680 " class="djs-hit djs-hit-stroke" style="fill: none; stroke-opacity: 0; stroke: white; stroke-width: 15px;"></polyline><rect x="89" y="594" width="377" height="92" class="djs-outline" style="fill: none;"></rect></g></g><g class="djs-group"><g class="djs-element djs-connection" data-element-id="Flow_1rhtyq7" style="display: block;"><g class="djs-visual"><path d="m  70,600L70,655 " style="fill: none; stroke-width: 2px; stroke: black; stroke-linejoin: round; marker-end: url(&quot;#sequenceflow-end-white-black-6y75b579sqkbhu6y2zfxxmjhy&quot;);"></path></g><polyline points="70,600 70,655 " class="djs-hit djs-hit-stroke" style="fill: none; stroke-opacity: 0; stroke: white; stroke-width: 15px;"></polyline><rect x="64" y="594" width="12" height="67" class="djs-outline" style="fill: none;"></rect></g></g><g class="djs-group"><g class="djs-element djs-connection" data-element-id="Flow_13vu6lv" style="display: block;"><g class="djs-visual"><path d="m  70,1210L70,1280 " style="fill: none; stroke-width: 2px; stroke: black; stroke-linejoin: round; marker-end: url(&quot;#sequenceflow-end-white-black-6y75b579sqkbhu6y2zfxxmjhy&quot;);"></path></g><polyline points="70,1210 70,1280 " class="djs-hit djs-hit-stroke" style="fill: none; stroke-opacity: 0; stroke: white; stroke-width: 15px;"></polyline><rect x="64" y="1204" width="12" height="82" class="djs-outline" style="fill: none;"></rect></g></g><g class="djs-group"><g class="djs-element djs-connection" data-element-id="Flow_0wicbwq" style="display: block;"><g class="djs-visual"><path d="m  70,1040L70,1110 " style="fill: none; stroke-width: 2px; stroke: black; stroke-linejoin: round; marker-end: url(&quot;#sequenceflow-end-white-black-6y75b579sqkbhu6y2zfxxmjhy&quot;);"></path></g><polyline points="70,1040 70,1110 " class="djs-hit djs-hit-stroke" style="fill: none; stroke-opacity: 0; stroke: white; stroke-width: 15px;"></polyline><rect x="64" y="1034" width="12" height="82" class="djs-outline" style="fill: none;"></rect></g></g><g class="djs-group"><g class="djs-element djs-connection" data-element-id="Flow_1wwdo1k" style="display: block;"><g class="djs-visual"><path d="m  70,850L70,940 " style="fill: none; stroke-width: 2px; stroke: black; stroke-linejoin: round; marker-end: url(&quot;#sequenceflow-end-white-black-6y75b579sqkbhu6y2zfxxmjhy&quot;);"></path></g><polyline points="70,850 70,940 " class="djs-hit djs-hit-stroke" style="fill: none; stroke-opacity: 0; stroke: white; stroke-width: 15px;"></polyline><rect x="64" y="844" width="12" height="102" class="djs-outline" style="fill: none;"></rect></g></g><g class="djs-group"><g class="djs-element djs-connection" data-element-id="Flow_1q6rebt" style="display: block;"><g class="djs-visual"><path d="m  70,705L70,750 " style="fill: none; stroke-width: 2px; stroke: black; stroke-linejoin: round; marker-end: url(&quot;#sequenceflow-end-white-black-6y75b579sqkbhu6y2zfxxmjhy&quot;);"></path></g><polyline points="70,705 70,750 " class="djs-hit djs-hit-stroke" style="fill: none; stroke-opacity: 0; stroke: white; stroke-width: 15px;"></polyline><rect x="64" y="699" width="12" height="57" class="djs-outline" style="fill: none;"></rect></g></g><g class="djs-group"><g class="djs-element djs-connection" data-element-id="Flow_03h7rmb" style="display: block;"><g class="djs-visual"><path d="m  460,430L460,500 " style="fill: none; stroke-width: 2px; stroke: black; stroke-linejoin: round; marker-end: url(&quot;#sequenceflow-end-white-black-6y75b579sqkbhu6y2zfxxmjhy&quot;);"></path></g><polyline points="460,430 460,500 " class="djs-hit djs-hit-stroke" style="fill: none; stroke-opacity: 0; stroke: white; stroke-width: 15px;"></polyline><rect x="454" y="424" width="12" height="82" class="djs-outline" style="fill: none;"></rect></g></g><g class="djs-group"><g class="djs-element djs-connection" data-element-id="Flow_16af6gs" style="display: block;"><g class="djs-visual"><path d="m  95,230L460,230 L460,330 " style="fill: none; stroke-width: 2px; stroke: black; stroke-linejoin: round; marker-end: url(&quot;#sequenceflow-end-white-black-6y75b579sqkbhu6y2zfxxmjhy&quot;);"></path></g><polyline points="95,230 460,230 460,330 " class="djs-hit djs-hit-stroke" style="fill: none; stroke-opacity: 0; stroke: white; stroke-width: 15px;"></polyline><rect x="89" y="224" width="377" height="112" class="djs-outline" style="fill: none;"></rect></g></g><g class="djs-group"><g class="djs-element djs-connection" data-element-id="Flow_1fjnnmv" style="display: block;"><g class="djs-visual"><path d="m  70,255L70,340 " style="fill: none; stroke-width: 2px; stroke: black; stroke-linejoin: round; marker-end: url(&quot;#sequenceflow-end-white-black-6y75b579sqkbhu6y2zfxxmjhy&quot;);"></path></g><polyline points="70,255 70,340 " class="djs-hit djs-hit-stroke" style="fill: none; stroke-opacity: 0; stroke: white; stroke-width: 15px;"></polyline><rect x="64" y="249" width="12" height="97" class="djs-outline" style="fill: none;"></rect></g></g><g class="djs-group"><g class="djs-element djs-connection" data-element-id="Flow_1pm4hmf" style="display: block;"><g class="djs-visual"><path d="m  70,1380L70,1472 " style="fill: none; stroke-width: 2px; stroke: black; stroke-linejoin: round; marker-end: url(&quot;#sequenceflow-end-white-black-6y75b579sqkbhu6y2zfxxmjhy&quot;);"></path></g><polyline points="70,1380 70,1472 " class="djs-hit djs-hit-stroke" style="fill: none; stroke-opacity: 0; stroke: white; stroke-width: 15px;"></polyline><rect x="64" y="1374" width="12" height="104" class="djs-outline" style="fill: none;"></rect></g></g><g class="djs-group"><g class="djs-element djs-connection" data-element-id="Flow_0jruhvl" style="display: block;"><g class="djs-visual"><path d="m  70,440L70,500 " style="fill: none; stroke-width: 2px; stroke: black; stroke-linejoin: round; marker-end: url(&quot;#sequenceflow-end-white-black-6y75b579sqkbhu6y2zfxxmjhy&quot;);"></path></g><polyline points="70,440 70,500 " class="djs-hit djs-hit-stroke" style="fill: none; stroke-opacity: 0; stroke: white; stroke-width: 15px;"></polyline><rect x="64" y="434" width="12" height="72" class="djs-outline" style="fill: none;"></rect></g></g><g class="djs-group"><g class="djs-element djs-connection" data-element-id="Flow_01esvy8" style="display: block;"><g class="djs-visual"><path d="m  70,160L70,205 " style="fill: none; stroke-width: 2px; stroke: black; stroke-linejoin: round; marker-end: url(&quot;#sequenceflow-end-white-black-6y75b579sqkbhu6y2zfxxmjhy&quot;);"></path></g><polyline points="70,160 70,205 " class="djs-hit djs-hit-stroke" style="fill: none; stroke-opacity: 0; stroke: white; stroke-width: 15px;"></polyline><rect x="64" y="154" width="12" height="57" class="djs-outline" style="fill: none;"></rect></g></g><g class="djs-group"><g class="djs-element djs-connection" data-element-id="Flow_0oq12mb" style="display: block;"><g class="djs-visual"><path d="m  70,-12L70,60 " style="fill: none; stroke-width: 2px; stroke: black; stroke-linejoin: round; marker-end: url(&quot;#sequenceflow-end-white-black-6y75b579sqkbhu6y2zfxxmjhy&quot;);"></path></g><polyline points="70,-12 70,60 " class="djs-hit djs-hit-stroke" style="fill: none; stroke-opacity: 0; stroke: white; stroke-width: 15px;"></polyline><rect x="64" y="-18" width="12" height="84" class="djs-outline" style="fill: none;"></rect></g></g><g class="djs-group"><g class="djs-element djs-shape" data-element-id="StartEvent_1bm324f" style="display: block;" transform="matrix(1 0 0 1 52 -48)"><g class="djs-visual"><circle cx="18" cy="18" r="18" style="stroke: black; stroke-width: 2px; fill: white; fill-opacity: 0.95;"></circle></g><rect class="djs-hit djs-hit-all" x="0" y="0" width="36" height="36" style="fill: none; stroke-opacity: 0; stroke: white; stroke-width: 15px;"></rect><rect x="-6" y="-6" width="48" height="48" class="djs-outline" style="fill: none;"></rect></g></g><g class="djs-group"><g class="djs-element djs-shape" data-element-id="StartEvent_1bm324f_label" style="display: block;" transform="matrix(1 0 0 1 26 -95)"><g class="djs-visual"><text lineHeight="1.2" class="djs-label" style="font-family: Arial, sans-serif; font-size: 11px; font-weight: normal; fill: black;"><tspan x="0" y="9.899999999999999">Customer initiates </tspan><tspan x="17.620361328125" y="23.099999999999998">OTC order</tspan></text></g><rect class="djs-hit djs-hit-all" x="0" y="0" width="89" height="27" style="fill: none; stroke-opacity: 0; stroke: white; stroke-width: 15px;"></rect><rect x="-6" y="-6" width="101" height="39" class="djs-outline" style="fill: none;"></rect></g></g><g class="djs-group"><g class="djs-element djs-shape" data-element-id="Activity_0qrym02" style="display: block;" transform="matrix(1 0 0 1 5 60)"><g class="djs-visual"><rect x="0" y="0" width="130" height="100" rx="10" ry="10" style="stroke: black; stroke-width: 2px; fill: white; fill-opacity: 0.95;"></rect><text lineHeight="1.2" class="djs-label" style="font-family: Arial, sans-serif; font-size: 12px; font-weight: normal; fill: black;"><tspan x="12.310546875" y="39.2">Check with internal/ </tspan><tspan x="19.4775390625" y="53.6">external party for </tspan><tspan x="26.984375" y="68">contract terms</tspan></text></g><rect class="djs-hit djs-hit-all" x="0" y="0" width="130" height="100" style="fill: none; stroke-opacity: 0; stroke: white; stroke-width: 15px;"></rect><rect x="-6" y="-6" width="142" height="112" class="djs-outline" style="fill: none;"></rect></g></g><g class="djs-group"><g class="djs-element djs-shape" data-element-id="Gateway_1fipezb" style="display: block;" transform="matrix(1 0 0 1 45 205)"><g class="djs-visual"><polygon points="25,0 50,25 25,50 0,25" style="stroke: black; stroke-width: 2px; fill: white; fill-opacity: 0.95;"></polygon><path d="m 16,15 7.42857142857143,9.714285714285715 -7.42857142857143,9.714285714285715 3.428571428571429,0 5.714285714285715,-7.464228571428572 5.714285714285715,7.464228571428572 3.428571428571429,0 -7.42857142857143,-9.714285714285715 7.42857142857143,-9.714285714285715 -3.428571428571429,0 -5.714285714285715,7.464228571428572 -5.714285714285715,-7.464228571428572 -3.428571428571429,0 z" style="fill: black; stroke-width: 1px; stroke: black;"></path></g><rect class="djs-hit djs-hit-all" x="0" y="0" width="50" height="50" style="fill: none; stroke-opacity: 0; stroke: white; stroke-width: 15px;"></rect><rect x="-6" y="-6" width="62" height="62" class="djs-outline" style="fill: none;"></rect></g></g><g class="djs-group"><g class="djs-element djs-shape" data-element-id="Activity_1j370dw" style="display: block;" transform="matrix(1 0 0 1 5 340)"><g class="djs-visual"><rect x="0" y="0" width="130" height="100" rx="10" ry="10" style="stroke: black; stroke-width: 2px; fill: white; fill-opacity: 0.95;"></rect><text lineHeight="1.2" class="djs-label" style="font-family: Arial, sans-serif; font-size: 12px; font-weight: normal; fill: black;"><tspan x="18.134765625" y="46.4">Log quote/ create </tspan><tspan x="44.654296875" y="60.8">product</tspan></text></g><rect class="djs-hit djs-hit-all" x="0" y="0" width="130" height="100" style="fill: none; stroke-opacity: 0; stroke: white; stroke-width: 15px;"></rect><rect x="-6" y="-6" width="142" height="112" class="djs-outline" style="fill: none;"></rect></g></g><g class="djs-group"><g class="djs-element djs-shape" data-element-id="Activity_1b7ggav" style="display: block;" transform="matrix(1 0 0 1 395 330)"><g class="djs-visual"><rect x="0" y="0" width="130" height="100" rx="10" ry="10" style="stroke: black; stroke-width: 2px; fill: white; fill-opacity: 0.95;"></rect><text lineHeight="1.2" class="djs-label" style="font-family: Arial, sans-serif; font-size: 12px; font-weight: normal; fill: black;"><tspan x="18.134765625" y="46.4">Log quote/ create </tspan><tspan x="44.654296875" y="60.8">product</tspan></text></g><rect class="djs-hit djs-hit-all" x="0" y="0" width="130" height="100" style="fill: none; stroke-opacity: 0; stroke: white; stroke-width: 15px;"></rect><rect x="-6" y="-6" width="142" height="112" class="djs-outline" style="fill: none;"></rect></g></g><g class="djs-group"><g class="djs-element djs-shape" data-element-id="Gateway_1e9ww9p" style="display: block;" transform="matrix(1 0 0 1 45 655)"><g class="djs-visual"><polygon points="25,0 50,25 25,50 0,25" style="stroke: black; stroke-width: 2px; fill: white; fill-opacity: 0.95;"></polygon><path d="m 16,15 7.42857142857143,9.714285714285715 -7.42857142857143,9.714285714285715 3.428571428571429,0 5.714285714285715,-7.464228571428572 5.714285714285715,7.464228571428572 3.428571428571429,0 -7.42857142857143,-9.714285714285715 7.42857142857143,-9.714285714285715 -3.428571428571429,0 -5.714285714285715,7.464228571428572 -5.714285714285715,-7.464228571428572 -3.428571428571429,0 z" style="fill: black; stroke-width: 1px; stroke: black;"></path></g><rect class="djs-hit djs-hit-all" x="0" y="0" width="50" height="50" style="fill: none; stroke-opacity: 0; stroke: white; stroke-width: 15px;"></rect><rect x="-6" y="-6" width="62" height="62" class="djs-outline" style="fill: none;"></rect></g></g><g class="djs-group"><g class="djs-element djs-shape" data-element-id="Activity_0sbdjzm" style="display: block;" transform="matrix(1 0 0 1 5 750)"><g class="djs-visual"><rect x="0" y="0" width="130" height="100" rx="10" ry="10" style="stroke: black; stroke-width: 2px; fill: white; fill-opacity: 0.95;"></rect><text lineHeight="1.2" class="djs-label" style="font-family: Arial, sans-serif; font-size: 12px; font-weight: normal; fill: black;"><tspan x="19.8203125" y="46.4">Inform Customer </tspan><tspan x="33.140625" y="60.8">about quote</tspan></text></g><rect class="djs-hit djs-hit-all" x="0" y="0" width="130" height="100" style="fill: none; stroke-opacity: 0; stroke: white; stroke-width: 15px;"></rect><rect x="-6" y="-6" width="142" height="112" class="djs-outline" style="fill: none;"></rect></g></g><g class="djs-group"><g class="djs-element djs-shape" data-element-id="Activity_0jp8i66" style="display: block;" transform="matrix(1 0 0 1 5 940)"><g class="djs-visual"><rect x="0" y="0" width="130" height="100" rx="10" ry="10" style="stroke: black; stroke-width: 2px; fill: white; fill-opacity: 0.95;"></rect><text lineHeight="1.2" class="djs-label" style="font-family: Arial, sans-serif; font-size: 12px; font-weight: normal; fill: black;"><tspan x="20.14453125" y="46.4">Capture&nbsp;over the </tspan><tspan x="10.6328125" y="60.8">counter trade details</tspan></text></g><rect class="djs-hit djs-hit-all" x="0" y="0" width="130" height="100" style="fill: none; stroke-opacity: 0; stroke: white; stroke-width: 15px;"></rect><rect x="-6" y="-6" width="142" height="112" class="djs-outline" style="fill: none;"></rect></g></g><g class="djs-group"><g class="djs-element djs-shape" data-element-id="Activity_06knkeq" style="display: block;" transform="matrix(1 0 0 1 5 1110)"><g class="djs-visual"><rect x="0" y="0" width="130" height="100" rx="10" ry="10" style="stroke: black; stroke-width: 2px; fill: white; fill-opacity: 0.95;"></rect><text lineHeight="1.2" class="djs-label" style="font-family: Arial, sans-serif; font-size: 12px; font-weight: normal; fill: black;"><tspan x="16.642578125" y="46.4">Authorise over the </tspan><tspan x="10.6328125" y="60.8">counter trade details</tspan></text></g><rect class="djs-hit djs-hit-all" x="0" y="0" width="130" height="100" style="fill: none; stroke-opacity: 0; stroke: white; stroke-width: 15px;"></rect><rect x="-6" y="-6" width="142" height="112" class="djs-outline" style="fill: none;"></rect></g></g><g class="djs-group"><g class="djs-element djs-shape" data-element-id="Activity_1py7zu7" style="display: block;" transform="matrix(1 0 0 1 5 1280)"><g class="djs-visual"><rect x="0" y="0" width="130" height="100" rx="10" ry="10" style="stroke: black; stroke-width: 2px; fill: white; fill-opacity: 0.95;"></rect><text lineHeight="1.2" class="djs-label" style="font-family: Arial, sans-serif; font-size: 12px; font-weight: normal; fill: black;"><tspan x="15.1513671875" y="46.4">Generate OTC DX </tspan><tspan x="49.3857421875" y="60.8">Trade</tspan></text></g><rect class="djs-hit djs-hit-all" x="0" y="0" width="130" height="100" style="fill: none; stroke-opacity: 0; stroke: white; stroke-width: 15px;"></rect><rect x="-6" y="-6" width="142" height="112" class="djs-outline" style="fill: none;"></rect></g></g><g class="djs-group"><g class="djs-element djs-shape" data-element-id="Event_0g1tew9" style="display: block;" transform="matrix(1 0 0 1 52 1472)"><g class="djs-visual"><circle cx="18" cy="18" r="18" style="stroke: black; stroke-width: 4px; fill: white; fill-opacity: 0.95;"></circle></g><rect class="djs-hit djs-hit-all" x="0" y="0" width="36" height="36" style="fill: none; stroke-opacity: 0; stroke: white; stroke-width: 15px;"></rect><rect x="-6" y="-6" width="48" height="48" class="djs-outline" style="fill: none;"></rect></g></g><g class="djs-group"><g class="djs-element djs-shape" data-element-id="Event_0g1tew9_label" style="display: block;" transform="matrix(1 0 0 1 23 1515)"><g class="djs-visual"><text lineHeight="1.2" class="djs-label" style="font-family: Arial, sans-serif; font-size: 11px; font-weight: normal; fill: black;"><tspan x="0" y="9.899999999999999">OTC Trade created</tspan></text></g><rect class="djs-hit djs-hit-all" x="0" y="0" width="95" height="14" style="fill: none; stroke-opacity: 0; stroke: white; stroke-width: 15px;"></rect><rect x="-6" y="-6" width="107" height="26" class="djs-outline" style="fill: none;"></rect></g></g><g class="djs-group"><g class="djs-element djs-shape" data-element-id="Activity_1mp414w" style="display: block;" transform="matrix(1 0 0 1 5 500)"><g class="djs-visual"><rect x="0" y="0" width="130" height="100" rx="10" ry="10" style="stroke: black; stroke-width: 2px; fill: white; fill-opacity: 0.95;"></rect><text lineHeight="1.2" class="djs-label" style="font-family: Arial, sans-serif; font-size: 12px; font-weight: normal; fill: black;"><tspan x="9.31640625" y="53.599999999999994">Create OTC contract</tspan></text></g><rect class="djs-hit djs-hit-all" x="0" y="0" width="130" height="100" style="fill: none; stroke-opacity: 0; stroke: white; stroke-width: 15px;"></rect><rect x="-6" y="-6" width="142" height="112" class="djs-outline" style="fill: none;"></rect></g></g><g class="djs-group"><g class="djs-element djs-shape" data-element-id="Activity_06ktwyg" style="display: block;" transform="matrix(1 0 0 1 395 500)"><g class="djs-visual"><rect x="0" y="0" width="130" height="100" rx="10" ry="10" style="stroke: black; stroke-width: 2px; fill: white; fill-opacity: 0.95;"></rect><text lineHeight="1.2" class="djs-label" style="font-family: Arial, sans-serif; font-size: 12px; font-weight: normal; fill: black;"><tspan x="24.8251953125" y="46.4">Create FXOTC </tspan><tspan x="43.32421875" y="60.8">contract</tspan></text></g><rect class="djs-hit djs-hit-all" x="0" y="0" width="130" height="100" style="fill: none; stroke-opacity: 0; stroke: white; stroke-width: 15px;"></rect><rect x="-6" y="-6" width="142" height="112" class="djs-outline" style="fill: none;"></rect></g></g><g class="djs-group"><g class="djs-element djs-shape" data-element-id="TextAnnotation_1voyebh" style="display: block;" transform="matrix(1 0 0 1 170 240)"><g class="djs-visual"><rect x="0" y="0" width="270" height="84" rx="0" ry="0" style="stroke: none; stroke-width: 2px; fill: none;"></rect><path d="m 0, 0 m 10,0 l -10,0 l 0,84 l 10,0" style="fill: none; stroke-width: 2px; stroke: black;"></path><text lineHeight="1.2" class="djs-label" style="font-family: Arial, sans-serif; font-size: 12px; font-weight: normal; fill: black;"><tspan x="5" y="15.799999999999999">Based on Templates</tspan><tspan x="5" y="30.199999999999996">- Securities Master</tspan><tspan x="5" y="44.599999999999994">- Contract Master Based on product set up</tspan><tspan x="5" y="58.99999999999999">&nbsp;(American, European, Vanilla, Exotics) the OTC</tspan><tspan x="5" y="73.39999999999999">product can be traded</tspan></text></g><rect class="djs-hit djs-hit-all" x="0" y="0" width="270" height="84" style="fill: none; stroke-opacity: 0; stroke: white; stroke-width: 15px;"></rect><rect x="-6" y="-6" width="282" height="96" class="djs-outline" style="fill: none;"></rect></g></g><g class="djs-group"><g class="djs-element djs-shape" data-element-id="TextAnnotation_1m4z9nw" style="display: block;" transform="matrix(1 0 0 1 570 240)"><g class="djs-visual"><rect x="0" y="0" width="270" height="83" rx="0" ry="0" style="stroke: none; stroke-width: 2px; fill: none;"></rect><path d="m 0, 0 m 10,0 l -10,0 l 0,83 l 10,0" style="fill: none; stroke-width: 2px; stroke: black;"></path><text lineHeight="1.2" class="djs-label" style="font-family: Arial, sans-serif; font-size: 12px; font-weight: normal; fill: black;"><tspan x="5" y="15.799999999999999">Single Generic Contract Master to be created </tspan><tspan x="5" y="30.199999999999996">- Contract class with contract type FXOTC Fields</tspan><tspan x="5" y="44.599999999999994">Currency, Delivery Currency, Price Dps, Tick </tspan><tspan x="5" y="58.99999999999999">Size, Tick Value, Min Price Mvmt and Underlying </tspan><tspan x="5" y="73.39999999999999">will be defaulted</tspan></text></g><rect class="djs-hit djs-hit-all" x="0" y="0" width="270" height="83" style="fill: none; stroke-opacity: 0; stroke: white; stroke-width: 15px;"></rect><rect x="-6" y="-6" width="282" height="95" class="djs-outline" style="fill: none;"></rect></g></g><g class="djs-group"><g class="djs-element djs-shape" data-element-id="TextAnnotation_0z9m5m2" style="display: block;" transform="matrix(1 0 0 1 170 860)"><g class="djs-visual"><rect x="0" y="0" width="570" height="110" rx="0" ry="0" style="stroke: none; stroke-width: 2px; fill: none;"></rect><path d="m 0, 0 m 10,0 l -10,0 l 0,110 l 10,0" style="fill: none; stroke-width: 2px; stroke: black;"></path><text lineHeight="1.2" class="djs-label" style="font-family: Arial, sans-serif; font-size: 12px; font-weight: normal; fill: black;"><tspan x="5" y="15.799999999999999">- For FXOTC, currency pair need to be defined at Trade level.</tspan><tspan x="5" y="30.199999999999996">- Strike Quote and Strike Quote Currency need to be entered</tspan><tspan x="5" y="44.599999999999994">- Commission will be calculated at Order level based on Charge Tax</tspan><tspan x="5" y="58.99999999999999">Type for Dx.trade activity if set in SC.CHARGE.TAX.CALC.CREATE else&nbsp;</tspan><tspan x="5" y="73.39999999999999">calculated based on DX.COMMISSION and defaulted to the order or can&nbsp;</tspan><tspan x="5" y="87.79999999999998">be manually input</tspan><tspan x="5" y="102.19999999999999">- For option with underlying future, maturity date for underlying future can be defined</tspan></text></g><rect class="djs-hit djs-hit-all" x="0" y="0" width="570" height="110" style="fill: none; stroke-opacity: 0; stroke: white; stroke-width: 15px;"></rect><rect x="-6" y="-6" width="582" height="122" class="djs-outline" style="fill: none;"></rect></g></g><g class="djs-group"><g class="djs-element djs-shape" data-element-id="Flow_1fjnnmv_label" style="display: block;" transform="matrix(1 0 0 1 72 276)"><g class="djs-visual"><text lineHeight="1.2" class="djs-label" style="font-family: Arial, sans-serif; font-size: 11px; font-weight: normal; fill: black;"><tspan x="0" y="9.899999999999999">OTC Contract to be </tspan><tspan x="28.1171875" y="23.099999999999998">Created</tspan></text></g><rect class="djs-hit djs-hit-all" x="0" y="0" width="96" height="27" style="fill: none; stroke-opacity: 0; stroke: white; stroke-width: 15px;"></rect><rect x="-6" y="-6" width="108" height="39" class="djs-outline" style="fill: none;"></rect></g></g><g class="djs-group"><g class="djs-element djs-shape" data-element-id="Flow_16af6gs_label" style="display: block;" transform="matrix(1 0 0 1 142 196)"><g class="djs-visual"><text lineHeight="1.2" class="djs-label" style="font-family: Arial, sans-serif; font-size: 11px; font-weight: normal; fill: black;"><tspan x="0" y="9.899999999999999">FXOTC Contract to </tspan><tspan x="19.8515625" y="23.099999999999998">be Created</tspan></text></g><rect class="djs-hit djs-hit-all" x="0" y="0" width="95" height="27" style="fill: none; stroke-opacity: 0; stroke: white; stroke-width: 15px;"></rect><rect x="-6" y="-6" width="107" height="39" class="djs-outline" style="fill: none;"></rect></g></g><g class="djs-group"><g class="djs-element djs-shape" data-element-id="Flow_1rhtyq7_label" style="display: block;" transform="matrix(1 0 0 1 87 625)"><g class="djs-visual"><text lineHeight="1.2" class="djs-label" style="font-family: Arial, sans-serif; font-size: 11px; font-weight: normal; fill: black;"><tspan x="0" y="9.899999999999999">OTC contract </tspan><tspan x="14.822265625" y="23.099999999999998">created</tspan></text></g><rect class="djs-hit djs-hit-all" x="0" y="0" width="67" height="27" style="fill: none; stroke-opacity: 0; stroke: white; stroke-width: 15px;"></rect><rect x="-6" y="-6" width="79" height="39" class="djs-outline" style="fill: none;"></rect></g></g><g class="djs-group"><g class="djs-element djs-shape" data-element-id="Flow_1cmwhl8_label" style="display: block;" transform="matrix(1 0 0 1 469 626)"><g class="djs-visual"><text lineHeight="1.2" class="djs-label" style="font-family: Arial, sans-serif; font-size: 11px; font-weight: normal; fill: black;"><tspan x="1.212158203125" y="9.899999999999999">Generic FXOTC </tspan><tspan x="0" y="23.099999999999998">Contract created</tspan></text></g><rect class="djs-hit djs-hit-all" x="0" y="0" width="82" height="27" style="fill: none; stroke-opacity: 0; stroke: white; stroke-width: 15px;"></rect><rect x="-6" y="-6" width="94" height="39" class="djs-outline" style="fill: none;"></rect></g></g><g class="djs-group"><g class="djs-element djs-connection" data-element-id="Association_02i6v15" style="display: block;"><g class="djs-visual"><polyline points="134,346 170,319 " style="fill: none; stroke: black; stroke-width: 2px; stroke-dasharray: 0.5, 5; stroke-linecap: round; stroke-linejoin: round;"></polyline></g><polyline points="134,346 170,319 " class="djs-hit djs-hit-stroke" style="fill: none; stroke-opacity: 0; stroke: white; stroke-width: 15px;"></polyline><rect x="128" y="313" width="48" height="39" class="djs-outline" style="fill: none;"></rect></g></g><g class="djs-group"><g class="djs-element djs-connection" data-element-id="Association_00u5adi" style="display: block;"><g class="djs-visual"><polyline points="525,339 570,310 " style="fill: none; stroke: black; stroke-width: 2px; stroke-dasharray: 0.5, 5; stroke-linecap: round; stroke-linejoin: round;"></polyline></g><polyline points="525,339 570,310 " class="djs-hit djs-hit-stroke" style="fill: none; stroke-opacity: 0; stroke: white; stroke-width: 15px;"></polyline><rect x="519" y="304" width="57" height="41" class="djs-outline" style="fill: none;"></rect></g></g><g class="djs-group"><g class="djs-element djs-connection" data-element-id="Association_1aru39p" style="display: block;"><g class="djs-visual"><polyline points="135,950 170,928 " style="fill: none; stroke: black; stroke-width: 2px; stroke-dasharray: 0.5, 5; stroke-linecap: round; stroke-linejoin: round;"></polyline></g><polyline points="135,950 170,928 " class="djs-hit djs-hit-stroke" style="fill: none; stroke-opacity: 0; stroke: white; stroke-width: 15px;"></polyline><rect x="129" y="922" width="47" height="34" class="djs-outline" style="fill: none;"></rect></g></g></g></g><defs><marker id="sequenceflow-end-white-black-6y75b579sqkbhu6y2zfxxmjhy" viewBox="0 0 20 20" refX="11" refY="10" markerWidth="10" markerHeight="10" orient="auto"><path d="M 1 5 L 11 10 L 1 15 Z" style="fill: black; stroke-width: 1px; stroke-linecap: round; stroke-dasharray: 10000, 1; stroke: black;"></path></marker></defs></svg>