<svg width="100%" height="100%" viewBox="-50, -206, 1835, 2953"><g><g class="djs-visual" id="Flow_1vreiup" transform="translate(0 0)"><path d="m  210,2550L210,2622 " style="fill: none; stroke-width: 2px; stroke: black; stroke-linejoin: round; marker-end: url(&quot;#sequenceflow-end-white-black-ecwlfqwhrtmtqc5jtzoc3j87s&quot;);"></path></g><g class="djs-visual" id="Flow_0e9zbcq" transform="translate(0 0)"><path d="m  210,2380L210,2450 " style="fill: none; stroke-width: 2px; stroke: black; stroke-linejoin: round; marker-end: url(&quot;#sequenceflow-end-white-black-ecwlfqwhrtmtqc5jtzoc3j87s&quot;);"></path></g><g class="djs-visual" id="Flow_1nrgyq7" transform="translate(0 0)"><path d="m  210,2210L210,2280 " style="fill: none; stroke-width: 2px; stroke: black; stroke-linejoin: round; marker-end: url(&quot;#sequenceflow-end-white-black-ecwlfqwhrtmtqc5jtzoc3j87s&quot;);"></path></g><g class="djs-visual" id="Flow_16314ew" transform="translate(0 0)"><path d="m  210,2040L210,2110 " style="fill: none; stroke-width: 2px; stroke: black; stroke-linejoin: round; marker-end: url(&quot;#sequenceflow-end-white-black-ecwlfqwhrtmtqc5jtzoc3j87s&quot;);"></path></g><g class="djs-visual" id="Flow_0x9nocj" transform="translate(0 0)"><path d="m  210,1860L210,1940 " style="fill: none; stroke-width: 2px; stroke: black; stroke-linejoin: round; marker-end: url(&quot;#sequenceflow-end-white-black-ecwlfqwhrtmtqc5jtzoc3j87s&quot;);"></path></g><g class="djs-visual" id="Flow_064knzu" transform="translate(0 0)"><path d="m  210,1690L210,1760 " style="fill: none; stroke-width: 2px; stroke: black; stroke-linejoin: round; marker-end: url(&quot;#sequenceflow-end-white-black-ecwlfqwhrtmtqc5jtzoc3j87s&quot;);"></path></g><g class="djs-visual" id="Flow_0d0nuwv" transform="translate(0 0)"><path d="m  210,1520L210,1590 " style="fill: none; stroke-width: 2px; stroke: black; stroke-linejoin: round; marker-end: url(&quot;#sequenceflow-end-white-black-ecwlfqwhrtmtqc5jtzoc3j87s&quot;);"></path></g><g class="djs-visual" id="Flow_1egqi2z" transform="translate(0 0)"><path d="m  210,1355L210,1420 " style="fill: none; stroke-width: 2px; stroke: black; stroke-linejoin: round; marker-end: url(&quot;#sequenceflow-end-white-black-ecwlfqwhrtmtqc5jtzoc3j87s&quot;);"></path></g><g class="djs-visual" id="Flow_0164sd6" transform="translate(0 0)"><path d="m  850,1280L850,1330 L235,1330 " style="fill: none; stroke-width: 2px; stroke: black; stroke-linejoin: round; marker-end: url(&quot;#sequenceflow-end-white-black-ecwlfqwhrtmtqc5jtzoc3j87s&quot;);"></path></g><g class="djs-visual" id="Flow_110e9mw" transform="translate(0 0)"><path d="m  850,1115L850,1180 " style="fill: none; stroke-width: 2px; stroke: black; stroke-linejoin: round; marker-end: url(&quot;#sequenceflow-end-white-black-ecwlfqwhrtmtqc5jtzoc3j87s&quot;);"></path></g><g class="djs-visual" id="Flow_0c9sl06" transform="translate(0 0)"><path d="m  1080,1020L1080,1090 L875,1090 " style="fill: none; stroke-width: 2px; stroke: black; stroke-linejoin: round; marker-end: url(&quot;#sequenceflow-end-white-black-ecwlfqwhrtmtqc5jtzoc3j87s&quot;);"></path></g><g class="djs-visual" id="Flow_1lsjgzc" transform="translate(0 0)"><path d="m  875,850L1080,850 L1080,920 " style="fill: none; stroke-width: 2px; stroke: black; stroke-linejoin: round; marker-end: url(&quot;#sequenceflow-end-white-black-ecwlfqwhrtmtqc5jtzoc3j87s&quot;);"></path></g><g class="djs-visual" id="Flow_0ppiyuu" transform="translate(0 0)"><path d="m  850,875L850,1065 " style="fill: none; stroke-width: 2px; stroke: black; stroke-linejoin: round; marker-end: url(&quot;#sequenceflow-end-white-black-ecwlfqwhrtmtqc5jtzoc3j87s&quot;);"></path></g><g class="djs-visual" id="Flow_0l4yifk" transform="translate(0 0)"><path d="m  850,760L850,825 " style="fill: none; stroke-width: 2px; stroke: black; stroke-linejoin: round; marker-end: url(&quot;#sequenceflow-end-white-black-ecwlfqwhrtmtqc5jtzoc3j87s&quot;);"></path></g><g class="djs-visual" id="Flow_09ynwqy" transform="translate(0 0)"><path d="m  235,570L850,570 L850,660 " style="fill: none; stroke-width: 2px; stroke: black; stroke-linejoin: round; marker-end: url(&quot;#sequenceflow-end-white-black-ecwlfqwhrtmtqc5jtzoc3j87s&quot;);"></path></g><g class="djs-visual" id="Flow_1ytzvkn" transform="translate(0 0)"><path d="m  210,1020L210,1305 " style="fill: none; stroke-width: 2px; stroke: black; stroke-linejoin: round; marker-end: url(&quot;#sequenceflow-end-white-black-ecwlfqwhrtmtqc5jtzoc3j87s&quot;);"></path></g><g class="djs-visual" id="Flow_1op3xwc" transform="translate(0 0)"><path d="m  210,760L210,920 " style="fill: none; stroke-width: 2px; stroke: black; stroke-linejoin: round; marker-end: url(&quot;#sequenceflow-end-white-black-ecwlfqwhrtmtqc5jtzoc3j87s&quot;);"></path></g><g class="djs-visual" id="Flow_18ofgs4" transform="translate(0 0)"><path d="m  210,595L210,660 " style="fill: none; stroke-width: 2px; stroke: black; stroke-linejoin: round; marker-end: url(&quot;#sequenceflow-end-white-black-ecwlfqwhrtmtqc5jtzoc3j87s&quot;);"></path></g><g class="djs-visual" id="Flow_1stay40" transform="translate(0 0)"><path d="m  210,480L210,545 " style="fill: none; stroke-width: 2px; stroke: black; stroke-linejoin: round; marker-end: url(&quot;#sequenceflow-end-white-black-ecwlfqwhrtmtqc5jtzoc3j87s&quot;);"></path></g><g class="djs-visual" id="Flow_0j0nuda" transform="translate(0 0)"><path d="m  210,310L210,380 " style="fill: none; stroke-width: 2px; stroke: black; stroke-linejoin: round; marker-end: url(&quot;#sequenceflow-end-white-black-ecwlfqwhrtmtqc5jtzoc3j87s&quot;);"></path></g><g class="djs-visual" id="Flow_16e8kuz" transform="translate(0 0)"><path d="m  210,140L210,210 " style="fill: none; stroke-width: 2px; stroke: black; stroke-linejoin: round; marker-end: url(&quot;#sequenceflow-end-white-black-ecwlfqwhrtmtqc5jtzoc3j87s&quot;);"></path></g><g class="djs-visual" id="Flow_1khhokf" transform="translate(0 0)"><path d="m  210,-42L210,40 " style="fill: none; stroke-width: 2px; stroke: black; stroke-linejoin: round; marker-end: url(&quot;#sequenceflow-end-white-black-ecwlfqwhrtmtqc5jtzoc3j87s&quot;);"></path></g><g class="djs-visual" id="StartEvent_1bm324f" transform="translate(192 -78)"><circle cx="18" cy="18" r="18" style="stroke: black; stroke-width: 2px; fill: white; fill-opacity: 0.95;"></circle></g><g class="djs-visual" id="StartEvent_1bm324f_label" transform="translate(175 -150)"><text lineHeight="1.2" class="djs-label" style="font-family: Arial, sans-serif; font-size: 11px; font-weight: normal; fill: black;"><tspan x="16.084228515625" y="9.899999999999999">Manual </tspan><tspan x="0" y="23.099999999999998">Disbursement </tspan><tspan x="14.221435546875" y="36.3">required</tspan></text></g><g class="djs-visual" id="Activity_1dzdwrs" transform="translate(145 40)"><rect x="0" y="0" width="130" height="100" rx="10" ry="10" style="stroke: black; stroke-width: 2px; fill: white; fill-opacity: 0.95;"></rect><text lineHeight="1.2" class="djs-label" style="font-family: Arial, sans-serif; font-size: 12px; font-weight: normal; fill: black;"><tspan x="22.306640625" y="46.4">Choose product </tspan><tspan x="38.8154296875" y="60.8">catalogue</tspan></text></g><g class="djs-visual" id="Activity_1mmjoub" transform="translate(145 210)"><rect x="0" y="0" width="130" height="100" rx="10" ry="10" style="stroke: black; stroke-width: 2px; fill: white; fill-opacity: 0.95;"></rect><text lineHeight="1.2" class="djs-label" style="font-family: Arial, sans-serif; font-size: 12px; font-weight: normal; fill: black;"><tspan x="34.8125" y="46.4">Set up new </tspan><tspan x="30.6474609375" y="60.8">arrangement</tspan></text></g><g class="djs-visual" id="Activity_0b43hce" transform="translate(145 380)"><rect x="0" y="0" width="130" height="100" rx="10" ry="10" style="stroke: black; stroke-width: 2px; fill: white; fill-opacity: 0.95;"></rect><text lineHeight="1.2" class="djs-label" style="font-family: Arial, sans-serif; font-size: 12px; font-weight: normal; fill: black;"><tspan x="14.478515625" y="53.599999999999994">Select Pricing Plan</tspan></text></g><g class="djs-visual" id="Gateway_0sb6n5z" transform="translate(185 545)"><polygon points="25,0 50,25 25,50 0,25" style="stroke: black; stroke-width: 2px; fill: white; fill-opacity: 0.95;"></polygon><path d="m 16,15 7.42857142857143,9.714285714285715 -7.42857142857143,9.714285714285715 3.428571428571429,0 5.714285714285715,-7.464228571428572 5.714285714285715,7.464228571428572 3.428571428571429,0 -7.42857142857143,-9.714285714285715 7.42857142857143,-9.714285714285715 -3.428571428571429,0 -5.714285714285715,7.464228571428572 -5.714285714285715,-7.464228571428572 -3.428571428571429,0 z" style="fill: black; stroke-width: 1px; stroke: black;"></path></g><g class="djs-visual" id="Activity_1s7vjau" transform="translate(145 660)"><rect x="0" y="0" width="130" height="100" rx="10" ry="10" style="stroke: black; stroke-width: 2px; fill: white; fill-opacity: 0.95;"></rect><text lineHeight="1.2" class="djs-label" style="font-family: Arial, sans-serif; font-size: 12px; font-weight: normal; fill: black;"><tspan x="34.1455078125" y="39.2">Set up auto </tspan><tspan x="36.3193359375" y="53.6">repayment </tspan><tspan x="34.6484375" y="68">instructions</tspan></text></g><g class="djs-visual" id="Activity_0mcviig" transform="translate(145 920)"><rect x="0" y="0" width="130" height="100" rx="10" ry="10" style="stroke: black; stroke-width: 2px; fill: white; fill-opacity: 0.95;"></rect><text lineHeight="1.2" class="djs-label" style="font-family: Arial, sans-serif; font-size: 12px; font-weight: normal; fill: black;"><tspan x="11.8037109375" y="46.4">Verify and authorise </tspan><tspan x="17.9736328125" y="60.8">new arrangement</tspan></text></g><g class="djs-visual" id="Gateway_12dkhft" transform="translate(185 1305)"><polygon points="25,0 50,25 25,50 0,25" style="stroke: black; stroke-width: 2px; fill: white; fill-opacity: 0.95;"></polygon><path d="m 16,15 7.42857142857143,9.714285714285715 -7.42857142857143,9.714285714285715 3.428571428571429,0 5.714285714285715,-7.464228571428572 5.714285714285715,7.464228571428572 3.428571428571429,0 -7.42857142857143,-9.714285714285715 7.42857142857143,-9.714285714285715 -3.428571428571429,0 -5.714285714285715,7.464228571428572 -5.714285714285715,-7.464228571428572 -3.428571428571429,0 z" style="fill: black; stroke-width: 1px; stroke: black;"></path></g><g class="djs-visual" id="Activity_0w92h07" transform="translate(785 660)"><rect x="0" y="0" width="130" height="100" rx="10" ry="10" style="stroke: black; stroke-width: 2px; fill: white; fill-opacity: 0.95;"></rect><text lineHeight="1.2" class="djs-label" style="font-family: Arial, sans-serif; font-size: 12px; font-weight: normal; fill: black;"><tspan x="27.8115234375" y="46.4">Decide on the </tspan><tspan x="14.8095703125" y="60.8">repayment method</tspan></text></g><g class="djs-visual" id="Gateway_1vu4zvo" transform="translate(825 825)"><polygon points="25,0 50,25 25,50 0,25" style="stroke: black; stroke-width: 2px; fill: white; fill-opacity: 0.95;"></polygon><path d="m 16,15 7.42857142857143,9.714285714285715 -7.42857142857143,9.714285714285715 3.428571428571429,0 5.714285714285715,-7.464228571428572 5.714285714285715,7.464228571428572 3.428571428571429,0 -7.42857142857143,-9.714285714285715 7.42857142857143,-9.714285714285715 -3.428571428571429,0 -5.714285714285715,7.464228571428572 -5.714285714285715,-7.464228571428572 -3.428571428571429,0 z" style="fill: black; stroke-width: 1px; stroke: black;"></path></g><g class="djs-visual" id="Gateway_0nk0f4t" transform="translate(825 1065)"><polygon points="25,0 50,25 25,50 0,25" style="stroke: black; stroke-width: 2px; fill: white; fill-opacity: 0.95;"></polygon><path d="m 16,15 7.42857142857143,9.714285714285715 -7.42857142857143,9.714285714285715 3.428571428571429,0 5.714285714285715,-7.464228571428572 5.714285714285715,7.464228571428572 3.428571428571429,0 -7.42857142857143,-9.714285714285715 7.42857142857143,-9.714285714285715 -3.428571428571429,0 -5.714285714285715,7.464228571428572 -5.714285714285715,-7.464228571428572 -3.428571428571429,0 z" style="fill: black; stroke-width: 1px; stroke: black;"></path></g><g class="djs-visual" id="Activity_1a5zlnj" transform="translate(785 1180)"><rect x="0" y="0" width="130" height="100" rx="10" ry="10" style="stroke: black; stroke-width: 2px; fill: white; fill-opacity: 0.95;"></rect><text lineHeight="1.2" class="djs-label" style="font-family: Arial, sans-serif; font-size: 12px; font-weight: normal; fill: black;"><tspan x="11.8037109375" y="46.4">Verify and authorise </tspan><tspan x="17.9736328125" y="60.8">new arrangement</tspan></text></g><g class="djs-visual" id="Activity_0m1ac3s" transform="translate(145 1420)"><rect x="0" y="0" width="130" height="100" rx="10" ry="10" style="stroke: black; stroke-width: 2px; fill: white; fill-opacity: 0.95;"></rect><text lineHeight="1.2" class="djs-label" style="font-family: Arial, sans-serif; font-size: 12px; font-weight: normal; fill: black;"><tspan x="18.1435546875" y="46.4">Create Mudaraba </tspan><tspan x="45.9892578125" y="60.8">finance</tspan></text></g><g class="djs-visual" id="Activity_042hg65" transform="translate(145 1590)"><rect x="0" y="0" width="130" height="100" rx="10" ry="10" style="stroke: black; stroke-width: 2px; fill: white; fill-opacity: 0.95;"></rect><text lineHeight="1.2" class="djs-label" style="font-family: Arial, sans-serif; font-size: 12px; font-weight: normal; fill: black;"><tspan x="20.8095703125" y="53.599999999999994">Generate advice</tspan></text></g><g class="djs-visual" id="DataObjectReference_18pd3e5" transform="translate(352 1615)"><path d="m 0,0 28.23529411764706,0 7.058823529411765,8.196721311475411 0,40.98360655737705 -35.294117647058826,0 0,-49.18032786885246 28.23529411764706,0 0,8.196721311475411 7.058823529411765,0" style="fill: white; stroke-width: 2px; stroke: black; fill-opacity: 0.95;"></path></g><g class="djs-visual" id="DataObjectReference_18pd3e5_label" transform="translate(323 1672)"><text lineHeight="1.2" class="djs-label" style="font-family: Arial, sans-serif; font-size: 11px; font-weight: normal; fill: black;"><tspan x="23.123046875" y="9.899999999999999">Repayment </tspan><tspan x="5.078857421875" y="23.099999999999998">Schedule; Letter of </tspan><tspan x="0" y="36.3">Terms and conditions</tspan></text></g><g class="djs-visual" id="Activity_1xwro5k" transform="translate(145 1760)"><rect x="0" y="0" width="130" height="100" rx="10" ry="10" style="stroke: black; stroke-width: 2px; fill: white; fill-opacity: 0.95;"></rect><text lineHeight="1.2" class="djs-label" style="font-family: Arial, sans-serif; font-size: 12px; font-weight: normal; fill: black;"><tspan x="20.484375" y="46.4">Deliver advice to </tspan><tspan x="38.4912109375" y="60.8">Customer</tspan></text></g><g class="djs-visual" id="DataObjectReference_123ncrc" transform="translate(352 1785)"><path d="m 0,0 28.23529411764706,0 7.058823529411765,8.196721311475411 0,40.98360655737705 -35.294117647058826,0 0,-49.18032786885246 28.23529411764706,0 0,8.196721311475411 7.058823529411765,0" style="fill: white; stroke-width: 2px; stroke: black; fill-opacity: 0.95;"></path></g><g class="djs-visual" id="DataObjectReference_123ncrc_label" transform="translate(323 1842)"><text lineHeight="1.2" class="djs-label" style="font-family: Arial, sans-serif; font-size: 11px; font-weight: normal; fill: black;"><tspan x="23.123046875" y="9.899999999999999">Repayment </tspan><tspan x="5.078857421875" y="23.099999999999998">Schedule; Letter of </tspan><tspan x="0" y="36.3">Terms and conditions</tspan></text></g><g class="djs-visual" id="Activity_0dwrw8s" transform="translate(145 1940)"><rect x="0" y="0" width="130" height="100" rx="10" ry="10" style="stroke: black; stroke-width: 2px; fill: white; fill-opacity: 0.95;"></rect><text lineHeight="1.2" class="djs-label" style="font-family: Arial, sans-serif; font-size: 12px; font-weight: normal; fill: black;"><tspan x="10.142578125" y="46.4">Select customer and </tspan><tspan x="45.9892578125" y="60.8">finance</tspan></text></g><g class="djs-visual" id="Activity_12ucjx9" transform="translate(145 2110)"><rect x="0" y="0" width="130" height="100" rx="10" ry="10" style="stroke: black; stroke-width: 2px; fill: white; fill-opacity: 0.95;"></rect><text lineHeight="1.2" class="djs-label" style="font-family: Arial, sans-serif; font-size: 12px; font-weight: normal; fill: black;"><tspan x="19.1455078125" y="46.4">Disburse through </tspan><tspan x="21.4755859375" y="60.8">account transfer</tspan></text></g><g class="djs-visual" id="Activity_0eib9ig" transform="translate(145 2280)"><rect x="0" y="0" width="130" height="100" rx="10" ry="10" style="stroke: black; stroke-width: 2px; fill: white; fill-opacity: 0.95;"></rect><text lineHeight="1.2" class="djs-label" style="font-family: Arial, sans-serif; font-size: 12px; font-weight: normal; fill: black;"><tspan x="11.8037109375" y="46.4">Verify and authorise </tspan><tspan x="28.6494140625" y="60.8">disbursement</tspan></text></g><g class="djs-visual" id="Activity_17gt5cc" transform="translate(145 2450)"><rect x="0" y="0" width="130" height="100" rx="10" ry="10" style="stroke: black; stroke-width: 2px; fill: white; fill-opacity: 0.95;"></rect><text lineHeight="1.2" class="djs-label" style="font-family: Arial, sans-serif; font-size: 12px; font-weight: normal; fill: black;"><tspan x="22.9765625" y="53.599999999999994">Disburse Funds</tspan></text></g><g class="djs-visual" id="Event_0lugnp2" transform="translate(192 2622)"><circle cx="18" cy="18" r="18" style="stroke: black; stroke-width: 4px; fill: white; fill-opacity: 0.95;"></circle></g><g class="djs-visual" id="Event_0lugnp2_label" transform="translate(176 2664)"><text lineHeight="1.2" class="djs-label" style="font-family: Arial, sans-serif; font-size: 11px; font-weight: normal; fill: black;"><tspan x="0" y="9.899999999999999">Disbursement </tspan><tspan x="9.018310546875" y="23.099999999999998">completed</tspan></text></g><g class="djs-visual" id="Activity_1yj9asq" transform="translate(1015 920)"><rect x="0" y="0" width="125" height="100" rx="10" ry="10" style="stroke: black; stroke-width: 5px; fill: white; fill-opacity: 0.95;"></rect><text lineHeight="1.2" class="djs-label" style="font-family: Arial, sans-serif; font-size: 12px; font-weight: normal; fill: black;"><tspan x="6.81640625" y="46.4">Register Direct Debit</tspan><tspan x="10.484375" y="60.8">Mandate (IF) (PBA)</tspan></text><rect x="0" y="0" width="14" height="14" rx="0" ry="0" style="stroke: black; stroke-width: 1px; fill: white;" transform="matrix(1 0 0 1 55 80)"></rect><path d="m55,80 m 7,2 l 0,10 m -5,-5 l 10,0" data-marker="sub-process" style="fill: white; stroke-width: 2px; stroke: black;"></path></g><g class="djs-visual" id="TextAnnotation_0bav7ui" transform="translate(330 -10)"><rect x="0" y="0" width="170" height="40" rx="0" ry="0" style="stroke: none; stroke-width: 2px; fill: none;"></rect><path d="m 0, 0 m 10,0 l -10,0 l 0,40 l 10,0" style="fill: none; stroke-width: 2px; stroke: black;"></path><text lineHeight="1.2" class="djs-label" style="font-family: Arial, sans-serif; font-size: 12px; font-weight: normal; fill: black;"><tspan x="5" y="15.799999999999999">Choose Product line, Product</tspan><tspan x="5" y="30.199999999999996">group and Product</tspan></text></g><g class="djs-visual" id="TextAnnotation_10jzwr9" transform="translate(330 130)"><rect x="0" y="0" width="260" height="113" rx="0" ry="0" style="stroke: none; stroke-width: 2px; fill: none;"></rect><path d="m 0, 0 m 10,0 l -10,0 l 0,113 l 10,0" style="fill: none; stroke-width: 2px; stroke: black;"></path><text lineHeight="1.2" class="djs-label" style="font-family: Arial, sans-serif; font-size: 12px; font-weight: normal; fill: black;"><tspan x="5" y="15.799999999999999">Input Customer Number, Currency</tspan><tspan x="5" y="30.199999999999996">- Finance amount</tspan><tspan x="5" y="44.599999999999994">- Term</tspan><tspan x="5" y="58.99999999999999">- Repayment frequency</tspan><tspan x="5" y="73.39999999999999">- Profit rate</tspan><tspan x="5" y="87.79999999999998">- Limit ID&nbsp;</tspan><tspan x="5" y="102.19999999999999">(System generates Arrangement ID)</tspan></text></g><g class="djs-visual" id="TextAnnotation_1c5wp57" transform="translate(330 590)"><rect x="0" y="0" width="400" height="170" rx="0" ry="0" style="stroke: none; stroke-width: 2px; fill: none;"></rect><path d="m 0, 0 m 10,0 l -10,0 l 0,170 l 10,0" style="fill: none; stroke-width: 2px; stroke: black;"></path><text lineHeight="1.2" class="djs-label" style="font-family: Arial, sans-serif; font-size: 12px; font-weight: normal; fill: black;"><tspan x="5" y="15.799999999999999">- Auto repayment instructions can be given for AA Financing.</tspan><tspan x="5" y="30.199999999999996">- Auto repayment mechanism takes care of the new arrangement fees an</tspan><tspan x="5" y="44.599999999999994">d other scheduled fees</tspan><tspan x="5" y="58.99999999999999">The following details are given:</tspan><tspan x="5" y="73.39999999999999">- Pay in account</tspan><tspan x="5" y="87.79999999999998">There are three types of auto repayment:</tspan><tspan x="5" y="102.19999999999999">- Full repayment</tspan><tspan x="5" y="116.6">- Partial repayment (finance to be settled to extent of the funds available</tspan><tspan x="5" y="131">in the account)</tspan><tspan x="5" y="145.4">- None (If the balance is fully sufficient the finance would be fully settl</tspan><tspan x="5" y="159.8">ed from the account, else no auto repayment would take place)</tspan></text></g><g class="djs-visual" id="TextAnnotation_0oi2yuu" transform="translate(330 870)"><rect x="0" y="0" width="200" height="40" rx="0" ry="0" style="stroke: none; stroke-width: 2px; fill: none;"></rect><path d="m 0, 0 m 10,0 l -10,0 l 0,40 l 10,0" style="fill: none; stroke-width: 2px; stroke: black;"></path><text lineHeight="1.2" class="djs-label" style="font-family: Arial, sans-serif; font-size: 12px; font-weight: normal; fill: black;"><tspan x="5" y="15.799999999999999">Input 'Arrangement ID', verify </tspan><tspan x="5" y="30.199999999999996">particulars of AA and authorise</tspan></text></g><g class="djs-visual" id="TextAnnotation_05fn76v" transform="translate(960 1120)"><rect x="0" y="0" width="140" height="55" rx="0" ry="0" style="stroke: none; stroke-width: 2px; fill: none;"></rect><path d="m 0, 0 m 10,0 l -10,0 l 0,55 l 10,0" style="fill: none; stroke-width: 2px; stroke: black;"></path><text lineHeight="1.2" class="djs-label" style="font-family: Arial, sans-serif; font-size: 12px; font-weight: normal; fill: black;"><tspan x="5" y="15.799999999999999">Input 'Arrangement ID', </tspan><tspan x="5" y="30.199999999999996">verify particulars of AA </tspan><tspan x="5" y="44.599999999999994">and authorise</tspan></text></g><g class="djs-visual" id="TextAnnotation_1mo4ab2" transform="translate(330 1520)"><rect x="0" y="0" width="190" height="55" rx="0" ry="0" style="stroke: none; stroke-width: 2px; fill: none;"></rect><path d="m 0, 0 m 10,0 l -10,0 l 0,55 l 10,0" style="fill: none; stroke-width: 2px; stroke: black;"></path><text lineHeight="1.2" class="djs-label" style="font-family: Arial, sans-serif; font-size: 12px; font-weight: normal; fill: black;"><tspan x="5" y="15.799999999999999">Letter generated to Customer </tspan><tspan x="5" y="30.199999999999996">with limit details, profit/ penalty</tspan><tspan x="5" y="44.599999999999994">rates, Repayment schedule</tspan></text></g><g class="djs-visual" id="TextAnnotation_0yhog99" transform="translate(330 2050)"><rect x="0" y="0" width="200" height="40" rx="0" ry="0" style="stroke: none; stroke-width: 2px; fill: none;"></rect><path d="m 0, 0 m 10,0 l -10,0 l 0,40 l 10,0" style="fill: none; stroke-width: 2px; stroke: black;"></path><text lineHeight="1.2" class="djs-label" style="font-family: Arial, sans-serif; font-size: 12px; font-weight: normal; fill: black;"><tspan x="5" y="15.799999999999999">Capture 'Drawdown account' </tspan><tspan x="5" y="30.199999999999996">(Customer account)</tspan></text></g><g class="djs-visual" id="TextAnnotation_0zov3as" transform="translate(330 2380)"><rect x="0" y="0" width="200" height="55" rx="0" ry="0" style="stroke: none; stroke-width: 2px; fill: none;"></rect><path d="m 0, 0 m 10,0 l -10,0 l 0,55 l 10,0" style="fill: none; stroke-width: 2px; stroke: black;"></path><text lineHeight="1.2" class="djs-label" style="font-family: Arial, sans-serif; font-size: 12px; font-weight: normal; fill: black;"><tspan x="5" y="15.799999999999999">Debit: Arrangement (Finance)</tspan><tspan x="5" y="30.199999999999996">Credit: Drawdown account </tspan><tspan x="5" y="44.599999999999994">(Customer account)</tspan></text></g><g class="djs-visual" id="Flow_18ofgs4_label" transform="translate(218 606)"><text lineHeight="1.2" class="djs-label" style="font-family: Arial, sans-serif; font-size: 11px; font-weight: normal; fill: black;"><tspan x="2.778564453125" y="9.899999999999999">Auto repayment </tspan><tspan x="0" y="23.099999999999998">instructions to be </tspan><tspan x="23.2265625" y="36.3">created</tspan></text></g><g class="djs-visual" id="Flow_09ynwqy_label" transform="translate(856 595)"><text lineHeight="1.2" class="djs-label" style="font-family: Arial, sans-serif; font-size: 11px; font-weight: normal; fill: black;"><tspan x="0" y="9.899999999999999">Manual repayment </tspan><tspan x="4.446044921875" y="23.099999999999998">instructions to be </tspan><tspan x="32.875732421875" y="36.3">given</tspan></text></g><g class="djs-visual" id="Flow_0ppiyuu_label" transform="translate(858 876)"><text lineHeight="1.2" class="djs-label" style="font-family: Arial, sans-serif; font-size: 11px; font-weight: normal; fill: black;"><tspan x="0" y="9.899999999999999">Over the counter </tspan><tspan x="15.176513671875" y="23.099999999999998">repayment</tspan></text></g><g class="djs-visual" id="Flow_1lsjgzc_label" transform="translate(1021 806)"><text lineHeight="1.2" class="djs-label" style="font-family: Arial, sans-serif; font-size: 11px; font-weight: normal; fill: black;"><tspan x="0" y="9.899999999999999">Repayment through </tspan><tspan x="20.936767578125" y="23.099999999999998">direct debit</tspan></text></g><g class="djs-visual" id="Flow_0c9sl06_label" transform="translate(1088 1046)"><text lineHeight="1.2" class="djs-label" style="font-family: Arial, sans-serif; font-size: 11px; font-weight: normal; fill: black;"><tspan x="0" y="9.899999999999999">Direct Debit Mandate </tspan><tspan x="27.203125" y="23.099999999999998">registered</tspan></text></g><g class="djs-visual" id="DataOutputAssociation_0wsrmdt" transform="translate(0 0)"><polyline points="275,1640 352,1640 " style="fill: none; stroke: black; stroke-width: 2px; stroke-dasharray: 0.5, 5; stroke-linecap: round; stroke-linejoin: round; marker-end: url(&quot;#association-end-white-black-ecwlfqwhrtmtqc5jtzoc3j87s&quot;);"></polyline></g><g class="djs-visual" id="DataOutputAssociation_0d7p53p" transform="translate(0 0)"><polyline points="275,1810 352,1810 " style="fill: none; stroke: black; stroke-width: 2px; stroke-dasharray: 0.5, 5; stroke-linecap: round; stroke-linejoin: round; marker-end: url(&quot;#association-end-white-black-ecwlfqwhrtmtqc5jtzoc3j87s&quot;);"></polyline></g><g class="djs-visual" id="Association_0d10qb5" transform="translate(0 0)"><polyline points="274,47 330,10 " style="fill: none; stroke: black; stroke-width: 2px; stroke-dasharray: 0.5, 5; stroke-linecap: round; stroke-linejoin: round;"></polyline></g><g class="djs-visual" id="Association_020w05m" transform="translate(0 0)"><polyline points="272,214 330,172 " style="fill: none; stroke: black; stroke-width: 2px; stroke-dasharray: 0.5, 5; stroke-linecap: round; stroke-linejoin: round;"></polyline></g><g class="djs-visual" id="Association_0j95xby" transform="translate(0 0)"><polyline points="272,663 330,620 " style="fill: none; stroke: black; stroke-width: 2px; stroke-dasharray: 0.5, 5; stroke-linecap: round; stroke-linejoin: round;"></polyline></g><g class="djs-visual" id="Association_019eogp" transform="translate(0 0)"><polyline points="274,926 330,889 " style="fill: none; stroke: black; stroke-width: 2px; stroke-dasharray: 0.5, 5; stroke-linecap: round; stroke-linejoin: round;"></polyline></g><g class="djs-visual" id="Association_02n6mkc" transform="translate(0 0)"><polyline points="913,1185 960,1151 " style="fill: none; stroke: black; stroke-width: 2px; stroke-dasharray: 0.5, 5; stroke-linecap: round; stroke-linejoin: round;"></polyline></g><g class="djs-visual" id="Association_0phaf7k" transform="translate(0 0)"><polyline points="272,1594 330,1551 " style="fill: none; stroke: black; stroke-width: 2px; stroke-dasharray: 0.5, 5; stroke-linecap: round; stroke-linejoin: round;"></polyline></g><g class="djs-visual" id="Association_04mj09l" transform="translate(0 0)"><polyline points="273,2114 330,2072 " style="fill: none; stroke: black; stroke-width: 2px; stroke-dasharray: 0.5, 5; stroke-linecap: round; stroke-linejoin: round;"></polyline></g><g class="djs-visual" id="Association_0nhxtnn" transform="translate(0 0)"><polyline points="273,2454 330,2414 " style="fill: none; stroke: black; stroke-width: 2px; stroke-dasharray: 0.5, 5; stroke-linecap: round; stroke-linejoin: round;"></polyline></g></g><g><rect class="viewport" x="-3085.9393939393935" y="-156.22510822510822" width="7510.822510822511" height="2857.142857142857"></rect></g></svg>