<svg width="100%" height="100%" viewBox="-118, 137, 1835, 760"><g><g class="djs-visual" id="Flow_08fvk8n" transform="translate(0 0)"><path d="m  125,590L550,590 L550,692 " style="fill: none; stroke-width: 2px; stroke: black; stroke-linejoin: round; marker-end: url(&quot;#sequenceflow-end-white-black-23fi2uc9efawyvjpbnwvk8qz3&quot;);"></path></g><g class="djs-visual" id="Flow_1x4xifn" transform="translate(0 0)"><path d="m  125,590L380,590 L380,692 " style="fill: none; stroke-width: 2px; stroke: black; stroke-linejoin: round; marker-end: url(&quot;#sequenceflow-end-white-black-23fi2uc9efawyvjpbnwvk8qz3&quot;);"></path></g><g class="djs-visual" id="Flow_0s7w9ck" transform="translate(0 0)"><path d="m  125,590L210,590 L210,692 " style="fill: none; stroke-width: 2px; stroke: black; stroke-linejoin: round; marker-end: url(&quot;#sequenceflow-end-white-black-23fi2uc9efawyvjpbnwvk8qz3&quot;);"></path></g><g class="djs-visual" id="Flow_1inw9hm" transform="translate(0 0)"><path d="m  75,590L0,590 L0,692 " style="fill: none; stroke-width: 2px; stroke: black; stroke-linejoin: round; marker-end: url(&quot;#sequenceflow-end-white-black-23fi2uc9efawyvjpbnwvk8qz3&quot;);"></path></g><g class="djs-visual" id="Flow_1qg51t8" transform="translate(0 0)"><path d="m  100,500L100,565 " style="fill: none; stroke-width: 2px; stroke: black; stroke-linejoin: round; marker-end: url(&quot;#sequenceflow-end-white-black-23fi2uc9efawyvjpbnwvk8qz3&quot;);"></path></g><g class="djs-visual" id="Flow_1068z4v" transform="translate(0 0)"><path d="m  100,358L100,400 " style="fill: none; stroke-width: 2px; stroke: black; stroke-linejoin: round; marker-end: url(&quot;#sequenceflow-end-white-black-23fi2uc9efawyvjpbnwvk8qz3&quot;);"></path></g><g class="djs-visual" id="Event_0dpuo1f" transform="translate(82 322)"><circle cx="18" cy="18" r="18" style="stroke: black; stroke-width: 2px; fill: white; fill-opacity: 0.95;"></circle></g><g class="djs-visual" id="Event_0dpuo1f_label" transform="translate(61 272)"><text lineHeight="1.2" class="djs-label" style="font-family: Arial, sans-serif; font-size: 11px; font-weight: normal; fill: black;"><tspan x="0" y="9.899999999999999">Payments to be </tspan><tspan x="24.453125" y="23.099999999999998">made</tspan></text></g><g class="djs-visual" id="Activity_19virrr" transform="translate(35 400)"><rect x="0" y="0" width="130" height="100" rx="10" ry="10" style="stroke: black; stroke-width: 2px; fill: white; fill-opacity: 0.95;"></rect><text lineHeight="1.2" class="djs-label" style="font-family: Arial, sans-serif; font-size: 12px; font-weight: normal; fill: black;"><tspan x="7.8076171875" y="53.599999999999994">Decide Payment type</tspan></text></g><g class="djs-visual" id="DataObjectReference_09w6k6q" transform="translate(-38 425)"><path d="m 0,0 28.23529411764706,0 7.058823529411765,8.196721311475411 0,40.98360655737705 -35.294117647058826,0 0,-49.18032786885246 28.23529411764706,0 0,8.196721311475411 7.058823529411765,0" style="fill: white; stroke-width: 2px; stroke: black; fill-opacity: 0.95;"></path></g><g class="djs-visual" id="DataObjectReference_09w6k6q_label" transform="translate(-62 482)"><text lineHeight="1.2" class="djs-label" style="font-family: Arial, sans-serif; font-size: 11px; font-weight: normal; fill: black;"><tspan x="0" y="9.899999999999999">Purchase Invoice</tspan></text></g><g class="djs-visual" id="Gateway_0bmysna" transform="translate(75 565)"><polygon points="25,0 50,25 25,50 0,25" style="stroke: black; stroke-width: 2px; fill: white; fill-opacity: 0.95;"></polygon><path d="m 16,15 7.42857142857143,9.714285714285715 -7.42857142857143,9.714285714285715 3.428571428571429,0 5.714285714285715,-7.464228571428572 5.714285714285715,7.464228571428572 3.428571428571429,0 -7.42857142857143,-9.714285714285715 7.42857142857143,-9.714285714285715 -3.428571428571429,0 -5.714285714285715,7.464228571428572 -5.714285714285715,-7.464228571428572 -3.428571428571429,0 z" style="fill: black; stroke-width: 1px; stroke: black;"></path></g><g class="djs-visual" id="Event_06avxcd" transform="translate(-18 692)"><circle cx="18" cy="18" r="18" style="stroke: black; stroke-width: 4px; fill: white; fill-opacity: 0.95;"></circle></g><g class="djs-visual" id="Event_06avxcd_label" transform="translate(-37 735)"><text lineHeight="1.2" class="djs-label" style="font-family: Arial, sans-serif; font-size: 11px; font-weight: normal; fill: black;"><tspan x="0" y="9.899999999999999">Down Payment </tspan><tspan x="17.58642578125" y="23.099999999999998">required</tspan></text></g><g class="djs-visual" id="Event_0nlzu6i" transform="translate(192 692)"><circle cx="18" cy="18" r="18" style="stroke: black; stroke-width: 4px; fill: white; fill-opacity: 0.95;"></circle></g><g class="djs-visual" id="Event_0nlzu6i_label" transform="translate(169 735)"><text lineHeight="1.2" class="djs-label" style="font-family: Arial, sans-serif; font-size: 11px; font-weight: normal; fill: black;"><tspan x="0" y="9.899999999999999">Vendor Payment </tspan><tspan x="20.456787109375" y="23.099999999999998">required</tspan></text></g><g class="djs-visual" id="Event_1yk5n1f" transform="translate(362 692)"><circle cx="18" cy="18" r="18" style="stroke: black; stroke-width: 4px; fill: white; fill-opacity: 0.95;"></circle></g><g class="djs-visual" id="Event_1yk5n1f_label" transform="translate(345 735)"><text lineHeight="1.2" class="djs-label" style="font-family: Arial, sans-serif; font-size: 11px; font-weight: normal; fill: black;"><tspan x="0" y="9.899999999999999">Cost Payment </tspan><tspan x="14.833740234375" y="23.099999999999998">required</tspan></text></g><g class="djs-visual" id="Event_060j9o8" transform="translate(532 692)"><circle cx="18" cy="18" r="18" style="stroke: black; stroke-width: 4px; fill: white; fill-opacity: 0.95;"></circle></g><g class="djs-visual" id="Event_060j9o8_label" transform="translate(504 735)"><text lineHeight="1.2" class="djs-label" style="font-family: Arial, sans-serif; font-size: 11px; font-weight: normal; fill: black;"><tspan x="0" y="9.899999999999999">Reviewer Payment </tspan><tspan x="26.44873046875" y="23.099999999999998">required</tspan></text></g><g class="djs-visual" id="DataInputAssociation_1jzburk" transform="translate(0 0)"><polyline points="-2,450 35,450 " style="fill: none; stroke: black; stroke-width: 2px; stroke-dasharray: 0.5, 5; stroke-linecap: round; stroke-linejoin: round; marker-end: url(&quot;#association-end-white-black-23fi2uc9efawyvjpbnwvk8qz3&quot;);"></polyline></g></g><g><rect class="viewport" x="-599.5" y="187" width="1735" height="660"></rect></g></svg>