<svg width="100%" height="100%" viewBox="-50, 64, 1835, 3521"><g><g class="djs-visual" id="Flow_0aklamn" transform="translate(0 0)"><path d="m  285,3320L520,3320 L520,3442 " style="fill: none; stroke-width: 2px; stroke: black; stroke-linejoin: round; marker-end: url(&quot;#sequenceflow-end-white-black-9q5dowqq298j1rmyjanrmdu7g&quot;);"></path></g><g class="djs-visual" id="Flow_04f6t16" transform="translate(0 0)"><path d="m  260,3240L260,3295 " style="fill: none; stroke-width: 2px; stroke: black; stroke-linejoin: round; marker-end: url(&quot;#sequenceflow-end-white-black-9q5dowqq298j1rmyjanrmdu7g&quot;);"></path></g><g class="djs-visual" id="Flow_0kmb810" transform="translate(0 0)"><path d="m  260,3345L260,3442 " style="fill: none; stroke-width: 2px; stroke: black; stroke-linejoin: round; marker-end: url(&quot;#sequenceflow-end-white-black-9q5dowqq298j1rmyjanrmdu7g&quot;);"></path></g><g class="djs-visual" id="Flow_1oksk4x" transform="translate(0 0)"><path d="m  260,3030L260,3140 " style="fill: none; stroke-width: 2px; stroke: black; stroke-linejoin: round; marker-end: url(&quot;#sequenceflow-end-white-black-9q5dowqq298j1rmyjanrmdu7g&quot;);"></path></g><g class="djs-visual" id="Flow_0ngk5t4" transform="translate(0 0)"><path d="m  1010,2800L1010,2832 " style="fill: none; stroke-width: 2px; stroke: black; stroke-linejoin: round; marker-end: url(&quot;#sequenceflow-end-white-black-9q5dowqq298j1rmyjanrmdu7g&quot;);"></path></g><g class="djs-visual" id="Flow_0sxhi42" transform="translate(0 0)"><path d="m  1010,2650L1010,2700 " style="fill: none; stroke-width: 2px; stroke: black; stroke-linejoin: round; marker-end: url(&quot;#sequenceflow-end-white-black-9q5dowqq298j1rmyjanrmdu7g&quot;);"></path></g><g class="djs-visual" id="Flow_17m5hid" transform="translate(0 0)"><path d="m  1010,2500L1010,2550 " style="fill: none; stroke-width: 2px; stroke: black; stroke-linejoin: round; marker-end: url(&quot;#sequenceflow-end-white-black-9q5dowqq298j1rmyjanrmdu7g&quot;);"></path></g><g class="djs-visual" id="Flow_1uyw8ni" transform="translate(0 0)"><path d="m  815,2270L1010,2270 L1010,2400 " style="fill: none; stroke-width: 2px; stroke: black; stroke-linejoin: round; marker-end: url(&quot;#sequenceflow-end-white-black-9q5dowqq298j1rmyjanrmdu7g&quot;);"></path></g><g class="djs-visual" id="Flow_1t1qv8j" transform="translate(0 0)"><path d="m  790,2650L790,2700 L640,2700 L640,1960 L285,1960 " style="fill: none; stroke-width: 2px; stroke: black; stroke-linejoin: round; marker-end: url(&quot;#sequenceflow-end-white-black-9q5dowqq298j1rmyjanrmdu7g&quot;);"></path></g><g class="djs-visual" id="Flow_1aswrcx" transform="translate(0 0)"><path d="m  790,2500L790,2550 " style="fill: none; stroke-width: 2px; stroke: black; stroke-linejoin: round; marker-end: url(&quot;#sequenceflow-end-white-black-9q5dowqq298j1rmyjanrmdu7g&quot;);"></path></g><g class="djs-visual" id="Flow_1nhkvw4" transform="translate(0 0)"><path d="m  790,2295L790,2400 " style="fill: none; stroke-width: 2px; stroke: black; stroke-linejoin: round; marker-end: url(&quot;#sequenceflow-end-white-black-9q5dowqq298j1rmyjanrmdu7g&quot;);"></path></g><g class="djs-visual" id="Flow_1xruzhu" transform="translate(0 0)"><path d="m  790,2210L790,2245 " style="fill: none; stroke-width: 2px; stroke: black; stroke-linejoin: round; marker-end: url(&quot;#sequenceflow-end-white-black-9q5dowqq298j1rmyjanrmdu7g&quot;);"></path></g><g class="djs-visual" id="Flow_0muiqhh" transform="translate(0 0)"><path d="m  260,2860L260,2930 " style="fill: none; stroke-width: 2px; stroke: black; stroke-linejoin: round; marker-end: url(&quot;#sequenceflow-end-white-black-9q5dowqq298j1rmyjanrmdu7g&quot;);"></path></g><g class="djs-visual" id="Flow_0te1ppp" transform="translate(0 0)"><path d="m  260,2680L260,2760 " style="fill: none; stroke-width: 2px; stroke: black; stroke-linejoin: round; marker-end: url(&quot;#sequenceflow-end-white-black-9q5dowqq298j1rmyjanrmdu7g&quot;);"></path></g><g class="djs-visual" id="Flow_0xq3qzd" transform="translate(0 0)"><path d="m  260,2500L260,2580 " style="fill: none; stroke-width: 2px; stroke: black; stroke-linejoin: round; marker-end: url(&quot;#sequenceflow-end-white-black-9q5dowqq298j1rmyjanrmdu7g&quot;);"></path></g><g class="djs-visual" id="Flow_0cu49yk" transform="translate(0 0)"><path d="m  260,2330L260,2400 " style="fill: none; stroke-width: 2px; stroke: black; stroke-linejoin: round; marker-end: url(&quot;#sequenceflow-end-white-black-9q5dowqq298j1rmyjanrmdu7g&quot;);"></path></g><g class="djs-visual" id="Flow_122u1cq" transform="translate(0 0)"><path d="m  260,2150L260,2230 " style="fill: none; stroke-width: 2px; stroke: black; stroke-linejoin: round; marker-end: url(&quot;#sequenceflow-end-white-black-9q5dowqq298j1rmyjanrmdu7g&quot;);"></path></g><g class="djs-visual" id="Flow_1p7i6t0" transform="translate(0 0)"><path d="m  260,1985L260,2050 " style="fill: none; stroke-width: 2px; stroke: black; stroke-linejoin: round; marker-end: url(&quot;#sequenceflow-end-white-black-9q5dowqq298j1rmyjanrmdu7g&quot;);"></path></g><g class="djs-visual" id="Flow_1spbkh2" transform="translate(0 0)"><path d="m  790,2070L790,2110 " style="fill: none; stroke-width: 2px; stroke: black; stroke-linejoin: round; marker-end: url(&quot;#sequenceflow-end-white-black-9q5dowqq298j1rmyjanrmdu7g&quot;);"></path></g><g class="djs-visual" id="Flow_0lhm0bm" transform="translate(0 0)"><path d="m  285,1820L790,1820 L790,1970 " style="fill: none; stroke-width: 2px; stroke: black; stroke-linejoin: round; marker-end: url(&quot;#sequenceflow-end-white-black-9q5dowqq298j1rmyjanrmdu7g&quot;);"></path></g><g class="djs-visual" id="Flow_0bte1kx" transform="translate(0 0)"><path d="m  260,1845L260,1935 " style="fill: none; stroke-width: 2px; stroke: black; stroke-linejoin: round; marker-end: url(&quot;#sequenceflow-end-white-black-9q5dowqq298j1rmyjanrmdu7g&quot;);"></path></g><g class="djs-visual" id="Flow_05pnrhy" transform="translate(0 0)"><path d="m  260,1620L260,1795 " style="fill: none; stroke-width: 2px; stroke: black; stroke-linejoin: round; marker-end: url(&quot;#sequenceflow-end-white-black-9q5dowqq298j1rmyjanrmdu7g&quot;);"></path></g><g class="djs-visual" id="Flow_1uk8y4n" transform="translate(0 0)"><path d="m  790,1620L790,1682 " style="fill: none; stroke-width: 2px; stroke: black; stroke-linejoin: round; marker-end: url(&quot;#sequenceflow-end-white-black-9q5dowqq298j1rmyjanrmdu7g&quot;);"></path></g><g class="djs-visual" id="Flow_1qylv0s" transform="translate(0 0)"><path d="m  285,1410L790,1410 L790,1520 " style="fill: none; stroke-width: 2px; stroke: black; stroke-linejoin: round; marker-end: url(&quot;#sequenceflow-end-white-black-9q5dowqq298j1rmyjanrmdu7g&quot;);"></path></g><g class="djs-visual" id="Flow_099xmcv" transform="translate(0 0)"><path d="m  260,1435L260,1520 " style="fill: none; stroke-width: 2px; stroke: black; stroke-linejoin: round; marker-end: url(&quot;#sequenceflow-end-white-black-9q5dowqq298j1rmyjanrmdu7g&quot;);"></path></g><g class="djs-visual" id="Flow_0lzabpt" transform="translate(0 0)"><path d="m  260,1240L260,1385 " style="fill: none; stroke-width: 2px; stroke: black; stroke-linejoin: round; marker-end: url(&quot;#sequenceflow-end-white-black-9q5dowqq298j1rmyjanrmdu7g&quot;);"></path></g><g class="djs-visual" id="Flow_0299kke" transform="translate(0 0)"><path d="m  790,1240L790,1292 " style="fill: none; stroke-width: 2px; stroke: black; stroke-linejoin: round; marker-end: url(&quot;#sequenceflow-end-white-black-9q5dowqq298j1rmyjanrmdu7g&quot;);"></path></g><g class="djs-visual" id="Flow_0qk3qto" transform="translate(0 0)"><path d="m  285,1030L790,1030 L790,1140 " style="fill: none; stroke-width: 2px; stroke: black; stroke-linejoin: round; marker-end: url(&quot;#sequenceflow-end-white-black-9q5dowqq298j1rmyjanrmdu7g&quot;);"></path></g><g class="djs-visual" id="Flow_0nmazzt" transform="translate(0 0)"><path d="m  260,1055L260,1140 " style="fill: none; stroke-width: 2px; stroke: black; stroke-linejoin: round; marker-end: url(&quot;#sequenceflow-end-white-black-9q5dowqq298j1rmyjanrmdu7g&quot;);"></path></g><g class="djs-visual" id="Flow_15racyc" transform="translate(0 0)"><path d="m  790,870L790,922 " style="fill: none; stroke-width: 2px; stroke: black; stroke-linejoin: round; marker-end: url(&quot;#sequenceflow-end-white-black-9q5dowqq298j1rmyjanrmdu7g&quot;);"></path></g><g class="djs-visual" id="Flow_0u4qt7w" transform="translate(0 0)"><path d="m  260,870L260,1005 " style="fill: none; stroke-width: 2px; stroke: black; stroke-linejoin: round; marker-end: url(&quot;#sequenceflow-end-white-black-9q5dowqq298j1rmyjanrmdu7g&quot;);"></path></g><g class="djs-visual" id="Flow_0ju1n8a" transform="translate(0 0)"><path d="m  285,680L790,680 L790,770 " style="fill: none; stroke-width: 2px; stroke: black; stroke-linejoin: round; marker-end: url(&quot;#sequenceflow-end-white-black-9q5dowqq298j1rmyjanrmdu7g&quot;);"></path></g><g class="djs-visual" id="Flow_0oez6fz" transform="translate(0 0)"><path d="m  260,705L260,770 " style="fill: none; stroke-width: 2px; stroke: black; stroke-linejoin: round; marker-end: url(&quot;#sequenceflow-end-white-black-9q5dowqq298j1rmyjanrmdu7g&quot;);"></path></g><g class="djs-visual" id="Flow_1i4p0se" transform="translate(0 0)"><path d="m  260,580L260,655 " style="fill: none; stroke-width: 2px; stroke: black; stroke-linejoin: round; marker-end: url(&quot;#sequenceflow-end-white-black-9q5dowqq298j1rmyjanrmdu7g&quot;);"></path></g><g class="djs-visual" id="Flow_1w8wz5d" transform="translate(0 0)"><path d="m  260,410L260,480 " style="fill: none; stroke-width: 2px; stroke: black; stroke-linejoin: round; marker-end: url(&quot;#sequenceflow-end-white-black-9q5dowqq298j1rmyjanrmdu7g&quot;);"></path></g><g class="djs-visual" id="Flow_1ivppft" transform="translate(0 0)"><path d="m  260,220L260,310 " style="fill: none; stroke-width: 2px; stroke: black; stroke-linejoin: round; marker-end: url(&quot;#sequenceflow-end-white-black-9q5dowqq298j1rmyjanrmdu7g&quot;);"></path></g><g class="djs-visual" id="StartEvent_1bm324f" transform="translate(242 184)"><circle cx="18" cy="18" r="18" style="stroke: black; stroke-width: 2px; fill: white; fill-opacity: 0.95;"></circle></g><g class="djs-visual" id="StartEvent_1bm324f_label" transform="translate(215 120)"><text lineHeight="1.2" class="djs-label" style="font-family: Arial, sans-serif; font-size: 11px; font-weight: normal; fill: black;"><tspan x="0" y="9.899999999999999">Awaiting response </tspan><tspan x="13.0546875" y="23.099999999999998">from clearing</tspan></text></g><g class="djs-visual" id="Activity_0rwgme6" transform="translate(195 310)"><rect x="0" y="0" width="130" height="100" rx="10" ry="10" style="stroke: black; stroke-width: 2px; fill: white; fill-opacity: 0.95;"></rect><text lineHeight="1.2" class="djs-label" style="font-family: Arial, sans-serif; font-size: 12px; font-weight: normal; fill: black;"><tspan x="20.3125" y="46.4">Receive file from </tspan><tspan x="42.4921875" y="60.8">Clearing</tspan></text></g><g class="djs-visual" id="DataObjectReference_04buh53" transform="translate(82 335)"><path d="m 0,0 28.23529411764706,0 7.058823529411765,8.196721311475411 0,40.98360655737705 -35.294117647058826,0 0,-49.18032786885246 28.23529411764706,0 0,8.196721311475411 7.058823529411765,0" style="fill: white; stroke-width: 2px; stroke: black; fill-opacity: 0.95;"></path></g><g class="djs-visual" id="DataObjectReference_04buh53_label" transform="translate(78 395)"><text lineHeight="1.2" class="djs-label" style="font-family: Arial, sans-serif; font-size: 11px; font-weight: normal; fill: black;"><tspan x="0" y="9.899999999999999">pacs.002</tspan></text></g><g class="djs-visual" id="Activity_1dphy3h" transform="translate(195 480)"><rect x="0" y="0" width="130" height="100" rx="10" ry="10" style="stroke: black; stroke-width: 2px; fill: white; fill-opacity: 0.95;"></rect><text lineHeight="1.2" class="djs-label" style="font-family: Arial, sans-serif; font-size: 12px; font-weight: normal; fill: black;"><tspan x="24.1552734375" y="46.4">Perform syntax </tspan><tspan x="37.1484375" y="60.8">validations</tspan></text></g><g class="djs-visual" id="Gateway_144opxn" transform="translate(235 655)"><polygon points="25,0 50,25 25,50 0,25" style="stroke: black; stroke-width: 2px; fill: white; fill-opacity: 0.95;"></polygon><path d="m 16,15 7.42857142857143,9.714285714285715 -7.42857142857143,9.714285714285715 3.428571428571429,0 5.714285714285715,-7.464228571428572 5.714285714285715,7.464228571428572 3.428571428571429,0 -7.42857142857143,-9.714285714285715 7.42857142857143,-9.714285714285715 -3.428571428571429,0 -5.714285714285715,7.464228571428572 -5.714285714285715,-7.464228571428572 -3.428571428571429,0 z" style="fill: black; stroke-width: 1px; stroke: black;"></path></g><g class="djs-visual" id="Activity_0c9zvxh" transform="translate(195 770)"><rect x="0" y="0" width="130" height="100" rx="10" ry="10" style="stroke: black; stroke-width: 2px; fill: white; fill-opacity: 0.95;"></rect><text lineHeight="1.2" class="djs-label" style="font-family: Arial, sans-serif; font-size: 12px; font-weight: normal; fill: black;"><tspan x="24.4765625" y="46.4">Identify original </tspan><tspan x="35.9873046875" y="60.8">transaction</tspan></text></g><g class="djs-visual" id="Activity_1jpt8p9" transform="translate(725 770)"><rect x="0" y="0" width="130" height="100" rx="10" ry="10" style="stroke: black; stroke-width: 2px; fill: white; fill-opacity: 0.95;"></rect><text lineHeight="1.2" class="djs-label" style="font-family: Arial, sans-serif; font-size: 12px; font-weight: normal; fill: black;"><tspan x="38.4931640625" y="53.599999999999994">Reject file</tspan></text></g><g class="djs-visual" id="Gateway_0u1cajw" transform="translate(235 1005)"><polygon points="25,0 50,25 25,50 0,25" style="stroke: black; stroke-width: 2px; fill: white; fill-opacity: 0.95;"></polygon><path d="m 16,15 7.42857142857143,9.714285714285715 -7.42857142857143,9.714285714285715 3.428571428571429,0 5.714285714285715,-7.464228571428572 5.714285714285715,7.464228571428572 3.428571428571429,0 -7.42857142857143,-9.714285714285715 7.42857142857143,-9.714285714285715 -3.428571428571429,0 -5.714285714285715,7.464228571428572 -5.714285714285715,-7.464228571428572 -3.428571428571429,0 z" style="fill: black; stroke-width: 1px; stroke: black;"></path></g><g class="djs-visual" id="Event_029pz00" transform="translate(772 922)"><circle cx="18" cy="18" r="18" style="stroke: black; stroke-width: 4px; fill: white; fill-opacity: 0.95;"></circle></g><g class="djs-visual" id="Event_029pz00_label" transform="translate(760 967)"><text lineHeight="1.2" class="djs-label" style="font-family: Arial, sans-serif; font-size: 11px; font-weight: normal; fill: black;"><tspan x="0" y="9.899999999999999">File rejected</tspan></text></g><g class="djs-visual" id="Activity_0v4gcuh" transform="translate(195 1140)"><rect x="0" y="0" width="130" height="100" rx="10" ry="10" style="stroke: black; stroke-width: 2px; fill: white; fill-opacity: 0.95;"></rect><text lineHeight="1.2" class="djs-label" style="font-family: Arial, sans-serif; font-size: 12px; font-weight: normal; fill: black;"><tspan x="27.4814453125" y="46.4">Check type of </tspan><tspan x="15.80859375" y="60.8">response received</tspan></text></g><g class="djs-visual" id="Activity_1ecd61y" transform="translate(725 1140)"><rect x="0" y="0" width="130" height="100" rx="10" ry="10" style="stroke: black; stroke-width: 2px; fill: white; fill-opacity: 0.95;"></rect><text lineHeight="1.2" class="djs-label" style="font-family: Arial, sans-serif; font-size: 12px; font-weight: normal; fill: black;"><tspan x="15.1435546875" y="53.599999999999994">Cancel transaction</tspan></text></g><g class="djs-visual" id="Event_12166vq" transform="translate(772 1292)"><circle cx="18" cy="18" r="18" style="stroke: black; stroke-width: 4px; fill: white; fill-opacity: 0.95;"></circle></g><g class="djs-visual" id="Event_12166vq_label" transform="translate(762 1339)"><text lineHeight="1.2" class="djs-label" style="font-family: Arial, sans-serif; font-size: 11px; font-weight: normal; fill: black;"><tspan x="0" y="9.899999999999999">Transaction </tspan><tspan x="4.7890625" y="23.099999999999998">cancelled</tspan></text></g><g class="djs-visual" id="Gateway_0ehnp95" transform="translate(235 1385)"><polygon points="25,0 50,25 25,50 0,25" style="stroke: black; stroke-width: 2px; fill: white; fill-opacity: 0.95;"></polygon><path d="m 16,15 7.42857142857143,9.714285714285715 -7.42857142857143,9.714285714285715 3.428571428571429,0 5.714285714285715,-7.464228571428572 5.714285714285715,7.464228571428572 3.428571428571429,0 -7.42857142857143,-9.714285714285715 7.42857142857143,-9.714285714285715 -3.428571428571429,0 -5.714285714285715,7.464228571428572 -5.714285714285715,-7.464228571428572 -3.428571428571429,0 z" style="fill: black; stroke-width: 1px; stroke: black;"></path></g><g class="djs-visual" id="Activity_1xw6pfn" transform="translate(195 1520)"><rect x="0" y="0" width="130" height="100" rx="10" ry="10" style="stroke: black; stroke-width: 2px; fill: white; fill-opacity: 0.95;"></rect><text lineHeight="1.2" class="djs-label" style="font-family: Arial, sans-serif; font-size: 12px; font-weight: normal; fill: black;"><tspan x="25.81640625" y="46.4">Check route to </tspan><tspan x="14.4677734375" y="60.8">exception indicator</tspan></text></g><g class="djs-visual" id="Activity_0b5nwe0" transform="translate(725 1520)"><rect x="0" y="0" width="130" height="100" rx="10" ry="10" style="stroke: black; stroke-width: 2px; fill: white; fill-opacity: 0.95;"></rect><text lineHeight="1.2" class="djs-label" style="font-family: Arial, sans-serif; font-size: 12px; font-weight: normal; fill: black;"><tspan x="27.9765625" y="53.599999999999994">Update status</tspan></text></g><g class="djs-visual" id="Event_1i0juvz" transform="translate(772 1682)"><circle cx="18" cy="18" r="18" style="stroke: black; stroke-width: 4px; fill: white; fill-opacity: 0.95;"></circle></g><g class="djs-visual" id="Event_1i0juvz_label" transform="translate(745 1725)"><text lineHeight="1.2" class="djs-label" style="font-family: Arial, sans-serif; font-size: 11px; font-weight: normal; fill: black;"><tspan x="1.785888671875" y="9.899999999999999">Redirected Credit </tspan><tspan x="0" y="23.099999999999998">transfer completed </tspan><tspan x="15.15625" y="36.3">successfully</tspan></text></g><g class="djs-visual" id="Gateway_04ddppk" transform="translate(235 1795)"><polygon points="25,0 50,25 25,50 0,25" style="stroke: black; stroke-width: 2px; fill: white; fill-opacity: 0.95;"></polygon><path d="m 16,15 7.42857142857143,9.714285714285715 -7.42857142857143,9.714285714285715 3.428571428571429,0 5.714285714285715,-7.464228571428572 5.714285714285715,7.464228571428572 3.428571428571429,0 -7.42857142857143,-9.714285714285715 7.42857142857143,-9.714285714285715 -3.428571428571429,0 -5.714285714285715,7.464228571428572 -5.714285714285715,-7.464228571428572 -3.428571428571429,0 z" style="fill: black; stroke-width: 1px; stroke: black;"></path></g><g class="djs-visual" id="Activity_0jic7yq" transform="translate(195 2050)"><rect x="0" y="0" width="130" height="100" rx="10" ry="10" style="stroke: black; stroke-width: 2px; fill: white; fill-opacity: 0.95;"></rect><text lineHeight="1.2" class="djs-label" style="font-family: Arial, sans-serif; font-size: 12px; font-weight: normal; fill: black;"><tspan x="24.4736328125" y="46.4">Update original </tspan><tspan x="35.9873046875" y="60.8">transaction</tspan></text></g><g class="djs-visual" id="Activity_0snq6mq" transform="translate(725 1970)"><rect x="0" y="0" width="130" height="100" rx="10" ry="10" style="stroke: black; stroke-width: 2px; fill: white; fill-opacity: 0.95;"></rect><text lineHeight="1.2" class="djs-label" style="font-family: Arial, sans-serif; font-size: 12px; font-weight: normal; fill: black;"><tspan x="16.1396484375" y="46.4">Place in exception </tspan><tspan x="48.15234375" y="60.8">queue</tspan></text></g><g class="djs-visual" id="Gateway_1qlqbje" transform="translate(235 1935)"><polygon points="25,0 50,25 25,50 0,25" style="stroke: black; stroke-width: 2px; fill: white; fill-opacity: 0.95;"></polygon><path d="m 16,15 7.42857142857143,9.714285714285715 -7.42857142857143,9.714285714285715 3.428571428571429,0 5.714285714285715,-7.464228571428572 5.714285714285715,7.464228571428572 3.428571428571429,0 -7.42857142857143,-9.714285714285715 7.42857142857143,-9.714285714285715 -3.428571428571429,0 -5.714285714285715,7.464228571428572 -5.714285714285715,-7.464228571428572 -3.428571428571429,0 z" style="fill: black; stroke-width: 1px; stroke: black;"></path></g><g class="djs-visual" id="Activity_1kdxfzq" transform="translate(725 2110)"><rect x="0" y="0" width="130" height="100" rx="10" ry="10" style="stroke: black; stroke-width: 2px; fill: white; fill-opacity: 0.95;"></rect><text lineHeight="1.2" class="djs-label" style="font-family: Arial, sans-serif; font-size: 12px; font-weight: normal; fill: black;"><tspan x="22.1484375" y="39.2">Decide to return </tspan><tspan x="16.4765625" y="53.6">payment or ignore </tspan><tspan x="15.802734375" y="68">negative response</tspan></text></g><g class="djs-visual" id="Activity_05u86uc" transform="translate(195 2230)"><rect x="0" y="0" width="130" height="100" rx="10" ry="10" style="stroke: black; stroke-width: 2px; fill: white; fill-opacity: 0.95;"></rect><text lineHeight="1.2" class="djs-label" style="font-family: Arial, sans-serif; font-size: 12px; font-weight: normal; fill: black;"><tspan x="29.4873046875" y="46.4">Create return </tspan><tspan x="35.9873046875" y="60.8">transaction</tspan></text></g><g class="djs-visual" id="Activity_102mlvt" transform="translate(195 2400)"><rect x="0" y="0" width="130" height="100" rx="10" ry="10" style="stroke: black; stroke-width: 2px; fill: white; fill-opacity: 0.95;"></rect><text lineHeight="1.2" class="djs-label" style="font-family: Arial, sans-serif; font-size: 12px; font-weight: normal; fill: black;"><tspan x="9.1318359375" y="46.4">Generate accounting </tspan><tspan x="46.984375" y="60.8">entries</tspan></text></g><g class="djs-visual" id="Activity_1uipxfa" transform="translate(195 2580)"><rect x="0" y="0" width="130" height="100" rx="10" ry="10" style="stroke: black; stroke-width: 2px; fill: white; fill-opacity: 0.95;"></rect><text lineHeight="1.2" class="djs-label" style="font-family: Arial, sans-serif; font-size: 12px; font-weight: normal; fill: black;"><tspan x="10.3037109375" y="46.4">Generate settlement </tspan><tspan x="46.984375" y="60.8">entries</tspan></text></g><g class="djs-visual" id="Activity_0r89ovm" transform="translate(195 2760)"><rect x="0" y="0" width="130" height="100" rx="10" ry="10" style="stroke: black; stroke-width: 2px; fill: white; fill-opacity: 0.95;"></rect><text lineHeight="1.2" class="djs-label" style="font-family: Arial, sans-serif; font-size: 12px; font-weight: normal; fill: black;"><tspan x="14.47265625" y="53.599999999999994">Update transaction</tspan></text></g><g class="djs-visual" id="Activity_0241g5h" transform="translate(195 2930)"><rect x="0" y="0" width="130" height="100" rx="10" ry="10" style="stroke: black; stroke-width: 2px; fill: white; fill-opacity: 0.95;"></rect><text lineHeight="1.2" class="djs-label" style="font-family: Arial, sans-serif; font-size: 12px; font-weight: normal; fill: black;"><tspan x="13.46484375" y="46.4">Generate and send </tspan><tspan x="11.1416015625" y="60.8">message to clearing</tspan></text></g><g class="djs-visual" id="DataObjectReference_1bjns39" transform="translate(362 2955)"><path d="m 0,0 28.23529411764706,0 7.058823529411765,8.196721311475411 0,40.98360655737705 -35.294117647058826,0 0,-49.18032786885246 28.23529411764706,0 0,8.196721311475411 7.058823529411765,0" style="fill: white; stroke-width: 2px; stroke: black; fill-opacity: 0.95;"></path></g><g class="djs-visual" id="DataObjectReference_1bjns39_label" transform="translate(358 3015)"><text lineHeight="1.2" class="djs-label" style="font-family: Arial, sans-serif; font-size: 11px; font-weight: normal; fill: black;"><tspan x="0" y="9.899999999999999">pacs.004</tspan></text></g><g class="djs-visual" id="Event_0py0jas" transform="translate(242 3442)"><circle cx="18" cy="18" r="18" style="stroke: black; stroke-width: 4px; fill: white; fill-opacity: 0.95;"></circle></g><g class="djs-visual" id="Event_0py0jas_label" transform="translate(211 3489)"><text lineHeight="1.2" class="djs-label" style="font-family: Arial, sans-serif; font-size: 11px; font-weight: normal; fill: black;"><tspan x="0" y="9.899999999999999">Return of redirected </tspan><tspan x="14.31787109375" y="23.099999999999998">credit transfer </tspan><tspan x="23.2265625" y="36.3">processed</tspan></text></g><g class="djs-visual" id="Gateway_1o5mbwc" transform="translate(765 2245)"><polygon points="25,0 50,25 25,50 0,25" style="stroke: black; stroke-width: 2px; fill: white; fill-opacity: 0.95;"></polygon><path d="m 16,15 7.42857142857143,9.714285714285715 -7.42857142857143,9.714285714285715 3.428571428571429,0 5.714285714285715,-7.464228571428572 5.714285714285715,7.464228571428572 3.428571428571429,0 -7.42857142857143,-9.714285714285715 7.42857142857143,-9.714285714285715 -3.428571428571429,0 -5.714285714285715,7.464228571428572 -5.714285714285715,-7.464228571428572 -3.428571428571429,0 z" style="fill: black; stroke-width: 1px; stroke: black;"></path></g><g class="djs-visual" id="Activity_1r8uwi8" transform="translate(725 2400)"><rect x="0" y="0" width="130" height="100" rx="10" ry="10" style="stroke: black; stroke-width: 2px; fill: white; fill-opacity: 0.95;"></rect><text lineHeight="1.2" class="djs-label" style="font-family: Arial, sans-serif; font-size: 12px; font-weight: normal; fill: black;"><tspan x="21.978515625" y="53.599999999999994">Return payment</tspan></text></g><g class="djs-visual" id="Activity_169zmtd" transform="translate(725 2550)"><rect x="0" y="0" width="130" height="100" rx="10" ry="10" style="stroke: black; stroke-width: 2px; fill: white; fill-opacity: 0.95;"></rect><text lineHeight="1.2" class="djs-label" style="font-family: Arial, sans-serif; font-size: 12px; font-weight: normal; fill: black;"><tspan x="22.6484375" y="53.599999999999994">Authorise return</tspan></text></g><g class="djs-visual" id="Activity_184ub9l" transform="translate(945 2400)"><rect x="0" y="0" width="130" height="100" rx="10" ry="10" style="stroke: black; stroke-width: 2px; fill: white; fill-opacity: 0.95;"></rect><text lineHeight="1.2" class="djs-label" style="font-family: Arial, sans-serif; font-size: 12px; font-weight: normal; fill: black;"><tspan x="23.47265625" y="46.4">Ignore negative </tspan><tspan x="40.154296875" y="60.8">response</tspan></text></g><g class="djs-visual" id="Activity_05w2err" transform="translate(945 2550)"><rect x="0" y="0" width="130" height="100" rx="10" ry="10" style="stroke: black; stroke-width: 2px; fill: white; fill-opacity: 0.95;"></rect><text lineHeight="1.2" class="djs-label" style="font-family: Arial, sans-serif; font-size: 12px; font-weight: normal; fill: black;"><tspan x="15.1396484375" y="53.599999999999994">Authorise payment</tspan></text></g><g class="djs-visual" id="Activity_00hcx55" transform="translate(945 2700)"><rect x="0" y="0" width="130" height="100" rx="10" ry="10" style="stroke: black; stroke-width: 2px; fill: white; fill-opacity: 0.95;"></rect><text lineHeight="1.2" class="djs-label" style="font-family: Arial, sans-serif; font-size: 12px; font-weight: normal; fill: black;"><tspan x="23.1416015625" y="46.4">Delete negative </tspan><tspan x="40.154296875" y="60.8">response</tspan></text></g><g class="djs-visual" id="Event_0k8m5zn" transform="translate(992 2832)"><circle cx="18" cy="18" r="18" style="stroke: black; stroke-width: 4px; fill: white; fill-opacity: 0.95;"></circle></g><g class="djs-visual" id="Event_0k8m5zn_label" transform="translate(964 2878)"><text lineHeight="1.2" class="djs-label" style="font-family: Arial, sans-serif; font-size: 11px; font-weight: normal; fill: black;"><tspan x="0" y="9.899999999999999">Negative response </tspan><tspan x="27.515625" y="23.099999999999998">ignored</tspan></text></g><g class="djs-visual" id="Gateway_0r3t3c5" transform="translate(235 3295)"><polygon points="25,0 50,25 25,50 0,25" style="stroke: black; stroke-width: 2px; fill: white; fill-opacity: 0.95;"></polygon><path d="m 16,15 7.42857142857143,9.714285714285715 -7.42857142857143,9.714285714285715 3.428571428571429,0 5.714285714285715,-7.464228571428572 5.714285714285715,7.464228571428572 3.428571428571429,0 -7.42857142857143,-9.714285714285715 7.42857142857143,-9.714285714285715 -3.428571428571429,0 -5.714285714285715,7.464228571428572 -5.714285714285715,-7.464228571428572 -3.428571428571429,0 z" style="fill: black; stroke-width: 1px; stroke: black;"></path></g><g class="djs-visual" id="Event_0nas51x" transform="translate(502 3442)"><circle cx="18" cy="18" r="18" style="stroke: black; stroke-width: 4px; fill: white; fill-opacity: 0.95;"></circle></g><g class="djs-visual" id="Event_0nas51x_label" transform="translate(492 3485)"><text lineHeight="1.2" class="djs-label" style="font-family: Arial, sans-serif; font-size: 11px; font-weight: normal; fill: black;"><tspan x="0" y="9.899999999999999">Transaction </tspan><tspan x="6.6328125" y="23.099999999999998">reversed</tspan></text></g><g class="djs-visual" id="Activity_0p55qti" transform="translate(195 3140)"><rect x="0" y="0" width="130" height="100" rx="10" ry="10" style="stroke: black; stroke-width: 5px; fill: white; fill-opacity: 0.95;"></rect><text lineHeight="1.2" class="djs-label" style="font-family: Arial, sans-serif; font-size: 12px; font-weight: normal; fill: black;"><tspan x="17.4873046875" y="46.4">Perform Message </tspan><tspan x="21.421875" y="60.8">Validation (PBA)</tspan></text><rect x="0" y="0" width="14" height="14" rx="0" ry="0" style="stroke: black; stroke-width: 1px; fill: white;" transform="matrix(1 0 0 1 57.5 80)"></rect><path d="m57.5,80 m 7,2 l 0,10 m -5,-5 l 10,0" data-marker="sub-process" style="fill: white; stroke-width: 2px; stroke: black;"></path></g><g class="djs-visual" id="TextAnnotation_0puqlt9" transform="translate(370 1470)"><rect x="0" y="0" width="190" height="40" rx="0" ry="0" style="stroke: none; stroke-width: 2px; fill: none;"></rect><path d="m 0, 0 m 10,0 l -10,0 l 0,40 l 10,0" style="fill: none; stroke-width: 2px; stroke: black;"></path><text lineHeight="1.2" class="djs-label" style="font-family: Arial, sans-serif; font-size: 12px; font-weight: normal; fill: black;"><tspan x="5" y="15.799999999999999">Set in</tspan><tspan x="5" y="30.199999999999996">PP.CLEARING.RETURNCODE</tspan></text></g><g class="djs-visual" id="TextAnnotation_1p2dmpp" transform="translate(920 1470)"><rect x="0" y="0" width="260" height="60" rx="0" ry="0" style="stroke: none; stroke-width: 2px; fill: none;"></rect><path d="m 0, 0 m 10,0 l -10,0 l 0,60 l 10,0" style="fill: none; stroke-width: 2px; stroke: black;"></path><text lineHeight="1.2" class="djs-label" style="font-family: Arial, sans-serif; font-size: 12px; font-weight: normal; fill: black;"><tspan x="5" y="15.799999999999999">Update the acknowledgement code in</tspan><tspan x="5" y="30.199999999999996">psm.blob of the outgoing message and</tspan><tspan x="5" y="44.599999999999994">update the audit trail of the original transaction</tspan></text></g><g class="djs-visual" id="TextAnnotation_0c6ekjl" transform="translate(370 1990)"><rect x="0" y="0" width="140" height="60" rx="0" ry="0" style="stroke: none; stroke-width: 2px; fill: none;"></rect><path d="m 0, 0 m 10,0 l -10,0 l 0,60 l 10,0" style="fill: none; stroke-width: 2px; stroke: black;"></path><text lineHeight="1.2" class="djs-label" style="font-family: Arial, sans-serif; font-size: 12px; font-weight: normal; fill: black;"><tspan x="5" y="15.799999999999999">Status updated as</tspan><tspan x="5" y="30.199999999999996">"Payment completed</tspan><tspan x="5" y="44.599999999999994">&nbsp;with return"</tspan></text></g><g class="djs-visual" id="TextAnnotation_0mzvaog" transform="translate(375 2190)"><rect x="0" y="0" width="115" height="40" rx="0" ry="0" style="stroke: none; stroke-width: 2px; fill: none;"></rect><path d="m 0, 0 m 10,0 l -10,0 l 0,40 l 10,0" style="fill: none; stroke-width: 2px; stroke: black;"></path><text lineHeight="1.2" class="djs-label" style="font-family: Arial, sans-serif; font-size: 12px; font-weight: normal; fill: black;"><tspan x="5" y="15.799999999999999">Using details from</tspan><tspan x="5" y="30.199999999999996">original transaction</tspan></text></g><g class="djs-visual" id="TextAnnotation_06mxxgl" transform="translate(375 2350)"><rect x="0" y="0" width="230" height="40" rx="0" ry="0" style="stroke: none; stroke-width: 2px; fill: none;"></rect><path d="m 0, 0 m 10,0 l -10,0 l 0,40 l 10,0" style="fill: none; stroke-width: 2px; stroke: black;"></path><text lineHeight="1.2" class="djs-label" style="font-family: Arial, sans-serif; font-size: 12px; font-weight: normal; fill: black;"><tspan x="5" y="15.799999999999999">Dr Clearing nostro account (Beneficiary)</tspan><tspan x="5" y="30.199999999999996">Cr Return suspense account</tspan></text></g><g class="djs-visual" id="TextAnnotation_1vmzzdu" transform="translate(380 2520)"><rect x="0" y="0" width="239" height="70" rx="0" ry="0" style="stroke: none; stroke-width: 2px; fill: none;"></rect><path d="m 0, 0 m 10,0 l -10,0 l 0,70 l 10,0" style="fill: none; stroke-width: 2px; stroke: black;"></path><text lineHeight="1.2" class="djs-label" style="font-family: Arial, sans-serif; font-size: 12px; font-weight: normal; fill: black;"><tspan x="5" y="15.799999999999999">Dr Return suspense account</tspan><tspan x="5" y="30.199999999999996">Cr Nostro account</tspan><tspan x="5" y="44.599999999999994">Cr Profit and loss account</tspan><tspan x="5" y="58.99999999999999">(charges will be credited in P&amp;L account)</tspan></text></g><g class="djs-visual" id="TextAnnotation_0tsx2v1" transform="translate(373 2710)"><rect x="0" y="0" width="120" height="40" rx="0" ry="0" style="stroke: none; stroke-width: 2px; fill: none;"></rect><path d="m 0, 0 m 10,0 l -10,0 l 0,40 l 10,0" style="fill: none; stroke-width: 2px; stroke: black;"></path><text lineHeight="1.2" class="djs-label" style="font-family: Arial, sans-serif; font-size: 12px; font-weight: normal; fill: black;"><tspan x="5" y="15.799999999999999">Status updated as</tspan><tspan x="5" y="30.199999999999996">"Completed"</tspan></text></g><g class="djs-visual" id="TextAnnotation_0fasrqv" transform="translate(1110 2350)"><rect x="0" y="0" width="130" height="30" rx="0" ry="0" style="stroke: none; stroke-width: 2px; fill: none;"></rect><path d="m 0, 0 m 10,0 l -10,0 l 0,30 l 10,0" style="fill: none; stroke-width: 2px; stroke: black;"></path><text lineHeight="1.2" class="djs-label" style="font-family: Arial, sans-serif; font-size: 12px; font-weight: normal; fill: black;"><tspan x="5" y="15.799999999999999">Choose Ignore option</tspan></text></g><g class="djs-visual" id="DataInputAssociation_0w5tog0" transform="translate(0 0)"><polyline points="118,360 195,360 " style="fill: none; stroke: black; stroke-width: 2px; stroke-dasharray: 0.5, 5; stroke-linecap: round; stroke-linejoin: round; marker-end: url(&quot;#association-end-white-black-9q5dowqq298j1rmyjanrmdu7g&quot;);"></polyline></g><g class="djs-visual" id="Flow_0oez6fz_label" transform="translate(272 728)"><text lineHeight="1.2" class="djs-label" style="font-family: Arial, sans-serif; font-size: 11px; font-weight: normal; fill: black;"><tspan x="0" y="9.899999999999999">Validation passed</tspan></text></g><g class="djs-visual" id="Flow_0ju1n8a_label" transform="translate(802 727)"><text lineHeight="1.2" class="djs-label" style="font-family: Arial, sans-serif; font-size: 11px; font-weight: normal; fill: black;"><tspan x="0" y="9.899999999999999">Validation failed</tspan></text></g><g class="djs-visual" id="Flow_0nmazzt_label" transform="translate(282 1064)"><text lineHeight="1.2" class="djs-label" style="font-family: Arial, sans-serif; font-size: 11px; font-weight: normal; fill: black;"><tspan x="0" y="9.899999999999999">Original transaction </tspan><tspan x="25.3671875" y="23.099999999999998">identified</tspan></text></g><g class="djs-visual" id="Flow_0qk3qto_label" transform="translate(802 1064)"><text lineHeight="1.2" class="djs-label" style="font-family: Arial, sans-serif; font-size: 11px; font-weight: normal; fill: black;"><tspan x="0" y="9.899999999999999">Original transaction </tspan><tspan x="16.1953125" y="23.099999999999998">not identified</tspan></text></g><g class="djs-visual" id="Flow_099xmcv_label" transform="translate(269 1443)"><text lineHeight="1.2" class="djs-label" style="font-family: Arial, sans-serif; font-size: 11px; font-weight: normal; fill: black;"><tspan x="0" y="9.899999999999999">Negative response</tspan></text></g><g class="djs-visual" id="Flow_1qylv0s_label" transform="translate(796 1443)"><text lineHeight="1.2" class="djs-label" style="font-family: Arial, sans-serif; font-size: 11px; font-weight: normal; fill: black;"><tspan x="0" y="9.899999999999999">Positive response</tspan></text></g><g class="djs-visual" id="Flow_0bte1kx_label" transform="translate(269 1855)"><text lineHeight="1.2" class="djs-label" style="font-family: Arial, sans-serif; font-size: 11px; font-weight: normal; fill: black;"><tspan x="0" y="9.899999999999999">Route to exception </tspan><tspan x="0.3125" y="23.099999999999998">indicator set as No</tspan></text></g><g class="djs-visual" id="Flow_0lhm0bm_label" transform="translate(793 1855)"><text lineHeight="1.2" class="djs-label" style="font-family: Arial, sans-serif; font-size: 11px; font-weight: normal; fill: black;"><tspan x="1.774658203125" y="9.899999999999999">Route to exception </tspan><tspan x="0" y="23.099999999999998">indicator set as Yes</tspan></text></g><g class="djs-visual" id="DataOutputAssociation_1maq8vo" transform="translate(0 0)"><polyline points="325,2980 362,2980 " style="fill: none; stroke: black; stroke-width: 2px; stroke-dasharray: 0.5, 5; stroke-linecap: round; stroke-linejoin: round; marker-end: url(&quot;#association-end-white-black-9q5dowqq298j1rmyjanrmdu7g&quot;);"></polyline></g><g class="djs-visual" id="Flow_1nhkvw4_label" transform="translate(805 2307)"><text lineHeight="1.2" class="djs-label" style="font-family: Arial, sans-serif; font-size: 11px; font-weight: normal; fill: black;"><tspan x="0" y="9.899999999999999">Payment to be </tspan><tspan x="14.9765625" y="23.099999999999998">returned</tspan></text></g><g class="djs-visual" id="Flow_1uyw8ni_label" transform="translate(1041 2307)"><text lineHeight="1.2" class="djs-label" style="font-family: Arial, sans-serif; font-size: 11px; font-weight: normal; fill: black;"><tspan x="0" y="9.899999999999999">Response to be </tspan><tspan x="20.1796875" y="23.099999999999998">ignored</tspan></text></g><g class="djs-visual" id="Flow_1oksk4x_label" transform="translate(268 3070)"><text lineHeight="1.2" class="djs-label" style="font-family: Arial, sans-serif; font-size: 11px; font-weight: normal; fill: black;"><tspan x="0" y="9.899999999999999">Message validation </tspan><tspan x="8.7578125" y="23.099999999999998">to be performed</tspan></text></g><g class="djs-visual" id="Flow_0kmb810_label" transform="translate(263 3363)"><text lineHeight="1.2" class="djs-label" style="font-family: Arial, sans-serif; font-size: 11px; font-weight: normal; fill: black;"><tspan x="0" y="9.899999999999999">Message validation </tspan><tspan x="22.015625" y="23.099999999999998">performed </tspan><tspan x="17.1875" y="36.3">successfully</tspan></text></g><g class="djs-visual" id="Association_0nmsz1r" transform="translate(0 0)"><polyline points="323,1524 370,1491 " style="fill: none; stroke: black; stroke-width: 2px; stroke-dasharray: 0.5, 5; stroke-linecap: round; stroke-linejoin: round;"></polyline></g><g class="djs-visual" id="Association_1ckhjqe" transform="translate(0 0)"><polyline points="855,1528 920,1487 " style="fill: none; stroke: black; stroke-width: 2px; stroke-dasharray: 0.5, 5; stroke-linecap: round; stroke-linejoin: round;"></polyline></g><g class="djs-visual" id="Association_0zojyqv" transform="translate(0 0)"><polyline points="323,2054 370,2020 " style="fill: none; stroke: black; stroke-width: 2px; stroke-dasharray: 0.5, 5; stroke-linecap: round; stroke-linejoin: round;"></polyline></g><g class="djs-visual" id="Association_1em0ojl" transform="translate(0 0)"><polyline points="325,2242 375,2213 " style="fill: none; stroke: black; stroke-width: 2px; stroke-dasharray: 0.5, 5; stroke-linecap: round; stroke-linejoin: round;"></polyline></g><g class="djs-visual" id="Association_1aong3w" transform="translate(0 0)"><polyline points="324,2407 375,2373 " style="fill: none; stroke: black; stroke-width: 2px; stroke-dasharray: 0.5, 5; stroke-linecap: round; stroke-linejoin: round;"></polyline></g><g class="djs-visual" id="Association_1gmgnj4" transform="translate(0 0)"><polyline points="325,2589 377,2555 " style="fill: none; stroke: black; stroke-width: 2px; stroke-dasharray: 0.5, 5; stroke-linecap: round; stroke-linejoin: round;"></polyline></g><g class="djs-visual" id="Association_0xrfbtv" transform="translate(0 0)"><polyline points="323,2764 370,2730 " style="fill: none; stroke: black; stroke-width: 2px; stroke-dasharray: 0.5, 5; stroke-linecap: round; stroke-linejoin: round;"></polyline></g><g class="djs-visual" id="Association_1rq4c3w" transform="translate(0 0)"><polyline points="1071,2402 1110,2373 " style="fill: none; stroke: black; stroke-width: 2px; stroke-dasharray: 0.5, 5; stroke-linecap: round; stroke-linejoin: round;"></polyline></g></g><g><rect class="viewport" x="-3836.0725388601036" y="113.95854922279793" width="8989.637305699482" height="3419.689119170984"></rect></g></svg>