<svg width="100%" height="100%" data-element-id="Process_0gv1hwp"><g class="viewport" transform="matrix(1 0 0 1 495 107)"><g class="layer-root-1" data-element-id="Process_0gv1hwp"><g class="djs-group"><g class="djs-element djs-connection" data-element-id="Flow_1xcu8px" style="display: block;"><g class="djs-visual"><path d="m  90,380L90,442 " style="fill: none; stroke-width: 2px; stroke: black; stroke-linejoin: round; marker-end: url(&quot;#sequenceflow-end-white-black-2pv82r4udvst25i9dagdzpbte&quot;);"></path></g><polyline points="90,380 90,442 " class="djs-hit djs-hit-stroke" style="fill: none; stroke-opacity: 0; stroke: white; stroke-width: 15px;"></polyline><rect x="84" y="374" width="12" height="74" class="djs-outline" style="fill: none;"></rect></g></g><g class="djs-group"><g class="djs-element djs-connection" data-element-id="Flow_1s6zhfk" style="display: block;"><g class="djs-visual"><path d="m  90,210L90,280 " style="fill: none; stroke-width: 2px; stroke: black; stroke-linejoin: round; marker-end: url(&quot;#sequenceflow-end-white-black-2pv82r4udvst25i9dagdzpbte&quot;);"></path></g><polyline points="90,210 90,280 " class="djs-hit djs-hit-stroke" style="fill: none; stroke-opacity: 0; stroke: white; stroke-width: 15px;"></polyline><rect x="84" y="204" width="12" height="82" class="djs-outline" style="fill: none;"></rect></g></g><g class="djs-group"><g class="djs-element djs-connection" data-element-id="Flow_1crjshf" style="display: block;"><g class="djs-visual"><path d="m  90,18L90,110 " style="fill: none; stroke-width: 2px; stroke: black; stroke-linejoin: round; marker-end: url(&quot;#sequenceflow-end-white-black-2pv82r4udvst25i9dagdzpbte&quot;);"></path></g><polyline points="90,18 90,110 " class="djs-hit djs-hit-stroke" style="fill: none; stroke-opacity: 0; stroke: white; stroke-width: 15px;"></polyline><rect x="84" y="12" width="12" height="104" class="djs-outline" style="fill: none;"></rect></g></g><g class="djs-group"><g class="djs-element djs-shape" data-element-id="StartEvent_1bm324f" style="display: block;" transform="matrix(1 0 0 1 72 -18)"><g class="djs-visual"><circle cx="18" cy="18" r="18" style="stroke: black; stroke-width: 2px; fill: white; fill-opacity: 0.95;"></circle></g><rect class="djs-hit djs-hit-all" x="0" y="0" width="36" height="36" style="fill: none; stroke-opacity: 0; stroke: white; stroke-width: 15px;"></rect><rect x="-6" y="-6" width="48" height="48" class="djs-outline" style="fill: none;"></rect></g></g><g class="djs-group"><g class="djs-element djs-shape" data-element-id="StartEvent_1bm324f_label" style="display: block;" transform="matrix(1 0 0 1 44 -66)"><g class="djs-visual"><text lineHeight="1.2" class="djs-label" style="font-family: Arial, sans-serif; font-size: 11px; font-weight: normal; fill: black;"><tspan x="0" y="9.899999999999999">Derivatives master </tspan><tspan x="14.597900390625" y="23.099999999999998">to be created</tspan></text></g><rect class="djs-hit djs-hit-all" x="0" y="0" width="93" height="27" style="fill: none; stroke-opacity: 0; stroke: white; stroke-width: 15px;"></rect><rect x="-6" y="-6" width="105" height="39" class="djs-outline" style="fill: none;"></rect></g></g><g class="djs-group"><g class="djs-element djs-shape" data-element-id="Activity_0ks1oaa" style="display: block;" transform="matrix(1 0 0 1 25 110)"><g class="djs-visual"><rect x="0" y="0" width="130" height="100" rx="10" ry="10" style="stroke: black; stroke-width: 2px; fill: white; fill-opacity: 0.95;"></rect><text lineHeight="1.2" class="djs-label" style="font-family: Arial, sans-serif; font-size: 12px; font-weight: normal; fill: black;"><tspan x="16.640625" y="46.4">Create derivatives </tspan><tspan x="46.1611328125" y="60.8">master</tspan></text></g><rect class="djs-hit djs-hit-all" x="0" y="0" width="130" height="100" style="fill: none; stroke-opacity: 0; stroke: white; stroke-width: 15px;"></rect><rect x="-6" y="-6" width="142" height="112" class="djs-outline" style="fill: none;"></rect></g></g><g class="djs-group"><g class="djs-element djs-shape" data-element-id="Activity_0qh3skx" style="display: block;" transform="matrix(1 0 0 1 25 280)"><g class="djs-visual"><rect x="0" y="0" width="130" height="100" rx="10" ry="10" style="stroke: black; stroke-width: 2px; fill: white; fill-opacity: 0.95;"></rect><text lineHeight="1.2" class="djs-label" style="font-family: Arial, sans-serif; font-size: 12px; font-weight: normal; fill: black;"><tspan x="9.6328125" y="46.4">Generate derivatives </tspan><tspan x="46.1611328125" y="60.8">master</tspan></text></g><rect class="djs-hit djs-hit-all" x="0" y="0" width="130" height="100" style="fill: none; stroke-opacity: 0; stroke: white; stroke-width: 15px;"></rect><rect x="-6" y="-6" width="142" height="112" class="djs-outline" style="fill: none;"></rect></g></g><g class="djs-group"><g class="djs-element djs-shape" data-element-id="Event_04dng87" style="display: block;" transform="matrix(1 0 0 1 72 442)"><g class="djs-visual"><circle cx="18" cy="18" r="18" style="stroke: black; stroke-width: 4px; fill: white; fill-opacity: 0.95;"></circle></g><rect class="djs-hit djs-hit-all" x="0" y="0" width="36" height="36" style="fill: none; stroke-opacity: 0; stroke: white; stroke-width: 15px;"></rect><rect x="-6" y="-6" width="48" height="48" class="djs-outline" style="fill: none;"></rect></g></g><g class="djs-group"><g class="djs-element djs-shape" data-element-id="Event_04dng87_label" style="display: block;" transform="matrix(1 0 0 1 44 485)"><g class="djs-visual"><text lineHeight="1.2" class="djs-label" style="font-family: Arial, sans-serif; font-size: 11px; font-weight: normal; fill: black;"><tspan x="0" y="9.899999999999999">Derivatives master </tspan><tspan x="27.855712890625" y="23.099999999999998">created</tspan></text></g><rect class="djs-hit djs-hit-all" x="0" y="0" width="93" height="27" style="fill: none; stroke-opacity: 0; stroke: white; stroke-width: 15px;"></rect><rect x="-6" y="-6" width="105" height="39" class="djs-outline" style="fill: none;"></rect></g></g><g class="djs-group"><g class="djs-element djs-shape" data-element-id="TextAnnotation_0jxeyhi" style="display: block;" transform="matrix(1 0 0 1 260 -40)"><g class="djs-visual"><rect x="0" y="0" width="460" height="180" rx="0" ry="0" style="stroke: none; stroke-width: 2px; fill: none;"></rect><path d="m 0, 0 m 10,0 l -10,0 l 0,180 l 10,0" style="fill: none; stroke-width: 2px; stroke: black;"></path><text lineHeight="1.2" class="djs-label" style="font-family: Arial, sans-serif; font-size: 12px; font-weight: normal; fill: black;"><tspan x="5" y="15.799999999999999">- Future, Stock or Option contracts can be defined</tspan><tspan x="5" y="30.199999999999996">- Basic contract details (type of derivative, exchange, currency, delivery method)</tspan><tspan x="5" y="44.599999999999994">- Pricing data</tspan><tspan x="5" y="58.99999999999999">- Trading size</tspan><tspan x="5" y="73.39999999999999">- For FXOTC options Single Generic Contract Master to be created</tspan><tspan x="5" y="87.79999999999998">- Contract class with contract type FXOTC</tspan><tspan x="5" y="102.19999999999999">- Fields Currency, Delivery Currency, Price Dps, Tick Size, Tick Value,</tspan><tspan x="5" y="116.6">&nbsp; Min Price Mvmt and Underlying will be defaulted</tspan><tspan x="5" y="131">- Loss margin rate can be define to calculate Margin value for Negative positions</tspan><tspan x="5" y="145.4">- System can be parameterised to suppress generation of underlying trades</tspan><tspan x="5" y="159.8">- Definition of multiple exotic events supported</tspan><tspan x="5" y="174.20000000000002">- Possible to trigger Exercise/ Expiry of an exotic event</tspan></text></g><rect class="djs-hit djs-hit-all" x="0" y="0" width="460" height="180" style="fill: none; stroke-opacity: 0; stroke: white; stroke-width: 15px;"></rect><rect x="-6" y="-6" width="472" height="192" class="djs-outline" style="fill: none;"></rect></g></g><g class="djs-group"><g class="djs-element djs-connection" data-element-id="Association_15bbec3" style="display: block;"><g class="djs-visual"><polyline points="155,118 260,50 " style="fill: none; stroke: black; stroke-width: 2px; stroke-dasharray: 0.5, 5; stroke-linecap: round; stroke-linejoin: round;"></polyline></g><polyline points="155,118 260,50 " class="djs-hit djs-hit-stroke" style="fill: none; stroke-opacity: 0; stroke: white; stroke-width: 15px;"></polyline><rect x="149" y="44" width="117" height="80" class="djs-outline" style="fill: none;"></rect></g></g></g></g><defs><marker id="sequenceflow-end-white-black-2pv82r4udvst25i9dagdzpbte" viewBox="0 0 20 20" refX="11" refY="10" markerWidth="10" markerHeight="10" orient="auto"><path d="M 1 5 L 11 10 L 1 15 Z" style="fill: black; stroke-width: 1px; stroke-linecap: round; stroke-dasharray: 10000, 1; stroke: black;"></path></marker></defs></svg>