<svg width="100%" height="100%" viewBox="-50, -123, 1835, 3022"><g><g class="djs-visual" id="Flow_08icv0o" transform="translate(0 0)"><path d="m  275,1420L510,1420 L510,1530 " style="fill: none; stroke-width: 2px; stroke: black; stroke-linejoin: round; marker-end: url(&quot;#sequenceflow-end-white-black-8wa4ms7rby4hw0gg1g45tdh0z&quot;);"></path></g><g class="djs-visual" id="Flow_0qqtvob" transform="translate(0 0)"><path d="m  250,1715L250,1750 " style="fill: none; stroke-width: 2px; stroke: black; stroke-linejoin: round; marker-end: url(&quot;#sequenceflow-end-white-black-8wa4ms7rby4hw0gg1g45tdh0z&quot;);"></path></g><g class="djs-visual" id="Flow_0uq601m" transform="translate(0 0)"><path d="m  250,1445L250,1665 " style="fill: none; stroke-width: 2px; stroke: black; stroke-linejoin: round; marker-end: url(&quot;#sequenceflow-end-white-black-8wa4ms7rby4hw0gg1g45tdh0z&quot;);"></path></g><g class="djs-visual" id="Flow_1epfk98" transform="translate(0 0)"><path d="m  960,1640L960,1690 L275,1690 " style="fill: none; stroke-width: 2px; stroke: black; stroke-linejoin: round; marker-end: url(&quot;#sequenceflow-end-white-black-8wa4ms7rby4hw0gg1g45tdh0z&quot;);"></path></g><g class="djs-visual" id="Flow_1tcl5k6" transform="translate(0 0)"><path d="m  275,1420L960,1420 L960,1540 " style="fill: none; stroke-width: 2px; stroke: black; stroke-linejoin: round; marker-end: url(&quot;#sequenceflow-end-white-black-8wa4ms7rby4hw0gg1g45tdh0z&quot;);"></path></g><g class="djs-visual" id="Flow_0d7agyq" transform="translate(0 0)"><path d="m  510,1630L510,1690 L275,1690 " style="fill: none; stroke-width: 2px; stroke: black; stroke-linejoin: round; marker-end: url(&quot;#sequenceflow-end-white-black-8wa4ms7rby4hw0gg1g45tdh0z&quot;);"></path></g><g class="djs-visual" id="Flow_0jgor6f" transform="translate(0 0)"><path d="m  250,1350L250,1395 " style="fill: none; stroke-width: 2px; stroke: black; stroke-linejoin: round; marker-end: url(&quot;#sequenceflow-end-white-black-8wa4ms7rby4hw0gg1g45tdh0z&quot;);"></path></g><g class="djs-visual" id="Flow_0khevf2" transform="translate(0 0)"><path d="m  250,2730L250,2762 " style="fill: none; stroke-width: 2px; stroke: black; stroke-linejoin: round; marker-end: url(&quot;#sequenceflow-end-white-black-8wa4ms7rby4hw0gg1g45tdh0z&quot;);"></path></g><g class="djs-visual" id="Flow_0yc4z7r" transform="translate(0 0)"><path d="m  500,2260L500,2290 L275,2290 " style="fill: none; stroke-width: 2px; stroke: black; stroke-linejoin: round; marker-end: url(&quot;#sequenceflow-end-white-black-8wa4ms7rby4hw0gg1g45tdh0z&quot;);"></path></g><g class="djs-visual" id="Flow_162srkl" transform="translate(0 0)"><path d="m  250,2315L250,2350 " style="fill: none; stroke-width: 2px; stroke: black; stroke-linejoin: round; marker-end: url(&quot;#sequenceflow-end-white-black-8wa4ms7rby4hw0gg1g45tdh0z&quot;);"></path></g><g class="djs-visual" id="Flow_1xktqto" transform="translate(0 0)"><path d="m  250,640L250,750 " style="fill: none; stroke-width: 2px; stroke: black; stroke-linejoin: round; marker-end: url(&quot;#sequenceflow-end-white-black-8wa4ms7rby4hw0gg1g45tdh0z&quot;);"></path></g><g class="djs-visual" id="Flow_03nm46e" transform="translate(0 0)"><path d="m  500,2110L500,2160 " style="fill: none; stroke-width: 2px; stroke: black; stroke-linejoin: round; marker-end: url(&quot;#sequenceflow-end-white-black-8wa4ms7rby4hw0gg1g45tdh0z&quot;);"></path></g><g class="djs-visual" id="Flow_0snoda9" transform="translate(0 0)"><path d="m  275,1920L500,1920 L500,2010 " style="fill: none; stroke-width: 2px; stroke: black; stroke-linejoin: round; marker-end: url(&quot;#sequenceflow-end-white-black-8wa4ms7rby4hw0gg1g45tdh0z&quot;);"></path></g><g class="djs-visual" id="Flow_1jnpzhj" transform="translate(0 0)"><path d="m  250,1945L250,2265 " style="fill: none; stroke-width: 2px; stroke: black; stroke-linejoin: round; marker-end: url(&quot;#sequenceflow-end-white-black-8wa4ms7rby4hw0gg1g45tdh0z&quot;);"></path></g><g class="djs-visual" id="Flow_0gwyr89" transform="translate(0 0)"><path d="m  250,1850L250,1895 " style="fill: none; stroke-width: 2px; stroke: black; stroke-linejoin: round; marker-end: url(&quot;#sequenceflow-end-white-black-8wa4ms7rby4hw0gg1g45tdh0z&quot;);"></path></g><g class="djs-visual" id="Flow_18k9m2e" transform="translate(0 0)"><path d="m  250,338L250,390 " style="fill: none; stroke-width: 2px; stroke: black; stroke-linejoin: round; marker-end: url(&quot;#sequenceflow-end-white-black-8wa4ms7rby4hw0gg1g45tdh0z&quot;);"></path></g><g class="djs-visual" id="Flow_19rmb54" transform="translate(0 0)"><path d="m  250,180L250,238 " style="fill: none; stroke-width: 2px; stroke: black; stroke-linejoin: round; marker-end: url(&quot;#sequenceflow-end-white-black-8wa4ms7rby4hw0gg1g45tdh0z&quot;);"></path></g><g class="djs-visual" id="Flow_0tiwa9r" transform="translate(0 0)"><path d="m  250,2590L250,2630 " style="fill: none; stroke-width: 2px; stroke: black; stroke-linejoin: round; marker-end: url(&quot;#sequenceflow-end-white-black-8wa4ms7rby4hw0gg1g45tdh0z&quot;);"></path></g><g class="djs-visual" id="Flow_1noid4b" transform="translate(0 0)"><path d="m  250,2450L250,2490 " style="fill: none; stroke-width: 2px; stroke: black; stroke-linejoin: round; marker-end: url(&quot;#sequenceflow-end-white-black-8wa4ms7rby4hw0gg1g45tdh0z&quot;);"></path></g><g class="djs-visual" id="Flow_15kxvam" transform="translate(0 0)"><path d="m  250,850L250,1250 " style="fill: none; stroke-width: 2px; stroke: black; stroke-linejoin: round; marker-end: url(&quot;#sequenceflow-end-white-black-8wa4ms7rby4hw0gg1g45tdh0z&quot;);"></path></g><g class="djs-visual" id="Flow_0vpsvtf" transform="translate(0 0)"><path d="m  250,490L250,540 " style="fill: none; stroke-width: 2px; stroke: black; stroke-linejoin: round; marker-end: url(&quot;#sequenceflow-end-white-black-8wa4ms7rby4hw0gg1g45tdh0z&quot;);"></path></g><g class="djs-visual" id="Flow_1obtzef" transform="translate(0 0)"><path d="m  250,28L250,80 " style="fill: none; stroke-width: 2px; stroke: black; stroke-linejoin: round; marker-end: url(&quot;#sequenceflow-end-white-black-8wa4ms7rby4hw0gg1g45tdh0z&quot;);"></path></g><g class="djs-visual" id="StartEvent_1bm324f" transform="translate(232 -8)"><circle cx="18" cy="18" r="18" style="stroke: black; stroke-width: 2px; fill: white; fill-opacity: 0.95;"></circle></g><g class="djs-visual" id="StartEvent_1bm324f_label" transform="translate(206 -67)"><text lineHeight="1.2" class="djs-label" style="font-family: Arial, sans-serif; font-size: 11px; font-weight: normal; fill: black;"><tspan x="8.859375" y="9.899999999999999">Finance Lease </tspan><tspan x="0" y="23.099999999999998">arrangement to be </tspan><tspan x="26.59375" y="36.3">created</tspan></text></g><g class="djs-visual" id="Activity_0136l04" transform="translate(185 390)"><rect x="0" y="0" width="130" height="100" rx="10" ry="10" style="stroke: black; stroke-width: 2px; fill: white; fill-opacity: 0.95;"></rect><text lineHeight="1.2" class="djs-label" style="font-family: Arial, sans-serif; font-size: 12px; font-weight: normal; fill: black;"><tspan x="7.634765625" y="46.4">Capture arrangement </tspan><tspan x="47.65625" y="60.8">details</tspan></text></g><g class="djs-visual" id="Activity_0t0k4v4" transform="translate(185 750)"><rect x="0" y="0" width="130" height="100" rx="10" ry="10" style="stroke: black; stroke-width: 2px; fill: white; fill-opacity: 0.95;"></rect><text lineHeight="1.2" class="djs-label" style="font-family: Arial, sans-serif; font-size: 12px; font-weight: normal; fill: black;"><tspan x="16.1328125" y="46.4">Capture additional </tspan><tspan x="47.65625" y="60.8">details</tspan></text></g><g class="djs-visual" id="Activity_165cmxe" transform="translate(185 2350)"><rect x="0" y="0" width="130" height="100" rx="10" ry="10" style="stroke: black; stroke-width: 2px; fill: white; fill-opacity: 0.95;"></rect><text lineHeight="1.2" class="djs-label" style="font-family: Arial, sans-serif; font-size: 12px; font-weight: normal; fill: black;"><tspan x="9.5830078125" y="46.4">View arrangement to </tspan><tspan x="28.4765625" y="60.8">be authorised</tspan></text></g><g class="djs-visual" id="Event_0q92l2c" transform="translate(232 2762)"><circle cx="18" cy="18" r="18" style="stroke: black; stroke-width: 4px; fill: white; fill-opacity: 0.95;"></circle></g><g class="djs-visual" id="Event_0q92l2c_label" transform="translate(207 2803)"><text lineHeight="1.2" class="djs-label" style="font-family: Arial, sans-serif; font-size: 11px; font-weight: normal; fill: black;"><tspan x="8.859375" y="9.899999999999999">Finance Lease </tspan><tspan x="0" y="23.099999999999998">arrangement to be </tspan><tspan x="22.9296875" y="36.3">activated</tspan></text></g><g class="djs-visual" id="Activity_1taiwsy" transform="translate(185 2490)"><rect x="0" y="0" width="130" height="100" rx="10" ry="10" style="stroke: black; stroke-width: 2px; fill: white; fill-opacity: 0.95;"></rect><text lineHeight="1.2" class="djs-label" style="font-family: Arial, sans-serif; font-size: 12px; font-weight: normal; fill: black;"><tspan x="39.9892578125" y="46.4">Authorise </tspan><tspan x="30.6474609375" y="60.8">arrangement</tspan></text></g><g class="djs-visual" id="Activity_1y7ejnz" transform="translate(185 238)"><rect x="0" y="0" width="130" height="100" rx="10" ry="10" style="stroke: black; stroke-width: 2px; fill: white; fill-opacity: 0.95;"></rect><text lineHeight="1.2" class="djs-label" style="font-family: Arial, sans-serif; font-size: 12px; font-weight: normal; fill: black;"><tspan x="7.4736328125" y="46.4">Select Product Group</tspan><tspan x="32.3115234375" y="60.8">and Product</tspan></text></g><g class="djs-visual" id="Activity_1o9tiwl" transform="translate(185 80)"><rect x="0" y="0" width="130" height="100" rx="10" ry="10" style="stroke: black; stroke-width: 2px; fill: white; fill-opacity: 0.95;"></rect><text lineHeight="1.2" class="djs-label" style="font-family: Arial, sans-serif; font-size: 12px; font-weight: normal; fill: black;"><tspan x="21.310546875" y="53.599999999999994">Receive request</tspan></text></g><g class="djs-visual" id="DataObjectReference_1svlolt" transform="translate(112 105)"><path d="m 0,0 28.23529411764706,0 7.058823529411765,8.196721311475411 0,40.98360655737705 -35.294117647058826,0 0,-49.18032786885246 28.23529411764706,0 0,8.196721311475411 7.058823529411765,0" style="fill: white; stroke-width: 2px; stroke: black; fill-opacity: 0.95;"></path></g><g class="djs-visual" id="DataObjectReference_1svlolt_label" transform="translate(83 176)"><text lineHeight="1.2" class="djs-label" style="font-family: Arial, sans-serif; font-size: 11px; font-weight: normal; fill: black;"><tspan x="0" y="9.899999999999999">Customer Request</tspan></text></g><g class="djs-visual" id="Activity_08jd9xw" transform="translate(185 1750)"><rect x="0" y="0" width="130" height="100" rx="10" ry="10" style="stroke: black; stroke-width: 2px; fill: white; fill-opacity: 0.95;"></rect><text lineHeight="1.2" class="djs-label" style="font-family: Arial, sans-serif; font-size: 12px; font-weight: normal; fill: black;"><tspan x="15.92578125" y="53.599999999999994">Perform Validation</tspan></text></g><g class="djs-visual" id="Gateway_0ixeakb" transform="translate(225 1895)"><polygon points="25,0 50,25 25,50 0,25" style="stroke: black; stroke-width: 2px; fill: white; fill-opacity: 0.95;"></polygon><path d="m 16,15 7.42857142857143,9.714285714285715 -7.42857142857143,9.714285714285715 3.428571428571429,0 5.714285714285715,-7.464228571428572 5.714285714285715,7.464228571428572 3.428571428571429,0 -7.42857142857143,-9.714285714285715 7.42857142857143,-9.714285714285715 -3.428571428571429,0 -5.714285714285715,7.464228571428572 -5.714285714285715,-7.464228571428572 -3.428571428571429,0 z" style="fill: black; stroke-width: 1px; stroke: black;"></path></g><g class="djs-visual" id="Activity_1ymklnq" transform="translate(435 2010)"><rect x="0" y="0" width="130" height="100" rx="10" ry="10" style="stroke: black; stroke-width: 2px; fill: white; fill-opacity: 0.95;"></rect><text lineHeight="1.2" class="djs-label" style="font-family: Arial, sans-serif; font-size: 12px; font-weight: normal; fill: black;"><tspan x="18.9765625" y="53.599999999999994">Display overrides</tspan></text></g><g class="djs-visual" id="Activity_1064aa2" transform="translate(435 2160)"><rect x="0" y="0" width="130" height="100" rx="10" ry="10" style="stroke: black; stroke-width: 2px; fill: white; fill-opacity: 0.95;"></rect><text lineHeight="1.2" class="djs-label" style="font-family: Arial, sans-serif; font-size: 12px; font-weight: normal; fill: black;"><tspan x="20.8125" y="53.599999999999994">Accept overrides</tspan></text></g><g class="djs-visual" id="Activity_0he2ds4" transform="translate(185 540)"><rect x="0" y="0" width="130" height="100" rx="10" ry="10" style="stroke: black; stroke-width: 2px; fill: white; fill-opacity: 0.95;"></rect><text lineHeight="1.2" class="djs-label" style="font-family: Arial, sans-serif; font-size: 12px; font-weight: normal; fill: black;"><tspan x="10.9716796875" y="53.599999999999994">Create arrangement</tspan></text></g><g class="djs-visual" id="Gateway_1kwk2sq" transform="translate(225 2265)"><polygon points="25,0 50,25 25,50 0,25" style="stroke: black; stroke-width: 2px; fill: white; fill-opacity: 0.95;"></polygon><path d="m 16,15 7.42857142857143,9.714285714285715 -7.42857142857143,9.714285714285715 3.428571428571429,0 5.714285714285715,-7.464228571428572 5.714285714285715,7.464228571428572 3.428571428571429,0 -7.42857142857143,-9.714285714285715 7.42857142857143,-9.714285714285715 -3.428571428571429,0 -5.714285714285715,7.464228571428572 -5.714285714285715,-7.464228571428572 -3.428571428571429,0 z" style="fill: black; stroke-width: 1px; stroke: black;"></path></g><g class="djs-visual" id="Activity_1ftt1wb" transform="translate(185 2630)"><rect x="0" y="0" width="130" height="100" rx="10" ry="10" style="stroke: black; stroke-width: 2px; fill: white; fill-opacity: 0.95;"></rect><text lineHeight="1.2" class="djs-label" style="font-family: Arial, sans-serif; font-size: 12px; font-weight: normal; fill: black;"><tspan x="9.6328125" y="53.599999999999994">Update arrangement</tspan></text></g><g class="djs-visual" id="Activity_0n9at5v" transform="translate(185 1250)"><rect x="0" y="0" width="130" height="100" rx="10" ry="10" style="stroke: black; stroke-width: 2px; fill: white; fill-opacity: 0.95;"></rect><text lineHeight="1.2" class="djs-label" style="font-family: Arial, sans-serif; font-size: 12px; font-weight: normal; fill: black;"><tspan x="8.302734375" y="46.4">Decide on settlement </tspan><tspan x="53.99609375" y="60.8">type</tspan></text></g><g class="djs-visual" id="Gateway_02qy3d1" transform="translate(225 1395)"><polygon points="25,0 50,25 25,50 0,25" style="stroke: black; stroke-width: 2px; fill: white; fill-opacity: 0.95;"></polygon><path d="m 16,15 7.42857142857143,9.714285714285715 -7.42857142857143,9.714285714285715 3.428571428571429,0 5.714285714285715,-7.464228571428572 5.714285714285715,7.464228571428572 3.428571428571429,0 -7.42857142857143,-9.714285714285715 7.42857142857143,-9.714285714285715 -3.428571428571429,0 -5.714285714285715,7.464228571428572 -5.714285714285715,-7.464228571428572 -3.428571428571429,0 z" style="fill: black; stroke-width: 1px; stroke: black;"></path></g><g class="djs-visual" id="Activity_1i9ldfw" transform="translate(445 1530)"><rect x="0" y="0" width="130" height="100" rx="10" ry="10" style="stroke: black; stroke-width: 2px; fill: white; fill-opacity: 0.95;"></rect><text lineHeight="1.2" class="djs-label" style="font-family: Arial, sans-serif; font-size: 12px; font-weight: normal; fill: black;"><tspan x="30.146484375" y="32">Capture auto </tspan><tspan x="36.9873046875" y="46.4">settlement </tspan><tspan x="21.48046875" y="60.8">instruction using </tspan><tspan x="15.978515625" y="75.19999999999999">Customer account</tspan></text></g><g class="djs-visual" id="Activity_1jvfvzp" transform="translate(895 1540)"><rect x="0" y="0" width="130" height="100" rx="10" ry="10" style="stroke: black; stroke-width: 2px; fill: white; fill-opacity: 0.95;"></rect><text lineHeight="1.2" class="djs-label" style="font-family: Arial, sans-serif; font-size: 12px; font-weight: normal; fill: black;"><tspan x="30.146484375" y="32">Capture auto </tspan><tspan x="36.9873046875" y="46.4">settlement </tspan><tspan x="21.48046875" y="60.8">instruction using </tspan><tspan x="23.81640625" y="75.19999999999999">Payment Order</tspan></text></g><g class="djs-visual" id="Gateway_1fiwdf6" transform="translate(225 1665)"><polygon points="25,0 50,25 25,50 0,25" style="stroke: black; stroke-width: 2px; fill: white; fill-opacity: 0.95;"></polygon><path d="m 16,15 7.42857142857143,9.714285714285715 -7.42857142857143,9.714285714285715 3.428571428571429,0 5.714285714285715,-7.464228571428572 5.714285714285715,7.464228571428572 3.428571428571429,0 -7.42857142857143,-9.714285714285715 7.42857142857143,-9.714285714285715 -3.428571428571429,0 -5.714285714285715,7.464228571428572 -5.714285714285715,-7.464228571428572 -3.428571428571429,0 z" style="fill: black; stroke-width: 1px; stroke: black;"></path></g><g class="djs-visual" id="TextAnnotation_1u4cyv3" transform="translate(360 370)"><rect x="0" y="0" width="110" height="55" rx="0" ry="0" style="stroke: none; stroke-width: 2px; fill: none;"></rect><path d="m 0, 0 m 10,0 l -10,0 l 0,55 l 10,0" style="fill: none; stroke-width: 2px; stroke: black;"></path><text lineHeight="1.2" class="djs-label" style="font-family: Arial, sans-serif; font-size: 12px; font-weight: normal; fill: black;"><tspan x="5" y="15.799999999999999">- Customer</tspan><tspan x="5" y="30.199999999999996">- Currency</tspan><tspan x="5" y="44.599999999999994">- Effective Date</tspan></text></g><g class="djs-visual" id="TextAnnotation_0ted5ya" transform="translate(360 630)"><rect x="0" y="0" width="580" height="631" rx="0" ry="0" style="stroke: none; stroke-width: 2px; fill: none;"></rect><path d="m 0, 0 m 10,0 l -10,0 l 0,631 l 10,0" style="fill: none; stroke-width: 2px; stroke: black;"></path><text lineHeight="1.2" class="djs-label" style="font-family: Arial, sans-serif; font-size: 12px; font-weight: normal; fill: black;"><tspan x="5" y="15.799999999999999">- Account</tspan><tspan x="5" y="30.199999999999996">&nbsp; &nbsp;- Asset Reference</tspan><tspan x="5" y="44.599999999999994">&nbsp; &nbsp;- Pay To Supplier</tspan><tspan x="5" y="58.99999999999999">- Commitment and Term</tspan><tspan x="5" y="73.39999999999999">&nbsp; &nbsp;- Amount</tspan><tspan x="5" y="87.79999999999998">&nbsp; &nbsp;- Term</tspan><tspan x="5" y="102.19999999999999">&nbsp; &nbsp;- On Maturity</tspan><tspan x="5" y="116.6">&nbsp; &nbsp;- Adv Payment Type</tspan><tspan x="5" y="131">&nbsp; &nbsp;- Adv Type Value</tspan><tspan x="5" y="145.4">- Extensions</tspan><tspan x="5" y="159.8">&nbsp; &nbsp;- Change Date Type</tspan><tspan x="5" y="174.20000000000002">&nbsp; &nbsp;- Change Period</tspan><tspan x="5" y="188.60000000000002">- Lease Interest</tspan><tspan x="5" y="203.00000000000003">&nbsp; &nbsp;- Interest Type &amp; Rate Grid/ Fixed Rate/ Floating Index/ Periodic Index &amp; Spread Type/Spread Oper/</tspan><tspan x="5" y="217.40000000000003">&nbsp; &nbsp; &nbsp;Spread Rate &amp; Cust Margin Grid &amp; Margin Type &amp; Margin Oper/ Margin Reset</tspan><tspan x="5" y="231.80000000000004">- Arrangement Fee</tspan><tspan x="5" y="246.20000000000005">&nbsp; &nbsp;- Type</tspan><tspan x="5" y="260.6">&nbsp; &nbsp;- Currency</tspan><tspan x="5" y="275">&nbsp; &nbsp;- Rate</tspan><tspan x="5" y="289.4">&nbsp; &nbsp;- Grid Reset Method</tspan><tspan x="5" y="303.79999999999995">- Document Fee</tspan><tspan x="5" y="318.19999999999993">&nbsp; &nbsp;- Flat Charge</tspan><tspan x="5" y="332.5999999999999">- Vat</tspan><tspan x="5" y="346.9999999999999">&nbsp; &nbsp;- Tax Property</tspan><tspan x="5" y="361.39999999999986">&nbsp; &nbsp;- Tax Condition</tspan><tspan x="5" y="375.79999999999984">&nbsp; &nbsp;- Tax code</tspan><tspan x="5" y="390.1999999999998">&nbsp; &nbsp;- Payment Method</tspan><tspan x="5" y="404.5999999999998">- Subscription Services</tspan><tspan x="5" y="418.9999999999998">&nbsp; &nbsp;- Subscription</tspan><tspan x="5" y="433.39999999999975">&nbsp; &nbsp;- Variation</tspan><tspan x="5" y="447.7999999999997">&nbsp; &nbsp;- Payment Mode</tspan><tspan x="5" y="462.1999999999997">&nbsp; &nbsp;- Start Date</tspan><tspan x="5" y="476.5999999999997">&nbsp; &nbsp;- Term</tspan><tspan x="5" y="490.99999999999966">&nbsp; &nbsp;- Expiry Date</tspan><tspan x="5" y="505.39999999999964">&nbsp; &nbsp;- Frequency</tspan><tspan x="5" y="519.7999999999996">&nbsp; &nbsp;- Bill Produced</tspan><tspan x="5" y="534.1999999999996">- Schedule</tspan><tspan x="5" y="548.5999999999996">&nbsp; &nbsp;- Payments</tspan><tspan x="5" y="562.9999999999995">&nbsp; &nbsp;- Payment Type</tspan><tspan x="5" y="577.3999999999995">&nbsp; &nbsp;- Amount/ Percentage/ No of payments</tspan><tspan x="5" y="591.7999999999995">- Residual Details</tspan><tspan x="5" y="606.1999999999995">&nbsp; &nbsp;- Residual Amount/ Residual Percentage</tspan><tspan x="5" y="620.5999999999995">&nbsp; &nbsp;- Guaranteed Residual/ Guaranteed Percentage</tspan></text></g><g class="djs-visual" id="TextAnnotation_02rjxho" transform="translate(360 210)"><rect x="0" y="0" width="210" height="55" rx="0" ry="0" style="stroke: none; stroke-width: 2px; fill: none;"></rect><path d="m 0, 0 m 10,0 l -10,0 l 0,55 l 10,0" style="fill: none; stroke-width: 2px; stroke: black;"></path><text lineHeight="1.2" class="djs-label" style="font-family: Arial, sans-serif; font-size: 12px; font-weight: normal; fill: black;"><tspan x="5" y="15.799999999999999">Finance Lease</tspan><tspan x="5" y="30.199999999999996">&nbsp;- Finance Lease (EVs)</tspan><tspan x="5" y="44.599999999999994">&nbsp;- Finance Lease (Healthcare)</tspan></text></g><g class="djs-visual" id="TextAnnotation_0ylvm68" transform="translate(360 520)"><rect x="0" y="0" width="170" height="40" rx="0" ry="0" style="stroke: none; stroke-width: 2px; fill: none;"></rect><path d="m 0, 0 m 10,0 l -10,0 l 0,40 l 10,0" style="fill: none; stroke-width: 2px; stroke: black;"></path><text lineHeight="1.2" class="djs-label" style="font-family: Arial, sans-serif; font-size: 12px; font-weight: normal; fill: black;"><tspan x="5" y="15.799999999999999">- Arrangement ID generated</tspan><tspan x="5" y="30.199999999999996">- Status set as Unauthorised</tspan></text></g><g class="djs-visual" id="TextAnnotation_1haen1u" transform="translate(600 1500)"><rect x="0" y="0" width="270" height="41" rx="0" ry="0" style="stroke: none; stroke-width: 2px; fill: none;"></rect><path d="m 0, 0 m 10,0 l -10,0 l 0,41 l 10,0" style="fill: none; stroke-width: 2px; stroke: black;"></path><text lineHeight="1.2" class="djs-label" style="font-family: Arial, sans-serif; font-size: 12px; font-weight: normal; fill: black;"><tspan x="5" y="15.799999999999999">- PAYIN.SETTLEMENT attribute set as Yes</tspan><tspan x="5" y="30.199999999999996">- Account (Customer Account number)</tspan></text></g><g class="djs-visual" id="TextAnnotation_09u7d05" transform="translate(1060 1510)"><rect x="0" y="0" width="260" height="41" rx="0" ry="0" style="stroke: none; stroke-width: 2px; fill: none;"></rect><path d="m 0, 0 m 10,0 l -10,0 l 0,41 l 10,0" style="fill: none; stroke-width: 2px; stroke: black;"></path><text lineHeight="1.2" class="djs-label" style="font-family: Arial, sans-serif; font-size: 12px; font-weight: normal; fill: black;"><tspan x="5" y="15.799999999999999">- PAYIN.SETTLEMENT attribute Set&nbsp; as Yes</tspan><tspan x="5" y="30.199999999999996">- Beneficiary details</tspan></text></g><g class="djs-visual" id="TextAnnotation_1r057mw" transform="translate(350 2610)"><rect x="0" y="0" width="170" height="30" rx="0" ry="0" style="stroke: none; stroke-width: 2px; fill: none;"></rect><path d="m 0, 0 m 10,0 l -10,0 l 0,30 l 10,0" style="fill: none; stroke-width: 2px; stroke: black;"></path><text lineHeight="1.2" class="djs-label" style="font-family: Arial, sans-serif; font-size: 12px; font-weight: normal; fill: black;"><tspan x="5" y="15.799999999999999">Arrangement created</tspan></text></g><g class="djs-visual" id="DataInputAssociation_0x57uup" transform="translate(0 0)"><polyline points="148,130 185,130 " style="fill: none; stroke: black; stroke-width: 2px; stroke-dasharray: 0.5, 5; stroke-linecap: round; stroke-linejoin: round; marker-end: url(&quot;#association-end-white-black-8wa4ms7rby4hw0gg1g45tdh0z&quot;);"></polyline></g><g class="djs-visual" id="Flow_1jnpzhj_label" transform="translate(274 1943)"><text lineHeight="1.2" class="djs-label" style="font-family: Arial, sans-serif; font-size: 11px; font-weight: normal; fill: black;"><tspan x="2.70458984375" y="9.899999999999999">Validation </tspan><tspan x="0" y="23.099999999999998">successful</tspan></text></g><g class="djs-visual" id="Flow_0snoda9_label" transform="translate(508 1946)"><text lineHeight="1.2" class="djs-label" style="font-family: Arial, sans-serif; font-size: 11px; font-weight: normal; fill: black;"><tspan x="8.822265625" y="9.899999999999999">Validation </tspan><tspan x="0" y="23.099999999999998">unsuccessful</tspan></text></g><g class="djs-visual" id="Flow_1tcl5k6_label" transform="translate(942 1466)"><text lineHeight="1.2" class="djs-label" style="font-family: Arial, sans-serif; font-size: 11px; font-weight: normal; fill: black;"><tspan x="0" y="9.899999999999999">External settlement</tspan></text></g><g class="djs-visual" id="Flow_0uq601m_label" transform="translate(251 1447)"><text lineHeight="1.2" class="djs-label" style="font-family: Arial, sans-serif; font-size: 11px; font-weight: normal; fill: black;"><tspan x="0" y="9.899999999999999">Manual Repayment </tspan><tspan x="2.364990234375" y="23.099999999999998">(Settlement details </tspan><tspan x="15.89306640625" y="36.3">not provided)</tspan></text></g><g class="djs-visual" id="Flow_08icv0o_label" transform="translate(494 1466)"><text lineHeight="1.2" class="djs-label" style="font-family: Arial, sans-serif; font-size: 11px; font-weight: normal; fill: black;"><tspan x="0" y="9.899999999999999">Internal settlement</tspan></text></g><g class="djs-visual" id="Association_007ct6m" transform="translate(0 0)"><polyline points="315,418 360,402 " style="fill: none; stroke: black; stroke-width: 2px; stroke-dasharray: 0.5, 5; stroke-linecap: round; stroke-linejoin: round;"></polyline></g><g class="djs-visual" id="Association_0g9lr62" transform="translate(0 0)"><polyline points="315,761 360,731 " style="fill: none; stroke: black; stroke-width: 2px; stroke-dasharray: 0.5, 5; stroke-linecap: round; stroke-linejoin: round;"></polyline></g><g class="djs-visual" id="Association_0e9c0v7" transform="translate(0 0)"><polyline points="315,271 360,260 " style="fill: none; stroke: black; stroke-width: 2px; stroke-dasharray: 0.5, 5; stroke-linecap: round; stroke-linejoin: round;"></polyline></g><g class="djs-visual" id="Association_0tej2n2" transform="translate(0 0)"><polyline points="315,568 360,553 " style="fill: none; stroke: black; stroke-width: 2px; stroke-dasharray: 0.5, 5; stroke-linecap: round; stroke-linejoin: round;"></polyline></g><g class="djs-visual" id="Association_1ol30nq" transform="translate(0 0)"><polyline points="575,1552 601,1541 " style="fill: none; stroke: black; stroke-width: 2px; stroke-dasharray: 0.5, 5; stroke-linecap: round; stroke-linejoin: round;"></polyline></g><g class="djs-visual" id="Association_1ccjtg2" transform="translate(0 0)"><polyline points="1025,1561 1060,1546 " style="fill: none; stroke: black; stroke-width: 2px; stroke-dasharray: 0.5, 5; stroke-linecap: round; stroke-linejoin: round;"></polyline></g><g class="djs-visual" id="Association_0fclxd2" transform="translate(0 0)"><polyline points="315,2643 350,2624 " style="fill: none; stroke: black; stroke-width: 2px; stroke-dasharray: 0.5, 5; stroke-linecap: round; stroke-linejoin: round;"></polyline></g></g><g><rect class="viewport" x="-3137.389380530973" y="-72.96017699115045" width="7676.991150442478" height="2920.353982300885"></rect></g></svg>