<svg width="100%" height="100%" viewBox="-123, -10, 1835, 2708"><g><g class="djs-visual" id="Flow_0ej3hvc" transform="translate(0 0)"><path d="m  155,1630L331,1630 L331,1662 " style="fill: none; stroke-width: 2px; stroke: black; stroke-linejoin: round; marker-end: url(&quot;#sequenceflow-end-white-black-73irgsejpldo5a8wiuwzm3o5h&quot;);"></path></g><g class="djs-visual" id="Flow_10o1bat" transform="translate(0 0)"><path d="m  130,1655L130,1750 " style="fill: none; stroke-width: 2px; stroke: black; stroke-linejoin: round; marker-end: url(&quot;#sequenceflow-end-white-black-73irgsejpldo5a8wiuwzm3o5h&quot;);"></path></g><g class="djs-visual" id="Flow_0t5urkl" transform="translate(0 0)"><path d="m  130,1560L130,1605 " style="fill: none; stroke-width: 2px; stroke: black; stroke-linejoin: round; marker-end: url(&quot;#sequenceflow-end-white-black-73irgsejpldo5a8wiuwzm3o5h&quot;);"></path></g><g class="djs-visual" id="Flow_1d0wpyl" transform="translate(0 0)"><path d="m  130,1350L130,1460 " style="fill: none; stroke-width: 2px; stroke: black; stroke-linejoin: round; marker-end: url(&quot;#sequenceflow-end-white-black-73irgsejpldo5a8wiuwzm3o5h&quot;);"></path></g><g class="djs-visual" id="Flow_1025s2c" transform="translate(0 0)"><path d="m  130,1935L130,2000 " style="fill: none; stroke-width: 2px; stroke: black; stroke-linejoin: round; marker-end: url(&quot;#sequenceflow-end-white-black-73irgsejpldo5a8wiuwzm3o5h&quot;);"></path></g><g class="djs-visual" id="Flow_01d1ygd" transform="translate(0 0)"><path d="m  130,2100L130,2140 " style="fill: none; stroke-width: 2px; stroke: black; stroke-linejoin: round; marker-end: url(&quot;#sequenceflow-end-white-black-73irgsejpldo5a8wiuwzm3o5h&quot;);"></path></g><g class="djs-visual" id="Flow_07j1tuo" transform="translate(0 0)"><path d="m  860,930L860,1000 " style="fill: none; stroke-width: 2px; stroke: black; stroke-linejoin: round; marker-end: url(&quot;#sequenceflow-end-white-black-73irgsejpldo5a8wiuwzm3o5h&quot;);"></path></g><g class="djs-visual" id="Flow_1u2mmhs" transform="translate(0 0)"><path d="m  860,1100L860,1132 " style="fill: none; stroke-width: 2px; stroke: black; stroke-linejoin: round; marker-end: url(&quot;#sequenceflow-end-white-black-73irgsejpldo5a8wiuwzm3o5h&quot;);"></path></g><g class="djs-visual" id="Flow_010pyqn" transform="translate(0 0)"><path d="m  530,2090L530,2150 " style="fill: none; stroke-width: 2px; stroke: black; stroke-linejoin: round; marker-end: url(&quot;#sequenceflow-end-white-black-73irgsejpldo5a8wiuwzm3o5h&quot;);"></path></g><g class="djs-visual" id="Flow_1lz4xxy" transform="translate(0 0)"><path d="m  155,1910L530,1910 L530,1990 " style="fill: none; stroke-width: 2px; stroke: black; stroke-linejoin: round; marker-end: url(&quot;#sequenceflow-end-white-black-73irgsejpldo5a8wiuwzm3o5h&quot;);"></path></g><g class="djs-visual" id="Flow_1jyn989" transform="translate(0 0)"><path d="m  530,2250L530,2292 " style="fill: none; stroke-width: 2px; stroke: black; stroke-linejoin: round; marker-end: url(&quot;#sequenceflow-end-white-black-73irgsejpldo5a8wiuwzm3o5h&quot;);"></path></g><g class="djs-visual" id="Flow_0wk0vgz" transform="translate(0 0)"><path d="m  130,2370L130,2410 " style="fill: none; stroke-width: 2px; stroke: black; stroke-linejoin: round; marker-end: url(&quot;#sequenceflow-end-white-black-73irgsejpldo5a8wiuwzm3o5h&quot;);"></path></g><g class="djs-visual" id="Flow_1p1b503" transform="translate(0 0)"><path d="m  130,2240L130,2270 " style="fill: none; stroke-width: 2px; stroke: black; stroke-linejoin: round; marker-end: url(&quot;#sequenceflow-end-white-black-73irgsejpldo5a8wiuwzm3o5h&quot;);"></path></g><g class="djs-visual" id="Flow_123akyq" transform="translate(0 0)"><path d="m  130,2510L130,2572 " style="fill: none; stroke-width: 2px; stroke: black; stroke-linejoin: round; marker-end: url(&quot;#sequenceflow-end-white-black-73irgsejpldo5a8wiuwzm3o5h&quot;);"></path></g><g class="djs-visual" id="Flow_1lc9ocx" transform="translate(0 0)"><path d="m  130,1850L130,1885 " style="fill: none; stroke-width: 2px; stroke: black; stroke-linejoin: round; marker-end: url(&quot;#sequenceflow-end-white-black-73irgsejpldo5a8wiuwzm3o5h&quot;);"></path></g><g class="djs-visual" id="Flow_0qpxz2v" transform="translate(0 0)"><path d="m  130,1190L130,1250 " style="fill: none; stroke-width: 2px; stroke: black; stroke-linejoin: round; marker-end: url(&quot;#sequenceflow-end-white-black-73irgsejpldo5a8wiuwzm3o5h&quot;);"></path></g><g class="djs-visual" id="Flow_1xnd47i" transform="translate(0 0)"><path d="m  530,1190L530,1222 " style="fill: none; stroke-width: 2px; stroke: black; stroke-linejoin: round; marker-end: url(&quot;#sequenceflow-end-white-black-73irgsejpldo5a8wiuwzm3o5h&quot;);"></path></g><g class="djs-visual" id="Flow_003rxv5" transform="translate(0 0)"><path d="m  155,1010L530,1010 L530,1090 " style="fill: none; stroke-width: 2px; stroke: black; stroke-linejoin: round; marker-end: url(&quot;#sequenceflow-end-white-black-73irgsejpldo5a8wiuwzm3o5h&quot;);"></path></g><g class="djs-visual" id="Flow_148d4al" transform="translate(0 0)"><path d="m  130,1035L130,1090 " style="fill: none; stroke-width: 2px; stroke: black; stroke-linejoin: round; marker-end: url(&quot;#sequenceflow-end-white-black-73irgsejpldo5a8wiuwzm3o5h&quot;);"></path></g><g class="djs-visual" id="Flow_1gz7tyy" transform="translate(0 0)"><path d="m  130,930L130,985 " style="fill: none; stroke-width: 2px; stroke: black; stroke-linejoin: round; marker-end: url(&quot;#sequenceflow-end-white-black-73irgsejpldo5a8wiuwzm3o5h&quot;);"></path></g><g class="djs-visual" id="Flow_0m83m5i" transform="translate(0 0)"><path d="m  155,740L860,740 L860,830 " style="fill: none; stroke-width: 2px; stroke: black; stroke-linejoin: round; marker-end: url(&quot;#sequenceflow-end-white-black-73irgsejpldo5a8wiuwzm3o5h&quot;);"></path></g><g class="djs-visual" id="Flow_0fxg8ig" transform="translate(0 0)"><path d="m  130,765L130,830 " style="fill: none; stroke-width: 2px; stroke: black; stroke-linejoin: round; marker-end: url(&quot;#sequenceflow-end-white-black-73irgsejpldo5a8wiuwzm3o5h&quot;);"></path></g><g class="djs-visual" id="Flow_0kx6xkn" transform="translate(0 0)"><path d="m  130,680L130,715 " style="fill: none; stroke-width: 2px; stroke: black; stroke-linejoin: round; marker-end: url(&quot;#sequenceflow-end-white-black-73irgsejpldo5a8wiuwzm3o5h&quot;);"></path></g><g class="djs-visual" id="Flow_1unrlli" transform="translate(0 0)"><path d="m  130,545L130,580 " style="fill: none; stroke-width: 2px; stroke: black; stroke-linejoin: round; marker-end: url(&quot;#sequenceflow-end-white-black-73irgsejpldo5a8wiuwzm3o5h&quot;);"></path></g><g class="djs-visual" id="Flow_1x27lzg" transform="translate(0 0)"><path d="m  430,280L430,520 L155,520 " style="fill: none; stroke-width: 2px; stroke: black; stroke-linejoin: round; marker-end: url(&quot;#sequenceflow-end-white-black-73irgsejpldo5a8wiuwzm3o5h&quot;);"></path></g><g class="djs-visual" id="Flow_0m4pluz" transform="translate(0 0)"><path d="m  130,440L130,495 " style="fill: none; stroke-width: 2px; stroke: black; stroke-linejoin: round; marker-end: url(&quot;#sequenceflow-end-white-black-73irgsejpldo5a8wiuwzm3o5h&quot;);"></path></g><g class="djs-visual" id="Flow_07k3owm" transform="translate(0 0)"><path d="m  130,280L130,340 " style="fill: none; stroke-width: 2px; stroke: black; stroke-linejoin: round; marker-end: url(&quot;#sequenceflow-end-white-black-73irgsejpldo5a8wiuwzm3o5h&quot;);"></path></g><g class="djs-visual" id="Flow_1rh47ua" transform="translate(0 0)"><path d="m  430,118L430,180 " style="fill: none; stroke-width: 2px; stroke: black; stroke-linejoin: round; marker-end: url(&quot;#sequenceflow-end-white-black-73irgsejpldo5a8wiuwzm3o5h&quot;);"></path></g><g class="djs-visual" id="Flow_1kf43xj" transform="translate(0 0)"><path d="m  130,118L130,180 " style="fill: none; stroke-width: 2px; stroke: black; stroke-linejoin: round; marker-end: url(&quot;#sequenceflow-end-white-black-73irgsejpldo5a8wiuwzm3o5h&quot;);"></path></g><g class="djs-visual" id="StartEvent_1bm324f" transform="translate(112 82)"><circle cx="18" cy="18" r="18" style="stroke: black; stroke-width: 2px; fill: white; fill-opacity: 0.95;"></circle></g><g class="djs-visual" id="StartEvent_1bm324f_label" transform="translate(85 46)"><text lineHeight="1.2" class="djs-label" style="font-family: Arial, sans-serif; font-size: 11px; font-weight: normal; fill: black;"><tspan x="0" y="9.899999999999999">Customer initiated </tspan><tspan x="15.28125" y="23.099999999999998">cancellation</tspan></text></g><g class="djs-visual" id="Event_1wp5f4y" transform="translate(412 82)"><circle cx="18" cy="18" r="18" style="stroke: black; stroke-width: 2px; fill: white; fill-opacity: 0.95;"></circle></g><g class="djs-visual" id="Event_1wp5f4y_label" transform="translate(396 46)"><text lineHeight="1.2" class="djs-label" style="font-family: Arial, sans-serif; font-size: 11px; font-weight: normal; fill: black;"><tspan x="0" y="9.899999999999999">Bank initiated </tspan><tspan x="3.9765625" y="23.099999999999998">cancellation</tspan></text></g><g class="djs-visual" id="Activity_1ozvr0w" transform="translate(65 180)"><rect x="0" y="0" width="130" height="100" rx="10" ry="10" style="stroke: black; stroke-width: 2px; fill: white; fill-opacity: 0.95;"></rect><text lineHeight="1.2" class="djs-label" style="font-family: Arial, sans-serif; font-size: 12px; font-weight: normal; fill: black;"><tspan x="9.8056640625" y="46.4">Receive cancellation </tspan><tspan x="44.654296875" y="60.8">request</tspan></text></g><g class="djs-visual" id="DataObjectReference_1aee1wa" transform="translate(-28 205)"><path d="m 0,0 28.23529411764706,0 7.058823529411765,8.196721311475411 0,40.98360655737705 -35.294117647058826,0 0,-49.18032786885246 28.23529411764706,0 0,8.196721311475411 7.058823529411765,0" style="fill: white; stroke-width: 2px; stroke: black; fill-opacity: 0.95;"></path></g><g class="djs-visual" id="DataObjectReference_1aee1wa_label" transform="translate(-56 262)"><text lineHeight="1.2" class="djs-label" style="font-family: Arial, sans-serif; font-size: 11px; font-weight: normal; fill: black;"><tspan x="0" y="9.899999999999999">Customer Request</tspan></text></g><g class="djs-visual" id="Activity_0ete016" transform="translate(65 340)"><rect x="0" y="0" width="130" height="100" rx="10" ry="10" style="stroke: black; stroke-width: 2px; fill: white; fill-opacity: 0.95;"></rect><text lineHeight="1.2" class="djs-label" style="font-family: Arial, sans-serif; font-size: 12px; font-weight: normal; fill: black;"><tspan x="25.1474609375" y="46.4">Capture Recall </tspan><tspan x="44.654296875" y="60.8">request</tspan></text></g><g class="djs-visual" id="Activity_1x00vnb" transform="translate(365 180)"><rect x="0" y="0" width="130" height="100" rx="10" ry="10" style="stroke: black; stroke-width: 2px; fill: white; fill-opacity: 0.95;"></rect><text lineHeight="1.2" class="djs-label" style="font-family: Arial, sans-serif; font-size: 12px; font-weight: normal; fill: black;"><tspan x="9.13671875" y="53.599999999999994">Capture Single recall</tspan></text></g><g class="djs-visual" id="Gateway_1ku68i5" transform="translate(105 495)"><polygon points="25,0 50,25 25,50 0,25" style="stroke: black; stroke-width: 2px; fill: white; fill-opacity: 0.95;"></polygon><path d="m 16,15 7.42857142857143,9.714285714285715 -7.42857142857143,9.714285714285715 3.428571428571429,0 5.714285714285715,-7.464228571428572 5.714285714285715,7.464228571428572 3.428571428571429,0 -7.42857142857143,-9.714285714285715 7.42857142857143,-9.714285714285715 -3.428571428571429,0 -5.714285714285715,7.464228571428572 -5.714285714285715,-7.464228571428572 -3.428571428571429,0 z" style="fill: black; stroke-width: 1px; stroke: black;"></path></g><g class="djs-visual" id="Activity_0yuxr05" transform="translate(65 580)"><rect x="0" y="0" width="130" height="100" rx="10" ry="10" style="stroke: black; stroke-width: 2px; fill: white; fill-opacity: 0.95;"></rect><text lineHeight="1.2" class="djs-label" style="font-family: Arial, sans-serif; font-size: 12px; font-weight: normal; fill: black;"><tspan x="6.8056640625" y="46.4">Check for acceptance</tspan><tspan x="52.3203125" y="60.8">days</tspan></text></g><g class="djs-visual" id="Gateway_0zo3kr5" transform="translate(105 715)"><polygon points="25,0 50,25 25,50 0,25" style="stroke: black; stroke-width: 2px; fill: white; fill-opacity: 0.95;"></polygon><path d="m 16,15 7.42857142857143,9.714285714285715 -7.42857142857143,9.714285714285715 3.428571428571429,0 5.714285714285715,-7.464228571428572 5.714285714285715,7.464228571428572 3.428571428571429,0 -7.42857142857143,-9.714285714285715 7.42857142857143,-9.714285714285715 -3.428571428571429,0 -5.714285714285715,7.464228571428572 -5.714285714285715,-7.464228571428572 -3.428571428571429,0 z" style="fill: black; stroke-width: 1px; stroke: black;"></path></g><g class="djs-visual" id="Activity_1hw2i28" transform="translate(65 830)"><rect x="0" y="0" width="130" height="100" rx="10" ry="10" style="stroke: black; stroke-width: 2px; fill: white; fill-opacity: 0.95;"></rect><text lineHeight="1.2" class="djs-label" style="font-family: Arial, sans-serif; font-size: 12px; font-weight: normal; fill: black;"><tspan x="7.4677734375" y="46.4">Place in authorisation</tspan><tspan x="48.15234375" y="60.8">queue</tspan></text></g><g class="djs-visual" id="Activity_1u4fp87" transform="translate(795 830)"><rect x="0" y="0" width="130" height="100" rx="10" ry="10" style="stroke: black; stroke-width: 2px; fill: white; fill-opacity: 0.95;"></rect><text lineHeight="1.2" class="djs-label" style="font-family: Arial, sans-serif; font-size: 12px; font-weight: normal; fill: black;"><tspan x="30.490234375" y="46.4">Display error </tspan><tspan x="40.4912109375" y="60.8">message</tspan></text></g><g class="djs-visual" id="Gateway_1fvabhq" transform="translate(105 985)"><polygon points="25,0 50,25 25,50 0,25" style="stroke: black; stroke-width: 2px; fill: white; fill-opacity: 0.95;"></polygon><path d="m 16,15 7.42857142857143,9.714285714285715 -7.42857142857143,9.714285714285715 3.428571428571429,0 5.714285714285715,-7.464228571428572 5.714285714285715,7.464228571428572 3.428571428571429,0 -7.42857142857143,-9.714285714285715 7.42857142857143,-9.714285714285715 -3.428571428571429,0 -5.714285714285715,7.464228571428572 -5.714285714285715,-7.464228571428572 -3.428571428571429,0 z" style="fill: black; stroke-width: 1px; stroke: black;"></path></g><g class="djs-visual" id="Activity_1mmrqj8" transform="translate(65 1090)"><rect x="0" y="0" width="130" height="100" rx="10" ry="10" style="stroke: black; stroke-width: 2px; fill: white; fill-opacity: 0.95;"></rect><text lineHeight="1.2" class="djs-label" style="font-family: Arial, sans-serif; font-size: 12px; font-weight: normal; fill: black;"><tspan x="23.98046875" y="53.599999999999994">Authorise recall</tspan></text></g><g class="djs-visual" id="Activity_1en9t2j" transform="translate(465 1090)"><rect x="0" y="0" width="130" height="100" rx="10" ry="10" style="stroke: black; stroke-width: 2px; fill: white; fill-opacity: 0.95;"></rect><text lineHeight="1.2" class="djs-label" style="font-family: Arial, sans-serif; font-size: 12px; font-weight: normal; fill: black;"><tspan x="31.484375" y="53.599999999999994">Delete recall</tspan></text></g><g class="djs-visual" id="Event_05icx6n" transform="translate(512 1222)"><circle cx="18" cy="18" r="18" style="stroke: black; stroke-width: 4px; fill: white; fill-opacity: 0.95;"></circle></g><g class="djs-visual" id="Event_05icx6n_label" transform="translate(491 1265)"><text lineHeight="1.2" class="djs-label" style="font-family: Arial, sans-serif; font-size: 11px; font-weight: normal; fill: black;"><tspan x="9.171875" y="9.899999999999999">Cancellation </tspan><tspan x="0" y="23.099999999999998">request rejected</tspan></text></g><g class="djs-visual" id="Activity_1lxuiuz" transform="translate(65 1250)"><rect x="0" y="0" width="130" height="100" rx="10" ry="10" style="stroke: black; stroke-width: 2px; fill: white; fill-opacity: 0.95;"></rect><text lineHeight="1.2" class="djs-label" style="font-family: Arial, sans-serif; font-size: 12px; font-weight: normal; fill: black;"><tspan x="13.46484375" y="46.4">Generate and send </tspan><tspan x="7.13671875" y="60.8">cancellation message</tspan></text></g><g class="djs-visual" id="DataObjectReference_1sy6wue" transform="translate(252 1275)"><path d="m 0,0 28.23529411764706,0 7.058823529411765,8.196721311475411 0,40.98360655737705 -35.294117647058826,0 0,-49.18032786885246 28.23529411764706,0 0,8.196721311475411 7.058823529411765,0" style="fill: white; stroke-width: 2px; stroke: black; fill-opacity: 0.95;"></path></g><g class="djs-visual" id="DataObjectReference_1sy6wue_label" transform="translate(247 1332)"><text lineHeight="1.2" class="djs-label" style="font-family: Arial, sans-serif; font-size: 11px; font-weight: normal; fill: black;"><tspan x="0" y="9.899999999999999">camt.056</tspan></text></g><g class="djs-visual" id="Activity_1y5muij" transform="translate(65 1750)"><rect x="0" y="0" width="130" height="100" rx="10" ry="10" style="stroke: black; stroke-width: 2px; fill: white; fill-opacity: 0.95;"></rect><text lineHeight="1.2" class="djs-label" style="font-family: Arial, sans-serif; font-size: 12px; font-weight: normal; fill: black;"><tspan x="27.4814453125" y="46.4">Check type of </tspan><tspan x="13.4736328125" y="60.8">Response received</tspan></text></g><g class="djs-visual" id="DataObjectReference_0fr3ag5" transform="translate(-38 1775)"><path d="m 0,0 28.23529411764706,0 7.058823529411765,8.196721311475411 0,40.98360655737705 -35.294117647058826,0 0,-49.18032786885246 28.23529411764706,0 0,8.196721311475411 7.058823529411765,0" style="fill: white; stroke-width: 2px; stroke: black; fill-opacity: 0.95;"></path></g><g class="djs-visual" id="DataObjectReference_0fr3ag5_label" transform="translate(-67 1832)"><text lineHeight="1.2" class="djs-label" style="font-family: Arial, sans-serif; font-size: 11px; font-weight: normal; fill: black;"><tspan x="0" y="9.899999999999999">pacs.004; camt.029</tspan></text></g><g class="djs-visual" id="Gateway_1plrtks" transform="translate(105 1885)"><polygon points="25,0 50,25 25,50 0,25" style="stroke: black; stroke-width: 2px; fill: white; fill-opacity: 0.95;"></polygon><path d="m 16,15 7.42857142857143,9.714285714285715 -7.42857142857143,9.714285714285715 3.428571428571429,0 5.714285714285715,-7.464228571428572 5.714285714285715,7.464228571428572 3.428571428571429,0 -7.42857142857143,-9.714285714285715 7.42857142857143,-9.714285714285715 -3.428571428571429,0 -5.714285714285715,7.464228571428572 -5.714285714285715,-7.464228571428572 -3.428571428571429,0 z" style="fill: black; stroke-width: 1px; stroke: black;"></path></g><g class="djs-visual" id="Activity_1mqgn0m" transform="translate(65 2140)"><rect x="0" y="0" width="130" height="100" rx="10" ry="10" style="stroke: black; stroke-width: 2px; fill: white; fill-opacity: 0.95;"></rect><text lineHeight="1.2" class="djs-label" style="font-family: Arial, sans-serif; font-size: 12px; font-weight: normal; fill: black;"><tspan x="24.4736328125" y="46.4">Update original </tspan><tspan x="35.9873046875" y="60.8">transaction</tspan></text></g><g class="djs-visual" id="Activity_0umkaqr" transform="translate(65 2270)"><rect x="0" y="0" width="130" height="100" rx="10" ry="10" style="stroke: black; stroke-width: 2px; fill: white; fill-opacity: 0.95;"></rect><text lineHeight="1.2" class="djs-label" style="font-family: Arial, sans-serif; font-size: 12px; font-weight: normal; fill: black;"><tspan x="9.1318359375" y="46.4">Generate accounting </tspan><tspan x="46.984375" y="60.8">entries</tspan></text></g><g class="djs-visual" id="Activity_0jstnej" transform="translate(65 2410)"><rect x="0" y="0" width="130" height="100" rx="10" ry="10" style="stroke: black; stroke-width: 2px; fill: white; fill-opacity: 0.95;"></rect><text lineHeight="1.2" class="djs-label" style="font-family: Arial, sans-serif; font-size: 12px; font-weight: normal; fill: black;"><tspan x="6.9765625" y="46.4">Generate Email/ SMS </tspan><tspan x="15.31640625" y="60.8">Alerts to Customer</tspan></text></g><g class="djs-visual" id="Event_1pkl143" transform="translate(112 2572)"><circle cx="18" cy="18" r="18" style="stroke: black; stroke-width: 4px; fill: white; fill-opacity: 0.95;"></circle></g><g class="djs-visual" id="Event_1pkl143_label" transform="translate(88 2615)"><text lineHeight="1.2" class="djs-label" style="font-family: Arial, sans-serif; font-size: 11px; font-weight: normal; fill: black;"><tspan x="11.921875" y="9.899999999999999">Cancellation </tspan><tspan x="0" y="23.099999999999998">request accepted</tspan></text></g><g class="djs-visual" id="Activity_0rv1h0k" transform="translate(465 1990)"><rect x="0" y="0" width="130" height="100" rx="10" ry="10" style="stroke: black; stroke-width: 2px; fill: white; fill-opacity: 0.95;"></rect><text lineHeight="1.2" class="djs-label" style="font-family: Arial, sans-serif; font-size: 12px; font-weight: normal; fill: black;"><tspan x="10.8017578125" y="46.4">Update Cancellation </tspan><tspan x="44.654296875" y="60.8">request</tspan></text></g><g class="djs-visual" id="Activity_1iw7v9f" transform="translate(465 2150)"><rect x="0" y="0" width="130" height="100" rx="10" ry="10" style="stroke: black; stroke-width: 2px; fill: white; fill-opacity: 0.95;"></rect><text lineHeight="1.2" class="djs-label" style="font-family: Arial, sans-serif; font-size: 12px; font-weight: normal; fill: black;"><tspan x="6.9765625" y="46.4">Generate Email/ SMS </tspan><tspan x="15.31640625" y="60.8">Alerts to Customer</tspan></text></g><g class="djs-visual" id="Event_0cdj96v" transform="translate(512 2292)"><circle cx="18" cy="18" r="18" style="stroke: black; stroke-width: 4px; fill: white; fill-opacity: 0.95;"></circle></g><g class="djs-visual" id="Event_0cdj96v_label" transform="translate(491 2335)"><text lineHeight="1.2" class="djs-label" style="font-family: Arial, sans-serif; font-size: 11px; font-weight: normal; fill: black;"><tspan x="9.171875" y="9.899999999999999">Cancellation </tspan><tspan x="0" y="23.099999999999998">request rejected</tspan></text></g><g class="djs-visual" id="DataObjectReference_0ygt36y" transform="translate(252 2435)"><path d="m 0,0 28.23529411764706,0 7.058823529411765,8.196721311475411 0,40.98360655737705 -35.294117647058826,0 0,-49.18032786885246 28.23529411764706,0 0,8.196721311475411 7.058823529411765,0" style="fill: white; stroke-width: 2px; stroke: black; fill-opacity: 0.95;"></path></g><g class="djs-visual" id="DataObjectReference_0ygt36y_label" transform="translate(225 2492)"><text lineHeight="1.2" class="djs-label" style="font-family: Arial, sans-serif; font-size: 11px; font-weight: normal; fill: black;"><tspan x="0" y="9.899999999999999">E-mail alerts; SMS </tspan><tspan x="32.16845703125" y="23.099999999999998">alerts</tspan></text></g><g class="djs-visual" id="DataObjectReference_0gbch4w" transform="translate(647 2175)"><path d="m 0,0 28.23529411764706,0 7.058823529411765,8.196721311475411 0,40.98360655737705 -35.294117647058826,0 0,-49.18032786885246 28.23529411764706,0 0,8.196721311475411 7.058823529411765,0" style="fill: white; stroke-width: 2px; stroke: black; fill-opacity: 0.95;"></path></g><g class="djs-visual" id="DataObjectReference_0gbch4w_label" transform="translate(620 2232)"><text lineHeight="1.2" class="djs-label" style="font-family: Arial, sans-serif; font-size: 11px; font-weight: normal; fill: black;"><tspan x="0" y="9.899999999999999">E-mail alerts; SMS </tspan><tspan x="32.16845703125" y="23.099999999999998">alerts</tspan></text></g><g class="djs-visual" id="Activity_1vu6hjs" transform="translate(795 1000)"><rect x="0" y="0" width="130" height="100" rx="10" ry="10" style="stroke: black; stroke-width: 2px; fill: white; fill-opacity: 0.95;"></rect><text lineHeight="1.2" class="djs-label" style="font-family: Arial, sans-serif; font-size: 12px; font-weight: normal; fill: black;"><tspan x="19.9794921875" y="53.599999999999994">Abort transaction</tspan></text></g><g class="djs-visual" id="Event_1k8y521" transform="translate(842 1132)"><circle cx="18" cy="18" r="18" style="stroke: black; stroke-width: 4px; fill: white; fill-opacity: 0.95;"></circle></g><g class="djs-visual" id="Event_1k8y521_label" transform="translate(821 1175)"><text lineHeight="1.2" class="djs-label" style="font-family: Arial, sans-serif; font-size: 11px; font-weight: normal; fill: black;"><tspan x="8.2578125" y="9.899999999999999">Cancellation </tspan><tspan x="0" y="23.099999999999998">request aborted</tspan></text></g><g class="djs-visual" id="Activity_1onrgjn" transform="translate(65 2000)"><rect x="0" y="0" width="130" height="100" rx="10" ry="10" style="stroke: black; stroke-width: 2px; fill: white; fill-opacity: 0.95;"></rect><text lineHeight="1.2" class="djs-label" style="font-family: Arial, sans-serif; font-size: 12px; font-weight: normal; fill: black;"><tspan x="10.8017578125" y="46.4">Update Cancellation </tspan><tspan x="44.654296875" y="60.8">request</tspan></text></g><g class="djs-visual" id="Activity_1o8f6ad" transform="translate(65 1460)"><rect x="0" y="0" width="130" height="100" rx="10" ry="10" style="stroke: black; stroke-width: 5px; fill: white; fill-opacity: 0.95;"></rect><text lineHeight="1.2" class="djs-label" style="font-family: Arial, sans-serif; font-size: 12px; font-weight: normal; fill: black;"><tspan x="17.4873046875" y="46.4">Perform Message </tspan><tspan x="21.421875" y="60.8">Validation (PBA)</tspan></text><rect x="0" y="0" width="14" height="14" rx="0" ry="0" style="stroke: black; stroke-width: 1px; fill: white;" transform="matrix(1 0 0 1 57.5 80)"></rect><path d="m57.5,80 m 7,2 l 0,10 m -5,-5 l 10,0" data-marker="sub-process" style="fill: white; stroke-width: 2px; stroke: black;"></path></g><g class="djs-visual" id="Gateway_19i1s9m" transform="translate(105 1605)"><polygon points="25,0 50,25 25,50 0,25" style="stroke: black; stroke-width: 2px; fill: white; fill-opacity: 0.95;"></polygon><path d="m 16,15 7.42857142857143,9.714285714285715 -7.42857142857143,9.714285714285715 3.428571428571429,0 5.714285714285715,-7.464228571428572 5.714285714285715,7.464228571428572 3.428571428571429,0 -7.42857142857143,-9.714285714285715 7.42857142857143,-9.714285714285715 -3.428571428571429,0 -5.714285714285715,7.464228571428572 -5.714285714285715,-7.464228571428572 -3.428571428571429,0 z" style="fill: black; stroke-width: 1px; stroke: black;"></path></g><g class="djs-visual" id="Event_0jxsxjp" transform="translate(313 1662)"><circle cx="18" cy="18" r="18" style="stroke: black; stroke-width: 4px; fill: white; fill-opacity: 0.95;"></circle></g><g class="djs-visual" id="Event_0jxsxjp_label" transform="translate(303 1705)"><text lineHeight="1.2" class="djs-label" style="font-family: Arial, sans-serif; font-size: 11px; font-weight: normal; fill: black;"><tspan x="0" y="9.899999999999999">Transaction </tspan><tspan x="6.6328125" y="23.099999999999998">reversed</tspan></text></g><g class="djs-visual" id="TextAnnotation_0e6s1wn" transform="translate(520 50)"><rect x="0" y="0" width="190" height="40" rx="0" ry="0" style="stroke: none; stroke-width: 2px; fill: none;"></rect><path d="m 0, 0 m 10,0 l -10,0 l 0,40 l 10,0" style="fill: none; stroke-width: 2px; stroke: black;"></path><text lineHeight="1.2" class="djs-label" style="font-family: Arial, sans-serif; font-size: 12px; font-weight: normal; fill: black;"><tspan x="5" y="15.799999999999999">Bank may cancel, in case of </tspan><tspan x="5" y="30.199999999999996">erroneous/ duplicate processing</tspan></text></g><g class="djs-visual" id="TextAnnotation_0v24sby" transform="translate(246 550)"><rect x="0" y="0" width="170" height="40" rx="0" ry="0" style="stroke: none; stroke-width: 2px; fill: none;"></rect><path d="m 0, 0 m 10,0 l -10,0 l 0,40 l 10,0" style="fill: none; stroke-width: 2px; stroke: black;"></path><text lineHeight="1.2" class="djs-label" style="font-family: Arial, sans-serif; font-size: 12px; font-weight: normal; fill: black;"><tspan x="5" y="15.799999999999999">Set in </tspan><tspan x="5" y="30.199999999999996">PP.CLEARING.SETTING</tspan></text></g><g class="djs-visual" id="TextAnnotation_0fskmpa" transform="translate(230 2130)"><rect x="0" y="0" width="138" height="40" rx="0" ry="0" style="stroke: none; stroke-width: 2px; fill: none;"></rect><path d="m 0, 0 m 10,0 l -10,0 l 0,40 l 10,0" style="fill: none; stroke-width: 2px; stroke: black;"></path><text lineHeight="1.2" class="djs-label" style="font-family: Arial, sans-serif; font-size: 12px; font-weight: normal; fill: black;"><tspan x="5" y="15.799999999999999">Status: Payment</tspan><tspan x="5" y="30.199999999999996">Competed with return</tspan></text></g><g class="djs-visual" id="TextAnnotation_0pg6el7" transform="translate(630 1970)"><rect x="0" y="0" width="165" height="41" rx="0" ry="0" style="stroke: none; stroke-width: 2px; fill: none;"></rect><path d="m 0, 0 m 10,0 l -10,0 l 0,41 l 10,0" style="fill: none; stroke-width: 2px; stroke: black;"></path><text lineHeight="1.2" class="djs-label" style="font-family: Arial, sans-serif; font-size: 12px; font-weight: normal; fill: black;"><tspan x="5" y="15.799999999999999">Update status as</tspan><tspan x="5" y="30.199999999999996">CANCELREJECTED</tspan></text></g><g class="djs-visual" id="TextAnnotation_0dcak8e" transform="translate(230 2270)"><rect x="0" y="0" width="158" height="40" rx="0" ry="0" style="stroke: none; stroke-width: 2px; fill: none;"></rect><path d="m 0, 0 m 10,0 l -10,0 l 0,40 l 10,0" style="fill: none; stroke-width: 2px; stroke: black;"></path><text lineHeight="1.2" class="djs-label" style="font-family: Arial, sans-serif; font-size: 12px; font-weight: normal; fill: black;"><tspan x="5" y="15.799999999999999">Dr Clearing nostro account</tspan><tspan x="5" y="30.199999999999996">Cr Customer account</tspan></text></g><g class="djs-visual" id="TextAnnotation_1n3vtlv" transform="translate(230 1980)"><rect x="0" y="0" width="138" height="40" rx="0" ry="0" style="stroke: none; stroke-width: 2px; fill: none;"></rect><path d="m 0, 0 m 10,0 l -10,0 l 0,40 l 10,0" style="fill: none; stroke-width: 2px; stroke: black;"></path><text lineHeight="1.2" class="djs-label" style="font-family: Arial, sans-serif; font-size: 12px; font-weight: normal; fill: black;"><tspan x="5" y="15.799999999999999">Update status as&nbsp;</tspan><tspan x="5" y="30.199999999999996">CANCELACCEPTED</tspan></text></g><g class="djs-visual" id="TextAnnotation_0edttws" transform="translate(220 320)"><rect x="0" y="0" width="130" height="30" rx="0" ry="0" style="stroke: none; stroke-width: 2px; fill: none;"></rect><path d="m 0, 0 m 10,0 l -10,0 l 0,30 l 10,0" style="fill: none; stroke-width: 2px; stroke: black;"></path><text lineHeight="1.2" class="djs-label" style="font-family: Arial, sans-serif; font-size: 12px; font-weight: normal; fill: black;"><tspan x="5" y="15.799999999999999">- FT Number or UETR</tspan></text></g><g class="djs-visual" id="DataInputAssociation_04nz1sl" transform="translate(0 0)"><polyline points="8,230 65,230 " style="fill: none; stroke: black; stroke-width: 2px; stroke-dasharray: 0.5, 5; stroke-linecap: round; stroke-linejoin: round; marker-end: url(&quot;#association-end-white-black-73irgsejpldo5a8wiuwzm3o5h&quot;);"></polyline></g><g class="djs-visual" id="Flow_0fxg8ig_label" transform="translate(146 786)"><text lineHeight="1.2" class="djs-label" style="font-family: Arial, sans-serif; font-size: 11px; font-weight: normal; fill: black;"><tspan x="0" y="9.899999999999999">Within acceptance </tspan><tspan x="32.57763671875" y="23.099999999999998">days</tspan></text></g><g class="djs-visual" id="Flow_0m83m5i_label" transform="translate(868 776)"><text lineHeight="1.2" class="djs-label" style="font-family: Arial, sans-serif; font-size: 11px; font-weight: normal; fill: black;"><tspan x="20.181884765625" y="9.899999999999999">Exceeds </tspan><tspan x="0" y="23.099999999999998">acceptance days</tspan></text></g><g class="djs-visual" id="Flow_148d4al_label" transform="translate(140 1036)"><text lineHeight="1.2" class="djs-label" style="font-family: Arial, sans-serif; font-size: 11px; font-weight: normal; fill: black;"><tspan x="0" y="9.899999999999999">Recall to be </tspan><tspan x="3.359375" y="23.099999999999998">authorised</tspan></text></g><g class="djs-visual" id="Flow_003rxv5_label" transform="translate(540 1036)"><text lineHeight="1.2" class="djs-label" style="font-family: Arial, sans-serif; font-size: 11px; font-weight: normal; fill: black;"><tspan x="0" y="9.899999999999999">Recall to be </tspan><tspan x="5.8046875" y="23.099999999999998">cancelled</tspan></text></g><g class="djs-visual" id="DataOutputAssociation_03tkqoz" transform="translate(0 0)"><polyline points="195,1300 252,1300 " style="fill: none; stroke: black; stroke-width: 2px; stroke-dasharray: 0.5, 5; stroke-linecap: round; stroke-linejoin: round; marker-end: url(&quot;#association-end-white-black-73irgsejpldo5a8wiuwzm3o5h&quot;);"></polyline></g><g class="djs-visual" id="DataInputAssociation_0s0fdsi" transform="translate(0 0)"><polyline points="-2,1800 65,1800 " style="fill: none; stroke: black; stroke-width: 2px; stroke-dasharray: 0.5, 5; stroke-linecap: round; stroke-linejoin: round; marker-end: url(&quot;#association-end-white-black-73irgsejpldo5a8wiuwzm3o5h&quot;);"></polyline></g><g class="djs-visual" id="DataOutputAssociation_1wbqftb" transform="translate(0 0)"><polyline points="195,2460 252,2460 " style="fill: none; stroke: black; stroke-width: 2px; stroke-dasharray: 0.5, 5; stroke-linecap: round; stroke-linejoin: round; marker-end: url(&quot;#association-end-white-black-73irgsejpldo5a8wiuwzm3o5h&quot;);"></polyline></g><g class="djs-visual" id="DataOutputAssociation_1yyksyt" transform="translate(0 0)"><polyline points="595,2200 647,2200 " style="fill: none; stroke: black; stroke-width: 2px; stroke-dasharray: 0.5, 5; stroke-linecap: round; stroke-linejoin: round; marker-end: url(&quot;#association-end-white-black-73irgsejpldo5a8wiuwzm3o5h&quot;);"></polyline></g><g class="djs-visual" id="Flow_1lz4xxy_label" transform="translate(540 1933)"><text lineHeight="1.2" class="djs-label" style="font-family: Arial, sans-serif; font-size: 11px; font-weight: normal; fill: black;"><tspan x="0" y="9.899999999999999">Recall rejected </tspan><tspan x="9.31591796875" y="23.099999999999998">(Receipt of </tspan><tspan x="11.759765625" y="36.3">camt.029)</tspan></text></g><g class="djs-visual" id="Flow_1025s2c_label" transform="translate(144 1940)"><text lineHeight="1.2" class="djs-label" style="font-family: Arial, sans-serif; font-size: 11px; font-weight: normal; fill: black;"><tspan x="0" y="9.899999999999999">Recall accepted </tspan><tspan x="12.07373046875" y="23.099999999999998">(Receipt of </tspan><tspan x="14.818359375" y="36.3">pacs.004)</tspan></text></g><g class="djs-visual" id="Flow_1d0wpyl_label" transform="translate(136 1390)"><text lineHeight="1.2" class="djs-label" style="font-family: Arial, sans-serif; font-size: 11px; font-weight: normal; fill: black;"><tspan x="0" y="9.899999999999999">Message validation </tspan><tspan x="8.7578125" y="23.099999999999998">to be performed</tspan></text></g><g class="djs-visual" id="Flow_10o1bat_label" transform="translate(123 1670)"><text lineHeight="1.2" class="djs-label" style="font-family: Arial, sans-serif; font-size: 11px; font-weight: normal; fill: black;"><tspan x="0" y="9.899999999999999">Message validation </tspan><tspan x="22.015625" y="23.099999999999998">performed </tspan><tspan x="17.1875" y="36.3">successfully</tspan></text></g><g class="djs-visual" id="Association_05ph9pn" transform="translate(0 0)"><polyline points="447,96 520,78 " style="fill: none; stroke: black; stroke-width: 2px; stroke-dasharray: 0.5, 5; stroke-linecap: round; stroke-linejoin: round;"></polyline></g><g class="djs-visual" id="Association_1j5bvf4" transform="translate(0 0)"><polyline points="195,594 246,566 " style="fill: none; stroke: black; stroke-width: 2px; stroke-dasharray: 0.5, 5; stroke-linecap: round; stroke-linejoin: round;"></polyline></g><g class="djs-visual" id="Association_1011s3z" transform="translate(0 0)"><polyline points="195,2173 230,2163 " style="fill: none; stroke: black; stroke-width: 2px; stroke-dasharray: 0.5, 5; stroke-linecap: round; stroke-linejoin: round;"></polyline></g><g class="djs-visual" id="Association_09qtm0b" transform="translate(0 0)"><polyline points="600,2020 630,1995 " style="fill: none; stroke: black; stroke-width: 2px; stroke-dasharray: 0.5, 5; stroke-linecap: round; stroke-linejoin: round;"></polyline></g><g class="djs-visual" id="Association_0lbjx0s" transform="translate(0 0)"><polyline points="195,2308 230,2302 " style="fill: none; stroke: black; stroke-width: 2px; stroke-dasharray: 0.5, 5; stroke-linecap: round; stroke-linejoin: round;"></polyline></g><g class="djs-visual" id="Association_0yfnfa1" transform="translate(0 0)"><polyline points="195,2026 230,2012 " style="fill: none; stroke: black; stroke-width: 2px; stroke-dasharray: 0.5, 5; stroke-linecap: round; stroke-linejoin: round;"></polyline></g><g class="djs-visual" id="Association_121h6pn" transform="translate(0 0)"><polyline points="195,364 232,350 " style="fill: none; stroke: black; stroke-width: 2px; stroke-dasharray: 0.5, 5; stroke-linecap: round; stroke-linejoin: round;"></polyline></g></g><g><rect class="viewport" x="-2986.2371541501975" y="40.011857707509876" width="6857.707509881423" height="2608.695652173913"></rect></g></svg>