<svg width="100%" height="100%" viewBox="-136, -66, 1835, 3807"><g><g class="djs-visual" id="Flow_0fem6jk" transform="translate(0 0)"><path d="m  1110,1450L1110,3280 L845,3280 " style="fill: none; stroke-width: 2px; stroke: black; stroke-linejoin: round; marker-end: url(&quot;#sequenceflow-end-white-black-6ni600axan42hwxmjbpxnrp48&quot;);"></path></g><g class="djs-visual" id="Flow_1erztkq" transform="translate(0 0)"><path d="m  820,3305L820,3380 " style="fill: none; stroke-width: 2px; stroke: black; stroke-linejoin: round; marker-end: url(&quot;#sequenceflow-end-white-black-6ni600axan42hwxmjbpxnrp48&quot;);"></path></g><g class="djs-visual" id="Flow_13zrfn1" transform="translate(0 0)"><path d="m  820,3220L820,3255 " style="fill: none; stroke-width: 2px; stroke: black; stroke-linejoin: round; marker-end: url(&quot;#sequenceflow-end-white-black-6ni600axan42hwxmjbpxnrp48&quot;);"></path></g><g class="djs-visual" id="Flow_0x3pqvx" transform="translate(0 0)"><path d="m  845,3540L950,3540 L950,3602 " style="fill: none; stroke-width: 2px; stroke: black; stroke-linejoin: round; marker-end: url(&quot;#sequenceflow-end-white-black-6ni600axan42hwxmjbpxnrp48&quot;);"></path></g><g class="djs-visual" id="Flow_0xbmfpu" transform="translate(0 0)"><path d="m  820,3565L820,3602 " style="fill: none; stroke-width: 2px; stroke: black; stroke-linejoin: round; marker-end: url(&quot;#sequenceflow-end-white-black-6ni600axan42hwxmjbpxnrp48&quot;);"></path></g><g class="djs-visual" id="Flow_1xp6d8q" transform="translate(0 0)"><path d="m  820,3480L820,3515 " style="fill: none; stroke-width: 2px; stroke: black; stroke-linejoin: round; marker-end: url(&quot;#sequenceflow-end-white-black-6ni600axan42hwxmjbpxnrp48&quot;);"></path></g><g class="djs-visual" id="Flow_0c9wjkc" transform="translate(0 0)"><path d="m  95,2690L200,2690 L200,2752 " style="fill: none; stroke-width: 2px; stroke: black; stroke-linejoin: round; marker-end: url(&quot;#sequenceflow-end-white-black-6ni600axan42hwxmjbpxnrp48&quot;);"></path></g><g class="djs-visual" id="Flow_039ojjq" transform="translate(0 0)"><path d="m  70,2715L70,2752 " style="fill: none; stroke-width: 2px; stroke: black; stroke-linejoin: round; marker-end: url(&quot;#sequenceflow-end-white-black-6ni600axan42hwxmjbpxnrp48&quot;);"></path></g><g class="djs-visual" id="Flow_02ki5z9" transform="translate(0 0)"><path d="m  70,2630L70,2665 " style="fill: none; stroke-width: 2px; stroke: black; stroke-linejoin: round; marker-end: url(&quot;#sequenceflow-end-white-black-6ni600axan42hwxmjbpxnrp48&quot;);"></path></g><g class="djs-visual" id="Flow_1cpkl7f" transform="translate(0 0)"><path d="m  70,2440L70,2530 " style="fill: none; stroke-width: 2px; stroke: black; stroke-linejoin: round; marker-end: url(&quot;#sequenceflow-end-white-black-6ni600axan42hwxmjbpxnrp48&quot;);"></path></g><g class="djs-visual" id="Flow_100yvb9" transform="translate(0 0)"><path d="m  820,3060L820,3120 " style="fill: none; stroke-width: 2px; stroke: black; stroke-linejoin: round; marker-end: url(&quot;#sequenceflow-end-white-black-6ni600axan42hwxmjbpxnrp48&quot;);"></path></g><g class="djs-visual" id="Flow_161priy" transform="translate(0 0)"><path d="m  820,2890L820,2960 " style="fill: none; stroke-width: 2px; stroke: black; stroke-linejoin: round; marker-end: url(&quot;#sequenceflow-end-white-black-6ni600axan42hwxmjbpxnrp48&quot;);"></path></g><g class="djs-visual" id="Flow_1pr4stf" transform="translate(0 0)"><path d="m  820,2720L820,2790 " style="fill: none; stroke-width: 2px; stroke: black; stroke-linejoin: round; marker-end: url(&quot;#sequenceflow-end-white-black-6ni600axan42hwxmjbpxnrp48&quot;);"></path></g><g class="djs-visual" id="Flow_0llzscq" transform="translate(0 0)"><path d="m  820,2550L820,2620 " style="fill: none; stroke-width: 2px; stroke: black; stroke-linejoin: round; marker-end: url(&quot;#sequenceflow-end-white-black-6ni600axan42hwxmjbpxnrp48&quot;);"></path></g><g class="djs-visual" id="Flow_0i278u6" transform="translate(0 0)"><path d="m  585,2360L820,2360 L820,2450 " style="fill: none; stroke-width: 2px; stroke: black; stroke-linejoin: round; marker-end: url(&quot;#sequenceflow-end-white-black-6ni600axan42hwxmjbpxnrp48&quot;);"></path></g><g class="djs-visual" id="Flow_1im88mp" transform="translate(0 0)"><path d="m  560,2880L560,2910 L-80,2910 L-80,1620 L45,1620 " style="fill: none; stroke-width: 2px; stroke: black; stroke-linejoin: round; marker-end: url(&quot;#sequenceflow-end-white-black-6ni600axan42hwxmjbpxnrp48&quot;);"></path></g><g class="djs-visual" id="Flow_0kwn7ng" transform="translate(0 0)"><path d="m  560,2720L560,2780 " style="fill: none; stroke-width: 2px; stroke: black; stroke-linejoin: round; marker-end: url(&quot;#sequenceflow-end-white-black-6ni600axan42hwxmjbpxnrp48&quot;);"></path></g><g class="djs-visual" id="Flow_067ri23" transform="translate(0 0)"><path d="m  560,2550L560,2620 " style="fill: none; stroke-width: 2px; stroke: black; stroke-linejoin: round; marker-end: url(&quot;#sequenceflow-end-white-black-6ni600axan42hwxmjbpxnrp48&quot;);"></path></g><g class="djs-visual" id="Flow_0qiy6bg" transform="translate(0 0)"><path d="m  560,2385L560,2450 " style="fill: none; stroke-width: 2px; stroke: black; stroke-linejoin: round; marker-end: url(&quot;#sequenceflow-end-white-black-6ni600axan42hwxmjbpxnrp48&quot;);"></path></g><g class="djs-visual" id="Flow_1wu3j40" transform="translate(0 0)"><path d="m  560,2280L560,2335 " style="fill: none; stroke-width: 2px; stroke: black; stroke-linejoin: round; marker-end: url(&quot;#sequenceflow-end-white-black-6ni600axan42hwxmjbpxnrp48&quot;);"></path></g><g class="djs-visual" id="Flow_0e232jy" transform="translate(0 0)"><path d="m  560,2110L560,2180 " style="fill: none; stroke-width: 2px; stroke: black; stroke-linejoin: round; marker-end: url(&quot;#sequenceflow-end-white-black-6ni600axan42hwxmjbpxnrp48&quot;);"></path></g><g class="djs-visual" id="Flow_0lkbmuy" transform="translate(0 0)"><path d="m  95,1920L560,1920 L560,2010 " style="fill: none; stroke-width: 2px; stroke: black; stroke-linejoin: round; marker-end: url(&quot;#sequenceflow-end-white-black-6ni600axan42hwxmjbpxnrp48&quot;);"></path></g><g class="djs-visual" id="Flow_1vl5his" transform="translate(0 0)"><path d="m  70,2280L70,2340 " style="fill: none; stroke-width: 2px; stroke: black; stroke-linejoin: round; marker-end: url(&quot;#sequenceflow-end-white-black-6ni600axan42hwxmjbpxnrp48&quot;);"></path></g><g class="djs-visual" id="Flow_1x5d59g" transform="translate(0 0)"><path d="m  70,2110L70,2180 " style="fill: none; stroke-width: 2px; stroke: black; stroke-linejoin: round; marker-end: url(&quot;#sequenceflow-end-white-black-6ni600axan42hwxmjbpxnrp48&quot;);"></path></g><g class="djs-visual" id="Flow_0s8ws1k" transform="translate(0 0)"><path d="m  70,1945L70,2010 " style="fill: none; stroke-width: 2px; stroke: black; stroke-linejoin: round; marker-end: url(&quot;#sequenceflow-end-white-black-6ni600axan42hwxmjbpxnrp48&quot;);"></path></g><g class="djs-visual" id="Flow_0sb1d2d" transform="translate(0 0)"><path d="m  70,1820L70,1895 " style="fill: none; stroke-width: 2px; stroke: black; stroke-linejoin: round; marker-end: url(&quot;#sequenceflow-end-white-black-6ni600axan42hwxmjbpxnrp48&quot;);"></path></g><g class="djs-visual" id="Flow_0fxyked" transform="translate(0 0)"><path d="m  70,1645L70,1720 " style="fill: none; stroke-width: 2px; stroke: black; stroke-linejoin: round; marker-end: url(&quot;#sequenceflow-end-white-black-6ni600axan42hwxmjbpxnrp48&quot;);"></path></g><g class="djs-visual" id="Flow_1q5d0wx" transform="translate(0 0)"><path d="m  70,1520L70,1595 " style="fill: none; stroke-width: 2px; stroke: black; stroke-linejoin: round; marker-end: url(&quot;#sequenceflow-end-white-black-6ni600axan42hwxmjbpxnrp48&quot;);"></path></g><g class="djs-visual" id="Flow_1dusz0n" transform="translate(0 0)"><path d="m  70,1375L70,1420 " style="fill: none; stroke-width: 2px; stroke: black; stroke-linejoin: round; marker-end: url(&quot;#sequenceflow-end-white-black-6ni600axan42hwxmjbpxnrp48&quot;);"></path></g><g class="djs-visual" id="Flow_0tqvu5a" transform="translate(0 0)"><path d="m  530,1300L530,1350 L95,1350 " style="fill: none; stroke-width: 2px; stroke: black; stroke-linejoin: round; marker-end: url(&quot;#sequenceflow-end-white-black-6ni600axan42hwxmjbpxnrp48&quot;);"></path></g><g class="djs-visual" id="Flow_09tf389" transform="translate(0 0)"><path d="m  1110,1300L1110,1350 " style="fill: none; stroke-width: 2px; stroke: black; stroke-linejoin: round; marker-end: url(&quot;#sequenceflow-end-white-black-6ni600axan42hwxmjbpxnrp48&quot;);"></path></g><g class="djs-visual" id="Flow_1nkfayt" transform="translate(0 0)"><path d="m  1110,1130L1110,1200 " style="fill: none; stroke-width: 2px; stroke: black; stroke-linejoin: round; marker-end: url(&quot;#sequenceflow-end-white-black-6ni600axan42hwxmjbpxnrp48&quot;);"></path></g><g class="djs-visual" id="Flow_0u6nsbm" transform="translate(0 0)"><path d="m  555,950L1110,950 L1110,1030 " style="fill: none; stroke-width: 2px; stroke: black; stroke-linejoin: round; marker-end: url(&quot;#sequenceflow-end-white-black-6ni600axan42hwxmjbpxnrp48&quot;);"></path></g><g class="djs-visual" id="Flow_0lhc97q" transform="translate(0 0)"><path d="m  530,1130L530,1200 " style="fill: none; stroke-width: 2px; stroke: black; stroke-linejoin: round; marker-end: url(&quot;#sequenceflow-end-white-black-6ni600axan42hwxmjbpxnrp48&quot;);"></path></g><g class="djs-visual" id="Flow_1175qy2" transform="translate(0 0)"><path d="m  530,975L530,1030 " style="fill: none; stroke-width: 2px; stroke: black; stroke-linejoin: round; marker-end: url(&quot;#sequenceflow-end-white-black-6ni600axan42hwxmjbpxnrp48&quot;);"></path></g><g class="djs-visual" id="Flow_0qkzlby" transform="translate(0 0)"><path d="m  530,860L530,925 " style="fill: none; stroke-width: 2px; stroke: black; stroke-linejoin: round; marker-end: url(&quot;#sequenceflow-end-white-black-6ni600axan42hwxmjbpxnrp48&quot;);"></path></g><g class="djs-visual" id="Flow_1b3pv9m" transform="translate(0 0)"><path d="m  530,700L530,760 " style="fill: none; stroke-width: 2px; stroke: black; stroke-linejoin: round; marker-end: url(&quot;#sequenceflow-end-white-black-6ni600axan42hwxmjbpxnrp48&quot;);"></path></g><g class="djs-visual" id="Flow_1ojph0j" transform="translate(0 0)"><path d="m  95,500L530,500 L530,600 " style="fill: none; stroke-width: 2px; stroke: black; stroke-linejoin: round; marker-end: url(&quot;#sequenceflow-end-white-black-6ni600axan42hwxmjbpxnrp48&quot;);"></path></g><g class="djs-visual" id="Flow_02snp9f" transform="translate(0 0)"><path d="m  70,525L70,1325 " style="fill: none; stroke-width: 2px; stroke: black; stroke-linejoin: round; marker-end: url(&quot;#sequenceflow-end-white-black-6ni600axan42hwxmjbpxnrp48&quot;);"></path></g><g class="djs-visual" id="Flow_1e7dlhs" transform="translate(0 0)"><path d="m  70,430L70,475 " style="fill: none; stroke-width: 2px; stroke: black; stroke-linejoin: round; marker-end: url(&quot;#sequenceflow-end-white-black-6ni600axan42hwxmjbpxnrp48&quot;);"></path></g><g class="djs-visual" id="Flow_0rgzngv" transform="translate(0 0)"><path d="m  70,260L70,330 " style="fill: none; stroke-width: 2px; stroke: black; stroke-linejoin: round; marker-end: url(&quot;#sequenceflow-end-white-black-6ni600axan42hwxmjbpxnrp48&quot;);"></path></g><g class="djs-visual" id="Flow_0n16lqz" transform="translate(0 0)"><path d="m  70,88L70,160 " style="fill: none; stroke-width: 2px; stroke: black; stroke-linejoin: round; marker-end: url(&quot;#sequenceflow-end-white-black-6ni600axan42hwxmjbpxnrp48&quot;);"></path></g><g class="djs-visual" id="StartEvent_1bm324f" transform="translate(52 52)"><circle cx="18" cy="18" r="18" style="stroke: black; stroke-width: 2px; fill: white; fill-opacity: 0.95;"></circle></g><g class="djs-visual" id="StartEvent_1bm324f_label" transform="translate(20 -10)"><text lineHeight="1.2" class="djs-label" style="font-family: Arial, sans-serif; font-size: 11px; font-weight: normal; fill: black;"><tspan x="0" y="9.899999999999999">Inward remittance to </tspan><tspan x="18.9375" y="23.099999999999998">be cancelled</tspan></text></g><g class="djs-visual" id="Activity_11j7ceg" transform="translate(5 160)"><rect x="0" y="0" width="130" height="100" rx="10" ry="10" style="stroke: black; stroke-width: 2px; fill: white; fill-opacity: 0.95;"></rect><text lineHeight="1.2" class="djs-label" style="font-family: Arial, sans-serif; font-size: 12px; font-weight: normal; fill: black;"><tspan x="13.8154296875" y="46.4">Match with Original </tspan><tspan x="18.146484375" y="60.8">return transaction</tspan></text></g><g class="djs-visual" id="Activity_0w6mfxn" transform="translate(5 330)"><rect x="0" y="0" width="130" height="100" rx="10" ry="10" style="stroke: black; stroke-width: 2px; fill: white; fill-opacity: 0.95;"></rect><text lineHeight="1.2" class="djs-label" style="font-family: Arial, sans-serif; font-size: 12px; font-weight: normal; fill: black;"><tspan x="22.1474609375" y="46.4">Check if original </tspan><tspan x="5.3076171875" y="60.8">transaction is matched</tspan></text></g><g class="djs-visual" id="Gateway_0w1dgdw" transform="translate(45 475)"><polygon points="25,0 50,25 25,50 0,25" style="stroke: black; stroke-width: 2px; fill: white; fill-opacity: 0.95;"></polygon><path d="m 16,15 7.42857142857143,9.714285714285715 -7.42857142857143,9.714285714285715 3.428571428571429,0 5.714285714285715,-7.464228571428572 5.714285714285715,7.464228571428572 3.428571428571429,0 -7.42857142857143,-9.714285714285715 7.42857142857143,-9.714285714285715 -3.428571428571429,0 -5.714285714285715,7.464228571428572 -5.714285714285715,-7.464228571428572 -3.428571428571429,0 z" style="fill: black; stroke-width: 1px; stroke: black;"></path></g><g class="djs-visual" id="Gateway_0tgbhr6" transform="translate(45 1325)"><polygon points="25,0 50,25 25,50 0,25" style="stroke: black; stroke-width: 2px; fill: white; fill-opacity: 0.95;"></polygon><path d="m 16,15 7.42857142857143,9.714285714285715 -7.42857142857143,9.714285714285715 3.428571428571429,0 5.714285714285715,-7.464228571428572 5.714285714285715,7.464228571428572 3.428571428571429,0 -7.42857142857143,-9.714285714285715 7.42857142857143,-9.714285714285715 -3.428571428571429,0 -5.714285714285715,7.464228571428572 -5.714285714285715,-7.464228571428572 -3.428571428571429,0 z" style="fill: black; stroke-width: 1px; stroke: black;"></path></g><g class="djs-visual" id="Activity_0qwf2pq" transform="translate(465 600)"><rect x="0" y="0" width="130" height="100" rx="10" ry="10" style="stroke: black; stroke-width: 2px; fill: white; fill-opacity: 0.95;"></rect><text lineHeight="1.2" class="djs-label" style="font-family: Arial, sans-serif; font-size: 12px; font-weight: normal; fill: black;"><tspan x="16.8076171875" y="46.4">Place request into </tspan><tspan x="26.806640625" y="60.8">manual queue</tspan></text></g><g class="djs-visual" id="Activity_03w8s12" transform="translate(465 760)"><rect x="0" y="0" width="130" height="100" rx="10" ry="10" style="stroke: black; stroke-width: 2px; fill: white; fill-opacity: 0.95;"></rect><text lineHeight="1.2" class="djs-label" style="font-family: Arial, sans-serif; font-size: 12px; font-weight: normal; fill: black;"><tspan x="22.150390625" y="46.4">Perform manual </tspan><tspan x="40.4912109375" y="60.8">matching</tspan></text></g><g class="djs-visual" id="Gateway_12yaevo" transform="translate(505 925)"><polygon points="25,0 50,25 25,50 0,25" style="stroke: black; stroke-width: 2px; fill: white; fill-opacity: 0.95;"></polygon><path d="m 16,15 7.42857142857143,9.714285714285715 -7.42857142857143,9.714285714285715 3.428571428571429,0 5.714285714285715,-7.464228571428572 5.714285714285715,7.464228571428572 3.428571428571429,0 -7.42857142857143,-9.714285714285715 7.42857142857143,-9.714285714285715 -3.428571428571429,0 -5.714285714285715,7.464228571428572 -5.714285714285715,-7.464228571428572 -3.428571428571429,0 z" style="fill: black; stroke-width: 1px; stroke: black;"></path></g><g class="djs-visual" id="Activity_0suz982" transform="translate(465 1030)"><rect x="0" y="0" width="130" height="100" rx="10" ry="10" style="stroke: black; stroke-width: 2px; fill: white; fill-opacity: 0.95;"></rect><text lineHeight="1.2" class="djs-label" style="font-family: Arial, sans-serif; font-size: 12px; font-weight: normal; fill: black;"><tspan x="15.1337890625" y="46.4">Amend and accept </tspan><tspan x="11.2998046875" y="60.8">cancellation request</tspan></text></g><g class="djs-visual" id="Activity_1r8uhf4" transform="translate(465 1200)"><rect x="0" y="0" width="130" height="100" rx="10" ry="10" style="stroke: black; stroke-width: 2px; fill: white; fill-opacity: 0.95;"></rect><text lineHeight="1.2" class="djs-label" style="font-family: Arial, sans-serif; font-size: 12px; font-weight: normal; fill: black;"><tspan x="7.6337890625" y="53.599999999999994">Authorise acceptance</tspan></text></g><g class="djs-visual" id="Activity_0053y80" transform="translate(1045 1350)"><rect x="0" y="0" width="130" height="100" rx="10" ry="10" style="stroke: black; stroke-width: 2px; fill: white; fill-opacity: 0.95;"></rect><text lineHeight="1.2" class="djs-label" style="font-family: Arial, sans-serif; font-size: 12px; font-weight: normal; fill: black;"><tspan x="13.46484375" y="46.4">Generate and send </tspan><tspan x="11.1416015625" y="60.8">message to clearing</tspan></text></g><g class="djs-visual" id="Activity_139p0do" transform="translate(1045 1030)"><rect x="0" y="0" width="130" height="100" rx="10" ry="10" style="stroke: black; stroke-width: 2px; fill: white; fill-opacity: 0.95;"></rect><text lineHeight="1.2" class="djs-label" style="font-family: Arial, sans-serif; font-size: 12px; font-weight: normal; fill: black;"><tspan x="14.4755859375" y="46.4">Reject cancellation </tspan><tspan x="44.654296875" y="60.8">request</tspan></text></g><g class="djs-visual" id="Activity_1pkjudd" transform="translate(1045 1200)"><rect x="0" y="0" width="130" height="100" rx="10" ry="10" style="stroke: black; stroke-width: 2px; fill: white; fill-opacity: 0.95;"></rect><text lineHeight="1.2" class="djs-label" style="font-family: Arial, sans-serif; font-size: 12px; font-weight: normal; fill: black;"><tspan x="15.6435546875" y="53.599999999999994">Authorise rejection</tspan></text></g><g class="djs-visual" id="DataObjectReference_038wek8" transform="translate(1212 1375)"><path d="m 0,0 28.23529411764706,0 7.058823529411765,8.196721311475411 0,40.98360655737705 -35.294117647058826,0 0,-49.18032786885246 28.23529411764706,0 0,8.196721311475411 7.058823529411765,0" style="fill: white; stroke-width: 2px; stroke: black; fill-opacity: 0.95;"></path></g><g class="djs-visual" id="DataObjectReference_038wek8_label" transform="translate(1207 1432)"><text lineHeight="1.2" class="djs-label" style="font-family: Arial, sans-serif; font-size: 11px; font-weight: normal; fill: black;"><tspan x="0" y="9.899999999999999">camt.029</tspan></text></g><g class="djs-visual" id="Activity_19hqpo3" transform="translate(5 1420)"><rect x="0" y="0" width="130" height="100" rx="10" ry="10" style="stroke: black; stroke-width: 2px; fill: white; fill-opacity: 0.95;"></rect><text lineHeight="1.2" class="djs-label" style="font-family: Arial, sans-serif; font-size: 12px; font-weight: normal; fill: black;"><tspan x="27.15234375" y="46.4">Create Return </tspan><tspan x="40.9892578125" y="60.8">Payment</tspan></text></g><g class="djs-visual" id="Gateway_01ufl9z" transform="translate(45 1595)"><polygon points="25,0 50,25 25,50 0,25" style="stroke: black; stroke-width: 2px; fill: white; fill-opacity: 0.95;"></polygon><path d="m 16,15 7.42857142857143,9.714285714285715 -7.42857142857143,9.714285714285715 3.428571428571429,0 5.714285714285715,-7.464228571428572 5.714285714285715,7.464228571428572 3.428571428571429,0 -7.42857142857143,-9.714285714285715 7.42857142857143,-9.714285714285715 -3.428571428571429,0 -5.714285714285715,7.464228571428572 -5.714285714285715,-7.464228571428572 -3.428571428571429,0 z" style="fill: black; stroke-width: 1px; stroke: black;"></path></g><g class="djs-visual" id="Activity_01xa0sk" transform="translate(5 1720)"><rect x="0" y="0" width="130" height="100" rx="10" ry="10" style="stroke: black; stroke-width: 2px; fill: white; fill-opacity: 0.95;"></rect><text lineHeight="1.2" class="djs-label" style="font-family: Arial, sans-serif; font-size: 12px; font-weight: normal; fill: black;"><tspan x="13.640625" y="53.599999999999994">Perform validations</tspan></text></g><g class="djs-visual" id="Gateway_02vjcz8" transform="translate(45 1895)"><polygon points="25,0 50,25 25,50 0,25" style="stroke: black; stroke-width: 2px; fill: white; fill-opacity: 0.95;"></polygon><path d="m 16,15 7.42857142857143,9.714285714285715 -7.42857142857143,9.714285714285715 3.428571428571429,0 5.714285714285715,-7.464228571428572 5.714285714285715,7.464228571428572 3.428571428571429,0 -7.42857142857143,-9.714285714285715 7.42857142857143,-9.714285714285715 -3.428571428571429,0 -5.714285714285715,7.464228571428572 -5.714285714285715,-7.464228571428572 -3.428571428571429,0 z" style="fill: black; stroke-width: 1px; stroke: black;"></path></g><g class="djs-visual" id="Activity_1daxodl" transform="translate(5 2010)"><rect x="0" y="0" width="130" height="100" rx="10" ry="10" style="stroke: black; stroke-width: 2px; fill: white; fill-opacity: 0.95;"></rect><text lineHeight="1.2" class="djs-label" style="font-family: Arial, sans-serif; font-size: 12px; font-weight: normal; fill: black;"><tspan x="9.1318359375" y="46.4">Generate accounting </tspan><tspan x="46.984375" y="60.8">entries</tspan></text></g><g class="djs-visual" id="Activity_142m3tg" transform="translate(5 2180)"><rect x="0" y="0" width="130" height="100" rx="10" ry="10" style="stroke: black; stroke-width: 2px; fill: white; fill-opacity: 0.95;"></rect><text lineHeight="1.2" class="djs-label" style="font-family: Arial, sans-serif; font-size: 12px; font-weight: normal; fill: black;"><tspan x="10.3037109375" y="53.599999999999994">Generate settlement</tspan></text></g><g class="djs-visual" id="Activity_1bxnrhp" transform="translate(5 2340)"><rect x="0" y="0" width="130" height="100" rx="10" ry="10" style="stroke: black; stroke-width: 2px; fill: white; fill-opacity: 0.95;"></rect><text lineHeight="1.2" class="djs-label" style="font-family: Arial, sans-serif; font-size: 12px; font-weight: normal; fill: black;"><tspan x="13.46484375" y="46.4">Generate and send </tspan><tspan x="9.80859375" y="60.8">message to Clearing</tspan></text></g><g class="djs-visual" id="Activity_1g81n9d" transform="translate(495 2010)"><rect x="0" y="0" width="130" height="100" rx="10" ry="10" style="stroke: black; stroke-width: 2px; fill: white; fill-opacity: 0.95;"></rect><text lineHeight="1.2" class="djs-label" style="font-family: Arial, sans-serif; font-size: 12px; font-weight: normal; fill: black;"><tspan x="12.474609375" y="46.4">Place transaction in </tspan><tspan x="31.1455078125" y="60.8">repair queue</tspan></text></g><g class="djs-visual" id="DataObjectReference_1ofu2bi" transform="translate(182 2365)"><path d="m 0,0 28.23529411764706,0 7.058823529411765,8.196721311475411 0,40.98360655737705 -35.294117647058826,0 0,-49.18032786885246 28.23529411764706,0 0,8.196721311475411 7.058823529411765,0" style="fill: white; stroke-width: 2px; stroke: black; fill-opacity: 0.95;"></path></g><g class="djs-visual" id="DataObjectReference_1ofu2bi_label" transform="translate(178 2422)"><text lineHeight="1.2" class="djs-label" style="font-family: Arial, sans-serif; font-size: 11px; font-weight: normal; fill: black;"><tspan x="0" y="9.899999999999999">pacs.004</tspan></text></g><g class="djs-visual" id="Activity_0wqnvdw" transform="translate(495 2180)"><rect x="0" y="0" width="130" height="100" rx="10" ry="10" style="stroke: black; stroke-width: 2px; fill: white; fill-opacity: 0.95;"></rect><text lineHeight="1.2" class="djs-label" style="font-family: Arial, sans-serif; font-size: 12px; font-weight: normal; fill: black;"><tspan x="12.806640625" y="46.4">Decide to Repair or </tspan><tspan x="47.66015625" y="60.8">Reject</tspan></text></g><g class="djs-visual" id="Gateway_0iwr0wn" transform="translate(535 2335)"><polygon points="25,0 50,25 25,50 0,25" style="stroke: black; stroke-width: 2px; fill: white; fill-opacity: 0.95;"></polygon><path d="m 16,15 7.42857142857143,9.714285714285715 -7.42857142857143,9.714285714285715 3.428571428571429,0 5.714285714285715,-7.464228571428572 5.714285714285715,7.464228571428572 3.428571428571429,0 -7.42857142857143,-9.714285714285715 7.42857142857143,-9.714285714285715 -3.428571428571429,0 -5.714285714285715,7.464228571428572 -5.714285714285715,-7.464228571428572 -3.428571428571429,0 z" style="fill: black; stroke-width: 1px; stroke: black;"></path></g><g class="djs-visual" id="Activity_1ctndfp" transform="translate(495 2450)"><rect x="0" y="0" width="130" height="100" rx="10" ry="10" style="stroke: black; stroke-width: 2px; fill: white; fill-opacity: 0.95;"></rect><text lineHeight="1.2" class="djs-label" style="font-family: Arial, sans-serif; font-size: 12px; font-weight: normal; fill: black;"><tspan x="15.3095703125" y="53.599999999999994">Amend transaction</tspan></text></g><g class="djs-visual" id="Activity_0h9iog0" transform="translate(495 2620)"><rect x="0" y="0" width="130" height="100" rx="10" ry="10" style="stroke: black; stroke-width: 2px; fill: white; fill-opacity: 0.95;"></rect><text lineHeight="1.2" class="djs-label" style="font-family: Arial, sans-serif; font-size: 12px; font-weight: normal; fill: black;"><tspan x="6.4677734375" y="53.599999999999994">Authorise amendment</tspan></text></g><g class="djs-visual" id="Activity_0qktpcz" transform="translate(495 2780)"><rect x="0" y="0" width="130" height="100" rx="10" ry="10" style="stroke: black; stroke-width: 2px; fill: white; fill-opacity: 0.95;"></rect><text lineHeight="1.2" class="djs-label" style="font-family: Arial, sans-serif; font-size: 12px; font-weight: normal; fill: black;"><tspan x="14.47265625" y="46.4">Update transaction </tspan><tspan x="47.65625" y="60.8">details</tspan></text></g><g class="djs-visual" id="Activity_19492rm" transform="translate(755 2790)"><rect x="0" y="0" width="130" height="100" rx="10" ry="10" style="stroke: black; stroke-width: 2px; fill: white; fill-opacity: 0.95;"></rect><text lineHeight="1.2" class="djs-label" style="font-family: Arial, sans-serif; font-size: 12px; font-weight: normal; fill: black;"><tspan x="16.8134765625" y="53.599999999999994">Reject transaction</tspan></text></g><g class="djs-visual" id="Activity_1rz5sd6" transform="translate(755 2450)"><rect x="0" y="0" width="130" height="100" rx="10" ry="10" style="stroke: black; stroke-width: 2px; fill: white; fill-opacity: 0.95;"></rect><text lineHeight="1.2" class="djs-label" style="font-family: Arial, sans-serif; font-size: 12px; font-weight: normal; fill: black;"><tspan x="16.8134765625" y="53.599999999999994">Reject transaction</tspan></text></g><g class="djs-visual" id="Activity_048v1bd" transform="translate(755 2620)"><rect x="0" y="0" width="130" height="100" rx="10" ry="10" style="stroke: black; stroke-width: 2px; fill: white; fill-opacity: 0.95;"></rect><text lineHeight="1.2" class="djs-label" style="font-family: Arial, sans-serif; font-size: 12px; font-weight: normal; fill: black;"><tspan x="15.6435546875" y="53.599999999999994">Authorise rejection</tspan></text></g><g class="djs-visual" id="Activity_1v64bfb" transform="translate(755 2960)"><rect x="0" y="0" width="130" height="100" rx="10" ry="10" style="stroke: black; stroke-width: 2px; fill: white; fill-opacity: 0.95;"></rect><text lineHeight="1.2" class="djs-label" style="font-family: Arial, sans-serif; font-size: 12px; font-weight: normal; fill: black;"><tspan x="20.6396484375" y="46.4">Update payment </tspan><tspan x="48.9921875" y="60.8">status</tspan></text></g><g class="djs-visual" id="Activity_0uhsqxk" transform="translate(755 3120)"><rect x="0" y="0" width="130" height="100" rx="10" ry="10" style="stroke: black; stroke-width: 2px; fill: white; fill-opacity: 0.95;"></rect><text lineHeight="1.2" class="djs-label" style="font-family: Arial, sans-serif; font-size: 12px; font-weight: normal; fill: black;"><tspan x="13.46484375" y="46.4">Generate and send </tspan><tspan x="11.1416015625" y="60.8">message to clearing</tspan></text></g><g class="djs-visual" id="DataObjectReference_1x45d15" transform="translate(922 3145)"><path d="m 0,0 28.23529411764706,0 7.058823529411765,8.196721311475411 0,40.98360655737705 -35.294117647058826,0 0,-49.18032786885246 28.23529411764706,0 0,8.196721311475411 7.058823529411765,0" style="fill: white; stroke-width: 2px; stroke: black; fill-opacity: 0.95;"></path></g><g class="djs-visual" id="DataObjectReference_1x45d15_label" transform="translate(917 3202)"><text lineHeight="1.2" class="djs-label" style="font-family: Arial, sans-serif; font-size: 11px; font-weight: normal; fill: black;"><tspan x="0" y="9.899999999999999">camt.029</tspan></text></g><g class="djs-visual" id="Activity_1k0u3gz" transform="translate(5 2530)"><rect x="0" y="0" width="130" height="100" rx="10" ry="10" style="stroke: black; stroke-width: 5px; fill: white; fill-opacity: 0.95;"></rect><text lineHeight="1.2" class="djs-label" style="font-family: Arial, sans-serif; font-size: 12px; font-weight: normal; fill: black;"><tspan x="17.4873046875" y="46.4">Perform Message </tspan><tspan x="21.421875" y="60.8">Validation (PBA)</tspan></text><rect x="0" y="0" width="14" height="14" rx="0" ry="0" style="stroke: black; stroke-width: 1px; fill: white;" transform="matrix(1 0 0 1 57.5 80)"></rect><path d="m57.5,80 m 7,2 l 0,10 m -5,-5 l 10,0" data-marker="sub-process" style="fill: white; stroke-width: 2px; stroke: black;"></path></g><g class="djs-visual" id="Gateway_1uuslb2" transform="translate(45 2665)"><polygon points="25,0 50,25 25,50 0,25" style="stroke: black; stroke-width: 2px; fill: white; fill-opacity: 0.95;"></polygon><path d="m 16,15 7.42857142857143,9.714285714285715 -7.42857142857143,9.714285714285715 3.428571428571429,0 5.714285714285715,-7.464228571428572 5.714285714285715,7.464228571428572 3.428571428571429,0 -7.42857142857143,-9.714285714285715 7.42857142857143,-9.714285714285715 -3.428571428571429,0 -5.714285714285715,7.464228571428572 -5.714285714285715,-7.464228571428572 -3.428571428571429,0 z" style="fill: black; stroke-width: 1px; stroke: black;"></path></g><g class="djs-visual" id="Event_0f1m02o" transform="translate(52 2752)"><circle cx="18" cy="18" r="18" style="stroke: black; stroke-width: 4px; fill: white; fill-opacity: 0.95;"></circle></g><g class="djs-visual" id="Event_0f1m02o_label" transform="translate(23 2795)"><text lineHeight="1.2" class="djs-label" style="font-family: Arial, sans-serif; font-size: 11px; font-weight: normal; fill: black;"><tspan x="0" y="9.899999999999999">Message validation </tspan><tspan x="22.015625" y="23.099999999999998">performed </tspan><tspan x="17.1875" y="36.3">successfully</tspan></text></g><g class="djs-visual" id="Event_0n03gtb" transform="translate(182 2752)"><circle cx="18" cy="18" r="18" style="stroke: black; stroke-width: 4px; fill: white; fill-opacity: 0.95;"></circle></g><g class="djs-visual" id="Event_0n03gtb_label" transform="translate(172 2795)"><text lineHeight="1.2" class="djs-label" style="font-family: Arial, sans-serif; font-size: 11px; font-weight: normal; fill: black;"><tspan x="0" y="9.899999999999999">Transaction </tspan><tspan x="6.6328125" y="23.099999999999998">reversed</tspan></text></g><g class="djs-visual" id="Activity_0c7p99j" transform="translate(755 3380)"><rect x="0" y="0" width="130" height="100" rx="10" ry="10" style="stroke: black; stroke-width: 5px; fill: white; fill-opacity: 0.95;"></rect><text lineHeight="1.2" class="djs-label" style="font-family: Arial, sans-serif; font-size: 12px; font-weight: normal; fill: black;"><tspan x="17.4873046875" y="46.4">Perform Message </tspan><tspan x="21.421875" y="60.8">Validation (PBA)</tspan></text><rect x="0" y="0" width="14" height="14" rx="0" ry="0" style="stroke: black; stroke-width: 1px; fill: white;" transform="matrix(1 0 0 1 57.5 80)"></rect><path d="m57.5,80 m 7,2 l 0,10 m -5,-5 l 10,0" data-marker="sub-process" style="fill: white; stroke-width: 2px; stroke: black;"></path></g><g class="djs-visual" id="Gateway_1s7x3ly" transform="translate(795 3515)"><polygon points="25,0 50,25 25,50 0,25" style="stroke: black; stroke-width: 2px; fill: white; fill-opacity: 0.95;"></polygon><path d="m 16,15 7.42857142857143,9.714285714285715 -7.42857142857143,9.714285714285715 3.428571428571429,0 5.714285714285715,-7.464228571428572 5.714285714285715,7.464228571428572 3.428571428571429,0 -7.42857142857143,-9.714285714285715 7.42857142857143,-9.714285714285715 -3.428571428571429,0 -5.714285714285715,7.464228571428572 -5.714285714285715,-7.464228571428572 -3.428571428571429,0 z" style="fill: black; stroke-width: 1px; stroke: black;"></path></g><g class="djs-visual" id="Event_0ihoexh" transform="translate(802 3602)"><circle cx="18" cy="18" r="18" style="stroke: black; stroke-width: 4px; fill: white; fill-opacity: 0.95;"></circle></g><g class="djs-visual" id="Event_0ihoexh_label" transform="translate(773 3645)"><text lineHeight="1.2" class="djs-label" style="font-family: Arial, sans-serif; font-size: 11px; font-weight: normal; fill: black;"><tspan x="0" y="9.899999999999999">Message validation </tspan><tspan x="22.015625" y="23.099999999999998">performed </tspan><tspan x="17.1875" y="36.3">successfully</tspan></text></g><g class="djs-visual" id="Event_0daqfrx" transform="translate(932 3602)"><circle cx="18" cy="18" r="18" style="stroke: black; stroke-width: 4px; fill: white; fill-opacity: 0.95;"></circle></g><g class="djs-visual" id="Event_0daqfrx_label" transform="translate(922 3645)"><text lineHeight="1.2" class="djs-label" style="font-family: Arial, sans-serif; font-size: 11px; font-weight: normal; fill: black;"><tspan x="0" y="9.899999999999999">Transaction </tspan><tspan x="6.6328125" y="23.099999999999998">reversed</tspan></text></g><g class="djs-visual" id="Gateway_0vmk15m" transform="translate(795 3255)"><polygon points="25,0 50,25 25,50 0,25" style="stroke: black; stroke-width: 2px; fill: white; fill-opacity: 0.95;"></polygon><path d="m 16,15 7.42857142857143,9.714285714285715 -7.42857142857143,9.714285714285715 3.428571428571429,0 5.714285714285715,-7.464228571428572 5.714285714285715,7.464228571428572 3.428571428571429,0 -7.42857142857143,-9.714285714285715 7.42857142857143,-9.714285714285715 -3.428571428571429,0 -5.714285714285715,7.464228571428572 -5.714285714285715,-7.464228571428572 -3.428571428571429,0 z" style="fill: black; stroke-width: 1px; stroke: black;"></path></g><g class="djs-visual" id="TextAnnotation_1z00y2n" transform="translate(185 130)"><rect x="0" y="0" width="190" height="30" rx="0" ry="0" style="stroke: none; stroke-width: 2px; fill: none;"></rect><path d="m 0, 0 m 10,0 l -10,0 l 0,30 l 10,0" style="fill: none; stroke-width: 2px; stroke: black;"></path><text lineHeight="1.2" class="djs-label" style="font-family: Arial, sans-serif; font-size: 12px; font-weight: normal; fill: black;"><tspan x="5" y="15.799999999999999">Process indicator updated</tspan></text></g><g class="djs-visual" id="TextAnnotation_0j7du89" transform="translate(620 1000)"><rect x="0" y="0" width="140" height="40" rx="0" ry="0" style="stroke: none; stroke-width: 2px; fill: none;"></rect><path d="m 0, 0 m 10,0 l -10,0 l 0,40 l 10,0" style="fill: none; stroke-width: 2px; stroke: black;"></path><text lineHeight="1.2" class="djs-label" style="font-family: Arial, sans-serif; font-size: 12px; font-weight: normal; fill: black;"><tspan x="5" y="15.799999999999999">Update original </tspan><tspan x="5" y="30.199999999999996">transaction reference</tspan></text></g><g class="djs-visual" id="TextAnnotation_073zq5y" transform="translate(170 1660)"><rect x="0" y="0" width="220" height="99" rx="0" ry="0" style="stroke: none; stroke-width: 2px; fill: none;"></rect><path d="m 0, 0 m 10,0 l -10,0 l 0,99 l 10,0" style="fill: none; stroke-width: 2px; stroke: black;"></path><text lineHeight="1.2" class="djs-label" style="font-family: Arial, sans-serif; font-size: 12px; font-weight: normal; fill: black;"><tspan x="5" y="15.799999999999999">- Product determination</tspan><tspan x="5" y="30.199999999999996">- Bank Conditions (e.g. value date)</tspan><tspan x="5" y="44.599999999999994">- Direction</tspan><tspan x="5" y="58.99999999999999">- Routing and Settlement</tspan><tspan x="5" y="73.39999999999999">- Dates calculation</tspan><tspan x="5" y="87.79999999999998">- Duplicate Check</tspan></text></g><g class="djs-visual" id="TextAnnotation_151ajdi" transform="translate(170 1990)"><rect x="0" y="0" width="165" height="50" rx="0" ry="0" style="stroke: none; stroke-width: 2px; fill: none;"></rect><path d="m 0, 0 m 10,0 l -10,0 l 0,50 l 10,0" style="fill: none; stroke-width: 2px; stroke: black;"></path><text lineHeight="1.2" class="djs-label" style="font-family: Arial, sans-serif; font-size: 12px; font-weight: normal; fill: black;"><tspan x="5" y="15.799999999999999">Dr Customer account</tspan><tspan x="5" y="30.199999999999996">Cr Return suspense account</tspan></text></g><g class="djs-visual" id="TextAnnotation_0540igt" transform="translate(170 2150)"><rect x="0" y="0" width="165" height="50" rx="0" ry="0" style="stroke: none; stroke-width: 2px; fill: none;"></rect><path d="m 0, 0 m 10,0 l -10,0 l 0,50 l 10,0" style="fill: none; stroke-width: 2px; stroke: black;"></path><text lineHeight="1.2" class="djs-label" style="font-family: Arial, sans-serif; font-size: 12px; font-weight: normal; fill: black;"><tspan x="5" y="15.799999999999999">Dr Return suspense account </tspan><tspan x="5" y="30.199999999999996">Cr Clearing nostro account</tspan></text></g><g class="djs-visual" id="TextAnnotation_1lzj0v9" transform="translate(910 2920)"><rect x="0" y="0" width="100" height="41" rx="0" ry="0" style="stroke: none; stroke-width: 2px; fill: none;"></rect><path d="m 0, 0 m 10,0 l -10,0 l 0,41 l 10,0" style="fill: none; stroke-width: 2px; stroke: black;"></path><text lineHeight="1.2" class="djs-label" style="font-family: Arial, sans-serif; font-size: 12px; font-weight: normal; fill: black;"><tspan x="5" y="15.799999999999999">Update status </tspan><tspan x="5" y="30.199999999999996">as Cancelled</tspan></text></g><g class="djs-visual" id="TextAnnotation_1rk7un0" transform="translate(130 30)"><rect x="0" y="0" width="68" height="41" rx="0" ry="0" style="stroke: none; stroke-width: 2px; fill: none;"></rect><path d="m 0, 0 m 10,0 l -10,0 l 0,41 l 10,0" style="fill: none; stroke-width: 2px; stroke: black;"></path><text lineHeight="1.2" class="djs-label" style="font-family: Arial, sans-serif; font-size: 12px; font-weight: normal; fill: black;"><tspan x="5" y="15.799999999999999">Receipt of</tspan><tspan x="5" y="30.199999999999996">camt.056</tspan></text></g><g class="djs-visual" id="Flow_02snp9f_label" transform="translate(92 536)"><text lineHeight="1.2" class="djs-label" style="font-family: Arial, sans-serif; font-size: 11px; font-weight: normal; fill: black;"><tspan x="0" y="9.899999999999999">Original transaction</tspan><tspan x="26.2890625" y="23.099999999999998">matched</tspan></text></g><g class="djs-visual" id="Flow_1ojph0j_label" transform="translate(543 536)"><text lineHeight="1.2" class="djs-label" style="font-family: Arial, sans-serif; font-size: 11px; font-weight: normal; fill: black;"><tspan x="0" y="9.899999999999999">Original transaction </tspan><tspan x="17.1171875" y="23.099999999999998">not matched</tspan></text></g><g class="djs-visual" id="DataOutputAssociation_09p1vhk" transform="translate(0 0)"><polyline points="1175,1400 1212,1400 " style="fill: none; stroke: black; stroke-width: 2px; stroke-dasharray: 0.5, 5; stroke-linecap: round; stroke-linejoin: round; marker-end: url(&quot;#association-end-white-black-6ni600axan42hwxmjbpxnrp48&quot;);"></polyline></g><g class="djs-visual" id="Flow_1175qy2_label" transform="translate(550 980)"><text lineHeight="1.2" class="djs-label" style="font-family: Arial, sans-serif; font-size: 11px; font-weight: normal; fill: black;"><tspan x="0" y="9.899999999999999">Matching successful</tspan></text></g><g class="djs-visual" id="Flow_0u6nsbm_label" transform="translate(1118 980)"><text lineHeight="1.2" class="djs-label" style="font-family: Arial, sans-serif; font-size: 11px; font-weight: normal; fill: black;"><tspan x="0" y="9.899999999999999">Matching not </tspan><tspan x="6.008056640625" y="23.099999999999998">successful</tspan></text></g><g class="djs-visual" id="Flow_0s8ws1k_label" transform="translate(83 1957)"><text lineHeight="1.2" class="djs-label" style="font-family: Arial, sans-serif; font-size: 11px; font-weight: normal; fill: black;"><tspan x="0" y="9.899999999999999">Validation passed</tspan></text></g><g class="djs-visual" id="DataOutputAssociation_1bvdvmg" transform="translate(0 0)"><polyline points="135,2390 182,2390 " style="fill: none; stroke: black; stroke-width: 2px; stroke-dasharray: 0.5, 5; stroke-linecap: round; stroke-linejoin: round; marker-end: url(&quot;#association-end-white-black-6ni600axan42hwxmjbpxnrp48&quot;);"></polyline></g><g class="djs-visual" id="Flow_0lkbmuy_label" transform="translate(575 1957)"><text lineHeight="1.2" class="djs-label" style="font-family: Arial, sans-serif; font-size: 11px; font-weight: normal; fill: black;"><tspan x="0" y="9.899999999999999">Validation failed</tspan></text></g><g class="djs-visual" id="Flow_0qiy6bg_label" transform="translate(571 2396)"><text lineHeight="1.2" class="djs-label" style="font-family: Arial, sans-serif; font-size: 11px; font-weight: normal; fill: black;"><tspan x="0" y="9.899999999999999">Transaction to be </tspan><tspan x="21.6171875" y="23.099999999999998">repaired</tspan></text></g><g class="djs-visual" id="Flow_0i278u6_label" transform="translate(838 2396)"><text lineHeight="1.2" class="djs-label" style="font-family: Arial, sans-serif; font-size: 11px; font-weight: normal; fill: black;"><tspan x="0" y="9.899999999999999">Transaction to be </tspan><tspan x="22.2265625" y="23.099999999999998">rejected</tspan></text></g><g class="djs-visual" id="DataOutputAssociation_0yfc6ab" transform="translate(0 0)"><polyline points="885,3170 922,3170 " style="fill: none; stroke: black; stroke-width: 2px; stroke-dasharray: 0.5, 5; stroke-linecap: round; stroke-linejoin: round; marker-end: url(&quot;#association-end-white-black-6ni600axan42hwxmjbpxnrp48&quot;);"></polyline></g><g class="djs-visual" id="Flow_1cpkl7f_label" transform="translate(92 2470)"><text lineHeight="1.2" class="djs-label" style="font-family: Arial, sans-serif; font-size: 11px; font-weight: normal; fill: black;"><tspan x="0" y="9.899999999999999">Message validation </tspan><tspan x="8.7578125" y="23.099999999999998">to be performed</tspan></text></g><g class="djs-visual" id="Flow_1erztkq_label" transform="translate(842 3320)"><text lineHeight="1.2" class="djs-label" style="font-family: Arial, sans-serif; font-size: 11px; font-weight: normal; fill: black;"><tspan x="0" y="9.899999999999999">Message validation </tspan><tspan x="8.7578125" y="23.099999999999998">to be performed</tspan></text></g><g class="djs-visual" id="Association_09nmyjf" transform="translate(0 0)"><polyline points="135,173 185,145 " style="fill: none; stroke: black; stroke-width: 2px; stroke-dasharray: 0.5, 5; stroke-linecap: round; stroke-linejoin: round;"></polyline></g><g class="djs-visual" id="Association_1oti0oz" transform="translate(0 0)"><polyline points="594,1036 620,1018 " style="fill: none; stroke: black; stroke-width: 2px; stroke-dasharray: 0.5, 5; stroke-linecap: round; stroke-linejoin: round;"></polyline></g><g class="djs-visual" id="Association_19vnakx" transform="translate(0 0)"><polyline points="135,1730 170,1708 " style="fill: none; stroke: black; stroke-width: 2px; stroke-dasharray: 0.5, 5; stroke-linecap: round; stroke-linejoin: round;"></polyline></g><g class="djs-visual" id="Association_1qkd6nu" transform="translate(0 0)"><polyline points="135,2030 170,2015 " style="fill: none; stroke: black; stroke-width: 2px; stroke-dasharray: 0.5, 5; stroke-linecap: round; stroke-linejoin: round;"></polyline></g><g class="djs-visual" id="Association_04iz5su" transform="translate(0 0)"><polyline points="135,2192 170,2172 " style="fill: none; stroke: black; stroke-width: 2px; stroke-dasharray: 0.5, 5; stroke-linecap: round; stroke-linejoin: round;"></polyline></g><g class="djs-visual" id="Association_0p5kqpo" transform="translate(0 0)"><polyline points="883,2964 910,2944 " style="fill: none; stroke: black; stroke-width: 2px; stroke-dasharray: 0.5, 5; stroke-linecap: round; stroke-linejoin: round;"></polyline></g><g class="djs-visual" id="Association_0vbt9i0" transform="translate(0 0)"><polyline points="87,63 130,45 " style="fill: none; stroke: black; stroke-width: 2px; stroke-dasharray: 0.5, 5; stroke-linecap: round; stroke-linejoin: round;"></polyline></g></g><g><rect class="viewport" x="-4286.960674157303" y="-16.005617977528093" width="9747.191011235955" height="3707.865168539326"></rect></g></svg>