<svg width="100%" height="100%" viewBox="-50, -164, 1835, 760"><g><g class="djs-visual" id="Flow_1uc11dc" transform="translate(0 0)"><path d="m  295,350L410,350 L410,442 " style="fill: none; stroke-width: 2px; stroke: black; stroke-linejoin: round; marker-end: url(&quot;#sequenceflow-end-white-black-3kj9oadz9c3o72tpoi35ne1y5&quot;);"></path></g><g class="djs-visual" id="Flow_0fqo2kf" transform="translate(0 0)"><path d="m  270,375L270,442 " style="fill: none; stroke-width: 2px; stroke: black; stroke-linejoin: round; marker-end: url(&quot;#sequenceflow-end-white-black-3kj9oadz9c3o72tpoi35ne1y5&quot;);"></path></g><g class="djs-visual" id="Flow_1a4k8rb" transform="translate(0 0)"><path d="m  270,250L270,325 " style="fill: none; stroke-width: 2px; stroke: black; stroke-linejoin: round; marker-end: url(&quot;#sequenceflow-end-white-black-3kj9oadz9c3o72tpoi35ne1y5&quot;);"></path></g><g class="djs-visual" id="Flow_0qblbfq" transform="translate(0 0)"><path d="m  270,95L270,150 " style="fill: none; stroke-width: 2px; stroke: black; stroke-linejoin: round; marker-end: url(&quot;#sequenceflow-end-white-black-3kj9oadz9c3o72tpoi35ne1y5&quot;);"></path></g><g class="djs-visual" id="Flow_0x4a9gq" transform="translate(0 0)"><path d="m  581,-22L581,70 L295,70 " style="fill: none; stroke-width: 2px; stroke: black; stroke-linejoin: round; marker-end: url(&quot;#sequenceflow-end-white-black-3kj9oadz9c3o72tpoi35ne1y5&quot;);"></path></g><g class="djs-visual" id="Flow_0iz6n8g" transform="translate(0 0)"><path d="m  470,-22L470,70 L295,70 " style="fill: none; stroke-width: 2px; stroke: black; stroke-linejoin: round; marker-end: url(&quot;#sequenceflow-end-white-black-3kj9oadz9c3o72tpoi35ne1y5&quot;);"></path></g><g class="djs-visual" id="Flow_1ozeyau" transform="translate(0 0)"><path d="m  350,-22L350,70 L295,70 " style="fill: none; stroke-width: 2px; stroke: black; stroke-linejoin: round; marker-end: url(&quot;#sequenceflow-end-white-black-3kj9oadz9c3o72tpoi35ne1y5&quot;);"></path></g><g class="djs-visual" id="Flow_1g9czaq" transform="translate(0 0)"><path d="m  190,-22L190,70 L245,70 " style="fill: none; stroke-width: 2px; stroke: black; stroke-linejoin: round; marker-end: url(&quot;#sequenceflow-end-white-black-3kj9oadz9c3o72tpoi35ne1y5&quot;);"></path></g><g class="djs-visual" id="StartEvent_1bm324f" transform="translate(172 -58)"><circle cx="18" cy="18" r="18" style="stroke: black; stroke-width: 2px; fill: white; fill-opacity: 0.95;"></circle></g><g class="djs-visual" id="StartEvent_1bm324f_label" transform="translate(144 -107)"><text lineHeight="1.2" class="djs-label" style="font-family: Arial, sans-serif; font-size: 11px; font-weight: normal; fill: black;"><tspan x="0" y="9.899999999999999">No payments to be </tspan><tspan x="32.40625" y="23.099999999999998">made</tspan></text></g><g class="djs-visual" id="Event_0x8re8s" transform="translate(332 -58)"><circle cx="18" cy="18" r="18" style="stroke: black; stroke-width: 2px; fill: white; fill-opacity: 0.95;"></circle></g><g class="djs-visual" id="Event_0x8re8s_label" transform="translate(313 -107)"><text lineHeight="1.2" class="djs-label" style="font-family: Arial, sans-serif; font-size: 11px; font-weight: normal; fill: black;"><tspan x="0" y="9.899999999999999">Ijara Sale to be </tspan><tspan x="18.0390625" y="23.099999999999998">initiated</tspan></text></g><g class="djs-visual" id="Event_0mqw9sa" transform="translate(452 -58)"><circle cx="18" cy="18" r="18" style="stroke: black; stroke-width: 2px; fill: white; fill-opacity: 0.95;"></circle></g><g class="djs-visual" id="Event_0mqw9sa_label" transform="translate(434 -108)"><text lineHeight="1.2" class="djs-label" style="font-family: Arial, sans-serif; font-size: 11px; font-weight: normal; fill: black;"><tspan x="0" y="9.899999999999999">Ijara Sale to be </tspan><tspan x="18.0390625" y="23.099999999999998">initiated</tspan></text></g><g class="djs-visual" id="Event_0jem49t" transform="translate(563 -58)"><circle cx="18" cy="18" r="18" style="stroke: black; stroke-width: 2px; fill: white; fill-opacity: 0.95;"></circle></g><g class="djs-visual" id="Event_0jem49t_label" transform="translate(544 -107)"><text lineHeight="1.2" class="djs-label" style="font-family: Arial, sans-serif; font-size: 11px; font-weight: normal; fill: black;"><tspan x="0" y="9.899999999999999">Ijara Sale to be </tspan><tspan x="18.0390625" y="23.099999999999998">initiated</tspan></text></g><g class="djs-visual" id="Gateway_1ns1z07" transform="translate(245 45)"><polygon points="25,0 50,25 25,50 0,25" style="stroke: black; stroke-width: 2px; fill: white; fill-opacity: 0.95;"></polygon><path d="m 16,15 7.42857142857143,9.714285714285715 -7.42857142857143,9.714285714285715 3.428571428571429,0 5.714285714285715,-7.464228571428572 5.714285714285715,7.464228571428572 3.428571428571429,0 -7.42857142857143,-9.714285714285715 7.42857142857143,-9.714285714285715 -3.428571428571429,0 -5.714285714285715,7.464228571428572 -5.714285714285715,-7.464228571428572 -3.428571428571429,0 z" style="fill: black; stroke-width: 1px; stroke: black;"></path></g><g class="djs-visual" id="Activity_158hm1s" transform="translate(205 150)"><rect x="0" y="0" width="130" height="100" rx="10" ry="10" style="stroke: black; stroke-width: 2px; fill: white; fill-opacity: 0.95;"></rect><text lineHeight="1.2" class="djs-label" style="font-family: Arial, sans-serif; font-size: 12px; font-weight: normal; fill: black;"><tspan x="37.8193359375" y="46.4">Decide on </tspan><tspan x="27.6533203125" y="60.8">Disbursement</tspan></text></g><g class="djs-visual" id="DataObjectReference_0ixeifb" transform="translate(92 175)"><path d="m 0,0 28.23529411764706,0 7.058823529411765,8.196721311475411 0,40.98360655737705 -35.294117647058826,0 0,-49.18032786885246 28.23529411764706,0 0,8.196721311475411 7.058823529411765,0" style="fill: white; stroke-width: 2px; stroke: black; fill-opacity: 0.95;"></path></g><g class="djs-visual" id="DataObjectReference_0ixeifb_label" transform="translate(68 232)"><text lineHeight="1.2" class="djs-label" style="font-family: Arial, sans-serif; font-size: 11px; font-weight: normal; fill: black;"><tspan x="0" y="9.899999999999999">Purchase Invoice</tspan></text></g><g class="djs-visual" id="Gateway_01u7whu" transform="translate(245 325)"><polygon points="25,0 50,25 25,50 0,25" style="stroke: black; stroke-width: 2px; fill: white; fill-opacity: 0.95;"></polygon><path d="m 16,15 7.42857142857143,9.714285714285715 -7.42857142857143,9.714285714285715 3.428571428571429,0 5.714285714285715,-7.464228571428572 5.714285714285715,7.464228571428572 3.428571428571429,0 -7.42857142857143,-9.714285714285715 7.42857142857143,-9.714285714285715 -3.428571428571429,0 -5.714285714285715,7.464228571428572 -5.714285714285715,-7.464228571428572 -3.428571428571429,0 z" style="fill: black; stroke-width: 1px; stroke: black;"></path></g><g class="djs-visual" id="Event_0lzjubi" transform="translate(252 442)"><circle cx="18" cy="18" r="18" style="stroke: black; stroke-width: 4px; fill: white; fill-opacity: 0.95;"></circle></g><g class="djs-visual" id="Event_0lzjubi_label" transform="translate(236 485)"><text lineHeight="1.2" class="djs-label" style="font-family: Arial, sans-serif; font-size: 11px; font-weight: normal; fill: black;"><tspan x="16.084228515625" y="9.899999999999999">Manual </tspan><tspan x="0" y="23.099999999999998">Disbursement</tspan></text></g><g class="djs-visual" id="Event_1c6k2d4" transform="translate(392 442)"><circle cx="18" cy="18" r="18" style="stroke: black; stroke-width: 4px; fill: white; fill-opacity: 0.95;"></circle></g><g class="djs-visual" id="Event_1c6k2d4_label" transform="translate(376 485)"><text lineHeight="1.2" class="djs-label" style="font-family: Arial, sans-serif; font-size: 11px; font-weight: normal; fill: black;"><tspan x="8.401123046875" y="9.899999999999999">Scheduled </tspan><tspan x="0" y="23.099999999999998">Disbursement</tspan></text></g><g class="djs-visual" id="DataInputAssociation_011sj1a" transform="translate(0 0)"><polyline points="128,200 205,200 " style="fill: none; stroke: black; stroke-width: 2px; stroke-dasharray: 0.5, 5; stroke-linecap: round; stroke-linejoin: round; marker-end: url(&quot;#association-end-white-black-3kj9oadz9c3o72tpoi35ne1y5&quot;);"></polyline></g></g><g><rect class="viewport" x="-524.5" y="-128" width="1735" height="660"></rect></g></svg>