<svg width="100%" height="100%" viewBox="-50, -143, 1835, 2475"><g><g class="djs-visual" id="Flow_0yomp06" transform="translate(0 0)"><path d="m  200,2135L200,2202 " style="fill: none; stroke-width: 2px; stroke: black; stroke-linejoin: round; marker-end: url(&quot;#sequenceflow-end-white-black-7g6bg4l1dhhdf4uhfg51cd6bm&quot;);"></path></g><g class="djs-visual" id="Flow_1a4esdb" transform="translate(0 0)"><path d="m  870,2060L870,2110 L225,2110 " style="fill: none; stroke-width: 2px; stroke: black; stroke-linejoin: round; marker-end: url(&quot;#sequenceflow-end-white-black-7g6bg4l1dhhdf4uhfg51cd6bm&quot;);"></path></g><g class="djs-visual" id="Flow_14df2wf" transform="translate(0 0)"><path d="m  530,2060L530,2110 L225,2110 " style="fill: none; stroke-width: 2px; stroke: black; stroke-linejoin: round; marker-end: url(&quot;#sequenceflow-end-white-black-7g6bg4l1dhhdf4uhfg51cd6bm&quot;);"></path></g><g class="djs-visual" id="Flow_0nzb36r" transform="translate(0 0)"><path d="m  200,1900L200,2085 " style="fill: none; stroke-width: 2px; stroke: black; stroke-linejoin: round; marker-end: url(&quot;#sequenceflow-end-white-black-7g6bg4l1dhhdf4uhfg51cd6bm&quot;);"></path></g><g class="djs-visual" id="Flow_1y4h10w" transform="translate(0 0)"><path d="m  870,1900L870,1960 " style="fill: none; stroke-width: 2px; stroke: black; stroke-linejoin: round; marker-end: url(&quot;#sequenceflow-end-white-black-7g6bg4l1dhhdf4uhfg51cd6bm&quot;);"></path></g><g class="djs-visual" id="Flow_1fywvrd" transform="translate(0 0)"><path d="m  870,1740L870,1800 " style="fill: none; stroke-width: 2px; stroke: black; stroke-linejoin: round; marker-end: url(&quot;#sequenceflow-end-white-black-7g6bg4l1dhhdf4uhfg51cd6bm&quot;);"></path></g><g class="djs-visual" id="Flow_1ok0cp7" transform="translate(0 0)"><path d="m  225,1530L870,1530 L870,1640 " style="fill: none; stroke-width: 2px; stroke: black; stroke-linejoin: round; marker-end: url(&quot;#sequenceflow-end-white-black-7g6bg4l1dhhdf4uhfg51cd6bm&quot;);"></path></g><g class="djs-visual" id="Flow_1kdg0q8" transform="translate(0 0)"><path d="m  530,1900L530,1960 " style="fill: none; stroke-width: 2px; stroke: black; stroke-linejoin: round; marker-end: url(&quot;#sequenceflow-end-white-black-7g6bg4l1dhhdf4uhfg51cd6bm&quot;);"></path></g><g class="djs-visual" id="Flow_05asapk" transform="translate(0 0)"><path d="m  530,1740L530,1800 " style="fill: none; stroke-width: 2px; stroke: black; stroke-linejoin: round; marker-end: url(&quot;#sequenceflow-end-white-black-7g6bg4l1dhhdf4uhfg51cd6bm&quot;);"></path></g><g class="djs-visual" id="Flow_1lz531q" transform="translate(0 0)"><path d="m  225,1530L530,1530 L530,1640 " style="fill: none; stroke-width: 2px; stroke: black; stroke-linejoin: round; marker-end: url(&quot;#sequenceflow-end-white-black-7g6bg4l1dhhdf4uhfg51cd6bm&quot;);"></path></g><g class="djs-visual" id="Flow_034dcwg" transform="translate(0 0)"><path d="m  200,1740L200,1800 " style="fill: none; stroke-width: 2px; stroke: black; stroke-linejoin: round; marker-end: url(&quot;#sequenceflow-end-white-black-7g6bg4l1dhhdf4uhfg51cd6bm&quot;);"></path></g><g class="djs-visual" id="Flow_03g72uy" transform="translate(0 0)"><path d="m  200,1555L200,1640 " style="fill: none; stroke-width: 2px; stroke: black; stroke-linejoin: round; marker-end: url(&quot;#sequenceflow-end-white-black-7g6bg4l1dhhdf4uhfg51cd6bm&quot;);"></path></g><g class="djs-visual" id="Flow_1sd4qa5" transform="translate(0 0)"><path d="m  200,1450L200,1505 " style="fill: none; stroke-width: 2px; stroke: black; stroke-linejoin: round; marker-end: url(&quot;#sequenceflow-end-white-black-7g6bg4l1dhhdf4uhfg51cd6bm&quot;);"></path></g><g class="djs-visual" id="Flow_15dy27g" transform="translate(0 0)"><path d="m  225,1220L440,1220 L440,1292 " style="fill: none; stroke-width: 2px; stroke: black; stroke-linejoin: round; marker-end: url(&quot;#sequenceflow-end-white-black-7g6bg4l1dhhdf4uhfg51cd6bm&quot;);"></path></g><g class="djs-visual" id="Flow_034p0y9" transform="translate(0 0)"><path d="m  200,1245L200,1350 " style="fill: none; stroke-width: 2px; stroke: black; stroke-linejoin: round; marker-end: url(&quot;#sequenceflow-end-white-black-7g6bg4l1dhhdf4uhfg51cd6bm&quot;);"></path></g><g class="djs-visual" id="Flow_0iq9r6q" transform="translate(0 0)"><path d="m  200,1130L200,1195 " style="fill: none; stroke-width: 2px; stroke: black; stroke-linejoin: round; marker-end: url(&quot;#sequenceflow-end-white-black-7g6bg4l1dhhdf4uhfg51cd6bm&quot;);"></path></g><g class="djs-visual" id="Flow_181geya" transform="translate(0 0)"><path d="m  200,964L200,1030 " style="fill: none; stroke-width: 2px; stroke: black; stroke-linejoin: round; marker-end: url(&quot;#sequenceflow-end-white-black-7g6bg4l1dhhdf4uhfg51cd6bm&quot;);"></path></g><g class="djs-visual" id="Flow_0y09bmh" transform="translate(0 0)"><path d="m  200,790L200,864 " style="fill: none; stroke-width: 2px; stroke: black; stroke-linejoin: round; marker-end: url(&quot;#sequenceflow-end-white-black-7g6bg4l1dhhdf4uhfg51cd6bm&quot;);"></path></g><g class="djs-visual" id="Flow_0qewz2r" transform="translate(0 0)"><path d="m  760,620L760,682 " style="fill: none; stroke-width: 2px; stroke: black; stroke-linejoin: round; marker-end: url(&quot;#sequenceflow-end-white-black-7g6bg4l1dhhdf4uhfg51cd6bm&quot;);"></path></g><g class="djs-visual" id="Flow_0bxguxr" transform="translate(0 0)"><path d="m  225,420L760,420 L760,520 " style="fill: none; stroke-width: 2px; stroke: black; stroke-linejoin: round; marker-end: url(&quot;#sequenceflow-end-white-black-7g6bg4l1dhhdf4uhfg51cd6bm&quot;);"></path></g><g class="djs-visual" id="Flow_0kv2oci" transform="translate(0 0)"><path d="m  200,620L200,690 " style="fill: none; stroke-width: 2px; stroke: black; stroke-linejoin: round; marker-end: url(&quot;#sequenceflow-end-white-black-7g6bg4l1dhhdf4uhfg51cd6bm&quot;);"></path></g><g class="djs-visual" id="Flow_154hkn8" transform="translate(0 0)"><path d="m  200,445L200,520 " style="fill: none; stroke-width: 2px; stroke: black; stroke-linejoin: round; marker-end: url(&quot;#sequenceflow-end-white-black-7g6bg4l1dhhdf4uhfg51cd6bm&quot;);"></path></g><g class="djs-visual" id="Flow_0bvyf9t" transform="translate(0 0)"><path d="m  200,330L200,395 " style="fill: none; stroke-width: 2px; stroke: black; stroke-linejoin: round; marker-end: url(&quot;#sequenceflow-end-white-black-7g6bg4l1dhhdf4uhfg51cd6bm&quot;);"></path></g><g class="djs-visual" id="Flow_1ajzcok" transform="translate(0 0)"><path d="m  200,160L200,230 " style="fill: none; stroke-width: 2px; stroke: black; stroke-linejoin: round; marker-end: url(&quot;#sequenceflow-end-white-black-7g6bg4l1dhhdf4uhfg51cd6bm&quot;);"></path></g><g class="djs-visual" id="Flow_0ybqnow" transform="translate(0 0)"><path d="m  200,-2L200,60 " style="fill: none; stroke-width: 2px; stroke: black; stroke-linejoin: round; marker-end: url(&quot;#sequenceflow-end-white-black-7g6bg4l1dhhdf4uhfg51cd6bm&quot;);"></path></g><g class="djs-visual" id="StartEvent_1bm324f" transform="translate(182 -38)"><circle cx="18" cy="18" r="18" style="stroke: black; stroke-width: 2px; fill: white; fill-opacity: 0.95;"></circle></g><g class="djs-visual" id="StartEvent_1bm324f_label" transform="translate(156 -87)"><text lineHeight="1.2" class="djs-label" style="font-family: Arial, sans-serif; font-size: 11px; font-weight: normal; fill: black;"><tspan x="0.33740234375" y="9.899999999999999">Wakala deposit to </tspan><tspan x="0" y="23.099999999999998">be matured (early </tspan><tspan x="21.794189453125" y="36.3">maturity)</tspan></text></g><g class="djs-visual" id="Activity_0tzzzun" transform="translate(135 60)"><rect x="0" y="0" width="130" height="100" rx="10" ry="10" style="stroke: black; stroke-width: 2px; fill: white; fill-opacity: 0.95;"></rect><text lineHeight="1.2" class="djs-label" style="font-family: Arial, sans-serif; font-size: 12px; font-weight: normal; fill: black;"><tspan x="18.482421875" y="32">Receive &amp; review </tspan><tspan x="31.318359375" y="46.4">request from </tspan><tspan x="15.6484375" y="60.8">Customer for early </tspan><tspan x="45.4951171875" y="75.19999999999999">closure</tspan></text></g><g class="djs-visual" id="DataObjectReference_1heo9l3" transform="translate(52 85)"><path d="m 0,0 28.23529411764706,0 7.058823529411765,8.196721311475411 0,40.98360655737705 -35.294117647058826,0 0,-49.18032786885246 28.23529411764706,0 0,8.196721311475411 7.058823529411765,0" style="fill: white; stroke-width: 2px; stroke: black; fill-opacity: 0.95;"></path></g><g class="djs-visual" id="DataObjectReference_1heo9l3_label" transform="translate(25 142)"><text lineHeight="1.2" class="djs-label" style="font-family: Arial, sans-serif; font-size: 11px; font-weight: normal; fill: black;"><tspan x="0" y="9.899999999999999">Request Letter for </tspan><tspan x="11.677001953125" y="23.099999999999998">Early Closure</tspan></text></g><g class="djs-visual" id="Activity_0k0j87e" transform="translate(135 230)"><rect x="0" y="0" width="130" height="100" rx="10" ry="10" style="stroke: black; stroke-width: 2px; fill: white; fill-opacity: 0.95;"></rect><text lineHeight="1.2" class="djs-label" style="font-family: Arial, sans-serif; font-size: 12px; font-weight: normal; fill: black;"><tspan x="31.9794921875" y="46.4">Authenticate </tspan><tspan x="38.4912109375" y="60.8">Customer</tspan></text></g><g class="djs-visual" id="Gateway_1x3jqs9" transform="translate(175 395)"><polygon points="25,0 50,25 25,50 0,25" style="stroke: black; stroke-width: 2px; fill: white; fill-opacity: 0.95;"></polygon><path d="m 16,15 7.42857142857143,9.714285714285715 -7.42857142857143,9.714285714285715 3.428571428571429,0 5.714285714285715,-7.464228571428572 5.714285714285715,7.464228571428572 3.428571428571429,0 -7.42857142857143,-9.714285714285715 7.42857142857143,-9.714285714285715 -3.428571428571429,0 -5.714285714285715,7.464228571428572 -5.714285714285715,-7.464228571428572 -3.428571428571429,0 z" style="fill: black; stroke-width: 1px; stroke: black;"></path></g><g class="djs-visual" id="Activity_0exelxr" transform="translate(135 520)"><rect x="0" y="0" width="130" height="100" rx="10" ry="10" style="stroke: black; stroke-width: 2px; fill: white; fill-opacity: 0.95;"></rect><text lineHeight="1.2" class="djs-label" style="font-family: Arial, sans-serif; font-size: 12px; font-weight: normal; fill: black;"><tspan x="5.525390625" y="46.4">Select Wakala deposit</tspan><tspan x="28.314453125" y="60.8">to be matured</tspan></text></g><g class="djs-visual" id="Activity_1d88ejp" transform="translate(135 690)"><rect x="0" y="0" width="130" height="100" rx="10" ry="10" style="stroke: black; stroke-width: 2px; fill: white; fill-opacity: 0.95;"></rect><text lineHeight="1.2" class="djs-label" style="font-family: Arial, sans-serif; font-size: 12px; font-weight: normal; fill: black;"><tspan x="15.47265625" y="46.4">Capture details for </tspan><tspan x="37.8251953125" y="60.8">simulation</tspan></text></g><g class="djs-visual" id="Activity_0pkp265" transform="translate(695 520)"><rect x="0" y="0" width="130" height="100" rx="10" ry="10" style="stroke: black; stroke-width: 2px; fill: white; fill-opacity: 0.95;"></rect><text lineHeight="1.2" class="djs-label" style="font-family: Arial, sans-serif; font-size: 12px; font-weight: normal; fill: black;"><tspan x="19.8203125" y="39.2">Inform Customer </tspan><tspan x="13.466796875" y="53.6">about unsuccessful </tspan><tspan x="27.474609375" y="68">authentication</tspan></text></g><g class="djs-visual" id="Event_1wyfwsy" transform="translate(742 682)"><circle cx="18" cy="18" r="18" style="stroke: black; stroke-width: 4px; fill: white; fill-opacity: 0.95;"></circle></g><g class="djs-visual" id="Event_1wyfwsy_label" transform="translate(713 729)"><text lineHeight="1.2" class="djs-label" style="font-family: Arial, sans-serif; font-size: 11px; font-weight: normal; fill: black;"><tspan x="0" y="9.899999999999999">Customer informed </tspan><tspan x="18.328125" y="23.099999999999998">about failed </tspan><tspan x="12.5234375" y="36.3">authentication</tspan></text></g><g class="djs-visual" id="Activity_1sdh5t6" transform="translate(135 864)"><rect x="0" y="0" width="130" height="100" rx="10" ry="10" style="stroke: black; stroke-width: 2px; fill: white; fill-opacity: 0.95;"></rect><text lineHeight="1.2" class="djs-label" style="font-family: Arial, sans-serif; font-size: 12px; font-weight: normal; fill: black;"><tspan x="14.8212890625" y="53.599999999999994">Perform simulation</tspan></text></g><g class="djs-visual" id="Activity_1q1nvb7" transform="translate(135 1030)"><rect x="0" y="0" width="130" height="100" rx="10" ry="10" style="stroke: black; stroke-width: 2px; fill: white; fill-opacity: 0.95;"></rect><text lineHeight="1.2" class="djs-label" style="font-family: Arial, sans-serif; font-size: 12px; font-weight: normal; fill: black;"><tspan x="15.4775390625" y="46.4">Enquire simulation </tspan><tspan x="49.9951171875" y="60.8">result</tspan></text></g><g class="djs-visual" id="Gateway_1g8r02t" transform="translate(175 1195)"><polygon points="25,0 50,25 25,50 0,25" style="stroke: black; stroke-width: 2px; fill: white; fill-opacity: 0.95;"></polygon><path d="m 16,15 7.42857142857143,9.714285714285715 -7.42857142857143,9.714285714285715 3.428571428571429,0 5.714285714285715,-7.464228571428572 5.714285714285715,7.464228571428572 3.428571428571429,0 -7.42857142857143,-9.714285714285715 7.42857142857143,-9.714285714285715 -3.428571428571429,0 -5.714285714285715,7.464228571428572 -5.714285714285715,-7.464228571428572 -3.428571428571429,0 z" style="fill: black; stroke-width: 1px; stroke: black;"></path></g><g class="djs-visual" id="Activity_0qxfj8w" transform="translate(135 1350)"><rect x="0" y="0" width="130" height="100" rx="10" ry="10" style="stroke: black; stroke-width: 2px; fill: white; fill-opacity: 0.95;"></rect><text lineHeight="1.2" class="djs-label" style="font-family: Arial, sans-serif; font-size: 12px; font-weight: normal; fill: black;"><tspan x="17.9208984375" y="46.4">View Redemption </tspan><tspan x="37.318359375" y="60.8">Statement</tspan></text></g><g class="djs-visual" id="Event_1o5oo7g" transform="translate(422 1292)"><circle cx="18" cy="18" r="18" style="stroke: black; stroke-width: 4px; fill: white; fill-opacity: 0.95;"></circle></g><g class="djs-visual" id="Event_1o5oo7g_label" transform="translate(400 1339)"><text lineHeight="1.2" class="djs-label" style="font-family: Arial, sans-serif; font-size: 11px; font-weight: normal; fill: black;"><tspan x="0" y="9.899999999999999">Early withdrawal </tspan><tspan x="8.210205078125" y="23.099999999999998">request to be </tspan><tspan x="21.663330078125" y="36.3">aborted</tspan></text></g><g class="djs-visual" id="Gateway_1tp45gc" transform="translate(175 1505)"><polygon points="25,0 50,25 25,50 0,25" style="stroke: black; stroke-width: 2px; fill: white; fill-opacity: 0.95;"></polygon><path d="m 16,15 7.42857142857143,9.714285714285715 -7.42857142857143,9.714285714285715 3.428571428571429,0 5.714285714285715,-7.464228571428572 5.714285714285715,7.464228571428572 3.428571428571429,0 -7.42857142857143,-9.714285714285715 7.42857142857143,-9.714285714285715 -3.428571428571429,0 -5.714285714285715,7.464228571428572 -5.714285714285715,-7.464228571428572 -3.428571428571429,0 z" style="fill: black; stroke-width: 1px; stroke: black;"></path></g><g class="djs-visual" id="Activity_14hajxv" transform="translate(135 1640)"><rect x="0" y="0" width="130" height="100" rx="10" ry="10" style="stroke: black; stroke-width: 2px; fill: white; fill-opacity: 0.95;"></rect><text lineHeight="1.2" class="djs-label" style="font-family: Arial, sans-serif; font-size: 12px; font-weight: normal; fill: black;"><tspan x="12.97265625" y="46.4">Capture Settlement </tspan><tspan x="43.4873046875" y="60.8">Account</tspan></text></g><g class="djs-visual" id="Activity_0ylfef4" transform="translate(135 1800)"><rect x="0" y="0" width="130" height="100" rx="10" ry="10" style="stroke: black; stroke-width: 2px; fill: white; fill-opacity: 0.95;"></rect><text lineHeight="1.2" class="djs-label" style="font-family: Arial, sans-serif; font-size: 12px; font-weight: normal; fill: black;"><tspan x="9.1318359375" y="46.4">Generate accounting </tspan><tspan x="46.984375" y="60.8">entries</tspan></text></g><g class="djs-visual" id="Activity_1nixnsl" transform="translate(465 1640)"><rect x="0" y="0" width="130" height="100" rx="10" ry="10" style="stroke: black; stroke-width: 2px; fill: white; fill-opacity: 0.95;"></rect><text lineHeight="1.2" class="djs-label" style="font-family: Arial, sans-serif; font-size: 12px; font-weight: normal; fill: black;"><tspan x="33.15234375" y="53.599999999999994">Repay cash</tspan></text></g><g class="djs-visual" id="Activity_10zdxyu" transform="translate(465 1800)"><rect x="0" y="0" width="130" height="100" rx="10" ry="10" style="stroke: black; stroke-width: 2px; fill: white; fill-opacity: 0.95;"></rect><text lineHeight="1.2" class="djs-label" style="font-family: Arial, sans-serif; font-size: 12px; font-weight: normal; fill: black;"><tspan x="25.6484375" y="46.4">Authorise cash </tspan><tspan x="36.3193359375" y="60.8">repayment</tspan></text></g><g class="djs-visual" id="Activity_03e4j7r" transform="translate(465 1960)"><rect x="0" y="0" width="130" height="100" rx="10" ry="10" style="stroke: black; stroke-width: 2px; fill: white; fill-opacity: 0.95;"></rect><text lineHeight="1.2" class="djs-label" style="font-family: Arial, sans-serif; font-size: 12px; font-weight: normal; fill: black;"><tspan x="9.1318359375" y="46.4">Generate accounting </tspan><tspan x="46.984375" y="60.8">entries</tspan></text></g><g class="djs-visual" id="Activity_1ujv56r" transform="translate(805 1640)"><rect x="0" y="0" width="130" height="100" rx="10" ry="10" style="stroke: black; stroke-width: 2px; fill: white; fill-opacity: 0.95;"></rect><text lineHeight="1.2" class="djs-label" style="font-family: Arial, sans-serif; font-size: 12px; font-weight: normal; fill: black;"><tspan x="26.5390625" y="53.599999999999994">Transfer funds</tspan></text></g><g class="djs-visual" id="Activity_11wpfu7" transform="translate(805 1800)"><rect x="0" y="0" width="130" height="100" rx="10" ry="10" style="stroke: black; stroke-width: 2px; fill: white; fill-opacity: 0.95;"></rect><text lineHeight="1.2" class="djs-label" style="font-family: Arial, sans-serif; font-size: 12px; font-weight: normal; fill: black;"><tspan x="23.8046875" y="46.4">Authorise funds </tspan><tspan x="14.8115234375" y="60.8">transfer repayment</tspan></text></g><g class="djs-visual" id="Activity_0enagwe" transform="translate(805 1960)"><rect x="0" y="0" width="130" height="100" rx="10" ry="10" style="stroke: black; stroke-width: 2px; fill: white; fill-opacity: 0.95;"></rect><text lineHeight="1.2" class="djs-label" style="font-family: Arial, sans-serif; font-size: 12px; font-weight: normal; fill: black;"><tspan x="9.1318359375" y="46.4">Generate accounting </tspan><tspan x="46.984375" y="60.8">entries</tspan></text></g><g class="djs-visual" id="Gateway_18a07ub" transform="translate(175 2085)"><polygon points="25,0 50,25 25,50 0,25" style="stroke: black; stroke-width: 2px; fill: white; fill-opacity: 0.95;"></polygon><path d="m 16,15 7.42857142857143,9.714285714285715 -7.42857142857143,9.714285714285715 3.428571428571429,0 5.714285714285715,-7.464228571428572 5.714285714285715,7.464228571428572 3.428571428571429,0 -7.42857142857143,-9.714285714285715 7.42857142857143,-9.714285714285715 -3.428571428571429,0 -5.714285714285715,7.464228571428572 -5.714285714285715,-7.464228571428572 -3.428571428571429,0 z" style="fill: black; stroke-width: 1px; stroke: black;"></path></g><g class="djs-visual" id="Event_00q5w10" transform="translate(182 2202)"><circle cx="18" cy="18" r="18" style="stroke: black; stroke-width: 4px; fill: white; fill-opacity: 0.95;"></circle></g><g class="djs-visual" id="Event_00q5w10_label" transform="translate(153 2249)"><text lineHeight="1.2" class="djs-label" style="font-family: Arial, sans-serif; font-size: 11px; font-weight: normal; fill: black;"><tspan x="13.82763671875" y="9.899999999999999">Early maturity </tspan><tspan x="0" y="23.099999999999998">payment performed</tspan></text></g><g class="djs-visual" id="TextAnnotation_04geioc" transform="translate(330 170)"><rect x="0" y="0" width="135" height="41" rx="0" ry="0" style="stroke: none; stroke-width: 2px; fill: none;"></rect><path d="m 0, 0 m 10,0 l -10,0 l 0,41 l 10,0" style="fill: none; stroke-width: 2px; stroke: black;"></path><text lineHeight="1.2" class="djs-label" style="font-family: Arial, sans-serif; font-size: 12px; font-weight: normal; fill: black;"><tspan x="5" y="15.799999999999999">Incl. Mandates/ </tspan><tspan x="5" y="30.199999999999996">Signatories</tspan></text></g><g class="djs-visual" id="TextAnnotation_1okdgv2" transform="translate(330 610)"><rect x="0" y="0" width="350" height="113" rx="0" ry="0" style="stroke: none; stroke-width: 2px; fill: none;"></rect><path d="m 0, 0 m 10,0 l -10,0 l 0,113 l 10,0" style="fill: none; stroke-width: 2px; stroke: black;"></path><text lineHeight="1.2" class="djs-label" style="font-family: Arial, sans-serif; font-size: 12px; font-weight: normal; fill: black;"><tspan x="5" y="15.799999999999999">Details Captured</tspan><tspan x="5" y="30.199999999999996">- Capture Redemption Date (effective date)</tspan><tspan x="5" y="44.599999999999994">&nbsp; can be a future date also</tspan><tspan x="5" y="58.99999999999999">- Apply Penalty % on ACC profit</tspan><tspan x="5" y="73.39999999999999">&nbsp; (Early maturity penalty calculation)</tspan><tspan x="5" y="87.79999999999998">&nbsp; ID.PRECLOSE.CUSTOMISE&nbsp;can be configured with pre-close</tspan><tspan x="5" y="102.19999999999999">&nbsp; period as Days/ Months to calculate the penalty amount</tspan></text></g><g class="djs-visual" id="TextAnnotation_0o4ksa4" transform="translate(330 1750)"><rect x="0" y="0" width="140" height="40" rx="0" ry="0" style="stroke: none; stroke-width: 2px; fill: none;"></rect><path d="m 0, 0 m 10,0 l -10,0 l 0,40 l 10,0" style="fill: none; stroke-width: 2px; stroke: black;"></path><text lineHeight="1.2" class="djs-label" style="font-family: Arial, sans-serif; font-size: 12px; font-weight: normal; fill: black;"><tspan x="5" y="15.799999999999999">Dr Deposit account</tspan><tspan x="5" y="30.199999999999996">Cr Customer account</tspan></text></g><g class="djs-visual" id="TextAnnotation_0tr12hy" transform="translate(670 1900)"><rect x="0" y="0" width="130" height="40" rx="0" ry="0" style="stroke: none; stroke-width: 2px; fill: none;"></rect><path d="m 0, 0 m 10,0 l -10,0 l 0,40 l 10,0" style="fill: none; stroke-width: 2px; stroke: black;"></path><text lineHeight="1.2" class="djs-label" style="font-family: Arial, sans-serif; font-size: 12px; font-weight: normal; fill: black;"><tspan x="5" y="15.799999999999999">Dr Cash</tspan><tspan x="5" y="30.199999999999996">Cr Customer account</tspan></text></g><g class="djs-visual" id="TextAnnotation_0j4fd1n" transform="translate(1010 1900)"><rect x="0" y="0" width="160" height="41" rx="0" ry="0" style="stroke: none; stroke-width: 2px; fill: none;"></rect><path d="m 0, 0 m 10,0 l -10,0 l 0,41 l 10,0" style="fill: none; stroke-width: 2px; stroke: black;"></path><text lineHeight="1.2" class="djs-label" style="font-family: Arial, sans-serif; font-size: 12px; font-weight: normal; fill: black;"><tspan x="5" y="15.799999999999999">Dr Deposit account</tspan><tspan x="5" y="30.199999999999996">Cr Customer account</tspan></text></g><g class="djs-visual" id="DataInputAssociation_1p1z87f" transform="translate(0 0)"><polyline points="88,110 135,110 " style="fill: none; stroke: black; stroke-width: 2px; stroke-dasharray: 0.5, 5; stroke-linecap: round; stroke-linejoin: round; marker-end: url(&quot;#association-end-white-black-7g6bg4l1dhhdf4uhfg51cd6bm&quot;);"></polyline></g><g class="djs-visual" id="Flow_154hkn8_label" transform="translate(209 461)"><text lineHeight="1.2" class="djs-label" style="font-family: Arial, sans-serif; font-size: 11px; font-weight: normal; fill: black;"><tspan x="8.523193359375" y="9.899999999999999">Customer </tspan><tspan x="0" y="23.099999999999998">authenticated</tspan></text></g><g class="djs-visual" id="Flow_0bxguxr_label" transform="translate(776 456)"><text lineHeight="1.2" class="djs-label" style="font-family: Arial, sans-serif; font-size: 11px; font-weight: normal; fill: black;"><tspan x="0" y="9.899999999999999">Customer not </tspan><tspan x="0.4541015625" y="23.099999999999998">authenticated</tspan></text></g><g class="djs-visual" id="Flow_034p0y9_label" transform="translate(211 1270)"><text lineHeight="1.2" class="djs-label" style="font-family: Arial, sans-serif; font-size: 11px; font-weight: normal; fill: black;"><tspan x="0" y="9.899999999999999">Early withdrawal </tspan><tspan x="8.210205078125" y="23.099999999999998">request to be </tspan><tspan x="23.694580078125" y="36.3">fulfilled</tspan></text></g><g class="djs-visual" id="Flow_03g72uy_label" transform="translate(189 1567)"><text lineHeight="1.2" class="djs-label" style="font-family: Arial, sans-serif; font-size: 11px; font-weight: normal; fill: black;"><tspan x="0" y="9.899999999999999">Repayment through </tspan><tspan x="0.451416015625" y="23.099999999999998">Settlement Account</tspan></text></g><g class="djs-visual" id="Flow_1lz531q_label" transform="translate(542 1580)"><text lineHeight="1.2" class="djs-label" style="font-family: Arial, sans-serif; font-size: 11px; font-weight: normal; fill: black;"><tspan x="0" y="9.899999999999999">Cash (Teller) </tspan><tspan x="9.775390625" y="23.099999999999998">payment</tspan></text></g><g class="djs-visual" id="Flow_1ok0cp7_label" transform="translate(881 1587)"><text lineHeight="1.2" class="djs-label" style="font-family: Arial, sans-serif; font-size: 11px; font-weight: normal; fill: black;"><tspan x="0" y="9.899999999999999">Funds transfer</tspan></text></g><g class="djs-visual" id="Association_0n2v57b" transform="translate(0 0)"><polyline points="264,237 330,195 " style="fill: none; stroke: black; stroke-width: 2px; stroke-dasharray: 0.5, 5; stroke-linecap: round; stroke-linejoin: round;"></polyline></g><g class="djs-visual" id="Association_0bg31y8" transform="translate(0 0)"><polyline points="265,709 330,678 " style="fill: none; stroke: black; stroke-width: 2px; stroke-dasharray: 0.5, 5; stroke-linecap: round; stroke-linejoin: round;"></polyline></g><g class="djs-visual" id="Association_1b3pn2p" transform="translate(0 0)"><polyline points="265,1811 330,1770 " style="fill: none; stroke: black; stroke-width: 2px; stroke-dasharray: 0.5, 5; stroke-linecap: round; stroke-linejoin: round;"></polyline></g><g class="djs-visual" id="Association_0ulsjy3" transform="translate(0 0)"><polyline points="595,1968 670,1920 " style="fill: none; stroke: black; stroke-width: 2px; stroke-dasharray: 0.5, 5; stroke-linecap: round; stroke-linejoin: round;"></polyline></g><g class="djs-visual" id="Association_1w4p70t" transform="translate(0 0)"><polyline points="935,1969 1010,1920 " style="fill: none; stroke: black; stroke-width: 2px; stroke-dasharray: 0.5, 5; stroke-linecap: round; stroke-linejoin: round;"></polyline></g></g><g><rect class="viewport" x="-2523.230215827338" y="-92.96402877697841" width="6241.007194244604" height="2374.1007194244603"></rect></g></svg>