<svg width="100%" height="100%" viewBox="-50, -100, 1835, 2843"><g><g class="djs-visual" id="Flow_01lbzw9" transform="translate(0 0)"><path d="m  180,2550L180,2602 " style="fill: none; stroke-width: 2px; stroke: black; stroke-linejoin: round; marker-end: url(&quot;#sequenceflow-end-white-black-6e6gysho3nj4k82x7cwaeo8pl&quot;);"></path></g><g class="djs-visual" id="Flow_0engfyl" transform="translate(0 0)"><path d="m  180,2390L180,2450 " style="fill: none; stroke-width: 2px; stroke: black; stroke-linejoin: round; marker-end: url(&quot;#sequenceflow-end-white-black-6e6gysho3nj4k82x7cwaeo8pl&quot;);"></path></g><g class="djs-visual" id="Flow_0cfy5hj" transform="translate(0 0)"><path d="m  180,2230L180,2290 " style="fill: none; stroke-width: 2px; stroke: black; stroke-linejoin: round; marker-end: url(&quot;#sequenceflow-end-white-black-6e6gysho3nj4k82x7cwaeo8pl&quot;);"></path></g><g class="djs-visual" id="Flow_0254q3e" transform="translate(0 0)"><path d="m  180,2060L180,2130 " style="fill: none; stroke-width: 2px; stroke: black; stroke-linejoin: round; marker-end: url(&quot;#sequenceflow-end-white-black-6e6gysho3nj4k82x7cwaeo8pl&quot;);"></path></g><g class="djs-visual" id="Flow_0g6vraj" transform="translate(0 0)"><path d="m  180,1900L180,1960 " style="fill: none; stroke-width: 2px; stroke: black; stroke-linejoin: round; marker-end: url(&quot;#sequenceflow-end-white-black-6e6gysho3nj4k82x7cwaeo8pl&quot;);"></path></g><g class="djs-visual" id="Flow_1hgrrqr" transform="translate(0 0)"><path d="m  180,1665L180,1800 " style="fill: none; stroke-width: 2px; stroke: black; stroke-linejoin: round; marker-end: url(&quot;#sequenceflow-end-white-black-6e6gysho3nj4k82x7cwaeo8pl&quot;);"></path></g><g class="djs-visual" id="Flow_1a4vi5g" transform="translate(0 0)"><path d="m  445,1510L580,1510 L580,1542 " style="fill: none; stroke-width: 2px; stroke: black; stroke-linejoin: round; marker-end: url(&quot;#sequenceflow-end-white-black-6e6gysho3nj4k82x7cwaeo8pl&quot;);"></path></g><g class="djs-visual" id="Flow_0ushmeq" transform="translate(0 0)"><path d="m  420,1535L420,1640 L205,1640 " style="fill: none; stroke-width: 2px; stroke: black; stroke-linejoin: round; marker-end: url(&quot;#sequenceflow-end-white-black-6e6gysho3nj4k82x7cwaeo8pl&quot;);"></path></g><g class="djs-visual" id="Flow_1ki1thp" transform="translate(0 0)"><path d="m  420,1430L420,1485 " style="fill: none; stroke-width: 2px; stroke: black; stroke-linejoin: round; marker-end: url(&quot;#sequenceflow-end-white-black-6e6gysho3nj4k82x7cwaeo8pl&quot;);"></path></g><g class="djs-visual" id="Flow_1mzzh9j" transform="translate(0 0)"><path d="m  420,1270L420,1330 " style="fill: none; stroke-width: 2px; stroke: black; stroke-linejoin: round; marker-end: url(&quot;#sequenceflow-end-white-black-6e6gysho3nj4k82x7cwaeo8pl&quot;);"></path></g><g class="djs-visual" id="Flow_17qiukl" transform="translate(0 0)"><path d="m  420,1100L420,1170 " style="fill: none; stroke-width: 2px; stroke: black; stroke-linejoin: round; marker-end: url(&quot;#sequenceflow-end-white-black-6e6gysho3nj4k82x7cwaeo8pl&quot;);"></path></g><g class="djs-visual" id="Flow_18ps5xa" transform="translate(0 0)"><path d="m  205,890L420,890 L420,1000 " style="fill: none; stroke-width: 2px; stroke: black; stroke-linejoin: round; marker-end: url(&quot;#sequenceflow-end-white-black-6e6gysho3nj4k82x7cwaeo8pl&quot;);"></path></g><g class="djs-visual" id="Flow_0mex16o" transform="translate(0 0)"><path d="m  180,915L180,1615 " style="fill: none; stroke-width: 2px; stroke: black; stroke-linejoin: round; marker-end: url(&quot;#sequenceflow-end-white-black-6e6gysho3nj4k82x7cwaeo8pl&quot;);"></path></g><g class="djs-visual" id="Flow_0xgww7j" transform="translate(0 0)"><path d="m  180,800L180,865 " style="fill: none; stroke-width: 2px; stroke: black; stroke-linejoin: round; marker-end: url(&quot;#sequenceflow-end-white-black-6e6gysho3nj4k82x7cwaeo8pl&quot;);"></path></g><g class="djs-visual" id="Flow_1iw9qk9" transform="translate(0 0)"><path d="m  180,640L180,700 " style="fill: none; stroke-width: 2px; stroke: black; stroke-linejoin: round; marker-end: url(&quot;#sequenceflow-end-white-black-6e6gysho3nj4k82x7cwaeo8pl&quot;);"></path></g><g class="djs-visual" id="Flow_14qwkq8" transform="translate(0 0)"><path d="m  420,640L420,702 " style="fill: none; stroke-width: 2px; stroke: black; stroke-linejoin: round; marker-end: url(&quot;#sequenceflow-end-white-black-6e6gysho3nj4k82x7cwaeo8pl&quot;);"></path></g><g class="djs-visual" id="Flow_0lf02ty" transform="translate(0 0)"><path d="m  205,440L420,440 L420,540 " style="fill: none; stroke-width: 2px; stroke: black; stroke-linejoin: round; marker-end: url(&quot;#sequenceflow-end-white-black-6e6gysho3nj4k82x7cwaeo8pl&quot;);"></path></g><g class="djs-visual" id="Flow_1rpsqvw" transform="translate(0 0)"><path d="m  180,465L180,540 " style="fill: none; stroke-width: 2px; stroke: black; stroke-linejoin: round; marker-end: url(&quot;#sequenceflow-end-white-black-6e6gysho3nj4k82x7cwaeo8pl&quot;);"></path></g><g class="djs-visual" id="Flow_17h4u69" transform="translate(0 0)"><path d="m  180,350L180,415 " style="fill: none; stroke-width: 2px; stroke: black; stroke-linejoin: round; marker-end: url(&quot;#sequenceflow-end-white-black-6e6gysho3nj4k82x7cwaeo8pl&quot;);"></path></g><g class="djs-visual" id="Flow_1ia76z0" transform="translate(0 0)"><path d="m  180,190L180,250 " style="fill: none; stroke-width: 2px; stroke: black; stroke-linejoin: round; marker-end: url(&quot;#sequenceflow-end-white-black-6e6gysho3nj4k82x7cwaeo8pl&quot;);"></path></g><g class="djs-visual" id="Flow_0q36mbs" transform="translate(0 0)"><path d="m  180,28L180,90 " style="fill: none; stroke-width: 2px; stroke: black; stroke-linejoin: round; marker-end: url(&quot;#sequenceflow-end-white-black-6e6gysho3nj4k82x7cwaeo8pl&quot;);"></path></g><g class="djs-visual" id="StartEvent_1bm324f" transform="translate(162 -8)"><circle cx="18" cy="18" r="18" style="stroke: black; stroke-width: 2px; fill: white; fill-opacity: 0.95;"></circle></g><g class="djs-visual" id="StartEvent_1bm324f_label" transform="translate(137 -44)"><text lineHeight="1.2" class="djs-label" style="font-family: Arial, sans-serif; font-size: 11px; font-weight: normal; fill: black;"><tspan x="0" y="9.899999999999999">Wakala deposit to </tspan><tspan x="12.4296875" y="23.099999999999998">be amended</tspan></text></g><g class="djs-visual" id="Activity_01uynr6" transform="translate(115 90)"><rect x="0" y="0" width="130" height="100" rx="10" ry="10" style="stroke: black; stroke-width: 2px; fill: white; fill-opacity: 0.95;"></rect><text lineHeight="1.2" class="djs-label" style="font-family: Arial, sans-serif; font-size: 12px; font-weight: normal; fill: black;"><tspan x="15.1474609375" y="39.2">Receive Customer </tspan><tspan x="18.140625" y="53.6">request to amend </tspan><tspan x="24.3681640625" y="68">Wakala deposit</tspan></text></g><g class="djs-visual" id="DataObjectReference_0dk1qv7" transform="translate(42 115)"><path d="m 0,0 28.23529411764706,0 7.058823529411765,8.196721311475411 0,40.98360655737705 -35.294117647058826,0 0,-49.18032786885246 28.23529411764706,0 0,8.196721311475411 7.058823529411765,0" style="fill: white; stroke-width: 2px; stroke: black; fill-opacity: 0.95;"></path></g><g class="djs-visual" id="DataObjectReference_0dk1qv7_label" transform="translate(31 172)"><text lineHeight="1.2" class="djs-label" style="font-family: Arial, sans-serif; font-size: 11px; font-weight: normal; fill: black;"><tspan x="0" y="9.899999999999999">Amendment </tspan><tspan x="8.66845703125" y="23.099999999999998">Request</tspan></text></g><g class="djs-visual" id="Activity_0ucqn1x" transform="translate(115 250)"><rect x="0" y="0" width="130" height="100" rx="10" ry="10" style="stroke: black; stroke-width: 2px; fill: white; fill-opacity: 0.95;"></rect><text lineHeight="1.2" class="djs-label" style="font-family: Arial, sans-serif; font-size: 12px; font-weight: normal; fill: black;"><tspan x="31.9794921875" y="46.4">Authenticate </tspan><tspan x="38.4912109375" y="60.8">Customer</tspan></text></g><g class="djs-visual" id="Gateway_0xkmpqe" transform="translate(155 415)"><polygon points="25,0 50,25 25,50 0,25" style="stroke: black; stroke-width: 2px; fill: white; fill-opacity: 0.95;"></polygon><path d="m 16,15 7.42857142857143,9.714285714285715 -7.42857142857143,9.714285714285715 3.428571428571429,0 5.714285714285715,-7.464228571428572 5.714285714285715,7.464228571428572 3.428571428571429,0 -7.42857142857143,-9.714285714285715 7.42857142857143,-9.714285714285715 -3.428571428571429,0 -5.714285714285715,7.464228571428572 -5.714285714285715,-7.464228571428572 -3.428571428571429,0 z" style="fill: black; stroke-width: 1px; stroke: black;"></path></g><g class="djs-visual" id="Activity_1x46xg4" transform="translate(115 540)"><rect x="0" y="0" width="130" height="100" rx="10" ry="10" style="stroke: black; stroke-width: 2px; fill: white; fill-opacity: 0.95;"></rect><text lineHeight="1.2" class="djs-label" style="font-family: Arial, sans-serif; font-size: 12px; font-weight: normal; fill: black;"><tspan x="5.525390625" y="53.599999999999994">Select Wakala deposit</tspan></text></g><g class="djs-visual" id="Activity_1f5kl03" transform="translate(355 540)"><rect x="0" y="0" width="130" height="100" rx="10" ry="10" style="stroke: black; stroke-width: 2px; fill: white; fill-opacity: 0.95;"></rect><text lineHeight="1.2" class="djs-label" style="font-family: Arial, sans-serif; font-size: 12px; font-weight: normal; fill: black;"><tspan x="19.8203125" y="39.2">Inform Customer </tspan><tspan x="13.466796875" y="53.6">about unsuccessful </tspan><tspan x="27.474609375" y="68">authentication</tspan></text></g><g class="djs-visual" id="Event_1luffv2" transform="translate(402 702)"><circle cx="18" cy="18" r="18" style="stroke: black; stroke-width: 4px; fill: white; fill-opacity: 0.95;"></circle></g><g class="djs-visual" id="Event_1luffv2_label" transform="translate(374 749)"><text lineHeight="1.2" class="djs-label" style="font-family: Arial, sans-serif; font-size: 11px; font-weight: normal; fill: black;"><tspan x="0" y="9.899999999999999">Customer informed </tspan><tspan x="18.328125" y="23.099999999999998">about failed </tspan><tspan x="12.5234375" y="36.3">authentication</tspan></text></g><g class="djs-visual" id="Activity_176uun7" transform="translate(115 700)"><rect x="0" y="0" width="130" height="100" rx="10" ry="10" style="stroke: black; stroke-width: 2px; fill: white; fill-opacity: 0.95;"></rect><text lineHeight="1.2" class="djs-label" style="font-family: Arial, sans-serif; font-size: 12px; font-weight: normal; fill: black;"><tspan x="12.814453125" y="46.4">Decide if simulation </tspan><tspan x="42.8232421875" y="60.8">required</tspan></text></g><g class="djs-visual" id="Gateway_12pbul6" transform="translate(155 865)"><polygon points="25,0 50,25 25,50 0,25" style="stroke: black; stroke-width: 2px; fill: white; fill-opacity: 0.95;"></polygon><path d="m 16,15 7.42857142857143,9.714285714285715 -7.42857142857143,9.714285714285715 3.428571428571429,0 5.714285714285715,-7.464228571428572 5.714285714285715,7.464228571428572 3.428571428571429,0 -7.42857142857143,-9.714285714285715 7.42857142857143,-9.714285714285715 -3.428571428571429,0 -5.714285714285715,7.464228571428572 -5.714285714285715,-7.464228571428572 -3.428571428571429,0 z" style="fill: black; stroke-width: 1px; stroke: black;"></path></g><g class="djs-visual" id="Gateway_1g9eudf" transform="translate(155 1615)"><polygon points="25,0 50,25 25,50 0,25" style="stroke: black; stroke-width: 2px; fill: white; fill-opacity: 0.95;"></polygon><path d="m 16,15 7.42857142857143,9.714285714285715 -7.42857142857143,9.714285714285715 3.428571428571429,0 5.714285714285715,-7.464228571428572 5.714285714285715,7.464228571428572 3.428571428571429,0 -7.42857142857143,-9.714285714285715 7.42857142857143,-9.714285714285715 -3.428571428571429,0 -5.714285714285715,7.464228571428572 -5.714285714285715,-7.464228571428572 -3.428571428571429,0 z" style="fill: black; stroke-width: 1px; stroke: black;"></path></g><g class="djs-visual" id="Activity_1bhdw3o" transform="translate(355 1000)"><rect x="0" y="0" width="130" height="100" rx="10" ry="10" style="stroke: black; stroke-width: 2px; fill: white; fill-opacity: 0.95;"></rect><text lineHeight="1.2" class="djs-label" style="font-family: Arial, sans-serif; font-size: 12px; font-weight: normal; fill: black;"><tspan x="15.47265625" y="46.4">Capture details for </tspan><tspan x="37.8251953125" y="60.8">simulation</tspan></text></g><g class="djs-visual" id="Activity_1gdk1jb" transform="translate(355 1170)"><rect x="0" y="0" width="130" height="100" rx="10" ry="10" style="stroke: black; stroke-width: 2px; fill: white; fill-opacity: 0.95;"></rect><text lineHeight="1.2" class="djs-label" style="font-family: Arial, sans-serif; font-size: 12px; font-weight: normal; fill: black;"><tspan x="14.8212890625" y="53.599999999999994">Perform simulation</tspan></text></g><g class="djs-visual" id="Activity_137e3gd" transform="translate(355 1330)"><rect x="0" y="0" width="130" height="100" rx="10" ry="10" style="stroke: black; stroke-width: 2px; fill: white; fill-opacity: 0.95;"></rect><text lineHeight="1.2" class="djs-label" style="font-family: Arial, sans-serif; font-size: 12px; font-weight: normal; fill: black;"><tspan x="15.4775390625" y="46.4">Enquire simulation </tspan><tspan x="49.9951171875" y="60.8">result</tspan></text></g><g class="djs-visual" id="Gateway_0i18tym" transform="translate(395 1485)"><polygon points="25,0 50,25 25,50 0,25" style="stroke: black; stroke-width: 2px; fill: white; fill-opacity: 0.95;"></polygon><path d="m 16,15 7.42857142857143,9.714285714285715 -7.42857142857143,9.714285714285715 3.428571428571429,0 5.714285714285715,-7.464228571428572 5.714285714285715,7.464228571428572 3.428571428571429,0 -7.42857142857143,-9.714285714285715 7.42857142857143,-9.714285714285715 -3.428571428571429,0 -5.714285714285715,7.464228571428572 -5.714285714285715,-7.464228571428572 -3.428571428571429,0 z" style="fill: black; stroke-width: 1px; stroke: black;"></path></g><g class="djs-visual" id="Event_0zgnl6f" transform="translate(562 1542)"><circle cx="18" cy="18" r="18" style="stroke: black; stroke-width: 4px; fill: white; fill-opacity: 0.95;"></circle></g><g class="djs-visual" id="Event_0zgnl6f_label" transform="translate(531 1588)"><text lineHeight="1.2" class="djs-label" style="font-family: Arial, sans-serif; font-size: 11px; font-weight: normal; fill: black;"><tspan x="0" y="9.899999999999999">Amendment request </tspan><tspan x="17.576904296875" y="23.099999999999998">to be aborted</tspan></text></g><g class="djs-visual" id="Activity_0mz2f3x" transform="translate(115 1800)"><rect x="0" y="0" width="130" height="100" rx="10" ry="10" style="stroke: black; stroke-width: 2px; fill: white; fill-opacity: 0.95;"></rect><text lineHeight="1.2" class="djs-label" style="font-family: Arial, sans-serif; font-size: 12px; font-weight: normal; fill: black;"><tspan x="24.875" y="46.4">Amend Wakala </tspan><tspan x="45.3193359375" y="60.8">deposit</tspan></text></g><g class="djs-visual" id="Activity_04jzr2k" transform="translate(115 1960)"><rect x="0" y="0" width="130" height="100" rx="10" ry="10" style="stroke: black; stroke-width: 2px; fill: white; fill-opacity: 0.95;"></rect><text lineHeight="1.2" class="djs-label" style="font-family: Arial, sans-serif; font-size: 12px; font-weight: normal; fill: black;"><tspan x="19.3115234375" y="39.2">Authorise/ Delete </tspan><tspan x="24.3681640625" y="53.6">Wakala deposit </tspan><tspan x="30.3125" y="68">amendments</tspan></text></g><g class="djs-visual" id="Activity_1uclqfk" transform="translate(115 2130)"><rect x="0" y="0" width="130" height="100" rx="10" ry="10" style="stroke: black; stroke-width: 2px; fill: white; fill-opacity: 0.95;"></rect><text lineHeight="1.2" class="djs-label" style="font-family: Arial, sans-serif; font-size: 12px; font-weight: normal; fill: black;"><tspan x="24.0380859375" y="46.4">Update Wakala </tspan><tspan x="45.3193359375" y="60.8">deposit</tspan></text></g><g class="djs-visual" id="Activity_1uaiznj" transform="translate(115 2290)"><rect x="0" y="0" width="130" height="100" rx="10" ry="10" style="stroke: black; stroke-width: 2px; fill: white; fill-opacity: 0.95;"></rect><text lineHeight="1.2" class="djs-label" style="font-family: Arial, sans-serif; font-size: 12px; font-weight: normal; fill: black;"><tspan x="20.8095703125" y="53.599999999999994">Generate advice</tspan></text></g><g class="djs-visual" id="DataObjectReference_12nis7f" transform="translate(282 2315)"><path d="m 0,0 28.23529411764706,0 7.058823529411765,8.196721311475411 0,40.98360655737705 -35.294117647058826,0 0,-49.18032786885246 28.23529411764706,0 0,8.196721311475411 7.058823529411765,0" style="fill: white; stroke-width: 2px; stroke: black; fill-opacity: 0.95;"></path></g><g class="djs-visual" id="DataObjectReference_12nis7f_label" transform="translate(258 2372)"><text lineHeight="1.2" class="djs-label" style="font-family: Arial, sans-serif; font-size: 11px; font-weight: normal; fill: black;"><tspan x="0" y="9.899999999999999">Customer Advice</tspan></text></g><g class="djs-visual" id="Activity_0v61fa8" transform="translate(115 2450)"><rect x="0" y="0" width="130" height="100" rx="10" ry="10" style="stroke: black; stroke-width: 2px; fill: white; fill-opacity: 0.95;"></rect><text lineHeight="1.2" class="djs-label" style="font-family: Arial, sans-serif; font-size: 12px; font-weight: normal; fill: black;"><tspan x="27.1552734375" y="53.599999999999994">Deliver advice</tspan></text></g><g class="djs-visual" id="DataObjectReference_18gkasz" transform="translate(282 2475)"><path d="m 0,0 28.23529411764706,0 7.058823529411765,8.196721311475411 0,40.98360655737705 -35.294117647058826,0 0,-49.18032786885246 28.23529411764706,0 0,8.196721311475411 7.058823529411765,0" style="fill: white; stroke-width: 2px; stroke: black; fill-opacity: 0.95;"></path></g><g class="djs-visual" id="DataObjectReference_18gkasz_label" transform="translate(258 2532)"><text lineHeight="1.2" class="djs-label" style="font-family: Arial, sans-serif; font-size: 11px; font-weight: normal; fill: black;"><tspan x="0" y="9.899999999999999">Customer Advice</tspan></text></g><g class="djs-visual" id="Event_1oyqjg5" transform="translate(162 2602)"><circle cx="18" cy="18" r="18" style="stroke: black; stroke-width: 4px; fill: white; fill-opacity: 0.95;"></circle></g><g class="djs-visual" id="Event_1oyqjg5_label" transform="translate(143 2647)"><text lineHeight="1.2" class="djs-label" style="font-family: Arial, sans-serif; font-size: 11px; font-weight: normal; fill: black;"><tspan x="0" y="9.899999999999999">Wakala deposit </tspan><tspan x="7.854736328125" y="23.099999999999998">amendment </tspan><tspan x="11.988037109375" y="36.3">completed</tspan></text></g><g class="djs-visual" id="TextAnnotation_1vtcq2m" transform="translate(318 200)"><rect x="0" y="0" width="144" height="30" rx="0" ry="0" style="stroke: none; stroke-width: 2px; fill: none;"></rect><path d="m 0, 0 m 10,0 l -10,0 l 0,30 l 10,0" style="fill: none; stroke-width: 2px; stroke: black;"></path><text lineHeight="1.2" class="djs-label" style="font-family: Arial, sans-serif; font-size: 12px; font-weight: normal; fill: black;"><tspan x="5" y="15.799999999999999">Mandates/ Signatories</tspan></text></g><g class="djs-visual" id="TextAnnotation_1r9yarf" transform="translate(550 940)"><rect x="0" y="0" width="210" height="84" rx="0" ry="0" style="stroke: none; stroke-width: 2px; fill: none;"></rect><path d="m 0, 0 m 10,0 l -10,0 l 0,84 l 10,0" style="fill: none; stroke-width: 2px; stroke: black;"></path><text lineHeight="1.2" class="djs-label" style="font-family: Arial, sans-serif; font-size: 12px; font-weight: normal; fill: black;"><tspan x="5" y="15.799999999999999">Details captured</tspan><tspan x="5" y="30.199999999999996">- Term of the deposit</tspan><tspan x="5" y="44.599999999999994">- Profit Rate&nbsp; &nbsp;</tspan><tspan x="5" y="58.99999999999999">- Profit payment schedule frequency</tspan><tspan x="5" y="73.39999999999999">- Special HIBA Profit Rate</tspan></text></g><g class="djs-visual" id="TextAnnotation_0hnw757" transform="translate(318 1690)"><rect x="0" y="0" width="280" height="157" rx="0" ry="0" style="stroke: none; stroke-width: 2px; fill: none;"></rect><path d="m 0, 0 m 10,0 l -10,0 l 0,157 l 10,0" style="fill: none; stroke-width: 2px; stroke: black;"></path><text lineHeight="1.2" class="djs-label" style="font-family: Arial, sans-serif; font-size: 12px; font-weight: normal; fill: black;"><tspan x="5" y="15.799999999999999">Amendment can be done for</tspan><tspan x="5" y="30.199999999999996">- Term of the deposit</tspan><tspan x="5" y="44.599999999999994">- Profit Rate</tspan><tspan x="5" y="58.99999999999999">- Special HIBA Profit Rate</tspan><tspan x="5" y="73.39999999999999">- Profit payment schedule frequency</tspan><tspan x="5" y="87.79999999999998">- Settlement instructions (Manual/ auto)&nbsp; &nbsp;</tspan><tspan x="5" y="102.19999999999999">- Mark Arrangement Dormant</tspan><tspan x="5" y="116.6">- Branch and Line of Business&nbsp;</tspan><tspan x="5" y="131">- Pool ID&nbsp; &nbsp;</tspan><tspan x="5" y="145.4">- Maturity date</tspan></text></g><g class="djs-visual" id="DataInputAssociation_1n03g5w" transform="translate(0 0)"><polyline points="78,140 115,140 " style="fill: none; stroke: black; stroke-width: 2px; stroke-dasharray: 0.5, 5; stroke-linecap: round; stroke-linejoin: round; marker-end: url(&quot;#association-end-white-black-6e6gysho3nj4k82x7cwaeo8pl&quot;);"></polyline></g><g class="djs-visual" id="Flow_1rpsqvw_label" transform="translate(190 487)"><text lineHeight="1.2" class="djs-label" style="font-family: Arial, sans-serif; font-size: 11px; font-weight: normal; fill: black;"><tspan x="8.523193359375" y="9.899999999999999">Customer </tspan><tspan x="0" y="23.099999999999998">authenticated</tspan></text></g><g class="djs-visual" id="Flow_0lf02ty_label" transform="translate(429 484)"><text lineHeight="1.2" class="djs-label" style="font-family: Arial, sans-serif; font-size: 11px; font-weight: normal; fill: black;"><tspan x="0" y="9.899999999999999">Customer not </tspan><tspan x="0.4541015625" y="23.099999999999998">authenticated</tspan></text></g><g class="djs-visual" id="Flow_0mex16o_label" transform="translate(187 936)"><text lineHeight="1.2" class="djs-label" style="font-family: Arial, sans-serif; font-size: 11px; font-weight: normal; fill: black;"><tspan x="0" y="9.899999999999999">Simulation not </tspan><tspan x="15.145263671875" y="23.099999999999998">required</tspan></text></g><g class="djs-visual" id="Flow_18ps5xa_label" transform="translate(240 856)"><text lineHeight="1.2" class="djs-label" style="font-family: Arial, sans-serif; font-size: 11px; font-weight: normal; fill: black;"><tspan x="0" y="9.899999999999999">Simulation to be </tspan><tspan x="12.988037109375" y="23.099999999999998">carried out</tspan></text></g><g class="djs-visual" id="Flow_0ushmeq_label" transform="translate(411 1550)"><text lineHeight="1.2" class="djs-label" style="font-family: Arial, sans-serif; font-size: 11px; font-weight: normal; fill: black;"><tspan x="0" y="9.899999999999999">Amendment request </tspan><tspan x="19.115966796875" y="23.099999999999998">to be fulfilled</tspan></text></g><g class="djs-visual" id="DataOutputAssociation_0mz81tr" transform="translate(0 0)"><polyline points="245,2340 282,2340 " style="fill: none; stroke: black; stroke-width: 2px; stroke-dasharray: 0.5, 5; stroke-linecap: round; stroke-linejoin: round; marker-end: url(&quot;#association-end-white-black-6e6gysho3nj4k82x7cwaeo8pl&quot;);"></polyline></g><g class="djs-visual" id="DataOutputAssociation_114qnou" transform="translate(0 0)"><polyline points="245,2500 282,2500 " style="fill: none; stroke: black; stroke-width: 2px; stroke-dasharray: 0.5, 5; stroke-linecap: round; stroke-linejoin: round; marker-end: url(&quot;#association-end-white-black-6e6gysho3nj4k82x7cwaeo8pl&quot;);"></polyline></g><g class="djs-visual" id="Association_1tjftwx" transform="translate(0 0)"><polyline points="245,261 318,216 " style="fill: none; stroke: black; stroke-width: 2px; stroke-dasharray: 0.5, 5; stroke-linecap: round; stroke-linejoin: round;"></polyline></g><g class="djs-visual" id="Association_0ivla5s" transform="translate(0 0)"><polyline points="484,1005 550,958 " style="fill: none; stroke: black; stroke-width: 2px; stroke-dasharray: 0.5, 5; stroke-linecap: round; stroke-linejoin: round;"></polyline></g><g class="djs-visual" id="Association_0nqxoyx" transform="translate(0 0)"><polyline points="245,1809 318,1761 " style="fill: none; stroke: black; stroke-width: 2px; stroke-dasharray: 0.5, 5; stroke-linecap: round; stroke-linejoin: round;"></polyline></g></g><g><rect class="viewport" x="-3204.721991701245" y="-49.921161825726145" width="7199.1701244813285" height="2738.589211618257"></rect></g></svg>