<svg width="100%" height="100%" viewBox="-50, -153, 1835, 2361"><g><g class="djs-visual" id="Flow_0oh7h66" transform="translate(0 0)"><path d="m  245,1980L370,1980 L370,2082 " style="fill: none; stroke-width: 2px; stroke: black; stroke-linejoin: round; marker-end: url(&quot;#sequenceflow-end-white-black-4772ljz5was6om956hlful013&quot;);"></path></g><g class="djs-visual" id="Flow_0cgbr12" transform="translate(0 0)"><path d="m  220,2005L220,2082 " style="fill: none; stroke-width: 2px; stroke: black; stroke-linejoin: round; marker-end: url(&quot;#sequenceflow-end-white-black-4772ljz5was6om956hlful013&quot;);"></path></g><g class="djs-visual" id="Flow_0iusyc0" transform="translate(0 0)"><path d="m  220,1890L220,1955 " style="fill: none; stroke-width: 2px; stroke: black; stroke-linejoin: round; marker-end: url(&quot;#sequenceflow-end-white-black-4772ljz5was6om956hlful013&quot;);"></path></g><g class="djs-visual" id="Flow_03wcfi1" transform="translate(0 0)"><path d="m  220,1700L220,1790 " style="fill: none; stroke-width: 2px; stroke: black; stroke-linejoin: round; marker-end: url(&quot;#sequenceflow-end-white-black-4772ljz5was6om956hlful013&quot;);"></path></g><g class="djs-visual" id="Flow_10a18b8" transform="translate(0 0)"><path d="m  220,1360L220,1430 " style="fill: none; stroke-width: 2px; stroke: black; stroke-linejoin: round; marker-end: url(&quot;#sequenceflow-end-white-black-4772ljz5was6om956hlful013&quot;);"></path></g><g class="djs-visual" id="Flow_0m14tv1" transform="translate(0 0)"><path d="m  220,1530L220,1600 " style="fill: none; stroke-width: 2px; stroke: black; stroke-linejoin: round; marker-end: url(&quot;#sequenceflow-end-white-black-4772ljz5was6om956hlful013&quot;);"></path></g><g class="djs-visual" id="Flow_0wovldi" transform="translate(0 0)"><path d="m  220,1190L220,1260 " style="fill: none; stroke-width: 2px; stroke: black; stroke-linejoin: round; marker-end: url(&quot;#sequenceflow-end-white-black-4772ljz5was6om956hlful013&quot;);"></path></g><g class="djs-visual" id="Flow_0xllyvg" transform="translate(0 0)"><path d="m  220,1020L220,1090 " style="fill: none; stroke-width: 2px; stroke: black; stroke-linejoin: round; marker-end: url(&quot;#sequenceflow-end-white-black-4772ljz5was6om956hlful013&quot;);"></path></g><g class="djs-visual" id="Flow_14n13lh" transform="translate(0 0)"><path d="m  220,850L220,920 " style="fill: none; stroke-width: 2px; stroke: black; stroke-linejoin: round; marker-end: url(&quot;#sequenceflow-end-white-black-4772ljz5was6om956hlful013&quot;);"></path></g><g class="djs-visual" id="Flow_039cn53" transform="translate(0 0)"><path d="m  220,670L220,750 " style="fill: none; stroke-width: 2px; stroke: black; stroke-linejoin: round; marker-end: url(&quot;#sequenceflow-end-white-black-4772ljz5was6om956hlful013&quot;);"></path></g><g class="djs-visual" id="Flow_0mzdjp9" transform="translate(0 0)"><path d="m  220,490L220,570 " style="fill: none; stroke-width: 2px; stroke: black; stroke-linejoin: round; marker-end: url(&quot;#sequenceflow-end-white-black-4772ljz5was6om956hlful013&quot;);"></path></g><g class="djs-visual" id="Flow_0rramqs" transform="translate(0 0)"><path d="m  220,320L220,390 " style="fill: none; stroke-width: 2px; stroke: black; stroke-linejoin: round; marker-end: url(&quot;#sequenceflow-end-white-black-4772ljz5was6om956hlful013&quot;);"></path></g><g class="djs-visual" id="Flow_00wg8iv" transform="translate(0 0)"><path d="m  220,150L220,220 " style="fill: none; stroke-width: 2px; stroke: black; stroke-linejoin: round; marker-end: url(&quot;#sequenceflow-end-white-black-4772ljz5was6om956hlful013&quot;);"></path></g><g class="djs-visual" id="Flow_1dtktnq" transform="translate(0 0)"><path d="m  220,-22L220,50 " style="fill: none; stroke-width: 2px; stroke: black; stroke-linejoin: round; marker-end: url(&quot;#sequenceflow-end-white-black-4772ljz5was6om956hlful013&quot;);"></path></g><g class="djs-visual" id="StartEvent_1bm324f" transform="translate(202 -58)"><circle cx="18" cy="18" r="18" style="stroke: black; stroke-width: 2px; fill: white; fill-opacity: 0.95;"></circle></g><g class="djs-visual" id="StartEvent_1bm324f_label" transform="translate(179 -97)"><text lineHeight="1.2" class="djs-label" style="font-family: Arial, sans-serif; font-size: 11px; font-weight: normal; fill: black;"><tspan x="0" y="9.899999999999999">Contract created</tspan></text></g><g class="djs-visual" id="Activity_1url39r" transform="translate(155 50)"><rect x="0" y="0" width="130" height="100" rx="10" ry="10" style="stroke: black; stroke-width: 2px; fill: white; fill-opacity: 0.95;"></rect><text lineHeight="1.2" class="djs-label" style="font-family: Arial, sans-serif; font-size: 12px; font-weight: normal; fill: black;"><tspan x="24.9814453125" y="53.599999999999994">Select contract</tspan></text></g><g class="djs-visual" id="Activity_08l3nbz" transform="translate(155 220)"><rect x="0" y="0" width="130" height="100" rx="10" ry="10" style="stroke: black; stroke-width: 2px; fill: white; fill-opacity: 0.95;"></rect><text lineHeight="1.2" class="djs-label" style="font-family: Arial, sans-serif; font-size: 12px; font-weight: normal; fill: black;"><tspan x="20.6396484375" y="46.4">Change contract </tspan><tspan x="48.9921875" y="60.8">status</tspan></text></g><g class="djs-visual" id="Activity_0lt1x8m" transform="translate(155 390)"><rect x="0" y="0" width="130" height="100" rx="10" ry="10" style="stroke: black; stroke-width: 2px; fill: white; fill-opacity: 0.95;"></rect><text lineHeight="1.2" class="djs-label" style="font-family: Arial, sans-serif; font-size: 12px; font-weight: normal; fill: black;"><tspan x="6.4677734375" y="53.599999999999994">Authorise amendment</tspan></text></g><g class="djs-visual" id="Activity_12sizro" transform="translate(155 570)"><rect x="0" y="0" width="130" height="100" rx="10" ry="10" style="stroke: black; stroke-width: 2px; fill: white; fill-opacity: 0.95;"></rect><text lineHeight="1.2" class="djs-label" style="font-family: Arial, sans-serif; font-size: 12px; font-weight: normal; fill: black;"><tspan x="22.3095703125" y="46.4">Update contract </tspan><tspan x="47.65625" y="60.8">details</tspan></text></g><g class="djs-visual" id="Activity_0jhzikn" transform="translate(155 750)"><rect x="0" y="0" width="130" height="100" rx="10" ry="10" style="stroke: black; stroke-width: 2px; fill: white; fill-opacity: 0.95;"></rect><text lineHeight="1.2" class="djs-label" style="font-family: Arial, sans-serif; font-size: 12px; font-weight: normal; fill: black;"><tspan x="9.1318359375" y="46.4">Generate accounting </tspan><tspan x="46.984375" y="60.8">entries</tspan></text></g><g class="djs-visual" id="Activity_09pzosj" transform="translate(155 920)"><rect x="0" y="0" width="130" height="100" rx="10" ry="10" style="stroke: black; stroke-width: 2px; fill: white; fill-opacity: 0.95;"></rect><text lineHeight="1.2" class="djs-label" style="font-family: Arial, sans-serif; font-size: 12px; font-weight: normal; fill: black;"><tspan x="24.9814453125" y="53.599999999999994">Select contract</tspan></text></g><g class="djs-visual" id="Activity_1fo4b3q" transform="translate(155 1090)"><rect x="0" y="0" width="130" height="100" rx="10" ry="10" style="stroke: black; stroke-width: 2px; fill: white; fill-opacity: 0.95;"></rect><text lineHeight="1.2" class="djs-label" style="font-family: Arial, sans-serif; font-size: 12px; font-weight: normal; fill: black;"><tspan x="20.6396484375" y="46.4">Change contract </tspan><tspan x="48.9921875" y="60.8">status</tspan></text></g><g class="djs-visual" id="Activity_1qwe3iz" transform="translate(155 1260)"><rect x="0" y="0" width="130" height="100" rx="10" ry="10" style="stroke: black; stroke-width: 2px; fill: white; fill-opacity: 0.95;"></rect><text lineHeight="1.2" class="djs-label" style="font-family: Arial, sans-serif; font-size: 12px; font-weight: normal; fill: black;"><tspan x="6.4677734375" y="53.599999999999994">Authorise amendment</tspan></text></g><g class="djs-visual" id="Activity_0v65wpe" transform="translate(155 1430)"><rect x="0" y="0" width="130" height="100" rx="10" ry="10" style="stroke: black; stroke-width: 2px; fill: white; fill-opacity: 0.95;"></rect><text lineHeight="1.2" class="djs-label" style="font-family: Arial, sans-serif; font-size: 12px; font-weight: normal; fill: black;"><tspan x="22.3095703125" y="46.4">Update contract </tspan><tspan x="47.65625" y="60.8">details</tspan></text></g><g class="djs-visual" id="Activity_0t0yllt" transform="translate(155 1600)"><rect x="0" y="0" width="130" height="100" rx="10" ry="10" style="stroke: black; stroke-width: 2px; fill: white; fill-opacity: 0.95;"></rect><text lineHeight="1.2" class="djs-label" style="font-family: Arial, sans-serif; font-size: 12px; font-weight: normal; fill: black;"><tspan x="9.1318359375" y="46.4">Generate accounting </tspan><tspan x="46.984375" y="60.8">entries</tspan></text></g><g class="djs-visual" id="Activity_1074u8b" transform="translate(155 1790)"><rect x="0" y="0" width="130" height="100" rx="10" ry="10" style="stroke: black; stroke-width: 2px; fill: white; fill-opacity: 0.95;"></rect><text lineHeight="1.2" class="djs-label" style="font-family: Arial, sans-serif; font-size: 12px; font-weight: normal; fill: black;"><tspan x="8.8125" y="46.4">Check if payments to</tspan><tspan x="41.4873046875" y="60.8">be made</tspan></text></g><g class="djs-visual" id="Gateway_0saawd6" transform="translate(195 1955)"><polygon points="25,0 50,25 25,50 0,25" style="stroke: black; stroke-width: 2px; fill: white; fill-opacity: 0.95;"></polygon><path d="m 16,15 7.42857142857143,9.714285714285715 -7.42857142857143,9.714285714285715 3.428571428571429,0 5.714285714285715,-7.464228571428572 5.714285714285715,7.464228571428572 3.428571428571429,0 -7.42857142857143,-9.714285714285715 7.42857142857143,-9.714285714285715 -3.428571428571429,0 -5.714285714285715,7.464228571428572 -5.714285714285715,-7.464228571428572 -3.428571428571429,0 z" style="fill: black; stroke-width: 1px; stroke: black;"></path></g><g class="djs-visual" id="Event_15o26ng" transform="translate(202 2082)"><circle cx="18" cy="18" r="18" style="stroke: black; stroke-width: 4px; fill: white; fill-opacity: 0.95;"></circle></g><g class="djs-visual" id="Event_15o26ng_label" transform="translate(174 2125)"><text lineHeight="1.2" class="djs-label" style="font-family: Arial, sans-serif; font-size: 11px; font-weight: normal; fill: black;"><tspan x="0" y="9.899999999999999">No payments to be </tspan><tspan x="32.40625" y="23.099999999999998">made</tspan></text></g><g class="djs-visual" id="Event_1izwrle" transform="translate(352 2082)"><circle cx="18" cy="18" r="18" style="stroke: black; stroke-width: 4px; fill: white; fill-opacity: 0.95;"></circle></g><g class="djs-visual" id="Event_1izwrle_label" transform="translate(332 2125)"><text lineHeight="1.2" class="djs-label" style="font-family: Arial, sans-serif; font-size: 11px; font-weight: normal; fill: black;"><tspan x="0" y="9.899999999999999">Payments to be </tspan><tspan x="24.453125" y="23.099999999999998">made</tspan></text></g><g class="djs-visual" id="TextAnnotation_07mvasc" transform="translate(340 120)"><rect x="0" y="0" width="370" height="110" rx="0" ry="0" style="stroke: none; stroke-width: 2px; fill: none;"></rect><path d="m 0, 0 m 10,0 l -10,0 l 0,110 l 10,0" style="fill: none; stroke-width: 2px; stroke: black;"></path><text lineHeight="1.2" class="djs-label" style="font-family: Arial, sans-serif; font-size: 12px; font-weight: normal; fill: black;"><tspan x="5" y="15.799999999999999">Following details can also be changed, if required:</tspan><tspan x="5" y="30.199999999999996">- Customer Account</tspan><tspan x="5" y="44.599999999999994">- Description</tspan><tspan x="5" y="58.99999999999999">- Down payment details</tspan><tspan x="5" y="73.39999999999999">- Cost details (cannot be amended if Cost accounting is completed)</tspan><tspan x="5" y="87.79999999999998">- Actions</tspan><tspan x="5" y="102.19999999999999">- Vendor</tspan></text></g><g class="djs-visual" id="TextAnnotation_130cdta" transform="translate(340 510)"><rect x="0" y="0" width="120" height="40" rx="0" ry="0" style="stroke: none; stroke-width: 2px; fill: none;"></rect><path d="m 0, 0 m 10,0 l -10,0 l 0,40 l 10,0" style="fill: none; stroke-width: 2px; stroke: black;"></path><text lineHeight="1.2" class="djs-label" style="font-family: Arial, sans-serif; font-size: 12px; font-weight: normal; fill: black;"><tspan x="5" y="15.799999999999999">STATUS changed to</tspan><tspan x="5" y="30.199999999999996">'APPROVAL'</tspan></text></g><g class="djs-visual" id="TextAnnotation_0ni97e2" transform="translate(340 690)"><rect x="0" y="0" width="170" height="40" rx="0" ry="0" style="stroke: none; stroke-width: 2px; fill: none;"></rect><path d="m 0, 0 m 10,0 l -10,0 l 0,40 l 10,0" style="fill: none; stroke-width: 2px; stroke: black;"></path><text lineHeight="1.2" class="djs-label" style="font-family: Arial, sans-serif; font-size: 12px; font-weight: normal; fill: black;"><tspan x="5" y="15.799999999999999">Dr Goods in Transit account</tspan><tspan x="5" y="30.199999999999996">Cr Purchase Order account</tspan></text></g><g class="djs-visual" id="TextAnnotation_012r6jk" transform="translate(340 980)"><rect x="0" y="0" width="370" height="110" rx="0" ry="0" style="stroke: none; stroke-width: 2px; fill: none;"></rect><path d="m 0, 0 m 10,0 l -10,0 l 0,110 l 10,0" style="fill: none; stroke-width: 2px; stroke: black;"></path><text lineHeight="1.2" class="djs-label" style="font-family: Arial, sans-serif; font-size: 12px; font-weight: normal; fill: black;"><tspan x="5" y="15.799999999999999">Following details can also be changed, if required:</tspan><tspan x="5" y="30.199999999999996">- Customer Account</tspan><tspan x="5" y="44.599999999999994">- Description</tspan><tspan x="5" y="58.99999999999999">- Down payment details</tspan><tspan x="5" y="73.39999999999999">- Cost details (cannot be amended if Cost accounting is completed)</tspan><tspan x="5" y="87.79999999999998">- Actions</tspan><tspan x="5" y="102.19999999999999">- Vendor</tspan></text></g><g class="djs-visual" id="TextAnnotation_0exbcfb" transform="translate(340 1377)"><rect x="0" y="0" width="137" height="40" rx="0" ry="0" style="stroke: none; stroke-width: 2px; fill: none;"></rect><path d="m 0, 0 m 10,0 l -10,0 l 0,40 l 10,0" style="fill: none; stroke-width: 2px; stroke: black;"></path><text lineHeight="1.2" class="djs-label" style="font-family: Arial, sans-serif; font-size: 12px; font-weight: normal; fill: black;"><tspan x="5" y="15.799999999999999">STATUS changed to </tspan><tspan x="5" y="30.199999999999996">'PURCHASE'</tspan></text></g><g class="djs-visual" id="TextAnnotation_1roxatj" transform="translate(340 1520)"><rect x="0" y="0" width="230" height="210" rx="0" ry="0" style="stroke: none; stroke-width: 2px; fill: none;"></rect><path d="m 0, 0 m 10,0 l -10,0 l 0,210 l 10,0" style="fill: none; stroke-width: 2px; stroke: black;"></path><text lineHeight="1.2" class="djs-label" style="font-family: Arial, sans-serif; font-size: 12px; font-weight: normal; fill: black;"><tspan x="5" y="15.799999999999999">Dr Purchase Order account</tspan><tspan x="5" y="30.199999999999996">Cr Goods in Transit account</tspan><tspan x="5" y="44.599999999999994"></tspan><tspan x="5" y="58.99999999999999"></tspan><tspan x="5" y="73.39999999999999">Dr Purchase account</tspan><tspan x="5" y="87.79999999999998">Cr Multi Supplier account</tspan><tspan x="5" y="102.19999999999999">(or)</tspan><tspan x="5" y="116.6">Seller Settlement account</tspan><tspan x="5" y="131">(or)</tspan><tspan x="5" y="145.4">Internal account</tspan><tspan x="5" y="159.8">(For direct purchase from Seller, Seller </tspan><tspan x="5" y="174.20000000000002">account is credited in case Seller is the</tspan><tspan x="5" y="188.60000000000002">bank's own customer else the funds are </tspan><tspan x="5" y="203.00000000000003">parked in internal account)</tspan></text></g><g class="djs-visual" id="Flow_03wcfi1_label" transform="translate(228 1720)"><text lineHeight="1.2" class="djs-label" style="font-family: Arial, sans-serif; font-size: 11px; font-weight: normal; fill: black;"><tspan x="0" y="9.899999999999999">Contract status </tspan><tspan x="14.605224609375" y="23.099999999999998">changed&nbsp;</tspan><tspan x="7.339599609375" y="36.3">successfully</tspan></text></g><g class="djs-visual" id="Association_12wuias" transform="translate(0 0)"><polyline points="280,222 340,175 " style="fill: none; stroke: black; stroke-width: 2px; stroke-dasharray: 0.5, 5; stroke-linecap: round; stroke-linejoin: round;"></polyline></g><g class="djs-visual" id="Association_1rd5k64" transform="translate(0 0)"><polyline points="282,573 340,530 " style="fill: none; stroke: black; stroke-width: 2px; stroke-dasharray: 0.5, 5; stroke-linecap: round; stroke-linejoin: round;"></polyline></g><g class="djs-visual" id="Association_191oqd4" transform="translate(0 0)"><polyline points="282,753 340,710 " style="fill: none; stroke: black; stroke-width: 2px; stroke-dasharray: 0.5, 5; stroke-linecap: round; stroke-linejoin: round;"></polyline></g><g class="djs-visual" id="Association_0ru39uq" transform="translate(0 0)"><polyline points="282,1093 340,1050 " style="fill: none; stroke: black; stroke-width: 2px; stroke-dasharray: 0.5, 5; stroke-linecap: round; stroke-linejoin: round;"></polyline></g><g class="djs-visual" id="Association_14ge8hx" transform="translate(0 0)"><polyline points="284,1436 340,1397 " style="fill: none; stroke: black; stroke-width: 2px; stroke-dasharray: 0.5, 5; stroke-linecap: round; stroke-linejoin: round;"></polyline></g><g class="djs-visual" id="Association_1xeyb56" transform="translate(0 0)"><polyline points="282,1603 340,1560 " style="fill: none; stroke: black; stroke-width: 2px; stroke-dasharray: 0.5, 5; stroke-linecap: round; stroke-linejoin: round;"></polyline></g></g><g><rect class="viewport" x="-2538.530821917808" y="-102.96575342465754" width="5941.780821917809" height="2260.27397260274"></rect></g></svg>