<svg width="100%" height="100%" viewBox="-106, -116, 1835, 3204"><g><g class="djs-visual" id="Flow_1ttqggf" transform="translate(0 0)"><path d="m  460,630L460,663 " style="fill: none; stroke-width: 2px; stroke: black; stroke-linejoin: round; marker-end: url(&quot;#sequenceflow-end-white-black-8scetxbojrtk7v4fycnwisl23&quot;);"></path></g><g class="djs-visual" id="Flow_1q8d0ew" transform="translate(0 0)"><path d="m  155,440L460,440 L460,530 " style="fill: none; stroke-width: 2px; stroke: black; stroke-linejoin: round; marker-end: url(&quot;#sequenceflow-end-white-black-8scetxbojrtk7v4fycnwisl23&quot;);"></path></g><g class="djs-visual" id="Flow_0nq9lwp" transform="translate(0 0)"><path d="m  130,950L130,1000 " style="fill: none; stroke-width: 2px; stroke: black; stroke-linejoin: round; marker-end: url(&quot;#sequenceflow-end-white-black-8scetxbojrtk7v4fycnwisl23&quot;);"></path></g><g class="djs-visual" id="Flow_0qxdsjq" transform="translate(0 0)"><path d="m  130,810L130,850 " style="fill: none; stroke-width: 2px; stroke: black; stroke-linejoin: round; marker-end: url(&quot;#sequenceflow-end-white-black-8scetxbojrtk7v4fycnwisl23&quot;);"></path></g><g class="djs-visual" id="Flow_13mlksy" transform="translate(0 0)"><path d="m  130,630L130,710 " style="fill: none; stroke-width: 2px; stroke: black; stroke-linejoin: round; marker-end: url(&quot;#sequenceflow-end-white-black-8scetxbojrtk7v4fycnwisl23&quot;);"></path></g><g class="djs-visual" id="Flow_0c960qt" transform="translate(0 0)"><path d="m  130,465L130,530 " style="fill: none; stroke-width: 2px; stroke: black; stroke-linejoin: round; marker-end: url(&quot;#sequenceflow-end-white-black-8scetxbojrtk7v4fycnwisl23&quot;);"></path></g><g class="djs-visual" id="Flow_09q2j3t" transform="translate(0 0)"><path d="m  460,1370L460,2290 L155,2290 " style="fill: none; stroke-width: 2px; stroke: black; stroke-linejoin: round; marker-end: url(&quot;#sequenceflow-end-white-black-8scetxbojrtk7v4fycnwisl23&quot;);"></path></g><g class="djs-visual" id="Flow_1uccgtb" transform="translate(0 0)"><path d="m  155,1170L460,1170 L460,1270 " style="fill: none; stroke-width: 2px; stroke: black; stroke-linejoin: round; marker-end: url(&quot;#sequenceflow-end-white-black-8scetxbojrtk7v4fycnwisl23&quot;);"></path></g><g class="djs-visual" id="Flow_1cfb3jn" transform="translate(0 0)"><path d="m  130,2050L130,2110 " style="fill: none; stroke-width: 2px; stroke: black; stroke-linejoin: round; marker-end: url(&quot;#sequenceflow-end-white-black-8scetxbojrtk7v4fycnwisl23&quot;);"></path></g><g class="djs-visual" id="Flow_1izvt11" transform="translate(0 0)"><path d="m  130,1880L130,1950 " style="fill: none; stroke-width: 2px; stroke: black; stroke-linejoin: round; marker-end: url(&quot;#sequenceflow-end-white-black-8scetxbojrtk7v4fycnwisl23&quot;);"></path></g><g class="djs-visual" id="Flow_1cppt4r" transform="translate(0 0)"><path d="m  130,1710L130,1780 " style="fill: none; stroke-width: 2px; stroke: black; stroke-linejoin: round; marker-end: url(&quot;#sequenceflow-end-white-black-8scetxbojrtk7v4fycnwisl23&quot;);"></path></g><g class="djs-visual" id="Flow_1ufmdt8" transform="translate(0 0)"><path d="m  130,1540L130,1610 " style="fill: none; stroke-width: 2px; stroke: black; stroke-linejoin: round; marker-end: url(&quot;#sequenceflow-end-white-black-8scetxbojrtk7v4fycnwisl23&quot;);"></path></g><g class="djs-visual" id="Flow_1eemdb9" transform="translate(0 0)"><path d="m  130,1370L130,1440 " style="fill: none; stroke-width: 2px; stroke: black; stroke-linejoin: round; marker-end: url(&quot;#sequenceflow-end-white-black-8scetxbojrtk7v4fycnwisl23&quot;);"></path></g><g class="djs-visual" id="Flow_1q05s5j" transform="translate(0 0)"><path d="m  130,1195L130,1270 " style="fill: none; stroke-width: 2px; stroke: black; stroke-linejoin: round; marker-end: url(&quot;#sequenceflow-end-white-black-8scetxbojrtk7v4fycnwisl23&quot;);"></path></g><g class="djs-visual" id="Flow_1rl7hl8" transform="translate(0 0)"><path d="m  130,2315L130,2350 " style="fill: none; stroke-width: 2px; stroke: black; stroke-linejoin: round; marker-end: url(&quot;#sequenceflow-end-white-black-8scetxbojrtk7v4fycnwisl23&quot;);"></path></g><g class="djs-visual" id="Flow_0mq8scz" transform="translate(0 0)"><path d="m  130,2450L130,2510 " style="fill: none; stroke-width: 2px; stroke: black; stroke-linejoin: round; marker-end: url(&quot;#sequenceflow-end-white-black-8scetxbojrtk7v4fycnwisl23&quot;);"></path></g><g class="djs-visual" id="Flow_1ftujsg" transform="translate(0 0)"><path d="m  130,2610L130,2680 " style="fill: none; stroke-width: 2px; stroke: black; stroke-linejoin: round; marker-end: url(&quot;#sequenceflow-end-white-black-8scetxbojrtk7v4fycnwisl23&quot;);"></path></g><g class="djs-visual" id="Flow_14busck" transform="translate(0 0)"><path d="m  130,2780L130,2820 " style="fill: none; stroke-width: 2px; stroke: black; stroke-linejoin: round; marker-end: url(&quot;#sequenceflow-end-white-black-8scetxbojrtk7v4fycnwisl23&quot;);"></path></g><g class="djs-visual" id="Flow_1pxan6n" transform="translate(0 0)"><path d="m  130,2920L130,2962 " style="fill: none; stroke-width: 2px; stroke: black; stroke-linejoin: round; marker-end: url(&quot;#sequenceflow-end-white-black-8scetxbojrtk7v4fycnwisl23&quot;);"></path></g><g class="djs-visual" id="Flow_1h1n57n" transform="translate(0 0)"><path d="m  130,2210L130,2265 " style="fill: none; stroke-width: 2px; stroke: black; stroke-linejoin: round; marker-end: url(&quot;#sequenceflow-end-white-black-8scetxbojrtk7v4fycnwisl23&quot;);"></path></g><g class="djs-visual" id="Flow_0e1dwpy" transform="translate(0 0)"><path d="m  130,1100L130,1145 " style="fill: none; stroke-width: 2px; stroke: black; stroke-linejoin: round; marker-end: url(&quot;#sequenceflow-end-white-black-8scetxbojrtk7v4fycnwisl23&quot;);"></path></g><g class="djs-visual" id="Flow_0fcw99z" transform="translate(0 0)"><path d="m  130,360L130,415 " style="fill: none; stroke-width: 2px; stroke: black; stroke-linejoin: round; marker-end: url(&quot;#sequenceflow-end-white-black-8scetxbojrtk7v4fycnwisl23&quot;);"></path></g><g class="djs-visual" id="Flow_1usjz2x" transform="translate(0 0)"><path d="m  130,180L130,260 " style="fill: none; stroke-width: 2px; stroke: black; stroke-linejoin: round; marker-end: url(&quot;#sequenceflow-end-white-black-8scetxbojrtk7v4fycnwisl23&quot;);"></path></g><g class="djs-visual" id="Flow_08egt9c" transform="translate(0 0)"><path d="m  130,38L130,80 " style="fill: none; stroke-width: 2px; stroke: black; stroke-linejoin: round; marker-end: url(&quot;#sequenceflow-end-white-black-8scetxbojrtk7v4fycnwisl23&quot;);"></path></g><g class="djs-visual" id="StartEvent_1bm324f" transform="translate(112 2)"><circle cx="18" cy="18" r="18" style="stroke: black; stroke-width: 2px; fill: white; fill-opacity: 0.95;"></circle></g><g class="djs-visual" id="StartEvent_1bm324f_label" transform="translate(82 -60)"><text lineHeight="1.2" class="djs-label" style="font-family: Arial, sans-serif; font-size: 11px; font-weight: normal; fill: black;"><tspan x="0" y="9.899999999999999">Customer requests to</tspan><tspan x="13.4375" y="23.099999999999998">close Mudaraba </tspan><tspan x="4.61279296875" y="36.3">facility arrangement</tspan></text></g><g class="djs-visual" id="Activity_1o2p7dd" transform="translate(65 80)"><rect x="0" y="0" width="130" height="100" rx="10" ry="10" style="stroke: black; stroke-width: 2px; fill: white; fill-opacity: 0.95;"></rect><text lineHeight="1.2" class="djs-label" style="font-family: Arial, sans-serif; font-size: 12px; font-weight: normal; fill: black;"><tspan x="14.8095703125" y="39.2">Receive&nbsp;request to </tspan><tspan x="22.1455078125" y="53.6">close Mudaraba </tspan><tspan x="25.8154296875" y="68">facility account</tspan></text></g><g class="djs-visual" id="Activity_1st70qw" transform="translate(65 260)"><rect x="0" y="0" width="130" height="100" rx="10" ry="10" style="stroke: black; stroke-width: 2px; fill: white; fill-opacity: 0.95;"></rect><text lineHeight="1.2" class="djs-label" style="font-family: Arial, sans-serif; font-size: 12px; font-weight: normal; fill: black;"><tspan x="31.9794921875" y="46.4">Authenticate </tspan><tspan x="38.4912109375" y="60.8">Customer</tspan></text></g><g class="djs-visual" id="Gateway_1vpmkx5" transform="translate(105 415)"><polygon points="25,0 50,25 25,50 0,25" style="stroke: black; stroke-width: 2px; fill: white; fill-opacity: 0.95;"></polygon><path d="m 16,15 7.42857142857143,9.714285714285715 -7.42857142857143,9.714285714285715 3.428571428571429,0 5.714285714285715,-7.464228571428572 5.714285714285715,7.464228571428572 3.428571428571429,0 -7.42857142857143,-9.714285714285715 7.42857142857143,-9.714285714285715 -3.428571428571429,0 -5.714285714285715,7.464228571428572 -5.714285714285715,-7.464228571428572 -3.428571428571429,0 z" style="fill: black; stroke-width: 1px; stroke: black;"></path></g><g class="djs-visual" id="Activity_0jusje2" transform="translate(65 530)"><rect x="0" y="0" width="130" height="100" rx="10" ry="10" style="stroke: black; stroke-width: 2px; fill: white; fill-opacity: 0.95;"></rect><text lineHeight="1.2" class="djs-label" style="font-family: Arial, sans-serif; font-size: 12px; font-weight: normal; fill: black;"><tspan x="19.4765625" y="39.2">Select Mudaraba </tspan><tspan x="11.4765625" y="53.6">facility arrangement&nbsp;</tspan><tspan x="43.65234375" y="68">account</tspan></text></g><g class="djs-visual" id="Activity_1qgqcij" transform="translate(65 710)"><rect x="0" y="0" width="130" height="100" rx="10" ry="10" style="stroke: black; stroke-width: 2px; fill: white; fill-opacity: 0.95;"></rect><text lineHeight="1.2" class="djs-label" style="font-family: Arial, sans-serif; font-size: 12px; font-weight: normal; fill: black;"><tspan x="12.80859375" y="39.2">Simulate Mudaraba </tspan><tspan x="11.4765625" y="53.6">facility arrangement&nbsp;</tspan><tspan x="45.4951171875" y="68">closure</tspan></text></g><g class="djs-visual" id="Activity_03j8mnw" transform="translate(65 850)"><rect x="0" y="0" width="130" height="100" rx="10" ry="10" style="stroke: black; stroke-width: 2px; fill: white; fill-opacity: 0.95;"></rect><text lineHeight="1.2" class="djs-label" style="font-family: Arial, sans-serif; font-size: 12px; font-weight: normal; fill: black;"><tspan x="14.8212890625" y="53.599999999999994">Perform&nbsp;simulation</tspan></text></g><g class="djs-visual" id="Activity_1x8s2r6" transform="translate(65 1000)"><rect x="0" y="0" width="130" height="100" rx="10" ry="10" style="stroke: black; stroke-width: 2px; fill: white; fill-opacity: 0.95;"></rect><text lineHeight="1.2" class="djs-label" style="font-family: Arial, sans-serif; font-size: 12px; font-weight: normal; fill: black;"><tspan x="19.1513671875" y="46.4">Check simulation </tspan><tspan x="47.328125" y="60.8">results</tspan></text></g><g class="djs-visual" id="Gateway_00jswud" transform="translate(105 1145)"><polygon points="25,0 50,25 25,50 0,25" style="stroke: black; stroke-width: 2px; fill: white; fill-opacity: 0.95;"></polygon><path d="m 16,15 7.42857142857143,9.714285714285715 -7.42857142857143,9.714285714285715 3.428571428571429,0 5.714285714285715,-7.464228571428572 5.714285714285715,7.464228571428572 3.428571428571429,0 -7.42857142857143,-9.714285714285715 7.42857142857143,-9.714285714285715 -3.428571428571429,0 -5.714285714285715,7.464228571428572 -5.714285714285715,-7.464228571428572 -3.428571428571429,0 z" style="fill: black; stroke-width: 1px; stroke: black;"></path></g><g class="djs-visual" id="Activity_0f4kq2w" transform="translate(65 1270)"><rect x="0" y="0" width="130" height="100" rx="10" ry="10" style="stroke: black; stroke-width: 2px; fill: white; fill-opacity: 0.95;"></rect><text lineHeight="1.2" class="djs-label" style="font-family: Arial, sans-serif; font-size: 12px; font-weight: normal; fill: black;"><tspan x="18.474609375" y="46.4">Initiate Mudaraba </tspan><tspan x="30.09375" y="60.8">facility&nbsp;payoff</tspan></text></g><g class="djs-visual" id="Activity_0btzibn" transform="translate(395 1270)"><rect x="0" y="0" width="130" height="100" rx="10" ry="10" style="stroke: black; stroke-width: 2px; fill: white; fill-opacity: 0.95;"></rect><text lineHeight="1.2" class="djs-label" style="font-family: Arial, sans-serif; font-size: 12px; font-weight: normal; fill: black;"><tspan x="18.474609375" y="46.4">Initiate Mudaraba </tspan><tspan x="27.658203125" y="60.8">facility&nbsp;closure</tspan></text></g><g class="djs-visual" id="Activity_0td5kw5" transform="translate(65 1440)"><rect x="0" y="0" width="130" height="100" rx="10" ry="10" style="stroke: black; stroke-width: 2px; fill: white; fill-opacity: 0.95;"></rect><text lineHeight="1.2" class="djs-label" style="font-family: Arial, sans-serif; font-size: 12px; font-weight: normal; fill: black;"><tspan x="18.6416015625" y="46.4">Capture payment </tspan><tspan x="31.9765625" y="60.8">order details</tspan></text></g><g class="djs-visual" id="Activity_0ov5i0q" transform="translate(65 1610)"><rect x="0" y="0" width="130" height="100" rx="10" ry="10" style="stroke: black; stroke-width: 2px; fill: white; fill-opacity: 0.95;"></rect><text lineHeight="1.2" class="djs-label" style="font-family: Arial, sans-serif; font-size: 12px; font-weight: normal; fill: black;"><tspan x="15.1396484375" y="53.599999999999994">Authorise&nbsp;payment</tspan></text></g><g class="djs-visual" id="Activity_0te2zz9" transform="translate(65 1780)"><rect x="0" y="0" width="130" height="100" rx="10" ry="10" style="stroke: black; stroke-width: 2px; fill: white; fill-opacity: 0.95;"></rect><text lineHeight="1.2" class="djs-label" style="font-family: Arial, sans-serif; font-size: 12px; font-weight: normal; fill: black;"><tspan x="21.3134765625" y="46.4">Create Payment </tspan><tspan x="49.1611328125" y="60.8">Order</tspan></text></g><g class="djs-visual" id="Activity_1b9wqh2" transform="translate(65 1950)"><rect x="0" y="0" width="130" height="100" rx="10" ry="10" style="stroke: black; stroke-width: 2px; fill: white; fill-opacity: 0.95;"></rect><text lineHeight="1.2" class="djs-label" style="font-family: Arial, sans-serif; font-size: 12px; font-weight: normal; fill: black;"><tspan x="8.13671875" y="39.2">Send Payment Order </tspan><tspan x="15.97265625" y="53.6">details to payment </tspan><tspan x="45.9921875" y="68">system</tspan></text></g><g class="djs-visual" id="Activity_1yjdwn5" transform="translate(65 2110)"><rect x="0" y="0" width="130" height="100" rx="10" ry="10" style="stroke: black; stroke-width: 2px; fill: white; fill-opacity: 0.95;"></rect><text lineHeight="1.2" class="djs-label" style="font-family: Arial, sans-serif; font-size: 12px; font-weight: normal; fill: black;"><tspan x="26.484375" y="46.4">Close Finance </tspan><tspan x="30.6474609375" y="60.8">arrangement</tspan></text></g><g class="djs-visual" id="Gateway_0a5cx9l" transform="translate(105 2265)"><polygon points="25,0 50,25 25,50 0,25" style="stroke: black; stroke-width: 2px; fill: white; fill-opacity: 0.95;"></polygon><path d="m 16,15 7.42857142857143,9.714285714285715 -7.42857142857143,9.714285714285715 3.428571428571429,0 5.714285714285715,-7.464228571428572 5.714285714285715,7.464228571428572 3.428571428571429,0 -7.42857142857143,-9.714285714285715 7.42857142857143,-9.714285714285715 -3.428571428571429,0 -5.714285714285715,7.464228571428572 -5.714285714285715,-7.464228571428572 -3.428571428571429,0 z" style="fill: black; stroke-width: 1px; stroke: black;"></path></g><g class="djs-visual" id="Activity_05n8a0h" transform="translate(65 2350)"><rect x="0" y="0" width="130" height="100" rx="10" ry="10" style="stroke: black; stroke-width: 2px; fill: white; fill-opacity: 0.95;"></rect><text lineHeight="1.2" class="djs-label" style="font-family: Arial, sans-serif; font-size: 12px; font-weight: normal; fill: black;"><tspan x="20.8125" y="46.4">Close Mudaraba </tspan><tspan x="12.810546875" y="60.8">facility arrangement</tspan></text></g><g class="djs-visual" id="Activity_0yddlvr" transform="translate(65 2510)"><rect x="0" y="0" width="130" height="100" rx="10" ry="10" style="stroke: black; stroke-width: 2px; fill: white; fill-opacity: 0.95;"></rect><text lineHeight="1.2" class="djs-label" style="font-family: Arial, sans-serif; font-size: 12px; font-weight: normal; fill: black;"><tspan x="24.31640625" y="53.599999999999994">Print statement</tspan></text></g><g class="djs-visual" id="Activity_1qtu6m8" transform="translate(65 2680)"><rect x="0" y="0" width="130" height="100" rx="10" ry="10" style="stroke: black; stroke-width: 2px; fill: white; fill-opacity: 0.95;"></rect><text lineHeight="1.2" class="djs-label" style="font-family: Arial, sans-serif; font-size: 12px; font-weight: normal; fill: black;"><tspan x="11.63671875" y="53.599999999999994">Generate statement</tspan></text></g><g class="djs-visual" id="Activity_1lshyqd" transform="translate(65 2820)"><rect x="0" y="0" width="130" height="100" rx="10" ry="10" style="stroke: black; stroke-width: 2px; fill: white; fill-opacity: 0.95;"></rect><text lineHeight="1.2" class="djs-label" style="font-family: Arial, sans-serif; font-size: 12px; font-weight: normal; fill: black;"><tspan x="19.146484375" y="39.2">Obtain Customer </tspan><tspan x="5.79296875" y="53.6">signature &amp; hand&nbsp;over</tspan><tspan x="52.3203125" y="68">copy</tspan></text></g><g class="djs-visual" id="Event_1995eyy" transform="translate(112 2962)"><circle cx="18" cy="18" r="18" style="stroke: black; stroke-width: 4px; fill: white; fill-opacity: 0.95;"></circle></g><g class="djs-visual" id="Event_1995eyy_label" transform="translate(86 3005)"><text lineHeight="1.2" class="djs-label" style="font-family: Arial, sans-serif; font-size: 11px; font-weight: normal; fill: black;"><tspan x="2.815673828125" y="9.899999999999999">Mudaraba facility </tspan><tspan x="0" y="23.099999999999998">closure completed</tspan></text></g><g class="djs-visual" id="DataObjectReference_0mw8jsa" transform="translate(-38 105)"><path d="m 0,0 28.23529411764706,0 7.058823529411765,8.196721311475411 0,40.98360655737705 -35.294117647058826,0 0,-49.18032786885246 28.23529411764706,0 0,8.196721311475411 7.058823529411765,0" style="fill: white; stroke-width: 2px; stroke: black; fill-opacity: 0.95;"></path></g><g class="djs-visual" id="DataObjectReference_0mw8jsa_label" transform="translate(-50 162)"><text lineHeight="1.2" class="djs-label" style="font-family: Arial, sans-serif; font-size: 11px; font-weight: normal; fill: black;"><tspan x="0" y="9.899999999999999">Amendment </tspan><tspan x="8.66845703125" y="23.099999999999998">Request</tspan></text></g><g class="djs-visual" id="Activity_0ygggrr" transform="translate(395 530)"><rect x="0" y="0" width="130" height="100" rx="10" ry="10" style="stroke: black; stroke-width: 2px; fill: white; fill-opacity: 0.95;"></rect><text lineHeight="1.2" class="djs-label" style="font-family: Arial, sans-serif; font-size: 12px; font-weight: normal; fill: black;"><tspan x="21.1533203125" y="39.2">Inform customer </tspan><tspan x="13.466796875" y="53.6">about unsuccessful </tspan><tspan x="27.474609375" y="68">authentication</tspan></text></g><g class="djs-visual" id="Event_0nom81x" transform="translate(442 663)"><circle cx="18" cy="18" r="18" style="stroke: black; stroke-width: 4px; fill: white; fill-opacity: 0.95;"></circle></g><g class="djs-visual" id="Event_0nom81x_label" transform="translate(414 706)"><text lineHeight="1.2" class="djs-label" style="font-family: Arial, sans-serif; font-size: 11px; font-weight: normal; fill: black;"><tspan x="0" y="9.899999999999999">Customer informed </tspan><tspan x="18.328125" y="23.099999999999998">about failed </tspan><tspan x="12.5234375" y="36.3">authentication</tspan></text></g><g class="djs-visual" id="DataObjectReference_1a5ijx2" transform="translate(242 2845)"><path d="m 0,0 28.23529411764706,0 7.058823529411765,8.196721311475411 0,40.98360655737705 -35.294117647058826,0 0,-49.18032786885246 28.23529411764706,0 0,8.196721311475411 7.058823529411765,0" style="fill: white; stroke-width: 2px; stroke: black; fill-opacity: 0.95;"></path></g><g class="djs-visual" id="DataObjectReference_1a5ijx2_label" transform="translate(235 2902)"><text lineHeight="1.2" class="djs-label" style="font-family: Arial, sans-serif; font-size: 11px; font-weight: normal; fill: black;"><tspan x="0" y="9.899999999999999">Statement</tspan></text></g><g class="djs-visual" id="DataObjectReference_1cctqht" transform="translate(242 2705)"><path d="m 0,0 28.23529411764706,0 7.058823529411765,8.196721311475411 0,40.98360655737705 -35.294117647058826,0 0,-49.18032786885246 28.23529411764706,0 0,8.196721311475411 7.058823529411765,0" style="fill: white; stroke-width: 2px; stroke: black; fill-opacity: 0.95;"></path></g><g class="djs-visual" id="DataObjectReference_1cctqht_label" transform="translate(235 2762)"><text lineHeight="1.2" class="djs-label" style="font-family: Arial, sans-serif; font-size: 11px; font-weight: normal; fill: black;"><tspan x="0" y="9.899999999999999">Statement</tspan></text></g><g class="djs-visual" id="TextAnnotation_00zvee7" transform="translate(220 30)"><rect x="0" y="0" width="130" height="40" rx="0" ry="0" style="stroke: none; stroke-width: 2px; fill: none;"></rect><path d="m 0, 0 m 10,0 l -10,0 l 0,40 l 10,0" style="fill: none; stroke-width: 2px; stroke: black;"></path><text lineHeight="1.2" class="djs-label" style="font-family: Arial, sans-serif; font-size: 12px; font-weight: normal; fill: black;"><tspan x="5" y="15.799999999999999">- Account number</tspan><tspan x="5" y="30.199999999999996">- Name</tspan></text></g><g class="djs-visual" id="TextAnnotation_0b4v8yp" transform="translate(220 220)"><rect x="0" y="0" width="100" height="41" rx="0" ry="0" style="stroke: none; stroke-width: 2px; fill: none;"></rect><path d="m 0, 0 m 10,0 l -10,0 l 0,41 l 10,0" style="fill: none; stroke-width: 2px; stroke: black;"></path><text lineHeight="1.2" class="djs-label" style="font-family: Arial, sans-serif; font-size: 12px; font-weight: normal; fill: black;"><tspan x="5" y="15.799999999999999">Verify signature</tspan><tspan x="5" y="30.199999999999996">&amp; mandates</tspan></text></g><g class="djs-visual" id="TextAnnotation_0ucrth8" transform="translate(220 660)"><rect x="0" y="0" width="100" height="41" rx="0" ry="0" style="stroke: none; stroke-width: 2px; fill: none;"></rect><path d="m 0, 0 m 10,0 l -10,0 l 0,41 l 10,0" style="fill: none; stroke-width: 2px; stroke: black;"></path><text lineHeight="1.2" class="djs-label" style="font-family: Arial, sans-serif; font-size: 12px; font-weight: normal; fill: black;"><tspan x="5" y="15.799999999999999">Input the </tspan><tspan x="5" y="30.199999999999996">Closure Date</tspan></text></g><g class="djs-visual" id="TextAnnotation_10icpe1" transform="translate(220 980)"><rect x="0" y="0" width="100" height="41" rx="0" ry="0" style="stroke: none; stroke-width: 2px; fill: none;"></rect><path d="m 0, 0 m 10,0 l -10,0 l 0,41 l 10,0" style="fill: none; stroke-width: 2px; stroke: black;"></path><text lineHeight="1.2" class="djs-label" style="font-family: Arial, sans-serif; font-size: 12px; font-weight: normal; fill: black;"><tspan x="5" y="15.799999999999999">In Simulation </tspan><tspan x="5" y="30.199999999999996">results</tspan></text></g><g class="djs-visual" id="TextAnnotation_04wc4up" transform="translate(215 1260)"><rect x="0" y="0" width="140" height="55" rx="0" ry="0" style="stroke: none; stroke-width: 2px; fill: none;"></rect><path d="m 0, 0 m 10,0 l -10,0 l 0,55 l 10,0" style="fill: none; stroke-width: 2px; stroke: black;"></path><text lineHeight="1.2" class="djs-label" style="font-family: Arial, sans-serif; font-size: 12px; font-weight: normal; fill: black;"><tspan x="5" y="15.799999999999999">Mudaraba facility and </tspan><tspan x="5" y="30.199999999999996">underlying Drawdown </tspan><tspan x="5" y="44.599999999999994">outstanding</tspan></text></g><g class="djs-visual" id="TextAnnotation_1rk89sp" transform="translate(220 1400)"><rect x="0" y="0" width="130" height="55" rx="0" ry="0" style="stroke: none; stroke-width: 2px; fill: none;"></rect><path d="m 0, 0 m 10,0 l -10,0 l 0,55 l 10,0" style="fill: none; stroke-width: 2px; stroke: black;"></path><text lineHeight="1.2" class="djs-label" style="font-family: Arial, sans-serif; font-size: 12px; font-weight: normal; fill: black;"><tspan x="5" y="15.799999999999999">- Credit Acc number</tspan><tspan x="5" y="30.199999999999996">- Debit Acc number</tspan><tspan x="5" y="44.599999999999994">- Amount</tspan></text></g><g class="djs-visual" id="TextAnnotation_1xvqdx2" transform="translate(220 1570)"><rect x="0" y="0" width="100" height="30" rx="0" ry="0" style="stroke: none; stroke-width: 2px; fill: none;"></rect><path d="m 0, 0 m 10,0 l -10,0 l 0,30 l 10,0" style="fill: none; stroke-width: 2px; stroke: black;"></path><text lineHeight="1.2" class="djs-label" style="font-family: Arial, sans-serif; font-size: 12px; font-weight: normal; fill: black;"><tspan x="5" y="15.799999999999999">Maker/ Checker</tspan></text></g><g class="djs-visual" id="TextAnnotation_0eihhxq" transform="translate(220 1880)"><rect x="0" y="0" width="190" height="84" rx="0" ry="0" style="stroke: none; stroke-width: 2px; fill: none;"></rect><path d="m 0, 0 m 10,0 l -10,0 l 0,84 l 10,0" style="fill: none; stroke-width: 2px; stroke: black;"></path><text lineHeight="1.2" class="djs-label" style="font-family: Arial, sans-serif; font-size: 12px; font-weight: normal; fill: black;"><tspan x="5" y="15.799999999999999">Mudaraba facility payoff will be </tspan><tspan x="5" y="30.199999999999996">through</tspan><tspan x="5" y="44.599999999999994">TPH/ External (integration </tspan><tspan x="5" y="58.99999999999999">framework) depending on </tspan><tspan x="5" y="73.39999999999999">parameter setup</tspan></text></g><g class="djs-visual" id="DataInputAssociation_0rpd55o" transform="translate(0 0)"><polyline points="-2,130 65,130 " style="fill: none; stroke: black; stroke-width: 2px; stroke-dasharray: 0.5, 5; stroke-linecap: round; stroke-linejoin: round; marker-end: url(&quot;#association-end-white-black-8scetxbojrtk7v4fycnwisl23&quot;);"></polyline></g><g class="djs-visual" id="DataOutputAssociation_1bt03lk" transform="translate(0 0)"><polyline points="195,2730 242,2730 " style="fill: none; stroke: black; stroke-width: 2px; stroke-dasharray: 0.5, 5; stroke-linecap: round; stroke-linejoin: round; marker-end: url(&quot;#association-end-white-black-8scetxbojrtk7v4fycnwisl23&quot;);"></polyline></g><g class="djs-visual" id="DataOutputAssociation_0cxkw1o" transform="translate(0 0)"><polyline points="195,2870 242,2870 " style="fill: none; stroke: black; stroke-width: 2px; stroke-dasharray: 0.5, 5; stroke-linecap: round; stroke-linejoin: round; marker-end: url(&quot;#association-end-white-black-8scetxbojrtk7v4fycnwisl23&quot;);"></polyline></g><g class="djs-visual" id="Flow_1q05s5j_label" transform="translate(138 1210)"><text lineHeight="1.2" class="djs-label" style="font-family: Arial, sans-serif; font-size: 11px; font-weight: normal; fill: black;"><tspan x="0" y="9.899999999999999">Mudaraba facility </tspan><tspan x="2.989013671875" y="23.099999999999998">has outstanding </tspan><tspan x="22.551513671875" y="36.3">balance</tspan></text></g><g class="djs-visual" id="Flow_1uccgtb_label" transform="translate(461 1193)"><text lineHeight="1.2" class="djs-label" style="font-family: Arial, sans-serif; font-size: 11px; font-weight: normal; fill: black;"><tspan x="7.409423828125" y="9.899999999999999">Mudaraba facility </tspan><tspan x="14.671875" y="23.099999999999998">does not have </tspan><tspan x="0" y="36.3">outstanding balance</tspan></text></g><g class="djs-visual" id="Flow_0c960qt_label" transform="translate(136 476)"><text lineHeight="1.2" class="djs-label" style="font-family: Arial, sans-serif; font-size: 11px; font-weight: normal; fill: black;"><tspan x="8.523193359375" y="9.899999999999999">Customer </tspan><tspan x="0" y="23.099999999999998">authenticated</tspan></text></g><g class="djs-visual" id="Flow_1q8d0ew_label" transform="translate(466 476)"><text lineHeight="1.2" class="djs-label" style="font-family: Arial, sans-serif; font-size: 11px; font-weight: normal; fill: black;"><tspan x="0" y="9.899999999999999">Customer not </tspan><tspan x="0.4541015625" y="23.099999999999998">authenticated</tspan></text></g><g class="djs-visual" id="Association_16oqbev" transform="translate(0 0)"><polyline points="191,82 220,60 " style="fill: none; stroke: black; stroke-width: 2px; stroke-dasharray: 0.5, 5; stroke-linecap: round; stroke-linejoin: round;"></polyline></g><g class="djs-visual" id="Association_0yprpks" transform="translate(0 0)"><polyline points="191,263 220,241 " style="fill: none; stroke: black; stroke-width: 2px; stroke-dasharray: 0.5, 5; stroke-linecap: round; stroke-linejoin: round;"></polyline></g><g class="djs-visual" id="Association_095mq2f" transform="translate(0 0)"><polyline points="191,712 220,690 " style="fill: none; stroke: black; stroke-width: 2px; stroke-dasharray: 0.5, 5; stroke-linecap: round; stroke-linejoin: round;"></polyline></g><g class="djs-visual" id="Association_0up8dqy" transform="translate(0 0)"><polyline points="195,1020 220,1009 " style="fill: none; stroke: black; stroke-width: 2px; stroke-dasharray: 0.5, 5; stroke-linecap: round; stroke-linejoin: round;"></polyline></g><g class="djs-visual" id="Association_1fmr9ng" transform="translate(0 0)"><polyline points="195,1280 215,1269 " style="fill: none; stroke: black; stroke-width: 2px; stroke-dasharray: 0.5, 5; stroke-linecap: round; stroke-linejoin: round;"></polyline></g><g class="djs-visual" id="Association_1aclert" transform="translate(0 0)"><polyline points="194,1446 220,1428 " style="fill: none; stroke: black; stroke-width: 2px; stroke-dasharray: 0.5, 5; stroke-linecap: round; stroke-linejoin: round;"></polyline></g><g class="djs-visual" id="Association_1pp533n" transform="translate(0 0)"><polyline points="194,1617 220,1600 " style="fill: none; stroke: black; stroke-width: 2px; stroke-dasharray: 0.5, 5; stroke-linecap: round; stroke-linejoin: round;"></polyline></g><g class="djs-visual" id="Association_1gqhtl2" transform="translate(0 0)"><polyline points="192,1954 220,1933 " style="fill: none; stroke: black; stroke-width: 2px; stroke-dasharray: 0.5, 5; stroke-linecap: round; stroke-linejoin: round;"></polyline></g></g><g><rect class="viewport" x="-3818.2159624413143" y="-65.88732394366198" width="8145.539906103287" height="3098.5915492957747"></rect></g></svg>