<svg xmlns:dc="http://purl.org/dc/elements/1.1/" xmlns:cc="http://creativecommons.org/ns#" xmlns:rdf="http://www.w3.org/1999/02/22-rdf-syntax-ns#" xmlns:svg="http://www.w3.org/2000/svg" xmlns="http://www.w3.org/2000/svg" version="1.1" id="Layer_1" x="0px" y="0px" width="59.716412" height="57.299698" viewBox="0 0 128.13128 155.41562" enable-background="new 0 0 1311 792" xml:space="preserve"><metadata id="metadata15"><rdf:rdf><cc:work rdf:about=""><dc:format>image/svg+xml</dc:format><dc:type rdf:resource="http://purl.org/dc/dcmitype/StillImage"></dc:type><dc:title></dc:title></cc:work></rdf:rdf></metadata><defs id="defs13"></defs><g id="g3" transform="translate(-668.10013,-318.75909)"><g id="g5"><path class="triangle" d="m 687.064,430.142 c -0.732,0.142 -1.869,-0.564 -1.954,0.934 -0.888,-0.043 -1.007,0.514 -0.944,1.213 l 0.004,0 c -0.374,0.267 -0.691,0.59 -0.966,0.958 l 0.008,0.004 c -0.378,0.26 -0.686,0.592 -0.98,0.938 l 0.007,0.011 c -0.697,-0.097 -1.079,0.146 -0.979,0.908 -0.304,0.026 -0.607,0.052 -0.912,0.078 -0.484,0.188 -0.905,0.458 -1.153,0.938 -0.361,0.302 -0.735,0.591 -1.014,0.979 l 0.009,0.004 c -0.377,0.349 -0.657,0.781 -0.999,1.159 l 0.003,0.01 c -0.357,0.28 -0.675,0.601 -0.962,0.953 l 0.006,0.01 c -0.695,-0.108 -1.052,0.165 -1.003,0.893 -0.373,0.035 -0.745,0.071 -1.118,0.106 -0.405,0.231 -0.717,0.56 -0.971,0.947 l 0.003,0.01 c -0.407,0.234 -0.701,0.581 -0.949,0.971 -0.411,0.23 -0.726,0.558 -0.973,0.954 -0.019,0.07 -0.021,0.141 -0.005,0.212 l -0.051,-0.031 c -0.384,0.339 -0.764,0.684 -1.192,0.968 -0.727,-0.093 -0.711,0.425 -0.744,0.902 -0.373,0.036 -0.745,0.072 -1.118,0.108 -0.407,0.229 -0.714,0.563 -0.978,0.941 l 0.005,0.009 c -0.444,-0.014 -0.797,-0.123 -0.754,-0.682 0.015,-0.199 -10e-4,-0.399 -10e-4,-0.6 0,-27.702 10e-4,-55.404 0.002,-83.106 0,-0.2 0.009,-0.399 0.014,-0.599 0.246,-0.01 0.493,-0.02 0.739,-0.029 l -0.004,0.006 c 0.257,0.385 0.575,0.708 0.967,0.956 0.3,0.018 0.6,0.037 0.899,0.055 0.312,0.326 0.187,1.097 0.965,0.946 0.289,0.445 0.332,1.197 1.179,0.946 0.035,0.063 0.069,0.127 0.104,0.191 0.203,0.431 0.563,0.709 0.947,0.964 0.233,0.413 0.563,0.731 0.971,0.97 0.234,0.506 0.736,0.695 1.161,0.975 0.301,0.029 0.602,0.059 0.903,0.088 0.027,0.481 0.015,0.996 0.741,0.904 0.437,0.277 0.812,0.635 1.221,0.947 l -0.006,0.009 c 0.285,0.354 0.604,0.673 0.96,0.956 l 0.008,-0.006 c 0.233,0.509 0.636,0.874 1.053,1.227 0.407,0.708 1.165,0.728 1.83,0.93 0.07,0.011 0.139,0.03 0.204,0.059 -0.079,0.751 0.29,1.011 0.992,0.906 l -0.008,0.012 c 0.287,0.351 0.604,0.671 0.962,0.952 l 0,0.003 c 0.294,0.348 0.6,0.684 0.982,0.938 l -0.01,0.007 c 0.339,0.42 0.555,0.949 1.068,1.215 0.396,0.716 1.141,0.763 1.814,0.942 0.074,0.009 0.144,0.032 0.208,0.067 -0.104,0.786 0.321,0.978 0.997,0.888 l -0.011,0.011 c 0.276,0.365 0.592,0.69 0.968,0.954 l -0.007,0.004 c 0.274,0.368 0.592,0.691 0.966,0.958 l -0.002,-10e-4 c 0.262,0.374 0.592,0.682 0.932,0.981 0.021,0.061 0.036,0.123 0.048,0.186 0.299,0.448 0.698,0.774 1.194,0.983 0.305,0.027 0.61,0.054 0.915,0.081 -0.139,0.781 0.39,0.896 0.964,0.967 -0.099,0.79 0.325,0.975 1.003,0.866 10e-4,0 -0.004,0.002 -0.004,0.002 0.257,0.385 0.575,0.708 0.966,0.959 l -0.008,0.003 c 0.253,0.386 0.583,0.698 0.949,0.976 l -0.002,0 c 0.15,0.489 0.622,0.659 0.957,0.963 l 0.004,-0.006 c 0.621,0.425 1.047,1.167 1.92,1.185 0.063,0.013 0.124,0.028 0.185,0.045 -0.076,0.738 0.338,0.983 0.992,0.986 -0.094,0.727 0.266,0.992 0.946,0.932 -0.049,0.688 0.232,1.049 0.959,0.969 -0.044,0.694 0.259,1.039 0.975,0.966 -0.107,0.972 0.52,0.993 1.208,0.933 0.239,0.008 0.479,0.017 0.718,0.025 0.256,0.487 0.34,1.185 1.178,0.955 l 0.003,0.015 c 0.345,0.368 0.517,0.896 1.027,1.111 0.235,0.41 0.563,0.732 0.96,0.984 0.062,0.021 0.125,0.035 0.188,0.046 0.297,0.342 0.613,0.663 0.97,0.944 l -0.01,0.017 c 0.299,0.339 0.612,0.664 0.976,0.937 0.23,0.007 0.461,0.014 0.69,0.02 0.26,0.497 0.384,1.148 1.182,1.021 0.026,0.286 0.053,0.573 0.08,0.859 0.905,-0.039 1.284,0.791 1.936,1.172 0.211,0.534 0.754,0.688 1.151,1.01 l -0.005,0.007 c 0.282,0.355 0.603,0.675 0.956,0.959 l 0.008,-0.005 c 0.259,0.32 0.255,0.644 0.014,0.971 l -0.005,-0.006 c -0.372,0.266 -0.685,0.593 -0.973,0.946 l 0.008,0.009 c -0.689,-0.045 -1.258,0.063 -1.203,0.955 -0.827,-0.061 -0.992,0.462 -0.996,1.127 -0.641,-0.002 -1.021,0.264 -0.98,0.959 -0.646,-0.002 -1.049,0.231 -0.939,0.965 -0.3,0.031 -0.6,0.062 -0.899,0.093 -0.391,0.246 -0.694,0.585 -0.987,0.935 l 10e-4,0.003 c -0.685,-0.039 -1.332,-0.029 -1.206,0.955 -0.661,-0.015 -0.982,0.305 -0.95,0.969 -0.353,0.295 -0.701,0.594 -0.93,1.003 -0.019,0.068 -0.046,0.133 -0.081,0.193 -0.863,-0.274 -0.887,0.501 -1.178,0.942 -0.229,0.007 -0.459,0.015 -0.689,0.022 -0.367,0.27 -0.678,0.597 -0.979,0.934 l -0.007,0.007 c -0.698,-0.028 -1.352,-0.007 -1.152,0.999 l -0.003,-0.004 c -0.384,0.263 -0.713,0.576 -0.942,0.986 -0.385,0.254 -0.743,0.533 -0.947,0.965 -0.032,0.063 -0.064,0.124 -0.095,0.188 -0.541,-0.061 -1.001,-0.017 -0.919,0.719 -0.978,-0.204 -0.948,0.647 -1.229,1.173 -0.233,0.008 -0.467,0.015 -0.7,0.022 -0.717,-0.056 -1.354,-0.019 -1.165,0.99 l -0.003,-0.003 c -0.386,0.256 -0.705,0.579 -0.964,0.961 l 0.008,0.004 c -0.39,0.251 -0.71,0.573 -0.964,0.96 l 0.009,0.014 c -0.727,-0.123 -1.115,0.12 -0.991,0.916 -0.62,-0.02 -1.094,0.122 -0.992,0.898 -0.328,0.022 -0.558,0.384 -0.925,0.271 -0.771,-0.104 -0.821,0.642 -1.192,1.009 l 0.007,0.004 c -0.379,0.263 -0.702,0.581 -0.958,0.966 l 0.006,0.002 c -0.392,0.246 -0.699,0.581 -0.979,0.943 l 0.006,0.004 c -0.375,0.265 -0.692,0.589 -0.967,0.956 l 0.016,0.019 c -0.707,-0.101 -1.095,0.151 -1.016,0.919 -0.062,0.01 -0.122,0.023 -0.183,0.033 z" style="clip-rule:evenodd;fill:#ac3235;fill-rule:evenodd"></path></g><g id="g8"><path class="circularO" d="m 796.194,373.319 c 0.012,0.295 0.024,0.59 0.036,0.885 0.24,0.244 0.314,0.548 0.323,0.876 0.014,0.353 10e-4,0.706 -0.005,1.058 -0.08,0.521 0.133,0.871 0.626,1.058 0.09,0.072 0.155,0.16 0.205,0.262 0.103,0.275 0.116,0.563 0.126,0.851 0.008,0.282 10e-4,0.563 0.004,0.845 -0.07,0.516 0.323,0.76 0.62,1.061 l 0.053,-0.029 c 0.22,0.278 0.302,0.6 0.3,0.948 0.019,0.387 0.019,0.775 0.006,1.163 -0.038,0.794 -0.06,1.583 0.781,2.046 0.174,0.317 0.174,0.665 0.185,1.011 0.013,0.838 -0.027,1.677 0.054,2.513 0.046,0.474 0.077,0.929 0.483,1.298 0.452,0.409 0.423,1.005 0.424,1.568 0.004,2.554 -10e-4,5.107 0.005,7.661 -0.007,0.959 -0.005,1.917 -0.002,2.876 -0.051,0.635 0.122,1.298 -0.222,1.897 -0.71,0.525 -0.781,1.272 -0.739,2.074 0.031,0.582 -0.013,1.167 -0.008,1.75 -0.006,0.327 0.002,0.655 -0.077,0.975 -0.033,0.122 -0.088,0.234 -0.16,0.337 -0.858,0.422 -0.747,1.209 -0.728,1.96 0.019,0.318 0.007,0.637 0.004,0.955 0.016,0.416 -0.036,0.814 -0.313,1.15 l -0.05,-0.028 c -0.652,0.476 -0.66,1.167 -0.619,1.873 -0.005,0.284 -0.019,0.567 -0.106,0.841 -0.044,0.105 -0.107,0.198 -0.189,0.278 -0.413,0.197 -0.742,0.452 -0.67,0.982 0.002,0.281 0.009,0.562 0.006,0.844 -0.004,0.292 -0.024,0.58 -0.139,0.854 -0.072,0.154 -0.223,0.243 -0.316,0.379 -0.273,0.224 -0.569,0.433 -0.602,0.833 -0.108,0.357 -0.146,0.738 -0.347,1.065 -0.673,0.417 -0.629,1.189 -0.893,1.81 -0.054,0.097 -0.127,0.177 -0.214,0.244 -0.879,0.383 -0.552,1.147 -0.571,1.803 -0.033,0.173 -0.135,0.293 -0.285,0.376 -0.401,0.125 -0.77,0.28 -0.727,0.808 -0.01,0.273 -0.019,0.546 -0.112,0.806 -0.044,0.1 -0.109,0.184 -0.19,0.254 -0.471,0.187 -0.721,0.514 -0.657,1.041 -0.006,0.293 -0.085,0.56 -0.278,0.785 l -0.009,-0.012 c -0.375,0.271 -0.702,0.588 -0.936,0.994 -0.785,0.342 -0.846,1.08 -0.974,1.78 -0.026,0.105 -0.067,0.205 -0.12,0.3 -0.355,0.305 -0.669,0.649 -0.943,1.031 -0.082,0.071 -0.173,0.128 -0.27,0.177 -0.772,0.276 -0.455,1.017 -0.653,1.535 -0.049,0.095 -0.108,0.185 -0.176,0.267 -0.373,0.169 -0.709,0.378 -0.829,0.809 -0.056,0.089 -0.129,0.16 -0.217,0.218 -0.412,0.137 -0.62,0.474 -0.807,0.831 -0.3,0.24 -0.715,0.358 -0.83,0.794 -0.043,0.099 -0.1,0.187 -0.165,0.271 -0.392,0.301 -0.783,0.6 -1.032,1.039 -0.074,0.078 -0.158,0.144 -0.248,0.201 -0.31,0.144 -0.42,0.438 -0.544,0.723 -0.058,0.093 -0.135,0.164 -0.229,0.219 -0.395,0.12 -0.796,0.23 -0.938,0.695 -0.055,0.095 -0.126,0.173 -0.215,0.238 -0.372,0.139 -0.646,0.374 -0.771,0.762 -0.058,0.094 -0.135,0.167 -0.227,0.225 -0.459,0.133 -0.619,0.498 -0.711,0.917 -0.047,0.098 -0.114,0.178 -0.197,0.245 -0.324,0.15 -0.659,0.286 -0.813,0.65 -0.09,0.13 -0.2,0.238 -0.328,0.328 -0.443,0.186 -0.599,0.662 -0.946,0.945 -0.391,0.184 -0.507,0.588 -0.728,0.91 -0.084,0.065 -0.176,0.116 -0.275,0.154 -0.458,0.075 -0.7,0.421 -0.953,0.755 l 0.014,0.013 c -0.235,0.181 -0.505,0.26 -0.798,0.265 -0.437,-0.021 -0.797,0.094 -0.966,0.549 -0.052,0.09 -0.12,0.165 -0.2,0.229 -0.385,0.147 -0.682,0.379 -0.781,0.805 -0.049,0.097 -0.112,0.181 -0.188,0.257 -0.492,0.463 -1.347,0.101 -1.745,0.775 -0.344,0.423 -1.008,0.496 -1.189,1.096 -0.062,0.095 -0.144,0.168 -0.24,0.226 -0.254,0.113 -0.525,0.126 -0.797,0.136 -0.46,-0.037 -0.736,0.195 -0.89,0.609 -0.058,0.088 -0.131,0.159 -0.218,0.218 -0.413,0.134 -0.623,0.503 -0.906,0.786 l 0.021,0.033 c -0.235,0.2 -0.512,0.282 -0.813,0.295 -0.538,-0.07 -0.829,0.288 -1.117,0.65 l 0.024,0.033 c -0.09,0.062 -0.184,0.118 -0.28,0.17 -0.591,0.176 -1.36,-0.109 -1.715,0.671 -0.067,0.085 -0.151,0.151 -0.248,0.201 -0.274,0.175 -0.6,0.197 -0.896,0.305 -0.444,0.054 -0.703,0.392 -1.006,0.663 -0.098,0.06 -0.199,0.104 -0.31,0.135 -1.281,-0.07 -2.398,0.356 -3.404,1.121 -0.11,0.04 -0.225,0.067 -0.34,0.088 -0.723,0.039 -1.486,-0.025 -1.908,0.767 -0.252,0.183 -0.544,0.222 -0.842,0.237 -0.72,0.107 -1.588,-0.334 -2.095,0.568 -0.071,0.098 -0.16,0.175 -0.264,0.236 -0.283,0.128 -0.585,0.147 -0.888,0.156 -0.29,0.011 -0.58,0.002 -0.87,0.006 -0.619,-0.1 -0.748,0.506 -1.11,0.777 -0.275,0.171 -0.581,0.188 -0.89,0.191 -0.379,0.003 -0.757,0.001 -1.136,0.002 -0.957,0.142 -2.07,-0.439 -2.833,0.613 -0.104,0.09 -0.225,0.135 -0.361,0.136 -0.968,0.082 -1.923,0.308 -2.901,0.221 -0.654,-0.004 -1.308,-0.002 -1.961,0.003 -4.263,0.308 -8.525,0.071 -12.787,0 -0.723,-0.043 -1.457,0.089 -2.167,-0.139 -0.324,-0.14 -0.677,-0.043 -1.008,-0.116 -0.761,-1.062 -1.896,-0.614 -2.896,-0.714 -0.577,-0.01 -1.157,0.04 -1.724,-0.108 -0.116,-0.041 -0.22,-0.105 -0.311,-0.189 -0.462,-0.926 -1.323,-0.64 -2.078,-0.678 -0.297,0.005 -0.593,0.002 -0.89,-0.005 -0.304,-0.006 -0.606,-0.021 -0.894,-0.13 -0.105,-0.05 -0.196,-0.121 -0.272,-0.21 -0.396,-0.85 -1.169,-0.587 -1.843,-0.619 -0.295,0.002 -0.589,-0.005 -0.875,-0.081 -0.111,-0.035 -0.214,-0.089 -0.309,-0.158 -0.371,-0.819 -1.103,-0.749 -1.813,-0.726 -0.286,-0.005 -0.571,-0.019 -0.846,-0.109 -0.103,-0.043 -0.192,-0.107 -0.271,-0.187 -0.192,-0.46 -0.518,-0.755 -1.032,-0.812 -0.977,-0.42 -1.853,-1.078 -2.937,-1.244 -0.354,-0.754 -1.075,-0.776 -1.757,-0.877 -0.102,-0.043 -0.191,-0.103 -0.27,-0.18 -0.28,-0.86 -1.091,-0.606 -1.689,-0.799 -0.099,-0.046 -0.183,-0.11 -0.254,-0.192 -0.199,-0.49 -0.559,-0.717 -1.091,-0.656 -0.276,-0.005 -0.551,-0.016 -0.813,-0.109 -0.099,-0.044 -0.183,-0.109 -0.254,-0.19 -0.183,-0.47 -0.507,-0.721 -1.032,-0.658 -0.292,-0.011 -0.562,-0.079 -0.773,-0.294 l 0.015,-0.025 c -0.281,-0.25 -0.454,-0.626 -0.857,-0.731 -0.099,-0.043 -0.188,-0.102 -0.271,-0.17 -0.276,-0.298 -0.447,-0.711 -0.896,-0.821 -0.84,-0.06 -1.169,-0.945 -1.908,-1.166 -0.096,-0.049 -0.181,-0.113 -0.254,-0.191 -0.164,-0.379 -0.383,-0.707 -0.812,-0.829 -0.091,-0.059 -0.163,-0.134 -0.22,-0.224 -0.169,-0.455 -0.514,-0.615 -0.976,-0.583 -0.299,-0.003 -0.569,-0.085 -0.805,-0.271 l 0.01,-0.013 c -0.264,-0.377 -0.584,-0.697 -0.961,-0.962 l 0.004,-0.001 c -0.27,-0.411 -0.635,-0.697 -1.106,-0.847 -0.158,-0.111 -0.258,-0.263 -0.319,-0.443 -0.124,-0.666 -0.188,-1.32 0.372,-1.847 0.231,-0.244 0.539,-0.27 0.846,-0.292 0.437,0.019 0.816,-0.069 0.99,-0.54 0.055,-0.094 0.124,-0.172 0.21,-0.238 0.356,-0.146 0.653,-0.352 0.771,-0.744 0.054,-0.096 0.127,-0.173 0.218,-0.235 0.375,-0.132 0.634,-0.381 0.761,-0.761 0.058,-0.092 0.134,-0.164 0.223,-0.223 0.425,-0.14 0.622,-0.487 0.784,-0.867 0.326,-0.345 0.742,-0.591 1.045,-0.962 0.365,-0.108 0.693,-0.318 1.073,-0.381 0.425,-0.049 0.774,-0.206 0.928,-0.646 0.056,-0.093 0.127,-0.169 0.213,-0.231 0.35,-0.142 0.631,-0.353 0.753,-0.73 0.054,-0.095 0.126,-0.172 0.215,-0.234 0.35,-0.138 0.627,-0.35 0.745,-0.727 0.055,-0.096 0.127,-0.174 0.218,-0.236 0.379,-0.134 0.638,-0.388 0.769,-0.77 0.06,-0.092 0.138,-0.166 0.229,-0.226 0.502,-0.122 0.599,-0.721 1.051,-0.9 0.449,-0.154 0.714,-0.527 1.018,-0.855 l -0.012,-0.014 c 0.248,-0.228 0.545,-0.355 0.868,-0.43 0.413,-0.052 0.746,-0.215 0.892,-0.643 0.054,-0.092 0.124,-0.168 0.209,-0.231 0.36,-0.14 0.646,-0.355 0.765,-0.743 0.056,-0.096 0.13,-0.173 0.222,-0.234 0.383,-0.132 0.628,-0.4 0.767,-0.773 0.061,-0.088 0.141,-0.157 0.233,-0.21 0.563,-0.068 0.846,-0.493 1.139,-0.905 0.185,-0.134 0.397,-0.169 0.616,-0.188 0.52,0.038 0.923,-0.132 1.141,-0.638 0.279,-0.29 0.763,-0.387 0.829,-0.88 0.027,-0.104 0.068,-0.202 0.119,-0.297 0.061,-0.087 0.138,-0.158 0.229,-0.214 0.472,-0.131 0.698,-0.549 1.007,-0.871 0.389,-0.186 0.563,-0.547 0.742,-0.907 0.083,-0.081 0.177,-0.141 0.285,-0.183 0.354,-0.104 0.715,-0.104 1.078,-0.103 0.329,0 0.63,0.08 0.878,0.307 l -0.007,0.01 c 0.264,0.242 0.405,0.597 0.725,0.787 0.379,0.321 0.593,0.832 1.129,0.974 0.093,0.059 0.167,0.135 0.226,0.226 0.053,0.096 0.096,0.195 0.133,0.296 0.603,0.927 1.328,1.646 2.551,1.553 0.107,0.029 0.206,0.078 0.299,0.141 0.259,0.323 0.389,0.806 0.945,0.758 0.273,0.013 0.548,0.021 0.811,0.114 0.103,0.046 0.188,0.113 0.262,0.197 0.184,0.436 0.477,0.707 0.984,0.654 0.277,0.013 0.549,0.044 0.788,0.203 0.347,0.722 1,0.806 1.692,0.806 0.109,0.018 0.216,0.044 0.32,0.076 0.371,0.141 0.785,0.115 1.146,0.296 0.102,0.065 0.192,0.144 0.273,0.233 1.215,0.676 2.541,0.491 3.844,0.502 3.499,-0.016 6.995,0.505 10.489,-0.002 1.732,-0.006 3.522,0.275 5.01,-0.983 0.11,-0.05 0.229,-0.085 0.348,-0.109 0.727,-0.058 1.489,-0.034 1.905,-0.821 0.31,-0.202 0.66,-0.214 1.01,-0.227 0.543,0.079 0.832,-0.276 1.107,-0.653 l -0.021,-0.021 c 0.239,-0.179 0.51,-0.257 0.805,-0.262 0.494,0.044 0.83,-0.167 1.012,-0.629 0.067,-0.088 0.15,-0.157 0.25,-0.208 0.542,-0.23 1.327,0.092 1.616,-0.713 0.222,-0.432 0.757,-0.562 0.962,-1.008 0.059,-0.09 0.128,-0.17 0.206,-0.242 0.458,-0.253 0.892,-0.533 1.167,-0.999 l 0,0.004 c 0.375,-0.268 0.698,-0.585 0.957,-0.967 l -0.009,-0.009 c 0.395,-0.241 0.699,-0.578 0.979,-0.938 l 10e-4,0.002 c 0.364,-0.277 0.69,-0.592 0.952,-0.97 l 0.003,0.005 c 0.312,-0.259 0.662,-0.481 0.812,-0.889 0.387,-0.412 0.837,-0.767 1.151,-1.247 0.078,-0.076 0.167,-0.135 0.264,-0.184 0.403,-0.099 0.632,-0.375 0.767,-0.748 0.061,-0.09 0.14,-0.162 0.229,-0.222 0.779,-0.295 0.479,-1.055 0.685,-1.597 0.044,-0.097 0.106,-0.181 0.186,-0.251 0.363,-0.182 0.705,-0.379 0.665,-0.871 0.009,-0.269 0.008,-0.537 0.046,-0.804 0.02,-0.109 0.054,-0.215 0.102,-0.314 0.058,-0.093 0.135,-0.167 0.227,-0.227 0.443,-0.158 0.619,-0.488 0.596,-0.945 0.018,-0.229 0.063,-0.449 0.181,-0.649 0.78,-0.518 0.749,-1.365 0.87,-2.151 1.075,-1.42 1.012,-3.142 1.271,-4.778 0.02,-0.127 0.073,-0.238 0.16,-0.333 0.683,-0.39 0.577,-1.06 0.595,-1.684 0.015,-0.475 -0.005,-0.949 -0.007,-1.426 0,-0.557 -0.003,-1.111 -0.007,-1.666 -0.011,-2.222 0.031,-4.441 -0.028,-6.66 0.063,-0.974 0.046,-1.95 0.014,-2.927 -0.016,-0.484 -0.102,-0.936 -0.587,-1.189 -0.096,-0.089 -0.168,-0.196 -0.22,-0.316 -0.004,-1.404 -0.597,-2.627 -1.19,-3.85 -0.142,-0.782 -0.073,-1.645 -0.849,-2.182 -0.182,-0.246 -0.203,-0.533 -0.218,-0.822 0.045,-0.47 -0.148,-0.806 -0.572,-1.014 -0.102,-0.046 -0.179,-0.119 -0.238,-0.213 -0.117,-0.254 -0.127,-0.527 -0.138,-0.8 0.021,-0.422 -0.166,-0.708 -0.561,-0.859 -0.097,-0.055 -0.175,-0.128 -0.24,-0.217 -0.051,-0.095 -0.087,-0.195 -0.111,-0.3 -0.075,-0.535 0.062,-1.167 -0.646,-1.416 -0.093,-0.061 -0.168,-0.139 -0.229,-0.232 -0.41,-0.884 -1.066,-1.507 -1.97,-1.872 -0.032,-0.058 -0.058,-0.12 -0.073,-0.185 -0.222,-0.409 -0.581,-0.693 -0.904,-1.012 l -0.009,0.005 c -0.231,-0.207 -0.287,-0.482 -0.303,-0.772 0.02,-0.438 -0.104,-0.792 -0.558,-0.956 -0.091,-0.053 -0.166,-0.123 -0.229,-0.205 -0.139,-0.406 -0.416,-0.673 -0.818,-0.816 -0.088,-0.068 -0.154,-0.151 -0.204,-0.25 -0.139,-0.945 -0.943,-0.711 -1.528,-0.861 -0.102,-0.037 -0.191,-0.097 -0.27,-0.172 -0.22,-0.43 -0.561,-0.712 -1.035,-0.83 -0.097,-0.051 -0.174,-0.123 -0.237,-0.211 -0.135,-0.371 -0.373,-0.64 -0.758,-0.764 -0.093,-0.058 -0.168,-0.134 -0.228,-0.226 -0.148,-0.375 -0.393,-0.618 -0.827,-0.596 -0.273,-0.01 -0.546,-0.018 -0.807,-0.115 -0.101,-0.047 -0.185,-0.116 -0.254,-0.202 -0.154,-0.444 -0.44,-0.698 -0.939,-0.64 -0.287,-0.008 -0.571,-0.028 -0.84,-0.143 -0.158,-0.08 -0.287,-0.194 -0.398,-0.329 -0.638,-0.964 -1.723,-0.556 -2.582,-0.838 -0.101,-0.053 -0.195,-0.116 -0.284,-0.185 -0.588,-0.69 -1.401,-0.62 -2.187,-0.647 -0.32,-0.005 -0.617,-0.083 -0.88,-0.272 -0.813,-1.097 -1.995,-0.517 -3.02,-0.66 -3.133,0.015 -6.264,-0.033 -9.392,0.03 -0.695,-0.055 -1.393,-0.039 -2.091,-0.022 -0.502,0.012 -0.896,0.199 -1.167,0.627 -0.266,0.207 -0.571,0.295 -0.901,0.303 -0.121,0.008 -0.243,0.009 -0.363,0.007 -0.718,-0.009 -1.491,-0.17 -1.895,0.691 -0.295,0.214 -0.618,0.359 -0.975,0.427 -0.787,0.062 -1.609,0.03 -2.12,0.813 -0.196,0.12 -0.414,0.165 -0.639,0.186 -0.423,-0.003 -0.813,0.063 -1.011,0.511 -0.101,0.132 -0.223,0.238 -0.369,0.314 -0.202,0.09 -0.417,0.122 -0.635,0.134 -0.464,-0.012 -0.898,0.033 -1.086,0.562 -0.054,0.093 -0.124,0.17 -0.209,0.236 -0.358,0.145 -0.65,0.357 -0.771,0.747 -0.056,0.096 -0.13,0.173 -0.222,0.235 -0.384,0.132 -0.63,0.401 -0.768,0.776 -0.061,0.09 -0.14,0.163 -0.229,0.222 -0.593,0.328 -0.918,0.959 -1.481,1.319 -0.123,0.297 -0.352,0.515 -0.554,0.753 -0.421,0.188 -0.727,0.503 -0.972,0.886 l -0.015,-0.013 c -0.29,0.255 -0.644,0.45 -0.808,0.829 -0.052,0.092 -0.115,0.173 -0.191,0.245 -0.354,0.147 -0.645,0.357 -0.76,0.745 -0.056,0.095 -0.128,0.173 -0.219,0.234 -0.377,0.132 -0.633,0.384 -0.762,0.763 -0.058,0.09 -0.132,0.164 -0.222,0.222 -0.592,0.138 -0.597,0.605 -0.599,1.075 -0.01,0.224 -0.042,0.442 -0.129,0.65 -0.076,0.155 -0.188,0.279 -0.323,0.381 -0.412,0.203 -0.645,0.536 -0.704,0.992 -0.031,0.227 -0.063,0.454 -0.164,0.664 -0.057,0.107 -0.13,0.2 -0.218,0.283 -0.521,0.246 -1.06,0.196 -1.601,0.102 -0.108,-0.034 -0.21,-0.086 -0.301,-0.153 -0.225,-0.336 -0.372,-0.748 -0.827,-0.868 -0.091,-0.052 -0.166,-0.122 -0.227,-0.207 -0.133,-0.409 -0.425,-0.658 -0.817,-0.808 -0.084,-0.066 -0.151,-0.147 -0.205,-0.239 -0.23,-1.001 -1.187,-0.644 -1.787,-0.952 -0.476,-0.253 -0.667,-0.825 -1.17,-1.049 l 0.017,-0.019 c -0.246,-0.297 -0.433,-0.659 -0.835,-0.794 -0.092,-0.054 -0.169,-0.123 -0.233,-0.208 -0.143,-0.357 -0.352,-0.648 -0.741,-0.766 -0.096,-0.054 -0.172,-0.128 -0.234,-0.218 -0.132,-0.375 -0.382,-0.634 -0.762,-0.761 -0.09,-0.056 -0.162,-0.132 -0.221,-0.22 -0.158,-0.424 -0.459,-0.628 -0.918,-0.59 -0.275,-0.008 -0.549,-0.027 -0.799,-0.16 -0.43,-0.41 -0.826,-0.854 -1.274,-1.247 -0.248,-0.309 -0.371,-0.736 -0.813,-0.866 -0.094,-0.054 -0.172,-0.124 -0.237,-0.21 -0.143,-0.358 -0.352,-0.651 -0.742,-0.768 -0.096,-0.054 -0.173,-0.127 -0.235,-0.218 -0.131,-0.375 -0.38,-0.633 -0.759,-0.76 -0.09,-0.057 -0.164,-0.13 -0.222,-0.219 -0.156,-0.416 -0.445,-0.632 -0.903,-0.593 -0.271,-0.007 -0.538,-0.024 -0.787,-0.143 -0.372,-0.299 -0.648,-0.7 -1.033,-0.987 -0.357,-0.412 -0.736,-0.802 -1.183,-1.119 -0.076,-0.079 -0.137,-0.17 -0.187,-0.268 -0.102,-0.385 -0.358,-0.621 -0.726,-0.751 -0.094,-0.058 -0.168,-0.136 -0.228,-0.227 -0.146,-0.438 -0.548,-0.612 -0.882,-0.855 -0.211,-0.446 -0.513,-0.75 -1.06,-0.67 -0.365,-0.014 -0.726,-0.036 -0.99,-0.337 l -0.002,-0.01 c -0.305,-0.292 -0.54,-0.647 -0.857,-0.929 -0.278,-0.251 -0.412,-0.565 -0.425,-0.936 -0.021,-0.36 -0.011,-0.721 -0.004,-1.082 0.006,-0.238 0.028,-0.475 0.104,-0.702 0.044,-0.106 0.113,-0.194 0.204,-0.264 0.377,-0.361 0.905,-0.572 1.108,-1.109 0.299,-0.262 0.729,-0.387 0.859,-0.825 0.05,-0.092 0.114,-0.172 0.189,-0.243 0.339,-0.192 0.439,-0.533 0.542,-0.873 0.074,-0.149 0.187,-0.254 0.35,-0.299 0.403,0.021 0.714,-0.108 0.854,-0.52 0.055,-0.094 0.127,-0.171 0.215,-0.235 0.349,-0.141 0.632,-0.347 0.732,-0.737 0.044,-0.099 0.104,-0.188 0.174,-0.27 0.448,-0.291 0.774,-0.706 1.114,-1.106 0.385,-0.196 0.614,-0.547 0.868,-0.874 0.078,-0.073 0.167,-0.131 0.264,-0.178 0.383,-0.097 0.609,-0.356 0.736,-0.718 0.056,-0.091 0.131,-0.165 0.22,-0.224 0.424,-0.138 0.62,-0.499 0.823,-0.852 0.344,-0.224 0.719,-0.416 0.867,-0.842 0.061,-0.092 0.139,-0.164 0.233,-0.22 0.515,-0.302 1.35,0.164 1.632,-0.688 0.046,-0.098 0.105,-0.188 0.173,-0.272 0.501,-0.314 0.814,-0.826 1.259,-1.2 0.429,-0.141 0.674,-0.489 0.93,-0.826 l -0.007,-0.001 c 0.23,-0.197 0.503,-0.271 0.798,-0.278 0.463,0.03 0.81,-0.132 0.98,-0.59 0.058,-0.091 0.133,-0.166 0.221,-0.227 0.408,-0.152 0.636,-0.502 0.891,-0.822 l -0.021,-0.02 c 0.242,-0.18 0.517,-0.262 0.816,-0.269 0.5,0.038 0.824,-0.166 0.923,-0.677 0.042,-0.103 0.104,-0.191 0.182,-0.269 0.615,-0.278 1.524,0.449 1.921,-0.567 0.033,-0.106 0.078,-0.205 0.132,-0.3 0.066,-0.089 0.147,-0.159 0.246,-0.209 0.539,-0.232 1.317,0.104 1.626,-0.682 0.059,-0.095 0.133,-0.175 0.223,-0.24 0.096,-0.053 0.198,-0.09 0.305,-0.116 0.541,-0.109 1.209,0.095 1.511,-0.611 0.295,-0.313 0.679,-0.381 1.082,-0.399 0.494,0.045 0.831,-0.16 1.009,-0.626 0.067,-0.09 0.153,-0.16 0.253,-0.212 0.26,-0.104 0.534,-0.116 0.808,-0.13 0.597,0.078 0.707,-0.495 1.035,-0.778 0.256,-0.167 0.546,-0.183 0.837,-0.197 0.115,-0.008 0.232,-0.008 0.348,-0.007 0.74,0.057 1.466,0.075 1.879,-0.724 0.208,-0.136 0.437,-0.204 0.682,-0.221 1.039,-0.121 2.2,0.327 3.046,-0.673 0.095,-0.088 0.204,-0.153 0.324,-0.199 1.009,-0.227 2.148,0.159 3.042,-0.382 0.936,-0.566 1.92,-0.667 2.93,-0.813 0.253,-0.065 0.51,-0.096 0.771,-0.102 0.378,-0.015 0.757,-0.015 1.135,-0.005 0.708,-0.018 1.462,0.166 2.029,-0.473 0.134,-0.037 0.268,-0.05 0.406,-0.042 4.757,0.001 9.511,0 14.263,0 0.136,-0.007 0.271,0.006 0.403,0.041 0.858,0.785 1.918,0.357 2.888,0.469 0.319,-0.007 0.638,-0.01 0.956,0 0.319,-0.005 0.638,-0.008 0.957,10e-4 0.381,-0.003 0.761,-0.003 1.142,0.013 0.252,0.009 0.498,0.045 0.727,0.159 0.148,0.101 0.257,0.248 0.404,0.348 0.479,0.687 1.19,0.732 1.933,0.691 0.543,0.021 1.091,-0.061 1.622,0.11 0.106,0.054 0.207,0.12 0.302,0.193 0.521,0.874 1.384,0.624 2.161,0.655 0.308,0.011 0.609,0.043 0.875,0.218 0.477,0.92 1.346,0.716 2.135,0.741 0.237,0.015 0.469,0.053 0.67,0.192 0.35,0.302 0.521,0.871 1.145,0.764 0.358,0.009 0.715,0.021 1.03,0.221 0.413,0.761 1.167,0.763 1.887,0.84 0.771,0.056 1.26,0.717 1.965,0.915 0.324,0.094 0.654,0.166 0.973,0.278 0.096,0.052 0.191,0.104 0.288,0.156 0.302,0.372 0.646,0.677 1.159,0.707 0.842,0.014 1.061,0.897 1.69,1.207 0.339,0.781 1.088,0.715 1.743,0.84 0.1,0.042 0.188,0.102 0.265,0.177 0.225,0.541 0.641,0.749 1.209,0.69 0.219,0.015 0.431,0.055 0.616,0.18 0.253,0.545 0.75,0.83 1.225,1.137 0.218,0.338 0.485,0.619 0.884,0.747 0.089,0.059 0.16,0.132 0.217,0.221 0.153,0.43 0.478,0.643 0.914,0.712 0.87,0.032 1.126,0.943 1.803,1.254 0.4,0.59 1.033,0.979 1.391,1.602 0.203,0.156 0.459,0.183 0.687,0.282 0.094,0.053 0.168,0.124 0.228,0.213 0.127,0.378 0.381,0.628 0.757,0.754 0.093,0.058 0.165,0.135 0.225,0.226 0.167,0.455 0.511,0.616 0.973,0.584 0.297,0.007 0.569,0.082 0.796,0.286 l -0.002,0.001 c 0.305,0.511 0.842,0.765 1.266,1.144 0.232,0.407 0.417,0.847 0.786,1.162 0.164,0.223 0.243,0.481 0.313,0.744 0.055,0.397 0.228,0.708 0.625,0.855 0.095,0.054 0.175,0.125 0.241,0.212 0.142,0.358 0.352,0.65 0.742,0.767 0.096,0.054 0.173,0.127 0.234,0.218 0.131,0.376 0.381,0.633 0.761,0.76 0.09,0.058 0.164,0.132 0.222,0.222 0.137,0.411 0.504,0.616 0.797,0.888 l 0.015,-0.012 c 0.146,0.25 0.268,0.509 0.28,0.805 0.023,0.445 -0.063,0.945 0.549,1.098 0.103,0.028 0.198,0.068 0.292,0.116 0.09,0.056 0.16,0.131 0.216,0.22 0.117,0.345 0.311,0.621 0.682,0.733 0.093,0.057 0.171,0.128 0.238,0.214 0.144,0.242 0.165,0.51 0.178,0.78 0.013,0.35 0.008,0.707 0.396,0.891 0.087,0.056 0.164,0.123 0.237,0.195 0.24,0.402 0.627,0.659 0.959,0.97 0.023,0.066 0.045,0.132 0.063,0.201 0.189,0.229 0.267,0.499 0.272,0.792 -0.042,0.489 0.146,0.837 0.617,1.014 0.091,0.066 0.163,0.149 0.215,0.249 0.106,0.26 0.118,0.535 0.13,0.81 -0.052,0.541 0.364,0.724 0.725,0.95 0.067,0.084 0.119,0.18 0.156,0.282 0.131,0.572 -0.044,1.293 0.754,1.542 0.142,0.087 0.258,0.2 0.349,0.338 0.139,0.415 0.416,0.736 0.706,1.05 0.276,0.691 0.453,1.437 1.043,1.961 z" style="clip-rule:evenodd;fill:#313030;fill-rule:evenodd"></path></g></g></svg>