<svg width="100%" height="100%" viewBox="-62, -5156, 1835, 2322"><g><g class="djs-visual" id="Flow_0fl6dvv" transform="translate(0 0)"><path d="m  172,-3590L172,-3535 " style="fill: none; stroke-width: 2px; stroke: black; stroke-linejoin: round; marker-end: url(&quot;#sequenceflow-end-white-black-efzq8gzv35r9leklmwdqcypvv&quot;);"></path></g><g class="djs-visual" id="Flow_1ngfskg" transform="translate(0 0)"><path d="m  172,-3740L172,-3690 " style="fill: none; stroke-width: 2px; stroke: black; stroke-linejoin: round; marker-end: url(&quot;#sequenceflow-end-white-black-efzq8gzv35r9leklmwdqcypvv&quot;);"></path></g><g class="djs-visual" id="Flow_0tattgs" transform="translate(0 0)"><path d="m  172,-3895L172,-3840 " style="fill: none; stroke-width: 2px; stroke: black; stroke-linejoin: round; marker-end: url(&quot;#sequenceflow-end-white-black-efzq8gzv35r9leklmwdqcypvv&quot;);"></path></g><g class="djs-visual" id="Flow_16znnug" transform="translate(0 0)"><path d="m  172,-4850L172,-4800 " style="fill: none; stroke-width: 2px; stroke: black; stroke-linejoin: round; marker-end: url(&quot;#sequenceflow-end-white-black-efzq8gzv35r9leklmwdqcypvv&quot;);"></path></g><g class="djs-visual" id="Flow_0jvoauv" transform="translate(0 0)"><path d="m  510,-3980L510,-3920 L197,-3920 " style="fill: none; stroke-width: 2px; stroke: black; stroke-linejoin: round; marker-end: url(&quot;#sequenceflow-end-white-black-efzq8gzv35r9leklmwdqcypvv&quot;);"></path></g><g class="djs-visual" id="Flow_01qxqwc" transform="translate(0 0)"><path d="m  197,-4180L510,-4180 L510,-4080 " style="fill: none; stroke-width: 2px; stroke: black; stroke-linejoin: round; marker-end: url(&quot;#sequenceflow-end-white-black-efzq8gzv35r9leklmwdqcypvv&quot;);"></path></g><g class="djs-visual" id="Flow_1xi7pvz" transform="translate(0 0)"><path d="m  172,-3980L172,-3945 " style="fill: none; stroke-width: 2px; stroke: black; stroke-linejoin: round; marker-end: url(&quot;#sequenceflow-end-white-black-efzq8gzv35r9leklmwdqcypvv&quot;);"></path></g><g class="djs-visual" id="Flow_1ayihb3" transform="translate(0 0)"><path d="m  172,-4155L172,-4080 " style="fill: none; stroke-width: 2px; stroke: black; stroke-linejoin: round; marker-end: url(&quot;#sequenceflow-end-white-black-efzq8gzv35r9leklmwdqcypvv&quot;);"></path></g><g class="djs-visual" id="Flow_0uc2lc4" transform="translate(0 0)"><path d="m  172,-3166L172,-3120 " style="fill: none; stroke-width: 2px; stroke: black; stroke-linejoin: round; marker-end: url(&quot;#sequenceflow-end-white-black-efzq8gzv35r9leklmwdqcypvv&quot;);"></path></g><g class="djs-visual" id="Flow_08gka1u" transform="translate(0 0)"><path d="m  430,-3320L430,-3268 " style="fill: none; stroke-width: 2px; stroke: black; stroke-linejoin: round; marker-end: url(&quot;#sequenceflow-end-white-black-efzq8gzv35r9leklmwdqcypvv&quot;);"></path></g><g class="djs-visual" id="Flow_1eblst5" transform="translate(0 0)"><path d="m  172,-4250L172,-4205 " style="fill: none; stroke-width: 2px; stroke: black; stroke-linejoin: round; marker-end: url(&quot;#sequenceflow-end-white-black-efzq8gzv35r9leklmwdqcypvv&quot;);"></path></g><g class="djs-visual" id="Flow_0yu4ja3" transform="translate(0 0)"><path d="m  172,-4550L172,-4500 " style="fill: none; stroke-width: 2px; stroke: black; stroke-linejoin: round; marker-end: url(&quot;#sequenceflow-end-white-black-efzq8gzv35r9leklmwdqcypvv&quot;);"></path></g><g class="djs-visual" id="Flow_0twv23x" transform="translate(0 0)"><path d="m  172,-3320L172,-3266 " style="fill: none; stroke-width: 2px; stroke: black; stroke-linejoin: round; marker-end: url(&quot;#sequenceflow-end-white-black-efzq8gzv35r9leklmwdqcypvv&quot;);"></path></g><g class="djs-visual" id="Flow_057hsh2" transform="translate(0 0)"><path d="m  172,-3485L172,-3420 " style="fill: none; stroke-width: 2px; stroke: black; stroke-linejoin: round; marker-end: url(&quot;#sequenceflow-end-white-black-efzq8gzv35r9leklmwdqcypvv&quot;);"></path></g><g class="djs-visual" id="Flow_04rce8e" transform="translate(0 0)"><path d="m  172,-4400L172,-4350 " style="fill: none; stroke-width: 2px; stroke: black; stroke-linejoin: round; marker-end: url(&quot;#sequenceflow-end-white-black-efzq8gzv35r9leklmwdqcypvv&quot;);"></path></g><g class="djs-visual" id="Flow_0psqgzv" transform="translate(0 0)"><path d="m  172,-4700L172,-4650 " style="fill: none; stroke-width: 2px; stroke: black; stroke-linejoin: round; marker-end: url(&quot;#sequenceflow-end-white-black-efzq8gzv35r9leklmwdqcypvv&quot;);"></path></g><g class="djs-visual" id="Flow_0ya7j25" transform="translate(0 0)"><path d="m  172,-3020L172,-2978 " style="fill: none; stroke-width: 2px; stroke: black; stroke-linejoin: round; marker-end: url(&quot;#sequenceflow-end-white-black-efzq8gzv35r9leklmwdqcypvv&quot;);"></path></g><g class="djs-visual" id="Flow_0jretc8" transform="translate(0 0)"><path d="m  172,-5002L172,-4950 " style="fill: none; stroke-width: 2px; stroke: black; stroke-linejoin: round; marker-end: url(&quot;#sequenceflow-end-white-black-efzq8gzv35r9leklmwdqcypvv&quot;);"></path></g><g class="djs-visual" id="Flow_0vcb63v" transform="translate(0 0)"><path d="m  197,-3510L430,-3510 L430,-3420 " style="fill: none; stroke-width: 2px; stroke: black; stroke-linejoin: round; marker-end: url(&quot;#sequenceflow-end-white-black-efzq8gzv35r9leklmwdqcypvv&quot;);"></path></g><g class="djs-visual" id="Event_0tpantj" transform="translate(154 -2978)"><circle cx="18" cy="18" r="18" style="stroke: black; stroke-width: 4px; fill: white; fill-opacity: 0.95;"></circle></g><g class="djs-visual" id="Event_0tpantj_label" transform="translate(136 -2930)"><text lineHeight="1.2" class="djs-label" style="font-family: Arial, sans-serif; font-size: 11px; font-weight: normal; fill: black;"><tspan x="0" y="9.899999999999999">Party added to </tspan><tspan x="4.124755859375" y="23.099999999999998">arrangement </tspan><tspan x="5.8828125" y="36.3">successfully</tspan></text></g><g class="djs-visual" id="Activity_0b1pth6" transform="translate(107 -3266)"><rect x="0" y="0" width="130" height="100" rx="10" ry="10" style="stroke: black; stroke-width: 2px; fill: white; fill-opacity: 0.95;"></rect><text lineHeight="1.2" class="djs-label" style="font-family: Arial, sans-serif; font-size: 12px; font-weight: normal; fill: black;"><tspan x="11.8037109375" y="46.4">Verify and authorise </tspan><tspan x="22.3046875" y="60.8">addition of party</tspan></text></g><g class="djs-visual" id="Gateway_0sm43jp" transform="translate(147 -3535)"><polygon points="25,0 50,25 25,50 0,25" style="stroke: black; stroke-width: 2px; fill: white; fill-opacity: 0.95;"></polygon><path d="m 16,15 7.42857142857143,9.714285714285715 -7.42857142857143,9.714285714285715 3.428571428571429,0 5.714285714285715,-7.464228571428572 5.714285714285715,7.464228571428572 3.428571428571429,0 -7.42857142857143,-9.714285714285715 7.42857142857143,-9.714285714285715 -3.428571428571429,0 -5.714285714285715,7.464228571428572 -5.714285714285715,-7.464228571428572 -3.428571428571429,0 z" style="fill: black; stroke-width: 1px; stroke: black;"></path></g><g class="djs-visual" id="Activity_0fyacv1" transform="translate(107 -3420)"><rect x="0" y="0" width="130" height="100" rx="10" ry="10" style="stroke: black; stroke-width: 2px; fill: white; fill-opacity: 0.95;"></rect><text lineHeight="1.2" class="djs-label" style="font-family: Arial, sans-serif; font-size: 12px; font-weight: normal; fill: black;"><tspan x="12.4775390625" y="46.4">Move transaction to </tspan><tspan x="12.12890625" y="60.8">authorisation queue</tspan></text></g><g class="djs-visual" id="Event_1sqrm58" transform="translate(412 -3268)"><circle cx="18" cy="18" r="18" style="stroke: black; stroke-width: 4px; fill: white; fill-opacity: 0.95;"></circle></g><g class="djs-visual" id="Event_1sqrm58_label" transform="translate(392 -3224)"><text lineHeight="1.2" class="djs-label" style="font-family: Arial, sans-serif; font-size: 11px; font-weight: normal; fill: black;"><tspan x="0" y="9.899999999999999">Additional party </tspan><tspan x="16.552490234375" y="23.099999999999998">updation </tspan><tspan x="5.589599609375" y="36.3">unsuccessful</tspan></text></g><g class="djs-visual" id="Event_1l5nlpj" transform="translate(154 -5038)"><circle cx="18" cy="18" r="18" style="stroke: black; stroke-width: 2px; fill: white; fill-opacity: 0.95;"></circle></g><g class="djs-visual" id="Event_1l5nlpj_label" transform="translate(128 -5100)"><text lineHeight="1.2" class="djs-label" style="font-family: Arial, sans-serif; font-size: 11px; font-weight: normal; fill: black;"><tspan x="0" y="9.899999999999999">Additional party to</tspan><tspan x="10.1953125" y="23.099999999999998">be updated in </tspan><tspan x="11.874755859375" y="36.3">arrangement</tspan></text></g><g class="djs-visual" id="Activity_0n81g7c" transform="translate(107 -3120)"><rect x="0" y="0" width="130" height="100" rx="10" ry="10" style="stroke: black; stroke-width: 2px; fill: white; fill-opacity: 0.95;"></rect><text lineHeight="1.2" class="djs-label" style="font-family: Arial, sans-serif; font-size: 12px; font-weight: normal; fill: black;"><tspan x="9.6328125" y="53.599999999999994">Update arrangement</tspan></text></g><g class="djs-visual" id="Activity_1ozv070" transform="translate(107 -4800)"><rect x="0" y="0" width="130" height="100" rx="10" ry="10" style="stroke: black; stroke-width: 2px; fill: white; fill-opacity: 0.95;"></rect><text lineHeight="1.2" class="djs-label" style="font-family: Arial, sans-serif; font-size: 12px; font-weight: normal; fill: black;"><tspan x="30.1494140625" y="46.4">List available </tspan><tspan x="30.6474609375" y="60.8">arrangement</tspan></text></g><g class="djs-visual" id="Activity_1rsiq23" transform="translate(107 -4500)"><rect x="0" y="0" width="130" height="100" rx="10" ry="10" style="stroke: black; stroke-width: 2px; fill: white; fill-opacity: 0.95;"></rect><text lineHeight="1.2" class="djs-label" style="font-family: Arial, sans-serif; font-size: 12px; font-weight: normal; fill: black;"><tspan x="5.306640625" y="53.599999999999994">Arrangement overview</tspan></text></g><g class="djs-visual" id="Activity_0zxqhze" transform="translate(107 -3840)"><rect x="0" y="0" width="130" height="100" rx="10" ry="10" style="stroke: black; stroke-width: 2px; fill: white; fill-opacity: 0.95;"></rect><text lineHeight="1.2" class="djs-label" style="font-family: Arial, sans-serif; font-size: 12px; font-weight: normal; fill: black;"><tspan x="19.375" y="46.4">Trigger customer </tspan><tspan x="46.65625" y="60.8">activity</tspan></text></g><g class="djs-visual" id="Activity_1m2oq1f" transform="translate(107 -4650)"><rect x="0" y="0" width="130" height="100" rx="10" ry="10" style="stroke: black; stroke-width: 2px; fill: white; fill-opacity: 0.95;"></rect><text lineHeight="1.2" class="djs-label" style="font-family: Arial, sans-serif; font-size: 12px; font-weight: normal; fill: black;"><tspan x="12.3046875" y="46.4">Select arrangement </tspan><tspan x="25.3056640625" y="60.8">to be amended</tspan></text></g><g class="djs-visual" id="Activity_0lhfd1o" transform="translate(107 -4350)"><rect x="0" y="0" width="130" height="100" rx="10" ry="10" style="stroke: black; stroke-width: 2px; fill: white; fill-opacity: 0.95;"></rect><text lineHeight="1.2" class="djs-label" style="font-family: Arial, sans-serif; font-size: 12px; font-weight: normal; fill: black;"><tspan x="15.640625" y="53.599999999999994">Select new activity</tspan></text></g><g class="djs-visual" id="Activity_1kr3dvm" transform="translate(107 -3690)"><rect x="0" y="0" width="130" height="100" rx="10" ry="10" style="stroke: black; stroke-width: 2px; fill: white; fill-opacity: 0.95;"></rect><text lineHeight="1.2" class="djs-label" style="font-family: Arial, sans-serif; font-size: 12px; font-weight: normal; fill: black;"><tspan x="23.7578125" y="53.599999999999994">Validate activity</tspan></text></g><g class="djs-visual" id="Activity_02hlawl" transform="translate(365 -3420)"><rect x="0" y="0" width="130" height="100" rx="10" ry="10" style="stroke: black; stroke-width: 2px; fill: white; fill-opacity: 0.95;"></rect><text lineHeight="1.2" class="djs-label" style="font-family: Arial, sans-serif; font-size: 12px; font-weight: normal; fill: black;"><tspan x="30.490234375" y="53.599999999999994">Display error</tspan></text></g><g class="djs-visual" id="Gateway_0tlp38t" transform="translate(147 -4205)"><polygon points="25,0 50,25 25,50 0,25" style="stroke: black; stroke-width: 2px; fill: white; fill-opacity: 0.95;"></polygon><path d="m 16,15 7.42857142857143,9.714285714285715 -7.42857142857143,9.714285714285715 3.428571428571429,0 5.714285714285715,-7.464228571428572 5.714285714285715,7.464228571428572 3.428571428571429,0 -7.42857142857143,-9.714285714285715 7.42857142857143,-9.714285714285715 -3.428571428571429,0 -5.714285714285715,7.464228571428572 -5.714285714285715,-7.464228571428572 -3.428571428571429,0 z" style="fill: black; stroke-width: 1px; stroke: black;"></path></g><g class="djs-visual" id="Activity_0e5xxkf" transform="translate(107 -4080)"><rect x="0" y="0" width="130" height="100" rx="10" ry="10" style="stroke: black; stroke-width: 2px; fill: white; fill-opacity: 0.95;"></rect><text lineHeight="1.2" class="djs-label" style="font-family: Arial, sans-serif; font-size: 12px; font-weight: normal; fill: black;"><tspan x="8.2412109375" y="53.599999999999994">Update effective date</tspan></text></g><g class="djs-visual" id="Activity_14bsgkq" transform="translate(445 -4080)"><rect x="0" y="0" width="130" height="100" rx="10" ry="10" style="stroke: black; stroke-width: 2px; fill: white; fill-opacity: 0.95;"></rect><text lineHeight="1.2" class="djs-label" style="font-family: Arial, sans-serif; font-size: 12px; font-weight: normal; fill: black;"><tspan x="6.2431640625" y="53.599999999999994">Capture effective date</tspan></text></g><g class="djs-visual" id="Gateway_1jobtp7" transform="translate(147 -3945)"><polygon points="25,0 50,25 25,50 0,25" style="stroke: black; stroke-width: 2px; fill: white; fill-opacity: 0.95;"></polygon><path d="m 16,15 7.42857142857143,9.714285714285715 -7.42857142857143,9.714285714285715 3.428571428571429,0 5.714285714285715,-7.464228571428572 5.714285714285715,7.464228571428572 3.428571428571429,0 -7.42857142857143,-9.714285714285715 7.42857142857143,-9.714285714285715 -3.428571428571429,0 -5.714285714285715,7.464228571428572 -5.714285714285715,-7.464228571428572 -3.428571428571429,0 z" style="fill: black; stroke-width: 1px; stroke: black;"></path></g><g class="djs-visual" id="Activity_1wegsyt" transform="translate(107 -4950)"><rect x="0" y="0" width="130" height="100" rx="10" ry="10" style="stroke: black; stroke-width: 2px; fill: white; fill-opacity: 0.95;"></rect><text lineHeight="1.2" class="djs-label" style="font-family: Arial, sans-serif; font-size: 12px; font-weight: normal; fill: black;"><tspan x="14.8095703125" y="39.2">Receive request to </tspan><tspan x="33.1494140625" y="53.6">add party to </tspan><tspan x="30.6474609375" y="68">arrangement</tspan></text></g><g class="djs-visual" id="DataObjectReference_140n4rr" transform="translate(22 -4925)"><path d="m 0,0 28.23529411764706,0 7.058823529411765,8.196721311475411 0,40.98360655737705 -35.294117647058826,0 0,-49.18032786885246 28.23529411764706,0 0,8.196721311475411 7.058823529411765,0" style="fill: white; stroke-width: 2px; stroke: black; fill-opacity: 0.95;"></path></g><g class="djs-visual" id="DataObjectReference_140n4rr_label" transform="translate(-6 -4875)"><text lineHeight="1.2" class="djs-label" style="font-family: Arial, sans-serif; font-size: 11px; font-weight: normal; fill: black;"><tspan x="0" y="9.899999999999999">Customer Request</tspan></text></g><g class="djs-visual" id="TextAnnotation_177ch0s" transform="translate(269 -3280)"><rect x="0" y="0" width="101" height="27" rx="0" ry="0" style="stroke: none; stroke-width: 2px; fill: none;"></rect><path d="m 0, 0 m 10,0 l -10,0 l 0,27 l 10,0" style="fill: none; stroke-width: 2px; stroke: black;"></path><text lineHeight="1.2" class="djs-label" style="font-family: Arial, sans-serif; font-size: 12px; font-weight: normal; fill: black;"><tspan x="5" y="15.799999999999999">Arrangement ID</tspan></text></g><g class="djs-visual" id="TextAnnotation_1oe5ksw" transform="translate(274 -4660)"><rect x="0" y="0" width="110" height="26" rx="0" ry="0" style="stroke: none; stroke-width: 2px; fill: none;"></rect><path d="m 0, 0 m 10,0 l -10,0 l 0,26 l 10,0" style="fill: none; stroke-width: 2px; stroke: black;"></path><text lineHeight="1.2" class="djs-label" style="font-family: Arial, sans-serif; font-size: 12px; font-weight: normal; fill: black;"><tspan x="5" y="15.799999999999999">Arrangement ID</tspan></text></g><g class="djs-visual" id="TextAnnotation_0sr9kcq" transform="translate(540 -3430)"><rect x="0" y="0" width="120" height="41" rx="0" ry="0" style="stroke: none; stroke-width: 2px; fill: none;"></rect><path d="m 0, 0 m 10,0 l -10,0 l 0,41 l 10,0" style="fill: none; stroke-width: 2px; stroke: black;"></path><text lineHeight="1.2" class="djs-label" style="font-family: Arial, sans-serif; font-size: 12px; font-weight: normal; fill: black;"><tspan x="5" y="15.799999999999999">'Add party </tspan><tspan x="5" y="30.199999999999996">unsuccessful'</tspan></text></g><g class="djs-visual" id="TextAnnotation_13k7f54" transform="translate(260 -4090)"><rect x="0" y="0" width="135" height="41" rx="0" ry="0" style="stroke: none; stroke-width: 2px; fill: none;"></rect><path d="m 0, 0 m 10,0 l -10,0 l 0,41 l 10,0" style="fill: none; stroke-width: 2px; stroke: black;"></path><text lineHeight="1.2" class="djs-label" style="font-family: Arial, sans-serif; font-size: 12px; font-weight: normal; fill: black;"><tspan x="5" y="15.799999999999999">Today's date defaulted </tspan><tspan x="5" y="30.199999999999996">as effective date</tspan></text></g><g class="djs-visual" id="TextAnnotation_1yffxwz" transform="translate(290 -3880)"><rect x="0" y="0" width="300" height="99" rx="0" ry="0" style="stroke: none; stroke-width: 2px; fill: none;"></rect><path d="m 0, 0 m 10,0 l -10,0 l 0,99 l 10,0" style="fill: none; stroke-width: 2px; stroke: black;"></path><text lineHeight="1.2" class="djs-label" style="font-family: Arial, sans-serif; font-size: 12px; font-weight: normal; fill: black;"><tspan x="5" y="15.799999999999999">- ASSET.FINANCE-CHANGE-CUSTOMER</tspan><tspan x="5" y="30.199999999999996">activity triggered</tspan><tspan x="5" y="44.599999999999994">Fields to be updated:</tspan><tspan x="5" y="58.99999999999999">- Customer</tspan><tspan x="5" y="73.39999999999999">- Customer role</tspan><tspan x="5" y="87.79999999999998">- Reference number</tspan></text></g><g class="djs-visual" id="Flow_0vcb63v_label" transform="translate(448 -3469)"><text lineHeight="1.2" class="djs-label" style="font-family: Arial, sans-serif; font-size: 11px; font-weight: normal; fill: black;"><tspan x="8.822265625" y="9.899999999999999">Validation </tspan><tspan x="0" y="23.099999999999998">unsuccessful</tspan></text></g><g class="djs-visual" id="Flow_057hsh2_label" transform="translate(184 -3469)"><text lineHeight="1.2" class="djs-label" style="font-family: Arial, sans-serif; font-size: 11px; font-weight: normal; fill: black;"><tspan x="2.70458984375" y="9.899999999999999">Validation </tspan><tspan x="0" y="23.099999999999998">successful</tspan></text></g><g class="djs-visual" id="Flow_1ayihb3_label" transform="translate(181 -4135)"><text lineHeight="1.2" class="djs-label" style="font-family: Arial, sans-serif; font-size: 11px; font-weight: normal; fill: black;"><tspan x="0" y="9.899999999999999">'Do activity today' to </tspan><tspan x="20.4375" y="23.099999999999998">be selected</tspan></text></g><g class="djs-visual" id="Flow_01qxqwc_label" transform="translate(519 -4144)"><text lineHeight="1.2" class="djs-label" style="font-family: Arial, sans-serif; font-size: 11px; font-weight: normal; fill: black;"><tspan x="0" y="9.899999999999999">'Do activity' to be </tspan><tspan x="20.7421875" y="23.099999999999998">selected</tspan></text></g><g class="djs-visual" id="DataInputAssociation_0atukj7" transform="translate(0 0)"><polyline points="58,-4900 107,-4900 " style="fill: none; stroke: black; stroke-width: 2px; stroke-dasharray: 0.5, 5; stroke-linecap: round; stroke-linejoin: round; marker-end: url(&quot;#association-end-white-black-efzq8gzv35r9leklmwdqcypvv&quot;);"></polyline></g><g class="djs-visual" id="Association_1wzgb2s" transform="translate(0 0)"><polyline points="237,-3249 269,-3266 " style="fill: none; stroke: black; stroke-width: 2px; stroke-dasharray: 0.5, 5; stroke-linecap: round; stroke-linejoin: round;"></polyline></g><g class="djs-visual" id="Association_12sqrv4" transform="translate(0 0)"><polyline points="237,-4628 274,-4642 " style="fill: none; stroke: black; stroke-width: 2px; stroke-dasharray: 0.5, 5; stroke-linecap: round; stroke-linejoin: round;"></polyline></g><g class="djs-visual" id="Association_0vc3ty9" transform="translate(0 0)"><polyline points="495,-3388 540,-3401 " style="fill: none; stroke: black; stroke-width: 2px; stroke-dasharray: 0.5, 5; stroke-linecap: round; stroke-linejoin: round;"></polyline></g><g class="djs-visual" id="Association_1hidaz2" transform="translate(0 0)"><polyline points="237,-4051 260,-4059 " style="fill: none; stroke: black; stroke-width: 2px; stroke-dasharray: 0.5, 5; stroke-linecap: round; stroke-linejoin: round;"></polyline></g><g class="djs-visual" id="Association_0l5mk1g" transform="translate(0 0)"><polyline points="237,-3825 290,-3855 " style="fill: none; stroke: black; stroke-width: 2px; stroke-dasharray: 0.5, 5; stroke-linecap: round; stroke-linejoin: round;"></polyline></g></g><g><rect class="viewport" x="-2593.841750841751" y="-5106.511784511785" width="5841.750841750842" height="2222.222222222222"></rect></g></svg>