<svg width="100%" height="100%" viewBox="-165, -150, 1835, 2981"><g><g class="djs-visual" id="Flow_00t3kmf" transform="translate(0 0)"><path d="m  1130,1930L1130,2050 L95,2050 " style="fill: none; stroke-width: 2px; stroke: black; stroke-linejoin: round; marker-end: url(&quot;#sequenceflow-end-white-black-eyrv201v1oru72scbz85w8ywu&quot;);"></path></g><g class="djs-visual" id="Flow_09lo1ox" transform="translate(0 0)"><path d="m  620,1930L620,2050 L95,2050 " style="fill: none; stroke-width: 2px; stroke: black; stroke-linejoin: round; marker-end: url(&quot;#sequenceflow-end-white-black-eyrv201v1oru72scbz85w8ywu&quot;);"></path></g><g class="djs-visual" id="Flow_07n075i" transform="translate(0 0)"><path d="m  70,2630L70,2702 " style="fill: none; stroke-width: 2px; stroke: black; stroke-linejoin: round; marker-end: url(&quot;#sequenceflow-end-white-black-eyrv201v1oru72scbz85w8ywu&quot;);"></path></g><g class="djs-visual" id="Flow_005n71y" transform="translate(0 0)"><path d="m  70,2450L70,2530 " style="fill: none; stroke-width: 2px; stroke: black; stroke-linejoin: round; marker-end: url(&quot;#sequenceflow-end-white-black-eyrv201v1oru72scbz85w8ywu&quot;);"></path></g><g class="djs-visual" id="Flow_08epb5x" transform="translate(0 0)"><path d="m  70,2270L70,2350 " style="fill: none; stroke-width: 2px; stroke: black; stroke-linejoin: round; marker-end: url(&quot;#sequenceflow-end-white-black-eyrv201v1oru72scbz85w8ywu&quot;);"></path></g><g class="djs-visual" id="Flow_1tcola6" transform="translate(0 0)"><path d="m  70,2075L70,2170 " style="fill: none; stroke-width: 2px; stroke: black; stroke-linejoin: round; marker-end: url(&quot;#sequenceflow-end-white-black-eyrv201v1oru72scbz85w8ywu&quot;);"></path></g><g class="djs-visual" id="Flow_177evyi" transform="translate(0 0)"><path d="m  70,1930L70,2025 " style="fill: none; stroke-width: 2px; stroke: black; stroke-linejoin: round; marker-end: url(&quot;#sequenceflow-end-white-black-eyrv201v1oru72scbz85w8ywu&quot;);"></path></g><g class="djs-visual" id="Flow_076lg14" transform="translate(0 0)"><path d="m  95,1620L1130,1620 L1130,1830 " style="fill: none; stroke-width: 2px; stroke: black; stroke-linejoin: round; marker-end: url(&quot;#sequenceflow-end-white-black-eyrv201v1oru72scbz85w8ywu&quot;);"></path></g><g class="djs-visual" id="Flow_15e8y0k" transform="translate(0 0)"><path d="m  95,1620L620,1620 L620,1830 " style="fill: none; stroke-width: 2px; stroke: black; stroke-linejoin: round; marker-end: url(&quot;#sequenceflow-end-white-black-eyrv201v1oru72scbz85w8ywu&quot;);"></path></g><g class="djs-visual" id="Flow_1nemj2g" transform="translate(0 0)"><path d="m  70,1645L70,1830 " style="fill: none; stroke-width: 2px; stroke: black; stroke-linejoin: round; marker-end: url(&quot;#sequenceflow-end-white-black-eyrv201v1oru72scbz85w8ywu&quot;);"></path></g><g class="djs-visual" id="Flow_1upxvtq" transform="translate(0 0)"><path d="m  70,1520L70,1595 " style="fill: none; stroke-width: 2px; stroke: black; stroke-linejoin: round; marker-end: url(&quot;#sequenceflow-end-white-black-eyrv201v1oru72scbz85w8ywu&quot;);"></path></g><g class="djs-visual" id="Flow_01lf0jy" transform="translate(0 0)"><path d="m  70,1375L70,1420 " style="fill: none; stroke-width: 2px; stroke: black; stroke-linejoin: round; marker-end: url(&quot;#sequenceflow-end-white-black-eyrv201v1oru72scbz85w8ywu&quot;);"></path></g><g class="djs-visual" id="Flow_0fw8l01" transform="translate(0 0)"><path d="m  70,735L70,1325 " style="fill: none; stroke-width: 2px; stroke: black; stroke-linejoin: round; marker-end: url(&quot;#sequenceflow-end-white-black-eyrv201v1oru72scbz85w8ywu&quot;);"></path></g><g class="djs-visual" id="Flow_09upi62" transform="translate(0 0)"><path d="m  370,1315L370,1350 L95,1350 " style="fill: none; stroke-width: 2px; stroke: black; stroke-linejoin: round; marker-end: url(&quot;#sequenceflow-end-white-black-eyrv201v1oru72scbz85w8ywu&quot;);"></path></g><g class="djs-visual" id="Flow_0jq29an" transform="translate(0 0)"><path d="m  395,1290L540,1290 L540,1392 " style="fill: none; stroke-width: 2px; stroke: black; stroke-linejoin: round; marker-end: url(&quot;#sequenceflow-end-white-black-eyrv201v1oru72scbz85w8ywu&quot;);"></path></g><g class="djs-visual" id="Flow_0m3ehqd" transform="translate(0 0)"><path d="m  370,1210L370,1265 " style="fill: none; stroke-width: 2px; stroke: black; stroke-linejoin: round; marker-end: url(&quot;#sequenceflow-end-white-black-eyrv201v1oru72scbz85w8ywu&quot;);"></path></g><g class="djs-visual" id="Flow_0s01cvo" transform="translate(0 0)"><path d="m  370,1050L370,1110 " style="fill: none; stroke-width: 2px; stroke: black; stroke-linejoin: round; marker-end: url(&quot;#sequenceflow-end-white-black-eyrv201v1oru72scbz85w8ywu&quot;);"></path></g><g class="djs-visual" id="Flow_00h4zju" transform="translate(0 0)"><path d="m  370,880L370,950 " style="fill: none; stroke-width: 2px; stroke: black; stroke-linejoin: round; marker-end: url(&quot;#sequenceflow-end-white-black-eyrv201v1oru72scbz85w8ywu&quot;);"></path></g><g class="djs-visual" id="Flow_09yna80" transform="translate(0 0)"><path d="m  95,710L370,710 L370,780 " style="fill: none; stroke-width: 2px; stroke: black; stroke-linejoin: round; marker-end: url(&quot;#sequenceflow-end-white-black-eyrv201v1oru72scbz85w8ywu&quot;);"></path></g><g class="djs-visual" id="Flow_122of09" transform="translate(0 0)"><path d="m  70,620L70,685 " style="fill: none; stroke-width: 2px; stroke: black; stroke-linejoin: round; marker-end: url(&quot;#sequenceflow-end-white-black-eyrv201v1oru72scbz85w8ywu&quot;);"></path></g><g class="djs-visual" id="Flow_0kc58r3" transform="translate(0 0)"><path d="m  540,620L540,692 " style="fill: none; stroke-width: 2px; stroke: black; stroke-linejoin: round; marker-end: url(&quot;#sequenceflow-end-white-black-eyrv201v1oru72scbz85w8ywu&quot;);"></path></g><g class="djs-visual" id="Flow_1nawk04" transform="translate(0 0)"><path d="m  70,127L70,220 " style="fill: none; stroke-width: 2px; stroke: black; stroke-linejoin: round; marker-end: url(&quot;#sequenceflow-end-white-black-eyrv201v1oru72scbz85w8ywu&quot;);"></path></g><g class="djs-visual" id="Flow_1dzu223" transform="translate(0 0)"><path d="m  95,420L540,420 L540,520 " style="fill: none; stroke-width: 2px; stroke: black; stroke-linejoin: round; marker-end: url(&quot;#sequenceflow-end-white-black-eyrv201v1oru72scbz85w8ywu&quot;);"></path></g><g class="djs-visual" id="Flow_1ykqdfk" transform="translate(0 0)"><path d="m  70,445L70,520 " style="fill: none; stroke-width: 2px; stroke: black; stroke-linejoin: round; marker-end: url(&quot;#sequenceflow-end-white-black-eyrv201v1oru72scbz85w8ywu&quot;);"></path></g><g class="djs-visual" id="Flow_01utsjp" transform="translate(0 0)"><path d="m  70,320L70,395 " style="fill: none; stroke-width: 2px; stroke: black; stroke-linejoin: round; marker-end: url(&quot;#sequenceflow-end-white-black-eyrv201v1oru72scbz85w8ywu&quot;);"></path></g><g class="djs-visual" id="Flow_059p6oq" transform="translate(0 0)"><path d="m  70,-22L70,27 " style="fill: none; stroke-width: 2px; stroke: black; stroke-linejoin: round; marker-end: url(&quot;#sequenceflow-end-white-black-eyrv201v1oru72scbz85w8ywu&quot;);"></path></g><g class="djs-visual" id="StartEvent_1bm324f" transform="translate(52 -58)"><circle cx="18" cy="18" r="18" style="stroke: black; stroke-width: 2px; fill: white; fill-opacity: 0.95;"></circle></g><g class="djs-visual" id="StartEvent_1bm324f_label" transform="translate(39 -94)"><text lineHeight="1.2" class="djs-label" style="font-family: Arial, sans-serif; font-size: 11px; font-weight: normal; fill: black;"><tspan x="0" y="9.899999999999999">Deposit to be</tspan><tspan x="9.4765625" y="23.099999999999998">amended</tspan></text></g><g class="djs-visual" id="Activity_0bwu8pr" transform="translate(5 27)"><rect x="0" y="0" width="130" height="100" rx="10" ry="10" style="stroke: black; stroke-width: 2px; fill: white; fill-opacity: 0.95;"></rect><text lineHeight="1.2" class="djs-label" style="font-family: Arial, sans-serif; font-size: 12px; font-weight: normal; fill: black;"><tspan x="15.1474609375" y="39.2">Receive Customer </tspan><tspan x="18.140625" y="53.6">request to amend </tspan><tspan x="45.3193359375" y="68">deposit</tspan></text></g><g class="djs-visual" id="DataObjectReference_02wwpap" transform="translate(-98 52)"><path d="m 0,0 28.23529411764706,0 7.058823529411765,8.196721311475411 0,40.98360655737705 -35.294117647058826,0 0,-49.18032786885246 28.23529411764706,0 0,8.196721311475411 7.058823529411765,0" style="fill: white; stroke-width: 2px; stroke: black; fill-opacity: 0.95;"></path></g><g class="djs-visual" id="DataObjectReference_02wwpap_label" transform="translate(-109 109)"><text lineHeight="1.2" class="djs-label" style="font-family: Arial, sans-serif; font-size: 11px; font-weight: normal; fill: black;"><tspan x="0" y="9.899999999999999">Amendment </tspan><tspan x="8.66845703125" y="23.099999999999998">Request</tspan></text></g><g class="djs-visual" id="Activity_05wsk3l" transform="translate(5 220)"><rect x="0" y="0" width="130" height="100" rx="10" ry="10" style="stroke: black; stroke-width: 2px; fill: white; fill-opacity: 0.95;"></rect><text lineHeight="1.2" class="djs-label" style="font-family: Arial, sans-serif; font-size: 12px; font-weight: normal; fill: black;"><tspan x="31.9794921875" y="46.4">Authenticate </tspan><tspan x="38.4912109375" y="60.8">Customer</tspan></text></g><g class="djs-visual" id="Gateway_1bpf1co" transform="translate(45 395)"><polygon points="25,0 50,25 25,50 0,25" style="stroke: black; stroke-width: 2px; fill: white; fill-opacity: 0.95;"></polygon><path d="m 16,15 7.42857142857143,9.714285714285715 -7.42857142857143,9.714285714285715 3.428571428571429,0 5.714285714285715,-7.464228571428572 5.714285714285715,7.464228571428572 3.428571428571429,0 -7.42857142857143,-9.714285714285715 7.42857142857143,-9.714285714285715 -3.428571428571429,0 -5.714285714285715,7.464228571428572 -5.714285714285715,-7.464228571428572 -3.428571428571429,0 z" style="fill: black; stroke-width: 1px; stroke: black;"></path></g><g class="djs-visual" id="Activity_17l2jkx" transform="translate(5 520)"><rect x="0" y="0" width="130" height="100" rx="10" ry="10" style="stroke: black; stroke-width: 2px; fill: white; fill-opacity: 0.95;"></rect><text lineHeight="1.2" class="djs-label" style="font-family: Arial, sans-serif; font-size: 12px; font-weight: normal; fill: black;"><tspan x="25.98046875" y="53.599999999999994">Select Deposit</tspan></text></g><g class="djs-visual" id="Activity_06vlirv" transform="translate(475 520)"><rect x="0" y="0" width="130" height="100" rx="10" ry="10" style="stroke: black; stroke-width: 2px; fill: white; fill-opacity: 0.95;"></rect><text lineHeight="1.2" class="djs-label" style="font-family: Arial, sans-serif; font-size: 12px; font-weight: normal; fill: black;"><tspan x="19.8203125" y="39.2">Inform Customer </tspan><tspan x="13.466796875" y="53.6">about unsuccessful </tspan><tspan x="27.474609375" y="68">authentication</tspan></text></g><g class="djs-visual" id="Event_0tp1vuw" transform="translate(522 692)"><circle cx="18" cy="18" r="18" style="stroke: black; stroke-width: 4px; fill: white; fill-opacity: 0.95;"></circle></g><g class="djs-visual" id="Event_0tp1vuw_label" transform="translate(494 737)"><text lineHeight="1.2" class="djs-label" style="font-family: Arial, sans-serif; font-size: 11px; font-weight: normal; fill: black;"><tspan x="0" y="9.899999999999999">Customer informed </tspan><tspan x="18.328125" y="23.099999999999998">about failed </tspan><tspan x="12.5234375" y="36.3">authentication</tspan></text></g><g class="djs-visual" id="Gateway_0elhcq3" transform="translate(45 685)"><polygon points="25,0 50,25 25,50 0,25" style="stroke: black; stroke-width: 2px; fill: white; fill-opacity: 0.95;"></polygon><path d="m 16,15 7.42857142857143,9.714285714285715 -7.42857142857143,9.714285714285715 3.428571428571429,0 5.714285714285715,-7.464228571428572 5.714285714285715,7.464228571428572 3.428571428571429,0 -7.42857142857143,-9.714285714285715 7.42857142857143,-9.714285714285715 -3.428571428571429,0 -5.714285714285715,7.464228571428572 -5.714285714285715,-7.464228571428572 -3.428571428571429,0 z" style="fill: black; stroke-width: 1px; stroke: black;"></path></g><g class="djs-visual" id="Activity_0h3hwb5" transform="translate(305 780)"><rect x="0" y="0" width="130" height="100" rx="10" ry="10" style="stroke: black; stroke-width: 2px; fill: white; fill-opacity: 0.95;"></rect><text lineHeight="1.2" class="djs-label" style="font-family: Arial, sans-serif; font-size: 12px; font-weight: normal; fill: black;"><tspan x="15.47265625" y="46.4">Capture details for </tspan><tspan x="37.8251953125" y="60.8">simulation</tspan></text></g><g class="djs-visual" id="Activity_1dnllg9" transform="translate(305 950)"><rect x="0" y="0" width="130" height="100" rx="10" ry="10" style="stroke: black; stroke-width: 2px; fill: white; fill-opacity: 0.95;"></rect><text lineHeight="1.2" class="djs-label" style="font-family: Arial, sans-serif; font-size: 12px; font-weight: normal; fill: black;"><tspan x="14.8212890625" y="53.599999999999994">Perform simulation</tspan></text></g><g class="djs-visual" id="Activity_1kh7yuz" transform="translate(305 1110)"><rect x="0" y="0" width="130" height="100" rx="10" ry="10" style="stroke: black; stroke-width: 2px; fill: white; fill-opacity: 0.95;"></rect><text lineHeight="1.2" class="djs-label" style="font-family: Arial, sans-serif; font-size: 12px; font-weight: normal; fill: black;"><tspan x="15.4775390625" y="46.4">Enquire simulation </tspan><tspan x="49.9951171875" y="60.8">result</tspan></text></g><g class="djs-visual" id="Gateway_0ogxe2m" transform="translate(345 1265)"><polygon points="25,0 50,25 25,50 0,25" style="stroke: black; stroke-width: 2px; fill: white; fill-opacity: 0.95;"></polygon><path d="m 16,15 7.42857142857143,9.714285714285715 -7.42857142857143,9.714285714285715 3.428571428571429,0 5.714285714285715,-7.464228571428572 5.714285714285715,7.464228571428572 3.428571428571429,0 -7.42857142857143,-9.714285714285715 7.42857142857143,-9.714285714285715 -3.428571428571429,0 -5.714285714285715,7.464228571428572 -5.714285714285715,-7.464228571428572 -3.428571428571429,0 z" style="fill: black; stroke-width: 1px; stroke: black;"></path></g><g class="djs-visual" id="Event_09v6aze" transform="translate(522 1392)"><circle cx="18" cy="18" r="18" style="stroke: black; stroke-width: 4px; fill: white; fill-opacity: 0.95;"></circle></g><g class="djs-visual" id="Event_09v6aze_label" transform="translate(491 1437)"><text lineHeight="1.2" class="djs-label" style="font-family: Arial, sans-serif; font-size: 11px; font-weight: normal; fill: black;"><tspan x="0" y="9.899999999999999">Amendment request </tspan><tspan x="17.576904296875" y="23.099999999999998">to be aborted</tspan></text></g><g class="djs-visual" id="Gateway_0soilo9" transform="translate(45 1325)"><polygon points="25,0 50,25 25,50 0,25" style="stroke: black; stroke-width: 2px; fill: white; fill-opacity: 0.95;"></polygon><path d="m 16,15 7.42857142857143,9.714285714285715 -7.42857142857143,9.714285714285715 3.428571428571429,0 5.714285714285715,-7.464228571428572 5.714285714285715,7.464228571428572 3.428571428571429,0 -7.42857142857143,-9.714285714285715 7.42857142857143,-9.714285714285715 -3.428571428571429,0 -5.714285714285715,7.464228571428572 -5.714285714285715,-7.464228571428572 -3.428571428571429,0 z" style="fill: black; stroke-width: 1px; stroke: black;"></path></g><g class="djs-visual" id="Activity_1sb1iyf" transform="translate(5 1420)"><rect x="0" y="0" width="130" height="100" rx="10" ry="10" style="stroke: black; stroke-width: 2px; fill: white; fill-opacity: 0.95;"></rect><text lineHeight="1.2" class="djs-label" style="font-family: Arial, sans-serif; font-size: 12px; font-weight: normal; fill: black;"><tspan x="25.98046875" y="53.599999999999994">Select Deposit</tspan></text></g><g class="djs-visual" id="Gateway_1c9lvq6" transform="translate(45 1595)"><polygon points="25,0 50,25 25,50 0,25" style="stroke: black; stroke-width: 2px; fill: white; fill-opacity: 0.95;"></polygon><path d="m 16,15 7.42857142857143,9.714285714285715 -7.42857142857143,9.714285714285715 3.428571428571429,0 5.714285714285715,-7.464228571428572 5.714285714285715,7.464228571428572 3.428571428571429,0 -7.42857142857143,-9.714285714285715 7.42857142857143,-9.714285714285715 -3.428571428571429,0 -5.714285714285715,7.464228571428572 -5.714285714285715,-7.464228571428572 -3.428571428571429,0 z" style="fill: black; stroke-width: 1px; stroke: black;"></path></g><g class="djs-visual" id="Activity_04h97xa" transform="translate(5 1830)"><rect x="0" y="0" width="130" height="100" rx="10" ry="10" style="stroke: black; stroke-width: 2px; fill: white; fill-opacity: 0.95;"></rect><text lineHeight="1.2" class="djs-label" style="font-family: Arial, sans-serif; font-size: 12px; font-weight: normal; fill: black;"><tspan x="22.9765625" y="46.4">Amend AA fixed </tspan><tspan x="45.3193359375" y="60.8">deposit</tspan></text></g><g class="djs-visual" id="Activity_0mmlgm5" transform="translate(555 1830)"><rect x="0" y="0" width="130" height="100" rx="10" ry="10" style="stroke: black; stroke-width: 2px; fill: white; fill-opacity: 0.95;"></rect><text lineHeight="1.2" class="djs-label" style="font-family: Arial, sans-serif; font-size: 12px; font-weight: normal; fill: black;"><tspan x="19.4609375" y="53.599999999999994">Amend AA bonds</tspan></text></g><g class="djs-visual" id="Activity_0om3mf3" transform="translate(1065 1830)"><rect x="0" y="0" width="130" height="100" rx="10" ry="10" style="stroke: black; stroke-width: 2px; fill: white; fill-opacity: 0.95;"></rect><text lineHeight="1.2" class="djs-label" style="font-family: Arial, sans-serif; font-size: 12px; font-weight: normal; fill: black;"><tspan x="15.46875" y="46.4">Amend AA savings </tspan><tspan x="53.4931640625" y="60.8">plan</tspan></text></g><g class="djs-visual" id="Gateway_14xikfv" transform="translate(45 2025)"><polygon points="25,0 50,25 25,50 0,25" style="stroke: black; stroke-width: 2px; fill: white; fill-opacity: 0.95;"></polygon><path d="m 16,15 7.42857142857143,9.714285714285715 -7.42857142857143,9.714285714285715 3.428571428571429,0 5.714285714285715,-7.464228571428572 5.714285714285715,7.464228571428572 3.428571428571429,0 -7.42857142857143,-9.714285714285715 7.42857142857143,-9.714285714285715 -3.428571428571429,0 -5.714285714285715,7.464228571428572 -5.714285714285715,-7.464228571428572 -3.428571428571429,0 z" style="fill: black; stroke-width: 1px; stroke: black;"></path></g><g class="djs-visual" id="Activity_16q97wd" transform="translate(5 2170)"><rect x="0" y="0" width="130" height="100" rx="10" ry="10" style="stroke: black; stroke-width: 2px; fill: white; fill-opacity: 0.95;"></rect><text lineHeight="1.2" class="djs-label" style="font-family: Arial, sans-serif; font-size: 12px; font-weight: normal; fill: black;"><tspan x="19.3115234375" y="46.4">Authorise/ Delete </tspan><tspan x="9.296875" y="60.8">deposit amendments</tspan></text></g><g class="djs-visual" id="Activity_0e4mhtx" transform="translate(5 2350)"><rect x="0" y="0" width="130" height="100" rx="10" ry="10" style="stroke: black; stroke-width: 2px; fill: white; fill-opacity: 0.95;"></rect><text lineHeight="1.2" class="djs-label" style="font-family: Arial, sans-serif; font-size: 12px; font-weight: normal; fill: black;"><tspan x="24.3046875" y="53.599999999999994">Update deposit</tspan></text></g><g class="djs-visual" id="DataObjectReference_17bdre4" transform="translate(182 2375)"><path d="m 0,0 28.23529411764706,0 7.058823529411765,8.196721311475411 0,40.98360655737705 -35.294117647058826,0 0,-49.18032786885246 28.23529411764706,0 0,8.196721311475411 7.058823529411765,0" style="fill: white; stroke-width: 2px; stroke: black; fill-opacity: 0.95;"></path></g><g class="djs-visual" id="DataObjectReference_17bdre4_label" transform="translate(159 2433)"><text lineHeight="1.2" class="djs-label" style="font-family: Arial, sans-serif; font-size: 11px; font-weight: normal; fill: black;"><tspan x="0" y="9.899999999999999">Customer Advice</tspan></text></g><g class="djs-visual" id="Activity_1x0ift8" transform="translate(5 2530)"><rect x="0" y="0" width="130" height="100" rx="10" ry="10" style="stroke: black; stroke-width: 2px; fill: white; fill-opacity: 0.95;"></rect><text lineHeight="1.2" class="djs-label" style="font-family: Arial, sans-serif; font-size: 12px; font-weight: normal; fill: black;"><tspan x="27.1552734375" y="53.599999999999994">Deliver advice</tspan></text></g><g class="djs-visual" id="DataObjectReference_1fxbzyr" transform="translate(182 2555)"><path d="m 0,0 28.23529411764706,0 7.058823529411765,8.196721311475411 0,40.98360655737705 -35.294117647058826,0 0,-49.18032786885246 28.23529411764706,0 0,8.196721311475411 7.058823529411765,0" style="fill: white; stroke-width: 2px; stroke: black; fill-opacity: 0.95;"></path></g><g class="djs-visual" id="DataObjectReference_1fxbzyr_label" transform="translate(159 2615)"><text lineHeight="1.2" class="djs-label" style="font-family: Arial, sans-serif; font-size: 11px; font-weight: normal; fill: black;"><tspan x="0" y="9.899999999999999">Customer Advice</tspan></text></g><g class="djs-visual" id="Event_0xi8i5w" transform="translate(52 2702)"><circle cx="18" cy="18" r="18" style="stroke: black; stroke-width: 4px; fill: white; fill-opacity: 0.95;"></circle></g><g class="djs-visual" id="Event_0xi8i5w_label" transform="translate(21 2748)"><text lineHeight="1.2" class="djs-label" style="font-family: Arial, sans-serif; font-size: 11px; font-weight: normal; fill: black;"><tspan x="0" y="9.899999999999999">Deposit amendment </tspan><tspan x="24.309814453125" y="23.099999999999998">completed</tspan></text></g><g class="djs-visual" id="TextAnnotation_1s8f4j7" transform="translate(740 1740)"><rect x="0" y="0" width="240" height="142" rx="0" ry="0" style="stroke: none; stroke-width: 2px; fill: none;"></rect><path d="m 0, 0 m 10,0 l -10,0 l 0,142 l 10,0" style="fill: none; stroke-width: 2px; stroke: black;"></path><text lineHeight="1.2" class="djs-label" style="font-family: Arial, sans-serif; font-size: 12px; font-weight: normal; fill: black;"><tspan x="5" y="15.799999999999999">Amendment can be applicable on Past </tspan><tspan x="5" y="30.199999999999996">Date/ Current System Date/ Future Date </tspan><tspan x="5" y="44.599999999999994">and can be done for</tspan><tspan x="5" y="58.99999999999999">- Term of the deposit</tspan><tspan x="5" y="73.39999999999999">- Interest Rate</tspan><tspan x="5" y="87.79999999999998">- Interest payment schedule frequency</tspan><tspan x="5" y="102.19999999999999">- Settlement instructions (Manual/ Auto)</tspan><tspan x="5" y="116.6">- Mark Arrangement Dormant</tspan><tspan x="5" y="131">- Branch and Line of Business</tspan></text></g><g class="djs-visual" id="TextAnnotation_0152xmx" transform="translate(1260 1747)"><rect x="0" y="0" width="240" height="135" rx="0" ry="0" style="stroke: none; stroke-width: 2px; fill: none;"></rect><path d="m 0, 0 m 10,0 l -10,0 l 0,135 l 10,0" style="fill: none; stroke-width: 2px; stroke: black;"></path><text lineHeight="1.2" class="djs-label" style="font-family: Arial, sans-serif; font-size: 12px; font-weight: normal; fill: black;"><tspan x="5" y="15.799999999999999">Amendment can be applicable on Past </tspan><tspan x="5" y="30.199999999999996">Date/ Current System Date/ Future Date </tspan><tspan x="5" y="44.599999999999994">and can be done for</tspan><tspan x="5" y="58.99999999999999">- Term of the deposit</tspan><tspan x="5" y="73.39999999999999">- Interest Rate</tspan><tspan x="5" y="87.79999999999998">- Interest payment schedule frequency</tspan><tspan x="5" y="102.19999999999999">- Settlement instructions (Manual/ Auto)</tspan><tspan x="5" y="116.6">- Mark Arrangement Dormant</tspan><tspan x="5" y="131">- Branch and Line of Business</tspan></text></g><g class="djs-visual" id="TextAnnotation_1m5bryo" transform="translate(180 2300)"><rect x="0" y="0" width="140" height="30" rx="0" ry="0" style="stroke: none; stroke-width: 2px; fill: none;"></rect><path d="m 0, 0 m 10,0 l -10,0 l 0,30 l 10,0" style="fill: none; stroke-width: 2px; stroke: black;"></path><text lineHeight="1.2" class="djs-label" style="font-family: Arial, sans-serif; font-size: 12px; font-weight: normal; fill: black;"><tspan x="5" y="15.799999999999999">Accounting entries</tspan></text></g><g class="djs-visual" id="TextAnnotation_1tfsy75" transform="translate(180 160)"><rect x="0" y="0" width="100" height="40" rx="0" ry="0" style="stroke: none; stroke-width: 2px; fill: none;"></rect><path d="m 0, 0 m 10,0 l -10,0 l 0,40 l 10,0" style="fill: none; stroke-width: 2px; stroke: black;"></path><text lineHeight="1.2" class="djs-label" style="font-family: Arial, sans-serif; font-size: 12px; font-weight: normal; fill: black;"><tspan x="5" y="15.799999999999999">Mandates/ </tspan><tspan x="5" y="30.199999999999996">Signatories</tspan></text></g><g class="djs-visual" id="TextAnnotation_0fs4jw8" transform="translate(205 1740)"><rect x="0" y="0" width="330" height="170" rx="0" ry="0" style="stroke: none; stroke-width: 2px; fill: none;"></rect><path d="m 0, 0 m 10,0 l -10,0 l 0,170 l 10,0" style="fill: none; stroke-width: 2px; stroke: black;"></path><text lineHeight="1.2" class="djs-label" style="font-family: Arial, sans-serif; font-size: 12px; font-weight: normal; fill: black;"><tspan x="5" y="15.799999999999999">Amendment can be applicable on Past Date/ Current </tspan><tspan x="5" y="30.199999999999996">System Date/ Future Date and can be done for</tspan><tspan x="5" y="44.599999999999994">- Term of the deposit</tspan><tspan x="5" y="58.99999999999999">- Interest Rate (Fixed, Floating, Periodic, RFR)</tspan><tspan x="5" y="73.39999999999999">- Charges for break cost fee if any</tspan><tspan x="5" y="87.79999999999998">- Interest payment schedule frequency</tspan><tspan x="5" y="102.19999999999999">- Settlement instructions (Manual/ Auto)</tspan><tspan x="5" y="116.6">- Mark Arrangement Dormant</tspan><tspan x="5" y="131">- Branch and Line of Business</tspan><tspan x="5" y="145.4">- Adding Portfolio ID Number for Securities</tspan><tspan x="5" y="159.8">- Renewal Conditions (Date, Method) for Deposit Rollover</tspan></text></g><g class="djs-visual" id="DataInputAssociation_17g1hcq" transform="translate(0 0)"><polyline points="-62,77 5,77 " style="fill: none; stroke: black; stroke-width: 2px; stroke-dasharray: 0.5, 5; stroke-linecap: round; stroke-linejoin: round; marker-end: url(&quot;#association-end-white-black-eyrv201v1oru72scbz85w8ywu&quot;);"></polyline></g><g class="djs-visual" id="Flow_1ykqdfk_label" transform="translate(81 466)"><text lineHeight="1.2" class="djs-label" style="font-family: Arial, sans-serif; font-size: 11px; font-weight: normal; fill: black;"><tspan x="8.523193359375" y="9.899999999999999">Customer </tspan><tspan x="0" y="23.099999999999998">authenticated</tspan></text></g><g class="djs-visual" id="Flow_1dzu223_label" transform="translate(566 466)"><text lineHeight="1.2" class="djs-label" style="font-family: Arial, sans-serif; font-size: 11px; font-weight: normal; fill: black;"><tspan x="0" y="9.899999999999999">Customer not </tspan><tspan x="0.4541015625" y="23.099999999999998">authenticated</tspan></text></g><g class="djs-visual" id="Flow_09yna80_label" transform="translate(190 676)"><text lineHeight="1.2" class="djs-label" style="font-family: Arial, sans-serif; font-size: 11px; font-weight: normal; fill: black;"><tspan x="0" y="9.899999999999999">Simulation to be </tspan><tspan x="12.988037109375" y="23.099999999999998">carried out</tspan></text></g><g class="djs-visual" id="Flow_09upi62_label" transform="translate(170 1300)"><text lineHeight="1.2" class="djs-label" style="font-family: Arial, sans-serif; font-size: 11px; font-weight: normal; fill: black;"><tspan x="0" y="9.899999999999999">Amendment request </tspan><tspan x="19.115966796875" y="23.099999999999998">to be fulfilled</tspan></text></g><g class="djs-visual" id="Flow_0fw8l01_label" transform="translate(79 737)"><text lineHeight="1.2" class="djs-label" style="font-family: Arial, sans-serif; font-size: 11px; font-weight: normal; fill: black;"><tspan x="0" y="9.899999999999999">Simulation not </tspan><tspan x="15.145263671875" y="23.099999999999998">required</tspan></text></g><g class="djs-visual" id="Flow_1nemj2g_label" transform="translate(81 1640)"><text lineHeight="1.2" class="djs-label" style="font-family: Arial, sans-serif; font-size: 11px; font-weight: normal; fill: black;"><tspan x="20.283447265625" y="9.899999999999999">Fixed deposit </tspan><tspan x="0.51513671875" y="23.099999999999998">(Various fixed deposit </tspan><tspan x="31.343017578125" y="36.3">types are </tspan><tspan x="1.64306640625" y="49.5">- Short term deposit -</tspan><tspan x="8.96923828125" y="62.7">Long term deposit </tspan><tspan x="0" y="75.9">- Floating term deposi</tspan><tspan x="51.968017578125" y="89.10000000000001">t </tspan><tspan x="2.725830078125" y="102.30000000000001">- Call deposit - Disco</tspan><tspan x="19.05615234375" y="115.50000000000001">unted Deposit </tspan><tspan x="0.028076171875" y="128.70000000000002">- Roll over deposit etc</tspan><tspan x="49.93994140625" y="141.9">.)</tspan></text></g><g class="djs-visual" id="Flow_15e8y0k_label" transform="translate(632 1646)"><text lineHeight="1.2" class="djs-label" style="font-family: Arial, sans-serif; font-size: 11px; font-weight: normal; fill: black;"><tspan x="0" y="9.899999999999999">Bonds (Various Bond </tspan><tspan x="29.4453125" y="23.099999999999998">types are </tspan><tspan x="1.4453125" y="36.3">- Fixed term 6M-Bon</tspan><tspan x="48.5078125" y="49.5">d </tspan><tspan x="1.4453125" y="62.7">- Fixed term 1yr-Bon</tspan><tspan x="48.5078125" y="75.9">d </tspan><tspan x="1.4453125" y="89.10000000000001">- Fixed term 3yr-Bon</tspan><tspan x="46.511474609375" y="102.30000000000001">d)</tspan></text></g><g class="djs-visual" id="Flow_076lg14_label" transform="translate(1158 1663)"><text lineHeight="1.2" class="djs-label" style="font-family: Arial, sans-serif; font-size: 11px; font-weight: normal; fill: black;"><tspan x="0" y="9.899999999999999">Savings plan</tspan></text></g><g class="djs-visual" id="Flow_1tcola6_label" transform="translate(87 2096)"><text lineHeight="1.2" class="djs-label" style="font-family: Arial, sans-serif; font-size: 11px; font-weight: normal; fill: black;"><tspan x="0" y="9.899999999999999">Amendment to be </tspan><tspan x="17.234375" y="23.099999999999998">authorised</tspan></text></g><g class="djs-visual" id="DataOutputAssociation_02v4swe" transform="translate(0 0)"><polyline points="135,2400 182,2401 " style="fill: none; stroke: black; stroke-width: 2px; stroke-dasharray: 0.5, 5; stroke-linecap: round; stroke-linejoin: round; marker-end: url(&quot;#association-end-white-black-eyrv201v1oru72scbz85w8ywu&quot;);"></polyline></g><g class="djs-visual" id="DataOutputAssociation_0k0z6sd" transform="translate(0 0)"><polyline points="135,2580 182,2580 " style="fill: none; stroke: black; stroke-width: 2px; stroke-dasharray: 0.5, 5; stroke-linecap: round; stroke-linejoin: round; marker-end: url(&quot;#association-end-white-black-eyrv201v1oru72scbz85w8ywu&quot;);"></polyline></g><g class="djs-visual" id="Association_00de0bg" transform="translate(0 0)"><polyline points="685,1838 740,1801 " style="fill: none; stroke: black; stroke-width: 2px; stroke-dasharray: 0.5, 5; stroke-linecap: round; stroke-linejoin: round;"></polyline></g><g class="djs-visual" id="Association_0g7j0px" transform="translate(0 0)"><polyline points="1195,1851 1260,1819 " style="fill: none; stroke: black; stroke-width: 2px; stroke-dasharray: 0.5, 5; stroke-linecap: round; stroke-linejoin: round;"></polyline></g><g class="djs-visual" id="Association_1hdbmio" transform="translate(0 0)"><polyline points="129,2351 180,2307 " style="fill: none; stroke: black; stroke-width: 2px; stroke-dasharray: 0.5, 5; stroke-linecap: round; stroke-linejoin: round;"></polyline></g><g class="djs-visual" id="Association_0iu56vp" transform="translate(0 0)"><polyline points="131,223 180,185 " style="fill: none; stroke: black; stroke-width: 2px; stroke-dasharray: 0.5, 5; stroke-linecap: round; stroke-linejoin: round;"></polyline></g><g class="djs-visual" id="Association_04nidcf" transform="translate(0 0)"><polyline points="135,1849 205,1816 " style="fill: none; stroke: black; stroke-width: 2px; stroke-dasharray: 0.5, 5; stroke-linecap: round; stroke-linejoin: round;"></polyline></g></g><g><rect class="viewport" x="-3092.4454148471614" y="-100.03930131004365" width="7576.419213973799" height="2882.0960698689955"></rect></g></svg>