<svg width="100%" height="100%" viewBox="-50, 112, 1835, 1526"><g><g class="djs-visual" id="Flow_1wdvj0d" transform="translate(0 0)"><path d="m  645,900L645,1210 L285,1210 " style="fill: none; stroke-width: 2px; stroke: black; stroke-linejoin: round; marker-end: url(&quot;#sequenceflow-end-white-black-d6coir6jho4ib0c7c0bvn8pa2&quot;);"></path></g><g class="djs-visual" id="Flow_0tdss88" transform="translate(0 0)"><path d="m  260,1420L260,1519 " style="fill: none; stroke-width: 2px; stroke: black; stroke-linejoin: round; marker-end: url(&quot;#sequenceflow-end-white-black-d6coir6jho4ib0c7c0bvn8pa2&quot;);"></path></g><g class="djs-visual" id="Flow_00e2zs8" transform="translate(0 0)"><path d="m  260,1235L260,1320 " style="fill: none; stroke-width: 2px; stroke: black; stroke-linejoin: round; marker-end: url(&quot;#sequenceflow-end-white-black-d6coir6jho4ib0c7c0bvn8pa2&quot;);"></path></g><g class="djs-visual" id="Flow_1c4s1u8" transform="translate(0 0)"><path d="m  470,1000L470,1072 " style="fill: none; stroke-width: 2px; stroke: black; stroke-linejoin: round; marker-end: url(&quot;#sequenceflow-end-white-black-d6coir6jho4ib0c7c0bvn8pa2&quot;);"></path></g><g class="djs-visual" id="Flow_0ce3b1d" transform="translate(0 0)"><path d="m  260,825L260,1185 " style="fill: none; stroke-width: 2px; stroke: black; stroke-linejoin: round; marker-end: url(&quot;#sequenceflow-end-white-black-d6coir6jho4ib0c7c0bvn8pa2&quot;);"></path></g><g class="djs-visual" id="Flow_1f31hl0" transform="translate(0 0)"><path d="m  285,800L470,800 L470,900 " style="fill: none; stroke-width: 2px; stroke: black; stroke-linejoin: round; marker-end: url(&quot;#sequenceflow-end-white-black-d6coir6jho4ib0c7c0bvn8pa2&quot;);"></path></g><g class="djs-visual" id="Flow_0f41hcy" transform="translate(0 0)"><path d="m  260,710L260,775 " style="fill: none; stroke-width: 2px; stroke: black; stroke-linejoin: round; marker-end: url(&quot;#sequenceflow-end-white-black-d6coir6jho4ib0c7c0bvn8pa2&quot;);"></path></g><g class="djs-visual" id="Flow_19iqkbs" transform="translate(0 0)"><path d="m  645,710L645,800 " style="fill: none; stroke-width: 2px; stroke: black; stroke-linejoin: round; marker-end: url(&quot;#sequenceflow-end-white-black-d6coir6jho4ib0c7c0bvn8pa2&quot;);"></path></g><g class="djs-visual" id="Flow_15226os" transform="translate(0 0)"><path d="m  260,535L260,610 " style="fill: none; stroke-width: 2px; stroke: black; stroke-linejoin: round; marker-end: url(&quot;#sequenceflow-end-white-black-d6coir6jho4ib0c7c0bvn8pa2&quot;);"></path></g><g class="djs-visual" id="Flow_1142dxd" transform="translate(0 0)"><path d="m  285,510L645,510 L645,610 " style="fill: none; stroke-width: 2px; stroke: black; stroke-linejoin: round; marker-end: url(&quot;#sequenceflow-end-white-black-d6coir6jho4ib0c7c0bvn8pa2&quot;);"></path></g><g class="djs-visual" id="Flow_1p46bey" transform="translate(0 0)"><path d="m  260,420L260,485 " style="fill: none; stroke-width: 2px; stroke: black; stroke-linejoin: round; marker-end: url(&quot;#sequenceflow-end-white-black-d6coir6jho4ib0c7c0bvn8pa2&quot;);"></path></g><g class="djs-visual" id="Flow_05qvevp" transform="translate(0 0)"><path d="m  260,248L260,320 " style="fill: none; stroke-width: 2px; stroke: black; stroke-linejoin: round; marker-end: url(&quot;#sequenceflow-end-white-black-d6coir6jho4ib0c7c0bvn8pa2&quot;);"></path></g><g class="djs-visual" id="StartEvent_1bm324f" transform="translate(242 212)"><circle cx="18" cy="18" r="18" style="stroke: black; stroke-width: 2px; fill: white; fill-opacity: 0.95;"></circle></g><g class="djs-visual" id="StartEvent_1bm324f_label" transform="translate(214 168)"><text lineHeight="1.2" class="djs-label" style="font-family: Arial, sans-serif; font-size: 11px; font-weight: normal; fill: black;"><tspan x="0" y="9.899999999999999">Customer wants to </tspan><tspan x="5.434814453125" y="23.099999999999998">sell FCY against </tspan><tspan x="22.1015625" y="36.3">LCY cash</tspan></text></g><g class="djs-visual" id="Activity_176nio1" transform="translate(195 320)"><rect x="0" y="0" width="130" height="100" rx="10" ry="10" style="stroke: black; stroke-width: 2px; fill: white; fill-opacity: 0.95;"></rect><text lineHeight="1.2" class="djs-label" style="font-family: Arial, sans-serif; font-size: 12px; font-weight: normal; fill: black;"><tspan x="11.3046875" y="46.4">Receive instructions </tspan><tspan x="25.32421875" y="60.8">from Customer</tspan></text></g><g class="djs-visual" id="DataObjectReference_1u53lgg" transform="translate(62 345)"><path d="m 0,0 28.23529411764706,0 7.058823529411765,8.196721311475411 0,40.98360655737705 -35.294117647058826,0 0,-49.18032786885246 28.23529411764706,0 0,8.196721311475411 7.058823529411765,0" style="fill: white; stroke-width: 2px; stroke: black; fill-opacity: 0.95;"></path></g><g class="djs-visual" id="DataObjectReference_1u53lgg_label" transform="translate(35 402)"><text lineHeight="1.2" class="djs-label" style="font-family: Arial, sans-serif; font-size: 11px; font-weight: normal; fill: black;"><tspan x="0" y="9.899999999999999">Request FCY Sale</tspan></text></g><g class="djs-visual" id="Gateway_1rihpii" transform="translate(235 485)"><polygon points="25,0 50,25 25,50 0,25" style="stroke: black; stroke-width: 2px; fill: white; fill-opacity: 0.95;"></polygon><path d="m 16,15 7.42857142857143,9.714285714285715 -7.42857142857143,9.714285714285715 3.428571428571429,0 5.714285714285715,-7.464228571428572 5.714285714285715,7.464228571428572 3.428571428571429,0 -7.42857142857143,-9.714285714285715 7.42857142857143,-9.714285714285715 -3.428571428571429,0 -5.714285714285715,7.464228571428572 -5.714285714285715,-7.464228571428572 -3.428571428571429,0 z" style="fill: black; stroke-width: 1px; stroke: black;"></path></g><g class="djs-visual" id="Activity_0iyjdxc" transform="translate(580 610)"><rect x="0" y="0" width="130" height="100" rx="10" ry="10" style="stroke: black; stroke-width: 2px; fill: white; fill-opacity: 0.95;"></rect><text lineHeight="1.2" class="djs-label" style="font-family: Arial, sans-serif; font-size: 12px; font-weight: normal; fill: black;"><tspan x="43.16015625" y="32">Receive </tspan><tspan x="27.474609375" y="46.4">authentication </tspan><tspan x="21.9765625" y="60.8">documents from </tspan><tspan x="38.4912109375" y="75.19999999999999">Customer</tspan></text></g><g class="djs-visual" id="Activity_1i9qyjf" transform="translate(195 610)"><rect x="0" y="0" width="130" height="100" rx="10" ry="10" style="stroke: black; stroke-width: 2px; fill: white; fill-opacity: 0.95;"></rect><text lineHeight="1.2" class="djs-label" style="font-family: Arial, sans-serif; font-size: 12px; font-weight: normal; fill: black;"><tspan x="31.9794921875" y="46.4">Authenticate </tspan><tspan x="38.4912109375" y="60.8">Customer</tspan></text></g><g class="djs-visual" id="DataObjectReference_1hpd0uf" transform="translate(452 635)"><path d="m 0,0 28.23529411764706,0 7.058823529411765,8.196721311475411 0,40.98360655737705 -35.294117647058826,0 0,-49.18032786885246 28.23529411764706,0 0,8.196721311475411 7.058823529411765,0" style="fill: white; stroke-width: 2px; stroke: black; fill-opacity: 0.95;"></path></g><g class="djs-visual" id="DataObjectReference_1hpd0uf_label" transform="translate(440 692)"><text lineHeight="1.2" class="djs-label" style="font-family: Arial, sans-serif; font-size: 11px; font-weight: normal; fill: black;"><tspan x="6.374755859375" y="9.899999999999999">Customer </tspan><tspan x="0" y="23.099999999999998">Identification</tspan><tspan x="2.81591796875" y="36.3">Documents</tspan></text></g><g class="djs-visual" id="Activity_0ypzyoz" transform="translate(580 800)"><rect x="0" y="0" width="130" height="100" rx="10" ry="10" style="stroke: black; stroke-width: 2px; fill: white; fill-opacity: 0.95;"></rect><text lineHeight="1.2" class="djs-label" style="font-family: Arial, sans-serif; font-size: 12px; font-weight: normal; fill: black;"><tspan x="12.1328125" y="39.2">Approve documents </tspan><tspan x="16.1533203125" y="53.6">submitted for FCY </tspan><tspan x="53.830078125" y="68">sale</tspan></text></g><g class="djs-visual" id="Gateway_1a8nimv" transform="translate(235 775)"><polygon points="25,0 50,25 25,50 0,25" style="stroke: black; stroke-width: 2px; fill: white; fill-opacity: 0.95;"></polygon><path d="m 16,15 7.42857142857143,9.714285714285715 -7.42857142857143,9.714285714285715 3.428571428571429,0 5.714285714285715,-7.464228571428572 5.714285714285715,7.464228571428572 3.428571428571429,0 -7.42857142857143,-9.714285714285715 7.42857142857143,-9.714285714285715 -3.428571428571429,0 -5.714285714285715,7.464228571428572 -5.714285714285715,-7.464228571428572 -3.428571428571429,0 z" style="fill: black; stroke-width: 1px; stroke: black;"></path></g><g class="djs-visual" id="Activity_1ucymzs" transform="translate(405 900)"><rect x="0" y="0" width="130" height="100" rx="10" ry="10" style="stroke: black; stroke-width: 2px; fill: white; fill-opacity: 0.95;"></rect><text lineHeight="1.2" class="djs-label" style="font-family: Arial, sans-serif; font-size: 12px; font-weight: normal; fill: black;"><tspan x="19.8203125" y="39.2">Inform Customer </tspan><tspan x="13.466796875" y="53.6">about unsuccessful </tspan><tspan x="27.474609375" y="68">authentication</tspan></text></g><g class="djs-visual" id="Gateway_0w7osy2" transform="translate(235 1185)"><polygon points="25,0 50,25 25,50 0,25" style="stroke: black; stroke-width: 2px; fill: white; fill-opacity: 0.95;"></polygon><path d="m 16,15 7.42857142857143,9.714285714285715 -7.42857142857143,9.714285714285715 3.428571428571429,0 5.714285714285715,-7.464228571428572 5.714285714285715,7.464228571428572 3.428571428571429,0 -7.42857142857143,-9.714285714285715 7.42857142857143,-9.714285714285715 -3.428571428571429,0 -5.714285714285715,7.464228571428572 -5.714285714285715,-7.464228571428572 -3.428571428571429,0 z" style="fill: black; stroke-width: 1px; stroke: black;"></path></g><g class="djs-visual" id="Event_1r4jfst" transform="translate(452 1072)"><circle cx="18" cy="18" r="18" style="stroke: black; stroke-width: 4px; fill: white; fill-opacity: 0.95;"></circle></g><g class="djs-visual" id="Event_1r4jfst_label" transform="translate(424 1115)"><text lineHeight="1.2" class="djs-label" style="font-family: Arial, sans-serif; font-size: 11px; font-weight: normal; fill: black;"><tspan x="0" y="9.899999999999999">Customer informed </tspan><tspan x="18.328125" y="23.099999999999998">about failed </tspan><tspan x="12.5234375" y="36.3">authentication</tspan></text></g><g class="djs-visual" id="Activity_01et2r9" transform="translate(195 1320)"><rect x="0" y="0" width="130" height="100" rx="10" ry="10" style="stroke: black; stroke-width: 2px; fill: white; fill-opacity: 0.95;"></rect><text lineHeight="1.2" class="djs-label" style="font-family: Arial, sans-serif; font-size: 12px; font-weight: normal; fill: black;"><tspan x="16.4677734375" y="46.4">Enquire exchange </tspan><tspan x="54.498046875" y="60.8">rate</tspan></text></g><g class="djs-visual" id="Event_1sujn1x" transform="translate(242 1519)"><circle cx="18" cy="18" r="18" style="stroke: black; stroke-width: 4px; fill: white; fill-opacity: 0.95;"></circle></g><g class="djs-visual" id="Event_1sujn1x_label" transform="translate(211 1555)"><text lineHeight="1.2" class="djs-label" style="font-family: Arial, sans-serif; font-size: 11px; font-weight: normal; fill: black;"><tspan x="0" y="9.899999999999999">FCY purchase to be </tspan><tspan x="26.4921875" y="23.099999999999998">executed</tspan></text></g><g class="djs-visual" id="TextAnnotation_0p7h63a" transform="translate(360 260)"><rect x="0" y="0" width="130" height="40" rx="0" ry="0" style="stroke: none; stroke-width: 2px; fill: none;"></rect><path d="m 0, 0 m 10,0 l -10,0 l 0,40 l 10,0" style="fill: none; stroke-width: 2px; stroke: black;"></path><text lineHeight="1.2" class="djs-label" style="font-family: Arial, sans-serif; font-size: 12px; font-weight: normal; fill: black;"><tspan x="5" y="15.799999999999999">- Name</tspan><tspan x="5" y="30.199999999999996">- Amount/ Currency</tspan></text></g><g class="djs-visual" id="TextAnnotation_1vyp2y1" transform="translate(360 1260)"><rect x="0" y="0" width="134" height="40" rx="0" ry="0" style="stroke: none; stroke-width: 2px; fill: none;"></rect><path d="m 0, 0 m 10,0 l -10,0 l 0,40 l 10,0" style="fill: none; stroke-width: 2px; stroke: black;"></path><text lineHeight="1.2" class="djs-label" style="font-family: Arial, sans-serif; font-size: 12px; font-weight: normal; fill: black;"><tspan x="5" y="15.799999999999999">Confirm Exchange rate</tspan><tspan x="5" y="30.199999999999996">with the Customer</tspan></text></g><g class="djs-visual" id="DataInputAssociation_09j8r7m" transform="translate(0 0)"><polyline points="98,370 195,370 " style="fill: none; stroke: black; stroke-width: 2px; stroke-dasharray: 0.5, 5; stroke-linecap: round; stroke-linejoin: round; marker-end: url(&quot;#association-end-white-black-d6coir6jho4ib0c7c0bvn8pa2&quot;);"></polyline></g><g class="djs-visual" id="DataInputAssociation_1in0l4d" transform="translate(0 0)"><polyline points="488,660 580,660 " style="fill: none; stroke: black; stroke-width: 2px; stroke-dasharray: 0.5, 5; stroke-linecap: round; stroke-linejoin: round; marker-end: url(&quot;#association-end-white-black-d6coir6jho4ib0c7c0bvn8pa2&quot;);"></polyline></g><g class="djs-visual" id="Flow_1142dxd_label" transform="translate(413 490)"><text lineHeight="1.2" class="djs-label" style="font-family: Arial, sans-serif; font-size: 11px; font-weight: normal; fill: black;"><tspan x="0" y="9.899999999999999">Non Customer</tspan></text></g><g class="djs-visual" id="Flow_15226os_label" transform="translate(275 557)"><text lineHeight="1.2" class="djs-label" style="font-family: Arial, sans-serif; font-size: 11px; font-weight: normal; fill: black;"><tspan x="0" y="9.899999999999999">Existing Customer</tspan></text></g><g class="djs-visual" id="Flow_1f31hl0_label" transform="translate(346 766)"><text lineHeight="1.2" class="djs-label" style="font-family: Arial, sans-serif; font-size: 11px; font-weight: normal; fill: black;"><tspan x="0" y="9.899999999999999">Customer not </tspan><tspan x="0.4541015625" y="23.099999999999998">authenticated</tspan></text></g><g class="djs-visual" id="Flow_0ce3b1d_label" transform="translate(266 846)"><text lineHeight="1.2" class="djs-label" style="font-family: Arial, sans-serif; font-size: 11px; font-weight: normal; fill: black;"><tspan x="8.523193359375" y="9.899999999999999">Customer </tspan><tspan x="0" y="23.099999999999998">authenticated</tspan></text></g><g class="djs-visual" id="Flow_1wdvj0d_label" transform="translate(638 920)"><text lineHeight="1.2" class="djs-label" style="font-family: Arial, sans-serif; font-size: 11px; font-weight: normal; fill: black;"><tspan x="14.8671875" y="9.899999999999999">Authentication </tspan><tspan x="0" y="23.099999999999998">documents received </tspan><tspan x="15.5859375" y="36.3">and approved</tspan></text></g><g class="djs-visual" id="Association_0xexz7x" transform="translate(0 0)"><polyline points="320,320 360,280 " style="fill: none; stroke: black; stroke-width: 2px; stroke-dasharray: 0.5, 5; stroke-linecap: round; stroke-linejoin: round;"></polyline></g><g class="djs-visual" id="Association_0v5vpwe" transform="translate(0 0)"><polyline points="320,1320 360,1280 " style="fill: none; stroke: black; stroke-width: 2px; stroke-dasharray: 0.5, 5; stroke-linecap: round; stroke-linejoin: round;"></polyline></g></g><g><rect class="viewport" x="-1487.7883369330452" y="161.94168466522677" width="3747.300215982721" height="1425.48596112311"></rect></g></svg>