<svg width="100%" height="100%" viewBox="-50, 118, 1835, 1305"><g><g class="djs-visual" id="Flow_1140ios" transform="translate(0 0)"><path d="m  260,1220L260,1302 " style="fill: none; stroke-width: 2px; stroke: black; stroke-linejoin: round; marker-end: url(&quot;#sequenceflow-end-white-black-7nim2p8pdq8wfphpjwc9vas0x&quot;);"></path></g><g class="djs-visual" id="Flow_1w5t2fp" transform="translate(0 0)"><path d="m  260,1045L260,1120 " style="fill: none; stroke-width: 2px; stroke: black; stroke-linejoin: round; marker-end: url(&quot;#sequenceflow-end-white-black-7nim2p8pdq8wfphpjwc9vas0x&quot;);"></path></g><g class="djs-visual" id="Flow_0hjlhce" transform="translate(0 0)"><path d="m  285,700L490,700 L490,1020 L285,1020 " style="fill: none; stroke-width: 2px; stroke: black; stroke-linejoin: round; marker-end: url(&quot;#sequenceflow-end-white-black-7nim2p8pdq8wfphpjwc9vas0x&quot;);"></path></g><g class="djs-visual" id="Flow_0jmuh40" transform="translate(0 0)"><path d="m  260,900L260,995 " style="fill: none; stroke-width: 2px; stroke: black; stroke-linejoin: round; marker-end: url(&quot;#sequenceflow-end-white-black-7nim2p8pdq8wfphpjwc9vas0x&quot;);"></path></g><g class="djs-visual" id="Flow_0pxht0t" transform="translate(0 0)"><path d="m  260,725L260,800 " style="fill: none; stroke-width: 2px; stroke: black; stroke-linejoin: round; marker-end: url(&quot;#sequenceflow-end-white-black-7nim2p8pdq8wfphpjwc9vas0x&quot;);"></path></g><g class="djs-visual" id="Flow_0733f9z" transform="translate(0 0)"><path d="m  260,630L260,675 " style="fill: none; stroke-width: 2px; stroke: black; stroke-linejoin: round; marker-end: url(&quot;#sequenceflow-end-white-black-7nim2p8pdq8wfphpjwc9vas0x&quot;);"></path></g><g class="djs-visual" id="Flow_18qztqx" transform="translate(0 0)"><path d="m  260,440L260,530 " style="fill: none; stroke-width: 2px; stroke: black; stroke-linejoin: round; marker-end: url(&quot;#sequenceflow-end-white-black-7nim2p8pdq8wfphpjwc9vas0x&quot;);"></path></g><g class="djs-visual" id="Flow_148h84r" transform="translate(0 0)"><path d="m  260,258L260,340 " style="fill: none; stroke-width: 2px; stroke: black; stroke-linejoin: round; marker-end: url(&quot;#sequenceflow-end-white-black-7nim2p8pdq8wfphpjwc9vas0x&quot;);"></path></g><g class="djs-visual" id="StartEvent_1bm324f" transform="translate(242 222)"><circle cx="18" cy="18" r="18" style="stroke: black; stroke-width: 2px; fill: white; fill-opacity: 0.95;"></circle></g><g class="djs-visual" id="StartEvent_1bm324f_label" transform="translate(228 174)"><text lineHeight="1.2" class="djs-label" style="font-family: Arial, sans-serif; font-size: 11px; font-weight: normal; fill: black;"><tspan x="0" y="9.899999999999999">New till to be </tspan><tspan x="13.140625" y="23.099999999999998">created</tspan></text></g><g class="djs-visual" id="Activity_184b7r9" transform="translate(195 340)"><rect x="0" y="0" width="130" height="100" rx="10" ry="10" style="stroke: black; stroke-width: 2px; fill: white; fill-opacity: 0.95;"></rect><text lineHeight="1.2" class="djs-label" style="font-family: Arial, sans-serif; font-size: 12px; font-weight: normal; fill: black;"><tspan x="30.1484375" y="53.599999999999994">Open new till</tspan></text></g><g class="djs-visual" id="Activity_0sa26q8" transform="translate(195 530)"><rect x="0" y="0" width="130" height="100" rx="10" ry="10" style="stroke: black; stroke-width: 2px; fill: white; fill-opacity: 0.95;"></rect><text lineHeight="1.2" class="djs-label" style="font-family: Arial, sans-serif; font-size: 12px; font-weight: normal; fill: black;"><tspan x="18.5869140625" y="53.599999999999994">Select Teller user</tspan></text></g><g class="djs-visual" id="Gateway_0s7ttnk" transform="translate(235 675)"><polygon points="25,0 50,25 25,50 0,25" style="stroke: black; stroke-width: 2px; fill: white; fill-opacity: 0.95;"></polygon><path d="m 16,15 7.42857142857143,9.714285714285715 -7.42857142857143,9.714285714285715 3.428571428571429,0 5.714285714285715,-7.464228571428572 5.714285714285715,7.464228571428572 3.428571428571429,0 -7.42857142857143,-9.714285714285715 7.42857142857143,-9.714285714285715 -3.428571428571429,0 -5.714285714285715,7.464228571428572 -5.714285714285715,-7.464228571428572 -3.428571428571429,0 z" style="fill: black; stroke-width: 1px; stroke: black;"></path></g><g class="djs-visual" id="Activity_1h2lpam" transform="translate(195 800)"><rect x="0" y="0" width="130" height="100" rx="10" ry="10" style="stroke: black; stroke-width: 2px; fill: white; fill-opacity: 0.95;"></rect><text lineHeight="1.2" class="djs-label" style="font-family: Arial, sans-serif; font-size: 12px; font-weight: normal; fill: black;"><tspan x="16.1455078125" y="46.4">Confirm passbook </tspan><tspan x="47.4931640625" y="60.8">device</tspan></text></g><g class="djs-visual" id="Gateway_0hcuemt" transform="translate(235 995)"><polygon points="25,0 50,25 25,50 0,25" style="stroke: black; stroke-width: 2px; fill: white; fill-opacity: 0.95;"></polygon><path d="m 16,15 7.42857142857143,9.714285714285715 -7.42857142857143,9.714285714285715 3.428571428571429,0 5.714285714285715,-7.464228571428572 5.714285714285715,7.464228571428572 3.428571428571429,0 -7.42857142857143,-9.714285714285715 7.42857142857143,-9.714285714285715 -3.428571428571429,0 -5.714285714285715,7.464228571428572 -5.714285714285715,-7.464228571428572 -3.428571428571429,0 z" style="fill: black; stroke-width: 1px; stroke: black;"></path></g><g class="djs-visual" id="Activity_1ok39d9" transform="translate(195 1120)"><rect x="0" y="0" width="130" height="100" rx="10" ry="10" style="stroke: black; stroke-width: 2px; fill: white; fill-opacity: 0.95;"></rect><text lineHeight="1.2" class="djs-label" style="font-family: Arial, sans-serif; font-size: 12px; font-weight: normal; fill: black;"><tspan x="26.8173828125" y="53.599999999999994">Create new till</tspan></text></g><g class="djs-visual" id="Event_01tc1tr" transform="translate(242 1302)"><circle cx="18" cy="18" r="18" style="stroke: black; stroke-width: 4px; fill: white; fill-opacity: 0.95;"></circle></g><g class="djs-visual" id="Event_01tc1tr_label" transform="translate(222 1353)"><text lineHeight="1.2" class="djs-label" style="font-family: Arial, sans-serif; font-size: 11px; font-weight: normal; fill: black;"><tspan x="0" y="9.899999999999999">New till created</tspan></text></g><g class="djs-visual" id="TextAnnotation_0twijf1" transform="translate(390 240)"><rect x="0" y="0" width="450" height="50" rx="0" ry="0" style="stroke: none; stroke-width: 2px; fill: none;"></rect><path d="m 0, 0 m 10,0 l -10,0 l 0,50 l 10,0" style="fill: none; stroke-width: 2px; stroke: black;"></path><text lineHeight="1.2" class="djs-label" style="font-family: Arial, sans-serif; font-size: 12px; font-weight: normal; fill: black;"><tspan x="5" y="15.799999999999999">- While opening Till, the Open/ Close indicator to be set to 'Open'</tspan><tspan x="5" y="30.199999999999996">- Till Limit can be set-up for LCY/ FCY</tspan><tspan x="5" y="44.599999999999994">- During closure, denominations entered can be validated against Stock Inventory</tspan></text></g><g class="djs-visual" id="Flow_0pxht0t_label" transform="translate(268 751)"><text lineHeight="1.2" class="djs-label" style="font-family: Arial, sans-serif; font-size: 11px; font-weight: normal; fill: black;"><tspan x="1.978759765625" y="9.899999999999999">Till connected to </tspan><tspan x="0" y="23.099999999999998">passbook printer</tspan></text></g><g class="djs-visual" id="Flow_0jmuh40_label" transform="translate(270 936)"><text lineHeight="1.2" class="djs-label" style="font-family: Arial, sans-serif; font-size: 11px; font-weight: normal; fill: black;"><tspan x="0" y="9.899999999999999">Creation of till to</tspan><tspan x="6.71875" y="23.099999999999998">be completed</tspan></text></g><g class="djs-visual" id="Flow_0hjlhce_label" transform="translate(336 654)"><text lineHeight="1.2" class="djs-label" style="font-family: Arial, sans-serif; font-size: 11px; font-weight: normal; fill: black;"><tspan x="0" y="9.899999999999999">Till not connected to</tspan><tspan x="7.193115234375" y="23.099999999999998">passbook printer</tspan></text></g><g class="djs-visual" id="Association_10otfkq" transform="translate(0 0)"><polyline points="321,342 390,288 " style="fill: none; stroke: black; stroke-width: 2px; stroke-dasharray: 0.5, 5; stroke-linecap: round; stroke-linejoin: round;"></polyline></g></g><g><rect class="viewport" x="-1065.7956204379561" y="167.91423357664232" width="3166.0583941605837" height="1204.3795620437954"></rect></g></svg>