<svg width="100%" height="100%" viewBox="-50, 238, 1835, 1570"><g><g class="djs-visual" id="Flow_1hih2y1" transform="translate(0 0)"><path d="m  150,1640L150,1682 " style="fill: none; stroke-width: 2px; stroke: black; stroke-linejoin: round; marker-end: url(&quot;#sequenceflow-end-white-black-ec2m50q82rp7sy9bp27tkg4xw&quot;);"></path></g><g class="djs-visual" id="Flow_0f13jhc" transform="translate(0 0)"><path d="m  150,1475L150,1540 " style="fill: none; stroke-width: 2px; stroke: black; stroke-linejoin: round; marker-end: url(&quot;#sequenceflow-end-white-black-ec2m50q82rp7sy9bp27tkg4xw&quot;);"></path></g><g class="djs-visual" id="Flow_0qi1uga" transform="translate(0 0)"><path d="m  175,620L590,620 L590,1450 L175,1450 " style="fill: none; stroke-width: 2px; stroke: black; stroke-linejoin: round; marker-end: url(&quot;#sequenceflow-end-white-black-ec2m50q82rp7sy9bp27tkg4xw&quot;);"></path></g><g class="djs-visual" id="Flow_0x3cs05" transform="translate(0 0)"><path d="m  150,1350L150,1425 " style="fill: none; stroke-width: 2px; stroke: black; stroke-linejoin: round; marker-end: url(&quot;#sequenceflow-end-white-black-ec2m50q82rp7sy9bp27tkg4xw&quot;);"></path></g><g class="djs-visual" id="Flow_0dq26ay" transform="translate(0 0)"><path d="m  150,1180L150,1250 " style="fill: none; stroke-width: 2px; stroke: black; stroke-linejoin: round; marker-end: url(&quot;#sequenceflow-end-white-black-ec2m50q82rp7sy9bp27tkg4xw&quot;);"></path></g><g class="djs-visual" id="Flow_09rcxqv" transform="translate(0 0)"><path d="m  150,1010L150,1080 " style="fill: none; stroke-width: 2px; stroke: black; stroke-linejoin: round; marker-end: url(&quot;#sequenceflow-end-white-black-ec2m50q82rp7sy9bp27tkg4xw&quot;);"></path></g><g class="djs-visual" id="Flow_00i954b" transform="translate(0 0)"><path d="m  150,830L150,910 " style="fill: none; stroke-width: 2px; stroke: black; stroke-linejoin: round; marker-end: url(&quot;#sequenceflow-end-white-black-ec2m50q82rp7sy9bp27tkg4xw&quot;);"></path></g><g class="djs-visual" id="Flow_11gw1x4" transform="translate(0 0)"><path d="m  150,645L150,730 " style="fill: none; stroke-width: 2px; stroke: black; stroke-linejoin: round; marker-end: url(&quot;#sequenceflow-end-white-black-ec2m50q82rp7sy9bp27tkg4xw&quot;);"></path></g><g class="djs-visual" id="Flow_1t975s5" transform="translate(0 0)"><path d="m  150,530L150,595 " style="fill: none; stroke-width: 2px; stroke: black; stroke-linejoin: round; marker-end: url(&quot;#sequenceflow-end-white-black-ec2m50q82rp7sy9bp27tkg4xw&quot;);"></path></g><g class="djs-visual" id="Flow_1tumbhb" transform="translate(0 0)"><path d="m  150,388L150,430 " style="fill: none; stroke-width: 2px; stroke: black; stroke-linejoin: round; marker-end: url(&quot;#sequenceflow-end-white-black-ec2m50q82rp7sy9bp27tkg4xw&quot;);"></path></g><g class="djs-visual" id="StartEvent_1bm324f" transform="translate(132 352)"><circle cx="18" cy="18" r="18" style="stroke: black; stroke-width: 2px; fill: white; fill-opacity: 0.95;"></circle></g><g class="djs-visual" id="StartEvent_1bm324f_label" transform="translate(112 294)"><text lineHeight="1.2" class="djs-label" style="font-family: Arial, sans-serif; font-size: 11px; font-weight: normal; fill: black;"><tspan x="0" y="9.899999999999999">Down Payment </tspan><tspan x="17.58642578125" y="23.099999999999998">required</tspan></text></g><g class="djs-visual" id="Activity_0yctoh1" transform="translate(85 430)"><rect x="0" y="0" width="130" height="100" rx="10" ry="10" style="stroke: black; stroke-width: 2px; fill: white; fill-opacity: 0.95;"></rect><text lineHeight="1.2" class="djs-label" style="font-family: Arial, sans-serif; font-size: 12px; font-weight: normal; fill: black;"><tspan x="20.8154296875" y="46.4">Check the Down </tspan><tspan x="8.6328125" y="60.8">Payment applicability</tspan></text></g><g class="djs-visual" id="Gateway_19wcew6" transform="translate(125 595)"><polygon points="25,0 50,25 25,50 0,25" style="stroke: black; stroke-width: 2px; fill: white; fill-opacity: 0.95;"></polygon><path d="m 16,15 7.42857142857143,9.714285714285715 -7.42857142857143,9.714285714285715 3.428571428571429,0 5.714285714285715,-7.464228571428572 5.714285714285715,7.464228571428572 3.428571428571429,0 -7.42857142857143,-9.714285714285715 7.42857142857143,-9.714285714285715 -3.428571428571429,0 -5.714285714285715,7.464228571428572 -5.714285714285715,-7.464228571428572 -3.428571428571429,0 z" style="fill: black; stroke-width: 1px; stroke: black;"></path></g><g class="djs-visual" id="Activity_03bdsql" transform="translate(85 730)"><rect x="0" y="0" width="130" height="100" rx="10" ry="10" style="stroke: black; stroke-width: 2px; fill: white; fill-opacity: 0.95;"></rect><text lineHeight="1.2" class="djs-label" style="font-family: Arial, sans-serif; font-size: 12px; font-weight: normal; fill: black;"><tspan x="17.9765625" y="46.4">Capture Payment </tspan><tspan x="47.65625" y="60.8">details</tspan></text></g><g class="djs-visual" id="Activity_0ltyoby" transform="translate(85 910)"><rect x="0" y="0" width="130" height="100" rx="10" ry="10" style="stroke: black; stroke-width: 2px; fill: white; fill-opacity: 0.95;"></rect><text lineHeight="1.2" class="djs-label" style="font-family: Arial, sans-serif; font-size: 12px; font-weight: normal; fill: black;"><tspan x="14.474609375" y="46.4">Authorise Payment </tspan><tspan x="47.65625" y="60.8">details</tspan></text></g><g class="djs-visual" id="Activity_16lq1if" transform="translate(85 1080)"><rect x="0" y="0" width="130" height="100" rx="10" ry="10" style="stroke: black; stroke-width: 2px; fill: white; fill-opacity: 0.95;"></rect><text lineHeight="1.2" class="djs-label" style="font-family: Arial, sans-serif; font-size: 12px; font-weight: normal; fill: black;"><tspan x="17.642578125" y="53.599999999999994">Execute Payment</tspan></text></g><g class="djs-visual" id="Activity_1fvrav1" transform="translate(85 1250)"><rect x="0" y="0" width="130" height="100" rx="10" ry="10" style="stroke: black; stroke-width: 2px; fill: white; fill-opacity: 0.95;"></rect><text lineHeight="1.2" class="djs-label" style="font-family: Arial, sans-serif; font-size: 12px; font-weight: normal; fill: black;"><tspan x="9.1318359375" y="46.4">Generate accounting </tspan><tspan x="46.984375" y="60.8">entries</tspan></text></g><g class="djs-visual" id="Gateway_19wuxip" transform="translate(125 1425)"><polygon points="25,0 50,25 25,50 0,25" style="stroke: black; stroke-width: 2px; fill: white; fill-opacity: 0.95;"></polygon><path d="m 16,15 7.42857142857143,9.714285714285715 -7.42857142857143,9.714285714285715 3.428571428571429,0 5.714285714285715,-7.464228571428572 5.714285714285715,7.464228571428572 3.428571428571429,0 -7.42857142857143,-9.714285714285715 7.42857142857143,-9.714285714285715 -3.428571428571429,0 -5.714285714285715,7.464228571428572 -5.714285714285715,-7.464228571428572 -3.428571428571429,0 z" style="fill: black; stroke-width: 1px; stroke: black;"></path></g><g class="djs-visual" id="Activity_1bfqgpb" transform="translate(85 1540)"><rect x="0" y="0" width="130" height="100" rx="10" ry="10" style="stroke: black; stroke-width: 2px; fill: white; fill-opacity: 0.95;"></rect><text lineHeight="1.2" class="djs-label" style="font-family: Arial, sans-serif; font-size: 12px; font-weight: normal; fill: black;"><tspan x="17.470703125" y="46.4">Decide on type of </tspan><tspan x="52.828125" y="60.8">Sale</tspan></text></g><g class="djs-visual" id="Event_0iwt9im" transform="translate(132 1682)"><circle cx="18" cy="18" r="18" style="stroke: black; stroke-width: 4px; fill: white; fill-opacity: 0.95;"></circle></g><g class="djs-visual" id="Event_0iwt9im_label" transform="translate(113 1725)"><text lineHeight="1.2" class="djs-label" style="font-family: Arial, sans-serif; font-size: 11px; font-weight: normal; fill: black;"><tspan x="0" y="9.899999999999999">Ijara Sale to be </tspan><tspan x="18.0390625" y="23.099999999999998">initiated</tspan></text></g><g class="djs-visual" id="TextAnnotation_0r8jw1l" transform="translate(270 640)"><rect x="0" y="0" width="300" height="110" rx="0" ry="0" style="stroke: none; stroke-width: 2px; fill: none;"></rect><path d="m 0, 0 m 10,0 l -10,0 l 0,110 l 10,0" style="fill: none; stroke-width: 2px; stroke: black;"></path><text lineHeight="1.2" class="djs-label" style="font-family: Arial, sans-serif; font-size: 12px; font-weight: normal; fill: black;"><tspan x="5" y="15.799999999999999">- Customer</tspan><tspan x="5" y="30.199999999999996">- Contract Reference</tspan><tspan x="5" y="44.599999999999994">- Asset Reference</tspan><tspan x="5" y="58.99999999999999">- Commodity Reference/ Commodity Sale Reference</tspan><tspan x="5" y="73.39999999999999">- Debit Account</tspan><tspan x="5" y="87.79999999999998">- Debit Currency</tspan><tspan x="5" y="102.19999999999999">- Down Payment Amount</tspan></text></g><g class="djs-visual" id="TextAnnotation_0ubxqko" transform="translate(270 1180)"><rect x="0" y="0" width="160" height="40" rx="0" ry="0" style="stroke: none; stroke-width: 2px; fill: none;"></rect><path d="m 0, 0 m 10,0 l -10,0 l 0,40 l 10,0" style="fill: none; stroke-width: 2px; stroke: black;"></path><text lineHeight="1.2" class="djs-label" style="font-family: Arial, sans-serif; font-size: 12px; font-weight: normal; fill: black;"><tspan x="5" y="15.799999999999999">Debit customer account</tspan><tspan x="5" y="30.199999999999996">Credit purchase account</tspan></text></g><g class="djs-visual" id="Flow_11gw1x4_label" transform="translate(164 646)"><text lineHeight="1.2" class="djs-label" style="font-family: Arial, sans-serif; font-size: 11px; font-weight: normal; fill: black;"><tspan x="0" y="9.899999999999999">Down Payment </tspan><tspan x="12.99267578125" y="23.099999999999998">applicable</tspan></text></g><g class="djs-visual" id="Flow_0x3cs05_label" transform="translate(157 1376)"><text lineHeight="1.2" class="djs-label" style="font-family: Arial, sans-serif; font-size: 11px; font-weight: normal; fill: black;"><tspan x="0" y="9.899999999999999">Down Payment </tspan><tspan x="12.38330078125" y="23.099999999999998">completed</tspan></text></g><g class="djs-visual" id="Flow_0qi1uga_label" transform="translate(593 646)"><text lineHeight="1.2" class="djs-label" style="font-family: Arial, sans-serif; font-size: 11px; font-weight: normal; fill: black;"><tspan x="0" y="9.899999999999999">Down Payment not </tspan><tspan x="22.16650390625" y="23.099999999999998">applicable</tspan></text></g><g class="djs-visual" id="Association_06cyff2" transform="translate(0 0)"><polyline points="213,734 270,692 " style="fill: none; stroke: black; stroke-width: 2px; stroke-dasharray: 0.5, 5; stroke-linecap: round; stroke-linejoin: round;"></polyline></g><g class="djs-visual" id="Association_12z1kga" transform="translate(0 0)"><polyline points="211,1252 270,1205 " style="fill: none; stroke: black; stroke-width: 2px; stroke-dasharray: 0.5, 5; stroke-linecap: round; stroke-linejoin: round;"></polyline></g></g><g><rect class="viewport" x="-1546.089086859688" y="287.9866369710468" width="3864.142538975501" height="1469.9331848552338"></rect></g></svg>