<svg width="100%" height="100%" viewBox="-50, -2057, 1835, 2041"><g><g class="djs-visual" id="Flow_0dq109c" transform="translate(0 0)"><path d="m  315,-260L560,-260 L560,-168 " style="fill: none; stroke-width: 2px; stroke: black; stroke-linejoin: round; marker-end: url(&quot;#sequenceflow-end-white-black-2kv0xz345om7ue7dgg2ql82iw&quot;);"></path></g><g class="djs-visual" id="Flow_11kf2kd" transform="translate(0 0)"><path d="m  315,-260L430,-260 L430,-168 " style="fill: none; stroke-width: 2px; stroke: black; stroke-linejoin: round; marker-end: url(&quot;#sequenceflow-end-white-black-2kv0xz345om7ue7dgg2ql82iw&quot;);"></path></g><g class="djs-visual" id="Flow_15yepcd" transform="translate(0 0)"><path d="m  290,-235L290,-168 " style="fill: none; stroke-width: 2px; stroke: black; stroke-linejoin: round; marker-end: url(&quot;#sequenceflow-end-white-black-2kv0xz345om7ue7dgg2ql82iw&quot;);"></path></g><g class="djs-visual" id="Flow_1l5eqci" transform="translate(0 0)"><path d="m  290,-340L290,-285 " style="fill: none; stroke-width: 2px; stroke: black; stroke-linejoin: round; marker-end: url(&quot;#sequenceflow-end-white-black-2kv0xz345om7ue7dgg2ql82iw&quot;);"></path></g><g class="djs-visual" id="Flow_15gsrgc" transform="translate(0 0)"><path d="m  290,-515L290,-440 " style="fill: none; stroke-width: 2px; stroke: black; stroke-linejoin: round; marker-end: url(&quot;#sequenceflow-end-white-black-2kv0xz345om7ue7dgg2ql82iw&quot;);"></path></g><g class="djs-visual" id="Flow_0beyns6" transform="translate(0 0)"><path d="m  1230,-970L1230,-540 L315,-540 " style="fill: none; stroke-width: 2px; stroke: black; stroke-linejoin: round; marker-end: url(&quot;#sequenceflow-end-white-black-2kv0xz345om7ue7dgg2ql82iw&quot;);"></path></g><g class="djs-visual" id="Flow_102kamk" transform="translate(0 0)"><path d="m  1230,-1150L1230,-1070 " style="fill: none; stroke-width: 2px; stroke: black; stroke-linejoin: round; marker-end: url(&quot;#sequenceflow-end-white-black-2kv0xz345om7ue7dgg2ql82iw&quot;);"></path></g><g class="djs-visual" id="Flow_16aktd6" transform="translate(0 0)"><path d="m  1230,-1330L1230,-1250 " style="fill: none; stroke-width: 2px; stroke: black; stroke-linejoin: round; marker-end: url(&quot;#sequenceflow-end-white-black-2kv0xz345om7ue7dgg2ql82iw&quot;);"></path></g><g class="djs-visual" id="Flow_13b7cea" transform="translate(0 0)"><path d="m  315,-1520L1230,-1520 L1230,-1430 " style="fill: none; stroke-width: 2px; stroke: black; stroke-linejoin: round; marker-end: url(&quot;#sequenceflow-end-white-black-2kv0xz345om7ue7dgg2ql82iw&quot;);"></path></g><g class="djs-visual" id="Flow_1qlnp1z" transform="translate(0 0)"><path d="m  750,-640L750,-540 L315,-540 " style="fill: none; stroke-width: 2px; stroke: black; stroke-linejoin: round; marker-end: url(&quot;#sequenceflow-end-white-black-2kv0xz345om7ue7dgg2ql82iw&quot;);"></path></g><g class="djs-visual" id="Flow_008js73" transform="translate(0 0)"><path d="m  750,-975L750,-910 " style="fill: none; stroke-width: 2px; stroke: black; stroke-linejoin: round; marker-end: url(&quot;#sequenceflow-end-white-black-2kv0xz345om7ue7dgg2ql82iw&quot;);"></path></g><g class="djs-visual" id="Flow_1ky3yvp" transform="translate(0 0)"><path d="m  750,-810L750,-740 " style="fill: none; stroke-width: 2px; stroke: black; stroke-linejoin: round; marker-end: url(&quot;#sequenceflow-end-white-black-2kv0xz345om7ue7dgg2ql82iw&quot;);"></path></g><g class="djs-visual" id="Flow_0zlrg06" transform="translate(0 0)"><path d="m  750,-1330L750,-1265 " style="fill: none; stroke-width: 2px; stroke: black; stroke-linejoin: round; marker-end: url(&quot;#sequenceflow-end-white-black-2kv0xz345om7ue7dgg2ql82iw&quot;);"></path></g><g class="djs-visual" id="Flow_1q7wquk" transform="translate(0 0)"><path d="m  940,-1050L940,-1000 L775,-1000 " style="fill: none; stroke-width: 2px; stroke: black; stroke-linejoin: round; marker-end: url(&quot;#sequenceflow-end-white-black-2kv0xz345om7ue7dgg2ql82iw&quot;);"></path></g><g class="djs-visual" id="Flow_0sgj6yf" transform="translate(0 0)"><path d="m  775,-1240L940,-1240 L940,-1150 " style="fill: none; stroke-width: 2px; stroke: black; stroke-linejoin: round; marker-end: url(&quot;#sequenceflow-end-white-black-2kv0xz345om7ue7dgg2ql82iw&quot;);"></path></g><g class="djs-visual" id="Flow_01k7b2c" transform="translate(0 0)"><path d="m  750,-1215L750,-1025 " style="fill: none; stroke-width: 2px; stroke: black; stroke-linejoin: round; marker-end: url(&quot;#sequenceflow-end-white-black-2kv0xz345om7ue7dgg2ql82iw&quot;);"></path></g><g class="djs-visual" id="Flow_0yhx4nh" transform="translate(0 0)"><path d="m  315,-1520L750,-1520 L750,-1430 " style="fill: none; stroke-width: 2px; stroke: black; stroke-linejoin: round; marker-end: url(&quot;#sequenceflow-end-white-black-2kv0xz345om7ue7dgg2ql82iw&quot;);"></path></g><g class="djs-visual" id="Flow_016s4yt" transform="translate(0 0)"><path d="m  290,-640L290,-565 " style="fill: none; stroke-width: 2px; stroke: black; stroke-linejoin: round; marker-end: url(&quot;#sequenceflow-end-white-black-2kv0xz345om7ue7dgg2ql82iw&quot;);"></path></g><g class="djs-visual" id="Flow_02qnjz8" transform="translate(0 0)"><path d="m  290,-810L290,-740 " style="fill: none; stroke-width: 2px; stroke: black; stroke-linejoin: round; marker-end: url(&quot;#sequenceflow-end-white-black-2kv0xz345om7ue7dgg2ql82iw&quot;);"></path></g><g class="djs-visual" id="Flow_0s3ap9w" transform="translate(0 0)"><path d="m  290,-975L290,-910 " style="fill: none; stroke-width: 2px; stroke: black; stroke-linejoin: round; marker-end: url(&quot;#sequenceflow-end-white-black-2kv0xz345om7ue7dgg2ql82iw&quot;);"></path></g><g class="djs-visual" id="Flow_1eejcqb" transform="translate(0 0)"><path d="m  480,-1050L480,-1000 L315,-1000 " style="fill: none; stroke-width: 2px; stroke: black; stroke-linejoin: round; marker-end: url(&quot;#sequenceflow-end-white-black-2kv0xz345om7ue7dgg2ql82iw&quot;);"></path></g><g class="djs-visual" id="Flow_0uajcv6" transform="translate(0 0)"><path d="m  315,-1240L480,-1240 L480,-1150 " style="fill: none; stroke-width: 2px; stroke: black; stroke-linejoin: round; marker-end: url(&quot;#sequenceflow-end-white-black-2kv0xz345om7ue7dgg2ql82iw&quot;);"></path></g><g class="djs-visual" id="Flow_0zv7sq7" transform="translate(0 0)"><path d="m  290,-1215L290,-1025 " style="fill: none; stroke-width: 2px; stroke: black; stroke-linejoin: round; marker-end: url(&quot;#sequenceflow-end-white-black-2kv0xz345om7ue7dgg2ql82iw&quot;);"></path></g><g class="djs-visual" id="Flow_1ozt9h5" transform="translate(0 0)"><path d="m  290,-1330L290,-1265 " style="fill: none; stroke-width: 2px; stroke: black; stroke-linejoin: round; marker-end: url(&quot;#sequenceflow-end-white-black-2kv0xz345om7ue7dgg2ql82iw&quot;);"></path></g><g class="djs-visual" id="Flow_1g0dpfx" transform="translate(0 0)"><path d="m  290,-1495L290,-1430 " style="fill: none; stroke-width: 2px; stroke: black; stroke-linejoin: round; marker-end: url(&quot;#sequenceflow-end-white-black-2kv0xz345om7ue7dgg2ql82iw&quot;);"></path></g><g class="djs-visual" id="Flow_0d91k23" transform="translate(0 0)"><path d="m  290,-1610L290,-1545 " style="fill: none; stroke-width: 2px; stroke: black; stroke-linejoin: round; marker-end: url(&quot;#sequenceflow-end-white-black-2kv0xz345om7ue7dgg2ql82iw&quot;);"></path></g><g class="djs-visual" id="Flow_0blvy7l" transform="translate(0 0)"><path d="m  290,-1775L290,-1710 " style="fill: none; stroke-width: 2px; stroke: black; stroke-linejoin: round; marker-end: url(&quot;#sequenceflow-end-white-black-2kv0xz345om7ue7dgg2ql82iw&quot;);"></path></g><g class="djs-visual" id="Flow_11bv64a" transform="translate(0 0)"><path d="m  410,-1902L410,-1800 L315,-1800 " style="fill: none; stroke-width: 2px; stroke: black; stroke-linejoin: round; marker-end: url(&quot;#sequenceflow-end-white-black-2kv0xz345om7ue7dgg2ql82iw&quot;);"></path></g><g class="djs-visual" id="Flow_0okmymy" transform="translate(0 0)"><path d="m  290,-1902L290,-1825 " style="fill: none; stroke-width: 2px; stroke: black; stroke-linejoin: round; marker-end: url(&quot;#sequenceflow-end-white-black-2kv0xz345om7ue7dgg2ql82iw&quot;);"></path></g><g class="djs-visual" id="Flow_1mbha44" transform="translate(0 0)"><path d="m  170,-1902L170,-1800 L265,-1800 " style="fill: none; stroke-width: 2px; stroke: black; stroke-linejoin: round; marker-end: url(&quot;#sequenceflow-end-white-black-2kv0xz345om7ue7dgg2ql82iw&quot;);"></path></g><g class="djs-visual" id="StartEvent_1bm324f" transform="translate(152 -1938)"><circle cx="18" cy="18" r="18" style="stroke: black; stroke-width: 2px; fill: white; fill-opacity: 0.95;"></circle></g><g class="djs-visual" id="StartEvent_1bm324f_label" transform="translate(129 -2001)"><text lineHeight="1.2" class="djs-label" style="font-family: Arial, sans-serif; font-size: 11px; font-weight: normal; fill: black;"><tspan x="0" y="9.899999999999999">Vendor Payment </tspan><tspan x="20.456787109375" y="23.099999999999998">required</tspan></text></g><g class="djs-visual" id="Gateway_1klh59f" transform="translate(265 -1825)"><polygon points="25,0 50,25 25,50 0,25" style="stroke: black; stroke-width: 2px; fill: white; fill-opacity: 0.95;"></polygon><path d="m 16,15 7.42857142857143,9.714285714285715 -7.42857142857143,9.714285714285715 3.428571428571429,0 5.714285714285715,-7.464228571428572 5.714285714285715,7.464228571428572 3.428571428571429,0 -7.42857142857143,-9.714285714285715 7.42857142857143,-9.714285714285715 -3.428571428571429,0 -5.714285714285715,7.464228571428572 -5.714285714285715,-7.464228571428572 -3.428571428571429,0 z" style="fill: black; stroke-width: 1px; stroke: black;"></path></g><g class="djs-visual" id="Event_0crspjz" transform="translate(272 -1938)"><circle cx="18" cy="18" r="18" style="stroke: black; stroke-width: 2px; fill: white; fill-opacity: 0.95;"></circle></g><g class="djs-visual" id="Event_0crspjz_label" transform="translate(249 -2001)"><text lineHeight="1.2" class="djs-label" style="font-family: Arial, sans-serif; font-size: 11px; font-weight: normal; fill: black;"><tspan x="0" y="9.899999999999999">Vendor Payment </tspan><tspan x="17.698974609375" y="23.099999999999998">not made</tspan></text></g><g class="djs-visual" id="Event_1n25ate" transform="translate(392 -1938)"><circle cx="18" cy="18" r="18" style="stroke: black; stroke-width: 2px; fill: white; fill-opacity: 0.95;"></circle></g><g class="djs-visual" id="Event_1n25ate_label" transform="translate(369 -2001)"><text lineHeight="1.2" class="djs-label" style="font-family: Arial, sans-serif; font-size: 11px; font-weight: normal; fill: black;"><tspan x="0" y="9.899999999999999">Vendor Payment </tspan><tspan x="17.698974609375" y="23.099999999999998">not made</tspan></text></g><g class="djs-visual" id="Activity_0c7hbaq" transform="translate(225 -1710)"><rect x="0" y="0" width="130" height="100" rx="10" ry="10" style="stroke: black; stroke-width: 2px; fill: white; fill-opacity: 0.95;"></rect><text lineHeight="1.2" class="djs-label" style="font-family: Arial, sans-serif; font-size: 12px; font-weight: normal; fill: black;"><tspan x="22.646484375" y="46.4">Select Payment </tspan><tspan x="44.82421875" y="60.8">method</tspan></text></g><g class="djs-visual" id="Gateway_0f0v0d3" transform="translate(265 -1545)"><polygon points="25,0 50,25 25,50 0,25" style="stroke: black; stroke-width: 2px; fill: white; fill-opacity: 0.95;"></polygon><path d="m 16,15 7.42857142857143,9.714285714285715 -7.42857142857143,9.714285714285715 3.428571428571429,0 5.714285714285715,-7.464228571428572 5.714285714285715,7.464228571428572 3.428571428571429,0 -7.42857142857143,-9.714285714285715 7.42857142857143,-9.714285714285715 -3.428571428571429,0 -5.714285714285715,7.464228571428572 -5.714285714285715,-7.464228571428572 -3.428571428571429,0 z" style="fill: black; stroke-width: 1px; stroke: black;"></path></g><g class="djs-visual" id="Activity_0j9dxex" transform="translate(225 -1430)"><rect x="0" y="0" width="130" height="100" rx="10" ry="10" style="stroke: black; stroke-width: 2px; fill: white; fill-opacity: 0.95;"></rect><text lineHeight="1.2" class="djs-label" style="font-family: Arial, sans-serif; font-size: 12px; font-weight: normal; fill: black;"><tspan x="17.9765625" y="46.4">Capture Payment </tspan><tspan x="47.65625" y="60.8">details</tspan></text></g><g class="djs-visual" id="Gateway_0ljmg6m" transform="translate(265 -1265)"><polygon points="25,0 50,25 25,50 0,25" style="stroke: black; stroke-width: 2px; fill: white; fill-opacity: 0.95;"></polygon><path d="m 16,15 7.42857142857143,9.714285714285715 -7.42857142857143,9.714285714285715 3.428571428571429,0 5.714285714285715,-7.464228571428572 5.714285714285715,7.464228571428572 3.428571428571429,0 -7.42857142857143,-9.714285714285715 7.42857142857143,-9.714285714285715 -3.428571428571429,0 -5.714285714285715,7.464228571428572 -5.714285714285715,-7.464228571428572 -3.428571428571429,0 z" style="fill: black; stroke-width: 1px; stroke: black;"></path></g><g class="djs-visual" id="Gateway_1xh1jdu" transform="translate(265 -1025)"><polygon points="25,0 50,25 25,50 0,25" style="stroke: black; stroke-width: 2px; fill: white; fill-opacity: 0.95;"></polygon><path d="m 16,15 7.42857142857143,9.714285714285715 -7.42857142857143,9.714285714285715 3.428571428571429,0 5.714285714285715,-7.464228571428572 5.714285714285715,7.464228571428572 3.428571428571429,0 -7.42857142857143,-9.714285714285715 7.42857142857143,-9.714285714285715 -3.428571428571429,0 -5.714285714285715,7.464228571428572 -5.714285714285715,-7.464228571428572 -3.428571428571429,0 z" style="fill: black; stroke-width: 1px; stroke: black;"></path></g><g class="djs-visual" id="Activity_0nrzt4k" transform="translate(415 -1150)"><rect x="0" y="0" width="130" height="100" rx="10" ry="10" style="stroke: black; stroke-width: 2px; fill: white; fill-opacity: 0.95;"></rect><text lineHeight="1.2" class="djs-label" style="font-family: Arial, sans-serif; font-size: 12px; font-weight: normal; fill: black;"><tspan x="16.1396484375" y="46.4">Capture Retention </tspan><tspan x="10.63671875" y="60.8">Amount/ Percentage</tspan></text></g><g class="djs-visual" id="Activity_1lnuyfn" transform="translate(225 -910)"><rect x="0" y="0" width="130" height="100" rx="10" ry="10" style="stroke: black; stroke-width: 2px; fill: white; fill-opacity: 0.95;"></rect><text lineHeight="1.2" class="djs-label" style="font-family: Arial, sans-serif; font-size: 12px; font-weight: normal; fill: black;"><tspan x="14.474609375" y="46.4">Authorise Payment </tspan><tspan x="47.65625" y="60.8">details</tspan></text></g><g class="djs-visual" id="Activity_1r7wncn" transform="translate(225 -740)"><rect x="0" y="0" width="130" height="100" rx="10" ry="10" style="stroke: black; stroke-width: 2px; fill: white; fill-opacity: 0.95;"></rect><text lineHeight="1.2" class="djs-label" style="font-family: Arial, sans-serif; font-size: 12px; font-weight: normal; fill: black;"><tspan x="9.1318359375" y="46.4">Generate accounting </tspan><tspan x="46.984375" y="60.8">entries</tspan></text></g><g class="djs-visual" id="Gateway_0piqb3k" transform="translate(265 -565)"><polygon points="25,0 50,25 25,50 0,25" style="stroke: black; stroke-width: 2px; fill: white; fill-opacity: 0.95;"></polygon><path d="m 16,15 7.42857142857143,9.714285714285715 -7.42857142857143,9.714285714285715 3.428571428571429,0 5.714285714285715,-7.464228571428572 5.714285714285715,7.464228571428572 3.428571428571429,0 -7.42857142857143,-9.714285714285715 7.42857142857143,-9.714285714285715 -3.428571428571429,0 -5.714285714285715,7.464228571428572 -5.714285714285715,-7.464228571428572 -3.428571428571429,0 z" style="fill: black; stroke-width: 1px; stroke: black;"></path></g><g class="djs-visual" id="Activity_1kdtcet" transform="translate(685 -1430)"><rect x="0" y="0" width="130" height="100" rx="10" ry="10" style="stroke: black; stroke-width: 2px; fill: white; fill-opacity: 0.95;"></rect><text lineHeight="1.2" class="djs-label" style="font-family: Arial, sans-serif; font-size: 12px; font-weight: normal; fill: black;"><tspan x="17.9765625" y="46.4">Capture Payment </tspan><tspan x="47.65625" y="60.8">details</tspan></text></g><g class="djs-visual" id="Gateway_0dzth7r" transform="translate(725 -1265)"><polygon points="25,0 50,25 25,50 0,25" style="stroke: black; stroke-width: 2px; fill: white; fill-opacity: 0.95;"></polygon><path d="m 16,15 7.42857142857143,9.714285714285715 -7.42857142857143,9.714285714285715 3.428571428571429,0 5.714285714285715,-7.464228571428572 5.714285714285715,7.464228571428572 3.428571428571429,0 -7.42857142857143,-9.714285714285715 7.42857142857143,-9.714285714285715 -3.428571428571429,0 -5.714285714285715,7.464228571428572 -5.714285714285715,-7.464228571428572 -3.428571428571429,0 z" style="fill: black; stroke-width: 1px; stroke: black;"></path></g><g class="djs-visual" id="Activity_0zph1wd" transform="translate(875 -1150)"><rect x="0" y="0" width="130" height="100" rx="10" ry="10" style="stroke: black; stroke-width: 2px; fill: white; fill-opacity: 0.95;"></rect><text lineHeight="1.2" class="djs-label" style="font-family: Arial, sans-serif; font-size: 12px; font-weight: normal; fill: black;"><tspan x="16.1396484375" y="46.4">Capture Retention </tspan><tspan x="10.63671875" y="60.8">Amount/ Percentage</tspan></text></g><g class="djs-visual" id="Gateway_0qfs381" transform="translate(725 -1025)"><polygon points="25,0 50,25 25,50 0,25" style="stroke: black; stroke-width: 2px; fill: white; fill-opacity: 0.95;"></polygon><path d="m 16,15 7.42857142857143,9.714285714285715 -7.42857142857143,9.714285714285715 3.428571428571429,0 5.714285714285715,-7.464228571428572 5.714285714285715,7.464228571428572 3.428571428571429,0 -7.42857142857143,-9.714285714285715 7.42857142857143,-9.714285714285715 -3.428571428571429,0 -5.714285714285715,7.464228571428572 -5.714285714285715,-7.464228571428572 -3.428571428571429,0 z" style="fill: black; stroke-width: 1px; stroke: black;"></path></g><g class="djs-visual" id="Activity_1wz8x5h" transform="translate(685 -910)"><rect x="0" y="0" width="130" height="100" rx="10" ry="10" style="stroke: black; stroke-width: 2px; fill: white; fill-opacity: 0.95;"></rect><text lineHeight="1.2" class="djs-label" style="font-family: Arial, sans-serif; font-size: 12px; font-weight: normal; fill: black;"><tspan x="14.474609375" y="46.4">Authorise Payment </tspan><tspan x="47.65625" y="60.8">details</tspan></text></g><g class="djs-visual" id="Activity_0tlyjaj" transform="translate(685 -740)"><rect x="0" y="0" width="130" height="100" rx="10" ry="10" style="stroke: black; stroke-width: 2px; fill: white; fill-opacity: 0.95;"></rect><text lineHeight="1.2" class="djs-label" style="font-family: Arial, sans-serif; font-size: 12px; font-weight: normal; fill: black;"><tspan x="9.1318359375" y="46.4">Generate accounting </tspan><tspan x="46.984375" y="60.8">entries</tspan></text></g><g class="djs-visual" id="Activity_1itbvfx" transform="translate(1165 -1430)"><rect x="0" y="0" width="130" height="100" rx="10" ry="10" style="stroke: black; stroke-width: 2px; fill: white; fill-opacity: 0.95;"></rect><text lineHeight="1.2" class="djs-label" style="font-family: Arial, sans-serif; font-size: 12px; font-weight: normal; fill: black;"><tspan x="17.9765625" y="46.4">Capture Payment </tspan><tspan x="47.65625" y="60.8">details</tspan></text></g><g class="djs-visual" id="Activity_0urnsbt" transform="translate(1165 -1250)"><rect x="0" y="0" width="130" height="100" rx="10" ry="10" style="stroke: black; stroke-width: 2px; fill: white; fill-opacity: 0.95;"></rect><text lineHeight="1.2" class="djs-label" style="font-family: Arial, sans-serif; font-size: 12px; font-weight: normal; fill: black;"><tspan x="14.474609375" y="46.4">Authorise Payment </tspan><tspan x="47.65625" y="60.8">details</tspan></text></g><g class="djs-visual" id="Activity_1n36drn" transform="translate(1165 -1070)"><rect x="0" y="0" width="130" height="100" rx="10" ry="10" style="stroke: black; stroke-width: 2px; fill: white; fill-opacity: 0.95;"></rect><text lineHeight="1.2" class="djs-label" style="font-family: Arial, sans-serif; font-size: 12px; font-weight: normal; fill: black;"><tspan x="9.1318359375" y="46.4">Generate accounting </tspan><tspan x="46.984375" y="60.8">entries</tspan></text></g><g class="djs-visual" id="Activity_0z6rgf7" transform="translate(225 -440)"><rect x="0" y="0" width="130" height="100" rx="10" ry="10" style="stroke: black; stroke-width: 2px; fill: white; fill-opacity: 0.95;"></rect><text lineHeight="1.2" class="djs-label" style="font-family: Arial, sans-serif; font-size: 12px; font-weight: normal; fill: black;"><tspan x="15.3046875" y="46.4">Decide on Product </tspan><tspan x="51.8291015625" y="60.8">Type</tspan></text></g><g class="djs-visual" id="Gateway_0ocisru" transform="translate(265 -285)"><polygon points="25,0 50,25 25,50 0,25" style="stroke: black; stroke-width: 2px; fill: white; fill-opacity: 0.95;"></polygon><path d="m 16,15 7.42857142857143,9.714285714285715 -7.42857142857143,9.714285714285715 3.428571428571429,0 5.714285714285715,-7.464228571428572 5.714285714285715,7.464228571428572 3.428571428571429,0 -7.42857142857143,-9.714285714285715 7.42857142857143,-9.714285714285715 -3.428571428571429,0 -5.714285714285715,7.464228571428572 -5.714285714285715,-7.464228571428572 -3.428571428571429,0 z" style="fill: black; stroke-width: 1px; stroke: black;"></path></g><g class="djs-visual" id="Event_1ngcrwf" transform="translate(272 -168)"><circle cx="18" cy="18" r="18" style="stroke: black; stroke-width: 4px; fill: white; fill-opacity: 0.95;"></circle></g><g class="djs-visual" id="Event_1ngcrwf_label" transform="translate(249 -125)"><text lineHeight="1.2" class="djs-label" style="font-family: Arial, sans-serif; font-size: 11px; font-weight: normal; fill: black;"><tspan x="8.839599609375" y="9.899999999999999">Ijara Finance </tspan><tspan x="0" y="23.099999999999998">Vendor Payment</tspan></text></g><g class="djs-visual" id="Event_0c2n40j" transform="translate(412 -168)"><circle cx="18" cy="18" r="18" style="stroke: black; stroke-width: 4px; fill: white; fill-opacity: 0.95;"></circle></g><g class="djs-visual" id="Event_0c2n40j_label" transform="translate(389 -125)"><text lineHeight="1.2" class="djs-label" style="font-family: Arial, sans-serif; font-size: 11px; font-weight: normal; fill: black;"><tspan x="8.839599609375" y="9.899999999999999">Ijara Finance </tspan><tspan x="0" y="23.099999999999998">Vendor Payment</tspan></text></g><g class="djs-visual" id="Event_1qnbutg" transform="translate(542 -168)"><circle cx="18" cy="18" r="18" style="stroke: black; stroke-width: 4px; fill: white; fill-opacity: 0.95;"></circle></g><g class="djs-visual" id="Event_1qnbutg_label" transform="translate(521 -125)"><text lineHeight="1.2" class="djs-label" style="font-family: Arial, sans-serif; font-size: 11px; font-weight: normal; fill: black;"><tspan x="4.796875" y="9.899999999999999">Forward Ijara/ </tspan><tspan x="8.3125" y="23.099999999999998">Construction </tspan><tspan x="0" y="36.3">Finance Vendor </tspan><tspan x="17.018798828125" y="49.5">Payment</tspan></text></g><g class="djs-visual" id="TextAnnotation_1303d11" transform="translate(400 -1496)"><rect x="0" y="0" width="252" height="150" rx="0" ry="0" style="stroke: none; stroke-width: 2px; fill: none;"></rect><path d="m 0, 0 m 10,0 l -10,0 l 0,150 l 10,0" style="fill: none; stroke-width: 2px; stroke: black;"></path><text lineHeight="1.2" class="djs-label" style="font-family: Arial, sans-serif; font-size: 12px; font-weight: normal; fill: black;"><tspan x="5" y="15.799999999999999">- Vendor</tspan><tspan x="5" y="30.199999999999996">- Vendor Account</tspan><tspan x="5" y="44.599999999999994">- Payment Currency</tspan><tspan x="5" y="58.99999999999999">- Purchase Reference</tspan><tspan x="5" y="73.39999999999999">- Payment Date</tspan><tspan x="5" y="87.79999999999998">- Payment Amount</tspan><tspan x="5" y="102.19999999999999">- Customer Number</tspan><tspan x="5" y="116.6">- Amount</tspan><tspan x="5" y="131">- Date</tspan><tspan x="5" y="145.4">Note: Multiple Adhoc Payments can be done</tspan></text></g><g class="djs-visual" id="TextAnnotation_0fa72yl" transform="translate(400 -810)"><rect x="0" y="0" width="252" height="98" rx="0" ry="0" style="stroke: none; stroke-width: 2px; fill: none;"></rect><path d="m 0, 0 m 10,0 l -10,0 l 0,98 l 10,0" style="fill: none; stroke-width: 2px; stroke: black;"></path><text lineHeight="1.2" class="djs-label" style="font-family: Arial, sans-serif; font-size: 12px; font-weight: normal; fill: black;"><tspan x="5" y="15.799999999999999">Dr Multi supplier Acc</tspan><tspan x="5" y="30.199999999999996">Cr Vendor Acc</tspan><tspan x="5" y="44.599999999999994"></tspan><tspan x="5" y="58.99999999999999">Dr Multi supplier Acc</tspan><tspan x="5" y="73.39999999999999">Cr Retention Acc</tspan><tspan x="5" y="87.79999999999998">** Retention is not applicable through FT</tspan></text></g><g class="djs-visual" id="TextAnnotation_1j5iieh" transform="translate(870 -1489)"><rect x="0" y="0" width="260" height="116" rx="0" ry="0" style="stroke: none; stroke-width: 2px; fill: none;"></rect><path d="m 0, 0 m 10,0 l -10,0 l 0,116 l 10,0" style="fill: none; stroke-width: 2px; stroke: black;"></path><text lineHeight="1.2" class="djs-label" style="font-family: Arial, sans-serif; font-size: 12px; font-weight: normal; fill: black;"><tspan x="5" y="15.799999999999999">- Vendor</tspan><tspan x="5" y="30.199999999999996">- Vendor Account</tspan><tspan x="5" y="44.599999999999994">- Payment Currency</tspan><tspan x="5" y="58.99999999999999">- Purchase Reference</tspan><tspan x="5" y="73.39999999999999">- Payment Date</tspan><tspan x="5" y="87.79999999999998">- Payment Amount</tspan><tspan x="5" y="102.19999999999999">Note: Schedule Payments can be amended</tspan></text></g><g class="djs-visual" id="TextAnnotation_048nc3p" transform="translate(870 -804)"><rect x="0" y="0" width="210" height="84" rx="0" ry="0" style="stroke: none; stroke-width: 2px; fill: none;"></rect><path d="m 0, 0 m 10,0 l -10,0 l 0,84 l 10,0" style="fill: none; stroke-width: 2px; stroke: black;"></path><text lineHeight="1.2" class="djs-label" style="font-family: Arial, sans-serif; font-size: 12px; font-weight: normal; fill: black;"><tspan x="5" y="15.799999999999999">Dr Multi supplier Acc</tspan><tspan x="5" y="30.199999999999996">Cr Vendor Acc</tspan><tspan x="5" y="44.599999999999994"></tspan><tspan x="5" y="58.99999999999999">Dr Multi supplier Acc</tspan><tspan x="5" y="73.39999999999999">Cr Retention Acc</tspan></text></g><g class="djs-visual" id="TextAnnotation_06bnvqa" transform="translate(1360 -1486)"><rect x="0" y="0" width="260" height="66" rx="0" ry="0" style="stroke: none; stroke-width: 2px; fill: none;"></rect><path d="m 0, 0 m 10,0 l -10,0 l 0,66 l 10,0" style="fill: none; stroke-width: 2px; stroke: black;"></path><text lineHeight="1.2" class="djs-label" style="font-family: Arial, sans-serif; font-size: 12px; font-weight: normal; fill: black;"><tspan x="5" y="15.799999999999999">- Customer Purchase Reference</tspan><tspan x="5" y="30.199999999999996">- Commodity Asset Reference</tspan><tspan x="5" y="44.599999999999994">- Payment Amount</tspan><tspan x="5" y="58.99999999999999">Note: Multiple Cash Payments can be done</tspan></text></g><g class="djs-visual" id="TextAnnotation_0honhqp" transform="translate(1360 -1119)"><rect x="0" y="0" width="138" height="38" rx="0" ry="0" style="stroke: none; stroke-width: 2px; fill: none;"></rect><path d="m 0, 0 m 10,0 l -10,0 l 0,38 l 10,0" style="fill: none; stroke-width: 2px; stroke: black;"></path><text lineHeight="1.2" class="djs-label" style="font-family: Arial, sans-serif; font-size: 12px; font-weight: normal; fill: black;"><tspan x="5" y="15.799999999999999">Dr Multi Supplier Acc </tspan><tspan x="5" y="30.199999999999996">Cr Teller Acc</tspan></text></g><g class="djs-visual" id="Flow_1g0dpfx_label" transform="translate(296 -1474)"><text lineHeight="1.2" class="djs-label" style="font-family: Arial, sans-serif; font-size: 11px; font-weight: normal; fill: black;"><tspan x="0" y="9.899999999999999">Vendor Adhoc </tspan><tspan x="11.824951171875" y="23.099999999999998">Payment</tspan></text></g><g class="djs-visual" id="Flow_0zv7sq7_label" transform="translate(296 -1204)"><text lineHeight="1.2" class="djs-label" style="font-family: Arial, sans-serif; font-size: 11px; font-weight: normal; fill: black;"><tspan x="0" y="9.899999999999999">Retention not </tspan><tspan x="8.41650390625" y="23.099999999999998">applicable</tspan></text></g><g class="djs-visual" id="Flow_0uajcv6_label" transform="translate(490 -1197)"><text lineHeight="1.2" class="djs-label" style="font-family: Arial, sans-serif; font-size: 11px; font-weight: normal; fill: black;"><tspan x="0" y="9.899999999999999">Retention applicable</tspan></text></g><g class="djs-visual" id="Flow_016s4yt_label" transform="translate(301 -620)"><text lineHeight="1.2" class="djs-label" style="font-family: Arial, sans-serif; font-size: 11px; font-weight: normal; fill: black;"><tspan x="13.885986328125" y="9.899999999999999">Adhoc Vendor </tspan><tspan x="0" y="23.099999999999998">Payment completed</tspan></text></g><g class="djs-visual" id="Flow_0yhx4nh_label" transform="translate(758 -1474)"><text lineHeight="1.2" class="djs-label" style="font-family: Arial, sans-serif; font-size: 11px; font-weight: normal; fill: black;"><tspan x="0" y="9.899999999999999">Vendor Schedule </tspan><tspan x="19.221923828125" y="23.099999999999998">Payment</tspan></text></g><g class="djs-visual" id="Flow_01k7b2c_label" transform="translate(756 -1204)"><text lineHeight="1.2" class="djs-label" style="font-family: Arial, sans-serif; font-size: 11px; font-weight: normal; fill: black;"><tspan x="0" y="9.899999999999999">Retention not </tspan><tspan x="8.41650390625" y="23.099999999999998">applicable</tspan></text></g><g class="djs-visual" id="Flow_0sgj6yf_label" transform="translate(950 -1197)"><text lineHeight="1.2" class="djs-label" style="font-family: Arial, sans-serif; font-size: 11px; font-weight: normal; fill: black;"><tspan x="0" y="9.899999999999999">Retention applicable</tspan></text></g><g class="djs-visual" id="Flow_1qlnp1z_label" transform="translate(771 -614)"><text lineHeight="1.2" class="djs-label" style="font-family: Arial, sans-serif; font-size: 11px; font-weight: normal; fill: black;"><tspan x="6.04638671875" y="9.899999999999999">Schedule Vendor </tspan><tspan x="0" y="23.099999999999998">Payment completed</tspan></text></g><g class="djs-visual" id="Flow_13b7cea_label" transform="translate(1238 -1474)"><text lineHeight="1.2" class="djs-label" style="font-family: Arial, sans-serif; font-size: 11px; font-weight: normal; fill: black;"><tspan x="0" y="9.899999999999999">Vendor Cash </tspan><tspan x="9.128173828125" y="23.099999999999998">Payment</tspan></text></g><g class="djs-visual" id="Flow_0beyns6_label" transform="translate(1241 -940)"><text lineHeight="1.2" class="djs-label" style="font-family: Arial, sans-serif; font-size: 11px; font-weight: normal; fill: black;"><tspan x="16.141357421875" y="9.899999999999999">Cash Vendor </tspan><tspan x="0" y="23.099999999999998">Payment completed</tspan></text></g><g class="djs-visual" id="Association_0kv79tn" transform="translate(0 0)"><polyline points="355,-1419 400,-1446 " style="fill: none; stroke: black; stroke-width: 2px; stroke-dasharray: 0.5, 5; stroke-linecap: round; stroke-linejoin: round;"></polyline></g><g class="djs-visual" id="Association_1tll1cj" transform="translate(0 0)"><polyline points="354,-735 400,-769 " style="fill: none; stroke: black; stroke-width: 2px; stroke-dasharray: 0.5, 5; stroke-linecap: round; stroke-linejoin: round;"></polyline></g><g class="djs-visual" id="Association_03hsziu" transform="translate(0 0)"><polyline points="815,-1418 870,-1450 " style="fill: none; stroke: black; stroke-width: 2px; stroke-dasharray: 0.5, 5; stroke-linecap: round; stroke-linejoin: round;"></polyline></g><g class="djs-visual" id="Association_1fbj1tx" transform="translate(0 0)"><polyline points="811,-738 870,-786 " style="fill: none; stroke: black; stroke-width: 2px; stroke-dasharray: 0.5, 5; stroke-linecap: round; stroke-linejoin: round;"></polyline></g><g class="djs-visual" id="Association_1tlpbnh" transform="translate(0 0)"><polyline points="1295,-1421 1360,-1463 " style="fill: none; stroke: black; stroke-width: 2px; stroke-dasharray: 0.5, 5; stroke-linecap: round; stroke-linejoin: round;"></polyline></g><g class="djs-visual" id="Association_06ca91f" transform="translate(0 0)"><polyline points="1294,-1064 1360,-1109 " style="fill: none; stroke: black; stroke-width: 2px; stroke-dasharray: 0.5, 5; stroke-linecap: round; stroke-linejoin: round;"></polyline></g></g><g><rect class="viewport" x="-1676.891176470588" y="-2007.1823529411763" width="5102.941176470588" height="1941.1764705882351"></rect></g></svg>