<svg width="100%" height="100%" viewBox="-111, 67, 1835, 968"><g><g class="djs-visual" id="Flow_1qzcpdx" transform="translate(0 0)"><path d="m  390,700L390,760 " style="fill: none; stroke-width: 2px; stroke: black; stroke-linejoin: round; marker-end: url(&quot;#sequenceflow-end-white-black-ekfbzxe5jn90ybqftbqlspt4s&quot;);"></path></g><g class="djs-visual" id="Flow_18xydd0" transform="translate(0 0)"><path d="m  35,520L390,520 L390,600 " style="fill: none; stroke-width: 2px; stroke: black; stroke-linejoin: round; marker-end: url(&quot;#sequenceflow-end-white-black-ekfbzxe5jn90ybqftbqlspt4s&quot;);"></path></g><g class="djs-visual" id="Flow_1mmetvz" transform="translate(0 0)"><path d="m  10,545L10,600 " style="fill: none; stroke-width: 2px; stroke: black; stroke-linejoin: round; marker-end: url(&quot;#sequenceflow-end-white-black-ekfbzxe5jn90ybqftbqlspt4s&quot;);"></path></g><g class="djs-visual" id="Flow_0tmissv" transform="translate(0 0)"><path d="m  10,700L10,772 " style="fill: none; stroke-width: 2px; stroke: black; stroke-linejoin: round; marker-end: url(&quot;#sequenceflow-end-white-black-ekfbzxe5jn90ybqftbqlspt4s&quot;);"></path></g><g class="djs-visual" id="Flow_1e3qta4" transform="translate(0 0)"><path d="m  390,860L390,922 " style="fill: none; stroke-width: 2px; stroke: black; stroke-linejoin: round; marker-end: url(&quot;#sequenceflow-end-white-black-ekfbzxe5jn90ybqftbqlspt4s&quot;);"></path></g><g class="djs-visual" id="Flow_0u6d5bg" transform="translate(0 0)"><path d="m  10,440L10,495 " style="fill: none; stroke-width: 2px; stroke: black; stroke-linejoin: round; marker-end: url(&quot;#sequenceflow-end-white-black-ekfbzxe5jn90ybqftbqlspt4s&quot;);"></path></g><g class="djs-visual" id="Flow_0zpkzh4" transform="translate(0 0)"><path d="m  10,238L10,340 " style="fill: none; stroke-width: 2px; stroke: black; stroke-linejoin: round; marker-end: url(&quot;#sequenceflow-end-white-black-ekfbzxe5jn90ybqftbqlspt4s&quot;);"></path></g><g class="djs-visual" id="StartEvent_1bm324f" transform="translate(-8 202)"><circle cx="18" cy="18" r="18" style="stroke: black; stroke-width: 2px; fill: white; fill-opacity: 0.95;"></circle></g><g class="djs-visual" id="StartEvent_1bm324f_label" transform="translate(-36 123)"><text lineHeight="1.2" class="djs-label" style="font-family: Arial, sans-serif; font-size: 11px; font-weight: normal; fill: black;"><tspan x="0" y="9.899999999999999">Cancellation request </tspan><tspan x="20.07763671875" y="23.099999999999998">from Indirect </tspan><tspan x="24.156494140625" y="36.3">Participant</tspan></text></g><g class="djs-visual" id="Activity_0dat77u" transform="translate(-55 340)"><rect x="0" y="0" width="130" height="100" rx="10" ry="10" style="stroke: black; stroke-width: 2px; fill: white; fill-opacity: 0.95;"></rect><text lineHeight="1.2" class="djs-label" style="font-family: Arial, sans-serif; font-size: 12px; font-weight: normal; fill: black;"><tspan x="23.146484375" y="46.4">Identify Original </tspan><tspan x="35.9873046875" y="60.8">transaction</tspan></text></g><g class="djs-visual" id="Gateway_158edvi" transform="translate(-15 495)"><polygon points="25,0 50,25 25,50 0,25" style="stroke: black; stroke-width: 2px; fill: white; fill-opacity: 0.95;"></polygon><path d="m 16,15 7.42857142857143,9.714285714285715 -7.42857142857143,9.714285714285715 3.428571428571429,0 5.714285714285715,-7.464228571428572 5.714285714285715,7.464228571428572 3.428571428571429,0 -7.42857142857143,-9.714285714285715 7.42857142857143,-9.714285714285715 -3.428571428571429,0 -5.714285714285715,7.464228571428572 -5.714285714285715,-7.464228571428572 -3.428571428571429,0 z" style="fill: black; stroke-width: 1px; stroke: black;"></path></g><g class="djs-visual" id="Activity_1xjqffk" transform="translate(-55 600)"><rect x="0" y="0" width="130" height="100" rx="10" ry="10" style="stroke: black; stroke-width: 2px; fill: white; fill-opacity: 0.95;"></rect><text lineHeight="1.2" class="djs-label" style="font-family: Arial, sans-serif; font-size: 12px; font-weight: normal; fill: black;"><tspan x="10.1484375" y="46.4">Forward message to </tspan><tspan x="43.8251953125" y="60.8">clearing</tspan></text></g><g class="djs-visual" id="Activity_1vs7yfr" transform="translate(325 600)"><rect x="0" y="0" width="130" height="100" rx="10" ry="10" style="stroke: black; stroke-width: 2px; fill: white; fill-opacity: 0.95;"></rect><text lineHeight="1.2" class="djs-label" style="font-family: Arial, sans-serif; font-size: 12px; font-weight: normal; fill: black;"><tspan x="25.98046875" y="53.599999999999994">Reject request</tspan></text></g><g class="djs-visual" id="Activity_110n6kq" transform="translate(325 760)"><rect x="0" y="0" width="130" height="100" rx="10" ry="10" style="stroke: black; stroke-width: 2px; fill: white; fill-opacity: 0.95;"></rect><text lineHeight="1.2" class="djs-label" style="font-family: Arial, sans-serif; font-size: 12px; font-weight: normal; fill: black;"><tspan x="13.46484375" y="39.2">Generate and send </tspan><tspan x="9.474609375" y="53.6">rejection message to </tspan><tspan x="15.9755859375" y="68">indirect participant</tspan></text></g><g class="djs-visual" id="Event_1e4ygwj" transform="translate(372 922)"><circle cx="18" cy="18" r="18" style="stroke: black; stroke-width: 4px; fill: white; fill-opacity: 0.95;"></circle></g><g class="djs-visual" id="Event_1e4ygwj_label" transform="translate(348 965)"><text lineHeight="1.2" class="djs-label" style="font-family: Arial, sans-serif; font-size: 11px; font-weight: normal; fill: black;"><tspan x="0" y="9.899999999999999">Request rejected</tspan></text></g><g class="djs-visual" id="Event_0du9oc3" transform="translate(-8 772)"><circle cx="18" cy="18" r="18" style="stroke: black; stroke-width: 4px; fill: white; fill-opacity: 0.95;"></circle></g><g class="djs-visual" id="Event_0du9oc3_label" transform="translate(-34 815)"><text lineHeight="1.2" class="djs-label" style="font-family: Arial, sans-serif; font-size: 11px; font-weight: normal; fill: black;"><tspan x="14.0625" y="9.899999999999999">Cancellation </tspan><tspan x="0" y="23.099999999999998">request forwarded</tspan></text></g><g class="djs-visual" id="DataObjectReference_0btns8f" transform="translate(132 625)"><path d="m 0,0 28.23529411764706,0 7.058823529411765,8.196721311475411 0,40.98360655737705 -35.294117647058826,0 0,-49.18032786885246 28.23529411764706,0 0,8.196721311475411 7.058823529411765,0" style="fill: white; stroke-width: 2px; stroke: black; fill-opacity: 0.95;"></path></g><g class="djs-visual" id="DataObjectReference_0btns8f_label" transform="translate(127 682)"><text lineHeight="1.2" class="djs-label" style="font-family: Arial, sans-serif; font-size: 11px; font-weight: normal; fill: black;"><tspan x="0" y="9.899999999999999">camt.056</tspan></text></g><g class="djs-visual" id="DataObjectReference_0zyqeg2" transform="translate(502 785)"><path d="m 0,0 28.23529411764706,0 7.058823529411765,8.196721311475411 0,40.98360655737705 -35.294117647058826,0 0,-49.18032786885246 28.23529411764706,0 0,8.196721311475411 7.058823529411765,0" style="fill: white; stroke-width: 2px; stroke: black; fill-opacity: 0.95;"></path></g><g class="djs-visual" id="DataObjectReference_0zyqeg2_label" transform="translate(497 842)"><text lineHeight="1.2" class="djs-label" style="font-family: Arial, sans-serif; font-size: 11px; font-weight: normal; fill: black;"><tspan x="0" y="9.899999999999999">camt.029</tspan></text></g><g class="djs-visual" id="TextAnnotation_0ys4aai" transform="translate(80 150)"><rect x="0" y="0" width="80" height="41" rx="0" ry="0" style="stroke: none; stroke-width: 2px; fill: none;"></rect><path d="m 0, 0 m 10,0 l -10,0 l 0,41 l 10,0" style="fill: none; stroke-width: 2px; stroke: black;"></path><text lineHeight="1.2" class="djs-label" style="font-family: Arial, sans-serif; font-size: 12px; font-weight: normal; fill: black;"><tspan x="5" y="15.799999999999999">Receipt of </tspan><tspan x="5" y="30.199999999999996">camt.056</tspan></text></g><g class="djs-visual" id="DataOutputAssociation_1amrgfn" transform="translate(0 0)"><polyline points="75,650 132,650 " style="fill: none; stroke: black; stroke-width: 2px; stroke-dasharray: 0.5, 5; stroke-linecap: round; stroke-linejoin: round; marker-end: url(&quot;#association-end-white-black-ekfbzxe5jn90ybqftbqlspt4s&quot;);"></polyline></g><g class="djs-visual" id="DataOutputAssociation_0zqgaz7" transform="translate(0 0)"><polyline points="455,810 502,810 " style="fill: none; stroke: black; stroke-width: 2px; stroke-dasharray: 0.5, 5; stroke-linecap: round; stroke-linejoin: round; marker-end: url(&quot;#association-end-white-black-ekfbzxe5jn90ybqftbqlspt4s&quot;);"></polyline></g><g class="djs-visual" id="Flow_1mmetvz_label" transform="translate(-3 550)"><text lineHeight="1.2" class="djs-label" style="font-family: Arial, sans-serif; font-size: 11px; font-weight: normal; fill: black;"><tspan x="0" y="9.899999999999999">Original transaction </tspan><tspan x="25.3671875" y="23.099999999999998">identified</tspan></text></g><g class="djs-visual" id="Flow_18xydd0_label" transform="translate(392 550)"><text lineHeight="1.2" class="djs-label" style="font-family: Arial, sans-serif; font-size: 11px; font-weight: normal; fill: black;"><tspan x="0" y="9.899999999999999">Original transaction </tspan><tspan x="16.1953125" y="23.099999999999998">not identified</tspan></text></g><g class="djs-visual" id="Association_1yqottv" transform="translate(0 0)"><polyline points="25,210 80,171 " style="fill: none; stroke: black; stroke-width: 2px; stroke-dasharray: 0.5, 5; stroke-linecap: round; stroke-linejoin: round;"></polyline></g></g><g><rect class="viewport" x="-897.328947368421" y="117.05657894736841" width="2282.8947368421054" height="868.421052631579"></rect></g></svg>