<svg width="100%" height="100%" viewBox="-75, -145, 1835, 1476"><g><g class="djs-visual" id="Flow_101v95g" transform="translate(0 0)"><path d="m  160,1045L160,1192 " style="fill: none; stroke-width: 2px; stroke: black; stroke-linejoin: round; marker-end: url(&quot;#sequenceflow-end-white-black-4np0wx4m9igrr5fzujv8dw5wm&quot;);"></path></g><g class="djs-visual" id="Flow_1t5gkv6" transform="translate(0 0)"><path d="m  135,1020L20,1020 L20,1192 " style="fill: none; stroke-width: 2px; stroke: black; stroke-linejoin: round; marker-end: url(&quot;#sequenceflow-end-white-black-4np0wx4m9igrr5fzujv8dw5wm&quot;);"></path></g><g class="djs-visual" id="Flow_0q55po9" transform="translate(0 0)"><path d="m  160,930L160,995 " style="fill: none; stroke-width: 2px; stroke: black; stroke-linejoin: round; marker-end: url(&quot;#sequenceflow-end-white-black-4np0wx4m9igrr5fzujv8dw5wm&quot;);"></path></g><g class="djs-visual" id="Flow_0gvvytk" transform="translate(0 0)"><path d="m  160,755L160,830 " style="fill: none; stroke-width: 2px; stroke: black; stroke-linejoin: round; marker-end: url(&quot;#sequenceflow-end-white-black-4np0wx4m9igrr5fzujv8dw5wm&quot;);"></path></g><g class="djs-visual" id="Flow_0zu9xh4" transform="translate(0 0)"><path d="m  550,630L550,730 L185,730 " style="fill: none; stroke-width: 2px; stroke: black; stroke-linejoin: round; marker-end: url(&quot;#sequenceflow-end-white-black-4np0wx4m9igrr5fzujv8dw5wm&quot;);"></path></g><g class="djs-visual" id="Flow_0es5u7g" transform="translate(0 0)"><path d="m  160,630L160,705 " style="fill: none; stroke-width: 2px; stroke: black; stroke-linejoin: round; marker-end: url(&quot;#sequenceflow-end-white-black-4np0wx4m9igrr5fzujv8dw5wm&quot;);"></path></g><g class="djs-visual" id="Flow_09wmjjd" transform="translate(0 0)"><path d="m  185,430L550,430 L550,530 " style="fill: none; stroke-width: 2px; stroke: black; stroke-linejoin: round; marker-end: url(&quot;#sequenceflow-end-white-black-4np0wx4m9igrr5fzujv8dw5wm&quot;);"></path></g><g class="djs-visual" id="Flow_0xra057" transform="translate(0 0)"><path d="m  160,455L160,530 " style="fill: none; stroke-width: 2px; stroke: black; stroke-linejoin: round; marker-end: url(&quot;#sequenceflow-end-white-black-4np0wx4m9igrr5fzujv8dw5wm&quot;);"></path></g><g class="djs-visual" id="Flow_0k2ul8o" transform="translate(0 0)"><path d="m  160,330L160,405 " style="fill: none; stroke-width: 2px; stroke: black; stroke-linejoin: round; marker-end: url(&quot;#sequenceflow-end-white-black-4np0wx4m9igrr5fzujv8dw5wm&quot;);"></path></g><g class="djs-visual" id="Flow_1eik3gv" transform="translate(0 0)"><path d="m  160,155L160,230 " style="fill: none; stroke-width: 2px; stroke: black; stroke-linejoin: round; marker-end: url(&quot;#sequenceflow-end-white-black-4np0wx4m9igrr5fzujv8dw5wm&quot;);"></path></g><g class="djs-visual" id="Flow_177eng4" transform="translate(0 0)"><path d="m  160,28L160,105 " style="fill: none; stroke-width: 2px; stroke: black; stroke-linejoin: round; marker-end: url(&quot;#sequenceflow-end-white-black-4np0wx4m9igrr5fzujv8dw5wm&quot;);"></path></g><g class="djs-visual" id="Flow_1ylvd0i" transform="translate(0 0)"><path d="m  60,18L60,130 L135,130 " style="fill: none; stroke-width: 2px; stroke: black; stroke-linejoin: round; marker-end: url(&quot;#sequenceflow-end-white-black-4np0wx4m9igrr5fzujv8dw5wm&quot;);"></path></g><g class="djs-visual" id="StartEvent_1bm324f" transform="translate(42 -18)"><circle cx="18" cy="18" r="18" style="stroke: black; stroke-width: 2px; fill: white; fill-opacity: 0.95;"></circle></g><g class="djs-visual" id="StartEvent_1bm324f_label" transform="translate(15 -75)"><text lineHeight="1.2" class="djs-label" style="font-family: Arial, sans-serif; font-size: 11px; font-weight: normal; fill: black;"><tspan x="13.640625" y="9.899999999999999">Vendor to be </tspan><tspan x="0" y="23.099999999999998">created/ amended</tspan></text></g><g class="djs-visual" id="Gateway_05j75pm" transform="translate(135 105)"><polygon points="25,0 50,25 25,50 0,25" style="stroke: black; stroke-width: 2px; fill: white; fill-opacity: 0.95;"></polygon><path d="m 16,15 7.42857142857143,9.714285714285715 -7.42857142857143,9.714285714285715 3.428571428571429,0 5.714285714285715,-7.464228571428572 5.714285714285715,7.464228571428572 3.428571428571429,0 -7.42857142857143,-9.714285714285715 7.42857142857143,-9.714285714285715 -3.428571428571429,0 -5.714285714285715,7.464228571428572 -5.714285714285715,-7.464228571428572 -3.428571428571429,0 z" style="fill: black; stroke-width: 1px; stroke: black;"></path></g><g class="djs-visual" id="Event_1g1n1qm" transform="translate(142 -8)"><circle cx="18" cy="18" r="18" style="stroke: black; stroke-width: 2px; fill: white; fill-opacity: 0.95;"></circle></g><g class="djs-visual" id="Event_1g1n1qm_label" transform="translate(116 -89)"><text lineHeight="1.2" class="djs-label" style="font-family: Arial, sans-serif; font-size: 11px; font-weight: normal; fill: black;"><tspan x="17.45361328125" y="9.899999999999999">Vendor not </tspan><tspan x="0" y="23.099999999999998">available/ Existing</tspan><tspan x="13.3359375" y="36.3">Vendor to be </tspan><tspan x="21.09375" y="49.5">amended</tspan></text></g><g class="djs-visual" id="Activity_1fxun61" transform="translate(95 230)"><rect x="0" y="0" width="130" height="100" rx="10" ry="10" style="stroke: black; stroke-width: 2px; fill: white; fill-opacity: 0.95;"></rect><text lineHeight="1.2" class="djs-label" style="font-family: Arial, sans-serif; font-size: 12px; font-weight: normal; fill: black;"><tspan x="23.1484375" y="46.4">Perform vendor </tspan><tspan x="46.828125" y="60.8">search</tspan></text></g><g class="djs-visual" id="Gateway_1lx9i49" transform="translate(135 405)"><polygon points="25,0 50,25 25,50 0,25" style="stroke: black; stroke-width: 2px; fill: white; fill-opacity: 0.95;"></polygon><path d="m 16,15 7.42857142857143,9.714285714285715 -7.42857142857143,9.714285714285715 3.428571428571429,0 5.714285714285715,-7.464228571428572 5.714285714285715,7.464228571428572 3.428571428571429,0 -7.42857142857143,-9.714285714285715 7.42857142857143,-9.714285714285715 -3.428571428571429,0 -5.714285714285715,7.464228571428572 -5.714285714285715,-7.464228571428572 -3.428571428571429,0 z" style="fill: black; stroke-width: 1px; stroke: black;"></path></g><g class="djs-visual" id="Activity_00v3yoa" transform="translate(95 530)"><rect x="0" y="0" width="130" height="100" rx="10" ry="10" style="stroke: black; stroke-width: 2px; fill: white; fill-opacity: 0.95;"></rect><text lineHeight="1.2" class="djs-label" style="font-family: Arial, sans-serif; font-size: 12px; font-weight: normal; fill: black;"><tspan x="11.9609375" y="53.599999999999994">Input Vendor details</tspan></text></g><g class="djs-visual" id="Activity_10lqhng" transform="translate(485 530)"><rect x="0" y="0" width="130" height="100" rx="10" ry="10" style="stroke: black; stroke-width: 2px; fill: white; fill-opacity: 0.95;"></rect><text lineHeight="1.2" class="djs-label" style="font-family: Arial, sans-serif; font-size: 12px; font-weight: normal; fill: black;"><tspan x="6.7890625" y="53.599999999999994">Amend Vendor details</tspan></text></g><g class="djs-visual" id="Gateway_131uke1" transform="translate(135 705)"><polygon points="25,0 50,25 25,50 0,25" style="stroke: black; stroke-width: 2px; fill: white; fill-opacity: 0.95;"></polygon><path d="m 16,15 7.42857142857143,9.714285714285715 -7.42857142857143,9.714285714285715 3.428571428571429,0 5.714285714285715,-7.464228571428572 5.714285714285715,7.464228571428572 3.428571428571429,0 -7.42857142857143,-9.714285714285715 7.42857142857143,-9.714285714285715 -3.428571428571429,0 -5.714285714285715,7.464228571428572 -5.714285714285715,-7.464228571428572 -3.428571428571429,0 z" style="fill: black; stroke-width: 1px; stroke: black;"></path></g><g class="djs-visual" id="Activity_0c93hmn" transform="translate(95 830)"><rect x="0" y="0" width="130" height="100" rx="10" ry="10" style="stroke: black; stroke-width: 2px; fill: white; fill-opacity: 0.95;"></rect><text lineHeight="1.2" class="djs-label" style="font-family: Arial, sans-serif; font-size: 12px; font-weight: normal; fill: black;"><tspan x="5.953125" y="53.599999999999994">Update Vendor details</tspan></text></g><g class="djs-visual" id="Gateway_0grfhmj" transform="translate(135 995)"><polygon points="25,0 50,25 25,50 0,25" style="stroke: black; stroke-width: 2px; fill: white; fill-opacity: 0.95;"></polygon><path d="m 16,15 7.42857142857143,9.714285714285715 -7.42857142857143,9.714285714285715 3.428571428571429,0 5.714285714285715,-7.464228571428572 5.714285714285715,7.464228571428572 3.428571428571429,0 -7.42857142857143,-9.714285714285715 7.42857142857143,-9.714285714285715 -3.428571428571429,0 -5.714285714285715,7.464228571428572 -5.714285714285715,-7.464228571428572 -3.428571428571429,0 z" style="fill: black; stroke-width: 1px; stroke: black;"></path></g><g class="djs-visual" id="Event_0iyun03" transform="translate(2 1192)"><circle cx="18" cy="18" r="18" style="stroke: black; stroke-width: 4px; fill: white; fill-opacity: 0.95;"></circle></g><g class="djs-visual" id="Event_0iyun03_label" transform="translate(-19 1235)"><text lineHeight="1.2" class="djs-label" style="font-family: Arial, sans-serif; font-size: 11px; font-weight: normal; fill: black;"><tspan x="0" y="9.899999999999999">Vendor created/ </tspan><tspan x="15.867431640625" y="23.099999999999998">amended </tspan><tspan x="8.906494140625" y="36.3">successfully</tspan></text></g><g class="djs-visual" id="Event_09k30zc" transform="translate(142 1192)"><circle cx="18" cy="18" r="18" style="stroke: black; stroke-width: 4px; fill: white; fill-opacity: 0.95;"></circle></g><g class="djs-visual" id="Event_09k30zc_label" transform="translate(122 1235)"><text lineHeight="1.2" class="djs-label" style="font-family: Arial, sans-serif; font-size: 11px; font-weight: normal; fill: black;"><tspan x="0" y="9.899999999999999">Vendor created/ </tspan><tspan x="15.867431640625" y="23.099999999999998">amended </tspan><tspan x="8.906494140625" y="36.3">successfully</tspan></text></g><g class="djs-visual" id="TextAnnotation_1ssj4m9" transform="translate(270 450)"><rect x="0" y="0" width="170" height="210" rx="0" ry="0" style="stroke: none; stroke-width: 2px; fill: none;"></rect><path d="m 0, 0 m 10,0 l -10,0 l 0,210 l 10,0" style="fill: none; stroke-width: 2px; stroke: black;"></path><text lineHeight="1.2" class="djs-label" style="font-family: Arial, sans-serif; font-size: 12px; font-weight: normal; fill: black;"><tspan x="5" y="15.799999999999999">Vendor details to be captured:</tspan><tspan x="5" y="30.199999999999996">- Customer ID</tspan><tspan x="5" y="44.599999999999994">- Status</tspan><tspan x="5" y="58.99999999999999">- Name</tspan><tspan x="5" y="73.39999999999999">- Currency</tspan><tspan x="5" y="87.79999999999998">- Account/ Beneficiary details</tspan><tspan x="5" y="102.19999999999999">- Commodity</tspan><tspan x="5" y="116.6">- Rebate Currency</tspan><tspan x="5" y="131">- Rebate Type</tspan><tspan x="5" y="145.4">- Rebate Value</tspan><tspan x="5" y="159.8">- Start Date</tspan><tspan x="5" y="174.20000000000002">- Spl Rebate Type</tspan><tspan x="5" y="188.60000000000002">- Spl Rebate Value</tspan><tspan x="5" y="203.00000000000003">- End Date</tspan></text></g><g class="djs-visual" id="TextAnnotation_1j3e2tp" transform="translate(670 450)"><rect x="0" y="0" width="200" height="230" rx="0" ry="0" style="stroke: none; stroke-width: 2px; fill: none;"></rect><path d="m 0, 0 m 10,0 l -10,0 l 0,230 l 10,0" style="fill: none; stroke-width: 2px; stroke: black;"></path><text lineHeight="1.2" class="djs-label" style="font-family: Arial, sans-serif; font-size: 12px; font-weight: normal; fill: black;"><tspan x="5" y="15.799999999999999">Vendor details can be amended as </tspan><tspan x="5" y="30.199999999999996">follows:</tspan><tspan x="5" y="44.599999999999994">- Customer ID</tspan><tspan x="5" y="58.99999999999999">- Status</tspan><tspan x="5" y="73.39999999999999">- Name</tspan><tspan x="5" y="87.79999999999998">- Currency</tspan><tspan x="5" y="102.19999999999999">- Account/ Beneficiary details</tspan><tspan x="5" y="116.6">- Commodity</tspan><tspan x="5" y="131">- Rebate Currency</tspan><tspan x="5" y="145.4">- Rebate Type</tspan><tspan x="5" y="159.8">- Rebate Value</tspan><tspan x="5" y="174.20000000000002">- Start Date</tspan><tspan x="5" y="188.60000000000002">- Spl Rebate Type</tspan><tspan x="5" y="203.00000000000003">- Spl Rebate Value</tspan><tspan x="5" y="217.40000000000003">- End Date</tspan></text></g><g class="djs-visual" id="Flow_0xra057_label" transform="translate(165 476)"><text lineHeight="1.2" class="djs-label" style="font-family: Arial, sans-serif; font-size: 11px; font-weight: normal; fill: black;"><tspan x="0" y="9.899999999999999">Vendor to be </tspan><tspan x="12.34375" y="23.099999999999998">created</tspan></text></g><g class="djs-visual" id="Flow_09wmjjd_label" transform="translate(559 476)"><text lineHeight="1.2" class="djs-label" style="font-family: Arial, sans-serif; font-size: 11px; font-weight: normal; fill: black;"><tspan x="0" y="9.899999999999999">Vendor to be </tspan><tspan x="7.7578125" y="23.099999999999998">amended</tspan></text></g><g class="djs-visual" id="Association_1bs4my7" transform="translate(0 0)"><polyline points="223,535 270,501 " style="fill: none; stroke: black; stroke-width: 2px; stroke-dasharray: 0.5, 5; stroke-linecap: round; stroke-linejoin: round;"></polyline></g><g class="djs-visual" id="Association_08fbqij" transform="translate(0 0)"><polyline points="614,537 670,499 " style="fill: none; stroke: black; stroke-width: 2px; stroke-dasharray: 0.5, 5; stroke-linecap: round; stroke-linejoin: round;"></polyline></g></g><g><rect class="viewport" x="-1382.1000000000001" y="-94.93125" width="3614.5833333333335" height="1375"></rect></g></svg>