<svg width="100%" height="100%" viewBox="56, 71, 1835, 2110"><g><g class="djs-visual" id="Flow_1e1g594" transform="translate(0 0)"><path d="m  1160,1657L1160,1680 L285,1680 " style="fill: none; stroke-width: 2px; stroke: black; stroke-linejoin: round; marker-end: url(&quot;#sequenceflow-end-white-black-e2daqvcdm0of9fzt3yxzh9jcr&quot;);"></path></g><g class="djs-visual" id="Flow_1shub83" transform="translate(0 0)"><path d="m  260,1705L260,1750 " style="fill: none; stroke-width: 2px; stroke: black; stroke-linejoin: round; marker-end: url(&quot;#sequenceflow-end-white-black-e2daqvcdm0of9fzt3yxzh9jcr&quot;);"></path></g><g class="djs-visual" id="Flow_03q02gv" transform="translate(0 0)"><path d="m  1650,1450L1650,1500 " style="fill: none; stroke-width: 2px; stroke: black; stroke-linejoin: round; marker-end: url(&quot;#sequenceflow-end-white-black-e2daqvcdm0of9fzt3yxzh9jcr&quot;);"></path></g><g class="djs-visual" id="Flow_11oht26" transform="translate(0 0)"><path d="m  1160,1362L1160,1390 " style="fill: none; stroke-width: 2px; stroke: black; stroke-linejoin: round; marker-end: url(&quot;#sequenceflow-end-white-black-e2daqvcdm0of9fzt3yxzh9jcr&quot;);"></path></g><g class="djs-visual" id="Flow_1ecj5lz" transform="translate(0 0)"><path d="m  1450,1285L1450,1337 L1185,1337 " style="fill: none; stroke-width: 2px; stroke: black; stroke-linejoin: round; marker-end: url(&quot;#sequenceflow-end-white-black-e2daqvcdm0of9fzt3yxzh9jcr&quot;);"></path></g><g class="djs-visual" id="Flow_034b9rk" transform="translate(0 0)"><path d="m  1185,1007L1450,1007 L1450,1090 " style="fill: none; stroke-width: 2px; stroke: black; stroke-linejoin: round; marker-end: url(&quot;#sequenceflow-end-white-black-e2daqvcdm0of9fzt3yxzh9jcr&quot;);"></path></g><g class="djs-visual" id="Flow_0zpfwsm" transform="translate(0 0)"><path d="m  1650,1600L1650,1642 " style="fill: none; stroke-width: 2px; stroke: black; stroke-linejoin: round; marker-end: url(&quot;#sequenceflow-end-white-black-e2daqvcdm0of9fzt3yxzh9jcr&quot;);"></path></g><g class="djs-visual" id="Flow_12yylx7" transform="translate(0 0)"><path d="m  1475,1260L1650,1260 L1650,1350 " style="fill: none; stroke-width: 2px; stroke: black; stroke-linejoin: round; marker-end: url(&quot;#sequenceflow-end-white-black-e2daqvcdm0of9fzt3yxzh9jcr&quot;);"></path></g><g class="djs-visual" id="Flow_0gji3zj" transform="translate(0 0)"><path d="m  1160,1032L1160,1312 " style="fill: none; stroke-width: 2px; stroke: black; stroke-linejoin: round; marker-end: url(&quot;#sequenceflow-end-white-black-e2daqvcdm0of9fzt3yxzh9jcr&quot;);"></path></g><g class="djs-visual" id="Flow_14w2ogm" transform="translate(0 0)"><path d="m  1450,1190L1450,1235 " style="fill: none; stroke-width: 2px; stroke: black; stroke-linejoin: round; marker-end: url(&quot;#sequenceflow-end-white-black-e2daqvcdm0of9fzt3yxzh9jcr&quot;);"></path></g><g class="djs-visual" id="Flow_1x9ll4s" transform="translate(0 0)"><path d="m  1160,957L1160,982 " style="fill: none; stroke-width: 2px; stroke: black; stroke-linejoin: round; marker-end: url(&quot;#sequenceflow-end-white-black-e2daqvcdm0of9fzt3yxzh9jcr&quot;);"></path></g><g class="djs-visual" id="Flow_1rj9k84" transform="translate(0 0)"><path d="m  260,1850L260,1900 " style="fill: none; stroke-width: 2px; stroke: black; stroke-linejoin: round; marker-end: url(&quot;#sequenceflow-end-white-black-e2daqvcdm0of9fzt3yxzh9jcr&quot;);"></path></g><g class="djs-visual" id="Flow_0n5725j" transform="translate(0 0)"><path d="m  260,1000L260,1090 " style="fill: none; stroke-width: 2px; stroke: black; stroke-linejoin: round; marker-end: url(&quot;#sequenceflow-end-white-black-e2daqvcdm0of9fzt3yxzh9jcr&quot;);"></path></g><g class="djs-visual" id="Flow_13rjr40" transform="translate(0 0)"><path d="m  260,820L260,900 " style="fill: none; stroke-width: 2px; stroke: black; stroke-linejoin: round; marker-end: url(&quot;#sequenceflow-end-white-black-e2daqvcdm0of9fzt3yxzh9jcr&quot;);"></path></g><g class="djs-visual" id="Flow_0aekwvp" transform="translate(0 0)"><path d="m  260,2000L260,2042 " style="fill: none; stroke-width: 2px; stroke: black; stroke-linejoin: round; marker-end: url(&quot;#sequenceflow-end-white-black-e2daqvcdm0of9fzt3yxzh9jcr&quot;);"></path></g><g class="djs-visual" id="Flow_1b8jmnl" transform="translate(0 0)"><path d="m  260,1425L260,1655 " style="fill: none; stroke-width: 2px; stroke: black; stroke-linejoin: round; marker-end: url(&quot;#sequenceflow-end-white-black-e2daqvcdm0of9fzt3yxzh9jcr&quot;);"></path></g><g class="djs-visual" id="Flow_0z1x9h2" transform="translate(0 0)"><path d="m  260,1285L260,1375 " style="fill: none; stroke-width: 2px; stroke: black; stroke-linejoin: round; marker-end: url(&quot;#sequenceflow-end-white-black-e2daqvcdm0of9fzt3yxzh9jcr&quot;);"></path></g><g class="djs-visual" id="Flow_1xqjlra" transform="translate(0 0)"><path d="m  1160,1490L1160,1557 " style="fill: none; stroke-width: 2px; stroke: black; stroke-linejoin: round; marker-end: url(&quot;#sequenceflow-end-white-black-e2daqvcdm0of9fzt3yxzh9jcr&quot;);"></path></g><g class="djs-visual" id="Flow_1ibqghl" transform="translate(0 0)"><path d="m  1160,817L1160,857 " style="fill: none; stroke-width: 2px; stroke: black; stroke-linejoin: round; marker-end: url(&quot;#sequenceflow-end-white-black-e2daqvcdm0of9fzt3yxzh9jcr&quot;);"></path></g><g class="djs-visual" id="Flow_1tltqpa" transform="translate(0 0)"><path d="m  860,820L860,1400 L285,1400 " style="fill: none; stroke-width: 2px; stroke: black; stroke-linejoin: round; marker-end: url(&quot;#sequenceflow-end-white-black-e2daqvcdm0of9fzt3yxzh9jcr&quot;);"></path></g><g class="djs-visual" id="Flow_15aam3x" transform="translate(0 0)"><path d="m  561,1190L561,1260 L285,1260 " style="fill: none; stroke-width: 2px; stroke: black; stroke-linejoin: round; marker-end: url(&quot;#sequenceflow-end-white-black-e2daqvcdm0of9fzt3yxzh9jcr&quot;);"></path></g><g class="djs-visual" id="Flow_10njvgs" transform="translate(0 0)"><path d="m  561,1000L561,1090 " style="fill: none; stroke-width: 2px; stroke: black; stroke-linejoin: round; marker-end: url(&quot;#sequenceflow-end-white-black-e2daqvcdm0of9fzt3yxzh9jcr&quot;);"></path></g><g class="djs-visual" id="Flow_1t7nv73" transform="translate(0 0)"><path d="m  560,820L560,900 " style="fill: none; stroke-width: 2px; stroke: black; stroke-linejoin: round; marker-end: url(&quot;#sequenceflow-end-white-black-e2daqvcdm0of9fzt3yxzh9jcr&quot;);"></path></g><g class="djs-visual" id="Flow_0r6dcmb" transform="translate(0 0)"><path d="m  260,1190L260,1235 " style="fill: none; stroke-width: 2px; stroke: black; stroke-linejoin: round; marker-end: url(&quot;#sequenceflow-end-white-black-e2daqvcdm0of9fzt3yxzh9jcr&quot;);"></path></g><g class="djs-visual" id="Flow_03hkbji" transform="translate(0 0)"><path d="m  285,600L1160,600 L1160,717 " style="fill: none; stroke-width: 2px; stroke: black; stroke-linejoin: round; marker-end: url(&quot;#sequenceflow-end-white-black-e2daqvcdm0of9fzt3yxzh9jcr&quot;);"></path></g><g class="djs-visual" id="Flow_1ov1uir" transform="translate(0 0)"><path d="m  285,600L860,600 L860,720 " style="fill: none; stroke-width: 2px; stroke: black; stroke-linejoin: round; marker-end: url(&quot;#sequenceflow-end-white-black-e2daqvcdm0of9fzt3yxzh9jcr&quot;);"></path></g><g class="djs-visual" id="Flow_1nc5gh4" transform="translate(0 0)"><path d="m  285,600L560,600 L560,720 " style="fill: none; stroke-width: 2px; stroke: black; stroke-linejoin: round; marker-end: url(&quot;#sequenceflow-end-white-black-e2daqvcdm0of9fzt3yxzh9jcr&quot;);"></path></g><g class="djs-visual" id="Flow_0e00ogg" transform="translate(0 0)"><path d="m  260,625L260,720 " style="fill: none; stroke-width: 2px; stroke: black; stroke-linejoin: round; marker-end: url(&quot;#sequenceflow-end-white-black-e2daqvcdm0of9fzt3yxzh9jcr&quot;);"></path></g><g class="djs-visual" id="Flow_0osnz2z" transform="translate(0 0)"><path d="m  260,530L260,575 " style="fill: none; stroke-width: 2px; stroke: black; stroke-linejoin: round; marker-end: url(&quot;#sequenceflow-end-white-black-e2daqvcdm0of9fzt3yxzh9jcr&quot;);"></path></g><g class="djs-visual" id="Flow_1u8ihoj" transform="translate(0 0)"><path d="m  260,380L260,430 " style="fill: none; stroke-width: 2px; stroke: black; stroke-linejoin: round; marker-end: url(&quot;#sequenceflow-end-white-black-e2daqvcdm0of9fzt3yxzh9jcr&quot;);"></path></g><g class="djs-visual" id="Flow_1ekj04t" transform="translate(0 0)"><path d="m  260,238L260,280 " style="fill: none; stroke-width: 2px; stroke: black; stroke-linejoin: round; marker-end: url(&quot;#sequenceflow-end-white-black-e2daqvcdm0of9fzt3yxzh9jcr&quot;);"></path></g><g class="djs-visual" id="StartEvent_1bm324f" transform="translate(242 202)"><circle cx="18" cy="18" r="18" style="stroke: black; stroke-width: 2px; fill: white; fill-opacity: 0.95;"></circle></g><g class="djs-visual" id="StartEvent_1bm324f_label" transform="translate(219 127)"><text lineHeight="1.2" class="djs-label" style="font-family: Arial, sans-serif; font-size: 11px; font-weight: normal; fill: black;"><tspan x="14.6796875" y="9.899999999999999">Scheduled </tspan><tspan x="8.107421875" y="23.099999999999998">repayment of </tspan><tspan x="9.1796875" y="36.3">deposit to be </tspan><tspan x="0" y="49.5">executed on due </tspan><tspan x="29.96875" y="62.7">date</tspan></text></g><g class="djs-visual" id="Activity_0zzq561" transform="translate(195 280)"><rect x="0" y="0" width="130" height="100" rx="10" ry="10" style="stroke: black; stroke-width: 2px; fill: white; fill-opacity: 0.95;"></rect><text lineHeight="1.2" class="djs-label" style="font-family: Arial, sans-serif; font-size: 12px; font-weight: normal; fill: black;"><tspan x="15.14453125" y="46.4">Check for mode of </tspan><tspan x="36.3193359375" y="60.8">repayment</tspan></text></g><g class="djs-visual" id="Activity_0q8owb1" transform="translate(195 430)"><rect x="0" y="0" width="130" height="100" rx="10" ry="10" style="stroke: black; stroke-width: 2px; fill: white; fill-opacity: 0.95;"></rect><text lineHeight="1.2" class="djs-label" style="font-family: Arial, sans-serif; font-size: 12px; font-weight: normal; fill: black;"><tspan x="6.625" y="46.4">Move balances to pay</tspan><tspan x="43.8193359375" y="60.8">balance</tspan></text></g><g class="djs-visual" id="Gateway_0g22rwp" transform="translate(235 575)"><polygon points="25,0 50,25 25,50 0,25" style="stroke: black; stroke-width: 2px; fill: white; fill-opacity: 0.95;"></polygon><path d="m 16,15 7.42857142857143,9.714285714285715 -7.42857142857143,9.714285714285715 3.428571428571429,0 5.714285714285715,-7.464228571428572 5.714285714285715,7.464228571428572 3.428571428571429,0 -7.42857142857143,-9.714285714285715 7.42857142857143,-9.714285714285715 -3.428571428571429,0 -5.714285714285715,7.464228571428572 -5.714285714285715,-7.464228571428572 -3.428571428571429,0 z" style="fill: black; stroke-width: 1px; stroke: black;"></path></g><g class="djs-visual" id="Activity_1nqm5xn" transform="translate(195 720)"><rect x="0" y="0" width="130" height="100" rx="10" ry="10" style="stroke: black; stroke-width: 2px; fill: white; fill-opacity: 0.95;"></rect><text lineHeight="1.2" class="djs-label" style="font-family: Arial, sans-serif; font-size: 12px; font-weight: normal; fill: black;"><tspan x="26.5390625" y="53.599999999999994">Transfer funds</tspan></text></g><g class="djs-visual" id="Activity_1r79s0n" transform="translate(495 720)"><rect x="0" y="0" width="130" height="100" rx="10" ry="10" style="stroke: black; stroke-width: 2px; fill: white; fill-opacity: 0.95;"></rect><text lineHeight="1.2" class="djs-label" style="font-family: Arial, sans-serif; font-size: 12px; font-weight: normal; fill: black;"><tspan x="6.134765625" y="53.599999999999994">Input cash transaction</tspan></text></g><g class="djs-visual" id="Activity_02j8ydp" transform="translate(795 720)"><rect x="0" y="0" width="130" height="100" rx="10" ry="10" style="stroke: black; stroke-width: 2px; fill: white; fill-opacity: 0.95;"></rect><text lineHeight="1.2" class="djs-label" style="font-family: Arial, sans-serif; font-size: 12px; font-weight: normal; fill: black;"><tspan x="9.1318359375" y="46.4">Generate accounting </tspan><tspan x="46.984375" y="60.8">entries</tspan></text></g><g class="djs-visual" id="Activity_0gmkejb" transform="translate(1095 717)"><rect x="0" y="0" width="130" height="100" rx="10" ry="10" style="stroke: black; stroke-width: 2px; fill: white; fill-opacity: 0.95;"></rect><text lineHeight="1.2" class="djs-label" style="font-family: Arial, sans-serif; font-size: 12px; font-weight: normal; fill: black;"><tspan x="12.3046875" y="46.4">Capture Beneficiary </tspan><tspan x="47.65625" y="60.8">details</tspan></text></g><g class="djs-visual" id="Activity_00wvpe6" transform="translate(195 900)"><rect x="0" y="0" width="130" height="100" rx="10" ry="10" style="stroke: black; stroke-width: 2px; fill: white; fill-opacity: 0.95;"></rect><text lineHeight="1.2" class="djs-label" style="font-family: Arial, sans-serif; font-size: 12px; font-weight: normal; fill: black;"><tspan x="23.8046875" y="46.4">Authorise funds </tspan><tspan x="14.8115234375" y="60.8">transfer repayment</tspan></text></g><g class="djs-visual" id="Activity_0ipvwek" transform="translate(195 1090)"><rect x="0" y="0" width="130" height="100" rx="10" ry="10" style="stroke: black; stroke-width: 2px; fill: white; fill-opacity: 0.95;"></rect><text lineHeight="1.2" class="djs-label" style="font-family: Arial, sans-serif; font-size: 12px; font-weight: normal; fill: black;"><tspan x="9.1318359375" y="46.4">Generate accounting </tspan><tspan x="46.984375" y="60.8">entries</tspan></text></g><g class="djs-visual" id="Gateway_0r34mko" transform="translate(235 1235)"><polygon points="25,0 50,25 25,50 0,25" style="stroke: black; stroke-width: 2px; fill: white; fill-opacity: 0.95;"></polygon><path d="m 16,15 7.42857142857143,9.714285714285715 -7.42857142857143,9.714285714285715 3.428571428571429,0 5.714285714285715,-7.464228571428572 5.714285714285715,7.464228571428572 3.428571428571429,0 -7.42857142857143,-9.714285714285715 7.42857142857143,-9.714285714285715 -3.428571428571429,0 -5.714285714285715,7.464228571428572 -5.714285714285715,-7.464228571428572 -3.428571428571429,0 z" style="fill: black; stroke-width: 1px; stroke: black;"></path></g><g class="djs-visual" id="Activity_1msnb2o" transform="translate(495 900)"><rect x="0" y="0" width="130" height="100" rx="10" ry="10" style="stroke: black; stroke-width: 2px; fill: white; fill-opacity: 0.95;"></rect><text lineHeight="1.2" class="djs-label" style="font-family: Arial, sans-serif; font-size: 12px; font-weight: normal; fill: black;"><tspan x="25.6484375" y="46.4">Authorise cash </tspan><tspan x="36.3193359375" y="60.8">repayment</tspan></text></g><g class="djs-visual" id="Activity_0o83plh" transform="translate(495 1090)"><rect x="0" y="0" width="130" height="100" rx="10" ry="10" style="stroke: black; stroke-width: 2px; fill: white; fill-opacity: 0.95;"></rect><text lineHeight="1.2" class="djs-label" style="font-family: Arial, sans-serif; font-size: 12px; font-weight: normal; fill: black;"><tspan x="9.1318359375" y="46.4">Generate accounting </tspan><tspan x="46.984375" y="60.8">entries</tspan></text></g><g class="djs-visual" id="Activity_04aa5k0" transform="translate(1095 1390)"><rect x="0" y="0" width="130" height="100" rx="10" ry="10" style="stroke: black; stroke-width: 2px; fill: white; fill-opacity: 0.95;"></rect><text lineHeight="1.2" class="djs-label" style="font-family: Arial, sans-serif; font-size: 12px; font-weight: normal; fill: black;"><tspan x="21.3134765625" y="46.4">Create Payment </tspan><tspan x="49.1611328125" y="60.8">Order</tspan></text></g><g class="djs-visual" id="Activity_17r6unp" transform="translate(1095 1557)"><rect x="0" y="0" width="130" height="100" rx="10" ry="10" style="stroke: black; stroke-width: 2px; fill: white; fill-opacity: 0.95;"></rect><text lineHeight="1.2" class="djs-label" style="font-family: Arial, sans-serif; font-size: 12px; font-weight: normal; fill: black;"><tspan x="9.466796875" y="39.2">Send Payment order </tspan><tspan x="15.97265625" y="53.6">details to payment </tspan><tspan x="45.9921875" y="68">system</tspan></text></g><g class="djs-visual" id="Gateway_0ud1plz" transform="translate(235 1375)"><polygon points="25,0 50,25 25,50 0,25" style="stroke: black; stroke-width: 2px; fill: white; fill-opacity: 0.95;"></polygon><path d="m 16,15 7.42857142857143,9.714285714285715 -7.42857142857143,9.714285714285715 3.428571428571429,0 5.714285714285715,-7.464228571428572 5.714285714285715,7.464228571428572 3.428571428571429,0 -7.42857142857143,-9.714285714285715 7.42857142857143,-9.714285714285715 -3.428571428571429,0 -5.714285714285715,7.464228571428572 -5.714285714285715,-7.464228571428572 -3.428571428571429,0 z" style="fill: black; stroke-width: 1px; stroke: black;"></path></g><g class="djs-visual" id="Activity_05n1ab3" transform="translate(195 1750)"><rect x="0" y="0" width="130" height="100" rx="10" ry="10" style="stroke: black; stroke-width: 2px; fill: white; fill-opacity: 0.95;"></rect><text lineHeight="1.2" class="djs-label" style="font-family: Arial, sans-serif; font-size: 12px; font-weight: normal; fill: black;"><tspan x="20.8095703125" y="53.599999999999994">Generate advice</tspan></text></g><g class="djs-visual" id="DataObjectReference_0fx8dyw" transform="translate(372 1780)"><path d="m 0,0 28.23529411764706,0 7.058823529411765,8.196721311475411 0,40.98360655737705 -35.294117647058826,0 0,-49.18032786885246 28.23529411764706,0 0,8.196721311475411 7.058823529411765,0" style="fill: white; stroke-width: 2px; stroke: black; fill-opacity: 0.95;"></path></g><g class="djs-visual" id="DataObjectReference_0fx8dyw_label" transform="translate(358 1837)"><text lineHeight="1.2" class="djs-label" style="font-family: Arial, sans-serif; font-size: 11px; font-weight: normal; fill: black;"><tspan x="0" y="9.899999999999999">Credit Advice</tspan></text></g><g class="djs-visual" id="Activity_0jizaad" transform="translate(195 1900)"><rect x="0" y="0" width="130" height="100" rx="10" ry="10" style="stroke: black; stroke-width: 2px; fill: white; fill-opacity: 0.95;"></rect><text lineHeight="1.2" class="djs-label" style="font-family: Arial, sans-serif; font-size: 12px; font-weight: normal; fill: black;"><tspan x="18.8115234375" y="46.4">Provide advice to </tspan><tspan x="38.4912109375" y="60.8">Customer</tspan></text></g><g class="djs-visual" id="DataObjectReference_1oxtt29" transform="translate(372 1925)"><path d="m 0,0 28.23529411764706,0 7.058823529411765,8.196721311475411 0,40.98360655737705 -35.294117647058826,0 0,-49.18032786885246 28.23529411764706,0 0,8.196721311475411 7.058823529411765,0" style="fill: white; stroke-width: 2px; stroke: black; fill-opacity: 0.95;"></path></g><g class="djs-visual" id="DataObjectReference_1oxtt29_label" transform="translate(358 1982)"><text lineHeight="1.2" class="djs-label" style="font-family: Arial, sans-serif; font-size: 11px; font-weight: normal; fill: black;"><tspan x="0" y="9.899999999999999">Credit Advice</tspan></text></g><g class="djs-visual" id="Event_1n4p4dn" transform="translate(242 2042)"><circle cx="18" cy="18" r="18" style="stroke: black; stroke-width: 4px; fill: white; fill-opacity: 0.95;"></circle></g><g class="djs-visual" id="Event_1n4p4dn_label" transform="translate(215 2085)"><text lineHeight="1.2" class="djs-label" style="font-family: Arial, sans-serif; font-size: 11px; font-weight: normal; fill: black;"><tspan x="18.640625" y="9.899999999999999">Scheduled </tspan><tspan x="12.068359375" y="23.099999999999998">repayment of </tspan><tspan x="0" y="36.3">deposit completed</tspan></text></g><g class="djs-visual" id="Activity_1arlen1" transform="translate(1095 857)"><rect x="0" y="0" width="130" height="100" rx="10" ry="10" style="stroke: black; stroke-width: 2px; fill: white; fill-opacity: 0.95;"></rect><text lineHeight="1.2" class="djs-label" style="font-family: Arial, sans-serif; font-size: 12px; font-weight: normal; fill: black;"><tspan x="6.96875" y="46.4">Check if Counterparty </tspan><tspan x="22.9892578125" y="60.8">restriction is set</tspan></text></g><g class="djs-visual" id="Gateway_0a4hv6s" transform="translate(1135 982)"><polygon points="25,0 50,25 25,50 0,25" style="stroke: black; stroke-width: 2px; fill: white; fill-opacity: 0.95;"></polygon><path d="m 16,15 7.42857142857143,9.714285714285715 -7.42857142857143,9.714285714285715 3.428571428571429,0 5.714285714285715,-7.464228571428572 5.714285714285715,7.464228571428572 3.428571428571429,0 -7.42857142857143,-9.714285714285715 7.42857142857143,-9.714285714285715 -3.428571428571429,0 -5.714285714285715,7.464228571428572 -5.714285714285715,-7.464228571428572 -3.428571428571429,0 z" style="fill: black; stroke-width: 1px; stroke: black;"></path></g><g class="djs-visual" id="Activity_0fd4kic" transform="translate(1385 1090)"><rect x="0" y="0" width="130" height="100" rx="10" ry="10" style="stroke: black; stroke-width: 2px; fill: white; fill-opacity: 0.95;"></rect><text lineHeight="1.2" class="djs-label" style="font-family: Arial, sans-serif; font-size: 12px; font-weight: normal; fill: black;"><tspan x="16.640625" y="46.4">Check Beneficiary </tspan><tspan x="47.65625" y="60.8">details</tspan></text></g><g class="djs-visual" id="Gateway_0q5z8x1" transform="translate(1425 1235)"><polygon points="25,0 50,25 25,50 0,25" style="stroke: black; stroke-width: 2px; fill: white; fill-opacity: 0.95;"></polygon><path d="m 16,15 7.42857142857143,9.714285714285715 -7.42857142857143,9.714285714285715 3.428571428571429,0 5.714285714285715,-7.464228571428572 5.714285714285715,7.464228571428572 3.428571428571429,0 -7.42857142857143,-9.714285714285715 7.42857142857143,-9.714285714285715 -3.428571428571429,0 -5.714285714285715,7.464228571428572 -5.714285714285715,-7.464228571428572 -3.428571428571429,0 z" style="fill: black; stroke-width: 1px; stroke: black;"></path></g><g class="djs-visual" id="Activity_0xrhhx6" transform="translate(1585 1500)"><rect x="0" y="0" width="130" height="100" rx="10" ry="10" style="stroke: black; stroke-width: 2px; fill: white; fill-opacity: 0.95;"></rect><text lineHeight="1.2" class="djs-label" style="font-family: Arial, sans-serif; font-size: 12px; font-weight: normal; fill: black;"><tspan x="19.8203125" y="53.599999999999994">Inform Customer</tspan></text></g><g class="djs-visual" id="Event_0xkgyik" transform="translate(1632 1642)"><circle cx="18" cy="18" r="18" style="stroke: black; stroke-width: 4px; fill: white; fill-opacity: 0.95;"></circle></g><g class="djs-visual" id="Event_0xkgyik_label" transform="translate(1604 1690)"><text lineHeight="1.2" class="djs-label" style="font-family: Arial, sans-serif; font-size: 11px; font-weight: normal; fill: black;"><tspan x="0" y="9.899999999999999">Customer informed </tspan><tspan x="18.328125" y="23.099999999999998">about failed </tspan><tspan x="20.316162109375" y="36.3">repayment</tspan></text></g><g class="djs-visual" id="Gateway_1h6e9ka" transform="translate(1135 1312)"><polygon points="25,0 50,25 25,50 0,25" style="stroke: black; stroke-width: 2px; fill: white; fill-opacity: 0.95;"></polygon><path d="m 16,15 7.42857142857143,9.714285714285715 -7.42857142857143,9.714285714285715 3.428571428571429,0 5.714285714285715,-7.464228571428572 5.714285714285715,7.464228571428572 3.428571428571429,0 -7.42857142857143,-9.714285714285715 7.42857142857143,-9.714285714285715 -3.428571428571429,0 -5.714285714285715,7.464228571428572 -5.714285714285715,-7.464228571428572 -3.428571428571429,0 z" style="fill: black; stroke-width: 1px; stroke: black;"></path></g><g class="djs-visual" id="Activity_1p94n2j" transform="translate(1585 1350)"><rect x="0" y="0" width="130" height="100" rx="10" ry="10" style="stroke: black; stroke-width: 2px; fill: white; fill-opacity: 0.95;"></rect><text lineHeight="1.2" class="djs-label" style="font-family: Arial, sans-serif; font-size: 12px; font-weight: normal; fill: black;"><tspan x="30.490234375" y="53.599999999999994">Display error</tspan></text></g><g class="djs-visual" id="Gateway_13srn15" transform="translate(235 1655)"><polygon points="25,0 50,25 25,50 0,25" style="stroke: black; stroke-width: 2px; fill: white; fill-opacity: 0.95;"></polygon><path d="m 16,15 7.42857142857143,9.714285714285715 -7.42857142857143,9.714285714285715 3.428571428571429,0 5.714285714285715,-7.464228571428572 5.714285714285715,7.464228571428572 3.428571428571429,0 -7.42857142857143,-9.714285714285715 7.42857142857143,-9.714285714285715 -3.428571428571429,0 -5.714285714285715,7.464228571428572 -5.714285714285715,-7.464228571428572 -3.428571428571429,0 z" style="fill: black; stroke-width: 1px; stroke: black;"></path></g><g class="djs-visual" id="TextAnnotation_0xrph6a" transform="translate(340 1080)"><rect x="0" y="0" width="130" height="40" rx="0" ry="0" style="stroke: none; stroke-width: 2px; fill: none;"></rect><path d="m 0, 0 m 10,0 l -10,0 l 0,40 l 10,0" style="fill: none; stroke-width: 2px; stroke: black;"></path><text lineHeight="1.2" class="djs-label" style="font-family: Arial, sans-serif; font-size: 12px; font-weight: normal; fill: black;"><tspan x="5" y="15.799999999999999">Dr Deposit account </tspan><tspan x="5" y="30.199999999999996">Cr Customer account</tspan></text></g><g class="djs-visual" id="TextAnnotation_0b4ve2h" transform="translate(640 710)"><rect x="0" y="0" width="130" height="40" rx="0" ry="0" style="stroke: none; stroke-width: 2px; fill: none;"></rect><path d="m 0, 0 m 10,0 l -10,0 l 0,40 l 10,0" style="fill: none; stroke-width: 2px; stroke: black;"></path><text lineHeight="1.2" class="djs-label" style="font-family: Arial, sans-serif; font-size: 12px; font-weight: normal; fill: black;"><tspan x="5" y="15.799999999999999">Cash payout for </tspan><tspan x="5" y="30.199999999999996">repayment of deposit</tspan></text></g><g class="djs-visual" id="TextAnnotation_1gagp7g" transform="translate(950 710)"><rect x="0" y="0" width="130" height="40" rx="0" ry="0" style="stroke: none; stroke-width: 2px; fill: none;"></rect><path d="m 0, 0 m 10,0 l -10,0 l 0,40 l 10,0" style="fill: none; stroke-width: 2px; stroke: black;"></path><text lineHeight="1.2" class="djs-label" style="font-family: Arial, sans-serif; font-size: 12px; font-weight: normal; fill: black;"><tspan x="5" y="15.799999999999999">Dr Deposit account </tspan><tspan x="5" y="30.199999999999996">Cr Customer account</tspan></text></g><g class="djs-visual" id="TextAnnotation_0fcfbl7" transform="translate(1260 1527)"><rect x="0" y="0" width="200" height="69" rx="0" ry="0" style="stroke: none; stroke-width: 2px; fill: none;"></rect><path d="m 0, 0 m 10,0 l -10,0 l 0,69 l 10,0" style="fill: none; stroke-width: 2px; stroke: black;"></path><text lineHeight="1.2" class="djs-label" style="font-family: Arial, sans-serif; font-size: 12px; font-weight: normal; fill: black;"><tspan x="5" y="15.799999999999999">Repayment will be through</tspan><tspan x="5" y="30.199999999999996">TPH/ other payment systems</tspan><tspan x="5" y="44.599999999999994">Dr Deposit Account</tspan><tspan x="5" y="58.99999999999999">Cr Customer Account</tspan></text></g><g class="djs-visual" id="TextAnnotation_1vppgjb" transform="translate(650 1090)"><rect x="0" y="0" width="130" height="40" rx="0" ry="0" style="stroke: none; stroke-width: 2px; fill: none;"></rect><path d="m 0, 0 m 10,0 l -10,0 l 0,40 l 10,0" style="fill: none; stroke-width: 2px; stroke: black;"></path><text lineHeight="1.2" class="djs-label" style="font-family: Arial, sans-serif; font-size: 12px; font-weight: normal; fill: black;"><tspan x="5" y="15.799999999999999">Dr Deposit account </tspan><tspan x="5" y="30.199999999999996">Cr Customer account</tspan></text></g><g class="djs-visual" id="TextAnnotation_1yke0ba" transform="translate(1250 860)"><rect x="0" y="0" width="170" height="40" rx="0" ry="0" style="stroke: none; stroke-width: 2px; fill: none;"></rect><path d="m 0, 0 m 10,0 l -10,0 l 0,40 l 10,0" style="fill: none; stroke-width: 2px; stroke: black;"></path><text lineHeight="1.2" class="djs-label" style="font-family: Arial, sans-serif; font-size: 12px; font-weight: normal; fill: black;"><tspan x="5" y="15.799999999999999">Counterparty restriction</tspan><tspan x="5" y="30.199999999999996">set in AA.ARR.ACCOUNT</tspan></text></g><g class="djs-visual" id="Flow_0e00ogg_label" transform="translate(251 640)"><text lineHeight="1.2" class="djs-label" style="font-family: Arial, sans-serif; font-size: 11px; font-weight: normal; fill: black;"><tspan x="0" y="9.899999999999999">Repayment through </tspan><tspan x="14.515625" y="23.099999999999998">funds transfer</tspan></text></g><g class="djs-visual" id="Flow_1nc5gh4_label" transform="translate(571 646)"><text lineHeight="1.2" class="djs-label" style="font-family: Arial, sans-serif; font-size: 11px; font-weight: normal; fill: black;"><tspan x="0" y="9.899999999999999">Repayment through </tspan><tspan x="35.0009765625" y="23.099999999999998">Teller</tspan></text></g><g class="djs-visual" id="Flow_1ov1uir_label" transform="translate(872 640)"><text lineHeight="1.2" class="djs-label" style="font-family: Arial, sans-serif; font-size: 11px; font-weight: normal; fill: black;"><tspan x="13.618896484375" y="9.899999999999999">Repayment to </tspan><tspan x="0" y="23.099999999999998">Settlement Account</tspan></text></g><g class="djs-visual" id="Flow_03hkbji_label" transform="translate(1161 640)"><text lineHeight="1.2" class="djs-label" style="font-family: Arial, sans-serif; font-size: 11px; font-weight: normal; fill: black;"><tspan x="14.53466796875" y="9.899999999999999">Repayment to </tspan><tspan x="0" y="23.099999999999998">Beneficiary Account</tspan></text></g><g class="djs-visual" id="Flow_1tltqpa_label" transform="translate(865 851)"><text lineHeight="1.2" class="djs-label" style="font-family: Arial, sans-serif; font-size: 11px; font-weight: normal; fill: black;"><tspan x="0" y="9.899999999999999">Accounting entries </tspan><tspan x="20.225341796875" y="23.099999999999998">generated</tspan></text></g><g class="djs-visual" id="Flow_0z1x9h2_label" transform="translate(281 1306)"><text lineHeight="1.2" class="djs-label" style="font-family: Arial, sans-serif; font-size: 11px; font-weight: normal; fill: black;"><tspan x="0" y="9.899999999999999">Repayment </tspan><tspan x="2.91015625" y="23.099999999999998">authorised</tspan></text></g><g class="djs-visual" id="DataOutputAssociation_0jhbrzs" transform="translate(0 0)"><polyline points="325,1803 372,1804 " style="fill: none; stroke: black; stroke-width: 2px; stroke-dasharray: 0.5, 5; stroke-linecap: round; stroke-linejoin: round; marker-end: url(&quot;#association-end-white-black-e2daqvcdm0of9fzt3yxzh9jcr&quot;);"></polyline></g><g class="djs-visual" id="DataOutputAssociation_0993hpl" transform="translate(0 0)"><polyline points="325,1951 372,1952 " style="fill: none; stroke: black; stroke-width: 2px; stroke-dasharray: 0.5, 5; stroke-linecap: round; stroke-linejoin: round; marker-end: url(&quot;#association-end-white-black-e2daqvcdm0of9fzt3yxzh9jcr&quot;);"></polyline></g><g class="djs-visual" id="Flow_0gji3zj_label" transform="translate(1162 1052)"><text lineHeight="1.2" class="djs-label" style="font-family: Arial, sans-serif; font-size: 11px; font-weight: normal; fill: black;"><tspan x="15.80615234375" y="9.899999999999999">Counterparty</tspan><tspan x="0" y="23.099999999999998">restriction is not set</tspan></text></g><g class="djs-visual" id="Flow_12yylx7_label" transform="translate(1667 1290)"><text lineHeight="1.2" class="djs-label" style="font-family: Arial, sans-serif; font-size: 11px; font-weight: normal; fill: black;"><tspan x="0" y="9.899999999999999">Beneficiary is not</tspan><tspan x="27.42919921875" y="23.099999999999998">set as</tspan><tspan x="10.308837890625" y="36.3">Counterparty</tspan></text></g><g class="djs-visual" id="Flow_034b9rk_label" transform="translate(1461 1040)"><text lineHeight="1.2" class="djs-label" style="font-family: Arial, sans-serif; font-size: 11px; font-weight: normal; fill: black;"><tspan x="6.63232421875" y="9.899999999999999">Counterparty</tspan><tspan x="0" y="23.099999999999998">restriction is set</tspan></text></g><g class="djs-visual" id="Flow_1ecj5lz_label" transform="translate(1458 1296)"><text lineHeight="1.2" class="djs-label" style="font-family: Arial, sans-serif; font-size: 11px; font-weight: normal; fill: black;"><tspan x="0" y="9.899999999999999">Beneficiary is set</tspan><tspan x="2.6630859375" y="23.099999999999998">as Counterparty</tspan></text></g><g class="djs-visual" id="Association_1xql4mz" transform="translate(0 0)"><polyline points="325,1112 340,1100 " style="fill: none; stroke: black; stroke-width: 2px; stroke-dasharray: 0.5, 5; stroke-linecap: round; stroke-linejoin: round;"></polyline></g><g class="djs-visual" id="Association_0adypxz" transform="translate(0 0)"><polyline points="625,743 640,730 " style="fill: none; stroke: black; stroke-width: 2px; stroke-dasharray: 0.5, 5; stroke-linecap: round; stroke-linejoin: round;"></polyline></g><g class="djs-visual" id="Association_0yd4cl6" transform="translate(0 0)"><polyline points="925,748 950,730 " style="fill: none; stroke: black; stroke-width: 2px; stroke-dasharray: 0.5, 5; stroke-linecap: round; stroke-linejoin: round;"></polyline></g><g class="djs-visual" id="Association_0d037uu" transform="translate(0 0)"><polyline points="1224,1562 1260,1542 " style="fill: none; stroke: black; stroke-width: 2px; stroke-dasharray: 0.5, 5; stroke-linecap: round; stroke-linejoin: round;"></polyline></g><g class="djs-visual" id="Association_0sfsg9u" transform="translate(0 0)"><polyline points="625,1119 650,1110 " style="fill: none; stroke: black; stroke-width: 2px; stroke-dasharray: 0.5, 5; stroke-linecap: round; stroke-linejoin: round;"></polyline></g><g class="djs-visual" id="Association_19cvwvx" transform="translate(0 0)"><polyline points="1225,892 1250,886 " style="fill: none; stroke: black; stroke-width: 2px; stroke-dasharray: 0.5, 5; stroke-linecap: round; stroke-linejoin: round;"></polyline></g></g><g><rect class="viewport" x="-1670.2530487804877" y="121.1310975609756" width="5289.634146341463" height="2012.1951219512193"></rect></g></svg>