<svg width="100%" height="100%" viewBox="-50, -223, 1835, 2141"><g><g class="djs-visual" id="Flow_1vhxm45" transform="translate(0 0)"><path d="m  585,1700L1090,1700 L1090,1000 L805,1000 " style="fill: none; stroke-width: 2px; stroke: black; stroke-linejoin: round; marker-end: url(&quot;#sequenceflow-end-white-black-69q8jfm2wnveubq87uvx2vxf5&quot;);"></path></g><g class="djs-visual" id="Flow_0fbfex2" transform="translate(0 0)"><path d="m  780,1520L780,1582 " style="fill: none; stroke-width: 2px; stroke: black; stroke-linejoin: round; marker-end: url(&quot;#sequenceflow-end-white-black-69q8jfm2wnveubq87uvx2vxf5&quot;);"></path></g><g class="djs-visual" id="Flow_0t0k84a" transform="translate(0 0)"><path d="m  780,1350L780,1420 " style="fill: none; stroke-width: 2px; stroke: black; stroke-linejoin: round; marker-end: url(&quot;#sequenceflow-end-white-black-69q8jfm2wnveubq87uvx2vxf5&quot;);"></path></g><g class="djs-visual" id="Flow_0fl4f2s" transform="translate(0 0)"><path d="m  780,1180L780,1250 " style="fill: none; stroke-width: 2px; stroke: black; stroke-linejoin: round; marker-end: url(&quot;#sequenceflow-end-white-black-69q8jfm2wnveubq87uvx2vxf5&quot;);"></path></g><g class="djs-visual" id="Flow_0jsv3vo" transform="translate(0 0)"><path d="m  780,1025L780,1080 " style="fill: none; stroke-width: 2px; stroke: black; stroke-linejoin: round; marker-end: url(&quot;#sequenceflow-end-white-black-69q8jfm2wnveubq87uvx2vxf5&quot;);"></path></g><g class="djs-visual" id="Flow_0oe0rcd" transform="translate(0 0)"><path d="m  780,930L780,975 " style="fill: none; stroke-width: 2px; stroke: black; stroke-linejoin: round; marker-end: url(&quot;#sequenceflow-end-white-black-69q8jfm2wnveubq87uvx2vxf5&quot;);"></path></g><g class="djs-visual" id="Flow_0fk1ep6" transform="translate(0 0)"><path d="m  245,740L780,740 L780,830 " style="fill: none; stroke-width: 2px; stroke: black; stroke-linejoin: round; marker-end: url(&quot;#sequenceflow-end-white-black-69q8jfm2wnveubq87uvx2vxf5&quot;);"></path></g><g class="djs-visual" id="Flow_07tlawh" transform="translate(0 0)"><path d="m  560,1725L560,1792 " style="fill: none; stroke-width: 2px; stroke: black; stroke-linejoin: round; marker-end: url(&quot;#sequenceflow-end-white-black-69q8jfm2wnveubq87uvx2vxf5&quot;);"></path></g><g class="djs-visual" id="Flow_1a29r8g" transform="translate(0 0)"><path d="m  560,1610L560,1675 " style="fill: none; stroke-width: 2px; stroke: black; stroke-linejoin: round; marker-end: url(&quot;#sequenceflow-end-white-black-69q8jfm2wnveubq87uvx2vxf5&quot;);"></path></g><g class="djs-visual" id="Flow_0xozxxu" transform="translate(0 0)"><path d="m  560,1440L560,1510 " style="fill: none; stroke-width: 2px; stroke: black; stroke-linejoin: round; marker-end: url(&quot;#sequenceflow-end-white-black-69q8jfm2wnveubq87uvx2vxf5&quot;);"></path></g><g class="djs-visual" id="Flow_04i8cyz" transform="translate(0 0)"><path d="m  405,1260L560,1260 L560,1340 " style="fill: none; stroke-width: 2px; stroke: black; stroke-linejoin: round; marker-end: url(&quot;#sequenceflow-end-white-black-69q8jfm2wnveubq87uvx2vxf5&quot;);"></path></g><g class="djs-visual" id="Flow_120izwh" transform="translate(0 0)"><path d="m  220,1440L220,1502 " style="fill: none; stroke-width: 2px; stroke: black; stroke-linejoin: round; marker-end: url(&quot;#sequenceflow-end-white-black-69q8jfm2wnveubq87uvx2vxf5&quot;);"></path></g><g class="djs-visual" id="Flow_097zvik" transform="translate(0 0)"><path d="m  355,1260L220,1260 L220,1340 " style="fill: none; stroke-width: 2px; stroke: black; stroke-linejoin: round; marker-end: url(&quot;#sequenceflow-end-white-black-69q8jfm2wnveubq87uvx2vxf5&quot;);"></path></g><g class="djs-visual" id="Flow_08vef2h" transform="translate(0 0)"><path d="m  380,1180L380,1235 " style="fill: none; stroke-width: 2px; stroke: black; stroke-linejoin: round; marker-end: url(&quot;#sequenceflow-end-white-black-69q8jfm2wnveubq87uvx2vxf5&quot;);"></path></g><g class="djs-visual" id="Flow_164gvrv" transform="translate(0 0)"><path d="m  380,1045L380,1080 " style="fill: none; stroke-width: 2px; stroke: black; stroke-linejoin: round; marker-end: url(&quot;#sequenceflow-end-white-black-69q8jfm2wnveubq87uvx2vxf5&quot;);"></path></g><g class="djs-visual" id="Flow_0mpsrpb" transform="translate(0 0)"><path d="m  480,968L480,1020 L405,1020 " style="fill: none; stroke-width: 2px; stroke: black; stroke-linejoin: round; marker-end: url(&quot;#sequenceflow-end-white-black-69q8jfm2wnveubq87uvx2vxf5&quot;);"></path></g><g class="djs-visual" id="Flow_1c9ir4v" transform="translate(0 0)"><path d="m  245,740L380,740 L380,995 " style="fill: none; stroke-width: 2px; stroke: black; stroke-linejoin: round; marker-end: url(&quot;#sequenceflow-end-white-black-69q8jfm2wnveubq87uvx2vxf5&quot;);"></path></g><g class="djs-visual" id="Flow_1igi66x" transform="translate(0 0)"><path d="m  220,765L220,840 L60,840 L60,480 L195,480 " style="fill: none; stroke-width: 2px; stroke: black; stroke-linejoin: round; marker-end: url(&quot;#sequenceflow-end-white-black-69q8jfm2wnveubq87uvx2vxf5&quot;);"></path></g><g class="djs-visual" id="Flow_0r9mwjz" transform="translate(0 0)"><path d="m  220,660L220,715 " style="fill: none; stroke-width: 2px; stroke: black; stroke-linejoin: round; marker-end: url(&quot;#sequenceflow-end-white-black-69q8jfm2wnveubq87uvx2vxf5&quot;);"></path></g><g class="djs-visual" id="Flow_1uqnvey" transform="translate(0 0)"><path d="m  220,505L220,560 " style="fill: none; stroke-width: 2px; stroke: black; stroke-linejoin: round; marker-end: url(&quot;#sequenceflow-end-white-black-69q8jfm2wnveubq87uvx2vxf5&quot;);"></path></g><g class="djs-visual" id="Flow_16kmq63" transform="translate(0 0)"><path d="m  220,390L220,455 " style="fill: none; stroke-width: 2px; stroke: black; stroke-linejoin: round; marker-end: url(&quot;#sequenceflow-end-white-black-69q8jfm2wnveubq87uvx2vxf5&quot;);"></path></g><g class="djs-visual" id="Flow_1cdx2b4" transform="translate(0 0)"><path d="m  220,220L220,290 " style="fill: none; stroke-width: 2px; stroke: black; stroke-linejoin: round; marker-end: url(&quot;#sequenceflow-end-white-black-69q8jfm2wnveubq87uvx2vxf5&quot;);"></path></g><g class="djs-visual" id="Flow_107j519" transform="translate(0 0)"><path d="m  220,55L220,120 " style="fill: none; stroke-width: 2px; stroke: black; stroke-linejoin: round; marker-end: url(&quot;#sequenceflow-end-white-black-69q8jfm2wnveubq87uvx2vxf5&quot;);"></path></g><g class="djs-visual" id="Flow_0lk6ihk" transform="translate(0 0)"><path d="m  380,-52L380,30 L245,30 " style="fill: none; stroke-width: 2px; stroke: black; stroke-linejoin: round; marker-end: url(&quot;#sequenceflow-end-white-black-69q8jfm2wnveubq87uvx2vxf5&quot;);"></path></g><g class="djs-visual" id="Flow_0qdd7wy" transform="translate(0 0)"><path d="m  220,-52L220,5 " style="fill: none; stroke-width: 2px; stroke: black; stroke-linejoin: round; marker-end: url(&quot;#sequenceflow-end-white-black-69q8jfm2wnveubq87uvx2vxf5&quot;);"></path></g><g class="djs-visual" id="StartEvent_1bm324f" transform="translate(202 -88)"><circle cx="18" cy="18" r="18" style="stroke: black; stroke-width: 2px; fill: white; fill-opacity: 0.95;"></circle></g><g class="djs-visual" id="StartEvent_1bm324f_label" transform="translate(186 -167)"><text lineHeight="1.2" class="djs-label" style="font-family: Arial, sans-serif; font-size: 11px; font-weight: normal; fill: black;"><tspan x="0" y="9.899999999999999">Disbursement </tspan><tspan x="9.018310546875" y="23.099999999999998">completed</tspan></text></g><g class="djs-visual" id="Gateway_1vuuhgg" transform="translate(195 5)"><polygon points="25,0 50,25 25,50 0,25" style="stroke: black; stroke-width: 2px; fill: white; fill-opacity: 0.95;"></polygon><path d="m 16,15 7.42857142857143,9.714285714285715 -7.42857142857143,9.714285714285715 3.428571428571429,0 5.714285714285715,-7.464228571428572 5.714285714285715,7.464228571428572 3.428571428571429,0 -7.42857142857143,-9.714285714285715 7.42857142857143,-9.714285714285715 -3.428571428571429,0 -5.714285714285715,7.464228571428572 -5.714285714285715,-7.464228571428572 -3.428571428571429,0 z" style="fill: black; stroke-width: 1px; stroke: black;"></path></g><g class="djs-visual" id="Event_0wesp2z" transform="translate(362 -88)"><circle cx="18" cy="18" r="18" style="stroke: black; stroke-width: 2px; fill: white; fill-opacity: 0.95;"></circle></g><g class="djs-visual" id="Event_0wesp2z_label" transform="translate(346 -167)"><text lineHeight="1.2" class="djs-label" style="font-family: Arial, sans-serif; font-size: 11px; font-weight: normal; fill: black;"><tspan x="0" y="9.899999999999999">Disbursement </tspan><tspan x="9.018310546875" y="23.099999999999998">completed</tspan></text></g><g class="djs-visual" id="Activity_1ls45rw" transform="translate(155 120)"><rect x="0" y="0" width="130" height="100" rx="10" ry="10" style="stroke: black; stroke-width: 2px; fill: white; fill-opacity: 0.95;"></rect><text lineHeight="1.2" class="djs-label" style="font-family: Arial, sans-serif; font-size: 12px; font-weight: normal; fill: black;"><tspan x="10.3095703125" y="53.599999999999994">Declare Actual Profit</tspan></text></g><g class="djs-visual" id="Activity_058nsno" transform="translate(155 290)"><rect x="0" y="0" width="130" height="100" rx="10" ry="10" style="stroke: black; stroke-width: 2px; fill: white; fill-opacity: 0.95;"></rect><text lineHeight="1.2" class="djs-label" style="font-family: Arial, sans-serif; font-size: 12px; font-weight: normal; fill: black;"><tspan x="24.1484375" y="46.4">Authorise Profit </tspan><tspan x="34.48828125" y="60.8">Declaration</tspan></text></g><g class="djs-visual" id="Gateway_127nq98" transform="translate(195 455)"><polygon points="25,0 50,25 25,50 0,25" style="stroke: black; stroke-width: 2px; fill: white; fill-opacity: 0.95;"></polygon><path d="m 16,15 7.42857142857143,9.714285714285715 -7.42857142857143,9.714285714285715 3.428571428571429,0 5.714285714285715,-7.464228571428572 5.714285714285715,7.464228571428572 3.428571428571429,0 -7.42857142857143,-9.714285714285715 7.42857142857143,-9.714285714285715 -3.428571428571429,0 -5.714285714285715,7.464228571428572 -5.714285714285715,-7.464228571428572 -3.428571428571429,0 z" style="fill: black; stroke-width: 1px; stroke: black;"></path></g><g class="djs-visual" id="Activity_0mhj1rh" transform="translate(155 560)"><rect x="0" y="0" width="130" height="100" rx="10" ry="10" style="stroke: black; stroke-width: 2px; fill: white; fill-opacity: 0.95;"></rect><text lineHeight="1.2" class="djs-label" style="font-family: Arial, sans-serif; font-size: 12px; font-weight: normal; fill: black;"><tspan x="31.9892578125" y="39.2">Check Profit </tspan><tspan x="7.8076171875" y="53.6">Declaration collection</tspan><tspan x="53.1591796875" y="68">date</tspan></text></g><g class="djs-visual" id="Gateway_125iw2l" transform="translate(195 715)"><polygon points="25,0 50,25 25,50 0,25" style="stroke: black; stroke-width: 2px; fill: white; fill-opacity: 0.95;"></polygon><path d="m 16,15 7.42857142857143,9.714285714285715 -7.42857142857143,9.714285714285715 3.428571428571429,0 5.714285714285715,-7.464228571428572 5.714285714285715,7.464228571428572 3.428571428571429,0 -7.42857142857143,-9.714285714285715 7.42857142857143,-9.714285714285715 -3.428571428571429,0 -5.714285714285715,7.464228571428572 -5.714285714285715,-7.464228571428572 -3.428571428571429,0 z" style="fill: black; stroke-width: 1px; stroke: black;"></path></g><g class="djs-visual" id="Gateway_00e1tc7" transform="translate(355 995)"><polygon points="25,0 50,25 25,50 0,25" style="stroke: black; stroke-width: 2px; fill: white; fill-opacity: 0.95;"></polygon><circle cx="25" cy="25" r="13" style="stroke: black; stroke-width: 2.5px; fill: white;"></circle></g><g class="djs-visual" id="Event_0raydqw" transform="translate(462 932)"><circle cx="18" cy="18" r="18" style="stroke: black; stroke-width: 2px; fill: white; fill-opacity: 0.95;"></circle></g><g class="djs-visual" id="Event_0raydqw_label" transform="translate(439 863)"><text lineHeight="1.2" class="djs-label" style="font-family: Arial, sans-serif; font-size: 11px; font-weight: normal; fill: black;"><tspan x="14.6796875" y="9.899999999999999">Scheduled </tspan><tspan x="0.9296875" y="23.099999999999998">repayment to be </tspan><tspan x="0" y="36.3">executed on due </tspan><tspan x="29.96875" y="49.5">date</tspan></text></g><g class="djs-visual" id="Activity_0g00e55" transform="translate(315 1080)"><rect x="0" y="0" width="130" height="100" rx="10" ry="10" style="stroke: black; stroke-width: 2px; fill: white; fill-opacity: 0.95;"></rect><text lineHeight="1.2" class="djs-label" style="font-family: Arial, sans-serif; font-size: 12px; font-weight: normal; fill: black;"><tspan x="24.978515625" y="46.4">Check account </tspan><tspan x="43.8193359375" y="60.8">balance</tspan></text></g><g class="djs-visual" id="Gateway_1y9vato" transform="translate(355 1235)"><polygon points="25,0 50,25 25,50 0,25" style="stroke: black; stroke-width: 2px; fill: white; fill-opacity: 0.95;"></polygon><path d="m 16,15 7.42857142857143,9.714285714285715 -7.42857142857143,9.714285714285715 3.428571428571429,0 5.714285714285715,-7.464228571428572 5.714285714285715,7.464228571428572 3.428571428571429,0 -7.42857142857143,-9.714285714285715 7.42857142857143,-9.714285714285715 -3.428571428571429,0 -5.714285714285715,7.464228571428572 -5.714285714285715,-7.464228571428572 -3.428571428571429,0 z" style="fill: black; stroke-width: 1px; stroke: black;"></path></g><g class="djs-visual" id="Activity_0vxie0s" transform="translate(155 1340)"><rect x="0" y="0" width="130" height="100" rx="10" ry="10" style="stroke: black; stroke-width: 2px; fill: white; fill-opacity: 0.95;"></rect><text lineHeight="1.2" class="djs-label" style="font-family: Arial, sans-serif; font-size: 12px; font-weight: normal; fill: black;"><tspan x="9.1318359375" y="46.4">Generate accounting </tspan><tspan x="46.984375" y="60.8">entries</tspan></text></g><g class="djs-visual" id="Event_1ochw4a" transform="translate(202 1502)"><circle cx="18" cy="18" r="18" style="stroke: black; stroke-width: 4px; fill: white; fill-opacity: 0.95;"></circle></g><g class="djs-visual" id="Event_1ochw4a_label" transform="translate(179 1545)"><text lineHeight="1.2" class="djs-label" style="font-family: Arial, sans-serif; font-size: 11px; font-weight: normal; fill: black;"><tspan x="0" y="9.899999999999999">Profit declaration </tspan><tspan x="15.890625" y="23.099999999999998">completed</tspan></text></g><g class="djs-visual" id="Activity_0z0r4xu" transform="translate(495 1340)"><rect x="0" y="0" width="130" height="100" rx="10" ry="10" style="stroke: black; stroke-width: 2px; fill: white; fill-opacity: 0.95;"></rect><text lineHeight="1.2" class="djs-label" style="font-family: Arial, sans-serif; font-size: 12px; font-weight: normal; fill: black;"><tspan x="5.296875" y="53.599999999999994">Capture past due (AA)</tspan></text></g><g class="djs-visual" id="Activity_1qxwzht" transform="translate(495 1510)"><rect x="0" y="0" width="130" height="100" rx="10" ry="10" style="stroke: black; stroke-width: 2px; fill: white; fill-opacity: 0.95;"></rect><text lineHeight="1.2" class="djs-label" style="font-family: Arial, sans-serif; font-size: 12px; font-weight: normal; fill: black;"><tspan x="13.1337890625" y="53.599999999999994">Decide on past due</tspan></text></g><g class="djs-visual" id="Gateway_0td69b0" transform="translate(535 1675)"><polygon points="25,0 50,25 25,50 0,25" style="stroke: black; stroke-width: 2px; fill: white; fill-opacity: 0.95;"></polygon><path d="m 16,15 7.42857142857143,9.714285714285715 -7.42857142857143,9.714285714285715 3.428571428571429,0 5.714285714285715,-7.464228571428572 5.714285714285715,7.464228571428572 3.428571428571429,0 -7.42857142857143,-9.714285714285715 7.42857142857143,-9.714285714285715 -3.428571428571429,0 -5.714285714285715,7.464228571428572 -5.714285714285715,-7.464228571428572 -3.428571428571429,0 z" style="fill: black; stroke-width: 1px; stroke: black;"></path></g><g class="djs-visual" id="Event_1bbwq7q" transform="translate(542 1792)"><circle cx="18" cy="18" r="18" style="stroke: black; stroke-width: 4px; fill: white; fill-opacity: 0.95;"></circle></g><g class="djs-visual" id="Event_1bbwq7q_label" transform="translate(525 1835)"><text lineHeight="1.2" class="djs-label" style="font-family: Arial, sans-serif; font-size: 11px; font-weight: normal; fill: black;"><tspan x="0" y="9.899999999999999">Past due to be </tspan><tspan x="11.76171875" y="23.099999999999998">written off</tspan></text></g><g class="djs-visual" id="Activity_1eht3ss" transform="translate(715 830)"><rect x="0" y="0" width="130" height="100" rx="10" ry="10" style="stroke: black; stroke-width: 2px; fill: white; fill-opacity: 0.95;"></rect><text lineHeight="1.2" class="djs-label" style="font-family: Arial, sans-serif; font-size: 12px; font-weight: normal; fill: black;"><tspan x="9.1318359375" y="46.4">Generate accounting </tspan><tspan x="46.984375" y="60.8">entries</tspan></text></g><g class="djs-visual" id="Gateway_1210yna" transform="translate(755 975)"><polygon points="25,0 50,25 25,50 0,25" style="stroke: black; stroke-width: 2px; fill: white; fill-opacity: 0.95;"></polygon><path d="m 16,15 7.42857142857143,9.714285714285715 -7.42857142857143,9.714285714285715 3.428571428571429,0 5.714285714285715,-7.464228571428572 5.714285714285715,7.464228571428572 3.428571428571429,0 -7.42857142857143,-9.714285714285715 7.42857142857143,-9.714285714285715 -3.428571428571429,0 -5.714285714285715,7.464228571428572 -5.714285714285715,-7.464228571428572 -3.428571428571429,0 z" style="fill: black; stroke-width: 1px; stroke: black;"></path></g><g class="djs-visual" id="Activity_15fain5" transform="translate(715 1080)"><rect x="0" y="0" width="130" height="100" rx="10" ry="10" style="stroke: black; stroke-width: 2px; fill: white; fill-opacity: 0.95;"></rect><text lineHeight="1.2" class="djs-label" style="font-family: Arial, sans-serif; font-size: 12px; font-weight: normal; fill: black;"><tspan x="13.3095703125" y="53.599999999999994">Collect Actual profit</tspan></text></g><g class="djs-visual" id="Activity_1oijfl3" transform="translate(715 1250)"><rect x="0" y="0" width="130" height="100" rx="10" ry="10" style="stroke: black; stroke-width: 2px; fill: white; fill-opacity: 0.95;"></rect><text lineHeight="1.2" class="djs-label" style="font-family: Arial, sans-serif; font-size: 12px; font-weight: normal; fill: black;"><tspan x="24.8134765625" y="46.4">Authorise profit </tspan><tspan x="39.8232421875" y="60.8">collection</tspan></text></g><g class="djs-visual" id="Activity_0ljqpvm" transform="translate(715 1420)"><rect x="0" y="0" width="130" height="100" rx="10" ry="10" style="stroke: black; stroke-width: 2px; fill: white; fill-opacity: 0.95;"></rect><text lineHeight="1.2" class="djs-label" style="font-family: Arial, sans-serif; font-size: 12px; font-weight: normal; fill: black;"><tspan x="9.1318359375" y="46.4">Generate accounting </tspan><tspan x="46.984375" y="60.8">entries</tspan></text></g><g class="djs-visual" id="Event_1i8v5d2" transform="translate(762 1582)"><circle cx="18" cy="18" r="18" style="stroke: black; stroke-width: 4px; fill: white; fill-opacity: 0.95;"></circle></g><g class="djs-visual" id="Event_1i8v5d2_label" transform="translate(739 1625)"><text lineHeight="1.2" class="djs-label" style="font-family: Arial, sans-serif; font-size: 11px; font-weight: normal; fill: black;"><tspan x="0" y="9.899999999999999">Profit declaration </tspan><tspan x="15.890625" y="23.099999999999998">completed</tspan></text></g><g class="djs-visual" id="TextAnnotation_0z1m0om" transform="translate(340 49)"><rect x="0" y="0" width="212" height="71" rx="0" ry="0" style="stroke: none; stroke-width: 2px; fill: none;"></rect><path d="m 0, 0 m 10,0 l -10,0 l 0,71 l 10,0" style="fill: none; stroke-width: 2px; stroke: black;"></path><text lineHeight="1.2" class="djs-label" style="font-family: Arial, sans-serif; font-size: 12px; font-weight: normal; fill: black;"><tspan x="5" y="15.799999999999999">- Profit declaration currency</tspan><tspan x="5" y="30.199999999999996">- Profit declaration amount</tspan><tspan x="5" y="44.599999999999994">- Payment schedule details</tspan><tspan x="5" y="58.99999999999999">- Profit declaration collection date</tspan></text></g><g class="djs-visual" id="TextAnnotation_1mfqvdl" transform="translate(340 1300)"><rect x="0" y="0" width="120" height="40" rx="0" ry="0" style="stroke: none; stroke-width: 2px; fill: none;"></rect><path d="m 0, 0 m 10,0 l -10,0 l 0,40 l 10,0" style="fill: none; stroke-width: 2px; stroke: black;"></path><text lineHeight="1.2" class="djs-label" style="font-family: Arial, sans-serif; font-size: 12px; font-weight: normal; fill: black;"><tspan x="5" y="15.799999999999999">Dr Customer</tspan><tspan x="5" y="30.199999999999996">Cr Profit and Loss</tspan></text></g><g class="djs-visual" id="TextAnnotation_02co8yc" transform="translate(890 780)"><rect x="0" y="0" width="120" height="41" rx="0" ry="0" style="stroke: none; stroke-width: 2px; fill: none;"></rect><path d="m 0, 0 m 10,0 l -10,0 l 0,41 l 10,0" style="fill: none; stroke-width: 2px; stroke: black;"></path><text lineHeight="1.2" class="djs-label" style="font-family: Arial, sans-serif; font-size: 12px; font-weight: normal; fill: black;"><tspan x="5" y="15.799999999999999">Dr Due Bill</tspan><tspan x="5" y="30.199999999999996">Cr Profit and Loss</tspan></text></g><g class="djs-visual" id="TextAnnotation_1kiprku" transform="translate(890 1020)"><rect x="0" y="0" width="170" height="70" rx="0" ry="0" style="stroke: none; stroke-width: 2px; fill: none;"></rect><path d="m 0, 0 m 10,0 l -10,0 l 0,70 l 10,0" style="fill: none; stroke-width: 2px; stroke: black;"></path><text lineHeight="1.2" class="djs-label" style="font-family: Arial, sans-serif; font-size: 12px; font-weight: normal; fill: black;"><tspan x="5" y="15.799999999999999">Declaring details</tspan><tspan x="5" y="30.199999999999996">- Customer id</tspan><tspan x="5" y="44.599999999999994">- Arrangement Reference</tspan><tspan x="5" y="58.99999999999999">- Actual Profit Amount</tspan></text></g><g class="djs-visual" id="TextAnnotation_09dkagv" transform="translate(890 1370)"><rect x="0" y="0" width="90" height="41" rx="0" ry="0" style="stroke: none; stroke-width: 2px; fill: none;"></rect><path d="m 0, 0 m 10,0 l -10,0 l 0,41 l 10,0" style="fill: none; stroke-width: 2px; stroke: black;"></path><text lineHeight="1.2" class="djs-label" style="font-family: Arial, sans-serif; font-size: 12px; font-weight: normal; fill: black;"><tspan x="5" y="15.799999999999999">Dr Customer</tspan><tspan x="5" y="30.199999999999996">Cr Due bill</tspan></text></g><g class="djs-visual" id="TextAnnotation_1u7h3i7" transform="translate(552 850)"><rect x="0" y="0" width="138" height="98" rx="0" ry="0" style="stroke: none; stroke-width: 2px; fill: none;"></rect><path d="m 0, 0 m 10,0 l -10,0 l 0,98 l 10,0" style="fill: none; stroke-width: 2px; stroke: black;"></path><text lineHeight="1.2" class="djs-label" style="font-family: Arial, sans-serif; font-size: 12px; font-weight: normal; fill: black;"><tspan x="5" y="15.799999999999999">On scheduled due Date </tspan><tspan x="5" y="30.199999999999996">for repayment, system </tspan><tspan x="5" y="44.599999999999994">checks the account </tspan><tspan x="5" y="58.99999999999999">transfer instructions </tspan><tspan x="5" y="73.39999999999999">and executes account </tspan><tspan x="5" y="87.79999999999998">transfer</tspan></text></g><g class="djs-visual" id="Flow_1igi66x_label" transform="translate(224 779)"><text lineHeight="1.2" class="djs-label" style="font-family: Arial, sans-serif; font-size: 11px; font-weight: normal; fill: black;"><tspan x="3.0625" y="9.899999999999999">Profit Declaration </tspan><tspan x="0" y="23.099999999999998">collection date is a </tspan><tspan x="19.453125" y="36.3">future date</tspan></text></g><g class="djs-visual" id="Flow_1c9ir4v_label" transform="translate(387 776)"><text lineHeight="1.2" class="djs-label" style="font-family: Arial, sans-serif; font-size: 11px; font-weight: normal; fill: black;"><tspan x="0" y="9.899999999999999">Profit Declaration </tspan><tspan x="1.275634765625" y="23.099999999999998">collection date is </tspan><tspan x="27.760986328125" y="36.3">Today</tspan></text></g><g class="djs-visual" id="Flow_097zvik_label" transform="translate(226 1283)"><text lineHeight="1.2" class="djs-label" style="font-family: Arial, sans-serif; font-size: 11px; font-weight: normal; fill: black;"><tspan x="0" y="9.899999999999999">Sufficient balance</tspan></text></g><g class="djs-visual" id="Flow_04i8cyz_label" transform="translate(547 1276)"><text lineHeight="1.2" class="djs-label" style="font-family: Arial, sans-serif; font-size: 11px; font-weight: normal; fill: black;"><tspan x="0" y="9.899999999999999">Insufficient balance</tspan></text></g><g class="djs-visual" id="Flow_0xozxxu_label" transform="translate(565 1463)"><text lineHeight="1.2" class="djs-label" style="font-family: Arial, sans-serif; font-size: 11px; font-weight: normal; fill: black;"><tspan x="0" y="9.899999999999999">Past due captured</tspan></text></g><g class="djs-visual" id="Flow_0fk1ep6_label" transform="translate(787 770)"><text lineHeight="1.2" class="djs-label" style="font-family: Arial, sans-serif; font-size: 11px; font-weight: normal; fill: black;"><tspan x="0" y="9.899999999999999">Profit Declaration </tspan><tspan x="1.275634765625" y="23.099999999999998">collection date is </tspan><tspan x="16.8046875" y="36.3">backdated</tspan></text></g><g class="djs-visual" id="Flow_1vhxm45_label" transform="translate(622 1666)"><text lineHeight="1.2" class="djs-label" style="font-family: Arial, sans-serif; font-size: 11px; font-weight: normal; fill: black;"><tspan x="0" y="9.899999999999999">Past due to be </tspan><tspan x="19.265625" y="23.099999999999998">settled</tspan></text></g><g class="djs-visual" id="Association_0m56f2m" transform="translate(0 0)"><polyline points="284,127 340,91 " style="fill: none; stroke: black; stroke-width: 2px; stroke-dasharray: 0.5, 5; stroke-linecap: round; stroke-linejoin: round;"></polyline></g><g class="djs-visual" id="Association_1j533lc" transform="translate(0 0)"><polyline points="284,1347 340,1311 " style="fill: none; stroke: black; stroke-width: 2px; stroke-dasharray: 0.5, 5; stroke-linecap: round; stroke-linejoin: round;"></polyline></g><g class="djs-visual" id="Association_1sg8kxf" transform="translate(0 0)"><polyline points="844,835 890,801 " style="fill: none; stroke: black; stroke-width: 2px; stroke-dasharray: 0.5, 5; stroke-linecap: round; stroke-linejoin: round;"></polyline></g><g class="djs-visual" id="Association_0ng4bxu" transform="translate(0 0)"><polyline points="843,1084 890,1049 " style="fill: none; stroke: black; stroke-width: 2px; stroke-dasharray: 0.5, 5; stroke-linecap: round; stroke-linejoin: round;"></polyline></g><g class="djs-visual" id="Association_0k7u4ci" transform="translate(0 0)"><polyline points="843,1425 890,1391 " style="fill: none; stroke: black; stroke-width: 2px; stroke-dasharray: 0.5, 5; stroke-linecap: round; stroke-linejoin: round;"></polyline></g><g class="djs-visual" id="Association_19z1veb" transform="translate(0 0)"><polyline points="494,939 550,899 " style="fill: none; stroke: black; stroke-width: 2px; stroke-dasharray: 0.5, 5; stroke-linecap: round; stroke-linejoin: round;"></polyline></g></g><g><rect class="viewport" x="-2110.0990712074304" y="-173.19814241486068" width="5371.517027863777" height="2043.343653250774"></rect></g></svg>