<svg width="100%" height="100%" viewBox="-50, -273, 1835, 1707"><g><g class="djs-visual" id="Flow_1cdhmfq" transform="translate(0 0)"><path d="m  120,-5L120,40 " style="fill: none; stroke-width: 2px; stroke: black; stroke-linejoin: round; marker-end: url(&quot;#sequenceflow-end-white-black-bbe09sg2ya8zpccis9364cpug&quot;);"></path></g><g class="djs-visual" id="Flow_1jlslgn" transform="translate(0 0)"><path d="m  120,1265L120,1292 " style="fill: none; stroke-width: 2px; stroke: black; stroke-linejoin: round; marker-end: url(&quot;#sequenceflow-end-white-black-bbe09sg2ya8zpccis9364cpug&quot;);"></path></g><g class="djs-visual" id="Flow_08y97m4" transform="translate(0 0)"><path d="m  120,-102L120,-55 " style="fill: none; stroke-width: 2px; stroke: black; stroke-linejoin: round; marker-end: url(&quot;#sequenceflow-end-white-black-bbe09sg2ya8zpccis9364cpug&quot;);"></path></g><g class="djs-visual" id="Flow_00ashpa" transform="translate(0 0)"><path d="m  310,-102L310,-30 L145,-30 " style="fill: none; stroke-width: 2px; stroke: black; stroke-linejoin: round; marker-end: url(&quot;#sequenceflow-end-white-black-bbe09sg2ya8zpccis9364cpug&quot;);"></path></g><g class="djs-visual" id="Flow_1t8o6qy" transform="translate(0 0)"><path d="m  610,420L610,1240 L145,1240 " style="fill: none; stroke-width: 2px; stroke: black; stroke-linejoin: round; marker-end: url(&quot;#sequenceflow-end-white-black-bbe09sg2ya8zpccis9364cpug&quot;);"></path></g><g class="djs-visual" id="Flow_0qou37x" transform="translate(0 0)"><path d="m  120,1150L120,1215 " style="fill: none; stroke-width: 2px; stroke: black; stroke-linejoin: round; marker-end: url(&quot;#sequenceflow-end-white-black-bbe09sg2ya8zpccis9364cpug&quot;);"></path></g><g class="djs-visual" id="Flow_0r2o62g" transform="translate(0 0)"><path d="m  120,990L120,1050 " style="fill: none; stroke-width: 2px; stroke: black; stroke-linejoin: round; marker-end: url(&quot;#sequenceflow-end-white-black-bbe09sg2ya8zpccis9364cpug&quot;);"></path></g><g class="djs-visual" id="Flow_0i26sw3" transform="translate(0 0)"><path d="m  120,850L120,890 " style="fill: none; stroke-width: 2px; stroke: black; stroke-linejoin: round; marker-end: url(&quot;#sequenceflow-end-white-black-bbe09sg2ya8zpccis9364cpug&quot;);"></path></g><g class="djs-visual" id="Flow_1u8xbmt" transform="translate(0 0)"><path d="m  120,710L120,750 " style="fill: none; stroke-width: 2px; stroke: black; stroke-linejoin: round; marker-end: url(&quot;#sequenceflow-end-white-black-bbe09sg2ya8zpccis9364cpug&quot;);"></path></g><g class="djs-visual" id="Flow_1bjgjys" transform="translate(0 0)"><path d="m  120,560L120,610 " style="fill: none; stroke-width: 2px; stroke: black; stroke-linejoin: round; marker-end: url(&quot;#sequenceflow-end-white-black-bbe09sg2ya8zpccis9364cpug&quot;);"></path></g><g class="djs-visual" id="Flow_1380r82" transform="translate(0 0)"><path d="m  120,420L120,460 " style="fill: none; stroke-width: 2px; stroke: black; stroke-linejoin: round; marker-end: url(&quot;#sequenceflow-end-white-black-bbe09sg2ya8zpccis9364cpug&quot;);"></path></g><g class="djs-visual" id="Flow_0t5bu5z" transform="translate(0 0)"><path d="m  145,210L610,210 L610,320 " style="fill: none; stroke-width: 2px; stroke: black; stroke-linejoin: round; marker-end: url(&quot;#sequenceflow-end-white-black-bbe09sg2ya8zpccis9364cpug&quot;);"></path></g><g class="djs-visual" id="Flow_18i1t7u" transform="translate(0 0)"><path d="m  120,235L120,320 " style="fill: none; stroke-width: 2px; stroke: black; stroke-linejoin: round; marker-end: url(&quot;#sequenceflow-end-white-black-bbe09sg2ya8zpccis9364cpug&quot;);"></path></g><g class="djs-visual" id="Flow_1d913uk" transform="translate(0 0)"><path d="m  120,140L120,185 " style="fill: none; stroke-width: 2px; stroke: black; stroke-linejoin: round; marker-end: url(&quot;#sequenceflow-end-white-black-bbe09sg2ya8zpccis9364cpug&quot;);"></path></g><g class="djs-visual" id="StartEvent_1bm324f" transform="translate(102 -138)"><circle cx="18" cy="18" r="18" style="stroke: black; stroke-width: 2px; fill: white; fill-opacity: 0.95;"></circle></g><g class="djs-visual" id="StartEvent_1bm324f_label" transform="translate(71 -217)"><text lineHeight="1.2" class="djs-label" style="font-family: Arial, sans-serif; font-size: 11px; font-weight: normal; fill: black;"><tspan x="8.951904296875" y="9.899999999999999">Disbursement of </tspan><tspan x="0" y="23.099999999999998">Mudaraba Drawings </tspan><tspan x="11.139892578125" y="36.3">to be performed</tspan></text></g><g class="djs-visual" id="Event_1hqmknd" transform="translate(292 -138)"><circle cx="18" cy="18" r="18" style="stroke: black; stroke-width: 2px; fill: white; fill-opacity: 0.95;"></circle></g><g class="djs-visual" id="Event_1hqmknd_label" transform="translate(266 -200)"><text lineHeight="1.2" class="djs-label" style="font-family: Arial, sans-serif; font-size: 11px; font-weight: normal; fill: black;"><tspan x="0" y="9.899999999999999">Schedule date for </tspan><tspan x="10.294189453125" y="23.099999999999998">disbursement </tspan><tspan x="23.8994140625" y="36.3">reached</tspan></text></g><g class="djs-visual" id="Activity_1gwd7oi" transform="translate(55 40)"><rect x="0" y="0" width="130" height="100" rx="10" ry="10" style="stroke: black; stroke-width: 2px; fill: white; fill-opacity: 0.95;"></rect><text lineHeight="1.2" class="djs-label" style="font-family: Arial, sans-serif; font-size: 12px; font-weight: normal; fill: black;"><tspan x="23.3115234375" y="39.2">Check if payout </tspan><tspan x="29.984375" y="53.6">beneficiary is </tspan><tspan x="41.1533203125" y="68">available</tspan></text></g><g class="djs-visual" id="Gateway_1gvv3zz" transform="translate(95 185)"><polygon points="25,0 50,25 25,50 0,25" style="stroke: black; stroke-width: 2px; fill: white; fill-opacity: 0.95;"></polygon><path d="m 16,15 7.42857142857143,9.714285714285715 -7.42857142857143,9.714285714285715 3.428571428571429,0 5.714285714285715,-7.464228571428572 5.714285714285715,7.464228571428572 3.428571428571429,0 -7.42857142857143,-9.714285714285715 7.42857142857143,-9.714285714285715 -3.428571428571429,0 -5.714285714285715,7.464228571428572 -5.714285714285715,-7.464228571428572 -3.428571428571429,0 z" style="fill: black; stroke-width: 1px; stroke: black;"></path></g><g class="djs-visual" id="Activity_1sqm7ah" transform="translate(55 320)"><rect x="0" y="0" width="130" height="100" rx="10" ry="10" style="stroke: black; stroke-width: 2px; fill: white; fill-opacity: 0.95;"></rect><text lineHeight="1.2" class="djs-label" style="font-family: Arial, sans-serif; font-size: 12px; font-weight: normal; fill: black;"><tspan x="9.8037109375" y="46.4">Place transaction for</tspan><tspan x="7.3037109375" y="60.8">manual disbursement</tspan></text></g><g class="djs-visual" id="Activity_03fvdgp" transform="translate(545 320)"><rect x="0" y="0" width="130" height="100" rx="10" ry="10" style="stroke: black; stroke-width: 2px; fill: white; fill-opacity: 0.95;"></rect><text lineHeight="1.2" class="djs-label" style="font-family: Arial, sans-serif; font-size: 12px; font-weight: normal; fill: black;"><tspan x="14.1396484375" y="46.4">Disburse funds per </tspan><tspan x="40.8193359375" y="60.8">schedule</tspan></text></g><g class="djs-visual" id="Activity_0ydyl2y" transform="translate(55 460)"><rect x="0" y="0" width="130" height="100" rx="10" ry="10" style="stroke: black; stroke-width: 2px; fill: white; fill-opacity: 0.95;"></rect><text lineHeight="1.2" class="djs-label" style="font-family: Arial, sans-serif; font-size: 12px; font-weight: normal; fill: black;"><tspan x="27.146484375" y="53.599999999999994">Select finance</tspan></text></g><g class="djs-visual" id="Activity_0no0xaf" transform="translate(55 610)"><rect x="0" y="0" width="130" height="100" rx="10" ry="10" style="stroke: black; stroke-width: 2px; fill: white; fill-opacity: 0.95;"></rect><text lineHeight="1.2" class="djs-label" style="font-family: Arial, sans-serif; font-size: 12px; font-weight: normal; fill: black;"><tspan x="17.9765625" y="46.4">Capture Payment </tspan><tspan x="31.9765625" y="60.8">order details</tspan></text></g><g class="djs-visual" id="Activity_1gtxme7" transform="translate(55 750)"><rect x="0" y="0" width="130" height="100" rx="10" ry="10" style="stroke: black; stroke-width: 2px; fill: white; fill-opacity: 0.95;"></rect><text lineHeight="1.2" class="djs-label" style="font-family: Arial, sans-serif; font-size: 12px; font-weight: normal; fill: black;"><tspan x="14.474609375" y="46.4">Authorise Payment </tspan><tspan x="50.4912109375" y="60.8">order</tspan></text></g><g class="djs-visual" id="Activity_0lcqu20" transform="translate(55 890)"><rect x="0" y="0" width="130" height="100" rx="10" ry="10" style="stroke: black; stroke-width: 2px; fill: white; fill-opacity: 0.95;"></rect><text lineHeight="1.2" class="djs-label" style="font-family: Arial, sans-serif; font-size: 12px; font-weight: normal; fill: black;"><tspan x="21.3134765625" y="46.4">Create Payment </tspan><tspan x="49.1611328125" y="60.8">Order</tspan></text></g><g class="djs-visual" id="Activity_0f1ss0y" transform="translate(55 1050)"><rect x="0" y="0" width="130" height="100" rx="10" ry="10" style="stroke: black; stroke-width: 2px; fill: white; fill-opacity: 0.95;"></rect><text lineHeight="1.2" class="djs-label" style="font-family: Arial, sans-serif; font-size: 12px; font-weight: normal; fill: black;"><tspan x="9.466796875" y="39.2">Send Payment order </tspan><tspan x="15.97265625" y="53.6">details to payment </tspan><tspan x="45.9921875" y="68">system</tspan></text></g><g class="djs-visual" id="Gateway_07dwme5" transform="translate(95 1215)"><polygon points="25,0 50,25 25,50 0,25" style="stroke: black; stroke-width: 2px; fill: white; fill-opacity: 0.95;"></polygon><path d="m 16,15 7.42857142857143,9.714285714285715 -7.42857142857143,9.714285714285715 3.428571428571429,0 5.714285714285715,-7.464228571428572 5.714285714285715,7.464228571428572 3.428571428571429,0 -7.42857142857143,-9.714285714285715 7.42857142857143,-9.714285714285715 -3.428571428571429,0 -5.714285714285715,7.464228571428572 -5.714285714285715,-7.464228571428572 -3.428571428571429,0 z" style="fill: black; stroke-width: 1px; stroke: black;"></path></g><g class="djs-visual" id="Event_1mh05b7" transform="translate(102 1292)"><circle cx="18" cy="18" r="18" style="stroke: black; stroke-width: 4px; fill: white; fill-opacity: 0.95;"></circle></g><g class="djs-visual" id="Event_1mh05b7_label" transform="translate(74 1338)"><text lineHeight="1.2" class="djs-label" style="font-family: Arial, sans-serif; font-size: 11px; font-weight: normal; fill: black;"><tspan x="0" y="9.899999999999999">Mudaraba Drawing </tspan><tspan x="22.6171875" y="23.099999999999998">disbursed </tspan><tspan x="16.5703125" y="36.3">successfully</tspan></text></g><g class="djs-visual" id="Gateway_1nvy9u0" transform="translate(95 -55)"><polygon points="25,0 50,25 25,50 0,25" style="stroke: black; stroke-width: 2px; fill: white; fill-opacity: 0.95;"></polygon><path d="m 23,10 0,12.5 -12.5,0 0,5 12.5,0 0,12.5 5,0 0,-12.5 12.5,0 0,-5 -12.5,0 0,-12.5 -5,0 z" style="fill: black; stroke-width: 1px; stroke: black;"></path></g><g class="djs-visual" id="TextAnnotation_0gos8k6" transform="translate(220 40)"><rect x="0" y="0" width="180" height="30" rx="0" ry="0" style="stroke: none; stroke-width: 2px; fill: none;"></rect><path d="m 0, 0 m 10,0 l -10,0 l 0,30 l 10,0" style="fill: none; stroke-width: 2px; stroke: black;"></path><text lineHeight="1.2" class="djs-label" style="font-family: Arial, sans-serif; font-size: 12px; font-weight: normal; fill: black;"><tspan x="5" y="15.799999999999999">Set in AA.ARR.SETTLEMENT</tspan></text></g><g class="djs-visual" id="TextAnnotation_0rckr3o" transform="translate(710 320)"><rect x="0" y="0" width="150" height="40" rx="0" ry="0" style="stroke: none; stroke-width: 2px; fill: none;"></rect><path d="m 0, 0 m 10,0 l -10,0 l 0,40 l 10,0" style="fill: none; stroke-width: 2px; stroke: black;"></path><text lineHeight="1.2" class="djs-label" style="font-family: Arial, sans-serif; font-size: 12px; font-weight: normal; fill: black;"><tspan x="5" y="15.799999999999999">Dr Arrangement (finance)</tspan><tspan x="5" y="30.199999999999996">Cr Drawdown account</tspan></text></g><g class="djs-visual" id="TextAnnotation_0buxvkn" transform="translate(220 760)"><rect x="0" y="0" width="110" height="30" rx="0" ry="0" style="stroke: none; stroke-width: 2px; fill: none;"></rect><path d="m 0, 0 m 10,0 l -10,0 l 0,30 l 10,0" style="fill: none; stroke-width: 2px; stroke: black;"></path><text lineHeight="1.2" class="djs-label" style="font-family: Arial, sans-serif; font-size: 12px; font-weight: normal; fill: black;"><tspan x="5" y="15.799999999999999">Maker/ Checker</tspan></text></g><g class="djs-visual" id="TextAnnotation_1v55nvn" transform="translate(220 1040)"><rect x="0" y="0" width="380" height="70" rx="0" ry="0" style="stroke: none; stroke-width: 2px; fill: none;"></rect><path d="m 0, 0 m 10,0 l -10,0 l 0,70 l 10,0" style="fill: none; stroke-width: 2px; stroke: black;"></path><text lineHeight="1.2" class="djs-label" style="font-family: Arial, sans-serif; font-size: 12px; font-weight: normal; fill: black;"><tspan x="5" y="15.799999999999999">Disbursement will be through TPH/ External (integration framework)</tspan><tspan x="5" y="30.199999999999996">depending on parameter setup</tspan><tspan x="5" y="44.599999999999994">Dr Mudaraba drawings arrangement</tspan><tspan x="5" y="58.99999999999999">Cr Drawdown account</tspan></text></g><g class="djs-visual" id="Flow_18i1t7u_label" transform="translate(126 240)"><text lineHeight="1.2" class="djs-label" style="font-family: Arial, sans-serif; font-size: 11px; font-weight: normal; fill: black;"><tspan x="0" y="9.899999999999999">Payout beneficiary </tspan><tspan x="9.108154296875" y="23.099999999999998">is not available</tspan></text></g><g class="djs-visual" id="Flow_0t5bu5z_label" transform="translate(624 246)"><text lineHeight="1.2" class="djs-label" style="font-family: Arial, sans-serif; font-size: 11px; font-weight: normal; fill: black;"><tspan x="0" y="9.899999999999999">Payout beneficiary </tspan><tspan x="18.287841796875" y="23.099999999999998">is available</tspan></text></g><g class="djs-visual" id="Association_0macufc" transform="translate(0 0)"><polyline points="185,73 220,64 " style="fill: none; stroke: black; stroke-width: 2px; stroke-dasharray: 0.5, 5; stroke-linecap: round; stroke-linejoin: round;"></polyline></g><g class="djs-visual" id="Association_1oe7dd5" transform="translate(0 0)"><polyline points="675,358 710,350 " style="fill: none; stroke: black; stroke-width: 2px; stroke-dasharray: 0.5, 5; stroke-linecap: round; stroke-linejoin: round;"></polyline></g><g class="djs-visual" id="Association_05ffsz7" transform="translate(0 0)"><polyline points="185,788 220,779 " style="fill: none; stroke: black; stroke-width: 2px; stroke-dasharray: 0.5, 5; stroke-linecap: round; stroke-linejoin: round;"></polyline></g><g class="djs-visual" id="Association_11sixtz" transform="translate(0 0)"><polyline points="185,1079 220,1066 " style="fill: none; stroke: black; stroke-width: 2px; stroke-dasharray: 0.5, 5; stroke-linecap: round; stroke-linejoin: round;"></polyline></g></g><g><rect class="viewport" x="-1653.5352798053527" y="-222.8394160583942" width="4221.411192214112" height="1605.8394160583944"></rect></g></svg>