<svg width="100%" height="100%" viewBox="-50, 46, 1835, 1349"><g><g class="djs-visual" id="Flow_1ig3vhd" transform="translate(0 0)"><path d="m  180,360L180,400 " style="fill: none; stroke-width: 2px; stroke: black; stroke-linejoin: round; marker-end: url(&quot;#sequenceflow-end-white-black-743vlkzbb64tw6d0whno2p6gy&quot;);"></path></g><g class="djs-visual" id="Flow_1qj97x6" transform="translate(0 0)"><path d="m  180,1210L180,1252 " style="fill: none; stroke-width: 2px; stroke: black; stroke-linejoin: round; marker-end: url(&quot;#sequenceflow-end-white-black-743vlkzbb64tw6d0whno2p6gy&quot;);"></path></g><g class="djs-visual" id="Flow_0wbg467" transform="translate(0 0)"><path d="m  180,1030L180,1110 " style="fill: none; stroke-width: 2px; stroke: black; stroke-linejoin: round; marker-end: url(&quot;#sequenceflow-end-white-black-743vlkzbb64tw6d0whno2p6gy&quot;);"></path></g><g class="djs-visual" id="Flow_13665eg" transform="translate(0 0)"><path d="m  180,860L180,930 " style="fill: none; stroke-width: 2px; stroke: black; stroke-linejoin: round; marker-end: url(&quot;#sequenceflow-end-white-black-743vlkzbb64tw6d0whno2p6gy&quot;);"></path></g><g class="djs-visual" id="Flow_0rsyps6" transform="translate(0 0)"><path d="m  180,680L180,760 " style="fill: none; stroke-width: 2px; stroke: black; stroke-linejoin: round; marker-end: url(&quot;#sequenceflow-end-white-black-743vlkzbb64tw6d0whno2p6gy&quot;);"></path></g><g class="djs-visual" id="Flow_12cjhoq" transform="translate(0 0)"><path d="m  180,500L180,580 " style="fill: none; stroke-width: 2px; stroke: black; stroke-linejoin: round; marker-end: url(&quot;#sequenceflow-end-white-black-743vlkzbb64tw6d0whno2p6gy&quot;);"></path></g><g class="djs-visual" id="Flow_045gbpp" transform="translate(0 0)"><path d="m  180,188L180,260 " style="fill: none; stroke-width: 2px; stroke: black; stroke-linejoin: round; marker-end: url(&quot;#sequenceflow-end-white-black-743vlkzbb64tw6d0whno2p6gy&quot;);"></path></g><g class="djs-visual" id="Event_1u754xm" transform="translate(162 152)"><circle cx="18" cy="18" r="18" style="stroke: black; stroke-width: 2px; fill: white; fill-opacity: 0.95;"></circle></g><g class="djs-visual" id="Event_1u754xm_label" transform="translate(149 102)"><text lineHeight="1.2" class="djs-label" style="font-family: Arial, sans-serif; font-size: 11px; font-weight: normal; fill: black;"><tspan x="0" y="9.899999999999999">Asset review </tspan><tspan x="11.02490234375" y="23.099999999999998">required</tspan></text></g><g class="djs-visual" id="Activity_1n50gci" transform="translate(115 260)"><rect x="0" y="0" width="130" height="100" rx="10" ry="10" style="stroke: black; stroke-width: 2px; fill: white; fill-opacity: 0.95;"></rect><text lineHeight="1.2" class="djs-label" style="font-family: Arial, sans-serif; font-size: 12px; font-weight: normal; fill: black;"><tspan x="12.1474609375" y="53.599999999999994">Check for Reviewer</tspan></text></g><g class="djs-visual" id="Activity_1ioq40o" transform="translate(115 400)"><rect x="0" y="0" width="130" height="100" rx="10" ry="10" style="stroke: black; stroke-width: 2px; fill: white; fill-opacity: 0.95;"></rect><text lineHeight="1.2" class="djs-label" style="font-family: Arial, sans-serif; font-size: 12px; font-weight: normal; fill: black;"><tspan x="22.8115234375" y="46.4">Select Asset for </tspan><tspan x="47.4951171875" y="60.8">review</tspan></text></g><g class="djs-visual" id="Activity_01awqih" transform="translate(115 580)"><rect x="0" y="0" width="130" height="100" rx="10" ry="10" style="stroke: black; stroke-width: 2px; fill: white; fill-opacity: 0.95;"></rect><text lineHeight="1.2" class="djs-label" style="font-family: Arial, sans-serif; font-size: 12px; font-weight: normal; fill: black;"><tspan x="16.1416015625" y="46.4">Input Asset review </tspan><tspan x="47.65625" y="60.8">details</tspan></text></g><g class="djs-visual" id="Activity_1u8ln1f" transform="translate(115 760)"><rect x="0" y="0" width="130" height="100" rx="10" ry="10" style="stroke: black; stroke-width: 2px; fill: white; fill-opacity: 0.95;"></rect><text lineHeight="1.2" class="djs-label" style="font-family: Arial, sans-serif; font-size: 12px; font-weight: normal; fill: black;"><tspan x="20.98046875" y="46.4">Authorise review </tspan><tspan x="47.65625" y="60.8">details</tspan></text></g><g class="djs-visual" id="Activity_02lxu01" transform="translate(115 930)"><rect x="0" y="0" width="130" height="100" rx="10" ry="10" style="stroke: black; stroke-width: 2px; fill: white; fill-opacity: 0.95;"></rect><text lineHeight="1.2" class="djs-label" style="font-family: Arial, sans-serif; font-size: 12px; font-weight: normal; fill: black;"><tspan x="10.138671875" y="46.4">Update Asset review </tspan><tspan x="47.65625" y="60.8">details</tspan></text></g><g class="djs-visual" id="Activity_17lpn60" transform="translate(115 1110)"><rect x="0" y="0" width="130" height="100" rx="10" ry="10" style="stroke: black; stroke-width: 2px; fill: white; fill-opacity: 0.95;"></rect><text lineHeight="1.2" class="djs-label" style="font-family: Arial, sans-serif; font-size: 12px; font-weight: normal; fill: black;"><tspan x="9.1318359375" y="46.4">Generate accounting </tspan><tspan x="46.984375" y="60.8">entries</tspan></text></g><g class="djs-visual" id="Event_0dkx3sj" transform="translate(162 1252)"><circle cx="18" cy="18" r="18" style="stroke: black; stroke-width: 4px; fill: white; fill-opacity: 0.95;"></circle></g><g class="djs-visual" id="Event_0dkx3sj_label" transform="translate(147 1299)"><text lineHeight="1.2" class="djs-label" style="font-family: Arial, sans-serif; font-size: 11px; font-weight: normal; fill: black;"><tspan x="0" y="9.899999999999999">Asset Review </tspan><tspan x="7.962158203125" y="23.099999999999998">completed </tspan><tspan x="3.446533203125" y="36.3">successfully</tspan></text></g><g class="djs-visual" id="TextAnnotation_0m60eiu" transform="translate(300 470)"><rect x="0" y="0" width="378" height="190" rx="0" ry="0" style="stroke: none; stroke-width: 2px; fill: none;"></rect><path d="m 0, 0 m 10,0 l -10,0 l 0,190 l 10,0" style="fill: none; stroke-width: 2px; stroke: black;"></path><text lineHeight="1.2" class="djs-label" style="font-family: Arial, sans-serif; font-size: 12px; font-weight: normal; fill: black;"><tspan x="5" y="15.799999999999999">- Reviewer ID</tspan><tspan x="5" y="30.199999999999996">- Reviewer Name</tspan><tspan x="5" y="44.599999999999994">- Account</tspan><tspan x="5" y="58.99999999999999">- Purchase Reference</tspan><tspan x="5" y="73.39999999999999">- Customer</tspan><tspan x="5" y="87.79999999999998">- Customer Account</tspan><tspan x="5" y="102.19999999999999">- Commodity</tspan><tspan x="5" y="116.6">- Asset Reference</tspan><tspan x="5" y="131">- Appraisal value</tspan><tspan x="5" y="145.4">- Progress Percentage</tspan><tspan x="5" y="159.8">- Status</tspan><tspan x="5" y="174.20000000000002">- Valuation fees (includes Bank contribution/ Customer contribution)</tspan></text></g><g class="djs-visual" id="TextAnnotation_1s59yqp" transform="translate(300 1030)"><rect x="0" y="0" width="390" height="100" rx="0" ry="0" style="stroke: none; stroke-width: 2px; fill: none;"></rect><path d="m 0, 0 m 10,0 l -10,0 l 0,100 l 10,0" style="fill: none; stroke-width: 2px; stroke: black;"></path><text lineHeight="1.2" class="djs-label" style="font-family: Arial, sans-serif; font-size: 12px; font-weight: normal; fill: black;"><tspan x="5" y="15.799999999999999">Accounting entries will be generated only if valuation fees is captured</tspan><tspan x="5" y="30.199999999999996">Dr Review Expenses Category (Bank contribution)</tspan><tspan x="5" y="44.599999999999994">Cr Review Wash Acc (Bank contribution)</tspan><tspan x="5" y="58.99999999999999"></tspan><tspan x="5" y="73.39999999999999">Dr Customer Acc (Customer contribution)</tspan><tspan x="5" y="87.79999999999998">Cr Review Wash Acc (Customer contribution)</tspan></text></g><g class="djs-visual" id="Association_12zy5wb" transform="translate(0 0)"><polyline points="242,583 300,540 " style="fill: none; stroke: black; stroke-width: 2px; stroke-dasharray: 0.5, 5; stroke-linecap: round; stroke-linejoin: round;"></polyline></g><g class="djs-visual" id="Association_1bneff8" transform="translate(0 0)"><polyline points="245,1119 300,1083 " style="fill: none; stroke: black; stroke-width: 2px; stroke-dasharray: 0.5, 5; stroke-linecap: round; stroke-linejoin: round;"></polyline></g></g><g><rect class="viewport" x="-1240.1704545454543" y="96.07765151515152" width="3285.9848484848485" height="1250"></rect></g></svg>