<svg width="100%" height="100%" viewBox="-50, -182, 1835, 2544"><g><g class="djs-visual" id="Flow_1dqclu2" transform="translate(0 0)"><path d="m  910,2160L910,2220 L1130,2220 L1130,810 L215,810 " style="fill: none; stroke-width: 2px; stroke: black; stroke-linejoin: round; marker-end: url(&quot;#sequenceflow-end-white-black-08fwinz92o410707v6r6zarz0&quot;);"></path></g><g class="djs-visual" id="Flow_08vb2bn" transform="translate(0 0)"><path d="m  910,1980L910,2060 " style="fill: none; stroke-width: 2px; stroke: black; stroke-linejoin: round; marker-end: url(&quot;#sequenceflow-end-white-black-08fwinz92o410707v6r6zarz0&quot;);"></path></g><g class="djs-visual" id="Flow_1jxa5oi" transform="translate(0 0)"><path d="m  910,1810L910,1880 " style="fill: none; stroke-width: 2px; stroke: black; stroke-linejoin: round; marker-end: url(&quot;#sequenceflow-end-white-black-08fwinz92o410707v6r6zarz0&quot;);"></path></g><g class="djs-visual" id="Flow_1hkkjml" transform="translate(0 0)"><path d="m  540,2160L540,2232 " style="fill: none; stroke-width: 2px; stroke: black; stroke-linejoin: round; marker-end: url(&quot;#sequenceflow-end-white-black-08fwinz92o410707v6r6zarz0&quot;);"></path></g><g class="djs-visual" id="Flow_1l14tu1" transform="translate(0 0)"><path d="m  540,1980L540,2060 " style="fill: none; stroke-width: 2px; stroke: black; stroke-linejoin: round; marker-end: url(&quot;#sequenceflow-end-white-black-08fwinz92o410707v6r6zarz0&quot;);"></path></g><g class="djs-visual" id="Flow_0fmamck" transform="translate(0 0)"><path d="m  540,1810L540,1880 " style="fill: none; stroke-width: 2px; stroke: black; stroke-linejoin: round; marker-end: url(&quot;#sequenceflow-end-white-black-08fwinz92o410707v6r6zarz0&quot;);"></path></g><g class="djs-visual" id="Flow_1b0h3xe" transform="translate(0 0)"><path d="m  565,1620L910,1620 L910,1710 " style="fill: none; stroke-width: 2px; stroke: black; stroke-linejoin: round; marker-end: url(&quot;#sequenceflow-end-white-black-08fwinz92o410707v6r6zarz0&quot;);"></path></g><g class="djs-visual" id="Flow_1lhdu72" transform="translate(0 0)"><path d="m  540,1645L540,1710 " style="fill: none; stroke-width: 2px; stroke: black; stroke-linejoin: round; marker-end: url(&quot;#sequenceflow-end-white-black-08fwinz92o410707v6r6zarz0&quot;);"></path></g><g class="djs-visual" id="Flow_0ojip87" transform="translate(0 0)"><path d="m  540,1520L540,1595 " style="fill: none; stroke-width: 2px; stroke: black; stroke-linejoin: round; marker-end: url(&quot;#sequenceflow-end-white-black-08fwinz92o410707v6r6zarz0&quot;);"></path></g><g class="djs-visual" id="Flow_1ann4zr" transform="translate(0 0)"><path d="m  540,1350L540,1420 " style="fill: none; stroke-width: 2px; stroke: black; stroke-linejoin: round; marker-end: url(&quot;#sequenceflow-end-white-black-08fwinz92o410707v6r6zarz0&quot;);"></path></g><g class="djs-visual" id="Flow_03sncu4" transform="translate(0 0)"><path d="m  190,1350L190,1432 " style="fill: none; stroke-width: 2px; stroke: black; stroke-linejoin: round; marker-end: url(&quot;#sequenceflow-end-white-black-08fwinz92o410707v6r6zarz0&quot;);"></path></g><g class="djs-visual" id="Flow_10jna88" transform="translate(0 0)"><path d="m  190,1165L190,1250 " style="fill: none; stroke-width: 2px; stroke: black; stroke-linejoin: round; marker-end: url(&quot;#sequenceflow-end-white-black-08fwinz92o410707v6r6zarz0&quot;);"></path></g><g class="djs-visual" id="Flow_12sncyo" transform="translate(0 0)"><path d="m  215,1140L540,1140 L540,1250 " style="fill: none; stroke-width: 2px; stroke: black; stroke-linejoin: round; marker-end: url(&quot;#sequenceflow-end-white-black-08fwinz92o410707v6r6zarz0&quot;);"></path></g><g class="djs-visual" id="Flow_1w1s6ny" transform="translate(0 0)"><path d="m  190,1030L190,1115 " style="fill: none; stroke-width: 2px; stroke: black; stroke-linejoin: round; marker-end: url(&quot;#sequenceflow-end-white-black-08fwinz92o410707v6r6zarz0&quot;);"></path></g><g class="djs-visual" id="Flow_12ty57x" transform="translate(0 0)"><path d="m  190,835L190,930 " style="fill: none; stroke-width: 2px; stroke: black; stroke-linejoin: round; marker-end: url(&quot;#sequenceflow-end-white-black-08fwinz92o410707v6r6zarz0&quot;);"></path></g><g class="djs-visual" id="Flow_0l9gzus" transform="translate(0 0)"><path d="m  190,640L190,785 " style="fill: none; stroke-width: 2px; stroke: black; stroke-linejoin: round; marker-end: url(&quot;#sequenceflow-end-white-black-08fwinz92o410707v6r6zarz0&quot;);"></path></g><g class="djs-visual" id="Flow_1apb337" transform="translate(0 0)"><path d="m  540,640L540,702 " style="fill: none; stroke-width: 2px; stroke: black; stroke-linejoin: round; marker-end: url(&quot;#sequenceflow-end-white-black-08fwinz92o410707v6r6zarz0&quot;);"></path></g><g class="djs-visual" id="Flow_1o549i3" transform="translate(0 0)"><path d="m  215,410L540,410 L540,540 " style="fill: none; stroke-width: 2px; stroke: black; stroke-linejoin: round; marker-end: url(&quot;#sequenceflow-end-white-black-08fwinz92o410707v6r6zarz0&quot;);"></path></g><g class="djs-visual" id="Flow_0968lv4" transform="translate(0 0)"><path d="m  190,435L190,540 " style="fill: none; stroke-width: 2px; stroke: black; stroke-linejoin: round; marker-end: url(&quot;#sequenceflow-end-white-black-08fwinz92o410707v6r6zarz0&quot;);"></path></g><g class="djs-visual" id="Flow_1s9jo1t" transform="translate(0 0)"><path d="m  190,300L190,385 " style="fill: none; stroke-width: 2px; stroke: black; stroke-linejoin: round; marker-end: url(&quot;#sequenceflow-end-white-black-08fwinz92o410707v6r6zarz0&quot;);"></path></g><g class="djs-visual" id="Flow_0nb90n0" transform="translate(0 0)"><path d="m  190,130L190,200 " style="fill: none; stroke-width: 2px; stroke: black; stroke-linejoin: round; marker-end: url(&quot;#sequenceflow-end-white-black-08fwinz92o410707v6r6zarz0&quot;);"></path></g><g class="djs-visual" id="Flow_0o3jjf4" transform="translate(0 0)"><path d="m  190,-42L190,30 " style="fill: none; stroke-width: 2px; stroke: black; stroke-linejoin: round; marker-end: url(&quot;#sequenceflow-end-white-black-08fwinz92o410707v6r6zarz0&quot;);"></path></g><g class="djs-visual" id="StartEvent_1bm324f" transform="translate(172 -78)"><circle cx="18" cy="18" r="18" style="stroke: black; stroke-width: 2px; fill: white; fill-opacity: 0.95;"></circle></g><g class="djs-visual" id="StartEvent_1bm324f_label" transform="translate(147 -126)"><text lineHeight="1.2" class="djs-label" style="font-family: Arial, sans-serif; font-size: 11px; font-weight: normal; fill: black;"><tspan x="0" y="9.899999999999999">Liquidity Transfer </tspan><tspan x="12.776123046875" y="23.099999999999998">Advice to be </tspan><tspan x="20.221435546875" y="36.3">executed</tspan></text></g><g class="djs-visual" id="Activity_1rq5et4" transform="translate(125 30)"><rect x="0" y="0" width="130" height="100" rx="10" ry="10" style="stroke: black; stroke-width: 2px; fill: white; fill-opacity: 0.95;"></rect><text lineHeight="1.2" class="djs-label" style="font-family: Arial, sans-serif; font-size: 12px; font-weight: normal; fill: black;"><tspan x="17.1474609375" y="46.4">Receive message </tspan><tspan x="30.658203125" y="60.8">from clearing</tspan></text></g><g class="djs-visual" id="DataObjectReference_1at5qfk" transform="translate(12 55)"><path d="m 0,0 28.23529411764706,0 7.058823529411765,8.196721311475411 0,40.98360655737705 -35.294117647058826,0 0,-49.18032786885246 28.23529411764706,0 0,8.196721311475411 7.058823529411765,0" style="fill: white; stroke-width: 2px; stroke: black; fill-opacity: 0.95;"></path></g><g class="djs-visual" id="DataObjectReference_1at5qfk_label" transform="translate(7 112)"><text lineHeight="1.2" class="djs-label" style="font-family: Arial, sans-serif; font-size: 11px; font-weight: normal; fill: black;"><tspan x="0" y="9.899999999999999">camt.054</tspan></text></g><g class="djs-visual" id="Activity_1kvf4qe" transform="translate(125 200)"><rect x="0" y="0" width="130" height="100" rx="10" ry="10" style="stroke: black; stroke-width: 2px; fill: white; fill-opacity: 0.95;"></rect><text lineHeight="1.2" class="djs-label" style="font-family: Arial, sans-serif; font-size: 12px; font-weight: normal; fill: black;"><tspan x="24.1552734375" y="46.4">Perform syntax </tspan><tspan x="37.1484375" y="60.8">validations</tspan></text></g><g class="djs-visual" id="Gateway_1nouv13" transform="translate(165 385)"><polygon points="25,0 50,25 25,50 0,25" style="stroke: black; stroke-width: 2px; fill: white; fill-opacity: 0.95;"></polygon><path d="m 16,15 7.42857142857143,9.714285714285715 -7.42857142857143,9.714285714285715 3.428571428571429,0 5.714285714285715,-7.464228571428572 5.714285714285715,7.464228571428572 3.428571428571429,0 -7.42857142857143,-9.714285714285715 7.42857142857143,-9.714285714285715 -3.428571428571429,0 -5.714285714285715,7.464228571428572 -5.714285714285715,-7.464228571428572 -3.428571428571429,0 z" style="fill: black; stroke-width: 1px; stroke: black;"></path></g><g class="djs-visual" id="Activity_01pxt09" transform="translate(125 540)"><rect x="0" y="0" width="130" height="100" rx="10" ry="10" style="stroke: black; stroke-width: 2px; fill: white; fill-opacity: 0.95;"></rect><text lineHeight="1.2" class="djs-label" style="font-family: Arial, sans-serif; font-size: 12px; font-weight: normal; fill: black;"><tspan x="15.8115234375" y="53.599999999999994">Create transaction</tspan></text></g><g class="djs-visual" id="Activity_0xar5u4" transform="translate(475 540)"><rect x="0" y="0" width="130" height="100" rx="10" ry="10" style="stroke: black; stroke-width: 2px; fill: white; fill-opacity: 0.95;"></rect><text lineHeight="1.2" class="djs-label" style="font-family: Arial, sans-serif; font-size: 12px; font-weight: normal; fill: black;"><tspan x="36.8232421875" y="53.599999999999994">Cancel file</tspan></text></g><g class="djs-visual" id="Event_0pqxalk" transform="translate(522 702)"><circle cx="18" cy="18" r="18" style="stroke: black; stroke-width: 4px; fill: white; fill-opacity: 0.95;"></circle></g><g class="djs-visual" id="Event_0pqxalk_label" transform="translate(506 745)"><text lineHeight="1.2" class="djs-label" style="font-family: Arial, sans-serif; font-size: 11px; font-weight: normal; fill: black;"><tspan x="0" y="9.899999999999999">File cancelled</tspan></text></g><g class="djs-visual" id="Gateway_0j8qzok" transform="translate(165 785)"><polygon points="25,0 50,25 25,50 0,25" style="stroke: black; stroke-width: 2px; fill: white; fill-opacity: 0.95;"></polygon><path d="m 16,15 7.42857142857143,9.714285714285715 -7.42857142857143,9.714285714285715 3.428571428571429,0 5.714285714285715,-7.464228571428572 5.714285714285715,7.464228571428572 3.428571428571429,0 -7.42857142857143,-9.714285714285715 7.42857142857143,-9.714285714285715 -3.428571428571429,0 -5.714285714285715,7.464228571428572 -5.714285714285715,-7.464228571428572 -3.428571428571429,0 z" style="fill: black; stroke-width: 1px; stroke: black;"></path></g><g class="djs-visual" id="Activity_05vuxl1" transform="translate(125 930)"><rect x="0" y="0" width="130" height="100" rx="10" ry="10" style="stroke: black; stroke-width: 2px; fill: white; fill-opacity: 0.95;"></rect><text lineHeight="1.2" class="djs-label" style="font-family: Arial, sans-serif; font-size: 12px; font-weight: normal; fill: black;"><tspan x="16.482421875" y="53.599999999999994">Perform validation</tspan></text></g><g class="djs-visual" id="Activity_09yywma" transform="translate(475 1250)"><rect x="0" y="0" width="130" height="100" rx="10" ry="10" style="stroke: black; stroke-width: 2px; fill: white; fill-opacity: 0.95;"></rect><text lineHeight="1.2" class="djs-label" style="font-family: Arial, sans-serif; font-size: 12px; font-weight: normal; fill: black;"><tspan x="12.474609375" y="46.4">Place transaction in </tspan><tspan x="31.1455078125" y="60.8">repair queue</tspan></text></g><g class="djs-visual" id="Gateway_0e7xa8d" transform="translate(165 1115)"><polygon points="25,0 50,25 25,50 0,25" style="stroke: black; stroke-width: 2px; fill: white; fill-opacity: 0.95;"></polygon><path d="m 16,15 7.42857142857143,9.714285714285715 -7.42857142857143,9.714285714285715 3.428571428571429,0 5.714285714285715,-7.464228571428572 5.714285714285715,7.464228571428572 3.428571428571429,0 -7.42857142857143,-9.714285714285715 7.42857142857143,-9.714285714285715 -3.428571428571429,0 -5.714285714285715,7.464228571428572 -5.714285714285715,-7.464228571428572 -3.428571428571429,0 z" style="fill: black; stroke-width: 1px; stroke: black;"></path></g><g class="djs-visual" id="Activity_0cp1asa" transform="translate(125 1250)"><rect x="0" y="0" width="130" height="100" rx="10" ry="10" style="stroke: black; stroke-width: 2px; fill: white; fill-opacity: 0.95;"></rect><text lineHeight="1.2" class="djs-label" style="font-family: Arial, sans-serif; font-size: 12px; font-weight: normal; fill: black;"><tspan x="9.1318359375" y="46.4">Generate accounting </tspan><tspan x="46.984375" y="60.8">entries</tspan></text></g><g class="djs-visual" id="Event_1w5my6e" transform="translate(172 1432)"><circle cx="18" cy="18" r="18" style="stroke: black; stroke-width: 4px; fill: white; fill-opacity: 0.95;"></circle></g><g class="djs-visual" id="Event_1w5my6e_label" transform="translate(147 1479)"><text lineHeight="1.2" class="djs-label" style="font-family: Arial, sans-serif; font-size: 11px; font-weight: normal; fill: black;"><tspan x="0" y="9.899999999999999">Liquidity Transfer </tspan><tspan x="2.690185546875" y="23.099999999999998">Advice executed </tspan><tspan x="12.651123046875" y="36.3">successfully</tspan></text></g><g class="djs-visual" id="Activity_0yewv0g" transform="translate(475 1420)"><rect x="0" y="0" width="130" height="100" rx="10" ry="10" style="stroke: black; stroke-width: 2px; fill: white; fill-opacity: 0.95;"></rect><text lineHeight="1.2" class="djs-label" style="font-family: Arial, sans-serif; font-size: 12px; font-weight: normal; fill: black;"><tspan x="20.1416015625" y="53.599999999999994">Decide on action</tspan></text></g><g class="djs-visual" id="Gateway_1w2qup2" transform="translate(515 1595)"><polygon points="25,0 50,25 25,50 0,25" style="stroke: black; stroke-width: 2px; fill: white; fill-opacity: 0.95;"></polygon><path d="m 16,15 7.42857142857143,9.714285714285715 -7.42857142857143,9.714285714285715 3.428571428571429,0 5.714285714285715,-7.464228571428572 5.714285714285715,7.464228571428572 3.428571428571429,0 -7.42857142857143,-9.714285714285715 7.42857142857143,-9.714285714285715 -3.428571428571429,0 -5.714285714285715,7.464228571428572 -5.714285714285715,-7.464228571428572 -3.428571428571429,0 z" style="fill: black; stroke-width: 1px; stroke: black;"></path></g><g class="djs-visual" id="Activity_0tr79nk" transform="translate(475 1710)"><rect x="0" y="0" width="130" height="100" rx="10" ry="10" style="stroke: black; stroke-width: 2px; fill: white; fill-opacity: 0.95;"></rect><text lineHeight="1.2" class="djs-label" style="font-family: Arial, sans-serif; font-size: 12px; font-weight: normal; fill: black;"><tspan x="16.8134765625" y="53.599999999999994">Reject transaction</tspan></text></g><g class="djs-visual" id="Activity_0g7uz9n" transform="translate(845 1710)"><rect x="0" y="0" width="130" height="100" rx="10" ry="10" style="stroke: black; stroke-width: 2px; fill: white; fill-opacity: 0.95;"></rect><text lineHeight="1.2" class="djs-label" style="font-family: Arial, sans-serif; font-size: 12px; font-weight: normal; fill: black;"><tspan x="16.1455078125" y="53.599999999999994">Repair transaction</tspan></text></g><g class="djs-visual" id="Activity_01f5k27" transform="translate(475 1880)"><rect x="0" y="0" width="130" height="100" rx="10" ry="10" style="stroke: black; stroke-width: 2px; fill: white; fill-opacity: 0.95;"></rect><text lineHeight="1.2" class="djs-label" style="font-family: Arial, sans-serif; font-size: 12px; font-weight: normal; fill: black;"><tspan x="8.97265625" y="53.599999999999994">Authorise transaction</tspan></text></g><g class="djs-visual" id="Activity_1ct9pdz" transform="translate(475 2060)"><rect x="0" y="0" width="130" height="100" rx="10" ry="10" style="stroke: black; stroke-width: 2px; fill: white; fill-opacity: 0.95;"></rect><text lineHeight="1.2" class="djs-label" style="font-family: Arial, sans-serif; font-size: 12px; font-weight: normal; fill: black;"><tspan x="27.9765625" y="53.599999999999994">Update status</tspan></text></g><g class="djs-visual" id="Event_18dgaeu" transform="translate(522 2232)"><circle cx="18" cy="18" r="18" style="stroke: black; stroke-width: 4px; fill: white; fill-opacity: 0.95;"></circle></g><g class="djs-visual" id="Event_18dgaeu_label" transform="translate(497 2279)"><text lineHeight="1.2" class="djs-label" style="font-family: Arial, sans-serif; font-size: 11px; font-weight: normal; fill: black;"><tspan x="0" y="9.899999999999999">Liquidity Transfer </tspan><tspan x="5.440185546875" y="23.099999999999998">Advice rejected</tspan></text></g><g class="djs-visual" id="Activity_1o0bjc3" transform="translate(845 1880)"><rect x="0" y="0" width="130" height="100" rx="10" ry="10" style="stroke: black; stroke-width: 2px; fill: white; fill-opacity: 0.95;"></rect><text lineHeight="1.2" class="djs-label" style="font-family: Arial, sans-serif; font-size: 12px; font-weight: normal; fill: black;"><tspan x="6.4677734375" y="53.599999999999994">Authorise amendment</tspan></text></g><g class="djs-visual" id="Activity_1jcrk4x" transform="translate(845 2060)"><rect x="0" y="0" width="130" height="100" rx="10" ry="10" style="stroke: black; stroke-width: 2px; fill: white; fill-opacity: 0.95;"></rect><text lineHeight="1.2" class="djs-label" style="font-family: Arial, sans-serif; font-size: 12px; font-weight: normal; fill: black;"><tspan x="14.47265625" y="53.599999999999994">Update transaction</tspan></text></g><g class="djs-visual" id="TextAnnotation_08k9j0j" transform="translate(290 1220)"><rect x="0" y="0" width="120" height="40" rx="0" ry="0" style="stroke: none; stroke-width: 2px; fill: none;"></rect><path d="m 0, 0 m 10,0 l -10,0 l 0,40 l 10,0" style="fill: none; stroke-width: 2px; stroke: black;"></path><text lineHeight="1.2" class="djs-label" style="font-family: Arial, sans-serif; font-size: 12px; font-weight: normal; fill: black;"><tspan x="5" y="15.799999999999999">Dr Nostro account</tspan><tspan x="5" y="30.199999999999996">Cr Nostro account</tspan></text></g><g class="djs-visual" id="TextAnnotation_0v5esld" transform="translate(650 2000)"><rect x="0" y="0" width="110" height="40" rx="0" ry="0" style="stroke: none; stroke-width: 2px; fill: none;"></rect><path d="m 0, 0 m 10,0 l -10,0 l 0,40 l 10,0" style="fill: none; stroke-width: 2px; stroke: black;"></path><text lineHeight="1.2" class="djs-label" style="font-family: Arial, sans-serif; font-size: 12px; font-weight: normal; fill: black;"><tspan x="5" y="15.799999999999999">Payment moves to </tspan><tspan x="5" y="30.199999999999996">997 status</tspan></text></g><g class="djs-visual" id="TextAnnotation_11vy74i" transform="translate(310 850)"><rect x="0" y="0" width="180" height="80" rx="0" ry="0" style="stroke: none; stroke-width: 2px; fill: none;"></rect><path d="m 0, 0 m 10,0 l -10,0 l 0,80 l 10,0" style="fill: none; stroke-width: 2px; stroke: black;"></path><text lineHeight="1.2" class="djs-label" style="font-family: Arial, sans-serif; font-size: 12px; font-weight: normal; fill: black;"><tspan x="5" y="15.799999999999999">- LTA qualification</tspan><tspan x="5" y="30.199999999999996">- Product determination</tspan><tspan x="5" y="44.599999999999994">- Debit party determination</tspan><tspan x="5" y="58.99999999999999">- Credit party determination</tspan><tspan x="5" y="73.39999999999999">- Duplicate check</tspan></text></g><g class="djs-visual" id="TextAnnotation_18uqmxw" transform="translate(310 470)"><rect x="0" y="0" width="100" height="40" rx="0" ry="0" style="stroke: none; stroke-width: 2px; fill: none;"></rect><path d="m 0, 0 m 10,0 l -10,0 l 0,40 l 10,0" style="fill: none; stroke-width: 2px; stroke: black;"></path><text lineHeight="1.2" class="djs-label" style="font-family: Arial, sans-serif; font-size: 12px; font-weight: normal; fill: black;"><tspan x="5" y="15.799999999999999">POR transaction</tspan><tspan x="5" y="30.199999999999996">created</tspan></text></g><g class="djs-visual" id="DataInputAssociation_0duzh0x" transform="translate(0 0)"><polyline points="48,80 125,80 " style="fill: none; stroke: black; stroke-width: 2px; stroke-dasharray: 0.5, 5; stroke-linecap: round; stroke-linejoin: round; marker-end: url(&quot;#association-end-white-black-08fwinz92o410707v6r6zarz0&quot;);"></polyline></g><g class="djs-visual" id="Flow_0968lv4_label" transform="translate(204 448)"><text lineHeight="1.2" class="djs-label" style="font-family: Arial, sans-serif; font-size: 11px; font-weight: normal; fill: black;"><tspan x="0" y="9.899999999999999">Validations passed</tspan></text></g><g class="djs-visual" id="Flow_1o549i3_label" transform="translate(553 448)"><text lineHeight="1.2" class="djs-label" style="font-family: Arial, sans-serif; font-size: 11px; font-weight: normal; fill: black;"><tspan x="0" y="9.899999999999999">Validations failed</tspan></text></g><g class="djs-visual" id="Flow_12sncyo_label" transform="translate(553 1188)"><text lineHeight="1.2" class="djs-label" style="font-family: Arial, sans-serif; font-size: 11px; font-weight: normal; fill: black;"><tspan x="0" y="9.899999999999999">Validations failed</tspan></text></g><g class="djs-visual" id="Flow_10jna88_label" transform="translate(204 1188)"><text lineHeight="1.2" class="djs-label" style="font-family: Arial, sans-serif; font-size: 11px; font-weight: normal; fill: black;"><tspan x="0" y="9.899999999999999">Validations passed</tspan></text></g><g class="djs-visual" id="Flow_1lhdu72_label" transform="translate(551 1656)"><text lineHeight="1.2" class="djs-label" style="font-family: Arial, sans-serif; font-size: 11px; font-weight: normal; fill: black;"><tspan x="0" y="9.899999999999999">Payment to be </tspan><tspan x="15.8984375" y="23.099999999999998">rejected</tspan></text></g><g class="djs-visual" id="Flow_1b0h3xe_label" transform="translate(922 1653)"><text lineHeight="1.2" class="djs-label" style="font-family: Arial, sans-serif; font-size: 11px; font-weight: normal; fill: black;"><tspan x="0" y="9.899999999999999">Payment to be </tspan><tspan x="15.2890625" y="23.099999999999998">repaired</tspan></text></g><g class="djs-visual" id="Association_1t61um0" transform="translate(0 0)"><polyline points="251,1253 290,1225 " style="fill: none; stroke: black; stroke-width: 2px; stroke-dasharray: 0.5, 5; stroke-linecap: round; stroke-linejoin: round;"></polyline></g><g class="djs-visual" id="Association_10w838x" transform="translate(0 0)"><polyline points="600,2061 650,2020 " style="fill: none; stroke: black; stroke-width: 2px; stroke-dasharray: 0.5, 5; stroke-linecap: round; stroke-linejoin: round;"></polyline></g><g class="djs-visual" id="Association_0vl797o" transform="translate(0 0)"><polyline points="255,938 310,902 " style="fill: none; stroke: black; stroke-width: 2px; stroke-dasharray: 0.5, 5; stroke-linecap: round; stroke-linejoin: round;"></polyline></g><g class="djs-visual" id="Association_08i4jd0" transform="translate(0 0)"><polyline points="252,543 310,500 " style="fill: none; stroke: black; stroke-width: 2px; stroke-dasharray: 0.5, 5; stroke-linecap: round; stroke-linejoin: round;"></polyline></g></g><g><rect class="viewport" x="-2644.359259259259" y="-132.0222222222222" width="6425.925925925925" height="2444.4444444444443"></rect></g></svg>