<svg width="100%" height="100%" viewBox="-57, -179, 1835, 3453"><g><g class="djs-visual" id="Flow_19bac8g" transform="translate(0 0)"><path d="m  420,2520L420,2600 " style="fill: none; stroke-width: 2px; stroke: black; stroke-linejoin: round; marker-end: url(&quot;#sequenceflow-end-white-black-7f6ga0yrllayccydv9qyslvgh&quot;);"></path></g><g class="djs-visual" id="Flow_1cvydgg" transform="translate(0 0)"><path d="m  215,3050L360,3050 L360,3142 " style="fill: none; stroke-width: 2px; stroke: black; stroke-linejoin: round; marker-end: url(&quot;#sequenceflow-end-white-black-7f6ga0yrllayccydv9qyslvgh&quot;);"></path></g><g class="djs-visual" id="Flow_1ua4ntj" transform="translate(0 0)"><path d="m  190,3075L190,3142 " style="fill: none; stroke-width: 2px; stroke: black; stroke-linejoin: round; marker-end: url(&quot;#sequenceflow-end-white-black-7f6ga0yrllayccydv9qyslvgh&quot;);"></path></g><g class="djs-visual" id="Flow_15dvsuh" transform="translate(0 0)"><path d="m  190,2960L190,3025 " style="fill: none; stroke-width: 2px; stroke: black; stroke-linejoin: round; marker-end: url(&quot;#sequenceflow-end-white-black-7f6ga0yrllayccydv9qyslvgh&quot;);"></path></g><g class="djs-visual" id="Flow_02wzcn2" transform="translate(0 0)"><path d="m  190,2805L190,2860 " style="fill: none; stroke-width: 2px; stroke: black; stroke-linejoin: round; marker-end: url(&quot;#sequenceflow-end-white-black-7f6ga0yrllayccydv9qyslvgh&quot;);"></path></g><g class="djs-visual" id="Flow_1f3mxh2" transform="translate(0 0)"><path d="m  420,2700L420,2780 L215,2780 " style="fill: none; stroke-width: 2px; stroke: black; stroke-linejoin: round; marker-end: url(&quot;#sequenceflow-end-white-black-7f6ga0yrllayccydv9qyslvgh&quot;);"></path></g><g class="djs-visual" id="Flow_0cn9clq" transform="translate(0 0)"><path d="m  215,2350L420,2350 L420,2420 " style="fill: none; stroke-width: 2px; stroke: black; stroke-linejoin: round; marker-end: url(&quot;#sequenceflow-end-white-black-7f6ga0yrllayccydv9qyslvgh&quot;);"></path></g><g class="djs-visual" id="Flow_1vcwtq8" transform="translate(0 0)"><path d="m  190,2375L190,2755 " style="fill: none; stroke-width: 2px; stroke: black; stroke-linejoin: round; marker-end: url(&quot;#sequenceflow-end-white-black-7f6ga0yrllayccydv9qyslvgh&quot;);"></path></g><g class="djs-visual" id="Flow_1qb5zx1" transform="translate(0 0)"><path d="m  190,2260L190,2325 " style="fill: none; stroke-width: 2px; stroke: black; stroke-linejoin: round; marker-end: url(&quot;#sequenceflow-end-white-black-7f6ga0yrllayccydv9qyslvgh&quot;);"></path></g><g class="djs-visual" id="Flow_05filpr" transform="translate(0 0)"><path d="m  215,2070L560,2070 L560,910 L635,910 " style="fill: none; stroke-width: 2px; stroke: black; stroke-linejoin: round; marker-end: url(&quot;#sequenceflow-end-white-black-7f6ga0yrllayccydv9qyslvgh&quot;);"></path></g><g class="djs-visual" id="Flow_1avmhmq" transform="translate(0 0)"><path d="m  190,2095L190,2160 " style="fill: none; stroke-width: 2px; stroke: black; stroke-linejoin: round; marker-end: url(&quot;#sequenceflow-end-white-black-7f6ga0yrllayccydv9qyslvgh&quot;);"></path></g><g class="djs-visual" id="Flow_1vw0rr4" transform="translate(0 0)"><path d="m  190,1980L190,2045 " style="fill: none; stroke-width: 2px; stroke: black; stroke-linejoin: round; marker-end: url(&quot;#sequenceflow-end-white-black-7f6ga0yrllayccydv9qyslvgh&quot;);"></path></g><g class="djs-visual" id="Flow_0e9mej1" transform="translate(0 0)"><path d="m  190,1810L190,1880 " style="fill: none; stroke-width: 2px; stroke: black; stroke-linejoin: round; marker-end: url(&quot;#sequenceflow-end-white-black-7f6ga0yrllayccydv9qyslvgh&quot;);"></path></g><g class="djs-visual" id="Flow_0wuhalz" transform="translate(0 0)"><path d="m  1010,960L1010,1000 L1130,1000 L1130,210 L215,210 " style="fill: none; stroke-width: 2px; stroke: black; stroke-linejoin: round; marker-end: url(&quot;#sequenceflow-end-white-black-7f6ga0yrllayccydv9qyslvgh&quot;);"></path></g><g class="djs-visual" id="Flow_0x4nrtk" transform="translate(0 0)"><path d="m  845,780L1010,780 L1010,860 " style="fill: none; stroke-width: 2px; stroke: black; stroke-linejoin: round; marker-end: url(&quot;#sequenceflow-end-white-black-7f6ga0yrllayccydv9qyslvgh&quot;);"></path></g><g class="djs-visual" id="Flow_113lqzz" transform="translate(0 0)"><path d="m  820,805L820,910 L685,910 " style="fill: none; stroke-width: 2px; stroke: black; stroke-linejoin: round; marker-end: url(&quot;#sequenceflow-end-white-black-7f6ga0yrllayccydv9qyslvgh&quot;);"></path></g><g class="djs-visual" id="Flow_0jnuo47" transform="translate(0 0)"><path d="m  820,690L820,755 " style="fill: none; stroke-width: 2px; stroke: black; stroke-linejoin: round; marker-end: url(&quot;#sequenceflow-end-white-black-7f6ga0yrllayccydv9qyslvgh&quot;);"></path></g><g class="djs-visual" id="Flow_1ai6zsk" transform="translate(0 0)"><path d="m  215,500L820,500 L820,590 " style="fill: none; stroke-width: 2px; stroke: black; stroke-linejoin: round; marker-end: url(&quot;#sequenceflow-end-white-black-7f6ga0yrllayccydv9qyslvgh&quot;);"></path></g><g class="djs-visual" id="Flow_1n7irym" transform="translate(0 0)"><path d="m  660,1090L660,1152 " style="fill: none; stroke-width: 2px; stroke: black; stroke-linejoin: round; marker-end: url(&quot;#sequenceflow-end-white-black-7f6ga0yrllayccydv9qyslvgh&quot;);"></path></g><g class="djs-visual" id="Flow_1viqonj" transform="translate(0 0)"><path d="m  660,935L660,990 " style="fill: none; stroke-width: 2px; stroke: black; stroke-linejoin: round; marker-end: url(&quot;#sequenceflow-end-white-black-7f6ga0yrllayccydv9qyslvgh&quot;);"></path></g><g class="djs-visual" id="Flow_00a3m9k" transform="translate(0 0)"><path d="m  215,780L660,780 L660,885 " style="fill: none; stroke-width: 2px; stroke: black; stroke-linejoin: round; marker-end: url(&quot;#sequenceflow-end-white-black-7f6ga0yrllayccydv9qyslvgh&quot;);"></path></g><g class="djs-visual" id="Flow_12smxrv" transform="translate(0 0)"><path d="m  215,1610L520,1610 L520,910 L215,910 " style="fill: none; stroke-width: 2px; stroke: black; stroke-linejoin: round; marker-end: url(&quot;#sequenceflow-end-white-black-7f6ga0yrllayccydv9qyslvgh&quot;);"></path></g><g class="djs-visual" id="Flow_02u0twp" transform="translate(0 0)"><path d="m  190,1635L190,1710 " style="fill: none; stroke-width: 2px; stroke: black; stroke-linejoin: round; marker-end: url(&quot;#sequenceflow-end-white-black-7f6ga0yrllayccydv9qyslvgh&quot;);"></path></g><g class="djs-visual" id="Flow_052yott" transform="translate(0 0)"><path d="m  190,1510L190,1585 " style="fill: none; stroke-width: 2px; stroke: black; stroke-linejoin: round; marker-end: url(&quot;#sequenceflow-end-white-black-7f6ga0yrllayccydv9qyslvgh&quot;);"></path></g><g class="djs-visual" id="Flow_0unh6qf" transform="translate(0 0)"><path d="m  190,1330L190,1410 " style="fill: none; stroke-width: 2px; stroke: black; stroke-linejoin: round; marker-end: url(&quot;#sequenceflow-end-white-black-7f6ga0yrllayccydv9qyslvgh&quot;);"></path></g><g class="djs-visual" id="Flow_1fn34op" transform="translate(0 0)"><path d="m  190,1160L190,1230 " style="fill: none; stroke-width: 2px; stroke: black; stroke-linejoin: round; marker-end: url(&quot;#sequenceflow-end-white-black-7f6ga0yrllayccydv9qyslvgh&quot;);"></path></g><g class="djs-visual" id="Flow_0361mo7" transform="translate(0 0)"><path d="m  190,935L190,1060 " style="fill: none; stroke-width: 2px; stroke: black; stroke-linejoin: round; marker-end: url(&quot;#sequenceflow-end-white-black-7f6ga0yrllayccydv9qyslvgh&quot;);"></path></g><g class="djs-visual" id="Flow_1bs5rj9" transform="translate(0 0)"><path d="m  190,805L190,885 " style="fill: none; stroke-width: 2px; stroke: black; stroke-linejoin: round; marker-end: url(&quot;#sequenceflow-end-white-black-7f6ga0yrllayccydv9qyslvgh&quot;);"></path></g><g class="djs-visual" id="Flow_06rmswd" transform="translate(0 0)"><path d="m  190,690L190,755 " style="fill: none; stroke-width: 2px; stroke: black; stroke-linejoin: round; marker-end: url(&quot;#sequenceflow-end-white-black-7f6ga0yrllayccydv9qyslvgh&quot;);"></path></g><g class="djs-visual" id="Flow_1xtd0sh" transform="translate(0 0)"><path d="m  190,525L190,590 " style="fill: none; stroke-width: 2px; stroke: black; stroke-linejoin: round; marker-end: url(&quot;#sequenceflow-end-white-black-7f6ga0yrllayccydv9qyslvgh&quot;);"></path></g><g class="djs-visual" id="Flow_196yue8" transform="translate(0 0)"><path d="m  190,400L190,475 " style="fill: none; stroke-width: 2px; stroke: black; stroke-linejoin: round; marker-end: url(&quot;#sequenceflow-end-white-black-7f6ga0yrllayccydv9qyslvgh&quot;);"></path></g><g class="djs-visual" id="Flow_08bu8mu" transform="translate(0 0)"><path d="m  190,235L190,300 " style="fill: none; stroke-width: 2px; stroke: black; stroke-linejoin: round; marker-end: url(&quot;#sequenceflow-end-white-black-7f6ga0yrllayccydv9qyslvgh&quot;);"></path></g><g class="djs-visual" id="Flow_0dd9kcl" transform="translate(0 0)"><path d="m  190,130L190,185 " style="fill: none; stroke-width: 2px; stroke: black; stroke-linejoin: round; marker-end: url(&quot;#sequenceflow-end-white-black-7f6ga0yrllayccydv9qyslvgh&quot;);"></path></g><g class="djs-visual" id="Flow_14xfd9r" transform="translate(0 0)"><path d="m  190,-52L190,30 " style="fill: none; stroke-width: 2px; stroke: black; stroke-linejoin: round; marker-end: url(&quot;#sequenceflow-end-white-black-7f6ga0yrllayccydv9qyslvgh&quot;);"></path></g><g class="djs-visual" id="StartEvent_1bm324f" transform="translate(172 -88)"><circle cx="18" cy="18" r="18" style="stroke: black; stroke-width: 2px; fill: white; fill-opacity: 0.95;"></circle></g><g class="djs-visual" id="StartEvent_1bm324f_label" transform="translate(151 -123)"><text lineHeight="1.2" class="djs-label" style="font-family: Arial, sans-serif; font-size: 11px; font-weight: normal; fill: black;"><tspan x="0" y="9.899999999999999">Islamic Finance </tspan><tspan x="13.7421875" y="23.099999999999998">requested</tspan></text></g><g class="djs-visual" id="Activity_075lwyx" transform="translate(125 30)"><rect x="0" y="0" width="130" height="100" rx="10" ry="10" style="stroke: black; stroke-width: 2px; fill: white; fill-opacity: 0.95;"></rect><text lineHeight="1.2" class="djs-label" style="font-family: Arial, sans-serif; font-size: 12px; font-weight: normal; fill: black;"><tspan x="15.1474609375" y="46.4">Receive Customer </tspan><tspan x="44.654296875" y="60.8">request</tspan></text></g><g class="djs-visual" id="DataObjectReference_1emo5ew" transform="translate(22 55)"><path d="m 0,0 28.23529411764706,0 7.058823529411765,8.196721311475411 0,40.98360655737705 -35.294117647058826,0 0,-49.18032786885246 28.23529411764706,0 0,8.196721311475411 7.058823529411765,0" style="fill: white; stroke-width: 2px; stroke: black; fill-opacity: 0.95;"></path></g><g class="djs-visual" id="DataObjectReference_1emo5ew_label" transform="translate(-1 112)"><text lineHeight="1.2" class="djs-label" style="font-family: Arial, sans-serif; font-size: 11px; font-weight: normal; fill: black;"><tspan x="0" y="9.899999999999999">Application Form</tspan></text></g><g class="djs-visual" id="Gateway_09ivdh0" transform="translate(165 185)"><polygon points="25,0 50,25 25,50 0,25" style="stroke: black; stroke-width: 2px; fill: white; fill-opacity: 0.95;"></polygon><path d="m 16,15 7.42857142857143,9.714285714285715 -7.42857142857143,9.714285714285715 3.428571428571429,0 5.714285714285715,-7.464228571428572 5.714285714285715,7.464228571428572 3.428571428571429,0 -7.42857142857143,-9.714285714285715 7.42857142857143,-9.714285714285715 -3.428571428571429,0 -5.714285714285715,7.464228571428572 -5.714285714285715,-7.464228571428572 -3.428571428571429,0 z" style="fill: black; stroke-width: 1px; stroke: black;"></path></g><g class="djs-visual" id="Activity_0f2a5wo" transform="translate(125 300)"><rect x="0" y="0" width="130" height="100" rx="10" ry="10" style="stroke: black; stroke-width: 2px; fill: white; fill-opacity: 0.95;"></rect><text lineHeight="1.2" class="djs-label" style="font-family: Arial, sans-serif; font-size: 12px; font-weight: normal; fill: black;"><tspan x="38.822265625" y="39.2">Check for </tspan><tspan x="20.4765625" y="53.6">completeness of </tspan><tspan x="36.1494140625" y="68">application</tspan></text></g><g class="djs-visual" id="DataObjectReference_0uxrz08" transform="translate(22 325)"><path d="m 0,0 28.23529411764706,0 7.058823529411765,8.196721311475411 0,40.98360655737705 -35.294117647058826,0 0,-49.18032786885246 28.23529411764706,0 0,8.196721311475411 7.058823529411765,0" style="fill: white; stroke-width: 2px; stroke: black; fill-opacity: 0.95;"></path></g><g class="djs-visual" id="DataObjectReference_0uxrz08_label" transform="translate(-1 382)"><text lineHeight="1.2" class="djs-label" style="font-family: Arial, sans-serif; font-size: 11px; font-weight: normal; fill: black;"><tspan x="0" y="9.899999999999999">Application Form</tspan></text></g><g class="djs-visual" id="Gateway_1io1h3k" transform="translate(165 475)"><polygon points="25,0 50,25 25,50 0,25" style="stroke: black; stroke-width: 2px; fill: white; fill-opacity: 0.95;"></polygon><path d="m 16,15 7.42857142857143,9.714285714285715 -7.42857142857143,9.714285714285715 3.428571428571429,0 5.714285714285715,-7.464228571428572 5.714285714285715,7.464228571428572 3.428571428571429,0 -7.42857142857143,-9.714285714285715 7.42857142857143,-9.714285714285715 -3.428571428571429,0 -5.714285714285715,7.464228571428572 -5.714285714285715,-7.464228571428572 -3.428571428571429,0 z" style="fill: black; stroke-width: 1px; stroke: black;"></path></g><g class="djs-visual" id="Activity_02onrjp" transform="translate(125 590)"><rect x="0" y="0" width="130" height="100" rx="10" ry="10" style="stroke: black; stroke-width: 2px; fill: white; fill-opacity: 0.95;"></rect><text lineHeight="1.2" class="djs-label" style="font-family: Arial, sans-serif; font-size: 12px; font-weight: normal; fill: black;"><tspan x="17.1513671875" y="46.4">Review Customer </tspan><tspan x="44.15625" y="60.8">position</tspan></text></g><g class="djs-visual" id="DataObjectReference_1gmdqmf" transform="translate(22 615)"><path d="m 0,0 28.23529411764706,0 7.058823529411765,8.196721311475411 0,40.98360655737705 -35.294117647058826,0 0,-49.18032786885246 28.23529411764706,0 0,8.196721311475411 7.058823529411765,0" style="fill: white; stroke-width: 2px; stroke: black; fill-opacity: 0.95;"></path></g><g class="djs-visual" id="DataObjectReference_1gmdqmf_label" transform="translate(-1 672)"><text lineHeight="1.2" class="djs-label" style="font-family: Arial, sans-serif; font-size: 11px; font-weight: normal; fill: black;"><tspan x="0" y="9.899999999999999">Application Form</tspan></text></g><g class="djs-visual" id="Gateway_0eqqv8z" transform="translate(165 755)"><polygon points="25,0 50,25 25,50 0,25" style="stroke: black; stroke-width: 2px; fill: white; fill-opacity: 0.95;"></polygon><path d="m 16,15 7.42857142857143,9.714285714285715 -7.42857142857143,9.714285714285715 3.428571428571429,0 5.714285714285715,-7.464228571428572 5.714285714285715,7.464228571428572 3.428571428571429,0 -7.42857142857143,-9.714285714285715 7.42857142857143,-9.714285714285715 -3.428571428571429,0 -5.714285714285715,7.464228571428572 -5.714285714285715,-7.464228571428572 -3.428571428571429,0 z" style="fill: black; stroke-width: 1px; stroke: black;"></path></g><g class="djs-visual" id="Gateway_0biuf3v" transform="translate(165 885)"><polygon points="25,0 50,25 25,50 0,25" style="stroke: black; stroke-width: 2px; fill: white; fill-opacity: 0.95;"></polygon><path d="m 16,15 7.42857142857143,9.714285714285715 -7.42857142857143,9.714285714285715 3.428571428571429,0 5.714285714285715,-7.464228571428572 5.714285714285715,7.464228571428572 3.428571428571429,0 -7.42857142857143,-9.714285714285715 7.42857142857143,-9.714285714285715 -3.428571428571429,0 -5.714285714285715,7.464228571428572 -5.714285714285715,-7.464228571428572 -3.428571428571429,0 z" style="fill: black; stroke-width: 1px; stroke: black;"></path></g><g class="djs-visual" id="Activity_0hm5q9f" transform="translate(125 1060)"><rect x="0" y="0" width="130" height="100" rx="10" ry="10" style="stroke: black; stroke-width: 2px; fill: white; fill-opacity: 0.95;"></rect><text lineHeight="1.2" class="djs-label" style="font-family: Arial, sans-serif; font-size: 12px; font-weight: normal; fill: black;"><tspan x="10.482421875" y="53.599999999999994">Carry out Simulation</tspan></text></g><g class="djs-visual" id="DataObjectReference_1gszmzq" transform="translate(342 1090)"><path d="m 0,0 28.23529411764706,0 7.058823529411765,8.196721311475411 0,40.98360655737705 -35.294117647058826,0 0,-49.18032786885246 28.23529411764706,0 0,8.196721311475411 7.058823529411765,0" style="fill: white; stroke-width: 2px; stroke: black; fill-opacity: 0.95;"></path></g><g class="djs-visual" id="DataObjectReference_1gszmzq_label" transform="translate(331 1147)"><text lineHeight="1.2" class="djs-label" style="font-family: Arial, sans-serif; font-size: 11px; font-weight: normal; fill: black;"><tspan x="0" y="9.899999999999999">Repayment </tspan><tspan x="5.66015625" y="23.099999999999998">Schedule</tspan></text></g><g class="djs-visual" id="Activity_1hgezrn" transform="translate(125 1230)"><rect x="0" y="0" width="130" height="100" rx="10" ry="10" style="stroke: black; stroke-width: 2px; fill: white; fill-opacity: 0.95;"></rect><text lineHeight="1.2" class="djs-label" style="font-family: Arial, sans-serif; font-size: 12px; font-weight: normal; fill: black;"><tspan x="21.484375" y="46.4">Display result of </tspan><tspan x="37.8251953125" y="60.8">simulation</tspan></text></g><g class="djs-visual" id="Activity_1spawiw" transform="translate(125 1410)"><rect x="0" y="0" width="130" height="100" rx="10" ry="10" style="stroke: black; stroke-width: 2px; fill: white; fill-opacity: 0.95;"></rect><text lineHeight="1.2" class="djs-label" style="font-family: Arial, sans-serif; font-size: 12px; font-weight: normal; fill: black;"><tspan x="16.4853515625" y="46.4">Review simulation </tspan><tspan x="47.328125" y="60.8">results</tspan></text></g><g class="djs-visual" id="Gateway_0ujaqc8" transform="translate(165 1585)"><polygon points="25,0 50,25 25,50 0,25" style="stroke: black; stroke-width: 2px; fill: white; fill-opacity: 0.95;"></polygon><path d="m 16,15 7.42857142857143,9.714285714285715 -7.42857142857143,9.714285714285715 3.428571428571429,0 5.714285714285715,-7.464228571428572 5.714285714285715,7.464228571428572 3.428571428571429,0 -7.42857142857143,-9.714285714285715 7.42857142857143,-9.714285714285715 -3.428571428571429,0 -5.714285714285715,7.464228571428572 -5.714285714285715,-7.464228571428572 -3.428571428571429,0 z" style="fill: black; stroke-width: 1px; stroke: black;"></path></g><g class="djs-visual" id="Activity_0t31isl" transform="translate(125 1710)"><rect x="0" y="0" width="130" height="100" rx="10" ry="10" style="stroke: black; stroke-width: 2px; fill: white; fill-opacity: 0.95;"></rect><text lineHeight="1.2" class="djs-label" style="font-family: Arial, sans-serif; font-size: 12px; font-weight: normal; fill: black;"><tspan x="12.4775390625" y="39.2">Forward application </tspan><tspan x="14.8017578125" y="53.6">and documents for </tspan><tspan x="22.478515625" y="68">Credit Appraisal</tspan></text></g><g class="djs-visual" id="DataObjectReference_158qxng" transform="translate(22 1735)"><path d="m 0,0 28.23529411764706,0 7.058823529411765,8.196721311475411 0,40.98360655737705 -35.294117647058826,0 0,-49.18032786885246 28.23529411764706,0 0,8.196721311475411 7.058823529411765,0" style="fill: white; stroke-width: 2px; stroke: black; fill-opacity: 0.95;"></path></g><g class="djs-visual" id="DataObjectReference_158qxng_label" transform="translate(-1 1792)"><text lineHeight="1.2" class="djs-label" style="font-family: Arial, sans-serif; font-size: 11px; font-weight: normal; fill: black;"><tspan x="0" y="9.899999999999999">Application Form</tspan></text></g><g class="djs-visual" id="Gateway_0asjfsr" transform="translate(635 885)"><polygon points="25,0 50,25 25,50 0,25" style="stroke: black; stroke-width: 2px; fill: white; fill-opacity: 0.95;"></polygon><path d="m 16,15 7.42857142857143,9.714285714285715 -7.42857142857143,9.714285714285715 3.428571428571429,0 5.714285714285715,-7.464228571428572 5.714285714285715,7.464228571428572 3.428571428571429,0 -7.42857142857143,-9.714285714285715 7.42857142857143,-9.714285714285715 -3.428571428571429,0 -5.714285714285715,7.464228571428572 -5.714285714285715,-7.464228571428572 -3.428571428571429,0 z" style="fill: black; stroke-width: 1px; stroke: black;"></path></g><g class="djs-visual" id="Activity_1cvdg1t" transform="translate(595 990)"><rect x="0" y="0" width="130" height="100" rx="10" ry="10" style="stroke: black; stroke-width: 2px; fill: white; fill-opacity: 0.95;"></rect><text lineHeight="1.2" class="djs-label" style="font-family: Arial, sans-serif; font-size: 12px; font-weight: normal; fill: black;"><tspan x="17.4755859375" y="53.599999999999994">Reject application</tspan></text></g><g class="djs-visual" id="Event_08dtaix" transform="translate(642 1152)"><circle cx="18" cy="18" r="18" style="stroke: black; stroke-width: 4px; fill: white; fill-opacity: 0.95;"></circle></g><g class="djs-visual" id="Event_08dtaix_label" transform="translate(613 1195)"><text lineHeight="1.2" class="djs-label" style="font-family: Arial, sans-serif; font-size: 11px; font-weight: normal; fill: black;"><tspan x="0" y="9.899999999999999">Application rejected</tspan></text></g><g class="djs-visual" id="Activity_0nissf9" transform="translate(755 590)"><rect x="0" y="0" width="130" height="100" rx="10" ry="10" style="stroke: black; stroke-width: 2px; fill: white; fill-opacity: 0.95;"></rect><text lineHeight="1.2" class="djs-label" style="font-family: Arial, sans-serif; font-size: 12px; font-weight: normal; fill: black;"><tspan x="7.4775390625" y="39.2">Contact Customer for </tspan><tspan x="14.4697265625" y="53.6">obtaining complete </tspan><tspan x="47.65625" y="68">details</tspan></text></g><g class="djs-visual" id="Gateway_0aqpyki" transform="translate(795 755)"><polygon points="25,0 50,25 25,50 0,25" style="stroke: black; stroke-width: 2px; fill: white; fill-opacity: 0.95;"></polygon><path d="m 16,15 7.42857142857143,9.714285714285715 -7.42857142857143,9.714285714285715 3.428571428571429,0 5.714285714285715,-7.464228571428572 5.714285714285715,7.464228571428572 3.428571428571429,0 -7.42857142857143,-9.714285714285715 7.42857142857143,-9.714285714285715 -3.428571428571429,0 -5.714285714285715,7.464228571428572 -5.714285714285715,-7.464228571428572 -3.428571428571429,0 z" style="fill: black; stroke-width: 1px; stroke: black;"></path></g><g class="djs-visual" id="Activity_0y7d09a" transform="translate(945 860)"><rect x="0" y="0" width="130" height="100" rx="10" ry="10" style="stroke: black; stroke-width: 2px; fill: white; fill-opacity: 0.95;"></rect><text lineHeight="1.2" class="djs-label" style="font-family: Arial, sans-serif; font-size: 12px; font-weight: normal; fill: black;"><tspan x="15.8017578125" y="39.2">Receive additional </tspan><tspan x="23.654296875" y="53.6">particulars from </tspan><tspan x="38.4912109375" y="68">Customer</tspan></text></g><g class="djs-visual" id="DataObjectReference_06im9dl" transform="translate(852 885)"><path d="m 0,0 28.23529411764706,0 7.058823529411765,8.196721311475411 0,40.98360655737705 -35.294117647058826,0 0,-49.18032786885246 28.23529411764706,0 0,8.196721311475411 7.058823529411765,0" style="fill: white; stroke-width: 2px; stroke: black; fill-opacity: 0.95;"></path></g><g class="djs-visual" id="DataObjectReference_06im9dl_label" transform="translate(829 942)"><text lineHeight="1.2" class="djs-label" style="font-family: Arial, sans-serif; font-size: 11px; font-weight: normal; fill: black;"><tspan x="0" y="9.899999999999999">Application Form</tspan></text></g><g class="djs-visual" id="Activity_11dbd9u" transform="translate(125 1880)"><rect x="0" y="0" width="130" height="100" rx="10" ry="10" style="stroke: black; stroke-width: 2px; fill: white; fill-opacity: 0.95;"></rect><text lineHeight="1.2" class="djs-label" style="font-family: Arial, sans-serif; font-size: 12px; font-weight: normal; fill: black;"><tspan x="20.4873046875" y="46.4">Perform Finance </tspan><tspan x="40.484375" y="60.8">appraisal</tspan></text></g><g class="djs-visual" id="DataObjectReference_0660x8h" transform="translate(22 1905)"><path d="m 0,0 28.23529411764706,0 7.058823529411765,8.196721311475411 0,40.98360655737705 -35.294117647058826,0 0,-49.18032786885246 28.23529411764706,0 0,8.196721311475411 7.058823529411765,0" style="fill: white; stroke-width: 2px; stroke: black; fill-opacity: 0.95;"></path></g><g class="djs-visual" id="DataObjectReference_0660x8h_label" transform="translate(-1 1962)"><text lineHeight="1.2" class="djs-label" style="font-family: Arial, sans-serif; font-size: 11px; font-weight: normal; fill: black;"><tspan x="0" y="9.899999999999999">Application Form</tspan></text></g><g class="djs-visual" id="Gateway_06564fk" transform="translate(165 2045)"><polygon points="25,0 50,25 25,50 0,25" style="stroke: black; stroke-width: 2px; fill: white; fill-opacity: 0.95;"></polygon><path d="m 16,15 7.42857142857143,9.714285714285715 -7.42857142857143,9.714285714285715 3.428571428571429,0 5.714285714285715,-7.464228571428572 5.714285714285715,7.464228571428572 3.428571428571429,0 -7.42857142857143,-9.714285714285715 7.42857142857143,-9.714285714285715 -3.428571428571429,0 -5.714285714285715,7.464228571428572 -5.714285714285715,-7.464228571428572 -3.428571428571429,0 z" style="fill: black; stroke-width: 1px; stroke: black;"></path></g><g class="djs-visual" id="Activity_03apiwz" transform="translate(125 2160)"><rect x="0" y="0" width="130" height="100" rx="10" ry="10" style="stroke: black; stroke-width: 2px; fill: white; fill-opacity: 0.95;"></rect><text lineHeight="1.2" class="djs-label" style="font-family: Arial, sans-serif; font-size: 12px; font-weight: normal; fill: black;"><tspan x="28.9951171875" y="39.2">Check if limit/ </tspan><tspan x="16.9765625" y="53.6">collateral set up is </tspan><tspan x="42.8232421875" y="68">required</tspan></text></g><g class="djs-visual" id="Gateway_1volvc3" transform="translate(165 2325)"><polygon points="25,0 50,25 25,50 0,25" style="stroke: black; stroke-width: 2px; fill: white; fill-opacity: 0.95;"></polygon><path d="m 16,15 7.42857142857143,9.714285714285715 -7.42857142857143,9.714285714285715 3.428571428571429,0 5.714285714285715,-7.464228571428572 5.714285714285715,7.464228571428572 3.428571428571429,0 -7.42857142857143,-9.714285714285715 7.42857142857143,-9.714285714285715 -3.428571428571429,0 -5.714285714285715,7.464228571428572 -5.714285714285715,-7.464228571428572 -3.428571428571429,0 z" style="fill: black; stroke-width: 1px; stroke: black;"></path></g><g class="djs-visual" id="Gateway_0futz19" transform="translate(165 2755)"><polygon points="25,0 50,25 25,50 0,25" style="stroke: black; stroke-width: 2px; fill: white; fill-opacity: 0.95;"></polygon><path d="m 16,15 7.42857142857143,9.714285714285715 -7.42857142857143,9.714285714285715 3.428571428571429,0 5.714285714285715,-7.464228571428572 5.714285714285715,7.464228571428572 3.428571428571429,0 -7.42857142857143,-9.714285714285715 7.42857142857143,-9.714285714285715 -3.428571428571429,0 -5.714285714285715,7.464228571428572 -5.714285714285715,-7.464228571428572 -3.428571428571429,0 z" style="fill: black; stroke-width: 1px; stroke: black;"></path></g><g class="djs-visual" id="Activity_035akt4" transform="translate(125 2860)"><rect x="0" y="0" width="130" height="100" rx="10" ry="10" style="stroke: black; stroke-width: 2px; fill: white; fill-opacity: 0.95;"></rect><text lineHeight="1.2" class="djs-label" style="font-family: Arial, sans-serif; font-size: 12px; font-weight: normal; fill: black;"><tspan x="14.63671875" y="39.2">Decide on manual/ </tspan><tspan x="40.8193359375" y="53.6">schedule </tspan><tspan x="28.6494140625" y="68">disbursement</tspan></text></g><g class="djs-visual" id="Gateway_0hs0lxe" transform="translate(165 3025)"><polygon points="25,0 50,25 25,50 0,25" style="stroke: black; stroke-width: 2px; fill: white; fill-opacity: 0.95;"></polygon><path d="m 16,15 7.42857142857143,9.714285714285715 -7.42857142857143,9.714285714285715 3.428571428571429,0 5.714285714285715,-7.464228571428572 5.714285714285715,7.464228571428572 3.428571428571429,0 -7.42857142857143,-9.714285714285715 7.42857142857143,-9.714285714285715 -3.428571428571429,0 -5.714285714285715,7.464228571428572 -5.714285714285715,-7.464228571428572 -3.428571428571429,0 z" style="fill: black; stroke-width: 1px; stroke: black;"></path></g><g class="djs-visual" id="Event_1aiybct" transform="translate(172 3142)"><circle cx="18" cy="18" r="18" style="stroke: black; stroke-width: 4px; fill: white; fill-opacity: 0.95;"></circle></g><g class="djs-visual" id="Event_1aiybct_label" transform="translate(156 3178)"><text lineHeight="1.2" class="djs-label" style="font-family: Arial, sans-serif; font-size: 11px; font-weight: normal; fill: black;"><tspan x="16.084228515625" y="9.899999999999999">Manual </tspan><tspan x="0" y="23.099999999999998">Disbursement </tspan><tspan x="14.221435546875" y="36.3">required</tspan></text></g><g class="djs-visual" id="Event_1ndxsd9" transform="translate(342 3142)"><circle cx="18" cy="18" r="18" style="stroke: black; stroke-width: 4px; fill: white; fill-opacity: 0.95;"></circle></g><g class="djs-visual" id="Event_1ndxsd9_label" transform="translate(326 3178)"><text lineHeight="1.2" class="djs-label" style="font-family: Arial, sans-serif; font-size: 11px; font-weight: normal; fill: black;"><tspan x="8.401123046875" y="9.899999999999999">Scheduled </tspan><tspan x="0" y="23.099999999999998">Disbursement </tspan><tspan x="14.221435546875" y="36.3">required</tspan></text></g><g class="djs-visual" id="Activity_0nxid6w" transform="translate(355 2420)"><rect x="0" y="0" width="130" height="100" rx="10" ry="10" style="stroke: black; stroke-width: 5px; fill: white; fill-opacity: 0.95;"></rect><text lineHeight="1.2" class="djs-label" style="font-family: Arial, sans-serif; font-size: 12px; font-weight: normal; fill: black;"><tspan x="22.1396484375" y="46.4">Create and Link </tspan><tspan x="10.984375" y="60.8">Collateral (IF) (PBA)</tspan></text><rect x="0" y="0" width="14" height="14" rx="0" ry="0" style="stroke: black; stroke-width: 1px; fill: white;" transform="matrix(1 0 0 1 57.5 80)"></rect><path d="m57.5,80 m 7,2 l 0,10 m -5,-5 l 10,0" data-marker="sub-process" style="fill: white; stroke-width: 2px; stroke: black;"></path></g><g class="djs-visual" id="Activity_0u4zui4" transform="translate(355 2600)"><rect x="0" y="0" width="130" height="100" rx="10" ry="10" style="stroke: black; stroke-width: 5px; fill: white; fill-opacity: 0.95;"></rect><text lineHeight="1.2" class="djs-label" style="font-family: Arial, sans-serif; font-size: 12px; font-weight: normal; fill: black;"><tspan x="21.3203125" y="46.4">Set Up Limit (IF) </tspan><tspan x="48.9921875" y="60.8">(PBA)</tspan></text><rect x="0" y="0" width="14" height="14" rx="0" ry="0" style="stroke: black; stroke-width: 1px; fill: white;" transform="matrix(1 0 0 1 57.5 80)"></rect><path d="m57.5,80 m 7,2 l 0,10 m -5,-5 l 10,0" data-marker="sub-process" style="fill: white; stroke-width: 2px; stroke: black;"></path></g><g class="djs-visual" id="TextAnnotation_1rfzvks" transform="translate(300 -30)"><rect x="0" y="0" width="240" height="70" rx="0" ry="0" style="stroke: none; stroke-width: 2px; fill: none;"></rect><path d="m 0, 0 m 10,0 l -10,0 l 0,70 l 10,0" style="fill: none; stroke-width: 2px; stroke: black;"></path><text lineHeight="1.2" class="djs-label" style="font-family: Arial, sans-serif; font-size: 12px; font-weight: normal; fill: black;"><tspan x="5" y="15.799999999999999">The Customer signs a Finance Request </tspan><tspan x="5" y="30.199999999999996">form. Additionally Customer eligible </tspan><tspan x="5" y="44.599999999999994">documents like Bank statements, Balance </tspan><tspan x="5" y="58.99999999999999">Sheet etc. will be requested.</tspan></text></g><g class="djs-visual" id="TextAnnotation_1ev6jyt" transform="translate(300 929)"><rect x="0" y="0" width="190" height="142" rx="0" ry="0" style="stroke: none; stroke-width: 2px; fill: none;"></rect><path d="m 0, 0 m 10,0 l -10,0 l 0,142 l 10,0" style="fill: none; stroke-width: 2px; stroke: black;"></path><text lineHeight="1.2" class="djs-label" style="font-family: Arial, sans-serif; font-size: 12px; font-weight: normal; fill: black;"><tspan x="5" y="15.799999999999999">Following details are input:</tspan><tspan x="5" y="30.199999999999996">1. Customer Number</tspan><tspan x="5" y="44.599999999999994">2. Finance Amount</tspan><tspan x="5" y="58.99999999999999">3. Repayment Frequency</tspan><tspan x="5" y="73.39999999999999">4. Term</tspan><tspan x="5" y="87.79999999999998">5. Profit Rate</tspan><tspan x="5" y="102.19999999999999">On validation, the system gives </tspan><tspan x="5" y="116.6">profit amount, instalment amount </tspan><tspan x="5" y="131">and final pay date.</tspan></text></g><g class="djs-visual" id="TextAnnotation_0fme6ju" transform="translate(300 1350)"><rect x="0" y="0" width="170" height="40" rx="0" ry="0" style="stroke: none; stroke-width: 2px; fill: none;"></rect><path d="m 0, 0 m 10,0 l -10,0 l 0,40 l 10,0" style="fill: none; stroke-width: 2px; stroke: black;"></path><text lineHeight="1.2" class="djs-label" style="font-family: Arial, sans-serif; font-size: 12px; font-weight: normal; fill: black;"><tspan x="5" y="15.799999999999999">Customer can either accept </tspan><tspan x="5" y="30.199999999999996">the simulation or re-simulate</tspan></text></g><g class="djs-visual" id="TextAnnotation_18jvp2k" transform="translate(300 1650)"><rect x="0" y="0" width="135" height="40" rx="0" ry="0" style="stroke: none; stroke-width: 2px; fill: none;"></rect><path d="m 0, 0 m 10,0 l -10,0 l 0,40 l 10,0" style="fill: none; stroke-width: 2px; stroke: black;"></path><text lineHeight="1.2" class="djs-label" style="font-family: Arial, sans-serif; font-size: 12px; font-weight: normal; fill: black;"><tspan x="5" y="15.799999999999999">Simulation result can </tspan><tspan x="5" y="30.199999999999996">also be forwarded</tspan></text></g><g class="djs-visual" id="TextAnnotation_1cursah" transform="translate(300 -85)"><rect x="0" y="0" width="330" height="30" rx="0" ry="0" style="stroke: none; stroke-width: 2px; fill: none;"></rect><path d="m 0, 0 m 10,0 l -10,0 l 0,30 l 10,0" style="fill: none; stroke-width: 2px; stroke: black;"></path><text lineHeight="1.2" class="djs-label" style="font-family: Arial, sans-serif; font-size: 12px; font-weight: normal; fill: black;"><tspan x="5" y="15.799999999999999">Assumption: A Customer record has already been created.</tspan></text></g><g class="djs-visual" id="DataInputAssociation_1jogkj8" transform="translate(0 0)"><polyline points="58,80 125,80 " style="fill: none; stroke: black; stroke-width: 2px; stroke-dasharray: 0.5, 5; stroke-linecap: round; stroke-linejoin: round; marker-end: url(&quot;#association-end-white-black-7f6ga0yrllayccydv9qyslvgh&quot;);"></polyline></g><g class="djs-visual" id="DataInputAssociation_1ki1fk9" transform="translate(0 0)"><polyline points="58,350 125,350 " style="fill: none; stroke: black; stroke-width: 2px; stroke-dasharray: 0.5, 5; stroke-linecap: round; stroke-linejoin: round; marker-end: url(&quot;#association-end-white-black-7f6ga0yrllayccydv9qyslvgh&quot;);"></polyline></g><g class="djs-visual" id="DataInputAssociation_0echxy4" transform="translate(0 0)"><polyline points="58,640 125,640 " style="fill: none; stroke: black; stroke-width: 2px; stroke-dasharray: 0.5, 5; stroke-linecap: round; stroke-linejoin: round; marker-end: url(&quot;#association-end-white-black-7f6ga0yrllayccydv9qyslvgh&quot;);"></polyline></g><g class="djs-visual" id="Flow_1xtd0sh_label" transform="translate(204 546)"><text lineHeight="1.2" class="djs-label" style="font-family: Arial, sans-serif; font-size: 11px; font-weight: normal; fill: black;"><tspan x="0" y="9.899999999999999">Application </tspan><tspan x="4.09375" y="23.099999999999998">complete</tspan></text></g><g class="djs-visual" id="Flow_1bs5rj9_label" transform="translate(198 816)"><text lineHeight="1.2" class="djs-label" style="font-family: Arial, sans-serif; font-size: 11px; font-weight: normal; fill: black;"><tspan x="0" y="9.899999999999999">Financing can be </tspan><tspan x="20.7890625" y="23.099999999999998">provided</tspan></text></g><g class="djs-visual" id="DataOutputAssociation_1eh72d6" transform="translate(0 0)"><polyline points="255,1110 342,1110 " style="fill: none; stroke: black; stroke-width: 2px; stroke-dasharray: 0.5, 5; stroke-linecap: round; stroke-linejoin: round; marker-end: url(&quot;#association-end-white-black-7f6ga0yrllayccydv9qyslvgh&quot;);"></polyline></g><g class="djs-visual" id="DataInputAssociation_0166h8n" transform="translate(0 0)"><polyline points="58,1760 125,1760 " style="fill: none; stroke: black; stroke-width: 2px; stroke-dasharray: 0.5, 5; stroke-linecap: round; stroke-linejoin: round; marker-end: url(&quot;#association-end-white-black-7f6ga0yrllayccydv9qyslvgh&quot;);"></polyline></g><g class="djs-visual" id="Flow_02u0twp_label" transform="translate(198 1646)"><text lineHeight="1.2" class="djs-label" style="font-family: Arial, sans-serif; font-size: 11px; font-weight: normal; fill: black;"><tspan x="0" y="9.899999999999999">Resimulation not </tspan><tspan x="21.257568359375" y="23.099999999999998">required</tspan></text></g><g class="djs-visual" id="Flow_12smxrv_label" transform="translate(268 1576)"><text lineHeight="1.2" class="djs-label" style="font-family: Arial, sans-serif; font-size: 11px; font-weight: normal; fill: black;"><tspan x="0" y="9.899999999999999">Resimulation </tspan><tspan x="11.6171875" y="23.099999999999998">required</tspan></text></g><g class="djs-visual" id="Flow_00a3m9k_label" transform="translate(250 746)"><text lineHeight="1.2" class="djs-label" style="font-family: Arial, sans-serif; font-size: 11px; font-weight: normal; fill: black;"><tspan x="0" y="9.899999999999999">Financing cannot be </tspan><tspan x="28.4375" y="23.099999999999998">provided</tspan></text></g><g class="djs-visual" id="Flow_1ai6zsk_label" transform="translate(273 466)"><text lineHeight="1.2" class="djs-label" style="font-family: Arial, sans-serif; font-size: 11px; font-weight: normal; fill: black;"><tspan x="0.1875" y="9.899999999999999">Application </tspan><tspan x="0" y="23.099999999999998">incomplete</tspan></text></g><g class="djs-visual" id="Flow_113lqzz_label" transform="translate(833 810)"><text lineHeight="1.2" class="djs-label" style="font-family: Arial, sans-serif; font-size: 11px; font-weight: normal; fill: black;"><tspan x="0" y="9.899999999999999">Customer does not </tspan><tspan x="3.548095703125" y="23.099999999999998">provide additional </tspan><tspan x="21.319580078125" y="36.3">particulars</tspan></text></g><g class="djs-visual" id="DataInputAssociation_0frb3zp" transform="translate(0 0)"><polyline points="888,910 945,910 " style="fill: none; stroke: black; stroke-width: 2px; stroke-dasharray: 0.5, 5; stroke-linecap: round; stroke-linejoin: round; marker-end: url(&quot;#association-end-white-black-7f6ga0yrllayccydv9qyslvgh&quot;);"></polyline></g><g class="djs-visual" id="Flow_0x4nrtk_label" transform="translate(870 740)"><text lineHeight="1.2" class="djs-label" style="font-family: Arial, sans-serif; font-size: 11px; font-weight: normal; fill: black;"><tspan x="4.288818359375" y="9.899999999999999">Customer provides </tspan><tspan x="0" y="23.099999999999998">additional particulars</tspan></text></g><g class="djs-visual" id="DataInputAssociation_0suf541" transform="translate(0 0)"><polyline points="58,1930 125,1930 " style="fill: none; stroke: black; stroke-width: 2px; stroke-dasharray: 0.5, 5; stroke-linecap: round; stroke-linejoin: round; marker-end: url(&quot;#association-end-white-black-7f6ga0yrllayccydv9qyslvgh&quot;);"></polyline></g><g class="djs-visual" id="Flow_1avmhmq_label" transform="translate(213 2100)"><text lineHeight="1.2" class="djs-label" style="font-family: Arial, sans-serif; font-size: 11px; font-weight: normal; fill: black;"><tspan x="0" y="9.899999999999999">Finance application </tspan><tspan x="24.4609375" y="23.099999999999998">approved</tspan></text></g><g class="djs-visual" id="Flow_05filpr_label" transform="translate(312 2022)"><text lineHeight="1.2" class="djs-label" style="font-family: Arial, sans-serif; font-size: 11px; font-weight: normal; fill: black;"><tspan x="0" y="9.899999999999999">Finance application </tspan><tspan x="27.828125" y="23.099999999999998">rejected</tspan></text></g><g class="djs-visual" id="Flow_1vcwtq8_label" transform="translate(202 2390)"><text lineHeight="1.2" class="djs-label" style="font-family: Arial, sans-serif; font-size: 11px; font-weight: normal; fill: black;"><tspan x="0" y="9.899999999999999">Limit/ Collateral set </tspan><tspan x="10.238037109375" y="23.099999999999998">up not required</tspan></text></g><g class="djs-visual" id="Flow_0cn9clq_label" transform="translate(232 2316)"><text lineHeight="1.2" class="djs-label" style="font-family: Arial, sans-serif; font-size: 11px; font-weight: normal; fill: black;"><tspan x="0" y="9.899999999999999">Limit/ Collateral set </tspan><tspan x="19.409912109375" y="23.099999999999998">up required</tspan></text></g><g class="djs-visual" id="Flow_1f3mxh2_label" transform="translate(427 2739)"><text lineHeight="1.2" class="djs-label" style="font-family: Arial, sans-serif; font-size: 11px; font-weight: normal; fill: black;"><tspan x="0" y="9.899999999999999">Limit created</tspan></text></g><g class="djs-visual" id="Flow_19bac8g_label" transform="translate(436 2553)"><text lineHeight="1.2" class="djs-label" style="font-family: Arial, sans-serif; font-size: 11px; font-weight: normal; fill: black;"><tspan x="0" y="9.899999999999999">Collateral created</tspan></text></g><g class="djs-visual" id="Association_1h2z8gw" transform="translate(0 0)"><polyline points="254,36 300,3 " style="fill: none; stroke: black; stroke-width: 2px; stroke-dasharray: 0.5, 5; stroke-linecap: round; stroke-linejoin: round;"></polyline></g><g class="djs-visual" id="Association_0x27bed" transform="translate(0 0)"><polyline points="240,1060 300,998 " style="fill: none; stroke: black; stroke-width: 2px; stroke-dasharray: 0.5, 5; stroke-linecap: round; stroke-linejoin: round;"></polyline></g><g class="djs-visual" id="Association_1f38zr8" transform="translate(0 0)"><polyline points="254,1416 300,1385 " style="fill: none; stroke: black; stroke-width: 2px; stroke-dasharray: 0.5, 5; stroke-linecap: round; stroke-linejoin: round;"></polyline></g><g class="djs-visual" id="Association_0gm4tq2" transform="translate(0 0)"><polyline points="250,1712 300,1672 " style="fill: none; stroke: black; stroke-width: 2px; stroke-dasharray: 0.5, 5; stroke-linecap: round; stroke-linejoin: round;"></polyline></g></g><g><rect class="viewport" x="-3839.5177664974617" y="-128.89340101522842" width="8807.106598984772" height="3350.2538071065987"></rect></g></svg>