<svg width="100%" height="100%" viewBox="-50, -50, 1835, 2618"><g><g class="djs-visual" id="Flow_1lhxo29" transform="translate(0 0)"><path d="m  285,2160L535,2160 L535,2292 " style="fill: none; stroke-width: 2px; stroke: black; stroke-linejoin: round; marker-end: url(&quot;#sequenceflow-end-white-black-9hs5tq37kaykb9ypjatdfnl02&quot;);"></path></g><g class="djs-visual" id="Flow_0utac8n" transform="translate(0 0)"><path d="m  260,2360L260,2442 " style="fill: none; stroke-width: 2px; stroke: black; stroke-linejoin: round; marker-end: url(&quot;#sequenceflow-end-white-black-9hs5tq37kaykb9ypjatdfnl02&quot;);"></path></g><g class="djs-visual" id="Flow_17hq97n" transform="translate(0 0)"><path d="m  260,2185L260,2260 " style="fill: none; stroke-width: 2px; stroke: black; stroke-linejoin: round; marker-end: url(&quot;#sequenceflow-end-white-black-9hs5tq37kaykb9ypjatdfnl02&quot;);"></path></g><g class="djs-visual" id="Flow_187i8ox" transform="translate(0 0)"><path d="m  260,2070L260,2135 " style="fill: none; stroke-width: 2px; stroke: black; stroke-linejoin: round; marker-end: url(&quot;#sequenceflow-end-white-black-9hs5tq37kaykb9ypjatdfnl02&quot;);"></path></g><g class="djs-visual" id="Flow_1nbdqet" transform="translate(0 0)"><path d="m  260,1900L260,1970 " style="fill: none; stroke-width: 2px; stroke: black; stroke-linejoin: round; marker-end: url(&quot;#sequenceflow-end-white-black-9hs5tq37kaykb9ypjatdfnl02&quot;);"></path></g><g class="djs-visual" id="Flow_0y4i5te" transform="translate(0 0)"><path d="m  1310,1130L1310,1190 L1450,1190 L1450,370 L285,370 " style="fill: none; stroke-width: 2px; stroke: black; stroke-linejoin: round; marker-end: url(&quot;#sequenceflow-end-white-black-9hs5tq37kaykb9ypjatdfnl02&quot;);"></path></g><g class="djs-visual" id="Flow_17xaxh5" transform="translate(0 0)"><path d="m  1115,920L1310,920 L1310,1030 " style="fill: none; stroke-width: 2px; stroke: black; stroke-linejoin: round; marker-end: url(&quot;#sequenceflow-end-white-black-9hs5tq37kaykb9ypjatdfnl02&quot;);"></path></g><g class="djs-visual" id="Flow_1vqmbeo" transform="translate(0 0)"><path d="m  1090,945L1090,1040 L925,1040 " style="fill: none; stroke-width: 2px; stroke: black; stroke-linejoin: round; marker-end: url(&quot;#sequenceflow-end-white-black-9hs5tq37kaykb9ypjatdfnl02&quot;);"></path></g><g class="djs-visual" id="Flow_19ffww0" transform="translate(0 0)"><path d="m  1090,830L1090,895 " style="fill: none; stroke-width: 2px; stroke: black; stroke-linejoin: round; marker-end: url(&quot;#sequenceflow-end-white-black-9hs5tq37kaykb9ypjatdfnl02&quot;);"></path></g><g class="djs-visual" id="Flow_1skl4ff" transform="translate(0 0)"><path d="m  285,640L1090,640 L1090,730 " style="fill: none; stroke-width: 2px; stroke: black; stroke-linejoin: round; marker-end: url(&quot;#sequenceflow-end-white-black-9hs5tq37kaykb9ypjatdfnl02&quot;);"></path></g><g class="djs-visual" id="Flow_147h8uf" transform="translate(0 0)"><path d="m  900,1230L900,1292 " style="fill: none; stroke-width: 2px; stroke: black; stroke-linejoin: round; marker-end: url(&quot;#sequenceflow-end-white-black-9hs5tq37kaykb9ypjatdfnl02&quot;);"></path></g><g class="djs-visual" id="Flow_19g6xx4" transform="translate(0 0)"><path d="m  900,1065L900,1130 " style="fill: none; stroke-width: 2px; stroke: black; stroke-linejoin: round; marker-end: url(&quot;#sequenceflow-end-white-black-9hs5tq37kaykb9ypjatdfnl02&quot;);"></path></g><g class="djs-visual" id="Flow_09z7e3a" transform="translate(0 0)"><path d="m  285,920L900,920 L900,1015 " style="fill: none; stroke-width: 2px; stroke: black; stroke-linejoin: round; marker-end: url(&quot;#sequenceflow-end-white-black-9hs5tq37kaykb9ypjatdfnl02&quot;);"></path></g><g class="djs-visual" id="Flow_06dacn4" transform="translate(0 0)"><path d="m  285,1710L730,1710 L730,1040 L285,1040 " style="fill: none; stroke-width: 2px; stroke: black; stroke-linejoin: round; marker-end: url(&quot;#sequenceflow-end-white-black-9hs5tq37kaykb9ypjatdfnl02&quot;);"></path></g><g class="djs-visual" id="Flow_0ur5uoz" transform="translate(0 0)"><path d="m  260,1735L260,1800 " style="fill: none; stroke-width: 2px; stroke: black; stroke-linejoin: round; marker-end: url(&quot;#sequenceflow-end-white-black-9hs5tq37kaykb9ypjatdfnl02&quot;);"></path></g><g class="djs-visual" id="Flow_1ggyanm" transform="translate(0 0)"><path d="m  260,1620L260,1685 " style="fill: none; stroke-width: 2px; stroke: black; stroke-linejoin: round; marker-end: url(&quot;#sequenceflow-end-white-black-9hs5tq37kaykb9ypjatdfnl02&quot;);"></path></g><g class="djs-visual" id="Flow_0wbtxzp" transform="translate(0 0)"><path d="m  260,1450L260,1520 " style="fill: none; stroke-width: 2px; stroke: black; stroke-linejoin: round; marker-end: url(&quot;#sequenceflow-end-white-black-9hs5tq37kaykb9ypjatdfnl02&quot;);"></path></g><g class="djs-visual" id="Flow_02k5qcu" transform="translate(0 0)"><path d="m  260,1280L260,1350 " style="fill: none; stroke-width: 2px; stroke: black; stroke-linejoin: round; marker-end: url(&quot;#sequenceflow-end-white-black-9hs5tq37kaykb9ypjatdfnl02&quot;);"></path></g><g class="djs-visual" id="Flow_0t718qo" transform="translate(0 0)"><path d="m  260,1065L260,1180 " style="fill: none; stroke-width: 2px; stroke: black; stroke-linejoin: round; marker-end: url(&quot;#sequenceflow-end-white-black-9hs5tq37kaykb9ypjatdfnl02&quot;);"></path></g><g class="djs-visual" id="Flow_04skh3y" transform="translate(0 0)"><path d="m  260,945L260,1015 " style="fill: none; stroke-width: 2px; stroke: black; stroke-linejoin: round; marker-end: url(&quot;#sequenceflow-end-white-black-9hs5tq37kaykb9ypjatdfnl02&quot;);"></path></g><g class="djs-visual" id="Flow_19bpd1u" transform="translate(0 0)"><path d="m  260,665L260,730 " style="fill: none; stroke-width: 2px; stroke: black; stroke-linejoin: round; marker-end: url(&quot;#sequenceflow-end-white-black-9hs5tq37kaykb9ypjatdfnl02&quot;);"></path></g><g class="djs-visual" id="Flow_04xzzw0" transform="translate(0 0)"><path d="m  260,830L260,895 " style="fill: none; stroke-width: 2px; stroke: black; stroke-linejoin: round; marker-end: url(&quot;#sequenceflow-end-white-black-9hs5tq37kaykb9ypjatdfnl02&quot;);"></path></g><g class="djs-visual" id="Flow_0k32otd" transform="translate(0 0)"><path d="m  260,395L260,460 " style="fill: none; stroke-width: 2px; stroke: black; stroke-linejoin: round; marker-end: url(&quot;#sequenceflow-end-white-black-9hs5tq37kaykb9ypjatdfnl02&quot;);"></path></g><g class="djs-visual" id="Flow_1gkfwc7" transform="translate(0 0)"><path d="m  260,560L260,615 " style="fill: none; stroke-width: 2px; stroke: black; stroke-linejoin: round; marker-end: url(&quot;#sequenceflow-end-white-black-9hs5tq37kaykb9ypjatdfnl02&quot;);"></path></g><g class="djs-visual" id="Flow_1p1bl3z" transform="translate(0 0)"><path d="m  260,280L260,345 " style="fill: none; stroke-width: 2px; stroke: black; stroke-linejoin: round; marker-end: url(&quot;#sequenceflow-end-white-black-9hs5tq37kaykb9ypjatdfnl02&quot;);"></path></g><g class="djs-visual" id="Flow_1y1fkuh" transform="translate(0 0)"><path d="m  260,78L260,180 " style="fill: none; stroke-width: 2px; stroke: black; stroke-linejoin: round; marker-end: url(&quot;#sequenceflow-end-white-black-9hs5tq37kaykb9ypjatdfnl02&quot;);"></path></g><g class="djs-visual" id="StartEvent_1bm324f" transform="translate(242 42)"><circle cx="18" cy="18" r="18" style="stroke: black; stroke-width: 2px; fill: white; fill-opacity: 0.95;"></circle></g><g class="djs-visual" id="StartEvent_1bm324f_label" transform="translate(221 6)"><text lineHeight="1.2" class="djs-label" style="font-family: Arial, sans-serif; font-size: 11px; font-weight: normal; fill: black;"><tspan x="0" y="9.899999999999999">Islamic Finance </tspan><tspan x="13.7421875" y="23.099999999999998">requested</tspan></text></g><g class="djs-visual" id="Activity_0kbfjn0" transform="translate(195 180)"><rect x="0" y="0" width="130" height="100" rx="10" ry="10" style="stroke: black; stroke-width: 2px; fill: white; fill-opacity: 0.95;"></rect><text lineHeight="1.2" class="djs-label" style="font-family: Arial, sans-serif; font-size: 12px; font-weight: normal; fill: black;"><tspan x="15.1474609375" y="46.4">Receive Customer </tspan><tspan x="44.654296875" y="60.8">request</tspan></text></g><g class="djs-visual" id="DataObjectReference_0nz3b74" transform="translate(92 205)"><path d="m 0,0 28.23529411764706,0 7.058823529411765,8.196721311475411 0,40.98360655737705 -35.294117647058826,0 0,-49.18032786885246 28.23529411764706,0 0,8.196721311475411 7.058823529411765,0" style="fill: white; stroke-width: 2px; stroke: black; fill-opacity: 0.95;"></path></g><g class="djs-visual" id="DataObjectReference_0nz3b74_label" transform="translate(69 262)"><text lineHeight="1.2" class="djs-label" style="font-family: Arial, sans-serif; font-size: 11px; font-weight: normal; fill: black;"><tspan x="0" y="9.899999999999999">Application Form</tspan></text></g><g class="djs-visual" id="Gateway_1kmwyj3" transform="translate(235 345)"><polygon points="25,0 50,25 25,50 0,25" style="stroke: black; stroke-width: 2px; fill: white; fill-opacity: 0.95;"></polygon><path d="m 16,15 7.42857142857143,9.714285714285715 -7.42857142857143,9.714285714285715 3.428571428571429,0 5.714285714285715,-7.464228571428572 5.714285714285715,7.464228571428572 3.428571428571429,0 -7.42857142857143,-9.714285714285715 7.42857142857143,-9.714285714285715 -3.428571428571429,0 -5.714285714285715,7.464228571428572 -5.714285714285715,-7.464228571428572 -3.428571428571429,0 z" style="fill: black; stroke-width: 1px; stroke: black;"></path></g><g class="djs-visual" id="Gateway_0se5k2r" transform="translate(235 615)"><polygon points="25,0 50,25 25,50 0,25" style="stroke: black; stroke-width: 2px; fill: white; fill-opacity: 0.95;"></polygon><path d="m 16,15 7.42857142857143,9.714285714285715 -7.42857142857143,9.714285714285715 3.428571428571429,0 5.714285714285715,-7.464228571428572 5.714285714285715,7.464228571428572 3.428571428571429,0 -7.42857142857143,-9.714285714285715 7.42857142857143,-9.714285714285715 -3.428571428571429,0 -5.714285714285715,7.464228571428572 -5.714285714285715,-7.464228571428572 -3.428571428571429,0 z" style="fill: black; stroke-width: 1px; stroke: black;"></path></g><g class="djs-visual" id="DataObjectReference_05tpzkt" transform="translate(92 485)"><path d="m 0,0 28.23529411764706,0 7.058823529411765,8.196721311475411 0,40.98360655737705 -35.294117647058826,0 0,-49.18032786885246 28.23529411764706,0 0,8.196721311475411 7.058823529411765,0" style="fill: white; stroke-width: 2px; stroke: black; fill-opacity: 0.95;"></path></g><g class="djs-visual" id="DataObjectReference_05tpzkt_label" transform="translate(69 542)"><text lineHeight="1.2" class="djs-label" style="font-family: Arial, sans-serif; font-size: 11px; font-weight: normal; fill: black;"><tspan x="0" y="9.899999999999999">Application Form</tspan></text></g><g class="djs-visual" id="Activity_0c5w2py" transform="translate(195 460)"><rect x="0" y="0" width="130" height="100" rx="10" ry="10" style="stroke: black; stroke-width: 2px; fill: white; fill-opacity: 0.95;"></rect><text lineHeight="1.2" class="djs-label" style="font-family: Arial, sans-serif; font-size: 12px; font-weight: normal; fill: black;"><tspan x="38.822265625" y="39.2">Check for </tspan><tspan x="20.4765625" y="53.6">completeness of </tspan><tspan x="36.1494140625" y="68">application</tspan></text></g><g class="djs-visual" id="Gateway_1i7nx1u" transform="translate(235 895)"><polygon points="25,0 50,25 25,50 0,25" style="stroke: black; stroke-width: 2px; fill: white; fill-opacity: 0.95;"></polygon><path d="m 16,15 7.42857142857143,9.714285714285715 -7.42857142857143,9.714285714285715 3.428571428571429,0 5.714285714285715,-7.464228571428572 5.714285714285715,7.464228571428572 3.428571428571429,0 -7.42857142857143,-9.714285714285715 7.42857142857143,-9.714285714285715 -3.428571428571429,0 -5.714285714285715,7.464228571428572 -5.714285714285715,-7.464228571428572 -3.428571428571429,0 z" style="fill: black; stroke-width: 1px; stroke: black;"></path></g><g class="djs-visual" id="DataObjectReference_0syuv7m" transform="translate(92 755)"><path d="m 0,0 28.23529411764706,0 7.058823529411765,8.196721311475411 0,40.98360655737705 -35.294117647058826,0 0,-49.18032786885246 28.23529411764706,0 0,8.196721311475411 7.058823529411765,0" style="fill: white; stroke-width: 2px; stroke: black; fill-opacity: 0.95;"></path></g><g class="djs-visual" id="DataObjectReference_0syuv7m_label" transform="translate(69 812)"><text lineHeight="1.2" class="djs-label" style="font-family: Arial, sans-serif; font-size: 11px; font-weight: normal; fill: black;"><tspan x="0" y="9.899999999999999">Application Form</tspan></text></g><g class="djs-visual" id="Activity_1woynyd" transform="translate(195 730)"><rect x="0" y="0" width="130" height="100" rx="10" ry="10" style="stroke: black; stroke-width: 2px; fill: white; fill-opacity: 0.95;"></rect><text lineHeight="1.2" class="djs-label" style="font-family: Arial, sans-serif; font-size: 12px; font-weight: normal; fill: black;"><tspan x="17.1513671875" y="46.4">Review Customer </tspan><tspan x="44.15625" y="60.8">position</tspan></text></g><g class="djs-visual" id="Gateway_0yq97p3" transform="translate(235 1015)"><polygon points="25,0 50,25 25,50 0,25" style="stroke: black; stroke-width: 2px; fill: white; fill-opacity: 0.95;"></polygon><path d="m 16,15 7.42857142857143,9.714285714285715 -7.42857142857143,9.714285714285715 3.428571428571429,0 5.714285714285715,-7.464228571428572 5.714285714285715,7.464228571428572 3.428571428571429,0 -7.42857142857143,-9.714285714285715 7.42857142857143,-9.714285714285715 -3.428571428571429,0 -5.714285714285715,7.464228571428572 -5.714285714285715,-7.464228571428572 -3.428571428571429,0 z" style="fill: black; stroke-width: 1px; stroke: black;"></path></g><g class="djs-visual" id="Activity_0qazju2" transform="translate(195 1180)"><rect x="0" y="0" width="130" height="100" rx="10" ry="10" style="stroke: black; stroke-width: 2px; fill: white; fill-opacity: 0.95;"></rect><text lineHeight="1.2" class="djs-label" style="font-family: Arial, sans-serif; font-size: 12px; font-weight: normal; fill: black;"><tspan x="10.482421875" y="53.599999999999994">Carry out Simulation</tspan></text></g><g class="djs-visual" id="DataObjectReference_0z4fsfg" transform="translate(392 1205)"><path d="m 0,0 28.23529411764706,0 7.058823529411765,8.196721311475411 0,40.98360655737705 -35.294117647058826,0 0,-49.18032786885246 28.23529411764706,0 0,8.196721311475411 7.058823529411765,0" style="fill: white; stroke-width: 2px; stroke: black; fill-opacity: 0.95;"></path></g><g class="djs-visual" id="DataObjectReference_0z4fsfg_label" transform="translate(381 1262)"><text lineHeight="1.2" class="djs-label" style="font-family: Arial, sans-serif; font-size: 11px; font-weight: normal; fill: black;"><tspan x="0" y="9.899999999999999">Repayment </tspan><tspan x="5.66015625" y="23.099999999999998">Schedule</tspan></text></g><g class="djs-visual" id="Activity_0i8ojr5" transform="translate(195 1350)"><rect x="0" y="0" width="130" height="100" rx="10" ry="10" style="stroke: black; stroke-width: 2px; fill: white; fill-opacity: 0.95;"></rect><text lineHeight="1.2" class="djs-label" style="font-family: Arial, sans-serif; font-size: 12px; font-weight: normal; fill: black;"><tspan x="21.484375" y="46.4">Display result of </tspan><tspan x="37.8251953125" y="60.8">simulation</tspan></text></g><g class="djs-visual" id="Activity_0g99y3u" transform="translate(195 1520)"><rect x="0" y="0" width="130" height="100" rx="10" ry="10" style="stroke: black; stroke-width: 2px; fill: white; fill-opacity: 0.95;"></rect><text lineHeight="1.2" class="djs-label" style="font-family: Arial, sans-serif; font-size: 12px; font-weight: normal; fill: black;"><tspan x="16.4853515625" y="46.4">Review simulation </tspan><tspan x="47.328125" y="60.8">results</tspan></text></g><g class="djs-visual" id="Gateway_0k80eer" transform="translate(235 1685)"><polygon points="25,0 50,25 25,50 0,25" style="stroke: black; stroke-width: 2px; fill: white; fill-opacity: 0.95;"></polygon><path d="m 16,15 7.42857142857143,9.714285714285715 -7.42857142857143,9.714285714285715 3.428571428571429,0 5.714285714285715,-7.464228571428572 5.714285714285715,7.464228571428572 3.428571428571429,0 -7.42857142857143,-9.714285714285715 7.42857142857143,-9.714285714285715 -3.428571428571429,0 -5.714285714285715,7.464228571428572 -5.714285714285715,-7.464228571428572 -3.428571428571429,0 z" style="fill: black; stroke-width: 1px; stroke: black;"></path></g><g class="djs-visual" id="Activity_1qopohm" transform="translate(195 1800)"><rect x="0" y="0" width="130" height="100" rx="10" ry="10" style="stroke: black; stroke-width: 2px; fill: white; fill-opacity: 0.95;"></rect><text lineHeight="1.2" class="djs-label" style="font-family: Arial, sans-serif; font-size: 12px; font-weight: normal; fill: black;"><tspan x="12.4775390625" y="39.2">Forward application </tspan><tspan x="14.8017578125" y="53.6">and documents for </tspan><tspan x="22.478515625" y="68">Credit Appraisal</tspan></text></g><g class="djs-visual" id="Gateway_16yxop9" transform="translate(875 1015)"><polygon points="25,0 50,25 25,50 0,25" style="stroke: black; stroke-width: 2px; fill: white; fill-opacity: 0.95;"></polygon><path d="m 16,15 7.42857142857143,9.714285714285715 -7.42857142857143,9.714285714285715 3.428571428571429,0 5.714285714285715,-7.464228571428572 5.714285714285715,7.464228571428572 3.428571428571429,0 -7.42857142857143,-9.714285714285715 7.42857142857143,-9.714285714285715 -3.428571428571429,0 -5.714285714285715,7.464228571428572 -5.714285714285715,-7.464228571428572 -3.428571428571429,0 z" style="fill: black; stroke-width: 1px; stroke: black;"></path></g><g class="djs-visual" id="Activity_1rvbncu" transform="translate(835 1130)"><rect x="0" y="0" width="130" height="100" rx="10" ry="10" style="stroke: black; stroke-width: 2px; fill: white; fill-opacity: 0.95;"></rect><text lineHeight="1.2" class="djs-label" style="font-family: Arial, sans-serif; font-size: 12px; font-weight: normal; fill: black;"><tspan x="17.4755859375" y="53.599999999999994">Reject application</tspan></text></g><g class="djs-visual" id="Event_0hhs1ho" transform="translate(882 1292)"><circle cx="18" cy="18" r="18" style="stroke: black; stroke-width: 4px; fill: white; fill-opacity: 0.95;"></circle></g><g class="djs-visual" id="Event_0hhs1ho_label" transform="translate(853 1335)"><text lineHeight="1.2" class="djs-label" style="font-family: Arial, sans-serif; font-size: 11px; font-weight: normal; fill: black;"><tspan x="0" y="9.899999999999999">Application rejected</tspan></text></g><g class="djs-visual" id="Activity_0ewdksa" transform="translate(1025 730)"><rect x="0" y="0" width="130" height="100" rx="10" ry="10" style="stroke: black; stroke-width: 2px; fill: white; fill-opacity: 0.95;"></rect><text lineHeight="1.2" class="djs-label" style="font-family: Arial, sans-serif; font-size: 12px; font-weight: normal; fill: black;"><tspan x="7.4775390625" y="39.2">Contact Customer for </tspan><tspan x="14.4697265625" y="53.6">obtaining complete </tspan><tspan x="47.65625" y="68">details</tspan></text></g><g class="djs-visual" id="Gateway_0gdp6z4" transform="translate(1065 895)"><polygon points="25,0 50,25 25,50 0,25" style="stroke: black; stroke-width: 2px; fill: white; fill-opacity: 0.95;"></polygon><path d="m 16,15 7.42857142857143,9.714285714285715 -7.42857142857143,9.714285714285715 3.428571428571429,0 5.714285714285715,-7.464228571428572 5.714285714285715,7.464228571428572 3.428571428571429,0 -7.42857142857143,-9.714285714285715 7.42857142857143,-9.714285714285715 -3.428571428571429,0 -5.714285714285715,7.464228571428572 -5.714285714285715,-7.464228571428572 -3.428571428571429,0 z" style="fill: black; stroke-width: 1px; stroke: black;"></path></g><g class="djs-visual" id="Activity_19k787z" transform="translate(1245 1030)"><rect x="0" y="0" width="130" height="100" rx="10" ry="10" style="stroke: black; stroke-width: 2px; fill: white; fill-opacity: 0.95;"></rect><text lineHeight="1.2" class="djs-label" style="font-family: Arial, sans-serif; font-size: 12px; font-weight: normal; fill: black;"><tspan x="15.8017578125" y="39.2">Receive additional </tspan><tspan x="23.654296875" y="53.6">particulars from </tspan><tspan x="38.4912109375" y="68">Customer</tspan></text></g><g class="djs-visual" id="DataObjectReference_0ya4303" transform="translate(1142 1055)"><path d="m 0,0 28.23529411764706,0 7.058823529411765,8.196721311475411 0,40.98360655737705 -35.294117647058826,0 0,-49.18032786885246 28.23529411764706,0 0,8.196721311475411 7.058823529411765,0" style="fill: white; stroke-width: 2px; stroke: black; fill-opacity: 0.95;"></path></g><g class="djs-visual" id="DataObjectReference_0ya4303_label" transform="translate(1119 1112)"><text lineHeight="1.2" class="djs-label" style="font-family: Arial, sans-serif; font-size: 11px; font-weight: normal; fill: black;"><tspan x="0" y="9.899999999999999">Application Form</tspan></text></g><g class="djs-visual" id="DataObjectReference_0qofnkq" transform="translate(92 1825)"><path d="m 0,0 28.23529411764706,0 7.058823529411765,8.196721311475411 0,40.98360655737705 -35.294117647058826,0 0,-49.18032786885246 28.23529411764706,0 0,8.196721311475411 7.058823529411765,0" style="fill: white; stroke-width: 2px; stroke: black; fill-opacity: 0.95;"></path></g><g class="djs-visual" id="DataObjectReference_0qofnkq_label" transform="translate(69 1882)"><text lineHeight="1.2" class="djs-label" style="font-family: Arial, sans-serif; font-size: 11px; font-weight: normal; fill: black;"><tspan x="0" y="9.899999999999999">Application Form</tspan></text></g><g class="djs-visual" id="DataObjectReference_096tif8" transform="translate(92 1995)"><path d="m 0,0 28.23529411764706,0 7.058823529411765,8.196721311475411 0,40.98360655737705 -35.294117647058826,0 0,-49.18032786885246 28.23529411764706,0 0,8.196721311475411 7.058823529411765,0" style="fill: white; stroke-width: 2px; stroke: black; fill-opacity: 0.95;"></path></g><g class="djs-visual" id="DataObjectReference_096tif8_label" transform="translate(69 2052)"><text lineHeight="1.2" class="djs-label" style="font-family: Arial, sans-serif; font-size: 11px; font-weight: normal; fill: black;"><tspan x="0" y="9.899999999999999">Application Form</tspan></text></g><g class="djs-visual" id="Activity_13y1tjd" transform="translate(195 1970)"><rect x="0" y="0" width="130" height="100" rx="10" ry="10" style="stroke: black; stroke-width: 2px; fill: white; fill-opacity: 0.95;"></rect><text lineHeight="1.2" class="djs-label" style="font-family: Arial, sans-serif; font-size: 12px; font-weight: normal; fill: black;"><tspan x="20.4873046875" y="46.4">Perform Finance </tspan><tspan x="40.484375" y="60.8">appraisal</tspan></text></g><g class="djs-visual" id="Gateway_176p7dg" transform="translate(235 2135)"><polygon points="25,0 50,25 25,50 0,25" style="stroke: black; stroke-width: 2px; fill: white; fill-opacity: 0.95;"></polygon><path d="m 16,15 7.42857142857143,9.714285714285715 -7.42857142857143,9.714285714285715 3.428571428571429,0 5.714285714285715,-7.464228571428572 5.714285714285715,7.464228571428572 3.428571428571429,0 -7.42857142857143,-9.714285714285715 7.42857142857143,-9.714285714285715 -3.428571428571429,0 -5.714285714285715,7.464228571428572 -5.714285714285715,-7.464228571428572 -3.428571428571429,0 z" style="fill: black; stroke-width: 1px; stroke: black;"></path></g><g class="djs-visual" id="Activity_0hhfny3" transform="translate(195 2260)"><rect x="0" y="0" width="130" height="100" rx="10" ry="10" style="stroke: black; stroke-width: 2px; fill: white; fill-opacity: 0.95;"></rect><text lineHeight="1.2" class="djs-label" style="font-family: Arial, sans-serif; font-size: 12px; font-weight: normal; fill: black;"><tspan x="22.3154296875" y="53.599999999999994">Create Contract</tspan></text></g><g class="djs-visual" id="DataObjectReference_1jbrubn" transform="translate(92 2285)"><path d="m 0,0 28.23529411764706,0 7.058823529411765,8.196721311475411 0,40.98360655737705 -35.294117647058826,0 0,-49.18032786885246 28.23529411764706,0 0,8.196721311475411 7.058823529411765,0" style="fill: white; stroke-width: 2px; stroke: black; fill-opacity: 0.95;"></path></g><g class="djs-visual" id="DataObjectReference_1jbrubn_label" transform="translate(69 2342)"><text lineHeight="1.2" class="djs-label" style="font-family: Arial, sans-serif; font-size: 11px; font-weight: normal; fill: black;"><tspan x="0" y="9.899999999999999">Application Form</tspan></text></g><g class="djs-visual" id="Event_1hzz051" transform="translate(242 2442)"><circle cx="18" cy="18" r="18" style="stroke: black; stroke-width: 4px; fill: white; fill-opacity: 0.95;"></circle></g><g class="djs-visual" id="Event_1hzz051_label" transform="translate(226 2485)"><text lineHeight="1.2" class="djs-label" style="font-family: Arial, sans-serif; font-size: 11px; font-weight: normal; fill: black;"><tspan x="0" y="9.899999999999999">Contract to be </tspan><tspan x="16.1953125" y="23.099999999999998">created</tspan></text></g><g class="djs-visual" id="Event_1qq2130" transform="translate(517 2292)"><circle cx="18" cy="18" r="18" style="stroke: black; stroke-width: 4px; fill: white; fill-opacity: 0.95;"></circle></g><g class="djs-visual" id="Event_1qq2130_label" transform="translate(488 2335)"><text lineHeight="1.2" class="djs-label" style="font-family: Arial, sans-serif; font-size: 11px; font-weight: normal; fill: black;"><tspan x="0" y="9.899999999999999">Finance application </tspan><tspan x="27.828125" y="23.099999999999998">rejected</tspan></text></g><g class="djs-visual" id="TextAnnotation_19wpswj" transform="translate(380 100)"><rect x="0" y="0" width="240" height="110" rx="0" ry="0" style="stroke: none; stroke-width: 2px; fill: none;"></rect><path d="m 0, 0 m 10,0 l -10,0 l 0,110 l 10,0" style="fill: none; stroke-width: 2px; stroke: black;"></path><text lineHeight="1.2" class="djs-label" style="font-family: Arial, sans-serif; font-size: 12px; font-weight: normal; fill: black;"><tspan x="5" y="15.799999999999999">The Customer signs a Finance Request </tspan><tspan x="5" y="30.199999999999996">form and furnishes specifications of </tspan><tspan x="5" y="44.599999999999994">required asset (Car/ Property/ Goods/ </tspan><tspan x="5" y="58.99999999999999">Equipment) along with the supplier details </tspan><tspan x="5" y="73.39999999999999">and quotation. Additionally Customer </tspan><tspan x="5" y="87.79999999999998">eligible documents like Bank statements, </tspan><tspan x="5" y="102.19999999999999">Passport Details etc. will be requested.</tspan></text></g><g class="djs-visual" id="TextAnnotation_1xbbwon" transform="translate(380 1060)"><rect x="0" y="0" width="300" height="110" rx="0" ry="0" style="stroke: none; stroke-width: 2px; fill: none;"></rect><path d="m 0, 0 m 10,0 l -10,0 l 0,110 l 10,0" style="fill: none; stroke-width: 2px; stroke: black;"></path><text lineHeight="1.2" class="djs-label" style="font-family: Arial, sans-serif; font-size: 12px; font-weight: normal; fill: black;"><tspan x="5" y="15.799999999999999">Following details are input:</tspan><tspan x="5" y="30.199999999999996">1. Customer Number</tspan><tspan x="5" y="44.599999999999994">2. Finance Amount</tspan><tspan x="5" y="58.99999999999999">3. Repayment Frequency</tspan><tspan x="5" y="73.39999999999999">4. Term</tspan><tspan x="5" y="87.79999999999998">5. Profit Rate On validation, the system gives profit </tspan><tspan x="5" y="102.19999999999999">amount, instalment amount and final pay date</tspan></text></g><g class="djs-visual" id="TextAnnotation_0xuj6d2" transform="translate(380 1470)"><rect x="0" y="0" width="190" height="40" rx="0" ry="0" style="stroke: none; stroke-width: 2px; fill: none;"></rect><path d="m 0, 0 m 10,0 l -10,0 l 0,40 l 10,0" style="fill: none; stroke-width: 2px; stroke: black;"></path><text lineHeight="1.2" class="djs-label" style="font-family: Arial, sans-serif; font-size: 12px; font-weight: normal; fill: black;"><tspan x="5" y="15.799999999999999">Customer can either accept the </tspan><tspan x="5" y="30.199999999999996">simulation or re-simulate</tspan></text></g><g class="djs-visual" id="TextAnnotation_1fomlco" transform="translate(380 1750)"><rect x="0" y="0" width="160" height="40" rx="0" ry="0" style="stroke: none; stroke-width: 2px; fill: none;"></rect><path d="m 0, 0 m 10,0 l -10,0 l 0,40 l 10,0" style="fill: none; stroke-width: 2px; stroke: black;"></path><text lineHeight="1.2" class="djs-label" style="font-family: Arial, sans-serif; font-size: 12px; font-weight: normal; fill: black;"><tspan x="5" y="15.799999999999999">Simulation result can also </tspan><tspan x="5" y="30.199999999999996">be forwarded</tspan></text></g><g class="djs-visual" id="TextAnnotation_1rrp5ar" transform="translate(380 45)"><rect x="0" y="0" width="330" height="30" rx="0" ry="0" style="stroke: none; stroke-width: 2px; fill: none;"></rect><path d="m 0, 0 m 10,0 l -10,0 l 0,30 l 10,0" style="fill: none; stroke-width: 2px; stroke: black;"></path><text lineHeight="1.2" class="djs-label" style="font-family: Arial, sans-serif; font-size: 12px; font-weight: normal; fill: black;"><tspan x="5" y="15.799999999999999">Assumption: A Customer record has already been created.</tspan></text></g><g class="djs-visual" id="DataInputAssociation_0zv4p17" transform="translate(0 0)"><polyline points="128,230 195,230 " style="fill: none; stroke: black; stroke-width: 2px; stroke-dasharray: 0.5, 5; stroke-linecap: round; stroke-linejoin: round; marker-end: url(&quot;#association-end-white-black-9hs5tq37kaykb9ypjatdfnl02&quot;);"></polyline></g><g class="djs-visual" id="DataInputAssociation_0rma0t3" transform="translate(0 0)"><polyline points="128,510 195,510 " style="fill: none; stroke: black; stroke-width: 2px; stroke-dasharray: 0.5, 5; stroke-linecap: round; stroke-linejoin: round; marker-end: url(&quot;#association-end-white-black-9hs5tq37kaykb9ypjatdfnl02&quot;);"></polyline></g><g class="djs-visual" id="DataInputAssociation_0w62oxw" transform="translate(0 0)"><polyline points="128,780 195,780 " style="fill: none; stroke: black; stroke-width: 2px; stroke-dasharray: 0.5, 5; stroke-linecap: round; stroke-linejoin: round; marker-end: url(&quot;#association-end-white-black-9hs5tq37kaykb9ypjatdfnl02&quot;);"></polyline></g><g class="djs-visual" id="Flow_19bpd1u_label" transform="translate(267 679)"><text lineHeight="1.2" class="djs-label" style="font-family: Arial, sans-serif; font-size: 11px; font-weight: normal; fill: black;"><tspan x="0" y="9.899999999999999">Application </tspan><tspan x="4.09375" y="23.099999999999998">complete</tspan></text></g><g class="djs-visual" id="Flow_04skh3y_label" transform="translate(268 960)"><text lineHeight="1.2" class="djs-label" style="font-family: Arial, sans-serif; font-size: 11px; font-weight: normal; fill: black;"><tspan x="0" y="9.899999999999999">Financing can be </tspan><tspan x="20.7890625" y="23.099999999999998">provided</tspan></text></g><g class="djs-visual" id="DataOutputAssociation_0sm6ycx" transform="translate(0 0)"><polyline points="325,1230 392,1230 " style="fill: none; stroke: black; stroke-width: 2px; stroke-dasharray: 0.5, 5; stroke-linecap: round; stroke-linejoin: round; marker-end: url(&quot;#association-end-white-black-9hs5tq37kaykb9ypjatdfnl02&quot;);"></polyline></g><g class="djs-visual" id="DataInputAssociation_071ndsl" transform="translate(0 0)"><polyline points="128,1850 195,1850 " style="fill: none; stroke: black; stroke-width: 2px; stroke-dasharray: 0.5, 5; stroke-linecap: round; stroke-linejoin: round; marker-end: url(&quot;#association-end-white-black-9hs5tq37kaykb9ypjatdfnl02&quot;);"></polyline></g><g class="djs-visual" id="Flow_0ur5uoz_label" transform="translate(267 1751)"><text lineHeight="1.2" class="djs-label" style="font-family: Arial, sans-serif; font-size: 11px; font-weight: normal; fill: black;"><tspan x="0" y="9.899999999999999">Resimulation not </tspan><tspan x="21.257568359375" y="23.099999999999998">required</tspan></text></g><g class="djs-visual" id="Flow_06dacn4_label" transform="translate(418 1676)"><text lineHeight="1.2" class="djs-label" style="font-family: Arial, sans-serif; font-size: 11px; font-weight: normal; fill: black;"><tspan x="0" y="9.899999999999999">Resimulation </tspan><tspan x="11.6171875" y="23.099999999999998">required</tspan></text></g><g class="djs-visual" id="Flow_09z7e3a_label" transform="translate(901 966)"><text lineHeight="1.2" class="djs-label" style="font-family: Arial, sans-serif; font-size: 11px; font-weight: normal; fill: black;"><tspan x="0" y="9.899999999999999">Financing cannot be </tspan><tspan x="28.4375" y="23.099999999999998">provided</tspan></text></g><g class="djs-visual" id="Flow_1skl4ff_label" transform="translate(1100 679)"><text lineHeight="1.2" class="djs-label" style="font-family: Arial, sans-serif; font-size: 11px; font-weight: normal; fill: black;"><tspan x="0.1875" y="9.899999999999999">Application </tspan><tspan x="0" y="23.099999999999998">incomplete</tspan></text></g><g class="djs-visual" id="Flow_1vqmbeo_label" transform="translate(1087 953)"><text lineHeight="1.2" class="djs-label" style="font-family: Arial, sans-serif; font-size: 11px; font-weight: normal; fill: black;"><tspan x="0" y="9.899999999999999">Customer does not </tspan><tspan x="3.548095703125" y="23.099999999999998">provide additional </tspan><tspan x="21.319580078125" y="36.3">particulars</tspan></text></g><g class="djs-visual" id="DataInputAssociation_1a7s6ru" transform="translate(0 0)"><polyline points="1178,1080 1245,1080 " style="fill: none; stroke: black; stroke-width: 2px; stroke-dasharray: 0.5, 5; stroke-linecap: round; stroke-linejoin: round; marker-end: url(&quot;#association-end-white-black-9hs5tq37kaykb9ypjatdfnl02&quot;);"></polyline></g><g class="djs-visual" id="Flow_17xaxh5_label" transform="translate(1296 953)"><text lineHeight="1.2" class="djs-label" style="font-family: Arial, sans-serif; font-size: 11px; font-weight: normal; fill: black;"><tspan x="4.288818359375" y="9.899999999999999">Customer provides </tspan><tspan x="0" y="23.099999999999998">additional particulars</tspan></text></g><g class="djs-visual" id="DataInputAssociation_0xt9xfm" transform="translate(0 0)"><polyline points="128,2020 195,2020 " style="fill: none; stroke: black; stroke-width: 2px; stroke-dasharray: 0.5, 5; stroke-linecap: round; stroke-linejoin: round; marker-end: url(&quot;#association-end-white-black-9hs5tq37kaykb9ypjatdfnl02&quot;);"></polyline></g><g class="djs-visual" id="DataInputAssociation_0aca9pp" transform="translate(0 0)"><polyline points="128,2310 195,2310 " style="fill: none; stroke: black; stroke-width: 2px; stroke-dasharray: 0.5, 5; stroke-linecap: round; stroke-linejoin: round; marker-end: url(&quot;#association-end-white-black-9hs5tq37kaykb9ypjatdfnl02&quot;);"></polyline></g><g class="djs-visual" id="Flow_17hq97n_label" transform="translate(272 2200)"><text lineHeight="1.2" class="djs-label" style="font-family: Arial, sans-serif; font-size: 11px; font-weight: normal; fill: black;"><tspan x="0" y="9.899999999999999">Finance application </tspan><tspan x="24.4609375" y="23.099999999999998">approved</tspan></text></g><g class="djs-visual" id="Association_05syiux" transform="translate(0 0)"><polyline points="324,187 380,151 " style="fill: none; stroke: black; stroke-width: 2px; stroke-dasharray: 0.5, 5; stroke-linecap: round; stroke-linejoin: round;"></polyline></g><g class="djs-visual" id="Association_1bu8o8o" transform="translate(0 0)"><polyline points="321,1183 380,1138 " style="fill: none; stroke: black; stroke-width: 2px; stroke-dasharray: 0.5, 5; stroke-linecap: round; stroke-linejoin: round;"></polyline></g><g class="djs-visual" id="Association_0j3wiwr" transform="translate(0 0)"><polyline points="324,1527 380,1490 " style="fill: none; stroke: black; stroke-width: 2px; stroke-dasharray: 0.5, 5; stroke-linecap: round; stroke-linejoin: round;"></polyline></g><g class="djs-visual" id="Association_10x1t92" transform="translate(0 0)"><polyline points="325,1809 380,1774 " style="fill: none; stroke: black; stroke-width: 2px; stroke-dasharray: 0.5, 5; stroke-linecap: round; stroke-linejoin: round;"></polyline></g></g><g><rect class="viewport" x="-2551.240458015267" y="0" width="6622.137404580152" height="2519.083969465649"></rect></g></svg>