<svg width="100%" height="100%" viewBox="-201, 53, 1835, 1908"><g><g class="djs-visual" id="Flow_1mvwg9n" transform="translate(0 0)"><path d="m  260,1730L260,1832 " style="fill: none; stroke-width: 2px; stroke: black; stroke-linejoin: round; marker-end: url(&quot;#sequenceflow-end-white-black-5125pq8l7hutmk9dugerpqddl&quot;);"></path></g><g class="djs-visual" id="Flow_1g8vqiy" transform="translate(0 0)"><path d="m  630,221L630,820 L285,820 " style="fill: none; stroke-width: 2px; stroke: black; stroke-linejoin: round; marker-end: url(&quot;#sequenceflow-end-white-black-5125pq8l7hutmk9dugerpqddl&quot;);"></path></g><g class="djs-visual" id="Flow_0hmeafp" transform="translate(0 0)"><path d="m  260,1550L260,1630 " style="fill: none; stroke-width: 2px; stroke: black; stroke-linejoin: round; marker-end: url(&quot;#sequenceflow-end-white-black-5125pq8l7hutmk9dugerpqddl&quot;);"></path></g><g class="djs-visual" id="Flow_1vo1axg" transform="translate(0 0)"><path d="m  260,1380L260,1450 " style="fill: none; stroke-width: 2px; stroke: black; stroke-linejoin: round; marker-end: url(&quot;#sequenceflow-end-white-black-5125pq8l7hutmk9dugerpqddl&quot;);"></path></g><g class="djs-visual" id="Flow_10x7cc8" transform="translate(0 0)"><path d="m  260,1200L260,1280 " style="fill: none; stroke-width: 2px; stroke: black; stroke-linejoin: round; marker-end: url(&quot;#sequenceflow-end-white-black-5125pq8l7hutmk9dugerpqddl&quot;);"></path></g><g class="djs-visual" id="Flow_1lkz64o" transform="translate(0 0)"><path d="m  260,1020L260,1100 " style="fill: none; stroke-width: 2px; stroke: black; stroke-linejoin: round; marker-end: url(&quot;#sequenceflow-end-white-black-5125pq8l7hutmk9dugerpqddl&quot;);"></path></g><g class="djs-visual" id="Flow_1dq2bjb" transform="translate(0 0)"><path d="m  260,845L260,920 " style="fill: none; stroke-width: 2px; stroke: black; stroke-linejoin: round; marker-end: url(&quot;#sequenceflow-end-white-black-5125pq8l7hutmk9dugerpqddl&quot;);"></path></g><g class="djs-visual" id="Flow_083bub7" transform="translate(0 0)"><path d="m  260,705L260,795 " style="fill: none; stroke-width: 2px; stroke: black; stroke-linejoin: round; marker-end: url(&quot;#sequenceflow-end-white-black-5125pq8l7hutmk9dugerpqddl&quot;);"></path></g><g class="djs-visual" id="Flow_1dc8lsc" transform="translate(0 0)"><path d="m  -80,890L-80,962 " style="fill: none; stroke-width: 2px; stroke: black; stroke-linejoin: round; marker-end: url(&quot;#sequenceflow-end-white-black-5125pq8l7hutmk9dugerpqddl&quot;);"></path></g><g class="djs-visual" id="Flow_0ys8xi1" transform="translate(0 0)"><path d="m  235,680L-80,680 L-80,790 " style="fill: none; stroke-width: 2px; stroke: black; stroke-linejoin: round; marker-end: url(&quot;#sequenceflow-end-white-black-5125pq8l7hutmk9dugerpqddl&quot;);"></path></g><g class="djs-visual" id="Flow_0l4222k" transform="translate(0 0)"><path d="m  260,580L260,655 " style="fill: none; stroke-width: 2px; stroke: black; stroke-linejoin: round; marker-end: url(&quot;#sequenceflow-end-white-black-5125pq8l7hutmk9dugerpqddl&quot;);"></path></g><g class="djs-visual" id="Flow_0331djt" transform="translate(0 0)"><path d="m  260,400L260,480 " style="fill: none; stroke-width: 2px; stroke: black; stroke-linejoin: round; marker-end: url(&quot;#sequenceflow-end-white-black-5125pq8l7hutmk9dugerpqddl&quot;);"></path></g><g class="djs-visual" id="Flow_0hzlnjp" transform="translate(0 0)"><path d="m  260,220L260,300 " style="fill: none; stroke-width: 2px; stroke: black; stroke-linejoin: round; marker-end: url(&quot;#sequenceflow-end-white-black-5125pq8l7hutmk9dugerpqddl&quot;);"></path></g><g class="djs-visual" id="StartEvent_1bm324f" transform="translate(242 184)"><circle cx="18" cy="18" r="18" style="stroke: black; stroke-width: 2px; fill: white; fill-opacity: 0.95;"></circle></g><g class="djs-visual" id="StartEvent_1bm324f_label" transform="translate(210 109)"><text lineHeight="1.2" class="djs-label" style="font-family: Arial, sans-serif; font-size: 11px; font-weight: normal; fill: black;"><tspan x="1.895263671875" y="9.899999999999999">Customer request to </tspan><tspan x="10.137451171875" y="23.099999999999998">collect mandated </tspan><tspan x="0" y="36.3">amount from another </tspan><tspan x="17.923828125" y="49.5">Bank account</tspan></text></g><g class="djs-visual" id="Activity_1amjog5" transform="translate(195 300)"><rect x="0" y="0" width="130" height="100" rx="10" ry="10" style="stroke: black; stroke-width: 2px; fill: white; fill-opacity: 0.95;"></rect><text lineHeight="1.2" class="djs-label" style="font-family: Arial, sans-serif; font-size: 12px; font-weight: normal; fill: black;"><tspan x="12.47265625" y="46.4">Receive request for </tspan><tspan x="10.470703125" y="60.8">direct debit mandate</tspan></text></g><g class="djs-visual" id="DataObjectReference_10ls7m0" transform="translate(92 325)"><path d="m 0,0 28.23529411764706,0 7.058823529411765,8.196721311475411 0,40.98360655737705 -35.294117647058826,0 0,-49.18032786885246 28.23529411764706,0 0,8.196721311475411 7.058823529411765,0" style="fill: white; stroke-width: 2px; stroke: black; fill-opacity: 0.95;"></path></g><g class="djs-visual" id="DataObjectReference_10ls7m0_label" transform="translate(81 384)"><text lineHeight="1.2" class="djs-label" style="font-family: Arial, sans-serif; font-size: 11px; font-weight: normal; fill: black;"><tspan x="0" y="9.899999999999999">Direct Debit</tspan></text></g><g class="djs-visual" id="Activity_0gex0mx" transform="translate(195 480)"><rect x="0" y="0" width="130" height="100" rx="10" ry="10" style="stroke: black; stroke-width: 2px; fill: white; fill-opacity: 0.95;"></rect><text lineHeight="1.2" class="djs-label" style="font-family: Arial, sans-serif; font-size: 12px; font-weight: normal; fill: black;"><tspan x="21.818359375" y="32">Verify Customer </tspan><tspan x="7.802734375" y="46.4">details for initiation of</tspan><tspan x="35.3173828125" y="60.8">direct debit </tspan><tspan x="10.640625" y="75.19999999999999">instruction (outward)</tspan></text></g><g class="djs-visual" id="Gateway_1lq17wi" transform="translate(235 655)"><polygon points="25,0 50,25 25,50 0,25" style="stroke: black; stroke-width: 2px; fill: white; fill-opacity: 0.95;"></polygon><path d="m 16,15 7.42857142857143,9.714285714285715 -7.42857142857143,9.714285714285715 3.428571428571429,0 5.714285714285715,-7.464228571428572 5.714285714285715,7.464228571428572 3.428571428571429,0 -7.42857142857143,-9.714285714285715 7.42857142857143,-9.714285714285715 -3.428571428571429,0 -5.714285714285715,7.464228571428572 -5.714285714285715,-7.464228571428572 -3.428571428571429,0 z" style="fill: black; stroke-width: 1px; stroke: black;"></path></g><g class="djs-visual" id="Activity_1numm7g" transform="translate(-145 790)"><rect x="0" y="0" width="130" height="100" rx="10" ry="10" style="stroke: black; stroke-width: 2px; fill: white; fill-opacity: 0.95;"></rect><text lineHeight="1.2" class="djs-label" style="font-family: Arial, sans-serif; font-size: 12px; font-weight: normal; fill: black;"><tspan x="19.8203125" y="39.2">Inform Customer </tspan><tspan x="13.466796875" y="53.6">about unsuccessful </tspan><tspan x="36.658203125" y="68">verification</tspan></text></g><g class="djs-visual" id="Event_0jwru1u" transform="translate(-98 962)"><circle cx="18" cy="18" r="18" style="stroke: black; stroke-width: 4px; fill: white; fill-opacity: 0.95;"></circle></g><g class="djs-visual" id="Event_0jwru1u_label" transform="translate(-126 1009)"><text lineHeight="1.2" class="djs-label" style="font-family: Arial, sans-serif; font-size: 11px; font-weight: normal; fill: black;"><tspan x="0" y="9.899999999999999">Customer informed </tspan><tspan x="18.328125" y="23.099999999999998">about failed </tspan><tspan x="12.5234375" y="36.3">authentication</tspan></text></g><g class="djs-visual" id="Gateway_0jcta8n" transform="translate(235 795)"><polygon points="25,0 50,25 25,50 0,25" style="stroke: black; stroke-width: 2px; fill: white; fill-opacity: 0.95;"></polygon><path d="m 16,15 7.42857142857143,9.714285714285715 -7.42857142857143,9.714285714285715 3.428571428571429,0 5.714285714285715,-7.464228571428572 5.714285714285715,7.464228571428572 3.428571428571429,0 -7.42857142857143,-9.714285714285715 7.42857142857143,-9.714285714285715 -3.428571428571429,0 -5.714285714285715,7.464228571428572 -5.714285714285715,-7.464228571428572 -3.428571428571429,0 z" style="fill: black; stroke-width: 1px; stroke: black;"></path></g><g class="djs-visual" id="Activity_1twogae" transform="translate(195 920)"><rect x="0" y="0" width="130" height="100" rx="10" ry="10" style="stroke: black; stroke-width: 2px; fill: white; fill-opacity: 0.95;"></rect><text lineHeight="1.2" class="djs-label" style="font-family: Arial, sans-serif; font-size: 12px; font-weight: normal; fill: black;"><tspan x="7.6806640625" y="39.2">Choose "Register DD </tspan><tspan x="20.6806640625" y="53.6">mandate" for the </tspan><tspan x="29.478515625" y="68">selected loan</tspan></text></g><g class="djs-visual" id="Activity_1rg6r9v" transform="translate(195 1100)"><rect x="0" y="0" width="130" height="100" rx="10" ry="10" style="stroke: black; stroke-width: 2px; fill: white; fill-opacity: 0.95;"></rect><text lineHeight="1.2" class="djs-label" style="font-family: Arial, sans-serif; font-size: 12px; font-weight: normal; fill: black;"><tspan x="12.3046875" y="46.4">Capture direct debit </tspan><tspan x="41.4873046875" y="60.8">mandate</tspan></text></g><g class="djs-visual" id="Activity_0kn1scz" transform="translate(195 1280)"><rect x="0" y="0" width="130" height="100" rx="10" ry="10" style="stroke: black; stroke-width: 2px; fill: white; fill-opacity: 0.95;"></rect><text lineHeight="1.2" class="djs-label" style="font-family: Arial, sans-serif; font-size: 12px; font-weight: normal; fill: black;"><tspan x="23.474609375" y="32">Add direct debit </tspan><tspan x="7.8017578125" y="46.4">mandate reference to </tspan><tspan x="26.6337890625" y="60.8">the loan under </tspan><tspan x="13.640625" y="75.19999999999999">settlement property</tspan></text></g><g class="djs-visual" id="Activity_0pkrx26" transform="translate(195 1450)"><rect x="0" y="0" width="130" height="100" rx="10" ry="10" style="stroke: black; stroke-width: 2px; fill: white; fill-opacity: 0.95;"></rect><text lineHeight="1.2" class="djs-label" style="font-family: Arial, sans-serif; font-size: 12px; font-weight: normal; fill: black;"><tspan x="12.8076171875" y="46.4">Activate direct debit </tspan><tspan x="41.4873046875" y="60.8">mandate</tspan></text></g><g class="djs-visual" id="Activity_0mrxqul" transform="translate(195 1630)"><rect x="0" y="0" width="130" height="100" rx="10" ry="10" style="stroke: black; stroke-width: 2px; fill: white; fill-opacity: 0.95;"></rect><text lineHeight="1.2" class="djs-label" style="font-family: Arial, sans-serif; font-size: 12px; font-weight: normal; fill: black;"><tspan x="19.6376953125" y="39.2">Send direct debit </tspan><tspan x="25.4853515625" y="53.6">confirmation to </tspan><tspan x="38.4912109375" y="68">Customer</tspan></text></g><g class="djs-visual" id="DataObjectReference_1crkvjj" transform="translate(392 1475)"><path d="m 0,0 28.23529411764706,0 7.058823529411765,8.196721311475411 0,40.98360655737705 -35.294117647058826,0 0,-49.18032786885246 28.23529411764706,0 0,8.196721311475411 7.058823529411765,0" style="fill: white; stroke-width: 2px; stroke: black; fill-opacity: 0.95;"></path></g><g class="djs-visual" id="DataObjectReference_1crkvjj_label" transform="translate(379 1535)"><text lineHeight="1.2" class="djs-label" style="font-family: Arial, sans-serif; font-size: 11px; font-weight: normal; fill: black;"><tspan x="1.977783203125" y="9.899999999999999">Direct Debit </tspan><tspan x="0" y="23.099999999999998">Confirmation</tspan></text></g><g class="djs-visual" id="DataObjectReference_11inreq" transform="translate(392 1655)"><path d="m 0,0 28.23529411764706,0 7.058823529411765,8.196721311475411 0,40.98360655737705 -35.294117647058826,0 0,-49.18032786885246 28.23529411764706,0 0,8.196721311475411 7.058823529411765,0" style="fill: white; stroke-width: 2px; stroke: black; fill-opacity: 0.95;"></path></g><g class="djs-visual" id="DataObjectReference_11inreq_label" transform="translate(379 1714)"><text lineHeight="1.2" class="djs-label" style="font-family: Arial, sans-serif; font-size: 11px; font-weight: normal; fill: black;"><tspan x="1.977783203125" y="9.899999999999999">Direct Debit </tspan><tspan x="0" y="23.099999999999998">Confirmation</tspan></text></g><g class="djs-visual" id="Event_0cqtjf3" transform="translate(242 1832)"><circle cx="18" cy="18" r="18" style="stroke: black; stroke-width: 4px; fill: white; fill-opacity: 0.95;"></circle></g><g class="djs-visual" id="Event_0cqtjf3_label" transform="translate(213 1878)"><text lineHeight="1.2" class="djs-label" style="font-family: Arial, sans-serif; font-size: 11px; font-weight: normal; fill: black;"><tspan x="0" y="9.899999999999999">Direct debit mandate </tspan><tspan x="26.2890625" y="23.099999999999998">registered</tspan></text></g><g class="djs-visual" id="Event_18xqn6r" transform="translate(612 185)"><circle cx="18" cy="18" r="18" style="stroke: black; stroke-width: 2px; fill: white; fill-opacity: 0.95;"></circle></g><g class="djs-visual" id="Event_18xqn6r_label" transform="translate(582 122)"><text lineHeight="1.2" class="djs-label" style="font-family: Arial, sans-serif; font-size: 11px; font-weight: normal; fill: black;"><tspan x="0" y="9.899999999999999">Repayment through </tspan><tspan x="20.936767578125" y="23.099999999999998">direct debit</tspan></text></g><g class="djs-visual" id="TextAnnotation_18gz70h" transform="translate(370 410)"><rect x="0" y="0" width="180" height="55" rx="0" ry="0" style="stroke: none; stroke-width: 2px; fill: none;"></rect><path d="m 0, 0 m 10,0 l -10,0 l 0,55 l 10,0" style="fill: none; stroke-width: 2px; stroke: black;"></path><text lineHeight="1.2" class="djs-label" style="font-family: Arial, sans-serif; font-size: 12px; font-weight: normal; fill: black;"><tspan x="5" y="15.799999999999999">- Authentication (signature)</tspan><tspan x="5" y="30.199999999999996">- Account Number</tspan><tspan x="5" y="44.599999999999994">- Direct Debit Details</tspan></text></g><g class="djs-visual" id="TextAnnotation_0jx7888" transform="translate(30 750)"><rect x="0" y="0" width="190" height="40" rx="0" ry="0" style="stroke: none; stroke-width: 2px; fill: none;"></rect><path d="m 0, 0 m 10,0 l -10,0 l 0,40 l 10,0" style="fill: none; stroke-width: 2px; stroke: black;"></path><text lineHeight="1.2" class="djs-label" style="font-family: Arial, sans-serif; font-size: 12px; font-weight: normal; fill: black;"><tspan x="5" y="15.799999999999999">- Authentication failed</tspan><tspan x="5" y="30.199999999999996">- Account number not existent</tspan></text></g><g class="djs-visual" id="TextAnnotation_1bbfpr3" transform="translate(370 1040)"><rect x="0" y="0" width="220" height="40" rx="0" ry="0" style="stroke: none; stroke-width: 2px; fill: none;"></rect><path d="m 0, 0 m 10,0 l -10,0 l 0,40 l 10,0" style="fill: none; stroke-width: 2px; stroke: black;"></path><text lineHeight="1.2" class="djs-label" style="font-family: Arial, sans-serif; font-size: 12px; font-weight: normal; fill: black;"><tspan x="5" y="15.799999999999999">- Inward account (Settlement/ Routing </tspan><tspan x="5" y="30.199999999999996">account for funds from other bank)</tspan></text></g><g class="djs-visual" id="TextAnnotation_1fawnlj" transform="translate(370 1380)"><rect x="0" y="0" width="250" height="55" rx="0" ry="0" style="stroke: none; stroke-width: 2px; fill: none;"></rect><path d="m 0, 0 m 10,0 l -10,0 l 0,55 l 10,0" style="fill: none; stroke-width: 2px; stroke: black;"></path><text lineHeight="1.2" class="djs-label" style="font-family: Arial, sans-serif; font-size: 12px; font-weight: normal; fill: black;"><tspan x="5" y="15.799999999999999">The system creates forward dated entries. </tspan><tspan x="5" y="30.199999999999996">Dr Clearing Suspense account</tspan><tspan x="5" y="44.599999999999994">Cr Customer account</tspan></text></g><g class="djs-visual" id="DataInputAssociation_1fi1qaf" transform="translate(0 0)"><polyline points="128,350 195,350 " style="fill: none; stroke: black; stroke-width: 2px; stroke-dasharray: 0.5, 5; stroke-linecap: round; stroke-linejoin: round; marker-end: url(&quot;#association-end-white-black-5125pq8l7hutmk9dugerpqddl&quot;);"></polyline></g><g class="djs-visual" id="Flow_0ys8xi1_label" transform="translate(-73 728)"><text lineHeight="1.2" class="djs-label" style="font-family: Arial, sans-serif; font-size: 11px; font-weight: normal; fill: black;"><tspan x="0" y="9.899999999999999">Verification failed</tspan></text></g><g class="djs-visual" id="Flow_083bub7_label" transform="translate(270 721)"><text lineHeight="1.2" class="djs-label" style="font-family: Arial, sans-serif; font-size: 11px; font-weight: normal; fill: black;"><tspan x="0" y="9.899999999999999">Verification </tspan><tspan x="0.45166015625" y="23.099999999999998">successful</tspan></text></g><g class="djs-visual" id="DataOutputAssociation_1pzbbm6" transform="translate(0 0)"><polyline points="325,1500 392,1500 " style="fill: none; stroke: black; stroke-width: 2px; stroke-dasharray: 0.5, 5; stroke-linecap: round; stroke-linejoin: round; marker-end: url(&quot;#association-end-white-black-5125pq8l7hutmk9dugerpqddl&quot;);"></polyline></g><g class="djs-visual" id="DataOutputAssociation_10m3tsg" transform="translate(0 0)"><polyline points="325,1680 392,1680 " style="fill: none; stroke: black; stroke-width: 2px; stroke-dasharray: 0.5, 5; stroke-linecap: round; stroke-linejoin: round; marker-end: url(&quot;#association-end-white-black-5125pq8l7hutmk9dugerpqddl&quot;);"></polyline></g><g class="djs-visual" id="Association_1b2vb7e" transform="translate(0 0)"><polyline points="319,481 370,438 " style="fill: none; stroke: black; stroke-width: 2px; stroke-dasharray: 0.5, 5; stroke-linecap: round; stroke-linejoin: round;"></polyline></g><g class="djs-visual" id="Association_17k6mgo" transform="translate(0 0)"><polyline points="-16,798 30,768 " style="fill: none; stroke: black; stroke-width: 2px; stroke-dasharray: 0.5, 5; stroke-linecap: round; stroke-linejoin: round;"></polyline></g><g class="djs-visual" id="Association_1ycr1ju" transform="translate(0 0)"><polyline points="320,1101 370,1060 " style="fill: none; stroke: black; stroke-width: 2px; stroke-dasharray: 0.5, 5; stroke-linecap: round; stroke-linejoin: round;"></polyline></g><g class="djs-visual" id="Association_0fxf62e" transform="translate(0 0)"><polyline points="319,1451 370,1408 " style="fill: none; stroke: black; stroke-width: 2px; stroke-dasharray: 0.5, 5; stroke-linecap: round; stroke-linejoin: round;"></polyline></g></g><g><rect class="viewport" x="-2109.6794520547946" y="103.01369863013699" width="4753.424657534247" height="1808.2191780821918"></rect></g></svg>