<svg width="100%" height="100%" viewBox="-50, 108, 1835, 1285"><g><g class="djs-visual" id="Flow_0zatjdp" transform="translate(0 0)"><path d="m  640,1070L640,1110 " style="fill: none; stroke-width: 2px; stroke: black; stroke-linejoin: round; marker-end: url(&quot;#sequenceflow-end-white-black-07n5atqo6wy4u6a8ky87m8riu&quot;);"></path></g><g class="djs-visual" id="Flow_0z8robt" transform="translate(0 0)"><path d="m  640,1210L640,1262 " style="fill: none; stroke-width: 2px; stroke: black; stroke-linejoin: round; marker-end: url(&quot;#sequenceflow-end-white-black-07n5atqo6wy4u6a8ky87m8riu&quot;);"></path></g><g class="djs-visual" id="Flow_1tpxiqh" transform="translate(0 0)"><path d="m  285,880L640,880 L640,970 " style="fill: none; stroke-width: 2px; stroke: black; stroke-linejoin: round; marker-end: url(&quot;#sequenceflow-end-white-black-07n5atqo6wy4u6a8ky87m8riu&quot;);"></path></g><g class="djs-visual" id="Flow_06des3b" transform="translate(0 0)"><path d="m  260,905L260,970 " style="fill: none; stroke-width: 2px; stroke: black; stroke-linejoin: round; marker-end: url(&quot;#sequenceflow-end-white-black-07n5atqo6wy4u6a8ky87m8riu&quot;);"></path></g><g class="djs-visual" id="Flow_0443xi5" transform="translate(0 0)"><path d="m  260,790L260,855 " style="fill: none; stroke-width: 2px; stroke: black; stroke-linejoin: round; marker-end: url(&quot;#sequenceflow-end-white-black-07n5atqo6wy4u6a8ky87m8riu&quot;);"></path></g><g class="djs-visual" id="Flow_04e4o5i" transform="translate(0 0)"><path d="m  260,1070L260,1142 " style="fill: none; stroke-width: 2px; stroke: black; stroke-linejoin: round; marker-end: url(&quot;#sequenceflow-end-white-black-07n5atqo6wy4u6a8ky87m8riu&quot;);"></path></g><g class="djs-visual" id="Flow_01otfyx" transform="translate(0 0)"><path d="m  260,610L260,690 " style="fill: none; stroke-width: 2px; stroke: black; stroke-linejoin: round; marker-end: url(&quot;#sequenceflow-end-white-black-07n5atqo6wy4u6a8ky87m8riu&quot;);"></path></g><g class="djs-visual" id="Flow_0ndrtdd" transform="translate(0 0)"><path d="m  260,430L260,510 " style="fill: none; stroke-width: 2px; stroke: black; stroke-linejoin: round; marker-end: url(&quot;#sequenceflow-end-white-black-07n5atqo6wy4u6a8ky87m8riu&quot;);"></path></g><g class="djs-visual" id="Flow_1vf6k49" transform="translate(0 0)"><path d="m  260,248L260,330 " style="fill: none; stroke-width: 2px; stroke: black; stroke-linejoin: round; marker-end: url(&quot;#sequenceflow-end-white-black-07n5atqo6wy4u6a8ky87m8riu&quot;);"></path></g><g class="djs-visual" id="StartEvent_1bm324f" transform="translate(242 212)"><circle cx="18" cy="18" r="18" style="stroke: black; stroke-width: 2px; fill: white; fill-opacity: 0.95;"></circle></g><g class="djs-visual" id="StartEvent_1bm324f_label" transform="translate(214 164)"><text lineHeight="1.2" class="djs-label" style="font-family: Arial, sans-serif; font-size: 11px; font-weight: normal; fill: black;"><tspan x="0" y="9.899999999999999">Till to be re-opened</tspan></text></g><g class="djs-visual" id="Activity_0f1lddy" transform="translate(195 330)"><rect x="0" y="0" width="130" height="100" rx="10" ry="10" style="stroke: black; stroke-width: 2px; fill: white; fill-opacity: 0.95;"></rect><text lineHeight="1.2" class="djs-label" style="font-family: Arial, sans-serif; font-size: 12px; font-weight: normal; fill: black;"><tspan x="16.9765625" y="46.4">Select till to be re-</tspan><tspan x="44.8154296875" y="60.8">opened</tspan></text></g><g class="djs-visual" id="Activity_0fvq3sw" transform="translate(195 510)"><rect x="0" y="0" width="130" height="100" rx="10" ry="10" style="stroke: black; stroke-width: 2px; fill: white; fill-opacity: 0.95;"></rect><text lineHeight="1.2" class="djs-label" style="font-family: Arial, sans-serif; font-size: 12px; font-weight: normal; fill: black;"><tspan x="18.96875" y="53.599999999999994">Change till status</tspan></text></g><g class="djs-visual" id="Activity_1icw8eh" transform="translate(195 970)"><rect x="0" y="0" width="130" height="100" rx="10" ry="10" style="stroke: black; stroke-width: 2px; fill: white; fill-opacity: 0.95;"></rect><text lineHeight="1.2" class="djs-label" style="font-family: Arial, sans-serif; font-size: 12px; font-weight: normal; fill: black;"><tspan x="34.8154296875" y="53.599999999999994">Reopen Till</tspan></text></g><g class="djs-visual" id="Event_0mqm4dh" transform="translate(242 1142)"><circle cx="18" cy="18" r="18" style="stroke: black; stroke-width: 4px; fill: white; fill-opacity: 0.95;"></circle></g><g class="djs-visual" id="Event_0mqm4dh_label" transform="translate(229 1193)"><text lineHeight="1.2" class="djs-label" style="font-family: Arial, sans-serif; font-size: 11px; font-weight: normal; fill: black;"><tspan x="0" y="9.899999999999999">Till reopened</tspan></text></g><g class="djs-visual" id="Activity_1fu098v" transform="translate(195 690)"><rect x="0" y="0" width="130" height="100" rx="10" ry="10" style="stroke: black; stroke-width: 2px; fill: white; fill-opacity: 0.95;"></rect><text lineHeight="1.2" class="djs-label" style="font-family: Arial, sans-serif; font-size: 12px; font-weight: normal; fill: black;"><tspan x="9.9765625" y="46.4">Check whether Till is </tspan><tspan x="37.49609375" y="60.8">Master Till</tspan></text></g><g class="djs-visual" id="Gateway_0u329ss" transform="translate(235 855)"><polygon points="25,0 50,25 25,50 0,25" style="stroke: black; stroke-width: 2px; fill: white; fill-opacity: 0.95;"></polygon><path d="m 16,15 7.42857142857143,9.714285714285715 -7.42857142857143,9.714285714285715 3.428571428571429,0 5.714285714285715,-7.464228571428572 5.714285714285715,7.464228571428572 3.428571428571429,0 -7.42857142857143,-9.714285714285715 7.42857142857143,-9.714285714285715 -3.428571428571429,0 -5.714285714285715,7.464228571428572 -5.714285714285715,-7.464228571428572 -3.428571428571429,0 z" style="fill: black; stroke-width: 1px; stroke: black;"></path></g><g class="djs-visual" id="Activity_018p21h" transform="translate(575 1110)"><rect x="0" y="0" width="130" height="100" rx="10" ry="10" style="stroke: black; stroke-width: 2px; fill: white; fill-opacity: 0.95;"></rect><text lineHeight="1.2" class="djs-label" style="font-family: Arial, sans-serif; font-size: 12px; font-weight: normal; fill: black;"><tspan x="14.8115234375" y="53.599999999999994">Reopen Master Till</tspan></text></g><g class="djs-visual" id="Event_0ukhw3b" transform="translate(622 1262)"><circle cx="18" cy="18" r="18" style="stroke: black; stroke-width: 4px; fill: white; fill-opacity: 0.95;"></circle></g><g class="djs-visual" id="Event_0ukhw3b_label" transform="translate(591 1310)"><text lineHeight="1.2" class="djs-label" style="font-family: Arial, sans-serif; font-size: 11px; font-weight: normal; fill: black;"><tspan x="0" y="9.899999999999999">Master Till and child </tspan><tspan x="11.1015625" y="23.099999999999998">Till(s) reopened</tspan></text></g><g class="djs-visual" id="Activity_1g556ge" transform="translate(575 970)"><rect x="0" y="0" width="130" height="100" rx="10" ry="10" style="stroke: black; stroke-width: 2px; fill: white; fill-opacity: 0.95;"></rect><text lineHeight="1.2" class="djs-label" style="font-family: Arial, sans-serif; font-size: 12px; font-weight: normal; fill: black;"><tspan x="8.6328125" y="46.4">Reopen linked (child) </tspan><tspan x="57.3916015625" y="60.8">Till</tspan></text></g><g class="djs-visual" id="TextAnnotation_0trgg26" transform="translate(370 480)"><rect x="0" y="0" width="170" height="27" rx="0" ry="0" style="stroke: none; stroke-width: 2px; fill: none;"></rect><path d="m 0, 0 m 10,0 l -10,0 l 0,27 l 10,0" style="fill: none; stroke-width: 2px; stroke: black;"></path><text lineHeight="1.2" class="djs-label" style="font-family: Arial, sans-serif; font-size: 12px; font-weight: normal; fill: black;"><tspan x="5" y="15.799999999999999">Change till status to 'open'</tspan></text></g><g class="djs-visual" id="Flow_06des3b_label" transform="translate(262 913)"><text lineHeight="1.2" class="djs-label" style="font-family: Arial, sans-serif; font-size: 11px; font-weight: normal; fill: black;"><tspan x="0" y="9.899999999999999">Till is not Master Till</tspan></text></g><g class="djs-visual" id="Flow_1tpxiqh_label" transform="translate(641 907)"><text lineHeight="1.2" class="djs-label" style="font-family: Arial, sans-serif; font-size: 11px; font-weight: normal; fill: black;"><tspan x="0" y="9.899999999999999">Till is Master Till and </tspan><tspan x="11.26416015625" y="23.099999999999998">has Linked Tills</tspan></text></g><g class="djs-visual" id="Association_1ue77lu" transform="translate(0 0)"><polyline points="325,531 380,507 " style="fill: none; stroke: black; stroke-width: 2px; stroke-dasharray: 0.5, 5; stroke-linecap: round; stroke-linejoin: round;"></polyline></g></g><g><rect class="viewport" x="-1090.4829443447036" y="157.9892280071813" width="3114.9012567324953" height="1184.9192100538598"></rect></g></svg>