<svg width="100%" height="100%" viewBox="-50, -20, 1835, 1521"><g><g class="djs-visual" id="Flow_09nb70a" transform="translate(0 0)"><path d="m  1210,1050L1210,1132 " style="fill: none; stroke-width: 2px; stroke: black; stroke-linejoin: round; marker-end: url(&quot;#sequenceflow-end-white-black-5jw49qc088tw29xbk1qbjz21n&quot;);"></path></g><g class="djs-visual" id="Flow_0xfjcbh" transform="translate(0 0)"><path d="m  850,880L850,952 " style="fill: none; stroke-width: 2px; stroke: black; stroke-linejoin: round; marker-end: url(&quot;#sequenceflow-end-white-black-5jw49qc088tw29xbk1qbjz21n&quot;);"></path></g><g class="djs-visual" id="Flow_1z050t6" transform="translate(0 0)"><path d="m  1210,873L1210,950 " style="fill: none; stroke-width: 2px; stroke: black; stroke-linejoin: round; marker-end: url(&quot;#sequenceflow-end-white-black-5jw49qc088tw29xbk1qbjz21n&quot;);"></path></g><g class="djs-visual" id="Flow_0ewnmvd" transform="translate(0 0)"><path d="m  875,700L1210,700 L1210,773 " style="fill: none; stroke-width: 2px; stroke: black; stroke-linejoin: round; marker-end: url(&quot;#sequenceflow-end-white-black-5jw49qc088tw29xbk1qbjz21n&quot;);"></path></g><g class="djs-visual" id="Flow_0fdmsud" transform="translate(0 0)"><path d="m  850,725L850,780 " style="fill: none; stroke-width: 2px; stroke: black; stroke-linejoin: round; marker-end: url(&quot;#sequenceflow-end-white-black-5jw49qc088tw29xbk1qbjz21n&quot;);"></path></g><g class="djs-visual" id="Flow_1hzx30t" transform="translate(0 0)"><path d="m  850,600L850,675 " style="fill: none; stroke-width: 2px; stroke: black; stroke-linejoin: round; marker-end: url(&quot;#sequenceflow-end-white-black-5jw49qc088tw29xbk1qbjz21n&quot;);"></path></g><g class="djs-visual" id="Flow_1q7u7zs" transform="translate(0 0)"><path d="m  190,1290L190,1362 " style="fill: none; stroke-width: 2px; stroke: black; stroke-linejoin: round; marker-end: url(&quot;#sequenceflow-end-white-black-5jw49qc088tw29xbk1qbjz21n&quot;);"></path></g><g class="djs-visual" id="Flow_0rzvnqp" transform="translate(0 0)"><path d="m  190,1145L190,1190 " style="fill: none; stroke-width: 2px; stroke: black; stroke-linejoin: round; marker-end: url(&quot;#sequenceflow-end-white-black-5jw49qc088tw29xbk1qbjz21n&quot;);"></path></g><g class="djs-visual" id="Flow_0ftv18j" transform="translate(0 0)"><path d="m  510,1050L510,1120 L215,1120 " style="fill: none; stroke-width: 2px; stroke: black; stroke-linejoin: round; marker-end: url(&quot;#sequenceflow-end-white-black-5jw49qc088tw29xbk1qbjz21n&quot;);"></path></g><g class="djs-visual" id="Flow_1876eqq" transform="translate(0 0)"><path d="m  510,880L510,950 " style="fill: none; stroke-width: 2px; stroke: black; stroke-linejoin: round; marker-end: url(&quot;#sequenceflow-end-white-black-5jw49qc088tw29xbk1qbjz21n&quot;);"></path></g><g class="djs-visual" id="Flow_0w0pt0e" transform="translate(0 0)"><path d="m  215,700L510,700 L510,780 " style="fill: none; stroke-width: 2px; stroke: black; stroke-linejoin: round; marker-end: url(&quot;#sequenceflow-end-white-black-5jw49qc088tw29xbk1qbjz21n&quot;);"></path></g><g class="djs-visual" id="Flow_0pifj81" transform="translate(0 0)"><path d="m  190,725L190,1095 " style="fill: none; stroke-width: 2px; stroke: black; stroke-linejoin: round; marker-end: url(&quot;#sequenceflow-end-white-black-5jw49qc088tw29xbk1qbjz21n&quot;);"></path></g><g class="djs-visual" id="Flow_1c85nuh" transform="translate(0 0)"><path d="m  190,600L190,675 " style="fill: none; stroke-width: 2px; stroke: black; stroke-linejoin: round; marker-end: url(&quot;#sequenceflow-end-white-black-5jw49qc088tw29xbk1qbjz21n&quot;);"></path></g><g class="djs-visual" id="Flow_188jrbm" transform="translate(0 0)"><path d="m  215,400L850,400 L850,500 " style="fill: none; stroke-width: 2px; stroke: black; stroke-linejoin: round; marker-end: url(&quot;#sequenceflow-end-white-black-5jw49qc088tw29xbk1qbjz21n&quot;);"></path></g><g class="djs-visual" id="Flow_1c6msws" transform="translate(0 0)"><path d="m  190,425L190,500 " style="fill: none; stroke-width: 2px; stroke: black; stroke-linejoin: round; marker-end: url(&quot;#sequenceflow-end-white-black-5jw49qc088tw29xbk1qbjz21n&quot;);"></path></g><g class="djs-visual" id="Flow_00o2qzw" transform="translate(0 0)"><path d="m  190,310L190,375 " style="fill: none; stroke-width: 2px; stroke: black; stroke-linejoin: round; marker-end: url(&quot;#sequenceflow-end-white-black-5jw49qc088tw29xbk1qbjz21n&quot;);"></path></g><g class="djs-visual" id="Flow_05473o8" transform="translate(0 0)"><path d="m  190,138L190,210 " style="fill: none; stroke-width: 2px; stroke: black; stroke-linejoin: round; marker-end: url(&quot;#sequenceflow-end-white-black-5jw49qc088tw29xbk1qbjz21n&quot;);"></path></g><g class="djs-visual" id="StartEvent_1bm324f" transform="translate(172 102)"><circle cx="18" cy="18" r="18" style="stroke: black; stroke-width: 2px; fill: white; fill-opacity: 0.95;"></circle></g><g class="djs-visual" id="StartEvent_1bm324f_label" transform="translate(145 36)"><text lineHeight="1.2" class="djs-label" style="font-family: Arial, sans-serif; font-size: 11px; font-weight: normal; fill: black;"><tspan x="13.7578125" y="9.899999999999999">Investigation </tspan><tspan x="0" y="23.099999999999998">message received</tspan></text></g><g class="djs-visual" id="Activity_07261l5" transform="translate(125 210)"><rect x="0" y="0" width="130" height="100" rx="10" ry="10" style="stroke: black; stroke-width: 2px; fill: white; fill-opacity: 0.95;"></rect><text lineHeight="1.2" class="djs-label" style="font-family: Arial, sans-serif; font-size: 12px; font-weight: normal; fill: black;"><tspan x="27.4814453125" y="46.4">Check type of </tspan><tspan x="5.4697265625" y="60.8">investigation message</tspan></text></g><g class="djs-visual" id="Gateway_14q42hi" transform="translate(165 375)"><polygon points="25,0 50,25 25,50 0,25" style="stroke: black; stroke-width: 2px; fill: white; fill-opacity: 0.95;"></polygon><path d="m 16,15 7.42857142857143,9.714285714285715 -7.42857142857143,9.714285714285715 3.428571428571429,0 5.714285714285715,-7.464228571428572 5.714285714285715,7.464228571428572 3.428571428571429,0 -7.42857142857143,-9.714285714285715 7.42857142857143,-9.714285714285715 -3.428571428571429,0 -5.714285714285715,7.464228571428572 -5.714285714285715,-7.464228571428572 -3.428571428571429,0 z" style="fill: black; stroke-width: 1px; stroke: black;"></path></g><g class="djs-visual" id="Activity_0hzhrhq" transform="translate(125 500)"><rect x="0" y="0" width="130" height="100" rx="10" ry="10" style="stroke: black; stroke-width: 2px; fill: white; fill-opacity: 0.95;"></rect><text lineHeight="1.2" class="djs-label" style="font-family: Arial, sans-serif; font-size: 12px; font-weight: normal; fill: black;"><tspan x="22.814453125" y="46.4">Check status of </tspan><tspan x="24.31640625" y="60.8">incoming credit</tspan></text></g><g class="djs-visual" id="Activity_1nwos94" transform="translate(785 500)"><rect x="0" y="0" width="130" height="100" rx="10" ry="10" style="stroke: black; stroke-width: 2px; fill: white; fill-opacity: 0.95;"></rect><text lineHeight="1.2" class="djs-label" style="font-family: Arial, sans-serif; font-size: 12px; font-weight: normal; fill: black;"><tspan x="7.8125" y="46.4">Check if inward recall </tspan><tspan x="19.8076171875" y="60.8">status is pending</tspan></text></g><g class="djs-visual" id="Gateway_0jdmm6z" transform="translate(165 675)"><polygon points="25,0 50,25 25,50 0,25" style="stroke: black; stroke-width: 2px; fill: white; fill-opacity: 0.95;"></polygon><path d="m 16,15 7.42857142857143,9.714285714285715 -7.42857142857143,9.714285714285715 3.428571428571429,0 5.714285714285715,-7.464228571428572 5.714285714285715,7.464228571428572 3.428571428571429,0 -7.42857142857143,-9.714285714285715 7.42857142857143,-9.714285714285715 -3.428571428571429,0 -5.714285714285715,7.464228571428572 -5.714285714285715,-7.464228571428572 -3.428571428571429,0 z" style="fill: black; stroke-width: 1px; stroke: black;"></path></g><g class="djs-visual" id="Gateway_1piwxy1" transform="translate(165 1095)"><polygon points="25,0 50,25 25,50 0,25" style="stroke: black; stroke-width: 2px; fill: white; fill-opacity: 0.95;"></polygon><path d="m 16,15 7.42857142857143,9.714285714285715 -7.42857142857143,9.714285714285715 3.428571428571429,0 5.714285714285715,-7.464228571428572 5.714285714285715,7.464228571428572 3.428571428571429,0 -7.42857142857143,-9.714285714285715 7.42857142857143,-9.714285714285715 -3.428571428571429,0 -5.714285714285715,7.464228571428572 -5.714285714285715,-7.464228571428572 -3.428571428571429,0 z" style="fill: black; stroke-width: 1px; stroke: black;"></path></g><g class="djs-visual" id="Activity_0f4uyxa" transform="translate(445 780)"><rect x="0" y="0" width="130" height="100" rx="10" ry="10" style="stroke: black; stroke-width: 2px; fill: white; fill-opacity: 0.95;"></rect><text lineHeight="1.2" class="djs-label" style="font-family: Arial, sans-serif; font-size: 12px; font-weight: normal; fill: black;"><tspan x="8.14453125" y="46.4">Perform Investigation</tspan><tspan x="31.4765625" y="60.8">and respond</tspan></text></g><g class="djs-visual" id="Activity_0un5sdp" transform="translate(445 950)"><rect x="0" y="0" width="130" height="100" rx="10" ry="10" style="stroke: black; stroke-width: 2px; fill: white; fill-opacity: 0.95;"></rect><text lineHeight="1.2" class="djs-label" style="font-family: Arial, sans-serif; font-size: 12px; font-weight: normal; fill: black;"><tspan x="13.6396484375" y="53.599999999999994">Authorise response</tspan></text></g><g class="djs-visual" id="Activity_0yw844y" transform="translate(125 1190)"><rect x="0" y="0" width="130" height="100" rx="10" ry="10" style="stroke: black; stroke-width: 2px; fill: white; fill-opacity: 0.95;"></rect><text lineHeight="1.2" class="djs-label" style="font-family: Arial, sans-serif; font-size: 12px; font-weight: normal; fill: black;"><tspan x="14.970703125" y="39.2">Generate payment </tspan><tspan x="16.1455078125" y="53.6">status message to </tspan><tspan x="38.4912109375" y="68">Customer</tspan></text></g><g class="djs-visual" id="DataObjectReference_1s2yj65" transform="translate(312 1215)"><path d="m 0,0 28.23529411764706,0 7.058823529411765,8.196721311475411 0,40.98360655737705 -35.294117647058826,0 0,-49.18032786885246 28.23529411764706,0 0,8.196721311475411 7.058823529411765,0" style="fill: white; stroke-width: 2px; stroke: black; fill-opacity: 0.95;"></path></g><g class="djs-visual" id="DataObjectReference_1s2yj65_label" transform="translate(308 1272)"><text lineHeight="1.2" class="djs-label" style="font-family: Arial, sans-serif; font-size: 11px; font-weight: normal; fill: black;"><tspan x="0" y="9.899999999999999">pacs.002</tspan></text></g><g class="djs-visual" id="Event_09nd4n6" transform="translate(172 1362)"><circle cx="18" cy="18" r="18" style="stroke: black; stroke-width: 4px; fill: white; fill-opacity: 0.95;"></circle></g><g class="djs-visual" id="Event_09nd4n6_label" transform="translate(156 1405)"><text lineHeight="1.2" class="djs-label" style="font-family: Arial, sans-serif; font-size: 11px; font-weight: normal; fill: black;"><tspan x="0" y="9.899999999999999">Responded to </tspan><tspan x="3.3671875" y="23.099999999999998">Investigation </tspan><tspan x="11.9296875" y="36.3">message</tspan></text></g><g class="djs-visual" id="Gateway_1pjt8rf" transform="translate(825 675)"><polygon points="25,0 50,25 25,50 0,25" style="stroke: black; stroke-width: 2px; fill: white; fill-opacity: 0.95;"></polygon><path d="m 16,15 7.42857142857143,9.714285714285715 -7.42857142857143,9.714285714285715 3.428571428571429,0 5.714285714285715,-7.464228571428572 5.714285714285715,7.464228571428572 3.428571428571429,0 -7.42857142857143,-9.714285714285715 7.42857142857143,-9.714285714285715 -3.428571428571429,0 -5.714285714285715,7.464228571428572 -5.714285714285715,-7.464228571428572 -3.428571428571429,0 z" style="fill: black; stroke-width: 1px; stroke: black;"></path></g><g class="djs-visual" id="Activity_0p6ybms" transform="translate(785 780)"><rect x="0" y="0" width="130" height="100" rx="10" ry="10" style="stroke: black; stroke-width: 2px; fill: white; fill-opacity: 0.95;"></rect><text lineHeight="1.2" class="djs-label" style="font-family: Arial, sans-serif; font-size: 12px; font-weight: normal; fill: black;"><tspan x="14.970703125" y="39.2">Generate payment </tspan><tspan x="16.1455078125" y="53.6">status message to </tspan><tspan x="38.4912109375" y="68">Customer</tspan></text></g><g class="djs-visual" id="Activity_1gy2azr" transform="translate(1145 773)"><rect x="0" y="0" width="130" height="100" rx="10" ry="10" style="stroke: black; stroke-width: 2px; fill: white; fill-opacity: 0.95;"></rect><text lineHeight="1.2" class="djs-label" style="font-family: Arial, sans-serif; font-size: 12px; font-weight: normal; fill: black;"><tspan x="27.9765625" y="53.599999999999994">Update status</tspan></text></g><g class="djs-visual" id="Activity_1fku6vq" transform="translate(1145 950)"><rect x="0" y="0" width="130" height="100" rx="10" ry="10" style="stroke: black; stroke-width: 2px; fill: white; fill-opacity: 0.95;"></rect><text lineHeight="1.2" class="djs-label" style="font-family: Arial, sans-serif; font-size: 12px; font-weight: normal; fill: black;"><tspan x="6.796875" y="39.2">Generate and Publish </tspan><tspan x="21.814453125" y="53.6">event for Inward </tspan><tspan x="12.80859375" y="68">Recall Investigation</tspan></text></g><g class="djs-visual" id="Event_0jfxn8b" transform="translate(832 952)"><circle cx="18" cy="18" r="18" style="stroke: black; stroke-width: 4px; fill: white; fill-opacity: 0.95;"></circle></g><g class="djs-visual" id="Event_0jfxn8b_label" transform="translate(815 995)"><text lineHeight="1.2" class="djs-label" style="font-family: Arial, sans-serif; font-size: 11px; font-weight: normal; fill: black;"><tspan x="1.33154296875" y="9.899999999999999">Response for </tspan><tspan x="3.829833984375" y="23.099999999999998">Investigation </tspan><tspan x="0" y="36.3">message sent</tspan></text></g><g class="djs-visual" id="Event_0g3vj1j" transform="translate(1192 1132)"><circle cx="18" cy="18" r="18" style="stroke: black; stroke-width: 4px; fill: white; fill-opacity: 0.95;"></circle></g><g class="djs-visual" id="Event_0g3vj1j_label" transform="translate(1162 1175)"><text lineHeight="1.2" class="djs-label" style="font-family: Arial, sans-serif; font-size: 11px; font-weight: normal; fill: black;"><tspan x="0" y="9.899999999999999">Recall request to be </tspan><tspan x="28.125" y="23.099999999999998">actioned</tspan></text></g><g class="djs-visual" id="DataObjectReference_1p24tff" transform="translate(982 805)"><path d="m 0,0 28.23529411764706,0 7.058823529411765,8.196721311475411 0,40.98360655737705 -35.294117647058826,0 0,-49.18032786885246 28.23529411764706,0 0,8.196721311475411 7.058823529411765,0" style="fill: white; stroke-width: 2px; stroke: black; fill-opacity: 0.95;"></path></g><g class="djs-visual" id="DataObjectReference_1p24tff_label" transform="translate(977 862)"><text lineHeight="1.2" class="djs-label" style="font-family: Arial, sans-serif; font-size: 11px; font-weight: normal; fill: black;"><tspan x="0" y="9.899999999999999">camt.029</tspan></text></g><g class="djs-visual" id="TextAnnotation_1kg2b3k" transform="translate(1320 720)"><rect x="0" y="0" width="180" height="43" rx="0" ry="0" style="stroke: none; stroke-width: 2px; fill: none;"></rect><path d="m 0, 0 m 10,0 l -10,0 l 0,43 l 10,0" style="fill: none; stroke-width: 2px; stroke: black;"></path><text lineHeight="1.2" class="djs-label" style="font-family: Arial, sans-serif; font-size: 12px; font-weight: normal; fill: black;"><tspan x="5" y="15.799999999999999">Update status as investigation</tspan><tspan x="5" y="30.199999999999996">message received in EBQA</tspan></text></g><g class="djs-visual" id="TextAnnotation_003w0gn" transform="translate(1320 880)"><rect x="0" y="0" width="210" height="72" rx="0" ry="0" style="stroke: none; stroke-width: 2px; fill: none;"></rect><path d="m 0, 0 m 10,0 l -10,0 l 0,72 l 10,0" style="fill: none; stroke-width: 2px; stroke: black;"></path><text lineHeight="1.2" class="djs-label" style="font-family: Arial, sans-serif; font-size: 12px; font-weight: normal; fill: black;"><tspan x="5" y="15.799999999999999">IF event will be generated</tspan><tspan x="5" y="30.199999999999996">if Publish Special Event is</tspan><tspan x="5" y="44.599999999999994">configured in</tspan><tspan x="5" y="58.99999999999999">PAYMENT.ORDER.PARAMETER</tspan></text></g><g class="djs-visual" id="TextAnnotation_15dcvts" transform="translate(250 80)"><rect x="0" y="0" width="130" height="30" rx="0" ry="0" style="stroke: none; stroke-width: 2px; fill: none;"></rect><path d="m 0, 0 m 10,0 l -10,0 l 0,30 l 10,0" style="fill: none; stroke-width: 2px; stroke: black;"></path><text lineHeight="1.2" class="djs-label" style="font-family: Arial, sans-serif; font-size: 12px; font-weight: normal; fill: black;"><tspan x="5" y="15.799999999999999">Receipt of pacs.028</tspan></text></g><g class="djs-visual" id="Flow_1c6msws_label" transform="translate(191 440)"><text lineHeight="1.2" class="djs-label" style="font-family: Arial, sans-serif; font-size: 11px; font-weight: normal; fill: black;"><tspan x="6.525390625" y="9.899999999999999">Investigation for </tspan><tspan x="0" y="23.099999999999998">Incoming Payment</tspan></text></g><g class="djs-visual" id="Flow_188jrbm_label" transform="translate(860 446)"><text lineHeight="1.2" class="djs-label" style="font-family: Arial, sans-serif; font-size: 11px; font-weight: normal; fill: black;"><tspan x="0" y="9.899999999999999">Investigation for </tspan><tspan x="5.8984375" y="23.099999999999998">Inward Recall</tspan></text></g><g class="djs-visual" id="Flow_0pifj81_label" transform="translate(202 735)"><text lineHeight="1.2" class="djs-label" style="font-family: Arial, sans-serif; font-size: 11px; font-weight: normal; fill: black;"><tspan x="0" y="9.899999999999999">End State</tspan></text></g><g class="djs-visual" id="Flow_0w0pt0e_label" transform="translate(519 737)"><text lineHeight="1.2" class="djs-label" style="font-family: Arial, sans-serif; font-size: 11px; font-weight: normal; fill: black;"><tspan x="0" y="9.899999999999999">Not in End State</tspan></text></g><g class="djs-visual" id="DataOutputAssociation_09e2iv2" transform="translate(0 0)"><polyline points="255,1240 312,1240 " style="fill: none; stroke: black; stroke-width: 2px; stroke-dasharray: 0.5, 5; stroke-linecap: round; stroke-linejoin: round; marker-end: url(&quot;#association-end-white-black-5jw49qc088tw29xbk1qbjz21n&quot;);"></polyline></g><g class="djs-visual" id="DataOutputAssociation_0rzx8d0" transform="translate(0 0)"><polyline points="915,830 982,830 " style="fill: none; stroke: black; stroke-width: 2px; stroke-dasharray: 0.5, 5; stroke-linecap: round; stroke-linejoin: round; marker-end: url(&quot;#association-end-white-black-5jw49qc088tw29xbk1qbjz21n&quot;);"></polyline></g><g class="djs-visual" id="Flow_0fdmsud_label" transform="translate(853 735)"><text lineHeight="1.2" class="djs-label" style="font-family: Arial, sans-serif; font-size: 11px; font-weight: normal; fill: black;"><tspan x="0" y="9.899999999999999">Recall status is not </tspan><tspan x="27.052978515625" y="23.099999999999998">pending</tspan></text></g><g class="djs-visual" id="Flow_0ewnmvd_label" transform="translate(1221 733)"><text lineHeight="1.2" class="djs-label" style="font-family: Arial, sans-serif; font-size: 11px; font-weight: normal; fill: black;"><tspan x="0" y="9.899999999999999">Recall status is </tspan><tspan x="17.6572265625" y="23.099999999999998">pending</tspan></text></g><g class="djs-visual" id="Association_0hp5j3e" transform="translate(0 0)"><polyline points="1274,780 1320,749 " style="fill: none; stroke: black; stroke-width: 2px; stroke-dasharray: 0.5, 5; stroke-linecap: round; stroke-linejoin: round;"></polyline></g><g class="djs-visual" id="Association_1sc43h3" transform="translate(0 0)"><polyline points="1271,952 1320,916 " style="fill: none; stroke: black; stroke-width: 2px; stroke-dasharray: 0.5, 5; stroke-linecap: round; stroke-linejoin: round;"></polyline></g><g class="djs-visual" id="Association_16t08zz" transform="translate(0 0)"><polyline points="207,113 250,95 " style="fill: none; stroke: black; stroke-width: 2px; stroke-dasharray: 0.5, 5; stroke-linecap: round; stroke-linejoin: round;"></polyline></g></g><g><rect class="viewport" x="-1041.2887931034484" y="30.0301724137931" width="3739.2241379310344" height="1422.4137931034481"></rect></g></svg>